<?xml version="1.0" encoding="UTF-8" standalone="no"?>
<!-- Created with Inkscape (http://www.inkscape.org/) -->

<svg
   width="420mm"
   height="297mm"
   viewBox="0 0 420 297"
   version="1.1"
   id="svg2646"
   inkscape:version="1.3.2 (091e20e, 2023-11-25, custom)"
   sodipodi:docname="image46.svg"
   xmlns:inkscape="http://www.inkscape.org/namespaces/inkscape"
   xmlns:sodipodi="http://sodipodi.sourceforge.net/DTD/sodipodi-0.dtd"
   xmlns="http://www.w3.org/2000/svg"
   xmlns:svg="http://www.w3.org/2000/svg">
  <sodipodi:namedview
     id="namedview2648"
     pagecolor="#ffffff"
     bordercolor="#000000"
     borderopacity="0.25"
     inkscape:showpageshadow="2"
     inkscape:pageopacity="0.0"
     inkscape:pagecheckerboard="0"
     inkscape:deskcolor="#d1d1d1"
     inkscape:document-units="mm"
     showgrid="false"
     inkscape:zoom="0.46903409"
     inkscape:cx="1074.5488"
     inkscape:cy="868.80679"
     inkscape:window-width="2145"
     inkscape:window-height="1560"
     inkscape:window-x="1156"
     inkscape:window-y="290"
     inkscape:window-maximized="0"
     inkscape:current-layer="layer1" />
  <defs
     id="defs2643" />
  <g
     inkscape:label="Layer 1"
     inkscape:groupmode="layer"
     id="layer1">
    <g
       id="g6971"
       inkscape:export-filename="img46b.svg"
       inkscape:export-xdpi="96"
       inkscape:export-ydpi="96"
       transform="matrix(0.81723483,0,0,0.81723483,217.96777,-80.801596)">
      <line
         fill="none"
         stroke-width="0.95732"
         stroke-linejoin="round"
         stroke="#000000"
         stroke-opacity="1"
         x1="58.753422"
         y1="197.03844"
         x2="104.7048"
         y2="197.03844"
         id="line9498" />
      <line
         fill="none"
         stroke-width="0.95732"
         stroke-linejoin="round"
         stroke="#000000"
         stroke-opacity="1"
         x1="54.924141"
         y1="197.03844"
         x2="70.241264"
         y2="215.98138"
         id="line9500" />
      <line
         fill="none"
         stroke-width="0.95732"
         stroke-linejoin="round"
         stroke="#000000"
         stroke-opacity="1"
         x1="70.241264"
         y1="216.18484"
         x2="70.241264"
         y2="250.44492"
         id="line9502" />
      <path
         fill="#ffffff"
         fill-opacity="1"
         stroke-width="0.319107"
         stroke-linejoin="round"
         stroke="#000000"
         stroke-opacity="1"
         d="m 55.127525,193.20915 c 2.010372,0 3.62585,1.57958 3.62585,3.53012 0,1.95054 -1.615478,3.53012 -3.62585,3.53012 -1.998406,0 -3.625851,-1.57958 -3.625851,-3.53012 0,-1.95054 1.627445,-3.53012 3.625851,-3.53012 z"
         id="path9504" />
      <rect
         x="66.411987"
         y="212.35556"
         fill="#ffffff"
         fill-opacity="1"
         stroke-width="0.319107"
         stroke-linejoin="round"
         stroke="#000000"
         stroke-opacity="1"
         width="7.6585617"
         height="7.6585617"
         id="rect9506" />
      <rect
         x="35.777737"
         y="177.89203"
         fill="none"
         stroke-width="0.319107"
         stroke-linejoin="round"
         stroke="#000000"
         stroke-opacity="1"
         width="107.21986"
         height="99.561302"
         id="rect9508" />
      <path
         fill="#000000"
         fill-opacity="1"
         stroke-linejoin="round"
         d="m 104.86436,192.15138 v 1.59154 h -0.3231 v -1.59154 z m 0,3.18309 v 1.60351 h -0.3231 v -1.60351 z m 0,3.19506 v 1.59154 h -0.3231 v -1.59154 z m 0,3.19505 v 1.59155 h -0.3231 v -1.59155 z m 0,3.18309 v 1.60351 h -0.3231 v -1.60351 z m 0,3.19506 v 1.59154 h -0.3231 v -1.59154 z m 0,3.19505 v 1.59155 h -0.3231 v -1.59155 z m 0,3.18309 v 1.60352 h -0.3231 v -1.60352 z m 0,3.19506 v 1.59155 h -0.3231 v -1.59155 z m 0,3.19506 v 1.59154 h -0.3231 v -1.59154 z m 0,3.18309 v 1.60351 h -0.3231 v -1.60351 z m 0,3.19505 v 1.59155 h -0.3231 v -1.59155 z m 0,3.19506 v 1.59154 h -0.3231 v -1.59154 z m 0,3.18309 v 1.60351 h -0.3231 v -1.60351 z m 0,3.19506 v 1.59154 h -0.3231 v -1.59154 z m 0,3.19505 v 1.59155 h -0.3231 v -1.59155 z m 0,3.18309 v 1.60351 h -0.3231 v -1.60351 z m 0,3.19506 v 1.59154 h -0.3231 v -1.59154 z m 0,3.19505 v 1.59155 h -0.3231 v -1.59155 z m 0,3.18309 v 1.60352 h -0.3231 v -1.60352 z m 0,3.19506 v 1.59155 h -0.3231 v -1.59155 z m 0,-67.01242 v 1.59155 h -0.3231 v -1.59155 z"
         id="path9512"
         style="stroke-width:0.119665" />
      <rect
         x="100.87551"
         y="193.20915"
         fill="#ffffff"
         fill-opacity="1"
         stroke-width="0.319107"
         stroke-linejoin="round"
         stroke="#000000"
         stroke-opacity="1"
         width="7.6585617"
         height="7.6585617"
         id="rect9514" />
      <line
         fill="none"
         stroke-width="0.95732"
         stroke-linejoin="round"
         stroke="#000000"
         stroke-opacity="1"
         x1="70.241264"
         y1="250.64838"
         x2="104.7048"
         y2="250.64838"
         id="line9516" />
      <path
         fill="#ffffff"
         fill-opacity="1"
         stroke-width="0.319107"
         stroke-linejoin="round"
         stroke="#000000"
         stroke-opacity="1"
         d="m 70.241218,246.81909 c 2.118071,0 3.829281,1.62744 3.829281,3.62585 0,2.01037 -1.71121,3.62585 -3.829281,3.62585 -2.106104,0 -3.829281,-1.61548 -3.829281,-3.62585 0,-1.99841 1.723177,-3.62585 3.829281,-3.62585 z"
         id="path9518" />
      <rect
         x="100.87551"
         y="246.81909"
         fill="#ffffff"
         fill-opacity="1"
         stroke-width="0.319107"
         stroke-linejoin="round"
         stroke="#000000"
         stroke-opacity="1"
         width="7.6585617"
         height="7.6585617"
         id="rect9520" />
      <rect
         x="116.18468"
         y="205.52669"
         fill="#ffffff"
         fill-opacity="1"
         stroke-width="0.303187"
         stroke-linejoin="round"
         stroke="#000000"
         stroke-opacity="1"
         width="91.100349"
         height="20.035007"
         id="rect9522" />
      <text
         xml:space="preserve"
         id="text9530"
         x="116.08489"
         y="212.35556"
         style="font-size:1.43598px;stroke-width:0.119665"
         dy="0 0 0 0 0 0 0 0 0 0 0 0 0 0 0 0 0 0 0 0 0 0 0 0 0 0 0 0 0 0 0 0 0 0 0 0 0 0 0 0 0 2.5 0 0 0 0 0 0 0 0 0 0 0 0 0 0 0 0 0 0 0 0 0 0 0 0 0 0 0 0 2.5">		 <tspan
   style="font-size:4.46749px;font-family:'メイリオ'"
   letter-spacing="0em"
   fill="#000000"
   fill-opacity="1"
   stroke-width="0.023933"
   stroke-linejoin="round"
   id="tspan9524">There is more than one □ in one house</tspan>		 <tspan
   x="116.08489"
   dy="1.9385736"
   style="font-size:4.46749px;font-family:'メイリオ'"
   letter-spacing="0em"
   fill="#000000"
   fill-opacity="1"
   stroke-width="0.023933"
   stroke-linejoin="round"
   id="tspan9526"> ⇒□is not a focused digit</tspan>		 <tspan
   x="116.08489"
   dy="1.9385736"
   style="font-size:4.46749px;font-family:'メイリオ'"
   letter-spacing="0em"
   fill="#000000"
   fill-opacity="1"
   stroke-width="0.023933"
   stroke-linejoin="round"
   id="tspan9528"> ⇒All  are fixed to focused digit</tspan>	</text>
      <line
         fill="none"
         stroke-width="0.319107"
         stroke-linejoin="round"
         stroke="#000000"
         stroke-opacity="1"
         x1="104.7048"
         y1="220.01411"
         x2="116.19263"
         y2="220.01411"
         id="line9532" />
      <line
         fill="none"
         stroke-width="0.95732"
         stroke-linejoin="round"
         stroke="#000000"
         stroke-opacity="1"
         x1="51.022991"
         y1="268.92123"
         x2="62.510952"
         y2="268.92123"
         id="line9596" />
      <line
         fill="none"
         stroke-width="0.319107"
         stroke-linejoin="round"
         stroke="#000000"
         stroke-opacity="1"
         x1="93.145195"
         y1="268.92123"
         x2="103.3644"
         y2="268.92123"
         id="line9598" />
      <path
         fill="#000000"
         fill-opacity="1"
         stroke-linejoin="round"
         d="m 96.340161,268.76565 h 1.591545 v 0.3231 h -1.591545 z m 3.195056,0 h 1.591543 v 0.3231 h -1.591543 z m 3.183093,0 h 0.64619 v 0.3231 h -0.64619 z m -9.573205,0 h 1.603511 v 0.3231 h -1.603511 z"
         id="path9600"
         style="stroke-width:0.119665" />
      <text
         xml:space="preserve"
         id="text9604"
         x="63.073284"
         y="270.3931"
         style="font-size:1.43598px;stroke-width:0.119665">		 <tspan
   style="font-size:4.46749px;font-family:'メイリオ'"
   letter-spacing="0em"
   fill="#000000"
   fill-opacity="1"
   stroke-width="0.023933"
   stroke-linejoin="round"
   id="tspan9602">Strong Link</tspan>	</text>
      <text
         xml:space="preserve"
         id="text9608"
         x="104.59705"
         y="270.27344"
         style="font-size:1.43598px;stroke-width:0.119665">		 <tspan
   style="font-size:4.46749px;font-family:'メイリオ'"
   letter-spacing="0em"
   fill="#000000"
   fill-opacity="1"
   stroke-width="0.023933"
   stroke-linejoin="round"
   id="tspan9606">Weak Link</tspan>	</text>
    </g>
    <g
       id="g4529"
       transform="matrix(0.7611901,0,0,0.7611901,72.20941,56.856172)"
       inkscape:export-filename="img46d.svg"
       inkscape:export-xdpi="96"
       inkscape:export-ydpi="96">
      <line
         fill="none"
         stroke-width="1.02528"
         stroke-linejoin="round"
         stroke="#000000"
         stroke-opacity="1"
         x1="227.2301"
         y1="170.74889"
         x2="276.44363"
         y2="170.74889"
         id="line9624" />
      <line
         fill="none"
         stroke-width="1.02528"
         stroke-linejoin="round"
         stroke="#000000"
         stroke-opacity="1"
         x1="223.62885"
         y1="170.06966"
         x2="240.03336"
         y2="191.03662"
         id="line9626" />
      <line
         fill="none"
         stroke-width="1.02528"
         stroke-linejoin="round"
         stroke="#000000"
         stroke-opacity="1"
         x1="239.53349"
         y1="190.5753"
         x2="239.53349"
         y2="215.18205"
         id="line9628" />
      <path
         fill="#ffffff"
         fill-opacity="1"
         stroke-width="0.341761"
         stroke-linejoin="round"
         stroke="#000000"
         stroke-opacity="1"
         d="m 223.34685,166.64778 c 2.14027,0 3.88326,1.69172 3.88326,3.78073 0,2.07619 -1.74299,3.76791 -3.88326,3.76791 -2.15309,0 -3.89607,-1.69172 -3.89607,-3.76791 0,-2.08901 1.74298,-3.78073 3.89607,-3.78073 z"
         id="path9630" />
      <rect
         x="210.25528"
         y="153.42278"
         fill="none"
         stroke-width="0.341761"
         stroke-linejoin="round"
         stroke="#000000"
         stroke-opacity="1"
         width="114.83168"
         height="106.62931"
         id="rect9632" />
      <path
         fill="#ffffff"
         fill-opacity="1"
         stroke-width="0.341761"
         stroke-linejoin="round"
         stroke="#000000"
         stroke-opacity="1"
         d="m 240.03331,211.51668 c 2.26843,0 4.10112,1.73016 4.10112,3.88325 0,2.14028 -1.83269,3.88325 -4.10112,3.88325 -2.25563,0 -4.10113,-1.74297 -4.10113,-3.88325 0,-2.15309 1.8455,-3.88325 4.10113,-3.88325 z"
         id="path9634" />
      <line
         fill="none"
         stroke-width="1.02528"
         stroke-linejoin="round"
         stroke="#000000"
         stroke-opacity="1"
         x1="239.95651"
         y1="191.25453"
         x2="256.36102"
         y2="191.25453"
         id="line9636" />
      <rect
         x="235.43236"
         y="187.1534"
         fill="#ffffff"
         fill-opacity="1"
         stroke-width="0.341761"
         stroke-linejoin="round"
         stroke="#000000"
         stroke-opacity="1"
         width="8.2022543"
         height="8.2022543"
         id="rect9638" />
      <line
         fill="none"
         stroke-width="1.02528"
         stroke-linejoin="round"
         stroke="#000000"
         stroke-opacity="1"
         x1="301.47342"
         y1="231.58656"
         x2="301.47342"
         y2="194.26628"
         id="line9640" />
      <path
         fill="#000000"
         fill-opacity="1"
         stroke-linejoin="round"
         d="m 298.83316,192.24931 -1.23034,-1.19189 0.23069,-0.2435 1.23034,1.19189 z m -2.46068,-2.38377 -1.23034,-1.17908 0.24352,-0.25632 1.23033,1.19188 z m -2.44785,-2.37097 -1.23034,-1.1919 0.2435,-0.2435 1.21753,1.19189 z m -2.46068,-2.38378 -1.21752,-1.19189 0.23069,-0.24351 1.23033,1.1919 z m -2.44786,-2.37097 -1.23034,-1.19188 0.2435,-0.24351 1.21753,1.17907 z m -2.46068,-2.38377 -1.21752,-1.1919 0.23069,-0.2435 1.23033,1.19189 z m -2.44786,-2.38379 -1.23034,-1.17907 0.2435,-0.25632 1.21753,1.19189 z m -2.46068,-2.37096 -1.21751,-1.19189 0.23069,-0.24351 1.23033,1.1919 z m -2.44785,-2.38378 -1.23034,-1.19189 0.2435,-0.2435 1.23034,1.19188 z m -2.46068,-2.38378 -0.14098,-0.14098 0.24351,-0.2435 0.14097,0.14098 z m 24.54268,23.79936 -1.23034,-1.1919 0.24351,-0.2435 1.23033,1.19188 z"
         id="path9644"
         style="stroke-width:0.12816" />
      <line
         fill="none"
         stroke-width="1.02528"
         stroke-linejoin="round"
         stroke="#000000"
         stroke-opacity="1"
         x1="276.86667"
         y1="170.06966"
         x2="276.86667"
         y2="206.97981"
         id="line9646" />
      <rect
         x="272.84238"
         y="165.96854"
         fill="#ffffff"
         fill-opacity="1"
         stroke-width="0.341761"
         stroke-linejoin="round"
         stroke="#000000"
         stroke-opacity="1"
         width="8.2022543"
         height="8.2022543"
         id="rect9648" />
      <path
         fill="#ffffff"
         fill-opacity="1"
         stroke-width="0.341761"
         stroke-linejoin="round"
         stroke="#000000"
         stroke-opacity="1"
         d="m 277.16132,203.5323 c 2.15309,0 3.88326,1.69171 3.88326,3.76791 0,2.08901 -1.73017,3.78072 -3.88326,3.78072 -2.14027,0 -3.88325,-1.69171 -3.88325,-3.78072 0,-2.0762 1.74298,-3.76791 3.88325,-3.76791 z"
         id="path9650" />
      <path
         fill="#000000"
         fill-opacity="1"
         stroke-width="0.341761"
         stroke-linejoin="round"
         stroke="#000000"
         stroke-opacity="1"
         d="m 301.34515,191.22891 c 2.14028,0 3.88326,1.69171 3.88326,3.76791 0,2.08902 -1.74298,3.78073 -3.88326,3.78073 -2.15309,0 -3.89606,-1.69171 -3.89606,-3.78073 0,-2.0762 1.74297,-3.76791 3.89606,-3.76791 z"
         id="path9652" />
      <rect
         x="297.44913"
         y="227.48543"
         fill="#000000"
         fill-opacity="1"
         stroke-width="0.341761"
         stroke-linejoin="round"
         stroke="#000000"
         stroke-opacity="1"
         width="8.2022543"
         height="8.2022543"
         id="rect9654" />
      <line
         fill="none"
         stroke-width="0.295564"
         stroke-linejoin="round"
         stroke="#000000"
         stroke-opacity="1"
         x1="256.43787"
         y1="211.08092"
         x2="293.34802"
         y2="175.84074"
         id="line9656" />
      <path
         fill="#000000"
         fill-opacity="1"
         stroke-linejoin="round"
         d="m 256.42501,224.88989 0.0129,-1.70453 h 0.33322 v 1.70453 z m 0.0129,-3.40906 v -1.71735 h 0.33322 v 1.71735 z m 0,-3.42188 v -1.70453 h 0.34603 l -0.0128,1.70453 z m 0,-3.42188 v -1.70452 h 0.34603 v 1.70452 z m 0,-3.40906 v -1.71735 h 0.34603 v 1.71735 z m 0,-3.42188 v -1.70453 h 0.34603 v 1.70453 z m 0,-3.42188 v -1.70453 h 0.34603 v 1.70453 z m 0,-3.40906 0.0128,-1.71734 h 0.33322 v 1.71734 z m 0.0128,-3.42187 v -1.70454 h 0.33322 v 1.70454 z m 0,-3.42188 v -1.70453 h 0.33322 v 1.70453 z m 0,-3.40906 v -1.71735 h 0.34603 v 1.71735 z m -0.0256,37.58939 v -1.70454 h 0.34603 v 1.70454 z"
         id="path9660"
         style="stroke-width:0.12816" />
      <path
         fill="#000000"
         fill-opacity="1"
         stroke-width="0.341761"
         stroke-linejoin="round"
         stroke="#000000"
         stroke-opacity="1"
         d="m 256.65569,228.13906 c 2.15309,0 3.88325,1.69171 3.88325,3.7679 0,2.08902 -1.73016,3.78073 -3.88325,3.78073 -2.14028,0 -3.88325,-1.69171 -3.88325,-3.78073 0,-2.07619 1.74297,-3.7679 3.88325,-3.7679 z"
         id="path9662" />
      <line
         fill="none"
         stroke-width="1.02528"
         stroke-linejoin="round"
         stroke="#000000"
         stroke-opacity="1"
         x1="256.43787"
         y1="231.58656"
         x2="301.55026"
         y2="231.58656"
         id="line9664" />
      <path
         fill="#ffffff"
         fill-opacity="1"
         stroke-width="0.341761"
         stroke-linejoin="round"
         stroke="#000000"
         stroke-opacity="1"
         d="m 256.57879,187.79422 c 2.15309,0 3.88326,1.69171 3.88326,3.78073 0,2.08901 -1.73017,3.78072 -3.88326,3.78072 -2.14027,0 -3.88325,-1.69171 -3.88325,-3.78072 0,-2.08902 1.74298,-3.78073 3.88325,-3.78073 z"
         id="path9666" />
      <line
         fill="none"
         stroke-width="0.341761"
         stroke-linejoin="round"
         stroke="#000000"
         stroke-opacity="1"
         x1="290.36176"
         y1="183.33424"
         x2="297.03888"
         y2="169.32635"
         id="line9668" />
      <g
         id="g4416"
         transform="matrix(0.87477693,0,0,0.87477693,26.431788,19.306078)">
        <line
           fill="none"
           stroke-width="1.17205"
           stroke-linejoin="round"
           stroke="#000000"
           stroke-opacity="1"
           x1="230.02574"
           y1="265.2381"
           x2="244.09048"
           y2="265.2381"
           id="line9670" />
        <path
           fill="#000000"
           fill-opacity="1"
           stroke-linejoin="round"
           d="m 286.19588,265.04032 h 2.18034 v 0.39557 h -2.18034 z m 4.37706,0 h 2.18032 v 0.39557 h -2.18032 z m 4.36065,0 h 0.88525 v 0.39557 h -0.88525 z m -13.11475,0 h 2.19672 v 0.39557 h -2.19672 z"
           id="path9674"
           style="stroke-width:0.154975" />
        <text
           xml:space="preserve"
           id="text9678"
           x="242.13315"
           y="266.7684"
           style="font-size:1.75807px;stroke-width:0.146506">			 <tspan
   style="font-size:5.46956px;font-family:'メイリオ'"
   letter-spacing="0em"
   fill="#000000"
   fill-opacity="1"
   stroke-width="0.0293012"
   stroke-linejoin="round"
   id="tspan9676">Strong Link</tspan>		</text>
        <text
           xml:space="preserve"
           id="text9682"
           x="295.61658"
           y="267.29852"
           style="font-size:1.75807px;stroke-width:0.146506">			 <tspan
   style="font-size:5.46956px;font-family:'メイリオ'"
   letter-spacing="0em"
   fill="#000000"
   fill-opacity="1"
   stroke-width="0.0293012"
   stroke-linejoin="round"
   id="tspan9680">Weak Link</tspan>		</text>
      </g>
      <rect
         x="293.34802"
         y="163.53737"
         fill="#ffffff"
         fill-opacity="1"
         stroke-width="0.341761"
         stroke-linejoin="round"
         stroke="#000000"
         stroke-opacity="1"
         width="90.147644"
         height="12.303381"
         id="rect9684" />
      <text
         xml:space="preserve"
         id="text9688"
         x="296.04068"
         y="171.50937"
         style="font-size:1.53792px;stroke-width:0.12816">			 <tspan
   style="font-size:4.78465px;font-family:'メイリオ'"
   letter-spacing="0em"
   fill="#000000"
   fill-opacity="1"
   stroke-width="0.025632"
   stroke-linejoin="round"
   id="tspan9686">Two series are linked by weak links</tspan>		</text>
    </g>
    <g
       id="g1"
       transform="translate(0,-1.6272644)"
       inkscape:export-filename="img46c.svg"
       inkscape:export-xdpi="96"
       inkscape:export-ydpi="96">
      <rect
         x="42.900562"
         y="175.26733"
         fill="none"
         stroke-width="0.260145"
         stroke-linejoin="round"
         stroke="#000000"
         stroke-opacity="1"
         width="87.408745"
         height="81.165176"
         id="rect4496"
         inkscape:export-filename="img46c.png"
         inkscape:export-xdpi="96"
         inkscape:export-ydpi="96" />
      <line
         fill="none"
         stroke-width="0.812616"
         stroke-linejoin="round"
         stroke="#000000"
         stroke-opacity="1"
         x1="55.699741"
         y1="188.73886"
         x2="94.705605"
         y2="188.73886"
         id="line9534" />
      <line
         fill="none"
         stroke-width="0.812616"
         stroke-linejoin="round"
         stroke="#000000"
         stroke-opacity="1"
         x1="52.784534"
         y1="188.73886"
         x2="65.786568"
         y2="204.81856"
         id="line9536" />
      <line
         fill="none"
         stroke-width="0.812616"
         stroke-linejoin="round"
         stroke="#000000"
         stroke-opacity="1"
         x1="65.451271"
         y1="204.99126"
         x2="65.451271"
         y2="234.24557"
         id="line9538" />
      <path
         fill="#ffffff"
         fill-opacity="1"
         stroke-width="0.270873"
         stroke-linejoin="round"
         stroke="#000000"
         stroke-opacity="1"
         d="m 52.62204,185.48838 c 1.69634,0 3.0778,1.34082 3.0778,2.99653 0,1.65572 -1.38146,2.99654 -3.0778,2.99654 -1.7065,0 -3.08795,-1.34082 -3.08795,-2.99654 0,-1.65571 1.38145,-2.99653 3.08795,-2.99653 z"
         id="path9540" />
      <path
         fill="#000000"
         fill-opacity="1"
         stroke-linejoin="round"
         d="M 58.54603,234.27172 H 59.897 v 0.2641 h -1.35097 z m 2.71211,0 h 1.35098 v 0.2641 h -1.35098 z m 2.70196,0 h 1.36114 v 0.2641 H 63.9601 Z m 2.71213,0 h 1.35097 v 0.2641 h -1.35097 z m 2.71211,0 h 1.35098 v 0.2641 h -1.35098 z m 2.70195,0 h 1.36115 v 0.2641 h -1.36115 z m 2.71213,0 h 1.35098 v 0.2641 h -1.35098 z m 2.71211,0 h 1.35099 v 0.2641 h -1.35099 z m 2.70196,0 h 1.36115 v 0.2641 h -1.36115 z m 2.71213,0 h 1.35098 v 0.2641 h -1.35098 z m 2.71211,0 h 1.35098 v 0.2641 h -1.35098 z m 2.70196,0 h 1.36114 v 0.2641 h -1.36114 z m 2.71213,0 h 1.35098 v 0.2641 h -1.35098 z m 2.71211,0 h 1.35098 v 0.2641 h -1.35098 z m 2.70196,0 h 1.36114 v 0.2641 h -1.36114 z m 2.71213,0 h 1.35097 v 0.2641 h -1.35097 z m 2.7121,0 h 1.35099 v 0.2641 h -1.35099 z m -46.05522,0 h 1.36114 v 0.2641 H 55.8339 Z"
         id="path9546"
         style="stroke-width:0.101577" />
      <path
         fill="#ffffff"
         fill-opacity="1"
         stroke-width="0.270873"
         stroke-linejoin="round"
         stroke="#000000"
         stroke-opacity="1"
         d="m 65.45128,230.99509 c 1.78776,0 3.25048,1.38145 3.25048,3.0778 0,1.7065 -1.46272,3.0778 -3.25048,3.0778 -1.79793,0 -3.25048,-1.3713 -3.25048,-3.0778 0,-1.69635 1.45255,-3.0778 3.25048,-3.0778 z"
         id="path9548" />
      <rect
         x="124.2952"
         y="226.72884"
         fill="#ffffff"
         fill-opacity="1"
         stroke-width="0.270873"
         stroke-linejoin="round"
         stroke="#000000"
         stroke-opacity="1"
         width="58.447685"
         height="11.071944"
         id="rect9550" />
      <text
         xml:space="preserve"
         id="text9556"
         x="126.77161"
         y="229.63167"
         style="font-size:1.21893px;stroke-width:0.101577"
         dy="0 0 0 0 0 0 0 0 0 0 0 0 0 0 0 0 0.76119012 1.5223802"><tspan
   style="font-size:3.79222px;font-family:'メイリオ'"
   letter-spacing="0em"
   fill="#000000"
   fill-opacity="1"
   stroke-width="0.0203155"
   stroke-linejoin="round"
   id="tspan9552"
   dx="0 0 0 0 0.0076119006"
   dy="1.9029752">This is Locked,</tspan>		 <tspan
   x="126.77161"
   dy="1.6455553"
   style="font-size:3.79222px;font-family:'メイリオ'"
   letter-spacing="0em"
   fill="#000000"
   fill-opacity="1"
   stroke-width="0.0203155"
   stroke-linejoin="round"
   id="tspan9554">It does not focused number</tspan>	</text>
      <line
         fill="none"
         stroke-width="0.812616"
         stroke-linejoin="round"
         stroke="#000000"
         stroke-opacity="1"
         x1="65.786568"
         y1="204.99126"
         x2="78.78849"
         y2="204.99126"
         id="line9558" />
      <rect
         x="62.200794"
         y="201.74077"
         fill="#ffffff"
         fill-opacity="1"
         stroke-width="0.270873"
         stroke-linejoin="round"
         stroke="#000000"
         stroke-opacity="1"
         width="6.5009584"
         height="6.5009584"
         id="rect9560" />
      <path
         fill="#ffffff"
         fill-opacity="1"
         stroke-width="0.270873"
         stroke-linejoin="round"
         stroke="#000000"
         stroke-opacity="1"
         d="m 78.96108,202.25882 c 1.7065,0 3.07779,1.34082 3.07779,2.98638 0,1.65571 -1.37129,2.99653 -3.07779,2.99653 -1.69634,0 -3.0778,-1.34082 -3.0778,-2.99653 0,-1.64556 1.38146,-2.98638 3.0778,-2.98638 z"
         id="path9562" />
      <line
         fill="none"
         stroke-width="0.812616"
         stroke-linejoin="round"
         stroke="#000000"
         stroke-opacity="1"
         x1="114.54374"
         y1="224.49413"
         x2="114.54374"
         y2="195.23982"
         id="line9564" />
      <path
         fill="#000000"
         fill-opacity="1"
         stroke-linejoin="round"
         d="m 108.13574,192.66408 -1.27988,-0.42663 0.0812,-0.25394 1.29003,0.42662 z m -2.56991,-0.85325 -1.27987,-0.42663 0.0812,-0.25394 1.29004,0.42662 z m -2.56991,-0.85325 -1.27988,-0.42663 0.0812,-0.2641 1.29003,0.42662 z m -2.56992,-0.86341 -1.27987,-0.42663 0.0812,-0.25394 1.29004,0.42662 z m -2.5699,-0.85325 -1.27989,-0.42663 0.0812,-0.25394 1.29004,0.42662 z m -2.56991,-0.85326 -1.27988,-0.42662 0.0812,-0.2641 1.29002,0.42662 z m -2.56991,-0.8634 -1.27988,-0.42663 0.0812,-0.25394 1.29004,0.42662 z m 17.98937,6.00323 -1.27988,-0.42663 0.0812,-0.2641 1.29003,0.42662 z"
         id="path9568"
         style="stroke-width:0.101577" />
      <line
         fill="none"
         stroke-width="0.812616"
         stroke-linejoin="round"
         stroke="#000000"
         stroke-opacity="1"
         x1="95.040871"
         y1="188.73886"
         x2="95.040871"
         y2="208.24173"
         id="line9570" />
      <rect
         x="91.455116"
         y="185.48839"
         fill="#ffffff"
         fill-opacity="1"
         stroke-width="0.270873"
         stroke-linejoin="round"
         stroke="#000000"
         stroke-opacity="1"
         width="6.5009584"
         height="6.5009584"
         id="rect9572" />
      <path
         fill="#ffffff"
         fill-opacity="1"
         stroke-width="0.270873"
         stroke-linejoin="round"
         stroke="#000000"
         stroke-opacity="1"
         d="m 95.21348,205.5093 c 1.7065,0 3.07779,1.34082 3.07779,2.98638 0,1.65571 -1.37129,2.99653 -3.07779,2.99653 -1.69635,0 -3.0778,-1.34082 -3.0778,-2.99653 0,-1.64556 1.38145,-2.98638 3.0778,-2.98638 z"
         id="path9574" />
      <path
         fill="#000000"
         fill-opacity="1"
         stroke-width="0.270873"
         stroke-linejoin="round"
         stroke="#000000"
         stroke-opacity="1"
         d="m 114.71635,191.98934 c 1.7065,0 3.0778,1.34082 3.0778,2.99653 0,1.65571 -1.3713,2.99654 -3.0778,2.99654 -1.69635,0 -3.0778,-1.34083 -3.0778,-2.99654 0,-1.65571 1.38145,-2.99653 3.0778,-2.99653 z"
         id="path9576" />
      <rect
         x="111.29328"
         y="221.24365"
         fill="#000000"
         fill-opacity="1"
         stroke-width="0.270873"
         stroke-linejoin="round"
         stroke="#000000"
         stroke-opacity="1"
         width="6.5009584"
         height="6.5009584"
         id="rect9578" />
      <path
         fill="#000000"
         fill-opacity="1"
         stroke-width="0.270873"
         stroke-linejoin="round"
         stroke="#000000"
         stroke-opacity="1"
         d="m 104.79223,230.99509 -3.25048,5.18045 h 6.50096 z"
         id="path9580" />
      <path
         fill="#000000"
         fill-opacity="1"
         stroke-linejoin="round"
         d="m 101.0034,217.86112 h 1.35098 v 0.2641 h -1.35098 z m 2.71211,0 h 1.35098 v 0.2641 h -1.35098 z m 2.70196,0 h 1.36114 v 0.2641 h -1.36114 z m 2.71213,0 h 1.35097 v 0.2641 h -1.35097 z m 2.7121,0 h 1.35099 v 0.2641 h -1.35099 z m 2.70197,0 h 1.36114 v 0.2641 h -1.36114 z m 2.71212,0 h 1.35098 v 0.2641 h -1.35098 z m 2.71211,0 h 1.07673 0.0204 0.0102 0.0102 l 0.0102,0.0102 h 0.0204 l 0.0102,0.0102 0.0102,0.0102 0.0102,0.0102 0.0102,0.0102 v 0.0102 l 0.0102,0.0102 0.0102,0.0102 v 0.0102 0.0102 l 0.0102,0.0203 v 0.0102 0.27427 h -0.27426 v -0.27427 l 0.13205,0.13205 h -1.07671 z m 1.21893,1.75729 v 1.35098 h -0.27425 v -1.35098 z m 0,2.71212 v 1.35098 h -0.27425 v -1.35098 z m 0,2.70196 v 1.36113 h -0.27425 v -1.36113 z m 0,2.71212 v 1.35097 h -0.27425 v -1.35097 z m 0,2.71211 v 1.35099 h -0.27425 v -1.35099 z m 0,2.70197 v 1.36113 h -0.27425 v -1.36113 z m 0,2.71212 v 1.35098 h -0.27425 v -1.35098 z m 0,2.71212 v 1.35098 h -0.27425 v -1.35098 z m -0.68057,2.29565 h -1.35097 v -0.2641 h 1.35097 z m -2.71211,0 h -1.35098 v -0.2641 h 1.35098 z m -2.70197,0 h -1.36114 v -0.2641 h 1.36114 z m -2.71211,0 h -1.35098 v -0.2641 h 1.35098 z m -2.71212,0 h -1.35098 v -0.2641 h 1.35098 z m -2.70196,0 h -1.36114 v -0.2641 h 1.36114 z m -2.71212,0 h -1.35098 v -0.2641 h 1.35098 z m -2.71212,0 h -1.35098 v -0.2641 h 1.35098 z m -2.70196,0 h -0.54852 -0.0102 -0.0102 -0.0204 l -0.0102,-0.0102 h -0.0102 l -0.0102,-0.0102 -0.0102,-0.0102 h -0.0102 l -0.0102,-0.0102 -0.0102,-0.0204 v -0.0102 l -0.0102,-0.0101 v -0.0102 l -0.0102,-0.0102 v -0.0204 -0.0102 -0.81261 h 0.27426 v 0.81261 l -0.14222,-0.13204 h 0.54853 z m -0.68057,-2.29565 v -1.36114 h 0.27426 v 1.36114 z m 0,-2.71212 v -1.35099 h 0.27426 v 1.35099 z m 0,-2.71212 v -1.35098 h 0.27426 v 1.35098 z m 0,-2.70197 v -1.36114 h 0.27426 v 1.36114 z m 0,-2.71211 v -1.35099 h 0.27426 v 1.35099 z m 0,-2.71212 v -1.35098 h 0.27426 v 1.35098 z m 0,-2.70196 v -1.36114 h 0.27426 v 1.36114 z m 0,-2.71212 v -1.35098 h 0.27426 v 1.35098 z m 0.13205,-1.75729 h 1.36114 v 0.2641 h -1.36114 z"
         id="path9582"
         style="stroke-width:0.101577" />
      <rect
         x="114.54374"
         y="178.98744"
         fill="#ffffff"
         fill-opacity="1"
         stroke-width="0.270873"
         stroke-linejoin="round"
         stroke="#000000"
         stroke-opacity="1"
         width="68.19912"
         height="9.7514372"
         id="rect9584" />
      <text
         xml:space="preserve"
         id="text9588"
         x="114.48032"
         y="185.0856"
         style="font-size:1.21893px;stroke-width:0.101577">			 <tspan
   style="font-size:3.79221px;font-family:'メイリオ'"
   letter-spacing="0em"
   fill="#000000"
   fill-opacity="1"
   stroke-width="0.0203155"
   stroke-linejoin="round"
   id="tspan9586">Two series are linked by weak link</tspan>		</text>
      <line
         fill="none"
         stroke-width="0.270873"
         stroke-linejoin="round"
         stroke="#000000"
         stroke-opacity="1"
         x1="104.79234"
         y1="191.98933"
         x2="114.54374"
         y2="185.48839"
         id="line9592" />
      <line
         fill="none"
         stroke-width="0.270873"
         stroke-linejoin="round"
         stroke="#000000"
         stroke-opacity="1"
         x1="107.31132"
         y1="234.37758"
         x2="124.2952"
         y2="230.99509"
         id="line9594" />
      <g
         id="g4430"
         transform="matrix(0.7611901,0,0,0.7611901,-124.09441,47.658138)">
        <line
           fill="none"
           stroke-width="1.17205"
           stroke-linejoin="round"
           stroke="#000000"
           stroke-opacity="1"
           x1="230.02574"
           y1="265.2381"
           x2="244.09048"
           y2="265.2381"
           id="line4418" />
        <path
           fill="#000000"
           fill-opacity="1"
           stroke-linejoin="round"
           d="m 286.19588,265.04032 h 2.18034 v 0.39557 h -2.18034 z m 4.37706,0 h 2.18032 v 0.39557 h -2.18032 z m 4.36065,0 h 0.88525 v 0.39557 h -0.88525 z m -13.11475,0 h 2.19672 v 0.39557 h -2.19672 z"
           id="path4420"
           style="stroke-width:0.154975" />
        <text
           xml:space="preserve"
           id="text4424"
           x="242.13315"
           y="266.7684"
           style="font-size:1.75807px;stroke-width:0.146506">			 <tspan
   style="font-size:5.46956px;font-family:'メイリオ'"
   letter-spacing="0em"
   fill="#000000"
   fill-opacity="1"
   stroke-width="0.0293012"
   stroke-linejoin="round"
   id="tspan4422">Strong Link</tspan>		</text>
        <text
           xml:space="preserve"
           id="text4428"
           x="295.61658"
           y="267.29852"
           style="font-size:1.75807px;stroke-width:0.146506">			 <tspan
   style="font-size:5.46956px;font-family:'メイリオ'"
   letter-spacing="0em"
   fill="#000000"
   fill-opacity="1"
   stroke-width="0.0293012"
   stroke-linejoin="round"
   id="tspan4426">Weak Link</tspan>		</text>
      </g>
    </g>
    <g
       id="g6945"
       inkscape:export-filename="img46a.svg"
       inkscape:export-xdpi="96"
       inkscape:export-ydpi="96"
       transform="matrix(0.81723483,0,0,0.81723483,38.019054,29.198406)">
      <line
         fill="none"
         stroke-width="1.02379"
         stroke-linejoin="round"
         stroke="#000000"
         stroke-opacity="1"
         x1="140.03465"
         y1="58.626942"
         x2="189.17693"
         y2="58.626942"
         id="line9406" />
      <line
         fill="none"
         stroke-width="1.02379"
         stroke-linejoin="round"
         stroke="#000000"
         stroke-opacity="1"
         x1="135.9395"
         y1="58.626942"
         x2="152.32021"
         y2="78.886612"
         id="line9408" />
      <line
         fill="none"
         stroke-width="1.02379"
         stroke-linejoin="round"
         stroke="#000000"
         stroke-opacity="1"
         x1="152.32021"
         y1="79.102821"
         x2="152.32021"
         y2="115.95942"
         id="line9410" />
      <path
         fill="#000000"
         fill-opacity="1"
         stroke-linejoin="round"
         d="m 146.523,115.88648 h 1.70204 v 0.34169 H 146.523 Z m 3.4169,0 h 1.70205 v 0.34169 h -1.70205 z m 3.40412,0 h 1.71484 v 0.34169 h -1.71484 z m 3.41691,0 h 1.70205 v 0.34169 h -1.70205 z m 3.4169,0 h 1.70206 v 0.34169 h -1.70206 z m 3.40411,0 h 1.71486 v 0.34169 h -1.71486 z m 3.41692,0 h 1.70205 v 0.34169 h -1.70205 z m 3.41692,0 h 1.70206 v 0.34169 h -1.70206 z m 3.4041,0 h 1.71487 v 0.34169 h -1.71487 z m 3.41693,0 h 1.70205 v 0.34169 h -1.70205 z m 3.4169,0 h 1.70205 v 0.34169 h -1.70205 z m 3.40411,0 h 1.71486 v 0.34169 h -1.71486 z m 3.41691,0 h 1.70207 v 0.34169 h -1.70207 z m 3.41692,0 h 1.70206 v 0.34169 h -1.70206 z m 3.40412,0 h 1.71486 v 0.34169 h -1.71486 z m 3.41691,0 h 1.70206 v 0.34169 h -1.70206 z m 3.41691,0 h 1.70206 v 0.34169 h -1.70206 z m 3.40412,0 h 1.71485 v 0.34169 h -1.71485 z m 3.41692,0 h 1.70205 v 0.34169 h -1.70205 z m 3.41689,0 h 1.35654 v 0.34169 h -1.35654 z m -68.26145,0 h 1.71485 v 0.34169 h -1.71485 z"
         id="path9414"
         style="stroke-width:0.127975" />
      <path
         fill="#ffffff"
         fill-opacity="1"
         stroke-width="0.341265"
         stroke-linejoin="round"
         stroke="#000000"
         stroke-opacity="1"
         d="m 136.15706,54.5318 c 2.14996,0 3.87762,1.68798 3.87762,3.771401 0,2.083421 -1.72766,3.77268 -3.87762,3.77268 -2.13717,0 -3.87761,-1.689259 -3.87761,-3.77268 0,-2.083421 1.74044,-3.771401 3.87761,-3.771401 z"
         id="path9416" />
      <rect
         x="148.22501"
         y="75.007652"
         fill="#ffffff"
         fill-opacity="1"
         stroke-width="0.341265"
         stroke-linejoin="round"
         stroke="#000000"
         stroke-opacity="1"
         width="8.1903515"
         height="8.1903515"
         id="rect9418" />
      <path
         fill="#ffffff"
         fill-opacity="1"
         stroke-width="0.341265"
         stroke-linejoin="round"
         stroke="#000000"
         stroke-opacity="1"
         d="m 152.32021,111.86426 c 2.26513,0 4.09518,1.73662 4.09518,3.87889 0,2.14358 -1.83005,3.88019 -4.09518,3.88019 -2.25235,0 -4.09517,-1.73661 -4.09517,-3.88019 0,-2.14227 1.84282,-3.87889 4.09517,-3.87889 z"
         id="path9420" />
      <path
         fill="#000000"
         fill-opacity="1"
         stroke-width="0.341265"
         stroke-linejoin="round"
         stroke="#000000"
         stroke-opacity="1"
         d="m 201.04001,111.86426 -3.67287,6.6265 h 7.34572 z"
         id="path9422" />
      <path
         fill="#000000"
         fill-opacity="1"
         stroke-linejoin="round"
         d="m 188.49852,91.216897 h 1.70208 v 0.341693 h -1.70208 z m 3.41692,0 h 1.70206 v 0.341693 h -1.70206 z m 3.40411,0 h 1.71487 v 0.341693 h -1.71487 z m 3.41693,0 h 1.70204 v 0.341693 h -1.70204 z m 3.4169,0 h 1.70205 v 0.341693 h -1.70205 z m 3.40411,0 h 1.71486 v 0.341693 h -1.71486 z m 3.41693,0 h 1.70205 v 0.341693 h -1.70205 z m 3.41689,0 h 1.70207 v 0.341693 h -1.70207 z m 3.40412,0 h 1.71486 v 0.341693 h -1.71486 z m 2.4443,1.320697 v 1.705892 h -0.34552 v -1.705892 z m 0,3.413071 v 1.705899 h -0.34552 v -1.705899 z m 0,3.411799 v 1.707166 h -0.34552 v -1.707166 z m 0,3.413056 v 1.70591 h -0.34552 v -1.70591 z m 0,3.41308 v 1.70589 h -0.34552 v -1.70589 z m 0,3.41179 v 1.70718 h -0.34552 v -1.70718 z m 0,3.41309 v 1.70588 h -0.34552 v -1.70588 z m 0,3.41306 v 1.7059 h -0.34552 v -1.7059 z m 0,3.41179 v 1.70717 h -0.34552 v -1.70717 z m 0,3.41308 v 0.4671 l -0.0129,0.0166 v 0.0167 0.0167 0.0154 l -0.0129,0.0153 -0.0129,0.014 v 0.014 l -0.0129,0.0117 -0.0129,0.0117 -0.0129,0.0107 -0.0256,0.01 -0.0129,0.006 -0.0129,0.006 -0.0129,0.003 -0.0129,0.002 h -0.0257 -1.24135 v -0.3404 h 1.24135 l -0.16636,0.17019 v -0.4671 z m -3.12256,0.63731 h -1.70206 v -0.34042 h 1.70206 z m -3.41691,0 h -1.70206 v -0.34042 h 1.70206 z m -3.40413,0 h -1.71484 v -0.34042 h 1.71484 z m -3.41689,0 h -1.70207 v -0.34042 h 1.70207 z m -3.41692,0 h -1.70206 v -0.34042 h 1.70206 z m -3.40412,0 h -1.71485 v -0.34042 h 1.71485 z m -3.41691,0 h -1.70205 v -0.34042 h 1.70205 z m -3.41691,0 h -1.70206 v -0.34042 h 1.70206 z m -3.40412,0 h -1.71485 v -0.34042 h 1.71485 z m -2.90501,-0.85231 v -1.70718 h 0.34552 v 1.70718 z m 0,-3.41307 v -1.7059 h 0.34552 v 1.7059 z m 0,-3.41308 v -1.70589 h 0.34552 v 1.70589 z m 0,-3.41179 v -1.70718 h 0.34552 v 1.70718 z m 0,-3.41308 v -1.70589 h 0.34552 v 1.70589 z m 0,-3.41306 v -1.7059 h 0.34552 v 1.7059 z m 0,-3.41181 v -1.70717 h 0.34552 v 1.70717 z m 0,-3.413056 v -1.7059 h 0.34552 v 1.7059 z m 0,-3.413077 v -1.705894 h 0.34552 v 1.705894 z m 0,-3.411791 v -0.934215 -0.01663 -0.01663 l 0.0129,-0.01664 v -0.01531 l 0.0129,-0.01539 v -0.01408 l 0.0129,-0.01408 0.0129,-0.01276 0.0129,-0.01029 0.0129,-0.01029 0.0129,-0.0089 0.0129,-0.0063 0.0129,-0.0063 0.0256,-0.0039 0.0129,-0.0025 0.0129,-0.0014 h 1.71485 v 0.341694 h -1.71485 l 0.17916,-0.170209 v 0.934216 z"
         id="path9424"
         style="stroke-width:0.127975" />
      <line
         fill="none"
         stroke-width="1.02379"
         stroke-linejoin="round"
         stroke="#000000"
         stroke-opacity="1"
         x1="189.17693"
         y1="58.626942"
         x2="205.55759"
         y2="66.817291"
         id="line9428" />
      <rect
         x="185.08173"
         y="54.531769"
         fill="#ffffff"
         fill-opacity="1"
         stroke-width="0.341265"
         stroke-linejoin="round"
         stroke="#000000"
         stroke-opacity="1"
         width="8.1903515"
         height="8.1903515"
         id="rect9430" />
      <line
         fill="none"
         stroke-width="1.02379"
         stroke-linejoin="round"
         stroke="#000000"
         stroke-opacity="1"
         x1="205.55759"
         y1="66.817291"
         x2="205.55759"
         y2="99.578705"
         id="line9432" />
      <path
         fill="#ffffff"
         fill-opacity="1"
         stroke-width="0.341265"
         stroke-linejoin="round"
         stroke="#000000"
         stroke-opacity="1"
         d="m 205.77505,63.368421 c 2.14998,0 3.87762,1.689262 3.87762,3.771401 0,2.083423 -1.72764,3.77268 -3.87762,3.77268 -2.13716,0 -3.87762,-1.689257 -3.87762,-3.77268 0,-2.082139 1.74046,-3.771401 3.87762,-3.771401 z"
         id="path9434" />
      <rect
         x="201.46242"
         y="95.483528"
         fill="#ffffff"
         fill-opacity="1"
         stroke-width="0.341265"
         stroke-linejoin="round"
         stroke="#000000"
         stroke-opacity="1"
         width="8.1903515"
         height="8.1903515"
         id="rect9436" />
      <line
         fill="none"
         stroke-width="1.04564"
         stroke-linejoin="round"
         stroke="#000000"
         stroke-opacity="1"
         x1="28.911856"
         y1="59.597694"
         x2="79.102814"
         y2="59.597694"
         id="line9438" />
      <line
         fill="none"
         stroke-width="1.04564"
         stroke-linejoin="round"
         stroke="#000000"
         stroke-opacity="1"
         x1="24.72928"
         y1="59.597694"
         x2="41.459599"
         y2="80.289764"
         id="line9440" />
      <line
         fill="none"
         stroke-width="1.04564"
         stroke-linejoin="round"
         stroke="#000000"
         stroke-opacity="1"
         x1="41.459599"
         y1="80.510582"
         x2="41.459599"
         y2="118.15381"
         id="line9442" />
      <path
         fill="#000000"
         fill-opacity="1"
         stroke-linejoin="round"
         d="m 36.055133,117.74565 h 1.738384 v 0.34899 h -1.738384 z m 3.489839,0 h 1.738385 v 0.34899 h -1.738385 z m 3.476769,0 h 1.751455 v 0.34899 h -1.751455 z m 3.489837,0 h 1.738385 v 0.34899 h -1.738385 z m 3.48984,0 h 1.738384 v 0.34899 h -1.738384 z m 3.476767,0 h 1.751456 v 0.34899 h -1.751456 z m 3.489842,0 h 1.738385 v 0.34899 h -1.738385 z m 3.489839,0 h 1.738385 v 0.34899 h -1.738385 z m 3.476767,0 h 1.751457 v 0.34899 h -1.751457 z m 3.48984,0 h 1.738383 v 0.34899 h -1.738383 z m 3.489837,0 h 1.738384 v 0.34899 H 70.91431 Z m 3.476773,0 h 1.751454 v 0.34899 h -1.751454 z m 3.489842,0 h 1.738378 v 0.34899 h -1.738378 z m 3.489834,0 h 1.738389 v 0.34899 h -1.738389 z m 3.476777,0 h 1.751447 v 0.34899 h -1.751447 z m 3.489835,0 h 1.738378 v 0.34899 h -1.738378 z m 3.489835,0 h 1.738387 v 0.34899 h -1.738387 z m -59.261913,0 h 1.751454 v 0.34899 h -1.751454 z"
         id="path9446"
         style="stroke-width:0.130706" />
      <path
         fill="#ffffff"
         fill-opacity="1"
         stroke-width="0.348548"
         stroke-linejoin="round"
         stroke="#000000"
         stroke-opacity="1"
         d="m 24.951503,55.415151 c 2.195854,0 3.960379,1.724006 3.960379,3.851894 0,2.127887 -1.764525,3.853199 -3.960379,3.853199 -2.182782,0 -3.960379,-1.725312 -3.960379,-3.853199 0,-2.127888 1.777597,-3.851894 3.960379,-3.851894 z"
         id="path9448" />
      <rect
         x="37.277016"
         y="76.328011"
         fill="#ffffff"
         fill-opacity="1"
         stroke-width="0.348548"
         stroke-linejoin="round"
         stroke="#000000"
         stroke-opacity="1"
         width="8.3651571"
         height="8.3651571"
         id="rect9450" />
      <path
         fill="#ffffff"
         fill-opacity="1"
         stroke-width="0.348548"
         stroke-linejoin="round"
         stroke="#000000"
         stroke-opacity="1"
         d="m 41.459615,113.97125 c 2.313492,0 4.18258,1.77368 4.18258,3.96168 0,2.18933 -1.869088,3.963 -4.18258,3.963 -2.300412,0 -4.182578,-1.77367 -4.182578,-3.963 0,-2.188 1.882166,-3.96168 4.182578,-3.96168 z"
         id="path9452" />
      <path
         fill="#000000"
         fill-opacity="1"
         stroke-linejoin="round"
         d="m 79.120739,53.229866 v 1.743612 h -0.352907 v -1.743612 z m 0,3.485916 v 1.742305 h -0.352907 v -1.742305 z m 0,3.485917 v 1.742306 h -0.352907 v -1.742306 z m 0,3.484612 v 1.743613 h -0.352907 v -1.743613 z m 0,3.485919 v 1.742306 H 78.767832 V 67.17223 Z m 0,3.485916 v 1.742308 h -0.352907 v -1.742308 z m 0,3.484613 v 1.743612 h -0.352907 v -1.743612 z m 0,3.485916 v 1.742306 h -0.352907 v -1.742306 z m 0,3.485921 v 1.742307 h -0.352907 v -1.742307 z m 0,3.484607 v 1.743615 h -0.352907 v -1.743615 z m 0,3.485921 v 1.742306 h -0.352907 v -1.742306 z m 0,3.485915 v 1.742307 h -0.352907 v -1.742307 z m 0,3.484613 v 1.743613 h -0.352907 v -1.743613 z m 0,3.48592 v 1.742298 h -0.352907 v -1.742298 z m 0,3.485928 v 1.7423 h -0.352907 v -1.7423 z m 0,3.48461 v 1.7436 h -0.352907 v -1.7436 z m 0,3.48592 v 1.7423 h -0.352907 v -1.7423 z m 0,3.48591 v 1.7423 h -0.352907 v -1.7423 z m 0,3.48461 v 1.74363 h -0.352907 v -1.74363 z m 0,3.48591 v 1.74231 h -0.352907 v -1.74231 z m 0,3.48593 v 1.7423 h -0.352907 v -1.7423 z m 0,-73.195136 v 1.742304 h -0.352907 v -1.742304 z"
         id="path9458"
         style="stroke-width:0.130706" />
      <path
         fill="#000000"
         fill-opacity="1"
         stroke-width="0.348548"
         stroke-linejoin="round"
         stroke="#000000"
         stroke-opacity="1"
         d="m 79.10283,114.07059 -4.18258,6.6699 h 8.36515 z"
         id="path9460" />
      <rect
         x="74.920235"
         y="55.415119"
         fill="#ffffff"
         fill-opacity="1"
         stroke-width="0.348548"
         stroke-linejoin="round"
         stroke="#000000"
         stroke-opacity="1"
         width="8.3651571"
         height="8.3651571"
         id="rect9462" />
      <text
         xml:space="preserve"
         id="text9480"
         x="48.64431"
         y="147.78197"
         style="font-size:1.433px;stroke-width:0.119417">		 <tspan
   style="font-size:4.45821px;font-family:'メイリオ'"
   letter-spacing="0em"
   fill="#000000"
   fill-opacity="1"
   stroke-width="0.0238833"
   stroke-linejoin="round"
   id="tspan9478">▲ is associated with two Cells ---&gt; ▲ is not a focused digit</tspan>	</text>
      <rect
         x="4.9494972"
         y="42.22699"
         fill="none"
         stroke-width="0.319107"
         stroke-linejoin="round"
         stroke="#000000"
         stroke-opacity="1"
         width="107.21986"
         height="99.561302"
         id="rect4556" />
      <rect
         x="122.81876"
         y="42.22699"
         fill="none"
         stroke-width="0.319107"
         stroke-linejoin="round"
         stroke="#000000"
         stroke-opacity="1"
         width="107.21986"
         height="99.561302"
         id="rect4558" />
      <g
         id="g4572"
         transform="matrix(0.93142151,0,0,0.93142151,-81.140171,-114.08297)">
        <line
           fill="none"
           stroke-width="1.17205"
           stroke-linejoin="round"
           stroke="#000000"
           stroke-opacity="1"
           x1="230.02574"
           y1="265.2381"
           x2="244.09048"
           y2="265.2381"
           id="line4560" />
        <path
           fill="#000000"
           fill-opacity="1"
           stroke-linejoin="round"
           d="m 286.19588,265.04032 h 2.18034 v 0.39557 h -2.18034 z m 4.37706,0 h 2.18032 v 0.39557 h -2.18032 z m 4.36065,0 h 0.88525 v 0.39557 h -0.88525 z m -13.11475,0 h 2.19672 v 0.39557 h -2.19672 z"
           id="path4562"
           style="stroke-width:0.154975" />
        <text
           xml:space="preserve"
           id="text4566"
           x="242.13315"
           y="266.7684"
           style="font-size:1.75807px;stroke-width:0.146506">			 <tspan
   style="font-size:5.46956px;font-family:'メイリオ'"
   letter-spacing="0em"
   fill="#000000"
   fill-opacity="1"
   stroke-width="0.0293012"
   stroke-linejoin="round"
   id="tspan4564">Strong Link</tspan>		</text>
        <text
           xml:space="preserve"
           id="text4570"
           x="295.61658"
           y="267.29852"
           style="font-size:1.75807px;stroke-width:0.146506">			 <tspan
   style="font-size:5.46956px;font-family:'メイリオ'"
   letter-spacing="0em"
   fill="#000000"
   fill-opacity="1"
   stroke-width="0.0293012"
   stroke-linejoin="round"
   id="tspan4568">Weak Link</tspan>		</text>
      </g>
      <g
         id="g4586"
         transform="matrix(0.93142151,0,0,0.93142151,-196.4294,-114.08297)">
        <line
           fill="none"
           stroke-width="1.17205"
           stroke-linejoin="round"
           stroke="#000000"
           stroke-opacity="1"
           x1="230.02574"
           y1="265.2381"
           x2="244.09048"
           y2="265.2381"
           id="line4574" />
        <path
           fill="#000000"
           fill-opacity="1"
           stroke-linejoin="round"
           d="m 286.19588,265.04032 h 2.18034 v 0.39557 h -2.18034 z m 4.37706,0 h 2.18032 v 0.39557 h -2.18032 z m 4.36065,0 h 0.88525 v 0.39557 h -0.88525 z m -13.11475,0 h 2.19672 v 0.39557 h -2.19672 z"
           id="path4576"
           style="stroke-width:0.154975" />
        <text
           xml:space="preserve"
           id="text4580"
           x="242.13315"
           y="266.7684"
           style="font-size:1.75807px;stroke-width:0.146506">			 <tspan
   style="font-size:5.46956px;font-family:'メイリオ'"
   letter-spacing="0em"
   fill="#000000"
   fill-opacity="1"
   stroke-width="0.0293012"
   stroke-linejoin="round"
   id="tspan4578">Strong Link</tspan>		</text>
        <text
           xml:space="preserve"
           id="text4584"
           x="295.61658"
           y="267.29852"
           style="font-size:1.75807px;stroke-width:0.146506">			 <tspan
   style="font-size:5.46956px;font-family:'メイリオ'"
   letter-spacing="0em"
   fill="#000000"
   fill-opacity="1"
   stroke-width="0.0293012"
   stroke-linejoin="round"
   id="tspan4582">Weak Link</tspan>		</text>
      </g>
    </g>
  </g>
</svg>
