<?xml version="1.0" encoding="UTF-8" standalone="no"?>
<!-- Created with Inkscape (http://www.inkscape.org/) -->

<svg
   width="71.630371mm"
   height="42.421997mm"
   viewBox="0 0 71.630371 42.421997"
   version="1.1"
   id="svg25398"
   inkscape:version="1.2.2 (732a01da63, 2022-12-09)"
   sodipodi:docname="image28.svg"
   xmlns:inkscape="http://www.inkscape.org/namespaces/inkscape"
   xmlns:sodipodi="http://sodipodi.sourceforge.net/DTD/sodipodi-0.dtd"
   xmlns="http://www.w3.org/2000/svg"
   xmlns:svg="http://www.w3.org/2000/svg">
  <sodipodi:namedview
     id="namedview25400"
     pagecolor="#ffffff"
     bordercolor="#000000"
     borderopacity="0.25"
     inkscape:showpageshadow="2"
     inkscape:pageopacity="0.0"
     inkscape:pagecheckerboard="0"
     inkscape:deskcolor="#d1d1d1"
     inkscape:document-units="mm"
     showgrid="false"
     inkscape:zoom="0.914906"
     inkscape:cx="596.23611"
     inkscape:cy="427.91281"
     inkscape:window-width="1786"
     inkscape:window-height="1230"
     inkscape:window-x="1836"
     inkscape:window-y="661"
     inkscape:window-maximized="0"
     inkscape:current-layer="layer1" />
  <defs
     id="defs25395" />
  <g
     inkscape:label="Layer 1"
     inkscape:groupmode="layer"
     id="layer1"
     transform="translate(-198.86396,-129.16875)">
    <g
       id="g31055"
       inkscape:export-filename="img28g3.png"
       inkscape:export-xdpi="96"
       inkscape:export-ydpi="96">
      <g
         id="g30334"
         transform="translate(-0.42880089)">
        <text
           xml:space="preserve"
           id="text6672"
           x="208.16118"
           y="155.13176"
           style="font-size:1.01216px;stroke-width:0.0843467">				 <tspan
   style="font-size:4.04864px;font-family:'メイリオ'"
   letter-spacing="0em"
   fill="#000000"
   fill-opacity="1"
   stroke-width="0.0168693"
   stroke-linejoin="round"
   id="tspan6670">-n</tspan>			</text>
        <text
           xml:space="preserve"
           id="text6676"
           x="209.2195"
           y="138.93719"
           style="font-size:1.01216px;stroke-width:0.0843467">				 <tspan
   style="font-size:4.04864px;font-family:'メイリオ'"
   letter-spacing="0em"
   fill="#000000"
   fill-opacity="1"
   stroke-width="0.0168693"
   stroke-linejoin="round"
   id="tspan6674">n</tspan>			</text>
        <line
           fill="none"
           stroke-width="0.0168693"
           stroke-linejoin="round"
           x1="210.31999"
           y1="141.67006"
           x2="210.31999"
           y2="149.76735"
           id="line6678" />
        <line
           fill="none"
           stroke-width="0.224925"
           stroke-linejoin="round"
           stroke="#000000"
           stroke-opacity="1"
           x1="212.6351"
           y1="140.0253"
           x2="212.6351"
           y2="151.12529"
           id="line6680" />
        <line
           fill="none"
           stroke-width="0.565657"
           stroke-linejoin="round"
           stroke="#000000"
           stroke-opacity="1"
           x1="215.21616"
           y1="158.4211"
           x2="226.62862"
           y2="160.9389"
           id="line6682" />
        <line
           fill="none"
           stroke-width="0.224925"
           stroke-linejoin="round"
           stroke="#000000"
           stroke-opacity="1"
           x1="242.30429"
           y1="161.53592"
           x2="254.89725"
           y2="161.53592"
           id="line6684" />
        <text
           xml:space="preserve"
           id="text6688"
           x="254.78983"
           y="162.59247"
           style="font-size:1.01216px;stroke-width:0.0843467">				 <tspan
   style="font-size:4.04864px;font-family:'メイリオ'"
   letter-spacing="0em"
   fill="#000000"
   fill-opacity="1"
   stroke-width="0.0168693"
   stroke-linejoin="round"
   id="tspan6686">-m</tspan>			</text>
        <rect
           x="207.81488"
           y="148.62018"
           fill="none"
           stroke-width="0.224925"
           stroke-linejoin="round"
           stroke="#000000"
           stroke-opacity="1"
           width="37.637455"
           height="17.309721"
           id="rect6690" />
        <path
           fill="#000000"
           fill-opacity="1"
           stroke-width="0.0168693"
           stroke-linejoin="round"
           d="m 233.87803,146.84891 -0.53138,-1.36641 -0.53138,1.36641 z m 0.42174,1.09651 -0.30365,-0.79286 h -1.29894 l -0.30365,0.79286 h -0.37112 l 1.0965,-2.79188 h 0.47235 l 1.0965,2.79188 z"
           id="path6692" />
        <path
           fill="#000000"
           fill-opacity="1"
           stroke-width="0.0168693"
           stroke-linejoin="round"
           d="m 236.95669,147.94542 h -1.86406 v -2.79188 h 0.37112 v 2.48823 h 1.49294 z"
           id="path6694" />
        <path
           fill="#000000"
           fill-opacity="1"
           stroke-width="0.0168693"
           stroke-linejoin="round"
           d="m 238.2725,148.02133 c -0.32895,0 -0.67477,-0.0759 -1.02903,-0.23617 v -0.40486 h 0.0253 c 0.29522,0.2193 0.6326,0.33738 1.01216,0.33738 0.22774,0 0.4133,-0.0506 0.54826,-0.13495 0.12652,-0.0928 0.194,-0.2193 0.194,-0.37113 0,-0.11808 -0.0253,-0.21086 -0.0844,-0.26991 -0.059,-0.0675 -0.15183,-0.12652 -0.29522,-0.16025 l -0.6579,-0.12652 c -0.24461,-0.0506 -0.43017,-0.14339 -0.55669,-0.26991 -0.12652,-0.12652 -0.18556,-0.29522 -0.18556,-0.49765 0,-0.23617 0.0928,-0.43017 0.28678,-0.58199 0.194,-0.15183 0.44704,-0.22774 0.75912,-0.22774 0.32895,0 0.64947,0.0675 0.97842,0.20243 v 0.40487 h -0.0253 c -0.26991,-0.20243 -0.59043,-0.30365 -0.96156,-0.30365 -0.20243,0 -0.36269,0.0422 -0.48921,0.12652 -0.12652,0.0844 -0.18556,0.194 -0.18556,0.33739 0,0.23617 0.14339,0.38799 0.43017,0.45547 0.16026,0.0253 0.34582,0.059 0.54825,0.10965 0.20243,0.0422 0.34582,0.0844 0.43017,0.13495 0.0844,0.0422 0.16026,0.10122 0.21087,0.16026 0.059,0.059 0.0928,0.12652 0.11808,0.20244 0.0337,0.0759 0.0422,0.16025 0.0422,0.25304 0,0.2446 -0.10122,0.45547 -0.30365,0.61573 -0.20243,0.16026 -0.47234,0.2446 -0.80973,0.2446 z"
           id="path6696" />
        <text
           xml:space="preserve"
           id="text6702"
           x="210.90643"
           y="145.34753"
           style="font-size:1.01216px;stroke-width:0.0843467">				 <tspan
   style="font-size:2.6991px;font-family:'メイリオ'"
   letter-spacing="0em"
   fill="#000000"
   fill-opacity="1"
   stroke-width="0.0168693"
   stroke-linejoin="round"
   id="tspan6700">W</tspan>			</text>
        <text
           xml:space="preserve"
           id="text6706"
           x="245.94852"
           y="160.67557"
           style="font-size:1.01216px;stroke-width:0.0843467">				 <tspan
   style="font-size:2.6991px;font-family:'メイリオ'"
   letter-spacing="0em"
   fill="#000000"
   fill-opacity="1"
   stroke-width="0.0168693"
   stroke-linejoin="round"
   id="tspan6704">W</tspan>			</text>
        <text
           xml:space="preserve"
           id="text6710"
           x="218.83502"
           y="158.88918"
           style="font-size:1.01216px;stroke-width:0.0843467">				 <tspan
   style="font-size:2.6991px;font-family:'メイリオ'"
   letter-spacing="0em"
   fill="#000000"
   fill-opacity="1"
   stroke-width="0.0168693"
   stroke-linejoin="round"
   id="tspan6708">S</tspan>			</text>
        <path
           fill="none"
           stroke-width="0.242235"
           stroke-linejoin="round"
           stroke="#000000"
           stroke-opacity="1"
           d="m 215.64184,152.52349 v 8.04216 c 0,0.74105 -0.7055,1.34738 -1.56778,1.34738 h -2.61624 c -0.87207,0 -1.56778,-0.60633 -1.56778,-1.34738 v -8.04216 c 0,-0.74105 0.69571,-1.34737 1.56778,-1.34737 h 2.61624 c 0.86228,0 1.56778,0.60632 1.56778,1.34737 z"
           id="path6712" />
        <text
           xml:space="preserve"
           id="text6716"
           x="208.24553"
           y="159.60214"
           style="font-size:1.01216px;stroke-width:0.0843467">				 <tspan
   style="font-size:4.04864px;font-family:'メイリオ'"
   letter-spacing="0em"
   fill="#000000"
   fill-opacity="1"
   stroke-width="0.0168693"
   stroke-linejoin="round"
   id="tspan6714">-n</tspan>			</text>
        <path
           fill="#ffffff"
           fill-opacity="1"
           stroke-width="0.224925"
           stroke-linejoin="round"
           stroke="#000000"
           stroke-opacity="1"
           d="m 228.25211,158.76711 h 13.49547 c 0.74226,0 1.34955,0.60729 1.34955,1.34955 v 2.25205 c 0,0.74225 -0.60729,1.34955 -1.34955,1.34955 h -13.49547 c -0.75069,0 -1.34955,-0.6073 -1.34955,-1.34955 v -2.25205 c 0,-0.74226 0.59886,-1.34955 1.34955,-1.34955 z"
           id="path6718" />
        <text
           xml:space="preserve"
           id="text6722"
           x="226.61003"
           y="162.30124"
           style="font-size:1.01216px;stroke-width:0.0843467">					 <tspan
   style="font-size:4.04864px;font-family:'メイリオ'"
   letter-spacing="0em"
   fill="#000000"
   fill-opacity="1"
   stroke-width="0.0168693"
   stroke-linejoin="round"
   id="tspan6720">m</tspan>				</text>
        <text
           xml:space="preserve"
           id="text6726"
           x="234.53864"
           y="162.46992"
           style="font-size:1.01216px;stroke-width:0.0843467">					 <tspan
   style="font-size:4.04864px;font-family:'メイリオ'"
   letter-spacing="0em"
   fill="#000000"
   fill-opacity="1"
   stroke-width="0.0168693"
   stroke-linejoin="round"
   id="tspan6724">m</tspan>				</text>
      </g>
      <rect
         style="fill:none;stroke:#000000;stroke-width:0.2;stroke-opacity:1"
         id="rect30963"
         width="71.430374"
         height="42.222008"
         x="198.96396"
         y="129.26874" />
    </g>
  </g>
</svg>
