<?xml version="1.0" encoding="UTF-8" standalone="no"?>
<!-- Created with Inkscape (http://www.inkscape.org/) -->

<svg
   width="205.09752mm"
   height="63.046265mm"
   viewBox="0 0 205.09752 63.046265"
   version="1.1"
   id="svg3843"
   inkscape:version="1.4.3 (0d15f75, 2025-12-25)"
   sodipodi:docname="image37_000.svg"
   xmlns:inkscape="http://www.inkscape.org/namespaces/inkscape"
   xmlns:sodipodi="http://sodipodi.sourceforge.net/DTD/sodipodi-0.dtd"
   xmlns="http://www.w3.org/2000/svg"
   xmlns:svg="http://www.w3.org/2000/svg">
  <sodipodi:namedview
     id="namedview3845"
     pagecolor="#ffffff"
     bordercolor="#000000"
     borderopacity="0.25"
     inkscape:showpageshadow="2"
     inkscape:pageopacity="0.0"
     inkscape:pagecheckerboard="0"
     inkscape:deskcolor="#d1d1d1"
     inkscape:document-units="mm"
     showgrid="true"
     inkscape:zoom="1.4462307"
     inkscape:cx="567.6826"
     inkscape:cy="1028.19"
     inkscape:window-width="2559"
     inkscape:window-height="1466"
     inkscape:window-x="918"
     inkscape:window-y="89"
     inkscape:window-maximized="0"
     inkscape:current-layer="layer1">
    <inkscape:grid
       type="xygrid"
       id="grid6155"
       originx="-35.004257"
       originy="-198.82591"
       spacingy="1"
       spacingx="1"
       units="mm"
       visible="true" />
    <inkscape:page
       x="0"
       y="0"
       width="205.09752"
       height="63.046265"
       id="page2"
       margin="0"
       bleed="0" />
  </sodipodi:namedview>
  <defs
     id="defs3840" />
  <g
     inkscape:label="Layer 1"
     inkscape:groupmode="layer"
     id="layer1"
     transform="translate(-35.004262,-198.82591)">
    <g
       id="g32">
      <rect
         x="35.434978"
         y="199.3009"
         fill="#ffffff"
         fill-opacity="1"
         stroke-width="0.266595"
         stroke-linejoin="round"
         stroke="#000000"
         stroke-opacity="1"
         width="57.435978"
         height="57.733406"
         id="rect7134"
         inkscape:export-filename="img37c.svg"
         inkscape:export-xdpi="96"
         inkscape:export-ydpi="96" />
      <line
         fill="none"
         stroke-width="0.799783"
         stroke-linejoin="round"
         stroke="#5e5e5e"
         stroke-opacity="1"
         x1="92.870964"
         y1="215.33797"
         x2="35.434978"
         y2="215.33797"
         id="line7136" />
      <line
         fill="none"
         stroke-width="0.799783"
         stroke-linejoin="round"
         stroke="#5e5e5e"
         stroke-opacity="1"
         x1="76.916527"
         y1="199.3009"
         x2="76.916527"
         y2="257.03424"
         id="line7138" />
      <path
         fill="#000000"
         fill-opacity="1"
         stroke-linejoin="round"
         d="m 90.844798,244.43242 h -0.797727 v -0.26761 h 0.797727 z m -1.595444,0 h -0.797726 v -0.26761 h 0.797726 z m -1.595452,0 h -0.797717 v -0.26761 h 0.797717 z m -1.595444,0 h -0.797717 v -0.26761 h 0.797717 z m -1.595442,0 h -0.797717 v -0.26761 h 0.797717 z m -1.595443,0 h -0.797718 v -0.26761 h 0.797718 z m -1.595444,0 h -0.797716 v -0.26761 h 0.797716 z m -1.595443,0 h -0.797718 v -0.26761 h 0.797718 z m -1.595443,0 h -0.797727 v -0.26761 h 0.797727 z m -1.595443,0 h -0.797727 v -0.26761 H 76.4858 Z m -1.595443,0 H 74.09263 v -0.26761 h 0.797727 z m -1.595444,0 h -0.797726 v -0.26761 h 0.797726 z m -1.595442,0 h -0.797727 v -0.26761 h 0.797727 z m -1.595444,0 H 69.3063 v -0.26761 h 0.797727 z m -1.595442,0 h -0.797727 v -0.26761 h 0.797727 z m -1.595444,0 h -0.797726 v -0.26761 h 0.797726 z m -1.595453,0 h -0.797716 v -0.26761 h 0.797716 z m -1.595443,0 h -0.797717 v -0.26761 h 0.797717 z m -1.595442,0 h -0.797718 v -0.26761 h 0.797718 z m -1.595444,0 h -0.797717 v -0.26761 h 0.797717 z m -1.595443,0 H 58.1382 v -0.26761 h 0.797716 z m -1.595444,0 h -0.797717 v -0.26761 h 0.797717 z m -1.595442,0 h -0.797727 v -0.26761 h 0.797727 z m -1.595443,0 H 53.35186 v -0.26761 h 0.797727 z m -1.595444,0 h -0.797726 v -0.26761 h 0.797726 z m -1.595443,0 h -0.797726 v -0.26761 H 50.9587 Z m -1.595442,0 H 48.56553 v -0.26761 h 0.797728 z m -1.595444,0 h -0.797727 v -0.26761 h 0.797727 z m -1.595443,0 h -0.797726 v -0.26761 h 0.797726 z m -1.595453,0 h -0.797717 v -0.26761 h 0.797717 z m -1.595433,0 h -0.797727 v -0.26761 h 0.797727 z m -1.595453,0 h -0.797718 v -0.26761 h 0.797718 z m -1.595443,0 h -0.797717 v -0.26761 h 0.797717 z m -1.595444,0 h -0.797716 v -0.26761 h 0.797716 z m -1.595442,0 h -0.797727 v -0.26761 h 0.797727 z m -1.595444,0 v -0.26761 z m 57.435982,0 h -0.797727 v -0.26761 h 0.797727 z"
         id="path7142"
         style="stroke-width:0.0999727" />
      <line
         fill="none"
         stroke-width="0.799783"
         stroke-linejoin="round"
         stroke="#5e5e5e"
         stroke-opacity="1"
         x1="48.397968"
         y1="199.3009"
         x2="48.397968"
         y2="257.03424"
         id="line7144" />
      <g
         id="g7150"
         transform="matrix(0.09971524,0,0,0.1002316,-2656.6177,-79.817116)">
        <path
           fill="#ffffff"
           fill-opacity="1"
           stroke-width="0.2"
           stroke-linejoin="round"
           d="m 27465.3,2982.01 c -17.6,0 -32,14.32 -32,32 0,17.67 14.4,32 32,32 17.7,0 32,-14.33 32,-32 0,-17.68 -14.3,-32 -32,-32 z"
           id="path7146" />
        <path
           fill="#000000"
           fill-opacity="1"
           stroke-linejoin="round"
           stroke="#000000"
           stroke-opacity="1"
           d="m 27465.3,2995.82 20.9,36.38 h -41.7 z"
           id="path7148" />
      </g>
      <text
         xml:space="preserve"
         id="text7194"
         x="37.839264"
         y="261.30811"
         style="font-size:1.22147px;stroke-width:0.101789">		 <tspan
   style="font-size:3.80014px;font-family:'メイリオ'"
   letter-spacing="0em"
   fill="#000000"
   fill-opacity="1"
   stroke-width="0.0203579"
   stroke-linejoin="round"
   id="tspan7192">F/M Fish with EndoFin</tspan>	</text>
      <path
         fill="#000000"
         fill-opacity="1"
         stroke-linejoin="round"
         d="m 40.221239,205.58139 h 0.797725 v 0.26762 h -0.797725 z m 1.595443,0 h 0.797727 v 0.26762 h -0.797727 z m 1.595453,0 h 0.797716 v 0.26762 h -0.797716 z m 1.595433,0 h 0.797727 v 0.26762 h -0.797727 z m 1.595454,0 h 0.797715 v 0.26762 h -0.797715 z m 1.595442,0 h 0.797716 v 0.26762 h -0.797716 z m 1.595444,0 h 0.797716 v 0.26762 h -0.797716 z m 1.595442,0 h 0.797717 v 0.26762 H 51.38935 Z m 1.595443,0 h 0.797717 v 0.26762 h -0.797717 z m 1.595444,0 h 0.797716 v 0.26762 h -0.797716 z m 1.595443,0 h 0.797725 v 0.26762 H 56.17568 Z m 1.595442,0 h 0.797728 v 0.26762 h -0.797728 z m 1.595444,0 h 0.797726 v 0.26762 h -0.797726 z m 1.735049,0.13432 v 0.80186 h -0.269229 v -0.80186 z m 0,1.6037 v 0.80185 h -0.269229 v -0.80185 z m 0,1.6037 v 0.80186 h -0.269229 v -0.80186 z m 0,1.60371 v 0.80186 h -0.269229 v -0.80186 z m 0,1.60371 v 0.80186 h -0.269229 v -0.80186 z m 0,1.60371 v 0.80185 h -0.269229 v -0.80185 z m 0,1.6037 v 0.80186 h -0.269229 v -0.80186 z m 0,1.6037 v 0.80186 h -0.269229 v -0.80186 z m 0,1.60372 v 0.80185 h -0.269229 v -0.80185 z m 0,1.60369 v 0.80186 h -0.269229 v -0.80186 z m 0,1.60372 v 0.80184 h -0.269229 v -0.80184 z m 0,1.60369 v 0.80186 h -0.269229 v -0.80186 z m 0,1.60371 v 0.80185 h -0.269229 v -0.80185 z m 0,1.6037 v 0.80186 h -0.269229 v -0.80186 z m -0.139606,1.73701 h -0.797717 v -0.2676 h 0.797717 z m -1.595443,0 H 58.56885 v -0.2676 h 0.797716 z m -1.595444,0 h -0.797717 v -0.2676 h 0.797717 z m -1.595442,0 h -0.797727 v -0.2676 h 0.797727 z m -1.595443,0 H 53.78251 v -0.2676 h 0.797727 z m -1.595444,0 h -0.797726 v -0.2676 h 0.797726 z m -1.595443,0 h -0.797726 v -0.2676 h 0.797726 z m -1.595442,0 H 48.99618 v -0.2676 h 0.797728 z m -1.595444,0 h -0.797727 v -0.2676 h 0.797727 z m -1.595442,0 h -0.797727 v -0.2676 h 0.797727 z m -1.595454,0 h -0.797717 v -0.2676 h 0.797717 z m -1.595433,0 h -0.797726 v -0.2676 h 0.797726 z m -1.595453,0 h -0.797718 v -0.2676 h 0.797718 z m -1.595443,0 h -0.797717 v -0.2676 h 0.797717 z m -1.725077,-0.1343 v -0.80186 h 0.269239 v 0.80186 z m 0,-1.60371 v -0.80185 h 0.269239 v 0.80185 z m 0,-1.6037 v -0.80185 h 0.269239 v 0.80185 z m 0,-1.60371 v -0.80185 h 0.269239 v 0.80185 z m 0,-1.6037 v -0.80186 h 0.269239 v 0.80186 z m 0,-1.60371 v -0.80185 h 0.269239 v 0.80185 z m 0,-1.60369 v -0.80186 h 0.269239 v 0.80186 z m 0,-1.60372 v -0.80184 h 0.269239 v 0.80184 z m 0,-1.60369 v -0.80186 h 0.269239 v 0.80186 z m 0,-1.60372 v -0.80185 h 0.269239 v 0.80185 z m 0,-1.60371 v -0.80185 h 0.269239 v 0.80185 z m 0,-1.6037 v -0.80185 h 0.269239 v 0.80185 z m 0,-1.60371 v -0.80184 h 0.269239 v 0.80184 z m 0,-1.6037 v -0.80185 h 0.269239 v 0.80185 z m 0.129634,-1.73702 h 0.797726 v 0.26762 h -0.797726 z"
         id="path7196"
         style="stroke-width:0.0999727" />
      <path
         fill="#000000"
         fill-opacity="1"
         stroke-linejoin="round"
         d="m 65.748338,205.58239 h 0.797727 v 0.26662 h -0.797727 z m 1.595453,0 h 0.797717 v 0.26662 h -0.797717 z m 1.595444,0 h 0.797715 v 0.26662 h -0.797715 z m 1.595442,0 h 0.797717 v 0.26662 h -0.797717 z m 1.595444,0 h 0.797716 v 0.26662 h -0.797716 z m 1.595442,0 h 0.797717 v 0.26662 h -0.797717 z m 1.595445,0 h 0.797715 v 0.26662 h -0.797715 z m 1.595442,0 h 0.797716 v 0.26662 H 76.91645 Z m 1.595443,0 h 0.797726 v 0.26662 h -0.797726 z m 1.595443,0 h 0.797727 v 0.26662 h -0.797727 z m 1.595443,0 h 0.797726 v 0.26662 h -0.797726 z m 1.595444,0 h 0.797726 v 0.26662 h -0.797726 z m 1.595443,0 h 0.797725 v 0.26662 h -0.797725 z m 1.735049,0.13332 v 0.80186 h -0.269229 v -0.80186 z m 0,1.6037 v 0.80185 h -0.269229 v -0.80185 z m 0,1.6037 v 0.80186 h -0.269229 v -0.80186 z m 0,1.60371 v 0.80186 h -0.269229 v -0.80186 z m 0,1.60371 v 0.80186 h -0.269229 v -0.80186 z m 0,1.60371 v 0.80185 h -0.269229 v -0.80185 z m 0,1.6037 v 0.80186 h -0.269229 v -0.80186 z m 0,1.6037 v 0.80186 h -0.269229 v -0.80186 z m 0,1.60372 v 0.80185 h -0.269229 v -0.80185 z m 0,1.60369 v 0.80186 h -0.269229 v -0.80186 z m 0,1.60372 v 0.80184 h -0.269229 v -0.80184 z m 0,1.60369 v 0.80186 h -0.269229 v -0.80186 z m 0,1.60371 v 0.80185 h -0.269229 v -0.80185 z m 0,1.6037 v 0.80186 h -0.269229 v -0.80186 z m -0.139607,1.73701 h -0.797717 v -0.2666 h 0.797717 z m -1.595442,0 h -0.797717 v -0.2666 h 0.797717 z m -1.595443,0 h -0.797718 v -0.2666 h 0.797718 z m -1.595444,0 h -0.797716 v -0.2666 h 0.797716 z m -1.595443,0 h -0.797717 v -0.2666 h 0.797717 z m -1.595443,0 h -0.797727 v -0.2666 h 0.797727 z m -1.595443,0 h -0.797727 v -0.2666 h 0.797727 z m -1.595442,0 H 74.52328 v -0.2666 h 0.797728 z m -1.595445,0 h -0.797726 v -0.2666 h 0.797726 z m -1.595442,0 h -0.797727 v -0.2666 h 0.797727 z m -1.595444,0 H 69.73695 v -0.2666 h 0.797727 z m -1.595442,0 h -0.797727 v -0.2666 h 0.797727 z m -1.595444,0 h -0.797726 v -0.2666 h 0.797726 z m -1.595453,0 h -0.797716 v -0.2666 h 0.797716 z m -1.725066,-0.13329 v -0.80186 h 0.269229 v 0.80186 z m 0,-1.60372 v -0.80185 h 0.269229 v 0.80185 z m 0,-1.6037 v -0.80185 h 0.269229 v 0.80185 z m 0,-1.60371 v -0.80185 h 0.269229 v 0.80185 z m 0,-1.60369 v -0.80186 h 0.269229 v 0.80186 z m 0,-1.60372 v -0.80184 h 0.269229 v 0.80184 z m 0,-1.60369 v -0.80186 h 0.269229 v 0.80186 z m 0,-1.60372 v -0.80184 h 0.269229 v 0.80184 z m 0,-1.6037 v -0.80185 h 0.269229 v 0.80185 z m 0,-1.6037 v -0.80185 h 0.269229 v 0.80185 z m 0,-1.60371 v -0.80185 h 0.269229 v 0.80185 z m 0,-1.60371 v -0.80185 h 0.269229 v 0.80185 z m 0,-1.60371 v -0.80185 h 0.269229 v 0.80185 z m 0,-1.6037 v -0.80184 h 0.269229 v 0.80184 z m 0.129623,-1.73702 h 0.797727 v 0.26662 h -0.797727 z"
         id="path7198"
         style="stroke-width:0.0999727" />
      <text
         xml:space="preserve"
         id="text7318"
         x="98.810379"
         y="260.93079"
         style="font-size:1.22147px;stroke-width:0.101789">		 <tspan
   style="font-size:3.80014px;font-family:'メイリオ'"
   letter-spacing="0em"
   fill="#000000"
   fill-opacity="1"
   stroke-width="0.0203579"
   stroke-linejoin="round"
   id="tspan7316">Finned F/M Fish with EndoFin</tspan>	</text>
      <rect
         x="98.838905"
         y="198.95956"
         fill="#ffffff"
         fill-opacity="1"
         stroke-width="0.267281"
         stroke-linejoin="round"
         stroke="#000000"
         stroke-opacity="1"
         width="57.732719"
         height="57.732719"
         id="rect7320" />
      <line
         fill="none"
         stroke-width="0.814314"
         stroke-linejoin="round"
         stroke="#5e5e5e"
         stroke-opacity="1"
         x1="157.47169"
         y1="215.24796"
         x2="98.840988"
         y2="215.24796"
         id="line7322" />
      <path
         fill="#5e5e5e"
         fill-opacity="1"
         stroke-linejoin="round"
         d="m 141.32777,200.78765 v 0.81431 h -0.27484 v -0.81431 z m 0,1.62863 v 0.81431 h -0.27484 v -0.81431 z m 0,1.62863 v 0.81431 h -0.27484 v -0.81431 z m 0,1.62863 v 0.81432 h -0.27484 v -0.81432 z m 0,1.62863 v 0.81431 h -0.27484 v -0.81431 z m 0,1.62863 v 0.81432 h -0.27484 v -0.81432 z m 0,1.62863 v 0.81432 h -0.27484 v -0.81432 z m 0,1.62863 v 0.81432 h -0.27484 v -0.81432 z m 0,1.62863 v 0.81432 h -0.27484 v -0.81432 z m 0,1.62863 v 0.81432 h -0.27484 v -0.81432 z m 0,1.62863 v 0.81432 h -0.27484 v -0.81432 z m 0,1.62864 v 0.81431 h -0.27484 v -0.81431 z m 0,1.62862 v 0.81432 h -0.27484 v -0.81432 z m 0,1.62864 v 0.81431 h -0.27484 v -0.81431 z m 0,1.62862 v 0.81432 h -0.27484 v -0.81432 z m 0,1.62864 v 0.81431 h -0.27484 v -0.81431 z m 0,1.62862 v 0.81432 h -0.27484 v -0.81432 z m 0,1.62864 v 0.81431 h -0.27484 v -0.81431 z m 0,1.62863 v 0.81431 h -0.27484 V 230.103 Z m 0,1.62863 v 0.81431 h -0.27484 v -0.81431 z m 0,1.62863 v 0.81431 h -0.27484 v -0.81431 z m 0,1.62863 v 0.81431 h -0.27484 v -0.81431 z m 0,1.62863 v 0.81431 h -0.27484 v -0.81431 z m 0,1.62863 v 0.81431 h -0.27484 v -0.81431 z m 0,1.62863 v 0.81431 h -0.27484 v -0.81431 z m 0,1.62863 v 0.81432 h -0.27484 v -0.81432 z m 0,1.62863 v 0.81432 h -0.27484 v -0.81432 z m 0,1.62863 v 0.81432 h -0.27484 v -0.81432 z m 0,1.62863 v 0.81432 h -0.27484 v -0.81432 z m 0,1.62863 v 0.81432 h -0.27484 v -0.81432 z m 0,1.62863 v 0.81432 h -0.27484 v -0.81432 z m 0,1.62864 v 0.81431 h -0.27484 v -0.81431 z m 0,1.62862 v 0.81432 h -0.27484 v -0.81432 z m 0,1.62864 v 0.81431 h -0.27484 v -0.81431 z m 0,1.62863 v 0.81431 h -0.27484 v -0.81431 z m 0,1.62863 h -0.27484 z m 0,-58.63071 v 0.81432 h -0.27484 v -0.81432 z"
         id="path7326"
         style="stroke-width:0.101789" />
      <path
         fill="#ff0000"
         fill-opacity="1"
         stroke-linejoin="round"
         d="m 136.0786,244.6239 h -0.81431 v -0.27177 h 0.81431 z m -1.62862,0 h -0.81432 v -0.27177 h 0.81432 z m -1.62864,0 h -0.81431 v -0.27177 h 0.81431 z m -1.62863,0 h -0.81431 v -0.27177 h 0.81431 z m -1.62863,0 h -0.81431 v -0.27177 h 0.81431 z m -1.62863,0 h -0.81431 v -0.27177 h 0.81431 z m -1.62863,0 h -0.81431 v -0.27177 h 0.81431 z m -1.62863,0 h -0.81431 v -0.27177 h 0.81431 z m -1.62863,0 h -0.81432 v -0.27177 h 0.81432 z m -1.62863,0 h -0.81431 v -0.27177 h 0.81431 z m -1.62863,0 h -0.81432 v -0.27177 h 0.81432 z m -1.62863,0 h -0.81432 v -0.27177 h 0.81432 z m -1.62863,0 h -0.81432 v -0.27177 h 0.81432 z m -1.62863,0 v -0.27177 z m 22.80083,0 h -0.81432 v -0.27177 h 0.81432 z"
         id="path7330"
         style="stroke-width:0.101789" />
      <line
         fill="none"
         stroke-width="0.814314"
         stroke-linejoin="round"
         stroke="#5e5e5e"
         stroke-opacity="1"
         x1="112.07361"
         y1="198.96164"
         x2="112.07361"
         y2="257.59235"
         id="line7332" />
      <g
         id="g7338"
         transform="matrix(0.10178942,0,0,0.10178942,-2715.9724,-85.561013)">
        <path
           fill="#ffffff"
           fill-opacity="1"
           stroke-width="0.2"
           stroke-linejoin="round"
           d="m 28069.3,3206.01 c -17.6,0 -32,14.32 -32,32 0,17.67 14.4,32 32,32 17.7,0 32,-14.33 32,-32 0,-17.68 -14.3,-32 -32,-32 z"
           id="path7334" />
        <path
           fill="#000000"
           fill-opacity="1"
           stroke-linejoin="round"
           stroke="#000000"
           stroke-opacity="1"
           d="m 28069.3,3219.82 20.9,36.38 h -41.7 z"
           id="path7336" />
      </g>
      <path
         fill="#000000"
         fill-opacity="1"
         stroke-linejoin="round"
         d="m 103.72678,205.33977 h 0.81432 v 0.27178 h -0.81432 z m 1.62863,0 h 0.81432 v 0.27178 h -0.81432 z m 1.62863,0 h 0.81432 v 0.27178 h -0.81432 z m 1.62863,0 h 0.81432 v 0.27178 h -0.81432 z m 1.62863,0 h 0.81432 v 0.27178 h -0.81432 z m 1.62864,0 h 0.81431 v 0.27178 h -0.81431 z m 1.62863,0 h 0.81431 v 0.27178 h -0.81431 z m 1.62863,0 h 0.81431 v 0.27178 h -0.81431 z m 1.62863,0 h 0.81431 v 0.27178 h -0.81431 z m 1.62863,0 h 0.81431 v 0.27178 h -0.81431 z m 1.62863,0 h 0.81432 v 0.27178 h -0.81432 z m 1.62863,0 h 0.81431 v 0.27178 h -0.81431 z m 1.62863,0 h 0.81432 v 0.27178 h -0.81432 z m 1.77113,0.1364 v 0.81432 h -0.27483 v -0.81432 z m 0,1.62863 v 0.81431 h -0.27483 v -0.81431 z m 0,1.62863 v 0.81432 h -0.27483 v -0.81432 z m 0,1.62863 v 0.81432 h -0.27483 v -0.81432 z m 0,1.62863 v 0.81432 h -0.27483 v -0.81432 z m 0,1.62863 v 0.81432 h -0.27483 v -0.81432 z m 0,1.62863 v 0.81432 h -0.27483 v -0.81432 z m 0,1.62863 v 0.81432 h -0.27483 v -0.81432 z m 0,1.62864 v 0.81431 h -0.27483 v -0.81431 z m 0,1.62862 v 0.81432 h -0.27483 v -0.81432 z m 0,1.62864 v 0.81431 h -0.27483 v -0.81431 z m 0,1.62862 v 0.81432 h -0.27483 v -0.81432 z m 0,1.62864 v 0.81431 h -0.27483 v -0.81431 z m 0,1.62862 v 0.81432 h -0.27483 v -0.81432 z m -0.1425,1.76401 h -0.81431 v -0.27177 h 0.81431 z m -1.62863,0 h -0.81432 v -0.27177 h 0.81432 z m -1.62863,0 h -0.81431 v -0.27177 h 0.81431 z m -1.62863,0 h -0.81432 v -0.27177 h 0.81432 z m -1.62863,0 h -0.81432 v -0.27177 h 0.81432 z m -1.62863,0 h -0.81432 v -0.27177 h 0.81432 z m -1.62863,0 h -0.81432 v -0.27177 h 0.81432 z m -1.62863,0 h -0.81432 v -0.27177 h 0.81432 z m -1.62863,0 h -0.81432 v -0.27177 h 0.81432 z m -1.62864,0 h -0.81431 v -0.27177 h 0.81431 z m -1.62863,0 h -0.81431 v -0.27177 h 0.81431 z m -1.62863,0 h -0.81431 v -0.27177 h 0.81431 z m -1.62863,0 h -0.81431 v -0.27177 h 0.81431 z m -1.62863,0 h -0.81431 v -0.27177 h 0.81431 z m -1.76096,-0.13639 v -0.81432 h 0.27484 v 0.81432 z m 0,-1.62864 v -0.81431 h 0.27484 v 0.81431 z m 0,-1.62862 v -0.81432 h 0.27484 v 0.81432 z m 0,-1.62864 v -0.81431 h 0.27484 v 0.81431 z m 0,-1.62862 v -0.81432 h 0.27484 v 0.81432 z m 0,-1.62863 v -0.81432 h 0.27484 v 0.81432 z m 0,-1.62863 v -0.81432 h 0.27484 v 0.81432 z m 0,-1.62864 v -0.81431 h 0.27484 v 0.81431 z m 0,-1.62862 v -0.81432 h 0.27484 v 0.81432 z m 0,-1.62864 v -0.81431 h 0.27484 v 0.81431 z m 0,-1.62863 v -0.81431 h 0.27484 v 0.81431 z m 0,-1.62863 v -0.81431 h 0.27484 v 0.81431 z m 0,-1.62863 v -0.81431 h 0.27484 v 0.81431 z m 0,-1.62863 v -0.81431 h 0.27484 v 0.81431 z m 0.13233,-1.76401 h 0.81432 v 0.27178 h -0.81432 z"
         id="path7356"
         style="stroke-width:0.101789" />
      <rect
         x="131.82076"
         y="205.47615"
         fill="none"
         stroke-width="0.814314"
         stroke-linejoin="round"
         stroke="#000000"
         stroke-opacity="1"
         width="22.800627"
         height="22.800831"
         id="rect7358" />
      <path
         fill="#5e5e5e"
         fill-opacity="1"
         stroke-linejoin="round"
         d="m 147.9526,201.40737 v 0.81431 h -0.27484 v -0.81431 z m 0,1.62863 v 0.81431 h -0.27484 V 203.036 Z m 0,1.62863 v 0.81431 h -0.27484 v -0.81431 z m 0,1.62863 v 0.81432 h -0.27484 v -0.81432 z m 0,1.62863 v 0.81431 h -0.27484 v -0.81431 z m 0,1.62863 v 0.81432 h -0.27484 v -0.81432 z m 0,1.62863 v 0.81432 h -0.27484 v -0.81432 z m 0,1.62863 v 0.81432 h -0.27484 v -0.81432 z m 0,1.62863 v 0.81432 h -0.27484 v -0.81432 z m 0,1.62863 v 0.81432 h -0.27484 v -0.81432 z m 0,1.62863 v 0.81432 h -0.27484 v -0.81432 z m 0,1.62864 v 0.81431 h -0.27484 v -0.81431 z m 0,1.62862 v 0.81432 h -0.27484 v -0.81432 z m 0,1.62864 v 0.81431 h -0.27484 v -0.81431 z m 0,1.62862 v 0.81432 h -0.27484 v -0.81432 z m 0,1.62864 v 0.81431 h -0.27484 v -0.81431 z m 0,1.62862 v 0.81432 h -0.27484 v -0.81432 z m 0,1.62864 v 0.81431 h -0.27484 v -0.81431 z m 0,1.62863 v 0.81431 h -0.27484 v -0.81431 z m 0,1.62863 v 0.81431 h -0.27484 v -0.81431 z m 0,1.62863 v 0.81431 h -0.27484 v -0.81431 z m 0,1.62863 v 0.81431 h -0.27484 v -0.81431 z m 0,1.62863 v 0.81431 h -0.27484 v -0.81431 z m 0,1.62863 v 0.81431 h -0.27484 v -0.81431 z m 0,1.62863 v 0.81431 h -0.27484 v -0.81431 z m 0,1.62863 v 0.81432 h -0.27484 v -0.81432 z m 0,1.62863 v 0.81432 h -0.27484 v -0.81432 z m 0,1.62863 v 0.81432 h -0.27484 v -0.81432 z m 0,1.62863 v 0.81432 h -0.27484 v -0.81432 z m 0,1.62863 v 0.81432 h -0.27484 v -0.81432 z m 0,1.62863 v 0.81432 h -0.27484 v -0.81432 z m 0,1.62864 v 0.81431 h -0.27484 v -0.81431 z m 0,1.62862 v 0.81432 h -0.27484 v -0.81432 z m 0,1.62864 v 0.81431 h -0.27484 v -0.81431 z m 0,1.62863 v 0.81431 h -0.27484 v -0.81431 z m 0,1.62863 h -0.27484 z m 0,-58.63071 v 0.81432 h -0.27484 v -0.81432 z"
         id="path7370"
         style="stroke-width:0.101789" />
      <g
         id="g7394"
         transform="matrix(-0.11296283,0,0,0.10178942,3311.8508,-84.849518)"
         style="stroke-width:0.932569;stroke-dasharray:none">
        <path
           fill="#ffffff"
           fill-opacity="1"
           stroke-width="0.2"
           stroke-linejoin="round"
           d="m 28069.3,2918.01 c 17.7,0 32,14.32 32,32 0,17.67 -14.3,32 -32,32 -17.6,0 -32,-14.33 -32,-32 0,-17.68 14.4,-32 32,-32 z"
           id="path7388"
           style="stroke-width:0.932569;stroke-dasharray:none" />
        <text
           transform="matrix(-1,0,0,1,28085,2966)"
           xml:space="preserve"
           id="text7392"
           style="stroke-width:0.932569;stroke-dasharray:none"><tspan
   style="font-size:48px;font-family:'メイリオ';stroke-width:0.932569;stroke-dasharray:none"
   letter-spacing="0em"
   fill="#00c800"
   fill-opacity="1"
   stroke-width="8"
   stroke-linejoin="round"
   stroke="#00c800"
   stroke-opacity="1"
   id="tspan7390">X</tspan>		</text>
      </g>
      <g
         id="g7402"
         transform="matrix(-0.0771526,0,0,0.10178942,2255.0063,-84.978443)"
         style="stroke-width:1.12843;stroke-dasharray:none">
        <path
           fill="#ffffff"
           fill-opacity="1"
           stroke-width="0.2"
           stroke-linejoin="round"
           d="m 27781.3,3206.01 c 17.7,0 32,14.32 32,32 0,17.67 -14.3,32 -32,32 -17.6,0 -32,-14.33 -32,-32 0,-17.68 14.4,-32 32,-32 z"
           id="path7396"
           style="stroke-width:1.12843;stroke-dasharray:none" />
        <text
           transform="scale(-1.2521979,0.79859579)"
           xml:space="preserve"
           id="text7400"
           x="-22198.525"
           y="4070.3987"
           style="font-size:13.4075px;stroke-width:1.12843;stroke-dasharray:none"><tspan
   style="font-size:53.6299px;font-family:'メイリオ';stroke-width:1.12843;stroke-dasharray:none"
   letter-spacing="0em"
   fill="#ff0000"
   fill-opacity="1"
   stroke-width="8.93832"
   stroke-linejoin="round"
   stroke="#ff0000"
   stroke-opacity="1"
   id="tspan7398">X</tspan>		</text>
      </g>
      <line
         fill="none"
         stroke-width="0.814314"
         stroke-linejoin="round"
         stroke="#5e5e5e"
         stroke-opacity="1"
         x1="175.91162"
         y1="214.83664"
         x2="166.13983"
         y2="214.83664"
         id="line7446" />
      <path
         fill="#000000"
         fill-opacity="1"
         stroke-linejoin="round"
         d="m 174.28298,222.09794 h -0.81432 v -0.27178 h 0.81432 z m -1.62863,0 h -0.81431 v -0.27178 h 0.81431 z m -1.62863,0 h -0.81432 v -0.27178 h 0.81432 z m -1.62863,0 h -0.81432 v -0.27178 h 0.81432 z m -1.62863,0 h -0.81432 v -0.27178 h 0.81432 z m -1.62863,0 v -0.27178 z m 9.77178,0 h -0.81431 v -0.27178 h 0.81431 z"
         id="path7450"
         style="stroke-width:0.101789" />
      <text
         xml:space="preserve"
         id="text7454"
         x="178.62962"
         y="216.36244"
         style="font-size:1.22147px;stroke-width:0.101789">		 <tspan
   style="font-size:4.8859px;font-family:'メイリオ'"
   letter-spacing="0em"
   fill="#000000"
   fill-opacity="1"
   stroke-width="0.0203579"
   stroke-linejoin="round"
   id="tspan7452">BaseSet</tspan>	</text>
      <text
         xml:space="preserve"
         id="text7458"
         x="178.62962"
         y="223.99739"
         style="font-size:1.22147px;stroke-width:0.101789">		 <tspan
   style="font-size:4.8859px;font-family:'メイリオ'"
   letter-spacing="0em"
   fill="#000000"
   fill-opacity="1"
   stroke-width="0.0203579"
   stroke-linejoin="round"
   id="tspan7456">CoverSet</tspan>	</text>
      <text
         xml:space="preserve"
         id="text7466"
         x="180.01869"
         y="240.98653"
         style="font-size:1.22147px;stroke-width:0.101789"><tspan
   style="font-size:4.8859px;font-family:'メイリオ'"
   letter-spacing="0em"
   fill="#000000"
   fill-opacity="1"
   stroke-width="0.0203579"
   stroke-linejoin="round"
   id="tspan7464">EndoFin</tspan>	</text>
      <g
         id="g7482"
         transform="matrix(0.10178942,0,0,0.10178942,-2715.6327,-89.874941)"
         style="stroke-width:0.98242;stroke-dasharray:none">
        <path
           fill="#ffffff"
           fill-opacity="1"
           stroke-width="0.2"
           stroke-linejoin="round"
           d="m 28341.3,3206.01 c 17.7,0 32,14.32 32,32 0,17.67 -14.3,32 -32,32 -17.6,0 -32,-14.33 -32,-32 0,-17.68 14.4,-32 32,-32 z"
           id="path7476"
           style="stroke-width:0.98242;stroke-dasharray:none" />
        <text
           transform="matrix(-1,0,0,1,28357,3254)"
           xml:space="preserve"
           id="text7480"
           style="stroke-width:0.98242;stroke-dasharray:none"><tspan
   style="font-size:48px;font-family:'メイリオ';stroke-width:0.98242;stroke-dasharray:none"
   letter-spacing="0em"
   fill="#00c800"
   fill-opacity="1"
   stroke-width="8"
   stroke-linejoin="round"
   stroke="#00c800"
   stroke-opacity="1"
   id="tspan7478">X</tspan>	</text>
      </g>
      <line
         fill="none"
         stroke-width="0.271439"
         stroke-linejoin="round"
         stroke="#ff0000"
         stroke-opacity="1"
         x1="175.91162"
         y1="248.40758"
         x2="166.13983"
         y2="248.40758"
         id="line7490"
         style="stroke-dasharray:1.08576, 1.08576;stroke-dashoffset:0" />
      <text
         xml:space="preserve"
         id="text8980"
         x="178.62962"
         y="249.52623"
         style="font-size:1.22147px;stroke-width:0.101789">		 <tspan
   style="font-size:4.8859px;font-family:'メイリオ'"
   letter-spacing="0em"
   fill="#000000"
   fill-opacity="1"
   stroke-width="0.0203579"
   stroke-linejoin="round"
   id="tspan8978">House different from B/C</tspan>	</text>
      <g
         id="g7775"
         transform="matrix(-0.08536467,0,0,0.1002316,2365.3607,-81.638062)">
        <path
           fill="#ffffff"
           fill-opacity="1"
           stroke-width="0.2"
           stroke-linejoin="round"
           d="m 27143.3,2875.01 c -17.6,0 -32,14.32 -32,32 0,17.67 14.4,32 32,32 17.7,0 32,-14.33 32,-32 0,-17.68 -14.3,-32 -32,-32 z"
           id="path7769" />
        <text
           transform="scale(-1,1)"
           xml:space="preserve"
           id="text7773"
           x="-27178.615"
           y="2926.1221">			<tspan
   style="font-size:48px;font-family:'メイリオ'"
   letter-spacing="0em"
   fill="#000000"
   fill-opacity="1"
   stroke-width="0.2"
   stroke-linejoin="round"
   id="tspan7771">X</tspan>		</text>
      </g>
      <g
         id="g7783"
         transform="matrix(-0.08536467,0,0,0.1002316,2385.7929,-76.013749)"
         inkscape:transform-center-x="6.9169378"
         inkscape:transform-center-y="-6.748237">
        <path
           fill="#ffffff"
           fill-opacity="1"
           stroke-width="0.2"
           stroke-linejoin="round"
           d="m 27143.3,2875.01 c -17.6,0 -32,14.32 -32,32 0,17.67 14.4,32 32,32 17.7,0 32,-14.33 32,-32 0,-17.68 -14.3,-32 -32,-32 z"
           id="path7777" />
        <text
           transform="scale(-1,1)"
           xml:space="preserve"
           id="text7781"
           x="-27178.615"
           y="2926.1221">			<tspan
   style="font-size:48px;font-family:'メイリオ'"
   letter-spacing="0em"
   fill="#000000"
   fill-opacity="1"
   stroke-width="0.2"
   stroke-linejoin="round"
   id="tspan7779">X</tspan>		</text>
      </g>
      <g
         id="g7791"
         transform="matrix(-0.08536467,0,0,0.1002316,2360.6227,-75.81716)">
        <path
           fill="#ffffff"
           fill-opacity="1"
           stroke-width="0.2"
           stroke-linejoin="round"
           d="m 27143.3,2875.01 c -17.6,0 -32,14.32 -32,32 0,17.67 14.4,32 32,32 17.7,0 32,-14.33 32,-32 0,-17.68 -14.3,-32 -32,-32 z"
           id="path7785" />
        <text
           transform="scale(-1,1)"
           xml:space="preserve"
           id="text7789"
           x="-27178.615"
           y="2926.1221">			<tspan
   style="font-size:48px;font-family:'メイリオ'"
   letter-spacing="0em"
   fill="#000000"
   fill-opacity="1"
   stroke-width="0.2"
   stroke-linejoin="round"
   id="tspan7787">X</tspan>		</text>
      </g>
      <g
         id="g7799"
         transform="matrix(-0.08536467,0,0,0.1002316,2365.3607,-68.673324)">
        <path
           fill="#ffffff"
           fill-opacity="1"
           stroke-width="0.2"
           stroke-linejoin="round"
           d="m 27143.3,2875.01 c -17.6,0 -32,14.32 -32,32 0,17.67 14.4,32 32,32 17.7,0 32,-14.33 32,-32 0,-17.68 -14.3,-32 -32,-32 z"
           id="path7793" />
        <text
           transform="scale(-1,1)"
           xml:space="preserve"
           id="text7797"
           x="-27178.615"
           y="2926.1221">			<tspan
   style="font-size:48px;font-family:'メイリオ'"
   letter-spacing="0em"
   fill="#000000"
   fill-opacity="1"
   stroke-width="0.2"
   stroke-linejoin="round"
   id="tspan7795">X</tspan>		</text>
      </g>
      <g
         id="g7807"
         transform="matrix(-0.08536467,0,0,0.1002316,2365.5598,-47.24182)">
        <path
           fill="#ffffff"
           fill-opacity="1"
           stroke-width="0.2"
           stroke-linejoin="round"
           d="m 27143.3,2875.01 c -17.6,0 -32,14.32 -32,32 0,17.67 14.4,32 32,32 17.7,0 32,-14.33 32,-32 0,-17.68 -14.3,-32 -32,-32 z"
           id="path7801" />
        <text
           transform="scale(-1,1)"
           xml:space="preserve"
           id="text7805"
           x="-27178.615"
           y="2926.1221">			<tspan
   style="font-size:48px;font-family:'メイリオ'"
   letter-spacing="0em"
   fill="#000000"
   fill-opacity="1"
   stroke-width="0.2"
   stroke-linejoin="round"
   id="tspan7803">X</tspan>		</text>
      </g>
      <g
         id="g7815"
         transform="matrix(-0.08536467,0,0,0.1002316,2394.0521,-47.041405)"
         inkscape:transform-center-x="16.071697"
         inkscape:transform-center-y="0.3067341">
        <path
           fill="#ffffff"
           fill-opacity="1"
           stroke-width="0.2"
           stroke-linejoin="round"
           d="m 27143.3,2875.01 c -17.6,0 -32,14.32 -32,32 0,17.67 14.4,32 32,32 17.7,0 32,-14.33 32,-32 0,-17.68 -14.3,-32 -32,-32 z"
           id="path7809" />
        <text
           transform="scale(-1,1)"
           xml:space="preserve"
           id="text7813"
           x="-27178.615"
           y="2926.1221">			<tspan
   style="font-size:48px;font-family:'メイリオ'"
   letter-spacing="0em"
   fill="#000000"
   fill-opacity="1"
   stroke-width="0.2"
   stroke-linejoin="round"
   id="tspan7811">X</tspan>		</text>
      </g>
      <g
         id="g7823"
         transform="matrix(-0.0858057,0,0,0.10023041,2434.3943,-76.15521)">
        <path
           fill="#ffffff"
           fill-opacity="1"
           stroke-width="0.2"
           stroke-linejoin="round"
           d="m 27143.3,2875.01 c -17.6,0 -32,14.32 -32,32 0,17.67 14.4,32 32,32 17.7,0 32,-14.33 32,-32 0,-17.68 -14.3,-32 -32,-32 z"
           id="path7817" />
        <text
           transform="scale(-1,1)"
           xml:space="preserve"
           id="text7821"
           x="-27178.615"
           y="2926.1221">			<tspan
   style="font-size:48px;font-family:'メイリオ'"
   letter-spacing="0em"
   fill="#000000"
   fill-opacity="1"
   stroke-width="0.2"
   stroke-linejoin="round"
   id="tspan7819">X</tspan>		</text>
      </g>
      <g
         id="g7831"
         transform="matrix(-0.0858057,0,0,0.10023041,2446.3006,-76.15521)">
        <path
           fill="#ffffff"
           fill-opacity="1"
           stroke-width="0.2"
           stroke-linejoin="round"
           d="m 27143.3,2875.01 c -17.6,0 -32,14.32 -32,32 0,17.67 14.4,32 32,32 17.7,0 32,-14.33 32,-32 0,-17.68 -14.3,-32 -32,-32 z"
           id="path7825" />
        <text
           transform="scale(-1,1)"
           xml:space="preserve"
           id="text7829"
           x="-27178.615"
           y="2926.1221">			<tspan
   style="font-size:48px;font-family:'メイリオ'"
   letter-spacing="0em"
   fill="#000000"
   fill-opacity="1"
   stroke-width="0.2"
   stroke-linejoin="round"
   id="tspan7827">X</tspan>		</text>
      </g>
      <g
         id="g7839"
         transform="matrix(-0.0858057,0,0,0.10023041,2441.1089,-69.508254)">
        <path
           fill="#ffffff"
           fill-opacity="1"
           stroke-width="0.2"
           stroke-linejoin="round"
           d="m 27143.3,2875.01 c -17.6,0 -32,14.32 -32,32 0,17.67 14.4,32 32,32 17.7,0 32,-14.33 32,-32 0,-17.68 -14.3,-32 -32,-32 z"
           id="path7833" />
        <text
           transform="scale(-1,1)"
           xml:space="preserve"
           id="text7837"
           x="-27178.615"
           y="2926.1221">			<tspan
   style="font-size:48px;font-family:'メイリオ'"
   letter-spacing="0em"
   fill="#000000"
   fill-opacity="1"
   stroke-width="0.2"
   stroke-linejoin="round"
   id="tspan7835">X</tspan>		</text>
      </g>
      <g
         id="g7847"
         transform="matrix(-0.0858057,0,0,0.10023041,2476.8276,-68.979087)">
        <path
           fill="#ffffff"
           fill-opacity="1"
           stroke-width="0.2"
           stroke-linejoin="round"
           d="m 27143.3,2875.01 c -17.6,0 -32,14.32 -32,32 0,17.67 14.4,32 32,32 17.7,0 32,-14.33 32,-32 0,-17.68 -14.3,-32 -32,-32 z"
           id="path7841" />
        <text
           transform="scale(-1,1)"
           xml:space="preserve"
           id="text7845"
           x="-27178.615"
           y="2926.1221">			<tspan
   style="font-size:48px;font-family:'メイリオ'"
   letter-spacing="0em"
   fill="#000000"
   fill-opacity="1"
   stroke-width="0.2"
   stroke-linejoin="round"
   id="tspan7843">X</tspan>		</text>
      </g>
      <g
         id="g7855"
         transform="matrix(-0.11238221,0,0,0.10179063,3231.3852,-84.734007)"
         style="stroke-width:0.932569;stroke-dasharray:none">
        <path
           fill="#ffffff"
           fill-opacity="1"
           stroke-width="0.2"
           stroke-linejoin="round"
           d="m 28069.3,2918.01 c 17.7,0 32,14.32 32,32 0,17.67 -14.3,32 -32,32 -17.6,0 -32,-14.33 -32,-32 0,-17.68 14.4,-32 32,-32 z"
           id="path7849"
           style="stroke-width:0.932569;stroke-dasharray:none" />
        <text
           transform="matrix(-1,0,0,1,28085,2966)"
           xml:space="preserve"
           id="text7853"
           style="stroke-width:0.932569;stroke-dasharray:none"><tspan
   style="font-size:48px;font-family:'メイリオ';stroke-width:0.932569;stroke-dasharray:none"
   letter-spacing="0em"
   fill="#00c800"
   fill-opacity="1"
   stroke-width="8"
   stroke-linejoin="round"
   stroke="#00c800"
   stroke-opacity="1"
   id="tspan7851">X</tspan>		</text>
      </g>
      <text
         xml:space="preserve"
         style="font-size:3.175px;line-height:1.94733px;writing-mode:lr-tb;direction:ltr;fill:#0000ff;fill-opacity:0.997085;stroke-width:0.1"
         x="84.155655"
         y="224.88873"
         id="text1"><tspan
           sodipodi:role="line"
           id="tspan1"
           style="stroke-width:0.1"
           x="84.155655"
           y="224.88873">Exclude</tspan></text>
      <text
         xml:space="preserve"
         style="font-size:3.175px;line-height:1.94733px;writing-mode:lr-tb;direction:ltr;fill:#0000ff;fill-opacity:0.997085;stroke-width:0.1"
         x="143.06453"
         y="246.29352"
         id="text4"><tspan
           sodipodi:role="line"
           id="tspan4"
           style="stroke-width:0.1"
           x="143.06453"
           y="246.29352">Exclude</tspan></text>
      <text
         xml:space="preserve"
         id="text16"
         x="180.01868"
         y="232.27313"
         style="font-size:1.22147px;stroke-width:0.101789"><tspan
   style="font-size:4.8859px;font-family:'メイリオ'"
   letter-spacing="0em"
   fill="#000000"
   fill-opacity="1"
   stroke-width="0.0203579"
   stroke-linejoin="round"
   id="tspan16">Fin</tspan>	</text>
      <g
         id="g31"
         transform="matrix(0.10178942,0,0,0.10178942,-2715.765,-89.081187)"
         style="stroke-width:0.98242;stroke-dasharray:none">
        <path
           fill="#ffffff"
           fill-opacity="1"
           stroke-width="0.2"
           stroke-linejoin="round"
           d="m 28341.3,3110.01 c 17.7,0 32,14.32 32,32 0,17.67 -14.3,32 -32,32 -17.6,0 -32,-14.33 -32,-32 0,-17.68 14.4,-32 32,-32 z"
           id="path31"
           style="stroke-width:0.98242;stroke-dasharray:none" />
        <text
           transform="matrix(-1,0,0,1,28357,3158)"
           xml:space="preserve"
           id="text31"
           style="stroke-width:0.98242;stroke-dasharray:none"><tspan
             style="font-size:48px;font-family:'メイリオ';stroke-width:0.98242;stroke-dasharray:none"
             letter-spacing="0em"
             fill="#ff0000"
             fill-opacity="1"
             stroke-width="8"
             stroke-linejoin="round"
             stroke="#ff0000"
             stroke-opacity="1"
             id="tspan31">X</tspan></text>
      </g>
    </g>
  </g>
</svg>
