<?xml version="1.0" encoding="UTF-8" standalone="no"?>
<!-- Created with Inkscape (http://www.inkscape.org/) -->

<svg
   width="164.16454mm"
   height="62.304928mm"
   viewBox="0 0 164.16454 62.304928"
   version="1.1"
   id="svg3843"
   inkscape:version="1.4.3 (0d15f75, 2025-12-25)"
   sodipodi:docname="image37_000.svg"
   xmlns:inkscape="http://www.inkscape.org/namespaces/inkscape"
   xmlns:sodipodi="http://sodipodi.sourceforge.net/DTD/sodipodi-0.dtd"
   xmlns="http://www.w3.org/2000/svg"
   xmlns:svg="http://www.w3.org/2000/svg">
  <sodipodi:namedview
     id="namedview3845"
     pagecolor="#ffffff"
     bordercolor="#000000"
     borderopacity="0.25"
     inkscape:showpageshadow="2"
     inkscape:pageopacity="0.0"
     inkscape:pagecheckerboard="0"
     inkscape:deskcolor="#d1d1d1"
     inkscape:document-units="mm"
     showgrid="true"
     inkscape:zoom="1.4462307"
     inkscape:cx="910.64313"
     inkscape:cy="1102.1755"
     inkscape:window-width="2559"
     inkscape:window-height="1466"
     inkscape:window-x="1594"
     inkscape:window-y="397"
     inkscape:window-maximized="0"
     inkscape:current-layer="layer1">
    <inkscape:grid
       type="xygrid"
       id="grid6155"
       originx="-34.843098"
       originy="-25.511889"
       spacingy="1"
       spacingx="1"
       units="mm"
       visible="true" />
    <inkscape:page
       x="0"
       y="5.4117928e-23"
       width="164.16454"
       height="62.304932"
       id="page2"
       margin="0"
       bleed="0" />
  </sodipodi:namedview>
  <defs
     id="defs3840" />
  <g
     inkscape:label="Layer 1"
     inkscape:groupmode="layer"
     id="layer1"
     transform="translate(-34.843099,-25.511888)">
    <g
       id="g37"
       inkscape:export-filename="img37a.svg"
       inkscape:export-xdpi="96"
       inkscape:export-ydpi="96">
      <rect
         x="34.976715"
         y="25.645508"
         fill="#ffffff"
         fill-opacity="1"
         stroke-width="0.267235"
         stroke-linejoin="round"
         stroke="#5e5e5e"
         stroke-opacity="1"
         width="57.731327"
         height="57.714401"
         id="rect6852"
         inkscape:export-filename="img37a.svg"
         inkscape:export-xdpi="96"
         inkscape:export-ydpi="96" />
      <path
         fill="#000000"
         fill-opacity="1"
         stroke-linejoin="round"
         d="m 92.514227,41.918138 h -0.803775 v -0.268263 h 0.803775 z m -1.607549,0 h -0.803775 v -0.268263 h 0.803775 z m -1.607549,0 h -0.803775 v -0.268263 h 0.803775 z m -1.607549,0 h -0.803775 v -0.268263 h 0.803775 z m -1.607549,0 h -0.803775 v -0.268263 h 0.803775 z m -1.607549,0 h -0.803775 v -0.268263 h 0.803775 z m -1.607549,0 h -0.803775 v -0.268263 h 0.803775 z m -1.607548,0 H 80.45761 v -0.268263 h 0.803775 z m -1.60755,0 h -0.803774 v -0.268263 h 0.803774 z m -1.607549,0 h -0.803774 v -0.268263 h 0.803774 z m -1.607548,0 h -0.803775 v -0.268263 h 0.803775 z m -1.607549,0 h -0.803775 v -0.268263 h 0.803775 z m -1.60755,0 h -0.803773 v -0.268263 h 0.803773 z m -1.607549,0 h -0.803773 v -0.268263 h 0.803773 z m -1.607548,0 h -0.803775 v -0.268263 h 0.803775 z m -1.607549,0 h -0.803775 v -0.268263 h 0.803775 z m -1.607549,0 H 65.98967 v -0.268263 h 0.803774 z m -1.607548,0 h -0.803775 v -0.268263 h 0.803775 z m -1.607549,0 h -0.803776 v -0.268263 h 0.803776 z m -1.607549,0 h -0.803775 v -0.268263 h 0.803775 z m -1.607549,0 h -0.803771 v -0.268263 h 0.803771 z m -1.60755,0 H 57.95193 v -0.268263 h 0.803769 z m -1.607548,0 h -0.80378 v -0.268263 h 0.80378 z m -1.607548,0 h -0.80378 v -0.268263 h 0.80378 z m -1.607548,0 h -0.803779 v -0.268263 h 0.803779 z m -1.607549,0 h -0.803778 v -0.268263 h 0.803778 z m -1.607548,0 H 49.91418 v -0.268263 h 0.803778 z m -1.607548,0 h -0.803779 v -0.268263 h 0.803779 z m -1.607548,0 h -0.803779 v -0.268263 h 0.803779 z m -1.607559,0 h -0.803768 v -0.268263 h 0.803768 z m -1.607538,0 h -0.803778 v -0.268263 h 0.803778 z m -1.607558,0 h -0.803769 v -0.268263 h 0.803769 z m -1.607548,0 H 40.26889 v -0.268263 h 0.803769 z m -1.607548,0 h -0.803769 v -0.268263 h 0.803769 z m -1.607548,0 h -0.803779 v -0.268263 h 0.803779 z m -1.607548,0 v -0.268263 z m 57.87176,0 h -0.803774 v -0.268263 h 0.803774 z"
         id="path6856"
         style="stroke-width:0.100472" />
      <line
         fill="none"
         stroke-width="0.803775"
         stroke-linejoin="round"
         stroke="#5e5e5e"
         stroke-opacity="1"
         x1="74.586685"
         y1="25.768827"
         x2="74.586685"
         y2="83.640877"
         id="line6858" />
      <line
         fill="none"
         stroke-width="0.803775"
         stroke-linejoin="round"
         stroke="#5e5e5e"
         stroke-opacity="1"
         x1="58.511196"
         y1="25.768827"
         x2="58.511196"
         y2="83.640877"
         id="line6864" />
      <line
         fill="none"
         stroke-width="0.803775"
         stroke-linejoin="round"
         stroke="#5e5e5e"
         stroke-opacity="1"
         x1="45.650803"
         y1="25.768827"
         x2="45.650803"
         y2="83.640877"
         id="line6866" />
      <path
         fill="#000000"
         fill-opacity="1"
         stroke-linejoin="round"
         d="m 91.904864,55.147305 h -0.803775 v -0.268263 h 0.803775 z m -1.607549,0 H 89.49354 v -0.268263 h 0.803775 z m -1.607549,0 h -0.803775 v -0.268263 h 0.803775 z m -1.607549,0 h -0.803775 v -0.268263 h 0.803775 z m -1.607549,0 h -0.803775 v -0.268263 h 0.803775 z m -1.607549,0 h -0.803775 v -0.268263 h 0.803775 z m -1.607549,0 h -0.803775 v -0.268263 h 0.803775 z m -1.607548,0 h -0.803775 v -0.268263 h 0.803775 z m -1.60755,0 h -0.803774 v -0.268263 h 0.803774 z m -1.607549,0 h -0.803774 v -0.268263 h 0.803774 z m -1.607548,0 H 75.0256 v -0.268263 h 0.803775 z m -1.607549,0 h -0.803775 v -0.268263 h 0.803775 z m -1.60755,0 h -0.803773 v -0.268263 h 0.803773 z m -1.607549,0 h -0.803773 v -0.268263 h 0.803773 z m -1.607548,0 h -0.803775 v -0.268263 h 0.803775 z m -1.607549,0 h -0.803775 v -0.268263 h 0.803775 z m -1.607549,0 h -0.803774 v -0.268263 h 0.803774 z m -1.607548,0 h -0.803775 v -0.268263 h 0.803775 z m -1.607549,0 h -0.803776 v -0.268263 h 0.803776 z m -1.607549,0 H 60.55766 v -0.268263 h 0.803775 z m -1.607549,0 h -0.803771 v -0.268263 h 0.803771 z m -1.60755,0 h -0.803769 v -0.268263 h 0.803769 z m -1.607548,0 h -0.80378 v -0.268263 h 0.80378 z m -1.607548,0 h -0.80378 v -0.268263 h 0.80378 z m -1.607548,0 h -0.803779 v -0.268263 h 0.803779 z m -1.607549,0 h -0.803778 v -0.268263 h 0.803778 z m -1.607548,0 h -0.803778 v -0.268263 h 0.803778 z m -1.607548,0 h -0.803779 v -0.268263 h 0.803779 z m -1.607548,0 H 46.08972 v -0.268263 h 0.803779 z m -1.607559,0 h -0.803768 v -0.268263 h 0.803768 z m -1.607538,0 h -0.803778 v -0.268263 h 0.803778 z m -1.607558,0 h -0.803769 v -0.268263 h 0.803769 z m -1.607548,0 h -0.803769 v -0.268263 h 0.803769 z m -1.607548,0 h -0.803769 v -0.268263 h 0.803769 z m -1.607548,0 H 36.444421 V 54.879042 H 37.2482 Z m -1.607548,0 v -0.268263 z m 57.87176,0 h -0.803774 v -0.268263 h 0.803774 z"
         id="path6870"
         style="stroke-width:0.100472" />
      <path
         fill="#ffffff"
         fill-opacity="1"
         stroke-width="0.0200944"
         stroke-linejoin="round"
         d="m 84.231919,51.489733 c -1.768305,0 -3.215099,1.438763 -3.215099,3.215113 0,1.775345 1.446794,3.215113 3.215099,3.215113 1.778351,0 3.215097,-1.439768 3.215097,-3.215113 0,-1.77635 -1.436746,-3.215113 -3.215097,-3.215113 z"
         id="path6872" />
      <path
         fill="#000000"
         fill-opacity="1"
         stroke-linejoin="round"
         stroke="#000000"
         stroke-opacity="1"
         d="m 84.231919,52.877255 2.09986,3.655182 h -4.189674 z"
         id="path6874"
         style="stroke-width:0.100472" />
      <path
         fill="#ffffff"
         fill-opacity="1"
         stroke-width="0.0200944"
         stroke-linejoin="round"
         d="m 58.511136,38.62928 c -1.768303,0 -3.215097,1.438763 -3.215097,3.215113 0,1.775345 1.446794,3.215114 3.215097,3.215114 1.778351,0 3.215099,-1.439769 3.215099,-3.215114 0,-1.77635 -1.436748,-3.215113 -3.215099,-3.215113 z"
         id="path6878" />
      <path
         fill="#ffffff"
         fill-opacity="1"
         stroke-width="0.0200944"
         stroke-linejoin="round"
         d="m 74.586625,38.62928 c -1.768303,0 -3.215098,1.438763 -3.215098,3.215113 0,1.775345 1.446795,3.215114 3.215098,3.215114 1.77835,0 3.215098,-1.439769 3.215098,-3.215114 0,-1.77635 -1.436748,-3.215113 -3.215098,-3.215113 z"
         id="path6886" />
      <g
         id="g3">
        <path
           fill="#ffffff"
           fill-opacity="1"
           stroke-width="0.0200944"
           stroke-linejoin="round"
           d="m 45.650745,38.62928 c -1.768303,0 -3.215098,1.438763 -3.215098,3.215113 0,1.775345 1.446795,3.215114 3.215098,3.215114 1.778351,0 3.215098,-1.439769 3.215098,-3.215114 0,-1.77635 -1.436747,-3.215113 -3.215098,-3.215113 z"
           id="path6894" />
        <text
           transform="scale(-0.99999761,1.0000024)"
           xml:space="preserve"
           id="text6898"
           x="-47.744144"
           y="43.688522"
           style="font-size:1.20566px;stroke-width:0.100472"> <tspan
   style="font-size:4.82266px;font-family:'メイリオ'"
   letter-spacing="0em"
   fill="#000000"
   fill-opacity="1"
   stroke-width="0.0200944"
   stroke-linejoin="round"
   id="tspan6896">X</tspan>		</text>
      </g>
      <path
         fill="#ffffff"
         fill-opacity="1"
         stroke-width="0.0200944"
         stroke-linejoin="round"
         d="m 58.511136,51.489733 c -1.768303,0 -3.215097,1.438763 -3.215097,3.215113 0,1.775345 1.446794,3.215113 3.215097,3.215113 1.778351,0 3.215099,-1.439768 3.215099,-3.215113 0,-1.77635 -1.436748,-3.215113 -3.215099,-3.215113 z"
         id="path6902" />
      <path
         fill="#ffffff"
         fill-opacity="1"
         stroke-width="0.0200944"
         stroke-linejoin="round"
         d="m 74.586625,51.489733 c -1.768303,0 -3.215098,1.438763 -3.215098,3.215113 0,1.775345 1.446795,3.215113 3.215098,3.215113 1.77835,0 3.215098,-1.439768 3.215098,-3.215113 0,-1.77635 -1.436748,-3.215113 -3.215098,-3.215113 z"
         id="path6910" />
      <path
         fill="#ffffff"
         fill-opacity="1"
         stroke-width="0.0200944"
         stroke-linejoin="round"
         d="m 45.650745,51.489733 c -1.768303,0 -3.215098,1.438763 -3.215098,3.215113 0,1.775345 1.446795,3.215113 3.215098,3.215113 1.778351,0 3.215098,-1.439768 3.215098,-3.215113 0,-1.77635 -1.436747,-3.215113 -3.215098,-3.215113 z"
         id="path6918" />
      <path
         fill="#ffffff"
         fill-opacity="1"
         stroke-width="0.0200944"
         stroke-linejoin="round"
         d="m 58.511136,67.565299 c -1.768303,0 -3.215097,1.438763 -3.215097,3.215113 0,1.775345 1.446794,3.215113 3.215097,3.215113 1.778351,0 3.215099,-1.439768 3.215099,-3.215113 0,-1.77635 -1.436748,-3.215113 -3.215099,-3.215113 z"
         id="path6926" />
      <path
         fill="#ffffff"
         fill-opacity="1"
         stroke-width="0.0200944"
         stroke-linejoin="round"
         d="m 74.586625,67.565299 c -1.768303,0 -3.215098,1.438763 -3.215098,3.215113 0,1.775345 1.446795,3.215113 3.215098,3.215113 1.77835,0 3.215098,-1.439768 3.215098,-3.215113 0,-1.77635 -1.436748,-3.215113 -3.215098,-3.215113 z"
         id="path6934" />
      <path
         fill="#ffffff"
         fill-opacity="1"
         stroke-width="0.0200944"
         stroke-linejoin="round"
         d="m 45.650745,67.565299 c -1.768303,0 -3.215098,1.438763 -3.215098,3.215113 0,1.775345 1.446795,3.215113 3.215098,3.215113 1.778351,0 3.215098,-1.439768 3.215098,-3.215113 0,-1.77635 -1.436747,-3.215113 -3.215098,-3.215113 z"
         id="path6942" />
      <text
         xml:space="preserve"
         id="text6952"
         x="58.364132"
         y="87.637276"
         style="font-size:1.22147px;stroke-width:0.101789">		 <tspan
   style="font-size:3.80014px;font-family:'メイリオ'"
   letter-spacing="0em"
   fill="#000000"
   fill-opacity="1"
   stroke-width="0.0203579"
   stroke-linejoin="round"
   id="tspan6950">Fish</tspan>	</text>
      <text
         xml:space="preserve"
         id="text7304"
         x="113.36699"
         y="87.7593"
         style="font-size:1.22147px;stroke-width:0.101789">		 <tspan
   style="font-size:3.80014px;font-family:'メイリオ'"
   letter-spacing="0em"
   fill="#000000"
   fill-opacity="1"
   stroke-width="0.0203579"
   stroke-linejoin="round"
   id="tspan7302">Finned Fish</tspan>	</text>
      <line
         fill="none"
         stroke-width="0.814314"
         stroke-linejoin="round"
         stroke="#5e5e5e"
         stroke-opacity="1"
         x1="172.63977"
         y1="41.547245"
         x2="162.868"
         y2="41.547245"
         id="line7036" />
      <path
         fill="#000000"
         fill-opacity="1"
         stroke-linejoin="round"
         d="m 171.11774,51.975822 h -0.81432 v -0.27178 h 0.81432 z m -1.62863,0 h -0.81431 v -0.27178 h 0.81431 z m -1.62863,0 h -0.81432 v -0.27178 h 0.81432 z m -1.62863,0 h -0.81431 v -0.27178 h 0.81431 z m -1.62863,0 h -0.81432 v -0.27178 h 0.81432 z m -1.62863,0 v -0.27178 z m 9.77178,0 h -0.81431 v -0.27178 h 0.81431 z"
         id="path7040"
         style="stroke-width:0.101789" />
      <text
         xml:space="preserve"
         id="text7044"
         x="175.86642"
         y="43.073063"
         style="font-size:1.22147px;stroke-width:0.101789">		 <tspan
   style="font-size:4.8859px;font-family:'メイリオ'"
   letter-spacing="0em"
   fill="#000000"
   fill-opacity="1"
   stroke-width="0.0203579"
   stroke-linejoin="round"
   id="tspan7042">BaseSet</tspan>	</text>
      <text
         xml:space="preserve"
         id="text7048"
         x="175.86642"
         y="53.353798"
         style="font-size:1.22147px;stroke-width:0.101789">		 <tspan
   style="font-size:4.8859px;font-family:'メイリオ'"
   letter-spacing="0em"
   fill="#000000"
   fill-opacity="1"
   stroke-width="0.0203579"
   stroke-linejoin="round"
   id="tspan7046">CoverSet</tspan>	</text>
      <text
         xml:space="preserve"
         id="text7210"
         x="175.86642"
         y="62.820213"
         style="font-size:1.22147px;stroke-width:0.101789">		 <tspan
   style="font-size:4.8859px;font-family:'メイリオ'"
   letter-spacing="0em"
   fill="#000000"
   fill-opacity="1"
   stroke-width="0.0203579"
   stroke-linejoin="round"
   id="tspan7208">Fin</tspan>	</text>
      <path
         fill="#ffffff"
         fill-opacity="1"
         stroke-width="0.0203579"
         stroke-linejoin="round"
         d="m 169.3824,57.833543 c 1.80167,0 3.25726,1.457625 3.25726,3.257262 0,1.798619 -1.45559,3.257261 -3.25726,3.257261 -1.79149,0 -3.25726,-1.458642 -3.25726,-3.257261 0,-1.799637 1.46577,-3.257262 3.25726,-3.257262 z"
         id="path7308" />
      <text
         transform="scale(-0.99470033,1.0053279)"
         xml:space="preserve"
         id="text7312"
         x="-172.76772"
         y="62.097443"
         style="font-size:1.215px;stroke-width:0.1;stroke-dasharray:none">			 <tspan
   style="font-size:4.86px;font-family:'メイリオ';stroke-width:0.1;stroke-dasharray:none"
   letter-spacing="0em"
   fill="#ff0000"
   fill-opacity="1"
   stroke-width="0.809999"
   stroke-linejoin="round"
   stroke="#ff0000"
   stroke-opacity="1"
   id="tspan7310">X</tspan>		</text>
      <rect
         x="99.509689"
         y="25.774923"
         fill="#ffffff"
         fill-opacity="1"
         stroke-width="0.267282"
         stroke-linejoin="round"
         stroke="#5e5e5e"
         stroke-opacity="1"
         width="57.733929"
         height="57.731846"
         id="rect7212" />
      <path
         fill="#000000"
         fill-opacity="1"
         stroke-linejoin="round"
         d="m 101.25694,41.649875 h 0.80187 v 0.267613 h -0.80187 z m 1.60373,0 h 0.80186 v 0.267613 h -0.80186 z m 1.60372,0 h 0.80186 v 0.267613 h -0.80186 z m 1.60371,0 h 0.80187 v 0.267613 h -0.80187 z m 1.60373,0 h 0.80186 v 0.267613 h -0.80186 z m 1.60372,0 h 0.80186 v 0.267613 h -0.80186 z m 1.60371,0 h 0.80187 v 0.267613 h -0.80187 z m 1.60374,0 h 0.80185 v 0.267613 H 112.483 Z m 1.60372,0 h 0.80185 v 0.267613 h -0.80185 z m 1.60371,0 h 0.80186 v 0.267613 h -0.80186 z m 1.60372,0 h 0.80186 v 0.267613 h -0.80186 z m 1.60372,0 h 0.80186 v 0.267613 h -0.80186 z m 1.60372,0 h 0.80186 v 0.267613 h -0.80186 z m 1.60372,0 h 0.80186 v 0.267613 h -0.80186 z m 1.60372,0 h 0.80187 v 0.267613 h -0.80187 z m 1.60372,0 h 0.80186 v 0.267613 h -0.80186 z m 1.60372,0 h 0.80187 v 0.267613 h -0.80187 z m 1.60372,0 h 0.80187 v 0.267613 h -0.80187 z m 1.60372,0 h 0.80186 v 0.267613 h -0.80186 z m 1.60372,0 h 0.80187 v 0.267613 h -0.80187 z m 1.60372,0 h 0.80186 v 0.267613 h -0.80186 z m 1.60373,0 h 0.80185 v 0.267613 h -0.80185 z m 1.6037,0 h 0.80188 v 0.267613 h -0.80188 z m 1.60374,0 h 0.80185 v 0.267613 h -0.80185 z m 1.60372,0 h 0.80185 v 0.267613 h -0.80185 z m 1.60371,0 h 0.80187 v 0.267613 h -0.80187 z m 1.60373,0 h 0.80186 v 0.267613 h -0.80186 z m 1.60372,0 h 0.80185 v 0.267613 h -0.80185 z m 1.60371,0 h 0.80187 v 0.267613 h -0.80187 z m 1.60373,0 h 0.80186 v 0.267613 h -0.80186 z m 1.60372,0 h 0.80186 v 0.267613 h -0.80186 z m 1.60371,0 h 0.80186 v 0.267613 h -0.80186 z m 1.60374,0 h 0.80185 v 0.267613 h -0.80185 z m 1.6037,0 h 0.80187 v 0.267613 h -0.80187 z m 1.60373,0 h 0.80185 v 0.267613 h -0.80185 z m 1.60373,0 v 0.267613 z m -57.733937,0 h 0.801857 v 0.267613 h -0.801857 z"
         id="path7216"
         style="stroke-width:0.100231" />
      <line
         fill="none"
         stroke-width="0.801844"
         stroke-linejoin="round"
         stroke="#5e5e5e"
         stroke-opacity="1"
         x1="137.99899"
         y1="83.506767"
         x2="137.99899"
         y2="25.774923"
         id="line7218" />
      <path
         fill="#000000"
         fill-opacity="1"
         stroke-linejoin="round"
         d="m 101.3512,70.754042 h 0.80187 v 0.267613 h -0.80187 z m 1.60373,0 h 0.80186 v 0.267613 h -0.80186 z m 1.60372,0 h 0.80186 v 0.267613 h -0.80186 z m 1.60371,0 h 0.80187 v 0.267613 h -0.80187 z m 1.60373,0 h 0.80186 v 0.267613 h -0.80186 z m 1.60372,0 h 0.80186 v 0.267613 h -0.80186 z m 1.60371,0 h 0.80187 v 0.267613 h -0.80187 z m 1.60374,0 h 0.80185 v 0.267613 h -0.80185 z m 1.60372,0 h 0.80185 v 0.267613 h -0.80185 z m 1.60371,0 h 0.80186 v 0.267613 h -0.80186 z m 1.60372,0 h 0.80186 v 0.267613 h -0.80186 z m 1.60372,0 h 0.80186 v 0.267613 h -0.80186 z m 1.60372,0 h 0.80186 v 0.267613 h -0.80186 z m 1.60372,0 h 0.80186 v 0.267613 h -0.80186 z m 1.60372,0 h 0.80187 v 0.267613 h -0.80187 z m 1.60372,0 h 0.80186 v 0.267613 h -0.80186 z m 1.60372,0 h 0.80187 v 0.267613 h -0.80187 z m 1.60372,0 h 0.80187 v 0.267613 h -0.80187 z m 1.60372,0 h 0.80186 v 0.267613 h -0.80186 z m 1.60372,0 h 0.80187 v 0.267613 h -0.80187 z m 1.60372,0 h 0.80186 v 0.267613 h -0.80186 z m 1.60373,0 h 0.80185 v 0.267613 h -0.80185 z m 1.6037,0 h 0.80188 v 0.267613 h -0.80188 z m 1.60374,0 h 0.80185 v 0.267613 h -0.80185 z m 1.60372,0 h 0.80185 v 0.267613 h -0.80185 z m 1.60371,0 h 0.80187 v 0.267613 h -0.80187 z m 1.60373,0 h 0.80186 v 0.267613 h -0.80186 z m 1.60372,0 h 0.80185 v 0.267613 h -0.80185 z m 1.60371,0 h 0.80187 v 0.267613 h -0.80187 z m 1.60373,0 h 0.80186 v 0.267613 h -0.80186 z m 1.60372,0 h 0.80186 v 0.267613 h -0.80186 z m 1.60371,0 h 0.80186 v 0.267613 h -0.80186 z m 1.60374,0 h 0.80185 v 0.267613 h -0.80185 z m 1.6037,0 h 0.80187 v 0.267613 h -0.80187 z m 1.60373,0 h 0.80185 v 0.267613 h -0.80185 z m 1.60373,0 v 0.267613 z m -57.733937,0 h 0.801857 v 0.267613 h -0.801857 z"
         id="path7222"
         style="stroke-width:0.100231" />
      <line
         fill="none"
         stroke-width="0.801844"
         stroke-linejoin="round"
         stroke="#5e5e5e"
         stroke-opacity="1"
         x1="121.9618"
         y1="83.506767"
         x2="121.9618"
         y2="25.774923"
         id="line7224" />
      <line
         fill="none"
         stroke-width="0.801844"
         stroke-linejoin="round"
         stroke="#5e5e5e"
         stroke-opacity="1"
         x1="109.13202"
         y1="83.506767"
         x2="109.13202"
         y2="25.774923"
         id="line7226" />
      <path
         fill="#000000"
         fill-opacity="1"
         stroke-linejoin="round"
         d="m 101.3512,54.611427 h 0.80187 v 0.267613 h -0.80187 z m 1.60373,0 h 0.80186 v 0.267613 h -0.80186 z m 1.60372,0 h 0.80186 v 0.267613 h -0.80186 z m 1.60371,0 h 0.80187 v 0.267613 h -0.80187 z m 1.60373,0 h 0.80186 v 0.267613 h -0.80186 z m 1.60372,0 h 0.80186 v 0.267613 h -0.80186 z m 1.60371,0 h 0.80187 v 0.267613 h -0.80187 z m 1.60374,0 h 0.80185 v 0.267613 h -0.80185 z m 1.60372,0 h 0.80185 v 0.267613 h -0.80185 z m 1.60371,0 h 0.80186 v 0.267613 h -0.80186 z m 1.60372,0 h 0.80186 v 0.267613 h -0.80186 z m 1.60372,0 h 0.80186 v 0.267613 h -0.80186 z m 1.60372,0 h 0.80186 v 0.267613 h -0.80186 z m 1.60372,0 h 0.80186 v 0.267613 h -0.80186 z m 1.60372,0 h 0.80187 v 0.267613 h -0.80187 z m 1.60372,0 h 0.80186 v 0.267613 h -0.80186 z m 1.60372,0 h 0.80187 v 0.267613 h -0.80187 z m 1.60372,0 h 0.80187 v 0.267613 h -0.80187 z m 1.60372,0 h 0.80186 v 0.267613 h -0.80186 z m 1.60372,0 h 0.80187 v 0.267613 h -0.80187 z m 1.60372,0 h 0.80186 v 0.267613 h -0.80186 z m 1.60373,0 h 0.80185 v 0.267613 h -0.80185 z m 1.6037,0 h 0.80188 v 0.267613 h -0.80188 z m 1.60374,0 h 0.80185 v 0.267613 h -0.80185 z m 1.60372,0 h 0.80185 v 0.267613 h -0.80185 z m 1.60371,0 h 0.80187 v 0.267613 h -0.80187 z m 1.60373,0 h 0.80186 v 0.267613 h -0.80186 z m 1.60372,0 h 0.80185 v 0.267613 h -0.80185 z m 1.60371,0 h 0.80187 v 0.267613 h -0.80187 z m 1.60373,0 h 0.80186 v 0.267613 h -0.80186 z m 1.60372,0 h 0.80186 v 0.267613 h -0.80186 z m 1.60371,0 h 0.80186 v 0.267613 h -0.80186 z m 1.60374,0 h 0.80185 v 0.267613 h -0.80185 z m 1.6037,0 h 0.80187 v 0.267613 h -0.80187 z m 1.60373,0 h 0.80185 v 0.267613 h -0.80185 z m 1.60373,0 v 0.267613 z m -57.733937,0 h 0.801857 v 0.267613 h -0.801857 z"
         id="path7230"
         style="stroke-width:0.100231" />
      <path
         fill="#ffffff"
         fill-opacity="1"
         stroke-width="0.0200461"
         stroke-linejoin="round"
         d="m 144.51404,51.43352 c 1.77411,0 3.20744,1.435277 3.20744,3.207324 0,1.771044 -1.43333,3.207324 -3.20744,3.207324 -1.7641,0 -3.20744,-1.43628 -3.20744,-3.207324 0,-1.772047 1.44334,-3.207324 3.20744,-3.207324 z"
         id="path7232" />
      <path
         fill="#000000"
         fill-opacity="1"
         stroke-linejoin="round"
         stroke="#000000"
         stroke-opacity="1"
         d="m 144.51404,52.81768 -2.08483,3.646328 h 4.17969 z"
         id="path7234"
         style="stroke-width:0.100231" />
      <path
         fill="#ffffff"
         fill-opacity="1"
         stroke-width="0.0200461"
         stroke-linejoin="round"
         d="m 121.96172,38.604221 c 1.77412,0 3.20744,1.435277 3.20744,3.207324 0,1.771044 -1.43332,3.207325 -3.20744,3.207325 -1.7641,0 -3.20744,-1.436281 -3.20744,-3.207325 0,-1.772047 1.44334,-3.207324 3.20744,-3.207324 z"
         id="path7238" />
      <path
         fill="#ffffff"
         fill-opacity="1"
         stroke-width="0.0200461"
         stroke-linejoin="round"
         d="m 137.99893,38.604221 c 1.77411,0 3.20743,1.435277 3.20743,3.207324 0,1.771044 -1.43332,3.207325 -3.20743,3.207325 -1.7641,0 -3.20745,-1.436281 -3.20745,-3.207325 0,-1.772047 1.44335,-3.207324 3.20745,-3.207324 z"
         id="path7246" />
      <path
         fill="#ffffff"
         fill-opacity="1"
         stroke-width="0.0200461"
         stroke-linejoin="round"
         d="m 109.13196,38.604221 c 1.77412,0 3.20744,1.435277 3.20744,3.207324 0,1.771044 -1.43332,3.207325 -3.20744,3.207325 -1.76409,0 -3.20745,-1.436281 -3.20745,-3.207325 0,-1.772047 1.44336,-3.207324 3.20745,-3.207324 z"
         id="path7254" />
      <path
         fill="#ffffff"
         fill-opacity="1"
         stroke-width="0.0200461"
         stroke-linejoin="round"
         d="m 121.96172,51.43352 c 1.77412,0 3.20744,1.435277 3.20744,3.207324 0,1.771044 -1.43332,3.207324 -3.20744,3.207324 -1.7641,0 -3.20744,-1.43628 -3.20744,-3.207324 0,-1.772047 1.44334,-3.207324 3.20744,-3.207324 z"
         id="path7262" />
      <path
         fill="#ffffff"
         fill-opacity="1"
         stroke-width="0.0200461"
         stroke-linejoin="round"
         d="m 109.13196,51.43352 c 1.77412,0 3.20744,1.435277 3.20744,3.207324 0,1.771044 -1.43332,3.207324 -3.20744,3.207324 -1.76409,0 -3.20745,-1.43628 -3.20745,-3.207324 0,-1.772047 1.44336,-3.207324 3.20745,-3.207324 z"
         id="path7270" />
      <path
         fill="#ffffff"
         fill-opacity="1"
         stroke-width="0.0200461"
         stroke-linejoin="round"
         d="m 121.96172,67.470143 c 1.77412,0 3.20744,1.435277 3.20744,3.207324 0,1.771044 -1.43332,3.207325 -3.20744,3.207325 -1.7641,0 -3.20744,-1.436281 -3.20744,-3.207325 0,-1.772047 1.44334,-3.207324 3.20744,-3.207324 z"
         id="path7278" />
      <path
         fill="#ffffff"
         fill-opacity="1"
         stroke-width="0.0200461"
         stroke-linejoin="round"
         d="m 137.99893,67.470143 c 1.77411,0 3.20743,1.435277 3.20743,3.207324 0,1.771044 -1.43332,3.207325 -3.20743,3.207325 -1.7641,0 -3.20745,-1.436281 -3.20745,-3.207325 0,-1.772047 1.44335,-3.207324 3.20745,-3.207324 z"
         id="path7286" />
      <path
         fill="#ffffff"
         fill-opacity="1"
         stroke-width="0.0200461"
         stroke-linejoin="round"
         d="m 109.13196,67.470143 c 1.77412,0 3.20744,1.435277 3.20744,3.207324 0,1.771044 -1.43332,3.207325 -3.20744,3.207325 -1.76409,0 -3.20745,-1.436281 -3.20745,-3.207325 0,-1.772047 1.44336,-3.207324 3.20745,-3.207324 z"
         id="path7294" />
      <path
         fill="#ff0000"
         fill-opacity="1"
         stroke-linejoin="round"
         d="m 141.43699,48.808052 0.28085,0.04379 0.37171,0.09511 -0.0413,0.216676 -0.37171,-0.09594 -0.26434,-0.03973 z m 1.29687,0.331632 0.48736,0.178635 0.14042,0.06614 -0.0909,0.20344 -0.13217,-0.06614 -0.47083,-0.171194 z m 1.23077,0.540857 0.5617,0.34321 -0.10739,0.194341 -0.56169,-0.34403 z m 1.10689,0.741001 0.12389,0.09676 0.37998,0.343211 -0.14043,0.170356 -0.37997,-0.344029 -0.10737,-0.08353 z m 0.9747,0.920448 0.23955,0.261338 0.18998,0.255544 -0.17347,0.139761 -0.18998,-0.254717 -0.22302,-0.246444 z m 0.80952,1.066839 0.2891,0.471392 0.0497,0.108334 -0.18999,0.105856 -0.0577,-0.109162 -0.27258,-0.453201 z m 0.62778,1.185922 0.23129,0.621901 -0.20652,0.08601 -0.22302,-0.62191 z m 0.40474,1.269444 0.0578,0.219162 0.066,0.441615 -0.21477,0.04379 -0.066,-0.440795 -0.0497,-0.197648 z m 0.19826,1.328997 0.0247,0.504475 -0.008,0.167051 h -0.22302 l 0.008,-0.167051 -0.0247,-0.482148 z m -0.0248,1.343881 -0.0992,0.653335 -0.21477,-0.02234 0.0992,-0.653335 z m -0.25607,1.307491 -0.058,0.234047 -0.14869,0.404404 -0.20649,-0.06533 0.14868,-0.404404 0.0497,-0.212541 z m -0.46258,1.257875 -0.19823,0.411845 -0.11566,0.184421 -0.18998,-0.105855 0.10738,-0.183602 0.18999,-0.392826 z m -0.66907,1.164415 -0.38823,0.524325 -0.0165,0.01324 -0.16521,-0.140596 0.008,-0.01244 0.37998,-0.507783 z m -0.85081,1.027142 -0.0579,0.06614 -0.42954,0.391998 -0.15695,-0.156303 0.42954,-0.391997 0.0497,-0.05046 z m -1.016,0.874139 -0.22304,0.169537 -0.33041,0.201783 -0.12391,-0.182764 0.33041,-0.201791 0.20651,-0.157122 z m -1.13994,0.696339 -0.44604,0.211712 -0.17348,0.06288 -0.0826,-0.202622 0.17348,-0.0637 0.42127,-0.202619 z m -1.2473,0.499503 -0.6443,0.164573 -0.066,-0.210883 0.6443,-0.164574 z m -1.30513,0.271258 -0.18998,0.02892 -0.47909,0.02397 -0.0248,-0.219154 0.48734,-0.02397 0.16522,-0.02559 z m -1.33816,0.05378 -0.48735,-0.02478 -0.18171,-0.02812 0.0166,-0.219983 0.18997,0.02893 0.46258,0.02315 z m -1.32992,-0.160446 -0.64429,-0.164572 0.0413,-0.215848 0.6443,0.164573 z m -1.28032,-0.38869 -0.17347,-0.0637 -0.43779,-0.211712 0.0909,-0.202621 0.43779,0.210892 0.14867,0.05622 z m -1.19774,-0.599576 -0.33042,-0.202611 -0.22302,-0.168709 0.11564,-0.182772 0.23129,0.168708 0.31389,0.191043 z m -1.0821,-0.788131 -0.42953,-0.391997 -0.066,-0.06614 0.15695,-0.15548 0.066,0.06533 0.413,0.378762 z m -0.93341,-0.947747 -0.0166,-0.01325 -0.38824,-0.523495 0.16521,-0.140589 0.39648,0.524324 -0.008,-0.0025 z m -0.76821,-1.104872 -0.10738,-0.185249 -0.19825,-0.411018 0.18999,-0.105035 0.19823,0.411017 0.10739,0.16623 z m -0.56169,-1.21487 -0.1487,-0.406052 -0.066,-0.23239 0.21477,-0.06614 0.0579,0.233218 0.14042,0.385385 z m -0.36346,-1.292606 -0.10738,-0.654156 0.22303,-0.04379 0.0992,0.654156 z m -0.14043,-1.32569 -0.008,-0.1687 0.0247,-0.502819 h 0.22303 l -0.0247,0.502819 0.008,0.146373 z m 0.0909,-1.339738 0.066,-0.443272 0.0497,-0.217506 0.22302,0.04379 -0.0579,0.218325 -0.066,0.420117 z m 0.29737,-1.309149 0.22302,-0.62108 0.21478,0.06533 -0.23131,0.621081 z m 0.5204,-1.228097 0.0497,-0.109162 0.28083,-0.470564 0.19825,0.105027 -0.2891,0.470563 -0.0413,0.09015 z m 0.71863,-1.130512 0.19,-0.255544 0.23954,-0.261337 0.16521,0.140589 -0.23129,0.261338 -0.18172,0.239001 z m 0.90038,-0.996544 0.37171,-0.34403 0.13217,-0.09676 0.14042,0.170358 -0.13217,0.09594 -0.36344,0.329975 z m 1.0408,-0.837749 0.56995,-0.344037 0.1239,0.182771 -0.56996,0.34403 z m 1.17295,-0.639279 0.13217,-0.06695 0.48736,-0.177809 0.0909,0.202613 -0.48734,0.178636 -0.12392,0.05703 z m 1.26383,-0.43748 0.3717,-0.09594 0.28912,-0.04379 0.0413,0.216676 -0.28085,0.04298 -0.35519,0.09015 z m 1.32163,-0.224947 0.66084,-0.03388 0.66081,0.03388 v 0.219983 l -0.66085,-0.03307 -0.63605,0.03225 z"
         id="path7306"
         style="stroke-width:0.0826517" />
      <path
         fill="#ffffff"
         fill-opacity="1"
         stroke-width="0.0200461"
         stroke-linejoin="round"
         d="m 137.99893,56.545193 c 1.77411,0 3.20743,1.435277 3.20743,3.207324 0,1.771045 -1.43332,3.207325 -3.20743,3.207325 -1.7641,0 -3.20745,-1.43628 -3.20745,-3.207325 0,-1.772047 1.44335,-3.207324 3.20745,-3.207324 z"
         id="path7404" />
      <text
         transform="scale(-1.0000181,0.99998191)"
         xml:space="preserve"
         id="text7408"
         x="-141.68669"
         y="61.356281"
         style="font-size:1.20277px;stroke-width:0.1;stroke-dasharray:none">			 <tspan
   style="font-size:4.81108px;font-family:'メイリオ';stroke-width:0.1;stroke-dasharray:none"
   letter-spacing="0em"
   fill="#ff0000"
   fill-opacity="1"
   stroke-width="0.801845"
   stroke-linejoin="round"
   stroke="#ff0000"
   stroke-opacity="1"
   id="tspan7406">X</tspan>		</text>
      <path
         fill="#000000"
         fill-opacity="1"
         stroke-linejoin="round"
         d="m 91.268467,71.022305 h -0.803775 v -0.268263 h 0.803775 z m -1.607549,0 h -0.803775 v -0.268263 h 0.803775 z m -1.607549,0 h -0.803775 v -0.268263 h 0.803775 z m -1.607549,0 h -0.803775 v -0.268263 h 0.803775 z m -1.607549,0 h -0.803775 v -0.268263 h 0.803775 z m -1.607549,0 h -0.803775 v -0.268263 h 0.803775 z m -1.607549,0 h -0.803775 v -0.268263 h 0.803775 z m -1.607548,0 H 79.21185 v -0.268263 h 0.803775 z m -1.60755,0 h -0.803774 v -0.268263 h 0.803774 z m -1.607549,0 h -0.803774 v -0.268263 h 0.803774 z m -1.607548,0 h -0.803775 v -0.268263 h 0.803775 z m -1.607549,0 h -0.803775 v -0.268263 h 0.803775 z m -1.60755,0 h -0.803773 v -0.268263 h 0.803773 z m -1.607549,0 h -0.803773 v -0.268263 h 0.803773 z m -1.607548,0 h -0.803775 v -0.268263 h 0.803775 z m -1.607549,0 h -0.803775 v -0.268263 h 0.803775 z m -1.607549,0 H 64.74391 v -0.268263 h 0.803774 z m -1.607548,0 h -0.803775 v -0.268263 h 0.803775 z m -1.607549,0 h -0.803776 v -0.268263 h 0.803776 z m -1.607549,0 h -0.803775 v -0.268263 h 0.803775 z m -1.607549,0 h -0.803771 v -0.268263 h 0.803771 z m -1.60755,0 H 56.70617 v -0.268263 h 0.803769 z m -1.607548,0 h -0.80378 v -0.268263 h 0.80378 z m -1.607548,0 h -0.80378 v -0.268263 h 0.80378 z m -1.607548,0 h -0.803779 v -0.268263 h 0.803779 z m -1.607549,0 h -0.803778 v -0.268263 h 0.803778 z m -1.607548,0 H 48.66842 v -0.268263 h 0.803778 z m -1.607548,0 h -0.803779 v -0.268263 h 0.803779 z m -1.607548,0 h -0.803779 v -0.268263 h 0.803779 z m -1.607559,0 h -0.803768 v -0.268263 h 0.803768 z m -1.607538,0 h -0.803778 v -0.268263 h 0.803778 z m -1.607558,0 h -0.803769 v -0.268263 h 0.803769 z m -1.607548,0 H 39.02313 v -0.268263 h 0.803769 z m -1.607548,0 h -0.803769 v -0.268263 h 0.803769 z m -1.607548,0 h -0.803779 v -0.268263 h 0.803779 z m -1.607548,0 v -0.268263 z m 57.87176,0 h -0.803774 v -0.268263 h 0.803774 z"
         id="path6862"
         style="stroke-width:0.100472" />
      <g
         id="g5"
         transform="translate(12.806932)">
        <path
           fill="#ffffff"
           fill-opacity="1"
           stroke-width="0.0200944"
           stroke-linejoin="round"
           d="m 45.650745,38.62928 c -1.768303,0 -3.215098,1.438763 -3.215098,3.215113 0,1.775345 1.446795,3.215114 3.215098,3.215114 1.778351,0 3.215098,-1.439769 3.215098,-3.215114 0,-1.77635 -1.436747,-3.215113 -3.215098,-3.215113 z"
           id="path3" />
        <text
           transform="scale(-0.99999761,1.0000024)"
           xml:space="preserve"
           id="text3"
           x="-47.744144"
           y="43.688522"
           style="font-size:1.20566px;stroke-width:0.100472"> <tspan
   style="font-size:4.82266px;font-family:'メイリオ'"
   letter-spacing="0em"
   fill="#000000"
   fill-opacity="1"
   stroke-width="0.0200944"
   stroke-linejoin="round"
   id="tspan3">X</tspan>		</text>
      </g>
      <g
         id="g6"
         transform="translate(28.847938)">
        <path
           fill="#ffffff"
           fill-opacity="1"
           stroke-width="0.0200944"
           stroke-linejoin="round"
           d="m 45.650745,38.62928 c -1.768303,0 -3.215098,1.438763 -3.215098,3.215113 0,1.775345 1.446795,3.215114 3.215098,3.215114 1.778351,0 3.215098,-1.439769 3.215098,-3.215114 0,-1.77635 -1.436747,-3.215113 -3.215098,-3.215113 z"
           id="path5" />
        <text
           transform="scale(-0.99999761,1.0000024)"
           xml:space="preserve"
           id="text5"
           x="-47.744144"
           y="43.688522"
           style="font-size:1.20566px;stroke-width:0.100472"> <tspan
   style="font-size:4.82266px;font-family:'メイリオ'"
   letter-spacing="0em"
   fill="#000000"
   fill-opacity="1"
   stroke-width="0.0200944"
   stroke-linejoin="round"
   id="tspan5">X</tspan>		</text>
      </g>
      <path
         fill="#ffffff"
         fill-opacity="1"
         stroke-width="0.0200944"
         stroke-linejoin="round"
         d="m 58.381773,51.824301 c -1.768303,0 -3.215097,1.438763 -3.215097,3.215113 0,1.775345 1.446794,3.215114 3.215097,3.215114 1.778351,0 3.215099,-1.439769 3.215099,-3.215114 0,-1.77635 -1.436748,-3.215113 -3.215099,-3.215113 z"
         id="path6" />
      <path
         fill="#ffffff"
         fill-opacity="1"
         stroke-width="0.0200944"
         stroke-linejoin="round"
         d="m 74.457262,51.824301 c -1.768303,0 -3.215098,1.438763 -3.215098,3.215113 0,1.775345 1.446795,3.215114 3.215098,3.215114 1.77835,0 3.215098,-1.439769 3.215098,-3.215114 0,-1.77635 -1.436748,-3.215113 -3.215098,-3.215113 z"
         id="path7" />
      <g
         id="g8"
         transform="translate(-0.12936295,13.195021)">
        <path
           fill="#ffffff"
           fill-opacity="1"
           stroke-width="0.0200944"
           stroke-linejoin="round"
           d="m 45.650745,38.62928 c -1.768303,0 -3.215098,1.438763 -3.215098,3.215113 0,1.775345 1.446795,3.215114 3.215098,3.215114 1.778351,0 3.215098,-1.439769 3.215098,-3.215114 0,-1.77635 -1.436747,-3.215113 -3.215098,-3.215113 z"
           id="path8" />
        <text
           transform="scale(-0.99999761,1.0000024)"
           xml:space="preserve"
           id="text8"
           x="-47.744144"
           y="43.688522"
           style="font-size:1.20566px;stroke-width:0.100472"> <tspan
   style="font-size:4.82266px;font-family:'メイリオ'"
   letter-spacing="0em"
   fill="#000000"
   fill-opacity="1"
   stroke-width="0.0200944"
   stroke-linejoin="round"
   id="tspan8">X</tspan>		</text>
      </g>
      <g
         id="g9"
         transform="translate(12.677569,13.195021)">
        <path
           fill="#ffffff"
           fill-opacity="1"
           stroke-width="0.0200944"
           stroke-linejoin="round"
           d="m 45.650745,38.62928 c -1.768303,0 -3.215098,1.438763 -3.215098,3.215113 0,1.775345 1.446795,3.215114 3.215098,3.215114 1.778351,0 3.215098,-1.439769 3.215098,-3.215114 0,-1.77635 -1.436747,-3.215113 -3.215098,-3.215113 z"
           id="path9" />
        <text
           transform="scale(-0.99999761,1.0000024)"
           xml:space="preserve"
           id="text9"
           x="-47.744144"
           y="43.688522"
           style="font-size:1.20566px;stroke-width:0.100472"> <tspan
   style="font-size:4.82266px;font-family:'メイリオ'"
   letter-spacing="0em"
   fill="#000000"
   fill-opacity="1"
   stroke-width="0.0200944"
   stroke-linejoin="round"
   id="tspan9">X</tspan>		</text>
      </g>
      <g
         id="g10"
         transform="translate(28.718575,13.195021)">
        <path
           fill="#ffffff"
           fill-opacity="1"
           stroke-width="0.0200944"
           stroke-linejoin="round"
           d="m 45.650745,38.62928 c -1.768303,0 -3.215098,1.438763 -3.215098,3.215113 0,1.775345 1.446795,3.215114 3.215098,3.215114 1.778351,0 3.215098,-1.439769 3.215098,-3.215114 0,-1.77635 -1.436747,-3.215113 -3.215098,-3.215113 z"
           id="path10" />
        <text
           transform="scale(-0.99999761,1.0000024)"
           xml:space="preserve"
           id="text10"
           x="-47.744144"
           y="43.688522"
           style="font-size:1.20566px;stroke-width:0.100472"> <tspan
   style="font-size:4.82266px;font-family:'メイリオ'"
   letter-spacing="0em"
   fill="#000000"
   fill-opacity="1"
   stroke-width="0.0200944"
   stroke-linejoin="round"
   id="tspan10">X</tspan>		</text>
      </g>
      <path
         fill="#ffffff"
         fill-opacity="1"
         stroke-width="0.0200944"
         stroke-linejoin="round"
         d="m 58.25241,67.477218 c -1.768303,0 -3.215097,1.438763 -3.215097,3.215113 0,1.775345 1.446794,3.215114 3.215097,3.215114 1.778351,0 3.215099,-1.439769 3.215099,-3.215114 0,-1.77635 -1.436748,-3.215113 -3.215099,-3.215113 z"
         id="path11" />
      <path
         fill="#ffffff"
         fill-opacity="1"
         stroke-width="0.0200944"
         stroke-linejoin="round"
         d="m 74.327899,67.477218 c -1.768303,0 -3.215098,1.438763 -3.215098,3.215113 0,1.775345 1.446795,3.215114 3.215098,3.215114 1.77835,0 3.215098,-1.439769 3.215098,-3.215114 0,-1.77635 -1.436748,-3.215113 -3.215098,-3.215113 z"
         id="path12" />
      <g
         id="g13"
         transform="translate(-0.2587259,28.847938)">
        <path
           fill="#ffffff"
           fill-opacity="1"
           stroke-width="0.0200944"
           stroke-linejoin="round"
           d="m 45.650745,38.62928 c -1.768303,0 -3.215098,1.438763 -3.215098,3.215113 0,1.775345 1.446795,3.215114 3.215098,3.215114 1.778351,0 3.215098,-1.439769 3.215098,-3.215114 0,-1.77635 -1.436747,-3.215113 -3.215098,-3.215113 z"
           id="path13" />
        <text
           transform="scale(-0.99999761,1.0000024)"
           xml:space="preserve"
           id="text13"
           x="-47.744144"
           y="43.688522"
           style="font-size:1.20566px;stroke-width:0.100472"> <tspan
   style="font-size:4.82266px;font-family:'メイリオ'"
   letter-spacing="0em"
   fill="#000000"
   fill-opacity="1"
   stroke-width="0.0200944"
   stroke-linejoin="round"
   id="tspan13">X</tspan>		</text>
      </g>
      <g
         id="g14"
         transform="translate(12.548206,28.847938)">
        <path
           fill="#ffffff"
           fill-opacity="1"
           stroke-width="0.0200944"
           stroke-linejoin="round"
           d="m 45.650745,38.62928 c -1.768303,0 -3.215098,1.438763 -3.215098,3.215113 0,1.775345 1.446795,3.215114 3.215098,3.215114 1.778351,0 3.215098,-1.439769 3.215098,-3.215114 0,-1.77635 -1.436747,-3.215113 -3.215098,-3.215113 z"
           id="path14" />
        <text
           transform="scale(-0.99999761,1.0000024)"
           xml:space="preserve"
           id="text14"
           x="-47.744144"
           y="43.688522"
           style="font-size:1.20566px;stroke-width:0.100472"> <tspan
   style="font-size:4.82266px;font-family:'メイリオ'"
   letter-spacing="0em"
   fill="#000000"
   fill-opacity="1"
   stroke-width="0.0200944"
   stroke-linejoin="round"
   id="tspan14">X</tspan>		</text>
      </g>
      <g
         id="g15"
         transform="translate(28.589212,28.847938)">
        <path
           fill="#ffffff"
           fill-opacity="1"
           stroke-width="0.0200944"
           stroke-linejoin="round"
           d="m 45.650745,38.62928 c -1.768303,0 -3.215098,1.438763 -3.215098,3.215113 0,1.775345 1.446795,3.215114 3.215098,3.215114 1.778351,0 3.215098,-1.439769 3.215098,-3.215114 0,-1.77635 -1.436747,-3.215113 -3.215098,-3.215113 z"
           id="path15" />
        <text
           transform="scale(-0.99999761,1.0000024)"
           xml:space="preserve"
           id="text15"
           x="-47.744144"
           y="43.688522"
           style="font-size:1.20566px;stroke-width:0.100472"> <tspan
   style="font-size:4.82266px;font-family:'メイリオ'"
   letter-spacing="0em"
   fill="#000000"
   fill-opacity="1"
   stroke-width="0.0200944"
   stroke-linejoin="round"
   id="tspan15">X</tspan>		</text>
      </g>
      <path
         fill="#ffffff"
         fill-opacity="1"
         stroke-width="0.0200944"
         stroke-linejoin="round"
         d="m 122.02835,38.62928 c -1.76831,0 -3.2151,1.438763 -3.2151,3.215113 0,1.775345 1.44679,3.215114 3.2151,3.215114 1.77835,0 3.21509,-1.439769 3.21509,-3.215114 0,-1.77635 -1.43674,-3.215113 -3.21509,-3.215113 z"
         id="path16" />
      <path
         fill="#ffffff"
         fill-opacity="1"
         stroke-width="0.0200944"
         stroke-linejoin="round"
         d="m 138.10383,38.62928 c -1.7683,0 -3.21509,1.438763 -3.21509,3.215113 0,1.775345 1.44679,3.215114 3.21509,3.215114 1.77835,0 3.2151,-1.439769 3.2151,-3.215114 0,-1.77635 -1.43675,-3.215113 -3.2151,-3.215113 z"
         id="path17" />
      <g
         id="g18"
         transform="translate(63.517209)">
        <path
           fill="#ffffff"
           fill-opacity="1"
           stroke-width="0.0200944"
           stroke-linejoin="round"
           d="m 45.650745,38.62928 c -1.768303,0 -3.215098,1.438763 -3.215098,3.215113 0,1.775345 1.446795,3.215114 3.215098,3.215114 1.778351,0 3.215098,-1.439769 3.215098,-3.215114 0,-1.77635 -1.436747,-3.215113 -3.215098,-3.215113 z"
           id="path18" />
        <text
           transform="scale(-0.99999761,1.0000024)"
           xml:space="preserve"
           id="text18"
           x="-47.744144"
           y="43.688522"
           style="font-size:1.20566px;stroke-width:0.100472"> <tspan
   style="font-size:4.82266px;font-family:'メイリオ'"
   letter-spacing="0em"
   fill="#000000"
   fill-opacity="1"
   stroke-width="0.0200944"
   stroke-linejoin="round"
   id="tspan18">X</tspan>		</text>
      </g>
      <path
         fill="#ffffff"
         fill-opacity="1"
         stroke-width="0.0200944"
         stroke-linejoin="round"
         d="m 122.02835,51.489733 c -1.76831,0 -3.2151,1.438763 -3.2151,3.215113 0,1.775345 1.44679,3.215113 3.2151,3.215113 1.77835,0 3.21509,-1.439768 3.21509,-3.215113 0,-1.77635 -1.43674,-3.215113 -3.21509,-3.215113 z"
         id="path19" />
      <path
         fill="#ffffff"
         fill-opacity="1"
         stroke-width="0.0200944"
         stroke-linejoin="round"
         d="m 138.10383,51.489733 c -1.7683,0 -3.21509,1.438763 -3.21509,3.215113 0,1.775345 1.44679,3.215113 3.21509,3.215113 1.77835,0 3.2151,-1.439768 3.2151,-3.215113 0,-1.77635 -1.43675,-3.215113 -3.2151,-3.215113 z"
         id="path20" />
      <path
         fill="#ffffff"
         fill-opacity="1"
         stroke-width="0.0200944"
         stroke-linejoin="round"
         d="m 109.16795,51.489733 c -1.7683,0 -3.21509,1.438763 -3.21509,3.215113 0,1.775345 1.44679,3.215113 3.21509,3.215113 1.77836,0 3.2151,-1.439768 3.2151,-3.215113 0,-1.77635 -1.43674,-3.215113 -3.2151,-3.215113 z"
         id="path21" />
      <path
         fill="#ffffff"
         fill-opacity="1"
         stroke-width="0.0200944"
         stroke-linejoin="round"
         d="m 122.02835,67.565299 c -1.76831,0 -3.2151,1.438763 -3.2151,3.215113 0,1.775345 1.44679,3.215113 3.2151,3.215113 1.77835,0 3.21509,-1.439768 3.21509,-3.215113 0,-1.77635 -1.43674,-3.215113 -3.21509,-3.215113 z"
         id="path22" />
      <path
         fill="#ffffff"
         fill-opacity="1"
         stroke-width="0.0200944"
         stroke-linejoin="round"
         d="m 138.10383,67.565299 c -1.7683,0 -3.21509,1.438763 -3.21509,3.215113 0,1.775345 1.44679,3.215113 3.21509,3.215113 1.77835,0 3.2151,-1.439768 3.2151,-3.215113 0,-1.77635 -1.43675,-3.215113 -3.2151,-3.215113 z"
         id="path23" />
      <path
         fill="#ffffff"
         fill-opacity="1"
         stroke-width="0.0200944"
         stroke-linejoin="round"
         d="m 109.16795,67.565299 c -1.7683,0 -3.21509,1.438763 -3.21509,3.215113 0,1.775345 1.44679,3.215113 3.21509,3.215113 1.77836,0 3.2151,-1.439768 3.2151,-3.215113 0,-1.77635 -1.43674,-3.215113 -3.2151,-3.215113 z"
         id="path24" />
      <g
         id="g25"
         transform="translate(76.324141)">
        <path
           fill="#ffffff"
           fill-opacity="1"
           stroke-width="0.0200944"
           stroke-linejoin="round"
           d="m 45.650745,38.62928 c -1.768303,0 -3.215098,1.438763 -3.215098,3.215113 0,1.775345 1.446795,3.215114 3.215098,3.215114 1.778351,0 3.215098,-1.439769 3.215098,-3.215114 0,-1.77635 -1.436747,-3.215113 -3.215098,-3.215113 z"
           id="path25" />
        <text
           transform="scale(-0.99999761,1.0000024)"
           xml:space="preserve"
           id="text25"
           x="-47.744144"
           y="43.688522"
           style="font-size:1.20566px;stroke-width:0.100472"> <tspan
   style="font-size:4.82266px;font-family:'メイリオ'"
   letter-spacing="0em"
   fill="#000000"
   fill-opacity="1"
   stroke-width="0.0200944"
   stroke-linejoin="round"
   id="tspan25">X</tspan>		</text>
      </g>
      <g
         id="g26"
         transform="translate(92.365147)">
        <path
           fill="#ffffff"
           fill-opacity="1"
           stroke-width="0.0200944"
           stroke-linejoin="round"
           d="m 45.650745,38.62928 c -1.768303,0 -3.215098,1.438763 -3.215098,3.215113 0,1.775345 1.446795,3.215114 3.215098,3.215114 1.778351,0 3.215098,-1.439769 3.215098,-3.215114 0,-1.77635 -1.436747,-3.215113 -3.215098,-3.215113 z"
           id="path26" />
        <text
           transform="scale(-0.99999761,1.0000024)"
           xml:space="preserve"
           id="text26"
           x="-47.744144"
           y="43.688522"
           style="font-size:1.20566px;stroke-width:0.100472"> <tspan
   style="font-size:4.82266px;font-family:'メイリオ'"
   letter-spacing="0em"
   fill="#000000"
   fill-opacity="1"
   stroke-width="0.0200944"
   stroke-linejoin="round"
   id="tspan26">X</tspan>		</text>
      </g>
      <path
         fill="#ffffff"
         fill-opacity="1"
         stroke-width="0.0200944"
         stroke-linejoin="round"
         d="m 121.89898,51.824301 c -1.7683,0 -3.21509,1.438763 -3.21509,3.215113 0,1.775345 1.44679,3.215114 3.21509,3.215114 1.77835,0 3.2151,-1.439769 3.2151,-3.215114 0,-1.77635 -1.43675,-3.215113 -3.2151,-3.215113 z"
         id="path27" />
      <path
         fill="#ffffff"
         fill-opacity="1"
         stroke-width="0.0200944"
         stroke-linejoin="round"
         d="m 137.97447,51.824301 c -1.7683,0 -3.2151,1.438763 -3.2151,3.215113 0,1.775345 1.4468,3.215114 3.2151,3.215114 1.77835,0 3.2151,-1.439769 3.2151,-3.215114 0,-1.77635 -1.43675,-3.215113 -3.2151,-3.215113 z"
         id="path28" />
      <g
         id="g29"
         transform="translate(63.387846,13.195021)">
        <path
           fill="#ffffff"
           fill-opacity="1"
           stroke-width="0.0200944"
           stroke-linejoin="round"
           d="m 45.650745,38.62928 c -1.768303,0 -3.215098,1.438763 -3.215098,3.215113 0,1.775345 1.446795,3.215114 3.215098,3.215114 1.778351,0 3.215098,-1.439769 3.215098,-3.215114 0,-1.77635 -1.436747,-3.215113 -3.215098,-3.215113 z"
           id="path29" />
        <text
           transform="scale(-0.99999761,1.0000024)"
           xml:space="preserve"
           id="text29"
           x="-47.744144"
           y="43.688522"
           style="font-size:1.20566px;stroke-width:0.100472"> <tspan
   style="font-size:4.82266px;font-family:'メイリオ'"
   letter-spacing="0em"
   fill="#000000"
   fill-opacity="1"
   stroke-width="0.0200944"
   stroke-linejoin="round"
   id="tspan29">X</tspan>		</text>
      </g>
      <g
         id="g30"
         transform="translate(76.194778,13.195021)">
        <path
           fill="#ffffff"
           fill-opacity="1"
           stroke-width="0.0200944"
           stroke-linejoin="round"
           d="m 45.650745,38.62928 c -1.768303,0 -3.215098,1.438763 -3.215098,3.215113 0,1.775345 1.446795,3.215114 3.215098,3.215114 1.778351,0 3.215098,-1.439769 3.215098,-3.215114 0,-1.77635 -1.436747,-3.215113 -3.215098,-3.215113 z"
           id="path30" />
        <text
           transform="scale(-0.99999761,1.0000024)"
           xml:space="preserve"
           id="text30"
           x="-47.744144"
           y="43.688522"
           style="font-size:1.20566px;stroke-width:0.100472"> <tspan
   style="font-size:4.82266px;font-family:'メイリオ'"
   letter-spacing="0em"
   fill="#000000"
   fill-opacity="1"
   stroke-width="0.0200944"
   stroke-linejoin="round"
   id="tspan30">X</tspan>		</text>
      </g>
      <path
         fill="#ffffff"
         fill-opacity="1"
         stroke-width="0.0200944"
         stroke-linejoin="round"
         d="m 121.76962,67.477218 c -1.7683,0 -3.2151,1.438763 -3.2151,3.215113 0,1.775345 1.4468,3.215114 3.2151,3.215114 1.77835,0 3.2151,-1.439769 3.2151,-3.215114 0,-1.77635 -1.43675,-3.215113 -3.2151,-3.215113 z"
         id="path32" />
      <path
         fill="#ffffff"
         fill-opacity="1"
         stroke-width="0.0200944"
         stroke-linejoin="round"
         d="m 137.84511,67.477218 c -1.7683,0 -3.2151,1.438763 -3.2151,3.215113 0,1.775345 1.4468,3.215114 3.2151,3.215114 1.77835,0 3.2151,-1.439769 3.2151,-3.215114 0,-1.77635 -1.43675,-3.215113 -3.2151,-3.215113 z"
         id="path33" />
      <g
         id="g34"
         transform="translate(63.258483,28.847938)">
        <path
           fill="#ffffff"
           fill-opacity="1"
           stroke-width="0.0200944"
           stroke-linejoin="round"
           d="m 45.650745,38.62928 c -1.768303,0 -3.215098,1.438763 -3.215098,3.215113 0,1.775345 1.446795,3.215114 3.215098,3.215114 1.778351,0 3.215098,-1.439769 3.215098,-3.215114 0,-1.77635 -1.436747,-3.215113 -3.215098,-3.215113 z"
           id="path34" />
        <text
           transform="scale(-0.99999761,1.0000024)"
           xml:space="preserve"
           id="text34"
           x="-47.744144"
           y="43.688522"
           style="font-size:1.20566px;stroke-width:0.100472"> <tspan
   style="font-size:4.82266px;font-family:'メイリオ'"
   letter-spacing="0em"
   fill="#000000"
   fill-opacity="1"
   stroke-width="0.0200944"
   stroke-linejoin="round"
   id="tspan34">X</tspan>		</text>
      </g>
      <g
         id="g35"
         transform="translate(76.065415,28.847938)">
        <path
           fill="#ffffff"
           fill-opacity="1"
           stroke-width="0.0200944"
           stroke-linejoin="round"
           d="m 45.650745,38.62928 c -1.768303,0 -3.215098,1.438763 -3.215098,3.215113 0,1.775345 1.446795,3.215114 3.215098,3.215114 1.778351,0 3.215098,-1.439769 3.215098,-3.215114 0,-1.77635 -1.436747,-3.215113 -3.215098,-3.215113 z"
           id="path35" />
        <text
           transform="scale(-0.99999761,1.0000024)"
           xml:space="preserve"
           id="text35"
           x="-47.744144"
           y="43.688522"
           style="font-size:1.20566px;stroke-width:0.100472"> <tspan
   style="font-size:4.82266px;font-family:'メイリオ'"
   letter-spacing="0em"
   fill="#000000"
   fill-opacity="1"
   stroke-width="0.0200944"
   stroke-linejoin="round"
   id="tspan35">X</tspan>		</text>
      </g>
      <g
         id="g36"
         transform="translate(92.106421,28.847938)">
        <path
           fill="#ffffff"
           fill-opacity="1"
           stroke-width="0.0200944"
           stroke-linejoin="round"
           d="m 45.650745,38.62928 c -1.768303,0 -3.215098,1.438763 -3.215098,3.215113 0,1.775345 1.446795,3.215114 3.215098,3.215114 1.778351,0 3.215098,-1.439769 3.215098,-3.215114 0,-1.77635 -1.436747,-3.215113 -3.215098,-3.215113 z"
           id="path36" />
        <text
           transform="scale(-0.99999761,1.0000024)"
           xml:space="preserve"
           id="text36"
           x="-47.744144"
           y="43.688522"
           style="font-size:1.20566px;stroke-width:0.100472"> <tspan
   style="font-size:4.82266px;font-family:'メイリオ'"
   letter-spacing="0em"
   fill="#000000"
   fill-opacity="1"
   stroke-width="0.0200944"
   stroke-linejoin="round"
   id="tspan36">X</tspan>		</text>
      </g>
    </g>
    <text
       xml:space="preserve"
       style="font-size:3.175px;line-height:1.94733px;writing-mode:lr-tb;direction:ltr;fill:#0000ff;fill-opacity:0.997085;stroke-width:0.1"
       x="79.764931"
       y="52.186916"
       id="text11"><tspan
         sodipodi:role="line"
         id="tspan11"
         style="stroke-width:0.1"
         x="79.764931"
         y="52.186916">Exclude</tspan></text>
    <text
       xml:space="preserve"
       style="font-size:3.175px;line-height:1.94733px;writing-mode:lr-tb;direction:ltr;fill:#0000ff;fill-opacity:0.997085;stroke-width:0.1"
       x="142.51572"
       y="52.186924"
       id="text12"><tspan
         sodipodi:role="line"
         id="tspan12"
         style="stroke-width:0.1"
         x="142.51572"
         y="52.186924">Exclude</tspan></text>
  </g>
</svg>
