<?xml version="1.0" encoding="UTF-8" standalone="no"?>
<!-- Created with Inkscape (http://www.inkscape.org/) -->

<svg
   width="201.79515mm"
   height="62.575329mm"
   viewBox="0 0 201.79515 62.575329"
   version="1.1"
   id="svg3843"
   inkscape:version="1.2.2 (732a01da63, 2022-12-09)"
   sodipodi:docname="image37.svg"
   xmlns:inkscape="http://www.inkscape.org/namespaces/inkscape"
   xmlns:sodipodi="http://sodipodi.sourceforge.net/DTD/sodipodi-0.dtd"
   xmlns="http://www.w3.org/2000/svg"
   xmlns:svg="http://www.w3.org/2000/svg">
  <sodipodi:namedview
     id="namedview3845"
     pagecolor="#ffffff"
     bordercolor="#000000"
     borderopacity="0.25"
     inkscape:showpageshadow="2"
     inkscape:pageopacity="0.0"
     inkscape:pagecheckerboard="0"
     inkscape:deskcolor="#d1d1d1"
     inkscape:document-units="mm"
     showgrid="true"
     inkscape:zoom="1.2938725"
     inkscape:cx="518.98468"
     inkscape:cy="597.81779"
     inkscape:window-width="1912"
     inkscape:window-height="1466"
     inkscape:window-x="1404"
     inkscape:window-y="197"
     inkscape:window-maximized="0"
     inkscape:current-layer="layer1">
    <inkscape:grid
       type="xygrid"
       id="grid6155"
       originx="-36.659332"
       originy="-116.28303"
       spacingy="1"
       spacingx="1"
       units="mm"
       visible="true" />
  </sodipodi:namedview>
  <defs
     id="defs3840" />
  <g
     inkscape:label="Layer 1"
     inkscape:groupmode="layer"
     id="layer1"
     transform="translate(-36.659331,-116.28302)">
    <text
       xml:space="preserve"
       id="text7014"
       x="52.267128"
       y="178.29427"
       style="font-size:1.22147px;stroke-width:0.101789"
       inkscape:export-filename="img37b.png"
       inkscape:export-xdpi="96"
       inkscape:export-ydpi="96">		 <tspan
   style="font-size:3.80014px;font-family:'メイリオ'"
   letter-spacing="0em"
   fill="#000000"
   fill-opacity="1"
   stroke-width="0.0203579"
   stroke-linejoin="round"
   id="tspan7012">F/M Fish</tspan>	</text>
    <text
       xml:space="preserve"
       id="text7110"
       x="109.54469"
       y="178.29427"
       style="font-size:1.22147px;stroke-width:0.101789">		 <tspan
   style="font-size:3.80014px;font-family:'メイリオ'"
   letter-spacing="0em"
   fill="#000000"
   fill-opacity="1"
   stroke-width="0.0203579"
   stroke-linejoin="round"
   id="tspan7108">Finned F/M Fish</tspan>	</text>
    <line
       fill="none"
       stroke-width="0.814314"
       stroke-linejoin="round"
       stroke="#5e5e5e"
       stroke-opacity="1"
       x1="173.90834"
       y1="133.02272"
       x2="164.13657"
       y2="133.02272"
       id="line7420" />
    <path
       fill="#000000"
       fill-opacity="1"
       stroke-linejoin="round"
       d="m 171.36912,142.875 h -0.81432 v -0.27178 h 0.81432 z m -1.62863,0 h -0.81431 v -0.27178 h 0.81431 z m -1.62863,0 h -0.81432 v -0.27178 h 0.81432 z m -1.62863,0 h -0.81431 v -0.27178 h 0.81431 z m -1.62863,0 h -0.81432 v -0.27178 h 0.81432 z m -1.62863,0 v -0.27178 z m 9.77178,0 h -0.81431 v -0.27178 h 0.81431 z"
       id="path7424"
       style="stroke-width:0.101789" />
    <text
       xml:space="preserve"
       id="text7428"
       x="177.13499"
       y="134.54854"
       style="font-size:1.22147px;stroke-width:0.101789">		 <tspan
   style="font-size:4.8859px;font-family:'メイリオ'"
   letter-spacing="0em"
   fill="#000000"
   fill-opacity="1"
   stroke-width="0.0203579"
   stroke-linejoin="round"
   id="tspan7426">BaseSet</tspan>	</text>
    <text
       xml:space="preserve"
       id="text7432"
       x="177.13499"
       y="144.82927"
       style="font-size:1.22147px;stroke-width:0.101789">		 <tspan
   style="font-size:4.8859px;font-family:'メイリオ'"
   letter-spacing="0em"
   fill="#000000"
   fill-opacity="1"
   stroke-width="0.0203579"
   stroke-linejoin="round"
   id="tspan7430">CoverSet</tspan>	</text>
    <text
       xml:space="preserve"
       id="text7436"
       x="177.13499"
       y="154.29568"
       style="font-size:1.22147px;stroke-width:0.101789">		 <tspan
   style="font-size:4.8859px;font-family:'メイリオ'"
   letter-spacing="0em"
   fill="#000000"
   fill-opacity="1"
   stroke-width="0.0203579"
   stroke-linejoin="round"
   id="tspan7434">Fin</tspan>	</text>
    <path
       fill="#ff0000"
       fill-opacity="1"
       stroke-linejoin="round"
       d="m 170.65095,156.99411 0.32573,0.10179 0.43769,0.23411 -0.10179,0.24939 -0.43769,-0.2331 -0.28501,-0.0865 z m 1.46577,0.79192 0.45805,0.37458 0.16286,0.18933 -0.1934,0.1934 -0.16286,-0.18933 -0.41734,-0.34303 z m 1.14004,1.22351 0.39698,0.73085 v 0.007 l -0.24429,0.10688 -0.0102,-0.007 -0.37663,-0.68402 z m 0.64127,1.51462 0.0509,0.14963 0.0611,0.68098 -0.26465,0.055 -0.0611,-0.68097 -0.0306,-0.0977 z m 0.10179,1.66833 -0.0509,0.48554 -0.11196,0.33794 -0.26465,-0.055 0.11196,-0.33794 0.0407,-0.43057 z m -0.44787,1.60929 -0.36644,0.65451 -0.0611,0.0723 -0.22394,-0.15268 0.0611,-0.0733 0.3359,-0.60769 z m -0.94664,1.35278 -0.0306,0.0367 -0.61074,0.5008 -0.1934,-0.19238 0.61074,-0.5008 v 0.002 z m -1.36398,0.96191 -0.26465,0.13946 -0.51913,0.16082 -0.10179,-0.2504 0.51913,-0.16083 0.21376,-0.11502 z m -1.59809,0.46925 -0.62092,0.0611 -0.22394,-0.0224 v -0.27076 l 0.22394,0.0214 0.55984,-0.055 z m -1.67953,-0.0539 -0.7736,-0.23921 0.0509,-0.26669 0.78377,0.23921 z m -1.52684,-0.61481 -0.21376,-0.1191 -0.45805,-0.37356 0.1425,-0.22496 0.45806,0.37357 0.17304,0.0936 z m -1.26219,-1.08711 -0.31555,-0.37357 -0.16286,-0.31046 0.22394,-0.1537 0.16286,0.31046 0.28501,0.33387 z m -0.84485,-1.43931 -0.22394,-0.71252 -0.0102,-0.0947 0.26465,-0.055 0.0102,0.0947 0.21376,0.66062 z m -0.31555,-1.61641 -0.0102,-0.0977 0.0713,-0.74001 h 0.27483 l -0.0712,0.74001 v 0.0427 z m 0.26466,-1.65204 0.12214,-0.38171 0.21376,-0.3868 0.24429,0.10687 -0.21375,0.3868 -0.10179,0.3298 z m 0.78377,-1.47086 0.41734,-0.49063 0.15268,-0.12723 0.1934,0.19238 -0.16286,0.12825 -0.37662,0.44991 z m 1.23166,-1.13597 0.71252,-0.38578 0.15268,0.22597 -0.71252,0.38476 z m 1.51666,-0.64535 0.20358,-0.0631 0.62091,-0.0621 0.0509,0.26567 -0.62091,0.0621 -0.15269,0.0479 z m 1.21129,-0.1649 0.81432,0.0814 v 0.27076 l -0.81432,-0.0804 z"
       id="path7484"
       style="stroke-width:0.101789" />
    <text
       xml:space="preserve"
       id="text7488"
       x="177.13499"
       y="163.25316"
       style="font-size:1.22147px;stroke-width:0.101789">		 <tspan
   style="font-size:4.8859px;font-family:'メイリオ'"
   letter-spacing="0em"
   fill="#000000"
   fill-opacity="1"
   stroke-width="0.0203579"
   stroke-linejoin="round"
   id="tspan7486">House different from B/C</tspan>	</text>
    <rect
       x="36.792885"
       y="116.48376"
       fill="#ffffff"
       fill-opacity="1"
       stroke-width="0.26711"
       stroke-linejoin="round"
       stroke="#000000"
       stroke-opacity="1"
       width="57.732719"
       height="57.658703"
       id="rect6954" />
    <line
       fill="none"
       stroke-width="0.801328"
       stroke-linejoin="round"
       stroke="#5e5e5e"
       stroke-opacity="1"
       x1="94.400162"
       y1="133.5426"
       x2="36.667439"
       y2="133.5426"
       id="line6956" />
    <line
       fill="none"
       stroke-width="0.801328"
       stroke-linejoin="round"
       stroke="#5e5e5e"
       stroke-opacity="1"
       x1="74.084045"
       y1="116.69147"
       x2="74.084045"
       y2="174.3502"
       id="line6958" />
    <path
       fill="#000000"
       fill-opacity="1"
       stroke-linejoin="round"
       d="m 92.911712,162.72143 h -0.801844 v -0.26727 h 0.801844 z m -1.603687,0 h -0.801843 v -0.26727 h 0.801843 z m -1.603687,0 h -0.801843 v -0.26727 h 0.801843 z m -1.603686,0 h -0.801843 v -0.26727 h 0.801843 z m -1.603686,0 h -0.801844 v -0.26727 h 0.801844 z m -1.603687,0 h -0.801843 v -0.26727 h 0.801843 z m -1.603687,0 h -0.801843 v -0.26727 h 0.801843 z m -1.603686,0 h -0.801844 v -0.26727 h 0.801844 z m -1.603687,0 h -0.801844 v -0.26727 h 0.801844 z m -1.603687,0 h -0.801843 v -0.26727 h 0.801843 z m -1.603686,0 h -0.801844 v -0.26727 h 0.801844 z m -1.603687,0 h -0.801844 v -0.26727 h 0.801844 z m -1.603687,0 h -0.801843 v -0.26727 h 0.801843 z m -1.603687,0 h -0.801842 v -0.26727 h 0.801842 z m -1.603685,0 h -0.801844 v -0.26727 H 70.4601 Z m -1.603687,0 h -0.801844 v -0.26727 h 0.801844 z m -1.603687,0 h -0.801843 v -0.26727 h 0.801843 z m -1.603686,0 h -0.801844 v -0.26727 h 0.801844 z m -1.603687,0 h -0.801844 v -0.26727 h 0.801844 z m -1.603687,0 h -0.801843 v -0.26727 h 0.801843 z m -1.603687,0 H 60.03614 v -0.26727 h 0.801839 z m -1.603687,0 h -0.801838 v -0.26727 h 0.801838 z m -1.603686,0 h -0.801848 v -0.26727 h 0.801848 z m -1.603686,0 h -0.801848 v -0.26727 h 0.801848 z m -1.603686,0 h -0.801847 v -0.26727 h 0.801847 z m -1.603685,0 h -0.801848 v -0.26727 h 0.801848 z m -1.603686,0 h -0.801848 v -0.26727 h 0.801848 z m -1.603686,0 h -0.801848 v -0.26727 h 0.801848 z m -1.603686,0 h -0.801848 v -0.26727 h 0.801848 z m -1.603696,0 h -0.801838 v -0.26727 h 0.801838 z m -1.603676,0 h -0.801848 v -0.26727 h 0.801848 z m -1.603696,0 h -0.801838 v -0.26727 h 0.801838 z m -1.603686,0 h -0.801838 v -0.26727 h 0.801838 z m -1.603686,0 h -0.801838 v -0.26727 h 0.801838 z m -1.603686,0 h -0.801847 v -0.26727 h 0.801847 z m -1.603686,0 v -0.26727 z m 57.732719,0 h -0.801843 v -0.26727 h 0.801843 z"
       id="path6962"
       style="stroke-width:0.100166" />
    <line
       fill="none"
       stroke-width="0.801328"
       stroke-linejoin="round"
       stroke="#5e5e5e"
       stroke-opacity="1"
       x1="49.697395"
       y1="116.48549"
       x2="49.697395"
       y2="174.14421"
       id="line6964" />
    <path
       fill="#ffffff"
       fill-opacity="1"
       stroke-width="0.0200332"
       stroke-linejoin="round"
       d="m 83.675297,158.66816 c -1.764055,0 -3.207373,1.43346 -3.207373,3.20327 0,1.7688 1.443318,3.20326 3.207373,3.20326 1.774078,0 3.207373,-1.43446 3.207373,-3.20326 0,-1.76981 -1.433295,-3.20327 -3.207373,-3.20327 z"
       id="path6966" />
    <path
       fill="#000000"
       fill-opacity="1"
       stroke-linejoin="round"
       stroke="#000000"
       stroke-opacity="1"
       d="m 83.675297,160.05057 2.094815,3.64171 h -4.179608 z"
       id="path6968"
       style="stroke-width:0.100166" />
    <path
       fill="#ffffff"
       fill-opacity="1"
       stroke-width="0.0200332"
       stroke-linejoin="round"
       d="m 43.451006,130.00125 c -1.764055,0 -3.207373,1.43346 -3.207373,3.20326 0,1.7688 1.443318,3.20326 3.207373,3.20326 1.774079,0 3.207374,-1.43446 3.207374,-3.20326 0,-1.7698 -1.433295,-3.20326 -3.207374,-3.20326 z"
       id="path6988" />
    <text
       transform="scale(-1.0006416,0.99935877)"
       xml:space="preserve"
       id="text6992"
       x="-44.995754"
       y="134.99181"
       style="font-size:1.20199px;stroke-width:0.100166"> <tspan
   style="font-size:4.80797px;font-family:'メイリオ'"
   letter-spacing="0em"
   fill="#000000"
   fill-opacity="1"
   stroke-width="0.0200332"
   stroke-linejoin="round"
   id="tspan6990">X </tspan>		</text>
    <path
       fill="#000000"
       fill-opacity="1"
       stroke-linejoin="round"
       d="m 41.478417,123.79867 h 0.801848 v 0.26726 h -0.801848 z m 1.603686,0 h 0.801848 v 0.26726 h -0.801848 z m 1.603696,0 h 0.801838 v 0.26726 h -0.801838 z m 1.603676,0 h 0.801848 v 0.26726 h -0.801848 z m 1.603696,0 h 0.801838 v 0.26726 h -0.801838 z m 1.603686,0 h 0.801838 v 0.26726 h -0.801838 z m 1.603686,0 h 0.801838 v 0.26726 h -0.801838 z m 1.603686,0 h 0.801838 v 0.26726 h -0.801838 z m 1.603685,0 h 0.801838 v 0.26726 h -0.801838 z m 1.603686,0 h 0.801838 v 0.26726 H 55.9116 Z m 1.603686,0 h 0.801848 v 0.26726 h -0.801848 z m 1.603686,0 v 0 l 0.02009,9.8e-4 0.01004,0.002 0.01004,0.003 0.01004,0.005 0.02009,0.005 0.01004,0.007 0.01004,0.008 0.01004,0.008 0.01004,0.01 v 0.011 l 0.01004,0.011 0.01004,0.012 v 0.012 0.013 l 0.01004,0.013 v 0.013 0.79982 h -0.270621 v -0.79982 l 0.130304,0.13314 v 0 z m 0.140328,1.73477 v 0.80081 h -0.270631 v -0.80081 z m 0,1.60163 v 0.80081 h -0.270631 v -0.80081 z m 0,1.60163 v 0.80081 h -0.270631 v -0.80081 z m 0,1.60163 v 0.80081 h -0.270631 v -0.80081 z m 0,1.60162 v 0.80082 h -0.270631 v -0.80082 z m 0,1.60163 v 0.80082 h -0.270631 v -0.80082 z m 0,1.60163 v 0.80082 h -0.270631 v -0.80082 z m 0,1.60163 v 0.80082 h -0.270631 v -0.80082 z m 0,1.60163 v 0.80082 h -0.270631 v -0.80082 z m 0,1.60163 v 0.80082 h -0.270631 v -0.80082 z m 0,1.60163 v 0.80082 h -0.270631 v -0.80082 z m 0,1.60163 v 9.9e-4 0.013 l -0.01004,0.013 v 0.012 0.013 l -0.01004,0.012 -0.01004,0.011 v 0.01 l -0.01004,0.01 -0.01004,0.009 -0.01004,0.008 -0.01004,0.006 -0.02009,0.006 -0.01004,0.004 -0.01004,0.004 -0.01004,9.8e-4 -0.02009,9.9e-4 h -0.801838 v -0.26728 h 0.801838 l -0.130294,0.13414 v -9.8e-4 z m -1.744014,0.13414 h -0.801848 v -0.26727 h 0.801848 z m -1.603686,0 h -0.801848 v -0.26727 H 55.9116 Z m -1.603686,0 h -0.801847 v -0.26727 h 0.801847 z m -1.603685,0 h -0.801848 v -0.26727 h 0.801848 z m -1.603686,0 h -0.801848 v -0.26727 h 0.801848 z m -1.603686,0 h -0.801848 v -0.26727 h 0.801848 z m -1.603686,0 h -0.801848 v -0.26727 h 0.801848 z m -1.603696,0 h -0.801838 v -0.26727 h 0.801838 z m -1.603676,0 h -0.801848 v -0.26727 h 0.801848 z m -1.603696,0 h -0.801838 v -0.26727 h 0.801838 z m -1.603686,0 h -0.801838 v -0.26727 h 0.801838 z m -1.603686,0 v 0 l -0.01004,-9.8e-4 -0.01004,-9.8e-4 -0.01999,-0.004 -0.01004,-0.004 -0.01004,-0.006 -0.01004,-0.006 -0.01004,-0.008 -0.01004,-0.009 -0.01004,-0.01 -0.01004,-0.01 v -0.011 l -0.01004,-0.012 v -0.013 l -0.01004,-0.012 v -0.013 -0.013 -0.80082 h 0.27063 v 0.80082 L 39.874564,143.019 v 0 z m -0.130303,-1.73476 v -0.80081 h 0.270631 v 0.80081 z m 0,-1.60163 v -0.80081 h 0.270631 v 0.80081 z m 0,-1.60163 v -0.80081 h 0.270631 v 0.80081 z m 0,-1.60163 v -0.80082 h 0.270631 v 0.80082 z m 0,-1.60163 v -0.80082 h 0.270631 v 0.80082 z m 0,-1.60163 v -0.80082 h 0.270631 v 0.80082 z m 0,-1.60163 v -0.80082 h 0.270631 v 0.80082 z m 0,-1.60163 v -0.80082 h 0.270631 v 0.80082 z m 0,-1.60163 v -0.80082 h 0.270631 v 0.80082 z m 0,-1.60163 v -0.80082 h 0.270631 v 0.80082 z m 0,-1.60164 v -0.80081 h 0.270631 v 0.80081 z m 0,-1.60163 v 0 -0.013 -0.013 l 0.01004,-0.013 v -0.012 l 0.01004,-0.012 v -0.011 l 0.01004,-0.011 0.01004,-0.01 0.01004,-0.008 0.01004,-0.008 0.01004,-0.007 0.01004,-0.005 0.01004,-0.005 0.01999,-0.003 0.01004,-0.002 0.01004,-9.8e-4 h 0.801848 v 0.26727 h -0.801848 l 0.140327,-0.13313 v 0 z"
       id="path7024"
       style="stroke-width:0.100166" />
    <path
       fill="#000000"
       fill-opacity="1"
       stroke-linejoin="round"
       d="m 67.137406,123.79867 h 0.801843 v 0.26726 h -0.801843 z m 1.603687,0 h 0.801843 v 0.26726 h -0.801843 z m 1.603687,0 h 0.801843 v 0.26726 H 70.34478 Z m 1.603685,0 h 0.801844 v 0.26726 h -0.801844 z m 1.603687,0 h 0.801843 v 0.26726 h -0.801843 z m 1.603687,0 h 0.801843 v 0.26726 h -0.801843 z m 1.603687,0 h 0.801843 v 0.26726 h -0.801843 z m 1.603686,0 h 0.801843 v 0.26726 h -0.801843 z m 1.603687,0 h 0.801843 v 0.26726 h -0.801843 z m 1.603687,0 h 0.801843 v 0.26726 h -0.801843 z m 1.603686,0 h 0.801844 v 0.26726 h -0.801844 z m 1.603687,0 0.02005,9.8e-4 0.01002,0.002 0.01002,0.003 0.01002,0.005 0.02005,0.005 0.01002,0.007 0.01002,0.008 0.01003,0.008 0.01002,0.01 v 0.011 l 0.01002,0.011 0.01002,0.012 v 0.012 0.013 l 0.01002,0.013 v 0.013 0.80082 h -0.270621 v -0.80082 l 0.130299,0.13314 z m 0.140322,1.73576 v 0.80082 h -0.270622 v -0.80082 z m 0,1.60164 v 0.80081 h -0.270622 v -0.80081 z m 0,1.60163 v 0.80081 h -0.270622 v -0.80081 z m 0,1.60163 v 0.80081 h -0.270622 v -0.80081 z m 0,1.60163 v 0.80081 h -0.270622 v -0.80081 z m 0,1.60163 v 0.80081 h -0.270622 v -0.80081 z m 0,1.60163 v 0.80081 h -0.270622 v -0.80081 z m 0,1.60163 v 0.80082 h -0.270622 v -0.80082 z m 0,1.60163 v 0.80082 h -0.270622 v -0.80082 z m 0,1.60163 v 0.80082 h -0.270622 v -0.80082 z m 0,1.60163 v 0.80082 h -0.270622 v -0.80082 z m 0,1.60163 v 0.013 l -0.01002,0.013 v 0.012 0.013 l -0.01002,0.012 -0.01002,0.011 v 0.01 l -0.01002,0.01 -0.01002,0.009 -0.01002,0.008 -0.01002,0.006 -0.02005,0.006 -0.01002,0.004 -0.01002,0.004 -0.01002,9.8e-4 -0.02005,9.9e-4 H 83.9761 v -0.26728 h 0.801843 l -0.130299,0.13414 z m -1.744009,0.13313 h -0.801843 v -0.26727 h 0.801843 z m -1.603686,0 h -0.801844 v -0.26727 h 0.801844 z m -1.603687,0 h -0.801844 v -0.26727 h 0.801844 z m -1.603687,0 h -0.801843 v -0.26727 h 0.801843 z m -1.603686,0 h -0.801844 v -0.26727 h 0.801844 z m -1.603687,0 h -0.801844 v -0.26727 h 0.801844 z m -1.603687,0 h -0.801843 v -0.26727 h 0.801843 z m -1.603687,0 h -0.801842 v -0.26727 h 0.801842 z m -1.603685,0 h -0.801844 v -0.26727 h 0.801844 z m -1.603687,0 h -0.801844 v -0.26727 h 0.801844 z m -1.603687,0 h -0.801843 v -0.26727 h 0.801843 z m -1.603686,0 -0.01002,-9.8e-4 -0.01002,-9.8e-4 -0.02005,-0.004 -0.01002,-0.004 -0.01002,-0.006 -0.01002,-0.006 -0.01002,-0.008 -0.01002,-0.009 -0.01002,-0.01 -0.01002,-0.01 v -0.011 l -0.01002,-0.012 v -0.013 l -0.01002,-0.012 v -0.013 -0.013 -0.80082 h 0.270621 v 0.80082 L 65.533706,143.019 Z m -0.1303,-1.73476 v -0.80081 h 0.270622 v 0.80081 z m 0,-1.60163 v -0.80081 h 0.270622 v 0.80081 z m 0,-1.60163 v -0.80081 h 0.270622 v 0.80081 z m 0,-1.60163 v -0.80082 h 0.270622 v 0.80082 z m 0,-1.60163 v -0.80082 h 0.270622 v 0.80082 z m 0,-1.60163 v -0.80082 h 0.270622 v 0.80082 z m 0,-1.60163 v -0.80082 h 0.270622 v 0.80082 z m 0,-1.60163 v -0.80082 h 0.270622 v 0.80082 z m 0,-1.60163 v -0.80082 h 0.270622 v 0.80082 z m 0,-1.60163 v -0.80082 h 0.270622 v 0.80082 z m 0,-1.60164 v -0.80081 h 0.270622 v 0.80081 z m 0,-1.60163 v -0.013 -0.013 l 0.01002,-0.013 v -0.012 l 0.01002,-0.012 v -0.011 l 0.01002,-0.011 0.01002,-0.01 0.01002,-0.008 0.01002,-0.008 0.01002,-0.007 0.01002,-0.005 0.01002,-0.005 0.02005,-0.003 0.01002,-0.002 0.01002,-9.8e-4 h 0.801843 v 0.26727 H 65.53369 l 0.140322,-0.13313 z"
       id="path7034"
       style="stroke-width:0.100166" />
    <path
       fill="#ffffff"
       fill-opacity="1"
       stroke-width="0.0200332"
       stroke-linejoin="round"
       d="m 49.703806,124.79731 c -1.764055,0 -3.207373,1.43346 -3.207373,3.20326 0,1.7688 1.443318,3.20326 3.207373,3.20326 1.774079,0 3.207374,-1.43446 3.207374,-3.20326 0,-1.7698 -1.433295,-3.20326 -3.207374,-3.20326 z"
       id="path6726" />
    <text
       transform="scale(-1.0006416,0.99935877)"
       xml:space="preserve"
       id="text6730"
       x="-51.244545"
       y="129.78452"
       style="font-size:1.20199px;stroke-width:0.100166"> <tspan
   style="font-size:4.80797px;font-family:'メイリオ'"
   letter-spacing="0em"
   fill="#000000"
   fill-opacity="1"
   stroke-width="0.0200332"
   stroke-linejoin="round"
   id="tspan6728">X </tspan>		</text>
    <path
       fill="#ffffff"
       fill-opacity="1"
       stroke-width="0.0200332"
       stroke-linejoin="round"
       d="m 70.475706,130.66119 c -1.764055,0 -3.207373,1.43346 -3.207373,3.20326 0,1.7688 1.443318,3.20326 3.207373,3.20326 1.774079,0 3.207374,-1.43446 3.207374,-3.20326 0,-1.7698 -1.433295,-3.20326 -3.207374,-3.20326 z"
       id="path6734" />
    <text
       transform="scale(-1.0006416,0.99935879)"
       xml:space="preserve"
       id="text6738"
       x="-72.00312"
       y="135.12265"
       style="font-size:1.20199px;stroke-width:0.100166"> <tspan
   style="font-size:4.80797px;font-family:'メイリオ'"
   letter-spacing="0em"
   fill="#000000"
   fill-opacity="1"
   stroke-width="0.0200332"
   stroke-linejoin="round"
   id="tspan6736">X </tspan>		</text>
    <path
       fill="#ffffff"
       fill-opacity="1"
       stroke-width="0.0200332"
       stroke-linejoin="round"
       d="m 81.418006,130.66119 c -1.764055,0 -3.207373,1.43346 -3.207373,3.20326 0,1.7688 1.443318,3.20326 3.207373,3.20326 1.774079,0 3.207374,-1.43446 3.207374,-3.20326 0,-1.7698 -1.433295,-3.20326 -3.207374,-3.20326 z"
       id="path6742" />
    <text
       transform="scale(-1.0006416,0.9993588)"
       xml:space="preserve"
       id="text6746"
       x="-82.938408"
       y="135.65216"
       style="font-size:1.20199px;stroke-width:0.100166"> <tspan
   style="font-size:4.80797px;font-family:'メイリオ'"
   letter-spacing="0em"
   fill="#000000"
   fill-opacity="1"
   stroke-width="0.0200332"
   stroke-linejoin="round"
   id="tspan6744">X </tspan>		</text>
    <path
       fill="#ffffff"
       fill-opacity="1"
       stroke-width="0.0200332"
       stroke-linejoin="round"
       d="m 75.246306,135.26384 c -1.764055,0 -3.207373,1.43346 -3.207373,3.20326 0,1.7688 1.443318,3.20326 3.207373,3.20326 1.774079,0 3.207374,-1.43446 3.207374,-3.20326 0,-1.7698 -1.433295,-3.20326 -3.207374,-3.20326 z"
       id="path6750" />
    <text
       transform="scale(-1.0006416,0.99935881)"
       xml:space="preserve"
       id="text6754"
       x="-75.912819"
       y="140.78728"
       style="font-size:1.20199px;stroke-width:0.100166"> <tspan
   style="font-size:4.80797px;font-family:'メイリオ'"
   letter-spacing="0em"
   fill="#000000"
   fill-opacity="1"
   stroke-width="0.0200332"
   stroke-linejoin="round"
   id="tspan6752">X </tspan>		</text>
    <path
       fill="#ffffff"
       fill-opacity="1"
       stroke-width="0.0200332"
       stroke-linejoin="round"
       d="m 50.235206,159.20196 c -1.764055,0 -3.207373,1.43346 -3.207373,3.20326 0,1.7688 1.443318,3.20326 3.207373,3.20326 1.774079,0 3.207374,-1.43446 3.207374,-3.20326 0,-1.7698 -1.433295,-3.20326 -3.207374,-3.20326 z"
       id="path6766" />
    <text
       transform="scale(-1.0006416,0.99935877)"
       xml:space="preserve"
       id="text6770"
       x="-51.775604"
       y="164.21124"
       style="font-size:1.20199px;stroke-width:0.100166"> <tspan
   style="font-size:4.80797px;font-family:'メイリオ'"
   letter-spacing="0em"
   fill="#000000"
   fill-opacity="1"
   stroke-width="0.0200332"
   stroke-linejoin="round"
   id="tspan6768">X </tspan>		</text>
    <path
       fill="#ffffff"
       fill-opacity="1"
       stroke-width="0.0200332"
       stroke-linejoin="round"
       d="m 75.235806,159.14331 c -1.764055,0 -3.207373,1.43346 -3.207373,3.20326 0,1.7688 1.443318,3.20326 3.207373,3.20326 1.774079,0 3.207374,-1.43446 3.207374,-3.20326 0,-1.7698 -1.433295,-3.20326 -3.207374,-3.20326 z"
       id="path6774" />
    <text
       transform="scale(-1.0006416,0.99935879)"
       xml:space="preserve"
       id="text6778"
       x="-76.231339"
       y="164.15256"
       style="font-size:1.20199px;stroke-width:0.100166"> <tspan
   style="font-size:4.80797px;font-family:'メイリオ'"
   letter-spacing="0em"
   fill="#000000"
   fill-opacity="1"
   stroke-width="0.0200332"
   stroke-linejoin="round"
   id="tspan6776">X </tspan>		</text>
    <rect
       x="100.78051"
       y="116.41666"
       fill="#ffffff"
       fill-opacity="1"
       stroke-width="0.267277"
       stroke-linejoin="round"
       stroke="#000000"
       stroke-opacity="1"
       width="57.730644"
       height="57.732708"
       id="rect7050" />
    <line
       fill="none"
       stroke-width="0.801827"
       stroke-linejoin="round"
       stroke="#5e5e5e"
       stroke-opacity="1"
       x1="158.51115"
       y1="132.45355"
       x2="100.78051"
       y2="132.45355"
       id="line7052" />
    <line
       fill="none"
       stroke-width="0.801827"
       stroke-linejoin="round"
       stroke="#5e5e5e"
       stroke-opacity="1"
       x1="139.26761"
       y1="116.41666"
       x2="139.26761"
       y2="174.14938"
       id="line7054" />
    <path
       fill="#000000"
       fill-opacity="1"
       stroke-linejoin="round"
       d="m 156.68328,161.66344 h -0.80182 v -0.26761 h 0.80182 z m -1.60364,0 h -0.80181 v -0.26761 h 0.80181 z m -1.60362,0 h -0.80182 v -0.26761 h 0.80182 z m -1.60363,0 h -0.80181 v -0.26761 h 0.80181 z m -1.60363,0 h -0.80181 v -0.26761 h 0.80181 z m -1.60363,0 h -0.80181 v -0.26761 h 0.80181 z m -1.60363,0 h -0.80182 v -0.26761 h 0.80182 z m -1.60363,0 h -0.80181 v -0.26761 h 0.80181 z m -1.60363,0 h -0.80181 v -0.26761 h 0.80181 z m -1.60362,0 h -0.80182 v -0.26761 h 0.80182 z m -1.60363,0 h -0.80182 v -0.26761 h 0.80182 z m -1.60363,0 h -0.80182 v -0.26761 h 0.80182 z m -1.60364,0 h -0.80181 v -0.26761 h 0.80181 z m -1.60362,0 h -0.80182 v -0.26761 h 0.80182 z m -1.60363,0 h -0.80181 v -0.26761 h 0.80181 z m -1.60363,0 h -0.80181 v -0.26761 h 0.80181 z m -1.60363,0 h -0.80181 v -0.26761 h 0.80181 z m -1.60363,0 h -0.80181 v -0.26761 h 0.80181 z m -1.60363,0 h -0.80181 v -0.26761 h 0.80181 z m -1.60363,0 h -0.80181 v -0.26761 h 0.80181 z m -1.60362,0 h -0.80182 v -0.26761 h 0.80182 z m -1.60363,0 h -0.80181 v -0.26761 h 0.80181 z m -1.60363,0 h -0.80182 v -0.26761 h 0.80182 z m -1.60363,0 h -0.80182 v -0.26761 h 0.80182 z m -1.60363,0 h -0.80182 v -0.26761 h 0.80182 z m -1.60363,0 h -0.80181 v -0.26761 h 0.80181 z m -1.60362,0 h -0.80182 v -0.26761 h 0.80182 z m -1.60363,0 h -0.80182 v -0.26761 h 0.80182 z m -1.60364,0 h -0.80181 v -0.26761 h 0.80181 z m -1.60363,0 h -0.80181 v -0.26761 h 0.80181 z m -1.60363,0 h -0.80181 v -0.26761 h 0.80181 z m -1.60362,0 h -0.80181 v -0.26761 h 0.80181 z m -1.60363,0 h -0.80181 v -0.26761 h 0.80181 z m -1.60363,0 h -0.80181 v -0.26761 h 0.80181 z m -1.60363,0 h -0.80181 v -0.26761 h 0.80181 z m -1.60363,0 v -0.26761 z m 57.73065,0 h -0.80182 v -0.26761 h 0.80182 z"
       id="path7058"
       style="stroke-width:0.100228" />
    <line
       fill="none"
       stroke-width="0.801827"
       stroke-linejoin="round"
       stroke="#5e5e5e"
       stroke-opacity="1"
       x1="113.81"
       y1="116.41666"
       x2="113.81"
       y2="174.14938"
       id="line7060" />
    <g
       id="g7066"
       transform="matrix(0.10022681,0,0,0.10023039,-2670.8216,-86.250179)">
      <path
         fill="#ffffff"
         fill-opacity="1"
         stroke-width="0.2"
         stroke-linejoin="round"
         d="m 28101.3,2438.01 c -17.6,0 -32,14.32 -32,32 0,17.67 14.4,32 32,32 17.7,0 32,-14.33 32,-32 0,-17.68 -14.3,-32 -32,-32 z"
         id="path7062" />
      <path
         fill="#000000"
         fill-opacity="1"
         stroke-linejoin="round"
         stroke="#000000"
         stroke-opacity="1"
         d="m 28101.3,2451.82 20.9,36.38 h -41.7 z"
         id="path7064" />
    </g>
    <path
       fill="#000000"
       fill-opacity="1"
       stroke-linejoin="round"
       d="m 105.59132,122.69711 h 0.80182 v 0.26761 h -0.80182 z m 1.60363,0 h 0.80181 v 0.26761 h -0.80181 z m 1.60362,0 h 0.80182 v 0.26761 h -0.80182 z m 1.60363,0 h 0.80182 v 0.26761 h -0.80182 z m 1.60363,0 h 0.80182 v 0.26761 h -0.80182 z m 1.60364,0 h 0.80181 v 0.26761 h -0.80181 z m 1.60363,0 h 0.80181 v 0.26761 h -0.80181 z m 1.60362,0 h 0.80181 v 0.26761 h -0.80181 z m 1.60363,0 h 0.80181 v 0.26761 h -0.80181 z m 1.60363,0 h 0.80181 v 0.26761 h -0.80181 z m 1.60363,0 h 0.80182 v 0.26761 h -0.80182 z m 1.60363,0 v 0 l 0.02,9.9e-4 0.01,0.002 0.01,0.003 0.0101,0.005 0.02,0.005 0.0101,0.007 0.01,0.008 0.01,0.008 0.0101,0.01 v 0.011 l 0.01,0.011 0.01,0.012 v 0.012 0.013 l 0.0101,0.013 v 0.013 0.80085 h -0.27061 v -0.80085 l 0.1303,0.13331 v 0 z m 0.14031,1.73699 v 0.80184 h -0.27061 v -0.80184 z m 0,1.60369 v 0.80184 h -0.27061 v -0.80184 z m 0,1.60368 v 0.80184 h -0.27061 v -0.80184 z m 0,1.60369 v 0.80184 h -0.27061 v -0.80184 z m 0,1.60369 v 0.80184 h -0.27061 v -0.80184 z m 0,1.60368 v 0.80185 h -0.27061 v -0.80185 z m 0,1.60369 v 0.80184 h -0.27061 v -0.80184 z m 0,1.60368 v 0.80185 h -0.27061 v -0.80185 z m 0,1.60369 v 0.80185 h -0.27061 v -0.80185 z m 0,1.60368 v 0.80185 h -0.27061 v -0.80185 z m 0,1.60369 v 0.80185 h -0.27061 v -0.80185 z m 0,1.60368 v 9.9e-4 0.013 l -0.01,0.013 v 0.012 0.013 l -0.01,0.012 -0.01,0.011 v 0.01 l -0.01,0.0101 -0.01,0.009 -0.01,0.008 -0.01,0.006 -0.02,0.006 -0.0101,0.004 -0.01,0.004 -0.01,9.8e-4 -0.0201,9.9e-4 h -0.80181 v -0.26762 h 0.80181 l -0.13029,0.13431 v -9.8e-4 z m -1.74394,0.13432 h -0.80182 v -0.26762 h 0.80182 z m -1.60363,0 h -0.80182 v -0.26762 h 0.80182 z m -1.60363,0 h -0.80182 v -0.26762 h 0.80182 z m -1.60363,0 h -0.80181 v -0.26762 h 0.80181 z m -1.60362,0 h -0.80182 v -0.26762 h 0.80182 z m -1.60363,0 h -0.80182 v -0.26762 h 0.80182 z m -1.60364,0 h -0.80181 v -0.26762 h 0.80181 z m -1.60363,0 h -0.80181 v -0.26762 h 0.80181 z m -1.60363,0 h -0.80181 v -0.26762 h 0.80181 z m -1.60362,0 h -0.80181 v -0.26762 h 0.80181 z m -1.60363,0 h -0.80181 v -0.26762 h 0.80181 z m -1.60363,0 v 0 l -0.01,-9.9e-4 -0.01,-9.8e-4 -0.0201,-0.004 -0.01,-0.004 -0.01,-0.006 -0.0101,-0.006 -0.01,-0.008 -0.01,-0.009 -0.0101,-0.01 -0.01,-0.01 v -0.011 l -0.01,-0.012 v -0.013 l -0.0101,-0.012 v -0.013 -0.013 -0.80185 h 0.27062 v 0.80185 l -0.14032,-0.13431 v 0 z m -0.1303,-1.737 v -0.80183 h 0.27062 v 0.80183 z m 0,-1.60368 v -0.80184 h 0.27062 v 0.80184 z m 0,-1.60369 v -0.80184 h 0.27062 v 0.80184 z m 0,-1.60368 v -0.80185 h 0.27062 v 0.80185 z m 0,-1.60369 v -0.80185 h 0.27062 v 0.80185 z m 0,-1.60368 v -0.80185 h 0.27062 v 0.80185 z m 0,-1.60369 V 130.048 h 0.27062 v 0.80185 z m 0,-1.60369 v -0.80184 h 0.27062 v 0.80184 z m 0,-1.60368 v -0.80185 h 0.27062 v 0.80185 z m 0,-1.60369 v -0.80184 h 0.27062 v 0.80184 z m 0,-1.60369 v -0.80184 h 0.27062 v 0.80184 z m 0,-1.60369 v 0 -0.013 -0.013 l 0.01,-0.013 v -0.012 l 0.0101,-0.012 v -0.011 l 0.01,-0.011 0.01,-0.0101 0.0101,-0.008 0.01,-0.008 0.01,-0.007 0.0101,-0.005 0.01,-0.005 0.0201,-0.003 0.01,-0.002 0.01,-9.8e-4 h 0.80182 v 0.26762 h -0.80182 l 0.14033,-0.13331 v 0 z"
       id="path7120"
       style="stroke-width:0.100228" />
    <path
       fill="#000000"
       fill-opacity="1"
       stroke-linejoin="round"
       d="m 131.24938,122.69711 h 0.80182 v 0.26761 h -0.80182 z m 1.60363,0 h 0.80182 v 0.26761 h -0.80182 z m 1.60363,0 h 0.80181 v 0.26761 h -0.80181 z m 1.60363,0 h 0.80181 v 0.26761 h -0.80181 z m 1.60362,0 h 0.80182 v 0.26761 h -0.80182 z m 1.60364,0 h 0.80181 v 0.26761 h -0.80181 z m 1.60363,0 h 0.80181 v 0.26761 h -0.80181 z m 1.60363,0 h 0.80181 v 0.26761 h -0.80181 z m 1.60362,0 h 0.80182 v 0.26761 h -0.80182 z m 1.60363,0 h 0.80181 v 0.26761 h -0.80181 z m 1.60363,0 h 0.80182 v 0.26761 h -0.80182 z m 1.60363,0 0.0201,9.9e-4 0.01,0.002 0.01,0.003 0.01,0.005 0.0201,0.005 0.0101,0.007 0.01,0.008 0.01,0.008 0.01,0.01 v 0.011 l 0.01,0.011 0.01,0.012 v 0.012 0.013 l 0.0101,0.013 v 0.013 0.80185 h -0.27062 v -0.80185 l 0.13029,0.13331 z m 0.14032,1.73799 v 0.80185 H 148.759 v -0.80185 z m 0,1.60369 v 0.80184 H 148.759 v -0.80184 z m 0,1.60369 v 0.80184 H 148.759 v -0.80184 z m 0,1.60368 V 130.048 H 148.759 v -0.80184 z m 0,1.60369 v 0.80184 H 148.759 v -0.80184 z m 0,1.60369 v 0.80183 H 148.759 v -0.80183 z m 0,1.60368 v 0.80184 H 148.759 v -0.80184 z m 0,1.60369 v 0.80184 H 148.759 v -0.80184 z m 0,1.60368 v 0.80185 H 148.759 v -0.80185 z m 0,1.60369 v 0.80185 H 148.759 v -0.80185 z m 0,1.60368 v 0.80185 H 148.759 v -0.80185 z m 0,1.60369 v 0.013 l -0.01,0.013 v 0.012 0.013 l -0.01,0.012 -0.01,0.011 v 0.01 l -0.01,0.0101 -0.0101,0.009 -0.01,0.008 -0.01,0.006 -0.0201,0.006 -0.01,0.004 -0.0101,0.004 -0.01,9.8e-4 -0.0201,9.9e-4 h -0.80181 v -0.26762 h 0.80182 l -0.13029,0.13431 z m -1.74395,0.13331 h -0.80182 v -0.26762 h 0.80182 z m -1.60363,0 h -0.80181 v -0.26762 h 0.80181 z m -1.60363,0 h -0.80181 v -0.26762 h 0.80181 z m -1.60362,0 h -0.80182 v -0.26762 h 0.80182 z m -1.60363,0 h -0.80182 v -0.26762 h 0.80182 z m -1.60363,0 h -0.80182 v -0.26762 h 0.80182 z m -1.60364,0 h -0.80181 v -0.26762 h 0.80181 z m -1.60362,0 h -0.80182 v -0.26762 h 0.80182 z m -1.60363,0 h -0.80181 v -0.26762 h 0.80181 z m -1.60363,0 h -0.80181 v -0.26762 h 0.80181 z m -1.60363,0 h -0.80181 v -0.26762 h 0.80181 z m -1.60363,0 -0.01,-9.9e-4 -0.01,-9.8e-4 -0.02,-0.004 -0.0101,-0.004 -0.01,-0.006 -0.01,-0.006 -0.0101,-0.008 -0.01,-0.009 -0.0101,-0.01 -0.01,-0.01 v -0.011 l -0.01,-0.012 v -0.013 l -0.0101,-0.012 v -0.013 -0.013 -0.80185 h 0.27062 v 0.80185 l -0.14032,-0.13431 z m -0.13029,-1.737 v -0.80183 h 0.27061 v 0.80183 z m 0,-1.60368 v -0.80184 h 0.27061 v 0.80184 z m 0,-1.60369 v -0.80184 h 0.27061 v 0.80184 z m 0,-1.60368 v -0.80185 h 0.27061 v 0.80185 z m 0,-1.60369 v -0.80185 h 0.27061 v 0.80185 z m 0,-1.60368 v -0.80185 h 0.27061 v 0.80185 z m 0,-1.60369 V 130.048 h 0.27061 v 0.80185 z m 0,-1.60369 v -0.80184 h 0.27061 v 0.80184 z m 0,-1.60368 v -0.80185 h 0.27061 v 0.80185 z m 0,-1.60369 v -0.80184 h 0.27061 v 0.80184 z m 0,-1.60369 v -0.80184 h 0.27061 v 0.80184 z m 0,-1.60369 v -0.013 -0.013 l 0.0101,-0.013 v -0.012 l 0.01,-0.012 v -0.011 l 0.01,-0.011 0.0101,-0.0101 0.01,-0.008 0.01,-0.008 0.0101,-0.007 0.01,-0.005 0.01,-0.005 0.0201,-0.003 0.01,-0.002 0.0101,-9.8e-4 h 0.80181 v 0.26762 h -0.80181 l 0.14031,-0.13331 z"
       id="path7130"
       style="stroke-width:0.100228" />
    <path
       fill="#ff0000"
       fill-opacity="1"
       stroke-linejoin="round"
       d="m 142.78826,147.63302 0.36501,0.057 0.48309,0.12347 -0.0537,0.28128 -0.4831,-0.12455 -0.34353,-0.0515 z m 1.68544,0.43051 0.63339,0.23188 0.1825,0.0859 -0.11809,0.26411 -0.17177,-0.0859 -0.61191,-0.22223 z m 1.59958,0.7021 0.72999,0.44554 -0.13955,0.25229 -0.73,-0.44661 z m 1.43854,0.96192 0.16101,0.12562 0.49384,0.44552 -0.18251,0.22117 -0.49382,-0.44661 -0.13957,-0.10843 z m 1.26676,1.19489 0.31132,0.33925 0.24692,0.33173 -0.22544,0.18144 -0.24692,-0.33065 -0.28985,-0.31994 z m 1.05207,1.38491 0.37573,0.61193 0.0645,0.14064 -0.24691,0.13743 -0.0751,-0.14172 -0.35428,-0.58832 z m 0.81588,1.53949 0.30058,0.80734 -0.26838,0.11165 -0.28986,-0.80734 z m 0.52602,1.64902 0.0752,0.28341 0.0859,0.5733 -0.27912,0.0569 -0.0859,-0.57222 -0.0645,-0.25658 z m 0.25765,1.72416 0.0321,0.65487 -0.0107,0.21687 h -0.28985 l 0.0107,-0.21687 -0.0322,-0.62589 z m -0.0322,1.74455 -0.12881,0.84812 -0.27913,-0.028 0.12883,-0.84919 z m -0.33279,1.69732 -0.0752,0.30381 -0.19324,0.52606 -0.26838,-0.0859 0.19324,-0.52497 0.0645,-0.27592 z m -0.60118,1.63289 -0.25764,0.53571 -0.1503,0.23833 -0.24691,-0.13634 0.13955,-0.2394 0.24691,-0.50887 z m -0.86956,1.51159 -0.50456,0.68065 -0.0214,0.0172 -0.2147,-0.18251 0.0107,-0.0162 0.49382,-0.65917 z m -1.10574,1.33338 -0.0751,0.0859 -0.55824,0.50888 -0.20396,-0.20291 0.55823,-0.50887 0.0645,-0.0654 z m -1.32044,1.13477 -0.28985,0.22008 -0.42942,0.26194 -0.16104,-0.23724 0.42942,-0.26196 0.26839,-0.20399 z m -1.48149,0.90393 -0.5797,0.27484 -0.22545,0.0816 -0.10734,-0.26303 0.22543,-0.0827 0.54751,-0.26302 z m -1.62103,0.64845 -0.83734,0.21364 -0.0859,-0.27376 0.83735,-0.21364 z m -1.69618,0.35212 -0.24691,0.0376 -0.62264,0.0321 -0.0322,-0.28556 0.63338,-0.0311 0.2147,-0.0332 z m -1.73913,0.0698 -0.63338,-0.0321 -0.23617,-0.0365 0.0215,-0.28558 0.24691,0.0376 0.60118,0.0301 z m -1.72838,-0.20828 -0.83736,-0.21363 0.0537,-0.2802 0.83736,0.21363 z m -1.66398,-0.50457 -0.22544,-0.0827 -0.56898,-0.27484 0.1181,-0.26302 0.56897,0.27377 0.19324,0.0729 z m -1.55662,-0.77834 -0.42941,-0.26303 -0.28985,-0.21901 0.15028,-0.23725 0.3006,0.21901 0.40795,0.24906 z m -1.40632,-1.02311 -0.55825,-0.50888 -0.0859,-0.0858 0.204,-0.20183 0.0859,0.0848 0.53675,0.4917 z m -1.21309,-1.23031 -0.0215,-0.0173 -0.50457,-0.67956 0.21472,-0.18251 0.51529,0.68064 -0.0108,-0.003 z m -0.99839,-1.43429 -0.13956,-0.23942 -0.25766,-0.53356 0.24692,-0.13741 0.25765,0.53356 0.13955,0.2158 z m -0.73001,-1.57708 -0.19323,-0.52713 -0.0859,-0.30166 0.27911,-0.0859 0.0752,0.30276 0.1825,0.50027 z m -0.47236,-1.67799 -0.13955,-0.8492 0.28985,-0.0569 0.12883,0.84921 z m -0.18249,-1.72094 -0.0108,-0.21901 0.0321,-0.65273 h 0.28987 l -0.0323,0.65273 0.0107,0.19003 z m 0.11809,-1.73919 0.0859,-0.57543 0.0645,-0.28235 0.28985,0.0569 -0.0752,0.28343 -0.0859,0.54644 z m 0.38646,-1.69946 0.28985,-0.80625 0.27913,0.0848 -0.30058,0.80625 z m 0.67634,-1.59425 0.0645,-0.14172 0.365,-0.61086 0.25764,0.13634 -0.37573,0.61087 -0.0537,0.11702 z m 0.93396,-1.46757 0.24692,-0.33175 0.31133,-0.33924 0.2147,0.18251 -0.30058,0.33925 -0.23618,0.31027 z m 1.17016,-1.29366 0.48309,-0.4466 0.17176,-0.12454 0.18251,0.22008 -0.17178,0.12454 -0.47234,0.42836 z m 1.35265,-1.08753 0.74074,-0.4466 0.16104,0.23726 -0.74075,0.4466 z m 1.52442,-0.82986 0.17176,-0.087 0.63339,-0.23081 0.11809,0.26302 -0.63339,0.23189 -0.16103,0.074 z m 1.64249,-0.56791 0.4831,-0.12455 0.37574,-0.0558 0.0537,0.2802 -0.365,0.0558 -0.46163,0.11703 z m 1.71767,-0.29202 0.85882,-0.044 0.85882,0.044 v 0.28557 l -0.85882,-0.0429 -0.82662,0.0419 z"
       id="path7132"
       style="stroke-width:0.107355" />
    <g
       id="g7418"
       transform="matrix(-0.09362576,0,0,0.10023039,2764.1842,-87.797565)"
       style="stroke-width:1.03229;stroke-dasharray:none">
      <path
         fill="#ffffff"
         fill-opacity="1"
         stroke-width="0.2"
         stroke-linejoin="round"
         d="m 28037.3,2374.01 c 17.7,0 32,14.32 32,32 0,17.67 -14.3,32 -32,32 -17.6,0 -32,-14.33 -32,-32 0,-17.68 14.4,-32 32,-32 z"
         id="path7412"
         style="stroke-width:1.03229;stroke-dasharray:none" />
      <text
         transform="matrix(-1,0,0,1,28053,2422)"
         xml:space="preserve"
         id="text7416"
         style="stroke-width:1.03229;stroke-dasharray:none"><tspan
   style="font-size:48px;font-family:'メイリオ';stroke-width:1.03229;stroke-dasharray:none"
   letter-spacing="0em"
   fill="#ff0000"
   fill-opacity="1"
   stroke-width="8"
   stroke-linejoin="round"
   stroke="#ff0000"
   stroke-opacity="1"
   id="tspan7414">X</tspan>		</text>
    </g>
    <g
       id="g6788"
       transform="matrix(0.10022681,0,0,0.10023039,-2607.1758,-86.207358)"
       inkscape:transform-center-x="8.7930484"
       inkscape:transform-center-y="-67.890513">
      <path
         fill="#ffffff"
         fill-opacity="1"
         stroke-width="0.2"
         stroke-linejoin="round"
         d="m 27091.3,2150.01 c -17.6,0 -32,14.32 -32,32 0,17.67 14.4,32 32,32 17.7,0 32,-14.33 32,-32 0,-17.68 -14.3,-32 -32,-32 z"
         id="path6782" />
      <text
         transform="matrix(-1,0,0,1,27107,2199)"
         xml:space="preserve"
         id="text6786"> <tspan
   style="font-size:48px;font-family:'メイリオ'"
   letter-spacing="0em"
   fill="#000000"
   fill-opacity="1"
   stroke-width="0.2"
   stroke-linejoin="round"
   id="tspan6784">X </tspan>		</text>
    </g>
    <g
       id="g6796"
       transform="matrix(0.10022681,0,0,0.10023039,-2600.9233,-91.417976)"
       inkscape:transform-center-x="8.7930484"
       inkscape:transform-center-y="-67.890513">
      <path
         fill="#ffffff"
         fill-opacity="1"
         stroke-width="0.2"
         stroke-linejoin="round"
         d="m 27091.3,2150.01 c -17.6,0 -32,14.32 -32,32 0,17.67 14.4,32 32,32 17.7,0 32,-14.33 32,-32 0,-17.68 -14.3,-32 -32,-32 z"
         id="path6790" />
      <text
         transform="matrix(-1,0,0,1,27107,2199)"
         xml:space="preserve"
         id="text6794"> <tspan
   style="font-size:48px;font-family:'メイリオ'"
   letter-spacing="0em"
   fill="#000000"
   fill-opacity="1"
   stroke-width="0.2"
   stroke-linejoin="round"
   id="tspan6792">X </tspan>		</text>
    </g>
    <g
       id="g6804"
       transform="matrix(0.10022681,0,0,0.10023039,-2580.1521,-86.075734)"
       inkscape:transform-center-x="8.7930484"
       inkscape:transform-center-y="-67.890513">
      <path
         fill="#ffffff"
         fill-opacity="1"
         stroke-width="0.2"
         stroke-linejoin="round"
         d="m 27091.3,2150.01 c -17.6,0 -32,14.32 -32,32 0,17.67 14.4,32 32,32 17.7,0 32,-14.33 32,-32 0,-17.68 -14.3,-32 -32,-32 z"
         id="path6798" />
      <text
         transform="matrix(-1,0,0,1,27107,2199)"
         xml:space="preserve"
         id="text6802"> <tspan
   style="font-size:48px;font-family:'メイリオ'"
   letter-spacing="0em"
   fill="#000000"
   fill-opacity="1"
   stroke-width="0.2"
   stroke-linejoin="round"
   id="tspan6800">X </tspan>		</text>
    </g>
    <g
       id="g6812"
       transform="matrix(0.10022681,0,0,0.10023039,-2569.2102,-86.075734)"
       inkscape:transform-center-x="8.7930484"
       inkscape:transform-center-y="-67.890513">
      <path
         fill="#ffffff"
         fill-opacity="1"
         stroke-width="0.2"
         stroke-linejoin="round"
         d="m 27091.3,2150.01 c -17.6,0 -32,14.32 -32,32 0,17.67 14.4,32 32,32 17.7,0 32,-14.33 32,-32 0,-17.68 -14.3,-32 -32,-32 z"
         id="path6806" />
      <text
         transform="matrix(-1,0,0,1,27107,2199)"
         xml:space="preserve"
         id="text6810"> <tspan
   style="font-size:48px;font-family:'メイリオ'"
   letter-spacing="0em"
   fill="#000000"
   fill-opacity="1"
   stroke-width="0.2"
   stroke-linejoin="round"
   id="tspan6808">X </tspan>		</text>
    </g>
    <g
       id="g6820"
       transform="matrix(0.10022681,0,0,0.10023039,-2575.7113,-80.408844)"
       inkscape:transform-center-x="8.7930484"
       inkscape:transform-center-y="-67.890513">
      <path
         fill="#ffffff"
         fill-opacity="1"
         stroke-width="0.2"
         stroke-linejoin="round"
         d="m 27091.3,2150.01 c -17.6,0 -32,14.32 -32,32 0,17.67 14.4,32 32,32 17.7,0 32,-14.33 32,-32 0,-17.68 -14.3,-32 -32,-32 z"
         id="path6814" />
      <text
         transform="matrix(-1,0,0,1,27107,2199)"
         xml:space="preserve"
         id="text6818"> <tspan
   style="font-size:48px;font-family:'メイリオ'"
   letter-spacing="0em"
   fill="#000000"
   fill-opacity="1"
   stroke-width="0.2"
   stroke-linejoin="round"
   id="tspan6816">X </tspan>		</text>
    </g>
    <g
       id="g6828"
       transform="matrix(0.10022681,0,0,0.10023039,-2601.2503,-56.969168)"
       inkscape:transform-center-x="8.7930484"
       inkscape:transform-center-y="-67.890513">
      <path
         fill="#ffffff"
         fill-opacity="1"
         stroke-width="0.2"
         stroke-linejoin="round"
         d="m 27091.3,2150.01 c -17.6,0 -32,14.32 -32,32 0,17.67 14.4,32 32,32 17.7,0 32,-14.33 32,-32 0,-17.68 -14.3,-32 -32,-32 z"
         id="path6822" />
      <text
         transform="matrix(-1,0,0,1,27107,2199)"
         xml:space="preserve"
         id="text6826"> <tspan
   style="font-size:48px;font-family:'メイリオ'"
   letter-spacing="0em"
   fill="#000000"
   fill-opacity="1"
   stroke-width="0.2"
   stroke-linejoin="round"
   id="tspan6824">X </tspan>		</text>
    </g>
    <g
       id="g6836"
       transform="matrix(0.10022681,0,0,0.10023039,-2575.3921,-57.027895)"
       inkscape:transform-center-x="8.7930484"
       inkscape:transform-center-y="-67.890513">
      <path
         fill="#ffffff"
         fill-opacity="1"
         stroke-width="0.2"
         stroke-linejoin="round"
         d="m 27091.3,2150.01 c -17.6,0 -32,14.32 -32,32 0,17.67 14.4,32 32,32 17.7,0 32,-14.33 32,-32 0,-17.68 -14.3,-32 -32,-32 z"
         id="path6830" />
      <text
         transform="matrix(-1,0,0,1,27107,2199)"
         xml:space="preserve"
         id="text6834"> <tspan
   style="font-size:48px;font-family:'メイリオ'"
   letter-spacing="0em"
   fill="#000000"
   fill-opacity="1"
   stroke-width="0.2"
   stroke-linejoin="round"
   id="tspan6832">X </tspan>		</text>
    </g>
    <g
       id="g6852"
       transform="matrix(-0.09508545,0,0,0.10178942,2834.8756,-91.977196)"
       style="stroke-width:1.01646;stroke-dasharray:none">
      <path
         fill="#ffffff"
         fill-opacity="1"
         stroke-width="0.2"
         stroke-linejoin="round"
         d="m 28037.3,2374.01 c 17.7,0 32,14.32 32,32 0,17.67 -14.3,32 -32,32 -17.6,0 -32,-14.33 -32,-32 0,-17.68 14.4,-32 32,-32 z"
         id="path6846"
         style="stroke-width:1.01646;stroke-dasharray:none" />
      <text
         transform="matrix(-1,0,0,1,28053,2422)"
         xml:space="preserve"
         id="text6850"
         style="stroke-width:1.01646;stroke-dasharray:none"><tspan
   style="font-size:48px;font-family:'メイリオ';stroke-width:1.01646;stroke-dasharray:none"
   letter-spacing="0em"
   fill="#ff0000"
   fill-opacity="1"
   stroke-width="8"
   stroke-linejoin="round"
   stroke="#ff0000"
   stroke-opacity="1"
   id="tspan6848">X</tspan>		</text>
    </g>
  </g>
</svg>
