<?xml version="1.0" encoding="UTF-8" standalone="no"?>
<!-- Created with Inkscape (http://www.inkscape.org/) -->

<svg
   width="203.42163mm"
   height="62.73716mm"
   viewBox="0 0 203.42163 62.73716"
   version="1.1"
   id="svg3843"
   inkscape:version="1.2.2 (732a01da63, 2022-12-09)"
   sodipodi:docname="image37.svg"
   xmlns:inkscape="http://www.inkscape.org/namespaces/inkscape"
   xmlns:sodipodi="http://sodipodi.sourceforge.net/DTD/sodipodi-0.dtd"
   xmlns="http://www.w3.org/2000/svg"
   xmlns:svg="http://www.w3.org/2000/svg">
  <sodipodi:namedview
     id="namedview3845"
     pagecolor="#ffffff"
     bordercolor="#000000"
     borderopacity="0.25"
     inkscape:showpageshadow="2"
     inkscape:pageopacity="0.0"
     inkscape:pagecheckerboard="0"
     inkscape:deskcolor="#d1d1d1"
     inkscape:document-units="mm"
     showgrid="true"
     inkscape:zoom="1.2938725"
     inkscape:cx="518.98468"
     inkscape:cy="597.81779"
     inkscape:window-width="1912"
     inkscape:window-height="1466"
     inkscape:window-x="1404"
     inkscape:window-y="197"
     inkscape:window-maximized="0"
     inkscape:current-layer="layer1">
    <inkscape:grid
       type="xygrid"
       id="grid6155"
       originx="-37.011001"
       originy="-290.74617"
       spacingy="1"
       spacingx="1"
       units="mm"
       visible="true" />
  </sodipodi:namedview>
  <defs
     id="defs3840" />
  <g
     inkscape:label="Layer 1"
     inkscape:groupmode="layer"
     id="layer1"
     transform="translate(-37.011001,-290.74616)">
    <text
       xml:space="preserve"
       id="text8984"
       x="97.770401"
       y="352.91922"
       style="font-size:1.22147px;stroke-width:0.101789"
       inkscape:export-filename="img37d.svg"
       inkscape:export-xdpi="96"
       inkscape:export-ydpi="96">			 <tspan
   style="font-size:3.80014px;font-family:'メイリオ'"
   letter-spacing="0em"
   fill="#000000"
   fill-opacity="1"
   stroke-width="0.0203579"
   stroke-linejoin="round"
   id="tspan8982">Finned Cannibalistics  F/M Fish</tspan>		</text>
    <line
       fill="none"
       stroke-width="0.814315"
       stroke-linejoin="round"
       stroke="#5e5e5e"
       stroke-opacity="1"
       x1="175.26054"
       y1="300.62451"
       x2="165.48875"
       y2="300.62451"
       id="line8986" />
    <text
       xml:space="preserve"
       id="text8994"
       x="178.50255"
       y="302.15033"
       style="font-size:1.22147px;stroke-width:0.101789">			 <tspan
   style="font-size:4.88589px;font-family:'メイリオ'"
   letter-spacing="0em"
   fill="#000000"
   fill-opacity="1"
   stroke-width="0.0203579"
   stroke-linejoin="round"
   id="tspan8992">BaseSet</tspan>		</text>
    <path
       fill="#000000"
       fill-opacity="1"
       stroke-linejoin="round"
       d="m 173.63191,307.4458 h -0.81431 v -0.27177 h 0.81431 z m -1.62863,0 h -0.81432 v -0.27177 h 0.81432 z m -1.62863,0 h -0.81432 v -0.27177 h 0.81432 z m -1.62863,0 h -0.81432 v -0.27177 h 0.81432 z m -1.62863,0 h -0.81432 v -0.27177 h 0.81432 z m -1.62863,0 v -0.27177 z m 9.77178,0 h -0.81431 v -0.27177 h 0.81431 z"
       id="path8990"
       style="stroke-width:0.101789" />
    <text
       xml:space="preserve"
       id="text8998"
       x="178.50255"
       y="309.17395"
       style="font-size:1.22147px;stroke-width:0.101789">			 <tspan
   style="font-size:4.88589px;font-family:'メイリオ'"
   letter-spacing="0em"
   fill="#000000"
   fill-opacity="1"
   stroke-width="0.0203579"
   stroke-linejoin="round"
   id="tspan8996">CoverSet</tspan>		</text>
    <rect
       x="37.144642"
       y="290.87979"
       fill="#ffffff"
       fill-opacity="1"
       stroke-width="0.267281"
       stroke-linejoin="round"
       stroke="#000000"
       stroke-opacity="1"
       width="57.732719"
       height="57.732719"
       id="rect9024" />
    <line
       fill="none"
       stroke-width="0.801843"
       stroke-linejoin="round"
       stroke="#5e5e5e"
       stroke-opacity="1"
       x1="82.047874"
       y1="290.87979"
       x2="82.047874"
       y2="348.61252"
       id="line9026" />
    <path
       fill="#000000"
       fill-opacity="1"
       stroke-linejoin="round"
       d="M 93.350653,309.83012 H 92.54881 v -0.26762 h 0.801843 z m -1.603686,0 h -0.801844 v -0.26762 h 0.801844 z m -1.603686,0 h -0.801843 v -0.26762 h 0.801843 z m -1.603687,0 h -0.801843 v -0.26762 h 0.801843 z m -1.603686,0 h -0.801843 v -0.26762 h 0.801843 z m -1.603686,0 h -0.801843 v -0.26762 h 0.801843 z m -1.603687,0 h -0.801843 v -0.26762 h 0.801843 z m -1.603687,0 h -0.801843 v -0.26762 h 0.801843 z m -1.603686,0 h -0.801844 v -0.26762 h 0.801844 z m -1.603687,0 h -0.801843 v -0.26762 h 0.801843 z m -1.603687,0 h -0.801843 v -0.26762 h 0.801843 z m -1.603686,0 h -0.801844 v -0.26762 h 0.801844 z m -1.603687,0 h -0.801844 v -0.26762 h 0.801844 z m -1.603687,0 h -0.801843 v -0.26762 h 0.801843 z m -1.603687,0 h -0.801843 v -0.26762 h 0.801843 z m -1.603686,0 h -0.801844 v -0.26762 h 0.801844 z m -1.603687,0 h -0.801843 v -0.26762 h 0.801843 z m -1.603687,0 h -0.801843 v -0.26762 h 0.801843 z m -1.603686,0 h -0.801844 v -0.26762 h 0.801844 z m -1.603687,0 h -0.801844 v -0.26762 h 0.801844 z m -1.603687,0 h -0.801843 v -0.26762 h 0.801843 z m -1.603686,0 h -0.801842 v -0.26762 h 0.801842 z m -1.603685,0 h -0.801844 v -0.26762 h 0.801844 z m -1.603687,0 H 55.66402 v -0.26762 h 0.801843 z m -1.603687,0 h -0.801843 v -0.26762 h 0.801843 z m -1.603687,0 h -0.801843 v -0.26762 h 0.801843 z m -1.603686,0 h -0.801844 v -0.26762 h 0.801844 z m -1.603687,0 h -0.801843 v -0.26762 h 0.801843 z m -1.603687,0 h -0.801843 v -0.26762 h 0.801843 z m -1.603686,0 h -0.801844 v -0.26762 h 0.801844 z m -1.603687,0 h -0.801843 v -0.26762 h 0.801843 z m -1.603687,0 h -0.801843 v -0.26762 h 0.801843 z m -1.603687,0 h -0.801843 v -0.26762 h 0.801843 z m -1.603686,0 h -0.801844 v -0.26762 h 0.801844 z m -1.603687,0 h -0.801843 v -0.26762 h 0.801843 z m -1.603687,0 v -0.26762 z m 57.732718,0 h -0.801843 v -0.26762 h 0.801843 z"
       id="path9030"
       style="stroke-width:0.10023" />
    <line
       fill="none"
       stroke-width="0.801843"
       stroke-linejoin="round"
       stroke="#5e5e5e"
       stroke-opacity="1"
       x1="75.633133"
       y1="290.87979"
       x2="75.633133"
       y2="348.61252"
       id="line9032" />
    <path
       fill="#000000"
       fill-opacity="1"
       stroke-linejoin="round"
       d="m 70.821979,297.16025 h 0.801844 v 0.26762 h -0.801844 z m 1.603687,0 h 0.801843 v 0.26762 h -0.801843 z m 1.603687,0 h 0.801843 v 0.26762 h -0.801843 z m 1.603687,0 h 0.801843 v 0.26762 H 75.63304 Z m 1.603686,0 h 0.801844 v 0.26762 h -0.801844 z m 1.603687,0 h 0.801843 v 0.26762 h -0.801843 z m 1.603687,0 h 0.801843 v 0.26762 H 80.4441 Z m 1.603686,0 h 0.801844 v 0.26762 h -0.801844 z m 1.603687,0 h 0.801844 v 0.26762 h -0.801844 z m 1.603687,0 h 0.801843 v 0.26762 H 85.25516 Z m 1.603686,0 h 0.801843 v 0.26762 h -0.801843 z m 1.603686,0 v 0 l 0.02005,9.9e-4 0.01002,0.002 0.01002,0.003 0.01002,0.005 0.02005,0.005 0.01002,0.007 0.01002,0.008 0.01002,0.008 0.01002,0.01 v 0.011 l 0.01002,0.011 0.01002,0.012 v 0.012 0.013 l 0.01002,0.013 v 0.013 0.80184 h -0.270623 v -0.80184 l 0.130299,0.13331 v 0 z m 0.140324,1.738 v 0.80184 h -0.270623 v -0.80184 z m 0,1.60369 v 0.80184 h -0.270623 v -0.80184 z m 0,1.60368 v 0.80184 h -0.270623 v -0.80184 z m 0,1.60368 v 0.80184 h -0.270623 v -0.80184 z m 0,1.60369 v 0.80184 h -0.270623 v -0.80184 z m 0,1.60369 v 0.80185 h -0.270623 v -0.80185 z m 0,1.60369 v 0.80185 h -0.270623 v -0.80185 z m 0,1.60368 v 0.80185 h -0.270623 v -0.80185 z m 0,1.60369 v 0.80184 h -0.270623 v -0.80184 z m 0,1.60368 v 0.80185 h -0.270623 v -0.80185 z m 0,1.60369 v 0.80185 h -0.270623 v -0.80185 z m 0,1.60368 v 0 0.013 l -0.01002,0.013 v 0.013 0.012 l -0.01002,0.012 -0.01002,0.011 v 0.01 l -0.01002,0.01 -0.01002,0.009 -0.01002,0.008 -0.01002,0.006 -0.02005,0.006 -0.01002,0.004 -0.01002,0.004 -0.01002,0.002 h -0.02005 -0.801843 v -0.26661 h 0.801843 l -0.1303,0.1333 v 0 z m -1.74401,0.13331 h -0.801843 v -0.26661 h 0.801843 z m -1.603686,0 h -0.801843 v -0.26661 h 0.801843 z m -1.603687,0 H 82.84963 v -0.26661 h 0.801843 z m -1.603687,0 h -0.801843 v -0.26661 h 0.801843 z m -1.603686,0 h -0.801844 v -0.26661 H 80.4441 Z m -1.603687,0 H 78.03857 v -0.26661 h 0.801843 z m -1.603687,0 h -0.801843 v -0.26661 h 0.801843 z m -1.603686,0 h -0.801844 v -0.26661 h 0.801844 z m -1.603687,0 h -0.801844 v -0.26661 h 0.801844 z m -1.603687,0 h -0.801843 v -0.26661 h 0.801843 z m -1.603687,0 h -0.801843 v -0.26661 h 0.801843 z m -1.603686,0 v 0 h -0.01002 l -0.01002,-0.002 -0.02005,-0.004 -0.01002,-0.004 -0.01002,-0.006 -0.01002,-0.006 -0.01002,-0.008 -0.01002,-0.009 -0.01002,-0.01 -0.01002,-0.0101 v -0.011 l -0.01002,-0.012 v -0.012 l -0.01002,-0.013 v -0.013 -0.013 -0.80183 h 0.270623 v 0.80183 l -0.140323,-0.1333 v 0 z m -0.1303,-1.73699 v -0.80184 h 0.270622 v 0.80184 z m 0,-1.60369 v -0.80184 h 0.270622 v 0.80184 z m 0,-1.60368 v -0.80184 h 0.270622 v 0.80184 z m 0,-1.60369 v -0.80183 h 0.270622 v 0.80183 z m 0,-1.60368 v -0.80184 h 0.270622 v 0.80184 z m 0,-1.60369 v -0.80185 h 0.270622 v 0.80185 z m 0,-1.60369 v -0.80185 h 0.270622 v 0.80185 z m 0,-1.60369 v -0.80184 h 0.270622 v 0.80184 z m 0,-1.60368 v -0.80184 h 0.270622 v 0.80184 z m 0,-1.60368 v -0.80185 h 0.270622 v 0.80185 z m 0,-1.60369 v -0.80185 h 0.270622 v 0.80185 z m 0,-1.60369 v 0 -0.013 -0.013 l 0.01002,-0.013 v -0.012 l 0.01002,-0.012 v -0.011 l 0.01002,-0.011 0.01002,-0.01 0.01002,-0.008 0.01002,-0.008 0.01002,-0.007 0.01002,-0.005 0.01002,-0.005 0.02005,-0.003 0.01002,-0.002 0.01002,-9.9e-4 h 0.801843 v 0.26762 h -0.801843 l 0.140322,-0.13331 v 0 z"
       id="path9074"
       style="stroke-width:0.10023" />
    <rect
       x="43.559387"
       y="297.29456"
       fill="none"
       stroke-width="0.801843"
       stroke-linejoin="round"
       stroke="#000000"
       stroke-opacity="1"
       width="19.24404"
       height="19.24424"
       id="rect9092" />
    <path
       fill="#000000"
       fill-opacity="1"
       stroke-linejoin="round"
       d="m 70.821979,322.81924 h 0.801844 v 0.26762 h -0.801844 z m 1.603687,0 h 0.801843 v 0.26762 h -0.801843 z m 1.603687,0 h 0.801843 v 0.26762 h -0.801843 z m 1.603687,0 h 0.801843 v 0.26762 H 75.63304 Z m 1.603686,0 h 0.801844 v 0.26762 h -0.801844 z m 1.603687,0 h 0.801843 v 0.26762 h -0.801843 z m 1.603687,0 h 0.801843 v 0.26762 H 80.4441 Z m 1.603686,0 h 0.801844 v 0.26762 h -0.801844 z m 1.603687,0 h 0.801844 v 0.26762 h -0.801844 z m 1.603687,0 h 0.801843 v 0.26762 H 85.25516 Z m 1.603686,0 h 0.801843 v 0.26762 h -0.801843 z m 1.603686,0 v 0 l 0.02005,9.8e-4 0.01002,0.002 0.01002,0.003 0.01002,0.005 0.02005,0.005 0.01002,0.007 0.01002,0.008 0.01002,0.008 0.01002,0.01 v 0.011 l 0.01002,0.011 0.01002,0.012 v 0.012 0.013 l 0.01002,0.013 v 0.013 0.80183 h -0.270623 v -0.80183 l 0.130299,0.1333 v 0 z m 0.140324,1.73799 v 0.80184 h -0.270623 v -0.80184 z m 0,1.60369 v 0.80184 h -0.270623 v -0.80184 z m 0,1.60369 v 0.80184 h -0.270623 v -0.80184 z m 0,1.60369 v 0.80184 h -0.270623 v -0.80184 z m 0,1.60368 v 0.80184 h -0.270623 v -0.80184 z m 0,1.60368 v 0.80185 h -0.270623 v -0.80185 z m 0,1.60369 v 0.80185 h -0.270623 v -0.80185 z m 0,1.60369 v 0.80184 h -0.270623 v -0.80184 z m 0,1.60368 v 0.80185 h -0.270623 v -0.80185 z m 0,1.60369 v 0.80185 h -0.270623 v -0.80185 z m 0,1.6037 v 0.80183 h -0.270623 v -0.80183 z m 0,1.60368 v 0 0.013 l -0.01002,0.013 v 0.013 0.012 l -0.01002,0.012 -0.01002,0.011 v 0.01 l -0.01002,0.0101 -0.01002,0.009 -0.01002,0.008 -0.01002,0.007 -0.02005,0.005 -0.01002,0.005 -0.01002,0.003 -0.01002,0.002 h -0.02005 -0.801843 v -0.26662 h 0.801843 l -0.1303,0.13332 v 0 z m -1.74401,0.13331 h -0.801843 v -0.26662 h 0.801843 z m -1.603686,0 h -0.801843 v -0.26662 h 0.801843 z m -1.603687,0 H 82.84963 v -0.26662 h 0.801843 z m -1.603687,0 h -0.801843 v -0.26662 h 0.801843 z m -1.603686,0 h -0.801844 v -0.26662 H 80.4441 Z m -1.603687,0 H 78.03857 v -0.26662 h 0.801843 z m -1.603687,0 h -0.801843 v -0.26662 h 0.801843 z m -1.603686,0 h -0.801844 v -0.26662 h 0.801844 z m -1.603687,0 h -0.801844 v -0.26662 h 0.801844 z m -1.603687,0 h -0.801843 v -0.26662 h 0.801843 z m -1.603687,0 h -0.801843 v -0.26662 h 0.801843 z m -1.603686,0 v 0 h -0.01002 l -0.01002,-0.002 -0.02005,-0.003 -0.01002,-0.005 -0.01002,-0.005 -0.01002,-0.007 -0.01002,-0.008 -0.01002,-0.009 -0.01002,-0.01 -0.01002,-0.01 v -0.011 l -0.01002,-0.012 v -0.012 l -0.01002,-0.013 v -0.013 -0.013 -0.80185 h 0.270623 v 0.80185 l -0.140323,-0.13331 v 0 z m -0.1303,-1.73699 v -0.80185 h 0.270622 v 0.80185 z m 0,-1.6037 v -0.80184 h 0.270622 v 0.80184 z m 0,-1.60369 v -0.80184 h 0.270622 v 0.80184 z m 0,-1.60368 v -0.80184 h 0.270622 v 0.80184 z m 0,-1.60369 v -0.80184 h 0.270622 v 0.80184 z m 0,-1.60369 v -0.80184 h 0.270622 v 0.80184 z m 0,-1.60368 v -0.80184 h 0.270622 v 0.80184 z m 0,-1.60368 v -0.80185 h 0.270622 v 0.80185 z m 0,-1.60369 v -0.80185 h 0.270622 v 0.80185 z m 0,-1.60369 v -0.80185 h 0.270622 v 0.80185 z m 0,-1.60369 v -0.80185 h 0.270622 v 0.80185 z m 0,-1.60368 v 0 -0.013 -0.013 l 0.01002,-0.013 v -0.012 l 0.01002,-0.012 v -0.011 l 0.01002,-0.011 0.01002,-0.01 0.01002,-0.008 0.01002,-0.008 0.01002,-0.007 0.01002,-0.005 0.01002,-0.005 0.02005,-0.003 0.01002,-0.002 0.01002,-9.8e-4 h 0.801843 v 0.26761 h -0.801843 l 0.140322,-0.1333 v 0 z"
       id="path9094"
       style="stroke-width:0.10023" />
    <text
       xml:space="preserve"
       id="text9098"
       x="39.234726"
       y="352.6998"
       style="font-size:1.22147px;stroke-width:0.101789">			 <tspan
   style="font-size:3.80014px;font-family:'メイリオ'"
   letter-spacing="0em"
   fill="#000000"
   fill-opacity="1"
   stroke-width="0.0203579"
   stroke-linejoin="round"
   id="tspan9096">Cannibalistics  F/M Fish</tspan>		</text>
    <rect
       x="100.57277"
       y="291.04166"
       fill="#ffffff"
       fill-opacity="1"
       stroke-width="0.267281"
       stroke-linejoin="round"
       stroke="#000000"
       stroke-opacity="1"
       width="57.732719"
       height="57.732719"
       id="rect9100" />
    <line
       fill="none"
       stroke-width="0.801843"
       stroke-linejoin="round"
       stroke="#5e5e5e"
       stroke-opacity="1"
       x1="110.19492"
       y1="291.04166"
       x2="110.19492"
       y2="348.77435"
       id="line9102" />
    <path
       fill="#000000"
       fill-opacity="1"
       stroke-linejoin="round"
       d="m 156.98943,329.67084 h -0.80184 v -0.26762 h 0.80184 z m -1.60369,0 h -0.80184 v -0.26762 h 0.80184 z m -1.60369,0 h -0.80184 v -0.26762 h 0.80184 z m -1.60367,0 h -0.80184 v -0.26762 h 0.80184 z m -1.60369,0 h -0.80184 v -0.26762 h 0.80184 z m -1.60369,0 h -0.80185 v -0.26762 h 0.80185 z m -1.60369,0 h -0.80185 v -0.26762 h 0.80185 z m -1.60368,0 h -0.80185 v -0.26762 h 0.80185 z m -1.60369,0 h -0.80185 v -0.26762 h 0.80185 z m -1.60368,0 h -0.80185 v -0.26762 h 0.80185 z m -1.60369,0 h -0.80185 v -0.26762 h 0.80185 z m -1.60368,0 h -0.80185 v -0.26762 h 0.80185 z m -1.6037,0 h -0.80184 v -0.26762 h 0.80184 z m -1.60369,0 h -0.80184 v -0.26762 h 0.80184 z m -1.60369,0 h -0.80184 v -0.26762 h 0.80184 z m -1.60368,0 h -0.80183 v -0.26762 h 0.80183 z m -1.60368,0 h -0.80184 v -0.26762 h 0.80184 z m -1.60369,0 h -0.80184 v -0.26762 h 0.80184 z m -1.60369,0 h -0.80185 v -0.26762 h 0.80185 z m -1.60368,0 h -0.80185 v -0.26762 h 0.80185 z m -1.60369,0 h -0.80185 v -0.26762 h 0.80185 z m -1.60369,0 h -0.80184 v -0.26762 h 0.80184 z m -1.60368,0 h -0.80185 v -0.26762 h 0.80185 z m -1.60368,0 h -0.80185 v -0.26762 h 0.80185 z m -1.60369,0 h -0.80185 v -0.26762 h 0.80185 z m -1.60369,0 h -0.80185 v -0.26762 h 0.80185 z m -1.6037,0 h -0.80184 v -0.26762 h 0.80184 z m -1.60368,0 h -0.80183 v -0.26762 h 0.80183 z m -1.60368,0 h -0.80184 v -0.26762 h 0.80184 z m -1.60369,0 h -0.80184 v -0.26762 h 0.80184 z m -1.60369,0 h -0.80184 v -0.26762 h 0.80184 z m -1.60368,0 h -0.80184 v -0.26762 h 0.80184 z m -1.60369,0 h -0.80185 v -0.26762 h 0.80185 z m -1.60369,0 h -0.80185 v -0.26762 h 0.80185 z m -1.60368,0 h -0.80185 v -0.26762 h 0.80185 z m -1.60368,0 v -0.26762 z m 57.73271,0 h -0.80184 v -0.26762 h 0.80184 z"
       id="path9106"
       style="stroke-width:0.10023" />
    <line
       fill="none"
       stroke-width="0.267281"
       stroke-linejoin="round"
       stroke="#000000"
       stroke-opacity="1"
       x1="139.06126"
       y1="348.77435"
       x2="139.06126"
       y2="291.04166"
       id="line9116" />
    <path
       fill="#000000"
       fill-opacity="1"
       stroke-linejoin="round"
       d="m 138.93088,347.17071 v -0.80185 h 0.27062 v 0.80185 z m 0,-1.60369 v -0.80184 h 0.27062 v 0.80184 z m 0,-1.60368 v -0.80185 h 0.27062 v 0.80185 z m 0,-1.60369 v -0.80185 h 0.27062 v 0.80185 z m 0,-1.60369 v -0.80185 h 0.27062 v 0.80185 z m 0,-1.60369 v -0.80184 h 0.27062 v 0.80184 z m 0,-1.60369 v -0.80183 h 0.27062 v 0.80183 z m 0,-1.60368 v -0.80184 h 0.27062 v 0.80184 z m 0,-1.60369 v -0.80184 h 0.27062 v 0.80184 z m 0,-1.60369 v -0.80184 h 0.27062 v 0.80184 z m 0,-1.60368 V 330.332 h 0.27062 v 0.80184 z m 0,-1.60369 v -0.80184 h 0.27062 v 0.80184 z m 0,-1.60368 v -0.80185 h 0.27062 v 0.80185 z m 0,-1.60369 v -0.80185 h 0.27062 v 0.80185 z m 0,-1.60369 v -0.80185 h 0.27062 v 0.80185 z m 0,-1.60368 v -0.80185 h 0.27062 v 0.80185 z m 0,-1.60368 v -0.80185 h 0.27062 v 0.80185 z m 0,-1.60369 v -0.80185 h 0.27062 v 0.80185 z m 0,-1.60369 v -0.80185 h 0.27062 v 0.80185 z m 0,-1.6037 v -0.80183 h 0.27062 v 0.80183 z m 0,-1.60368 v -0.80184 h 0.27062 v 0.80184 z m 0,-1.60368 v -0.80184 h 0.27062 v 0.80184 z m 0,-1.60369 v -0.80184 h 0.27062 v 0.80184 z m 0,-1.60369 v -0.80184 h 0.27062 v 0.80184 z m 0,-1.60369 v -0.80183 h 0.27062 v 0.80183 z m 0,-1.60368 v -0.80185 h 0.27062 v 0.80185 z m 0,-1.60368 v -0.80185 h 0.27062 v 0.80185 z m 0,-1.60369 v -0.80185 h 0.27062 v 0.80185 z m 0,-1.60369 v -0.80185 h 0.27062 v 0.80185 z m 0,-1.60369 v -0.80184 h 0.27062 v 0.80184 z m 0,-1.60368 v -0.80184 h 0.27062 v 0.80184 z m 0,-1.60368 v -0.80185 h 0.27062 v 0.80185 z m 0,-1.6037 v -0.80184 h 0.27062 v 0.80184 z m 0,-1.60369 v -0.80184 h 0.27062 v 0.80184 z m 0,-1.60369 v -0.80183 h 0.27062 v 0.80183 z m 0,-1.60368 h 0.27062 z m 0,57.73272 v -0.80185 h 0.27062 v 0.80185 z"
       id="path9118"
       style="stroke-width:0.10023" />
    <rect
       x="132.64651"
       y="323.11542"
       fill="none"
       stroke-width="0.801843"
       stroke-linejoin="round"
       stroke="#000000"
       stroke-opacity="1"
       width="19.24404"
       height="19.244242"
       id="rect9136" />
    <path
       fill="#000000"
       fill-opacity="1"
       stroke-linejoin="round"
       d="m 156.98943,336.08558 h -0.80184 v -0.26761 h 0.80184 z m -1.60369,0 h -0.80184 v -0.26761 h 0.80184 z m -1.60369,0 h -0.80184 v -0.26761 h 0.80184 z m -1.60367,0 h -0.80184 v -0.26761 h 0.80184 z m -1.60369,0 h -0.80184 v -0.26761 h 0.80184 z m -1.60369,0 h -0.80185 v -0.26761 h 0.80185 z m -1.60369,0 h -0.80185 v -0.26761 h 0.80185 z m -1.60368,0 h -0.80185 v -0.26761 h 0.80185 z m -1.60369,0 h -0.80185 v -0.26761 h 0.80185 z m -1.60368,0 h -0.80185 v -0.26761 h 0.80185 z m -1.60369,0 h -0.80185 v -0.26761 h 0.80185 z m -1.60368,0 h -0.80185 v -0.26761 h 0.80185 z m -1.6037,0 h -0.80184 v -0.26761 h 0.80184 z m -1.60369,0 h -0.80184 v -0.26761 h 0.80184 z m -1.60369,0 h -0.80184 v -0.26761 h 0.80184 z m -1.60368,0 h -0.80183 v -0.26761 h 0.80183 z m -1.60368,0 h -0.80184 v -0.26761 h 0.80184 z m -1.60369,0 h -0.80184 v -0.26761 h 0.80184 z m -1.60369,0 h -0.80185 v -0.26761 h 0.80185 z m -1.60368,0 h -0.80185 v -0.26761 h 0.80185 z m -1.60369,0 h -0.80185 v -0.26761 h 0.80185 z m -1.60369,0 h -0.80184 v -0.26761 h 0.80184 z m -1.60368,0 h -0.80185 v -0.26761 h 0.80185 z m -1.60368,0 h -0.80185 v -0.26761 h 0.80185 z m -1.60369,0 h -0.80185 v -0.26761 h 0.80185 z m -1.60369,0 h -0.80185 v -0.26761 h 0.80185 z m -1.6037,0 h -0.80184 v -0.26761 h 0.80184 z m -1.60368,0 h -0.80183 v -0.26761 h 0.80183 z m -1.60368,0 h -0.80184 v -0.26761 h 0.80184 z m -1.60369,0 h -0.80184 v -0.26761 h 0.80184 z m -1.60369,0 h -0.80184 v -0.26761 h 0.80184 z m -1.60368,0 h -0.80184 v -0.26761 h 0.80184 z m -1.60369,0 h -0.80185 v -0.26761 h 0.80185 z m -1.60369,0 h -0.80185 v -0.26761 h 0.80185 z m -1.60368,0 h -0.80185 v -0.26761 h 0.80185 z m -1.60368,0 v -0.26761 z m 57.73271,0 h -0.80184 v -0.26761 h 0.80184 z"
       id="path9140"
       style="stroke-width:0.10023" />
    <line
       fill="none"
       stroke-width="0.801843"
       stroke-linejoin="round"
       stroke="#5e5e5e"
       stroke-opacity="1"
       x1="158.30551"
       y1="303.87115"
       x2="100.57277"
       y2="303.87115"
       id="line9142" />
    <g
       id="g9148"
       transform="matrix(0.10023041,0,0,0.10023041,-2671.129,-62.371762)">
      <path
         fill="#ffffff"
         fill-opacity="1"
         stroke-width="0.2"
         stroke-linejoin="round"
         d="m 28037.3,3686.01 c -17.6,0 -32,14.32 -32,32 0,17.67 14.4,32 32,32 17.7,0 32,-14.33 32,-32 0,-17.68 -14.3,-32 -32,-32 z"
         id="path9144" />
      <path
         fill="#000000"
         fill-opacity="1"
         stroke-linejoin="round"
         stroke="#000000"
         stroke-opacity="1"
         d="m 28037.3,3699.82 20.9,36.38 h -41.7 z"
         id="path9146" />
    </g>
    <g
       id="g9172"
       transform="matrix(-0.12504,0,0,0.10023041,3661.2705,-61.98727)">
      <path
         fill="#ffffff"
         fill-opacity="1"
         stroke-width="0.2"
         stroke-linejoin="round"
         d="m 28101.3,3622.01 c 17.7,0 32,14.32 32,32 0,17.67 -14.3,32 -32,32 -17.6,0 -32,-14.33 -32,-32 0,-17.68 14.4,-32 32,-32 z"
         id="path9166" />
      <text
         transform="matrix(-1,0,0,1,28117,3670)"
         xml:space="preserve"
         id="text9170"
         style="stroke-width:0.893256;stroke-dasharray:none"><tspan
   style="font-size:48px;font-family:'メイリオ';stroke-width:0.893256;stroke-dasharray:none"
   letter-spacing="0em"
   fill="#ff0000"
   fill-opacity="1"
   stroke-width="8"
   stroke-linejoin="round"
   stroke="#ff0000"
   stroke-opacity="1"
   id="tspan9168">X</tspan>			</text>
    </g>
    <path
       fill="#ff0000"
       fill-opacity="1"
       stroke-linejoin="round"
       d="m 143.83215,297.46644 0.34079,0.0532 0.45102,0.11526 -0.0501,0.26261 -0.45103,-0.11627 -0.32074,-0.0481 z m 1.57362,0.40192 0.59135,0.21651 0.1704,0.0802 -0.11025,0.24656 -0.16038,-0.0802 -0.57131,-0.20748 z m 1.49343,0.65551 0.68157,0.41596 -0.1303,0.23554 -0.68158,-0.41695 z m 1.34308,0.89807 0.15035,0.11726 0.46106,0.41597 -0.17039,0.20647 -0.46106,-0.41696 -0.1303,-0.10123 z m 1.18273,1.11556 0.29066,0.31673 0.23054,0.30971 -0.21049,0.16939 -0.23053,-0.3087 -0.27063,-0.29869 z m 0.98225,1.29298 0.3508,0.57132 0.0602,0.13129 -0.23052,0.1283 -0.0701,-0.13231 -0.33077,-0.54927 z m 0.76176,1.4373 0.28064,0.75373 -0.25058,0.10424 -0.27062,-0.75373 z m 0.49113,1.53853 0.0701,0.26562 0.0802,0.53522 -0.2606,0.0531 -0.0801,-0.53423 -0.0602,-0.23954 z m 0.24055,1.61071 0.03,0.61141 -0.01,0.20246 h -0.27062 l 0.01,-0.20246 -0.03,-0.58435 z m -0.03,1.62874 -0.12027,0.79282 -0.2606,-0.0271 0.12028,-0.79283 z m -0.31071,1.58465 -0.0702,0.28365 -0.18042,0.49113 -0.25057,-0.0802 0.18041,-0.49012 0.0602,-0.25759 z m -0.56129,1.5245 -0.24056,0.49915 -0.14031,0.22352 -0.23054,-0.1273 0.13031,-0.22352 0.23052,-0.47509 z m -0.81187,1.41124 -0.47108,0.63547 -0.0201,0.0161 -0.20047,-0.17039 0.0101,-0.0151 0.46106,-0.61541 z m -1.03237,1.24487 -0.0701,0.0802 -0.5212,0.4751 -0.19044,-0.18944 0.52121,-0.47509 0.0602,-0.0611 z m -1.23284,1.05943 -0.27062,0.20548 -0.40092,0.24455 -0.15034,-0.2215 0.40092,-0.24456 0.25058,-0.19045 z m -1.38317,0.84395 -0.54125,0.25659 -0.21047,0.0762 -0.10024,-0.24557 0.21048,-0.0772 0.51118,-0.24557 z m -1.51348,0.60538 -0.7818,0.19947 -0.0802,-0.2556 0.78179,-0.19946 z m -1.58365,0.32875 -0.23052,0.0351 -0.58134,0.03 -0.03,-0.26661 0.59136,-0.0291 0.20046,-0.0311 z m -1.62373,0.0652 -0.59135,-0.03 -0.22051,-0.0341 0.0201,-0.26662 0.23052,0.0351 0.56129,0.0281 z m -1.61371,-0.19444 -0.78179,-0.19947 0.0501,-0.2616 0.7818,0.19947 z m -1.55357,-0.47109 -0.21048,-0.0772 -0.53122,-0.25659 0.11026,-0.24557 0.53122,0.25559 0.1804,0.0681 z m -1.45334,-0.72668 -0.40093,-0.24555 -0.27062,-0.20447 0.14033,-0.22152 0.28065,0.20447 0.38087,0.23254 z m -1.31302,-0.95519 -0.52119,-0.47509 -0.0802,-0.0802 0.19044,-0.18844 0.0802,0.0792 0.50115,0.45906 z m -1.1326,-1.14864 -0.0201,-0.0161 -0.47108,-0.63447 0.20046,-0.17038 0.48111,0.63545 -0.01,-0.003 z m -0.93214,-1.33907 -0.13031,-0.22353 -0.24055,-0.49814 0.23053,-0.12829 0.24056,0.49814 0.1303,0.20146 z m -0.68157,-1.47239 -0.18041,-0.49213 -0.0801,-0.28165 0.2606,-0.0802 0.0701,0.28265 0.1704,0.46707 z m -0.44101,-1.5666 -0.13031,-0.79282 0.27063,-0.0531 0.12028,0.79282 z m -0.17039,-1.60669 -0.01,-0.20448 0.03,-0.60939 h 0.27062 l -0.03,0.60939 0.01,0.17741 z m 0.11024,-1.62374 0.0802,-0.53723 0.0602,-0.26361 0.27062,0.0531 -0.0702,0.2646 -0.0802,0.51017 z m 0.36085,-1.58664 0.27062,-0.75274 0.26059,0.0792 -0.28064,0.75272 z m 0.63144,-1.48843 0.0602,-0.13229 0.34079,-0.57032 0.24055,0.12729 -0.3508,0.57031 -0.0501,0.10926 z m 0.87201,-1.37015 0.23052,-0.30971 0.29067,-0.31673 0.20047,0.17039 -0.28065,0.31674 -0.22051,0.28966 z m 1.0925,-1.20778 0.45104,-0.41696 0.16037,-0.11626 0.1704,0.20547 -0.16037,0.11627 -0.44102,0.39993 z m 1.26291,-1.01533 0.69159,-0.41696 0.15035,0.22152 -0.6916,0.41695 z m 1.42328,-0.77479 0.16036,-0.0811 0.59136,-0.2155 0.11026,0.24556 -0.59136,0.2165 -0.15035,0.0691 z m 1.53352,-0.53021 0.45104,-0.11627 0.3508,-0.0521 0.0501,0.26161 -0.34079,0.0521 -0.43098,0.10925 z m 1.60369,-0.27262 0.80184,-0.0411 0.80184,0.0411 v 0.2666 l -0.80184,-0.0401 -0.77178,0.0391 z"
       id="path9174"
       style="stroke-width:0.10023" />
    <path
       fill="#ff0000"
       fill-opacity="1"
       stroke-linejoin="round"
       d="m 172.01855,328.53233 0.32573,0.10179 0.43769,0.23411 -0.10179,0.25041 -0.43769,-0.23412 -0.28501,-0.0865 z m 1.46577,0.79192 0.45805,0.37459 0.16286,0.18932 -0.1934,0.1934 -0.16286,-0.18932 -0.41734,-0.34304 z m 1.14004,1.22351 0.39698,0.73085 v 0.007 l -0.2443,0.10688 -0.0102,-0.007 -0.37662,-0.68403 z m 0.64127,1.51463 0.0509,0.14963 0.0611,0.68199 -0.26465,0.055 -0.0611,-0.68199 -0.0305,-0.0977 z m 0.10179,1.66832 -0.0509,0.48554 -0.11197,0.33794 -0.26465,-0.055 0.11196,-0.33794 0.0407,-0.43057 z m -0.44787,1.60929 -0.36644,0.65451 -0.0611,0.0723 -0.22393,-0.15268 0.0611,-0.0733 0.3359,-0.60667 z m -0.94664,1.35279 -0.0305,0.0366 -0.61074,0.5008 -0.1934,-0.19238 0.61074,-0.5008 v 0.003 z m -1.36398,0.96191 -0.26465,0.14047 -0.51913,0.15981 -0.10179,-0.25041 0.51913,-0.15981 0.21375,-0.11604 z m -1.5981,0.46925 -0.62091,0.0611 -0.22394,-0.0224 v -0.27076 l 0.22394,0.0214 0.55984,-0.055 z m -1.67952,-0.0539 -0.7736,-0.23921 0.0509,-0.26567 0.78378,0.23819 z m -1.52684,-0.61481 -0.21376,-0.11909 -0.45805,-0.37357 0.1425,-0.22496 0.45806,0.37357 0.17304,0.0937 z m -1.26219,-1.08711 -0.31555,-0.37357 -0.16286,-0.31046 0.22394,-0.1537 0.16286,0.31046 0.28501,0.33387 z m -0.84485,-1.4393 -0.22394,-0.71253 -0.0102,-0.0947 0.26465,-0.055 0.0102,0.0947 0.21376,0.66062 z m -0.31555,-1.61642 -0.0102,-0.0977 0.0712,-0.74001 h 0.27483 l -0.0713,0.74001 v 0.0427 z m 0.26465,-1.65204 0.12215,-0.38171 0.21376,-0.3868 0.24429,0.10688 -0.21376,0.3868 -0.10179,0.32979 z m 0.78378,-1.47086 0.41734,-0.49062 0.15268,-0.12724 0.1934,0.19238 -0.16286,0.12826 -0.37662,0.4499 z m 1.23165,-1.13597 0.71253,-0.38578 0.15268,0.22597 -0.71252,0.38476 z m 1.51666,-0.64534 0.20358,-0.0631 0.62092,-0.0621 0.0509,0.26567 -0.62091,0.0621 -0.15269,0.0478 z m 1.2113,-0.1649 0.81431,0.0814 v 0.27178 l -0.81431,-0.0814 z"
       id="path9176"
       style="stroke-width:0.101789" />
    <text
       xml:space="preserve"
       id="text9180"
       x="178.50255"
       y="334.74222"
       style="font-size:1.22147px;stroke-width:0.101789">			 <tspan
   style="font-size:4.88589px;font-family:'メイリオ'"
   letter-spacing="0em"
   fill="#000000"
   fill-opacity="1"
   stroke-width="0.0203579"
   stroke-linejoin="round"
   id="tspan9178">House different from B/C</tspan>		</text>
    <g
       id="g9969"
       transform="matrix(-0.08536467,0,0,0.1002316,2366.0918,18.155826)">
      <path
         fill="#ffffff"
         fill-opacity="1"
         stroke-width="0.2"
         stroke-linejoin="round"
         d="m 27143.3,2875.01 c -17.6,0 -32,14.32 -32,32 0,17.67 14.4,32 32,32 17.7,0 32,-14.33 32,-32 0,-17.68 -14.3,-32 -32,-32 z"
         id="path9963" />
      <text
         transform="scale(-1,1)"
         xml:space="preserve"
         id="text9967"
         x="-27178.615"
         y="2926.1221">			<tspan
   style="font-size:48px;font-family:'メイリオ'"
   letter-spacing="0em"
   fill="#000000"
   fill-opacity="1"
   stroke-width="0.2"
   stroke-linejoin="round"
   id="tspan9965">X</tspan>		</text>
    </g>
    <g
       id="g9977"
       transform="matrix(-0.08536467,0,0,0.1002316,2373.5001,18.155826)">
      <path
         fill="#ffffff"
         fill-opacity="1"
         stroke-width="0.2"
         stroke-linejoin="round"
         d="m 27143.3,2875.01 c -17.6,0 -32,14.32 -32,32 0,17.67 14.4,32 32,32 17.7,0 32,-14.33 32,-32 0,-17.68 -14.3,-32 -32,-32 z"
         id="path9971" />
      <text
         transform="scale(-1,1)"
         xml:space="preserve"
         id="text9975"
         x="-27178.615"
         y="2926.1221">			<tspan
   style="font-size:48px;font-family:'メイリオ'"
   letter-spacing="0em"
   fill="#000000"
   fill-opacity="1"
   stroke-width="0.2"
   stroke-linejoin="round"
   id="tspan9973">X</tspan>		</text>
    </g>
    <g
       id="g9985"
       transform="matrix(-0.08536467,0,0,0.1002316,2392.5501,12.334992)">
      <path
         fill="#ffffff"
         fill-opacity="1"
         stroke-width="0.2"
         stroke-linejoin="round"
         d="m 27143.3,2875.01 c -17.6,0 -32,14.32 -32,32 0,17.67 14.4,32 32,32 17.7,0 32,-14.33 32,-32 0,-17.68 -14.3,-32 -32,-32 z"
         id="path9979" />
      <text
         transform="scale(-1,1)"
         xml:space="preserve"
         id="text9983"
         x="-27178.615"
         y="2926.1221">			<tspan
   style="font-size:48px;font-family:'メイリオ'"
   letter-spacing="0em"
   fill="#000000"
   fill-opacity="1"
   stroke-width="0.2"
   stroke-linejoin="round"
   id="tspan9981">X</tspan>		</text>
    </g>
    <g
       id="g9993"
       transform="matrix(-0.08536467,0,0,0.1002316,2398.9,12.334992)">
      <path
         fill="#ffffff"
         fill-opacity="1"
         stroke-width="0.2"
         stroke-linejoin="round"
         d="m 27143.3,2875.01 c -17.6,0 -32,14.32 -32,32 0,17.67 14.4,32 32,32 17.7,0 32,-14.33 32,-32 0,-17.68 -14.3,-32 -32,-32 z"
         id="path9987" />
      <text
         transform="scale(-1,1)"
         xml:space="preserve"
         id="text9991"
         x="-27178.615"
         y="2926.1221">			<tspan
   style="font-size:48px;font-family:'メイリオ'"
   letter-spacing="0em"
   fill="#000000"
   fill-opacity="1"
   stroke-width="0.2"
   stroke-linejoin="round"
   id="tspan9989">X</tspan>		</text>
    </g>
    <g
       id="g10001"
       transform="matrix(-0.08536467,0,0,0.1002316,2392.4643,39.88407)">
      <path
         fill="#ffffff"
         fill-opacity="1"
         stroke-width="0.2"
         stroke-linejoin="round"
         d="m 27143.3,2875.01 c -17.6,0 -32,14.32 -32,32 0,17.67 14.4,32 32,32 17.7,0 32,-14.33 32,-32 0,-17.68 -14.3,-32 -32,-32 z"
         id="path9995" />
      <text
         transform="scale(-1,1)"
         xml:space="preserve"
         id="text9999"
         x="-27178.615"
         y="2926.1221">			<tspan
   style="font-size:48px;font-family:'メイリオ'"
   letter-spacing="0em"
   fill="#000000"
   fill-opacity="1"
   stroke-width="0.2"
   stroke-linejoin="round"
   id="tspan9997">X</tspan>		</text>
    </g>
    <g
       id="g10009"
       transform="matrix(-0.08536467,0,0,0.1002316,2398.8142,47.292403)">
      <path
         fill="#ffffff"
         fill-opacity="1"
         stroke-width="0.2"
         stroke-linejoin="round"
         d="m 27143.3,2875.01 c -17.6,0 -32,14.32 -32,32 0,17.67 14.4,32 32,32 17.7,0 32,-14.33 32,-32 0,-17.68 -14.3,-32 -32,-32 z"
         id="path10003" />
      <text
         transform="scale(-1,1)"
         xml:space="preserve"
         id="text10007"
         x="-27178.615"
         y="2926.1221">			<tspan
   style="font-size:48px;font-family:'メイリオ'"
   letter-spacing="0em"
   fill="#000000"
   fill-opacity="1"
   stroke-width="0.2"
   stroke-linejoin="round"
   id="tspan10005">X</tspan>		</text>
    </g>
    <g
       id="g10017"
       transform="matrix(-0.08536467,0,0,0.1002316,2456.1638,12.367403)">
      <path
         fill="#ffffff"
         fill-opacity="1"
         stroke-width="0.2"
         stroke-linejoin="round"
         d="m 27143.3,2875.01 c -17.6,0 -32,14.32 -32,32 0,17.67 14.4,32 32,32 17.7,0 32,-14.33 32,-32 0,-17.68 -14.3,-32 -32,-32 z"
         id="path10011" />
      <text
         transform="scale(-1,1)"
         xml:space="preserve"
         id="text10015"
         x="-27178.615"
         y="2926.1221">			<tspan
   style="font-size:48px;font-family:'メイリオ'"
   letter-spacing="0em"
   fill="#000000"
   fill-opacity="1"
   stroke-width="0.2"
   stroke-linejoin="round"
   id="tspan10013">X</tspan>		</text>
    </g>
    <g
       id="g10025"
       transform="matrix(-0.08536467,0,0,0.1002316,2427.1454,38.064148)">
      <path
         fill="#ffffff"
         fill-opacity="1"
         stroke-width="0.2"
         stroke-linejoin="round"
         d="m 27143.3,2875.01 c -17.6,0 -32,14.32 -32,32 0,17.67 14.4,32 32,32 17.7,0 32,-14.33 32,-32 0,-17.68 -14.3,-32 -32,-32 z"
         id="path10019" />
      <text
         transform="scale(-1,1)"
         xml:space="preserve"
         id="text10023"
         x="-27178.615"
         y="2926.1221">			<tspan
   style="font-size:48px;font-family:'メイリオ'"
   letter-spacing="0em"
   fill="#000000"
   fill-opacity="1"
   stroke-width="0.2"
   stroke-linejoin="round"
   id="tspan10021">X</tspan>		</text>
    </g>
    <g
       id="g10033"
       transform="matrix(-0.08536467,0,0,0.1002316,2427.1454,44.614159)">
      <path
         fill="#ffffff"
         fill-opacity="1"
         stroke-width="0.2"
         stroke-linejoin="round"
         d="m 27143.3,2875.01 c -17.6,0 -32,14.32 -32,32 0,17.67 14.4,32 32,32 17.7,0 32,-14.33 32,-32 0,-17.68 -14.3,-32 -32,-32 z"
         id="path10027" />
      <text
         transform="scale(-1,1)"
         xml:space="preserve"
         id="text10031"
         x="-27178.615"
         y="2926.1221">			<tspan
   style="font-size:48px;font-family:'メイリオ'"
   letter-spacing="0em"
   fill="#000000"
   fill-opacity="1"
   stroke-width="0.2"
   stroke-linejoin="round"
   id="tspan10029">X</tspan>		</text>
    </g>
    <g
       id="g10041"
       transform="matrix(-0.08536467,0,0,0.1002316,2461.9848,44.64657)">
      <path
         fill="#ffffff"
         fill-opacity="1"
         stroke-width="0.2"
         stroke-linejoin="round"
         d="m 27143.3,2875.01 c -17.6,0 -32,14.32 -32,32 0,17.67 14.4,32 32,32 17.7,0 32,-14.33 32,-32 0,-17.68 -14.3,-32 -32,-32 z"
         id="path10035" />
      <text
         transform="scale(-1,1)"
         xml:space="preserve"
         id="text10039"
         x="-27178.615"
         y="2926.1221">			<tspan
   style="font-size:48px;font-family:'メイリオ'"
   letter-spacing="0em"
   fill="#000000"
   fill-opacity="1"
   stroke-width="0.2"
   stroke-linejoin="round"
   id="tspan10037">X</tspan>		</text>
    </g>
    <g
       id="g14051"
       transform="translate(-1.6168671,-12.562808)">
      <text
         xml:space="preserve"
         id="text9006"
         x="180.11942"
         y="338.7951"
         style="font-size:1.22147px;stroke-width:0.101789">			 <tspan
   style="font-size:4.88589px;font-family:'メイリオ'"
   letter-spacing="0em"
   fill="#000000"
   fill-opacity="1"
   stroke-width="0.0203579"
   stroke-linejoin="round"
   id="tspan9004">Cannibalistics Fin</tspan>		</text>
    </g>
    <g
       id="g14024"
       transform="translate(-12.187895,-40.171721)">
      <path
         fill="#ffffff"
         fill-opacity="1"
         stroke-width="0.2"
         stroke-linejoin="round"
         d="m 182.56255,361.35609 c -2.21321,0 -4.00128,1.4353 -4.00128,3.20737 0,1.77107 1.78807,3.20737 4.00128,3.20737 2.2007,0 4.00128,-1.4363 4.00128,-3.20737 0,-1.77207 -1.80058,-3.20737 -4.00128,-3.20737 z"
         id="path14010"
         style="stroke-width:0.112;stroke-dasharray:none" />
      <text
         transform="scale(1.1169268,0.89531378)"
         xml:space="preserve"
         id="text14014"
         style="font-size:1.3434px;fill:#070fd2;fill-opacity:1;stroke:#0d02ee;stroke-width:0.112;stroke-dasharray:none;stroke-opacity:1"
         x="161.69315"
         y="408.9808"><tspan
   style="font-size:5.3736px;font-family:'メイリオ';fill:#070fd2;fill-opacity:1;stroke:#0d02ee;stroke-width:0.112;stroke-dasharray:none;stroke-opacity:1"
   letter-spacing="0em"
   fill="#ff0000"
   fill-opacity="1"
   stroke-width="8"
   stroke-linejoin="round"
   stroke="#ff0000"
   stroke-opacity="1"
   id="tspan14012">X</tspan>			</text>
    </g>
    <g
       id="g14047"
       transform="translate(-1.6168671,-12.305659)">
      <text
         xml:space="preserve"
         id="text9002"
         x="180.11942"
         y="329.02332"
         style="font-size:1.22147px;stroke-width:0.101789">			 <tspan
   style="font-size:4.88589px;font-family:'メイリオ'"
   letter-spacing="0em"
   fill="#000000"
   fill-opacity="1"
   stroke-width="0.0203579"
   stroke-linejoin="round"
   id="tspan9000">Fin</tspan>		</text>
    </g>
    <g
       id="g14032"
       transform="matrix(-0.12504,0,0,0.10023041,3684.1612,-51.026785)">
      <path
         fill="#ffffff"
         fill-opacity="1"
         stroke-width="0.2"
         stroke-linejoin="round"
         d="m 28101.3,3622.01 c 17.7,0 32,14.32 32,32 0,17.67 -14.3,32 -32,32 -17.6,0 -32,-14.33 -32,-32 0,-17.68 14.4,-32 32,-32 z"
         id="path14026" />
      <text
         transform="matrix(-1,0,0,1,28117,3670)"
         xml:space="preserve"
         id="text14030"
         style="stroke-width:0.893256;stroke-dasharray:none"><tspan
   style="font-size:48px;font-family:'メイリオ';stroke-width:0.893256;stroke-dasharray:none"
   letter-spacing="0em"
   fill="#ff0000"
   fill-opacity="1"
   stroke-width="8"
   stroke-linejoin="round"
   stroke="#ff0000"
   stroke-opacity="1"
   id="tspan14028">X</tspan>			</text>
    </g>
    <g
       id="g14281"
       transform="translate(-43.80627,-34.594055)">
      <path
         fill="#ffffff"
         fill-opacity="1"
         stroke-width="0.2"
         stroke-linejoin="round"
         d="m 182.56255,361.35609 c -2.21321,0 -4.00128,1.4353 -4.00128,3.20737 0,1.77107 1.78807,3.20737 4.00128,3.20737 2.2007,0 4.00128,-1.4363 4.00128,-3.20737 0,-1.77207 -1.80058,-3.20737 -4.00128,-3.20737 z"
         id="path14275"
         style="stroke-width:0.112;stroke-dasharray:none" />
      <text
         transform="scale(1.1169268,0.89531378)"
         xml:space="preserve"
         id="text14279"
         style="font-size:1.3434px;fill:#070fd2;fill-opacity:1;stroke:#0d02ee;stroke-width:0.112;stroke-dasharray:none;stroke-opacity:1"
         x="161.69315"
         y="408.9808"><tspan
   style="font-size:5.3736px;font-family:'メイリオ';fill:#070fd2;fill-opacity:1;stroke:#0d02ee;stroke-width:0.112;stroke-dasharray:none;stroke-opacity:1"
   letter-spacing="0em"
   fill="#ff0000"
   fill-opacity="1"
   stroke-width="8"
   stroke-linejoin="round"
   stroke="#ff0000"
   stroke-opacity="1"
   id="tspan14277">X</tspan>			</text>
    </g>
    <g
       id="g14289"
       transform="translate(-107.21059,-54.51931)">
      <path
         fill="#ffffff"
         fill-opacity="1"
         stroke-width="0.2"
         stroke-linejoin="round"
         d="m 182.56255,361.35609 c -2.21321,0 -4.00128,1.4353 -4.00128,3.20737 0,1.77107 1.78807,3.20737 4.00128,3.20737 2.2007,0 4.00128,-1.4363 4.00128,-3.20737 0,-1.77207 -1.80058,-3.20737 -4.00128,-3.20737 z"
         id="path14283"
         style="stroke-width:0.112;stroke-dasharray:none" />
      <text
         transform="scale(1.1169268,0.89531378)"
         xml:space="preserve"
         id="text14287"
         style="font-size:1.3434px;fill:#070fd2;fill-opacity:1;stroke:#0d02ee;stroke-width:0.112;stroke-dasharray:none;stroke-opacity:1"
         x="161.69315"
         y="408.9808"><tspan
   style="font-size:5.3736px;font-family:'メイリオ';fill:#070fd2;fill-opacity:1;stroke:#0d02ee;stroke-width:0.112;stroke-dasharray:none;stroke-opacity:1"
   letter-spacing="0em"
   fill="#ff0000"
   fill-opacity="1"
   stroke-width="8"
   stroke-linejoin="round"
   stroke="#ff0000"
   stroke-opacity="1"
   id="tspan14285">X</tspan>			</text>
    </g>
  </g>
</svg>
