<?xml version="1.0" encoding="UTF-8" standalone="no"?>
<!-- Created with Inkscape (http://www.inkscape.org/) -->

<svg
   width="129.37326mm"
   height="62.517757mm"
   viewBox="0 0 129.37326 62.517757"
   version="1.1"
   id="svg3843"
   inkscape:version="1.4.3 (0d15f75, 2025-12-25)"
   sodipodi:docname="image37_000.svg"
   xmlns:inkscape="http://www.inkscape.org/namespaces/inkscape"
   xmlns:sodipodi="http://sodipodi.sourceforge.net/DTD/sodipodi-0.dtd"
   xmlns="http://www.w3.org/2000/svg"
   xmlns:svg="http://www.w3.org/2000/svg">
  <sodipodi:namedview
     id="namedview3845"
     pagecolor="#ffffff"
     bordercolor="#000000"
     borderopacity="0.25"
     inkscape:showpageshadow="2"
     inkscape:pageopacity="0.0"
     inkscape:pagecheckerboard="0"
     inkscape:deskcolor="#d1d1d1"
     inkscape:document-units="mm"
     showgrid="true"
     inkscape:zoom="1.4462307"
     inkscape:cx="470.87923"
     inkscape:cy="1102.1755"
     inkscape:window-width="2559"
     inkscape:window-height="1466"
     inkscape:window-x="4030"
     inkscape:window-y="323"
     inkscape:window-maximized="0"
     inkscape:current-layer="layer1">
    <inkscape:grid
       type="xygrid"
       id="grid6155"
       originx="-34.483089"
       originy="-286.08905"
       spacingy="1"
       spacingx="1"
       units="mm"
       visible="true" />
    <inkscape:page
       x="1.0012875e-20"
       y="0"
       width="129.37328"
       height="62.517757"
       id="page2"
       margin="0"
       bleed="0" />
  </sodipodi:namedview>
  <defs
     id="defs3840" />
  <g
     inkscape:label="Layer 1"
     inkscape:groupmode="layer"
     id="layer1"
     transform="translate(-34.483087,-286.08905)">
    <line
       fill="none"
       stroke-width="0.814315"
       stroke-linejoin="round"
       stroke="#5e5e5e"
       stroke-opacity="1"
       x1="117.27206"
       y1="291.57672"
       x2="107.50027"
       y2="291.57672"
       id="line8986"
       inkscape:export-filename="img37d.svg"
       inkscape:export-xdpi="96"
       inkscape:export-ydpi="96" />
    <text
       xml:space="preserve"
       id="text8994"
       x="120.51407"
       y="293.10254"
       style="font-size:1.22147px;stroke-width:0.101789">			 <tspan
   style="font-size:4.88589px;font-family:'メイリオ'"
   letter-spacing="0em"
   fill="#000000"
   fill-opacity="1"
   stroke-width="0.0203579"
   stroke-linejoin="round"
   id="tspan8992">BaseSet</tspan>		</text>
    <path
       fill="#000000"
       fill-opacity="1"
       stroke-linejoin="round"
       d="m 115.64343,298.39801 h -0.81431 v -0.27177 h 0.81431 z m -1.62863,0 h -0.81432 v -0.27177 h 0.81432 z m -1.62863,0 h -0.81432 v -0.27177 h 0.81432 z m -1.62863,0 h -0.81432 v -0.27177 h 0.81432 z m -1.62863,0 h -0.81432 v -0.27177 h 0.81432 z m -1.62863,0 v -0.27177 z m 9.77178,0 h -0.81431 v -0.27177 h 0.81431 z"
       id="path8990"
       style="stroke-width:0.101789" />
    <text
       xml:space="preserve"
       id="text8998"
       x="120.51407"
       y="300.12616"
       style="font-size:1.22147px;stroke-width:0.101789">			 <tspan
   style="font-size:4.88589px;font-family:'メイリオ'"
   letter-spacing="0em"
   fill="#000000"
   fill-opacity="1"
   stroke-width="0.0203579"
   stroke-linejoin="round"
   id="tspan8996">CoverSet</tspan>		</text>
    <rect
       x="35.137894"
       y="286.22272"
       fill="#ffffff"
       fill-opacity="1"
       stroke-width="0.267281"
       stroke-linejoin="round"
       stroke="#000000"
       stroke-opacity="1"
       width="57.732719"
       height="57.732719"
       id="rect9024" />
    <line
       fill="none"
       stroke-width="0.801843"
       stroke-linejoin="round"
       stroke="#5e5e5e"
       stroke-opacity="1"
       x1="80.04113"
       y1="286.22272"
       x2="80.04113"
       y2="343.95544"
       id="line9026" />
    <path
       fill="#000000"
       fill-opacity="1"
       stroke-linejoin="round"
       d="m 91.343906,305.17305 h -0.801843 v -0.26762 h 0.801843 z m -1.603686,0 h -0.801844 v -0.26762 h 0.801844 z m -1.603686,0 h -0.801843 v -0.26762 h 0.801843 z m -1.603687,0 h -0.801843 v -0.26762 h 0.801843 z m -1.603686,0 h -0.801843 v -0.26762 h 0.801843 z m -1.603686,0 h -0.801843 v -0.26762 h 0.801843 z m -1.603687,0 h -0.801843 v -0.26762 h 0.801843 z m -1.603687,0 h -0.801843 v -0.26762 h 0.801843 z m -1.603686,0 h -0.801844 v -0.26762 h 0.801844 z m -1.603687,0 h -0.801843 v -0.26762 h 0.801843 z m -1.603687,0 h -0.801843 v -0.26762 h 0.801843 z m -1.603686,0 h -0.801844 v -0.26762 h 0.801844 z m -1.603687,0 h -0.801844 v -0.26762 h 0.801844 z m -1.603687,0 h -0.801843 v -0.26762 h 0.801843 z m -1.603687,0 h -0.801843 v -0.26762 h 0.801843 z m -1.603686,0 h -0.801844 v -0.26762 h 0.801844 z m -1.603687,0 h -0.801843 v -0.26762 h 0.801843 z m -1.603687,0 h -0.801843 v -0.26762 h 0.801843 z m -1.603686,0 h -0.801844 v -0.26762 h 0.801844 z m -1.603687,0 h -0.801844 v -0.26762 h 0.801844 z m -1.603687,0 h -0.801843 v -0.26762 h 0.801843 z m -1.603686,0 h -0.801842 v -0.26762 h 0.801842 z m -1.603685,0 h -0.801844 v -0.26762 h 0.801844 z m -1.603687,0 h -0.801843 v -0.26762 h 0.801843 z m -1.603687,0 h -0.801843 v -0.26762 h 0.801843 z m -1.603687,0 h -0.801843 v -0.26762 h 0.801843 z m -1.603686,0 h -0.801844 v -0.26762 h 0.801844 z m -1.603687,0 h -0.801843 v -0.26762 h 0.801843 z m -1.603687,0 h -0.801843 v -0.26762 h 0.801843 z m -1.603686,0 h -0.801844 v -0.26762 h 0.801844 z m -1.603687,0 h -0.801843 v -0.26762 h 0.801843 z m -1.603687,0 h -0.801843 v -0.26762 h 0.801843 z m -1.603687,0 h -0.801843 v -0.26762 h 0.801843 z m -1.603686,0 h -0.801844 v -0.26762 h 0.801844 z m -1.603687,0 h -0.801843 v -0.26762 h 0.801843 z m -1.603687,0 v -0.26762 z m 57.732718,0 H 92.14575 v -0.26762 h 0.801843 z"
       id="path9030"
       style="stroke-width:0.10023" />
    <line
       fill="none"
       stroke-width="0.801843"
       stroke-linejoin="round"
       stroke="#5e5e5e"
       stroke-opacity="1"
       x1="52.404556"
       y1="286.40567"
       x2="52.404556"
       y2="344.1384"
       id="line9032" />
    <path
       fill="#000000"
       fill-opacity="1"
       stroke-linejoin="round"
       d="m 68.815232,292.50318 h 0.801844 v 0.26762 h -0.801844 z m 1.603687,0 h 0.801843 v 0.26762 h -0.801843 z m 1.603687,0 h 0.801843 v 0.26762 h -0.801843 z m 1.603687,0 h 0.801843 v 0.26762 h -0.801843 z m 1.603686,0 h 0.801844 v 0.26762 h -0.801844 z m 1.603687,0 h 0.801843 v 0.26762 h -0.801843 z m 1.603687,0 h 0.801843 v 0.26762 h -0.801843 z m 1.603686,0 h 0.801844 v 0.26762 h -0.801844 z m 1.603687,0 h 0.801844 v 0.26762 h -0.801844 z m 1.603687,0 h 0.801843 v 0.26762 h -0.801843 z m 1.603686,0 h 0.801843 v 0.26762 h -0.801843 z m 1.603686,0 v 0 l 0.02005,9.9e-4 0.01002,0.002 0.01002,0.003 0.01002,0.005 0.02005,0.005 0.01002,0.007 0.01002,0.008 0.01002,0.008 0.01002,0.01 v 0.011 l 0.01002,0.011 0.01002,0.012 v 0.012 0.013 l 0.01002,0.013 v 0.013 0.80184 h -0.270623 v -0.80184 l 0.130299,0.13331 v 0 z m 0.140324,1.738 v 0.80184 h -0.270623 v -0.80184 z m 0,1.60369 v 0.80184 h -0.270623 v -0.80184 z m 0,1.60368 v 0.80184 h -0.270623 v -0.80184 z m 0,1.60368 v 0.80184 h -0.270623 v -0.80184 z m 0,1.60369 v 0.80184 h -0.270623 v -0.80184 z m 0,1.60369 v 0.80185 h -0.270623 v -0.80185 z m 0,1.60369 v 0.80185 h -0.270623 v -0.80185 z m 0,1.60368 v 0.80185 h -0.270623 v -0.80185 z m 0,1.60369 v 0.80184 h -0.270623 v -0.80184 z m 0,1.60368 v 0.80185 h -0.270623 v -0.80185 z m 0,1.60369 v 0.80185 h -0.270623 v -0.80185 z m 0,1.60368 v 0 0.013 l -0.01002,0.013 v 0.013 0.012 l -0.01002,0.012 -0.01002,0.011 v 0.01 l -0.01002,0.01 -0.01002,0.009 -0.01002,0.008 -0.01002,0.006 -0.02005,0.006 -0.01002,0.004 -0.01002,0.004 -0.01002,0.002 h -0.02005 -0.801843 v -0.26661 h 0.801843 l -0.1303,0.1333 v 0 z m -1.74401,0.13331 h -0.801843 v -0.26661 h 0.801843 z m -1.603686,0 H 82.44657 v -0.26661 h 0.801843 z m -1.603687,0 h -0.801843 v -0.26661 h 0.801843 z m -1.603687,0 h -0.801843 v -0.26661 h 0.801843 z m -1.603686,0 h -0.801844 v -0.26661 h 0.801844 z m -1.603687,0 h -0.801843 v -0.26661 h 0.801843 z m -1.603687,0 h -0.801843 v -0.26661 h 0.801843 z m -1.603686,0 h -0.801844 v -0.26661 h 0.801844 z m -1.603687,0 h -0.801844 v -0.26661 h 0.801844 z m -1.603687,0 h -0.801843 v -0.26661 h 0.801843 z m -1.603687,0 h -0.801843 v -0.26661 h 0.801843 z m -1.603686,0 v 0 h -0.01002 l -0.01002,-0.002 -0.02005,-0.004 -0.01002,-0.004 -0.01002,-0.006 -0.01002,-0.006 -0.01002,-0.008 -0.01002,-0.009 -0.01002,-0.01 -0.01002,-0.0101 v -0.011 l -0.01002,-0.012 v -0.012 l -0.01002,-0.013 v -0.013 -0.013 -0.80183 h 0.270623 v 0.80183 l -0.140323,-0.1333 v 0 z m -0.1303,-1.73699 v -0.80184 h 0.270622 v 0.80184 z m 0,-1.60369 v -0.80184 h 0.270622 v 0.80184 z m 0,-1.60368 v -0.80184 h 0.270622 v 0.80184 z m 0,-1.60369 v -0.80183 h 0.270622 v 0.80183 z m 0,-1.60368 v -0.80184 h 0.270622 v 0.80184 z m 0,-1.60369 v -0.80185 h 0.270622 v 0.80185 z m 0,-1.60369 v -0.80185 h 0.270622 v 0.80185 z m 0,-1.60369 v -0.80184 h 0.270622 v 0.80184 z m 0,-1.60368 v -0.80184 h 0.270622 v 0.80184 z m 0,-1.60368 v -0.80185 h 0.270622 v 0.80185 z m 0,-1.60369 v -0.80185 h 0.270622 v 0.80185 z m 0,-1.60369 v 0 -0.013 -0.013 l 0.01002,-0.013 v -0.012 l 0.01002,-0.012 v -0.011 l 0.01002,-0.011 0.01002,-0.01 0.01002,-0.008 0.01002,-0.008 0.01002,-0.007 0.01002,-0.005 0.01002,-0.005 0.02005,-0.003 0.01002,-0.002 0.01002,-9.9e-4 h 0.801843 v 0.26762 h -0.801843 l 0.140322,-0.13331 v 0 z"
       id="path9074"
       style="stroke-width:0.10023" />
    <rect
       x="44.404778"
       y="296.95319"
       fill="none"
       stroke-width="0.651815"
       stroke-linejoin="round"
       stroke="#000000"
       stroke-opacity="1"
       width="15.552184"
       height="15.735331"
       id="rect9092" />
    <text
       xml:space="preserve"
       id="text9098"
       x="37.227978"
       y="348.04272"
       style="font-size:1.22147px;stroke-width:0.101789">			 <tspan
   style="font-size:3.80014px;font-family:'メイリオ'"
   letter-spacing="0em"
   fill="#000000"
   fill-opacity="1"
   stroke-width="0.0203579"
   stroke-linejoin="round"
   id="tspan9096">Cannibalistics  F/M Fish</tspan>		</text>
    <g
       id="g9969"
       transform="matrix(-0.08536467,0,0,0.1002316,2364.9998,13.681707)">
      <path
         fill="#ffffff"
         fill-opacity="1"
         stroke-width="0.2"
         stroke-linejoin="round"
         d="m 27143.3,2875.01 c -17.6,0 -32,14.32 -32,32 0,17.67 14.4,32 32,32 17.7,0 32,-14.33 32,-32 0,-17.68 -14.3,-32 -32,-32 z"
         id="path9963" />
      <text
         transform="scale(-1,1)"
         xml:space="preserve"
         id="text9967"
         x="-27178.615"
         y="2926.1221">			<tspan
   style="font-size:48px;font-family:'メイリオ'"
   letter-spacing="0em"
   fill="#000000"
   fill-opacity="1"
   stroke-width="0.2"
   stroke-linejoin="round"
   id="tspan9965">X</tspan>		</text>
    </g>
    <g
       id="g9977"
       transform="matrix(-0.08536467,0,0,0.1002316,2374.2376,13.864654)">
      <path
         fill="#ffffff"
         fill-opacity="1"
         stroke-width="0.2"
         stroke-linejoin="round"
         d="m 27143.3,2875.01 c -17.6,0 -32,14.32 -32,32 0,17.67 14.4,32 32,32 17.7,0 32,-14.33 32,-32 0,-17.68 -14.3,-32 -32,-32 z"
         id="path9971" />
      <text
         transform="scale(-1,1)"
         xml:space="preserve"
         id="text9975"
         x="-27178.615"
         y="2926.1221">			<tspan
   style="font-size:48px;font-family:'メイリオ'"
   letter-spacing="0em"
   fill="#000000"
   fill-opacity="1"
   stroke-width="0.2"
   stroke-linejoin="round"
   id="tspan9973">X</tspan>		</text>
    </g>
    <g
       id="g9985"
       transform="matrix(-0.08536467,0,0,0.1002316,2390.5434,7.6779257)">
      <path
         fill="#ffffff"
         fill-opacity="1"
         stroke-width="0.2"
         stroke-linejoin="round"
         d="m 27143.3,2875.01 c -17.6,0 -32,14.32 -32,32 0,17.67 14.4,32 32,32 17.7,0 32,-14.33 32,-32 0,-17.68 -14.3,-32 -32,-32 z"
         id="path9979" />
      <text
         transform="scale(-1,1)"
         xml:space="preserve"
         id="text9983"
         x="-27178.615"
         y="2926.1221">			<tspan
   style="font-size:48px;font-family:'メイリオ'"
   letter-spacing="0em"
   fill="#000000"
   fill-opacity="1"
   stroke-width="0.2"
   stroke-linejoin="round"
   id="tspan9981">X</tspan>		</text>
    </g>
    <g
       id="g9993"
       transform="matrix(-0.08536467,0,0,0.1002316,2397.2592,8.0438194)">
      <path
         fill="#ffffff"
         fill-opacity="1"
         stroke-width="0.2"
         stroke-linejoin="round"
         d="m 27143.3,2875.01 c -17.6,0 -32,14.32 -32,32 0,17.67 14.4,32 32,32 17.7,0 32,-14.33 32,-32 0,-17.68 -14.3,-32 -32,-32 z"
         id="path9987" />
      <text
         transform="scale(-1,1)"
         xml:space="preserve"
         id="text9991"
         x="-27178.615"
         y="2926.1221">			<tspan
   style="font-size:48px;font-family:'メイリオ'"
   letter-spacing="0em"
   fill="#000000"
   fill-opacity="1"
   stroke-width="0.2"
   stroke-linejoin="round"
   id="tspan9989">X</tspan>		</text>
    </g>
    <g
       id="g14051"
       transform="translate(-59.97124,-29.660259)">
      <text
         xml:space="preserve"
         id="text9006"
         x="180.11942"
         y="338.7951"
         style="font-size:1.22147px;stroke-width:0.101789">			 <tspan
   style="font-size:4.88589px;font-family:'メイリオ'"
   letter-spacing="0em"
   fill="#000000"
   fill-opacity="1"
   stroke-width="0.0203579"
   stroke-linejoin="round"
   id="tspan9004">Cannibalistics Fin</tspan>		</text>
    </g>
    <g
       id="g14024"
       transform="translate(-70.542268,-57.269172)">
      <path
         fill="#ffffff"
         fill-opacity="1"
         stroke-width="0.2"
         stroke-linejoin="round"
         d="m 182.56255,361.35609 c -2.21321,0 -4.00128,1.4353 -4.00128,3.20737 0,1.77107 1.78807,3.20737 4.00128,3.20737 2.2007,0 4.00128,-1.4363 4.00128,-3.20737 0,-1.77207 -1.80058,-3.20737 -4.00128,-3.20737 z"
         id="path14010"
         style="stroke-width:0.112;stroke-dasharray:none" />
      <text
         transform="scale(1.1169268,0.89531378)"
         xml:space="preserve"
         id="text14014"
         style="font-size:1.3434px;fill:#070fd2;fill-opacity:1;stroke:#0d02ee;stroke-width:0.112;stroke-dasharray:none;stroke-opacity:1"
         x="161.69315"
         y="408.9808"><tspan
   style="font-size:5.3736px;font-family:'メイリオ';fill:#070fd2;fill-opacity:1;stroke:#0d02ee;stroke-width:0.112;stroke-dasharray:none;stroke-opacity:1"
   letter-spacing="0em"
   fill="#ff0000"
   fill-opacity="1"
   stroke-width="8"
   stroke-linejoin="round"
   stroke="#ff0000"
   stroke-opacity="1"
   id="tspan14012">X</tspan>			</text>
    </g>
    <g
       id="g14289"
       transform="translate(-109.21734,-59.176376)">
      <path
         fill="#ffffff"
         fill-opacity="1"
         stroke-width="0.2"
         stroke-linejoin="round"
         d="m 182.56255,361.35609 c -2.21321,0 -4.00128,1.4353 -4.00128,3.20737 0,1.77107 1.78807,3.20737 4.00128,3.20737 2.2007,0 4.00128,-1.4363 4.00128,-3.20737 0,-1.77207 -1.80058,-3.20737 -4.00128,-3.20737 z"
         id="path14283"
         style="stroke-width:0.112;stroke-dasharray:none" />
      <text
         transform="scale(1.1169268,0.89531378)"
         xml:space="preserve"
         id="text14287"
         style="font-size:1.3434px;fill:#070fd2;fill-opacity:1;stroke:#0d02ee;stroke-width:0.112;stroke-dasharray:none;stroke-opacity:1"
         x="161.69315"
         y="408.9808"><tspan
   style="font-size:5.3736px;font-family:'メイリオ';fill:#070fd2;fill-opacity:1;stroke:#0d02ee;stroke-width:0.112;stroke-dasharray:none;stroke-opacity:1"
   letter-spacing="0em"
   fill="#ff0000"
   fill-opacity="1"
   stroke-width="8"
   stroke-linejoin="round"
   stroke="#ff0000"
   stroke-opacity="1"
   id="tspan14285">X</tspan>			</text>
    </g>
    <text
       xml:space="preserve"
       style="font-size:3.175px;line-height:1.94733px;writing-mode:lr-tb;direction:ltr;fill:#0000ff;fill-opacity:0.997085;stroke-width:0.1"
       x="62.019093"
       y="309.41019"
       id="text2"><tspan
         sodipodi:role="line"
         id="tspan2"
         style="stroke-width:0.1"
         x="62.019093"
         y="309.41019">Exclude</tspan></text>
    <path
       fill="#000000"
       fill-opacity="1"
       stroke-linejoin="round"
       d="m 90.612119,325.48015 h -0.801843 v -0.26762 h 0.801843 z m -1.603686,0 h -0.801844 v -0.26762 h 0.801844 z m -1.603686,0 h -0.801843 v -0.26762 h 0.801843 z m -1.603687,0 h -0.801843 v -0.26762 h 0.801843 z m -1.603686,0 h -0.801843 v -0.26762 h 0.801843 z m -1.603686,0 h -0.801843 v -0.26762 h 0.801843 z m -1.603687,0 h -0.801843 v -0.26762 h 0.801843 z m -1.603687,0 h -0.801843 v -0.26762 h 0.801843 z m -1.603686,0 h -0.801844 v -0.26762 h 0.801844 z m -1.603687,0 h -0.801843 v -0.26762 h 0.801843 z m -1.603687,0 h -0.801843 v -0.26762 h 0.801843 z m -1.603686,0 h -0.801844 v -0.26762 h 0.801844 z m -1.603687,0 h -0.801844 v -0.26762 h 0.801844 z m -1.603687,0 h -0.801843 v -0.26762 h 0.801843 z m -1.603687,0 h -0.801843 v -0.26762 h 0.801843 z m -1.603686,0 h -0.801844 v -0.26762 h 0.801844 z m -1.603687,0 h -0.801843 v -0.26762 h 0.801843 z m -1.603687,0 h -0.801843 v -0.26762 h 0.801843 z m -1.603686,0 h -0.801844 v -0.26762 h 0.801844 z m -1.603687,0 H 59.34023 v -0.26762 h 0.801844 z m -1.603687,0 h -0.801843 v -0.26762 h 0.801843 z m -1.603686,0 h -0.801842 v -0.26762 h 0.801842 z m -1.603685,0 h -0.801844 v -0.26762 h 0.801844 z m -1.603687,0 h -0.801843 v -0.26762 h 0.801843 z m -1.603687,0 h -0.801843 v -0.26762 h 0.801843 z m -1.603687,0 h -0.801843 v -0.26762 h 0.801843 z m -1.603686,0 h -0.801844 v -0.26762 h 0.801844 z m -1.603687,0 h -0.801843 v -0.26762 h 0.801843 z m -1.603687,0 h -0.801843 v -0.26762 h 0.801843 z m -1.603686,0 h -0.801844 v -0.26762 h 0.801844 z m -1.603687,0 h -0.801843 v -0.26762 h 0.801843 z m -1.603687,0 h -0.801843 v -0.26762 h 0.801843 z m -1.603687,0 h -0.801843 v -0.26762 h 0.801843 z m -1.603686,0 h -0.801844 v -0.26762 h 0.801844 z m -1.603687,0 h -0.801843 v -0.26762 h 0.801843 z m -1.603687,0 v -0.26762 z m 57.732718,0 h -0.801843 v -0.26762 h 0.801843 z"
       id="path1"
       style="stroke-width:0.10023" />
    <g
       id="g10001"
       transform="matrix(-0.08536467,0,0,0.1002316,2369.6016,33.763429)">
      <path
         fill="#ffffff"
         fill-opacity="1"
         stroke-width="0.2"
         stroke-linejoin="round"
         d="m 27143.3,2875.01 c -17.6,0 -32,14.32 -32,32 0,17.67 14.4,32 32,32 17.7,0 32,-14.33 32,-32 0,-17.68 -14.3,-32 -32,-32 z"
         id="path9995" />
      <text
         transform="scale(-1,1)"
         xml:space="preserve"
         id="text9999"
         x="-27178.615"
         y="2926.1221">			<tspan
   style="font-size:48px;font-family:'メイリオ'"
   letter-spacing="0em"
   fill="#000000"
   fill-opacity="1"
   stroke-width="0.2"
   stroke-linejoin="round"
   id="tspan9997">X</tspan>		</text>
    </g>
    <g
       id="g10009"
       transform="matrix(-0.08536467,0,0,0.1002316,2397.3562,34.036835)">
      <path
         fill="#ffffff"
         fill-opacity="1"
         stroke-width="0.2"
         stroke-linejoin="round"
         d="m 27143.3,2875.01 c -17.6,0 -32,14.32 -32,32 0,17.67 14.4,32 32,32 17.7,0 32,-14.33 32,-32 0,-17.68 -14.3,-32 -32,-32 z"
         id="path10003" />
      <text
         transform="scale(-1,1)"
         xml:space="preserve"
         id="text10007"
         x="-27178.615"
         y="2926.1221">			<tspan
   style="font-size:48px;font-family:'メイリオ'"
   letter-spacing="0em"
   fill="#000000"
   fill-opacity="1"
   stroke-width="0.2"
   stroke-linejoin="round"
   id="tspan10005">X</tspan>		</text>
    </g>
  </g>
</svg>
