<?xml version="1.0" encoding="UTF-8" standalone="no"?>
<!-- Created with Inkscape (http://www.inkscape.org/) -->

<svg
   width="163.93898mm"
   height="62.175568mm"
   viewBox="0 0 163.93898 62.175568"
   version="1.1"
   id="svg3843"
   inkscape:version="1.2.2 (732a01da63, 2022-12-09)"
   sodipodi:docname="image37.svg"
   xmlns:inkscape="http://www.inkscape.org/namespaces/inkscape"
   xmlns:sodipodi="http://sodipodi.sourceforge.net/DTD/sodipodi-0.dtd"
   xmlns="http://www.w3.org/2000/svg"
   xmlns:svg="http://www.w3.org/2000/svg">
  <sodipodi:namedview
     id="namedview3845"
     pagecolor="#ffffff"
     bordercolor="#000000"
     borderopacity="0.25"
     inkscape:showpageshadow="2"
     inkscape:pageopacity="0.0"
     inkscape:pagecheckerboard="0"
     inkscape:deskcolor="#d1d1d1"
     inkscape:document-units="mm"
     showgrid="true"
     inkscape:zoom="1.2938725"
     inkscape:cx="518.98468"
     inkscape:cy="597.81779"
     inkscape:window-width="1912"
     inkscape:window-height="1466"
     inkscape:window-x="1404"
     inkscape:window-y="197"
     inkscape:window-maximized="0"
     inkscape:current-layer="layer1">
    <inkscape:grid
       type="xygrid"
       id="grid6155"
       originx="-36.272823"
       originy="-42.199703"
       spacingy="1"
       spacingx="1"
       units="mm"
       visible="true" />
  </sodipodi:namedview>
  <defs
     id="defs3840" />
  <g
     inkscape:label="Layer 1"
     inkscape:groupmode="layer"
     id="layer1"
     transform="translate(-36.272822,-42.199704)">
    <rect
       x="37.280186"
       y="42.333324"
       fill="#ffffff"
       fill-opacity="1"
       stroke-width="0.267235"
       stroke-linejoin="round"
       stroke="#5e5e5e"
       stroke-opacity="1"
       width="57.731327"
       height="57.714401"
       id="rect6852"
       inkscape:export-filename="img37a.png"
       inkscape:export-xdpi="96"
       inkscape:export-ydpi="96" />
    <path
       fill="#000000"
       fill-opacity="1"
       stroke-linejoin="round"
       d="m 93.782794,58.476596 h -0.803775 v -0.268263 h 0.803775 z m -1.607549,0 H 91.37147 v -0.268263 h 0.803775 z m -1.607549,0 h -0.803775 v -0.268263 h 0.803775 z m -1.607549,0 h -0.803775 v -0.268263 h 0.803775 z m -1.607549,0 h -0.803775 v -0.268263 h 0.803775 z m -1.607549,0 h -0.803775 v -0.268263 h 0.803775 z m -1.607549,0 H 83.333725 V 58.208333 H 84.1375 Z m -1.607548,0 h -0.803775 v -0.268263 h 0.803775 z m -1.60755,0 h -0.803774 v -0.268263 h 0.803774 z m -1.607549,0 h -0.803774 v -0.268263 h 0.803774 z m -1.607548,0 H 76.90353 v -0.268263 h 0.803775 z m -1.607549,0 h -0.803775 v -0.268263 h 0.803775 z m -1.60755,0 h -0.803773 v -0.268263 h 0.803773 z m -1.607549,0 h -0.803773 v -0.268263 h 0.803773 z m -1.607548,0 h -0.803775 v -0.268263 h 0.803775 z m -1.607549,0 h -0.803775 v -0.268263 h 0.803775 z m -1.607549,0 h -0.803774 v -0.268263 h 0.803774 z m -1.607548,0 h -0.803775 v -0.268263 h 0.803775 z m -1.607549,0 h -0.803776 v -0.268263 h 0.803776 z m -1.607549,0 H 62.43559 v -0.268263 h 0.803775 z m -1.607549,0 h -0.803771 v -0.268263 h 0.803771 z m -1.60755,0 h -0.803769 v -0.268263 h 0.803769 z m -1.607548,0 h -0.80378 v -0.268263 h 0.80378 z m -1.607548,0 h -0.80378 v -0.268263 h 0.80378 z m -1.607548,0 h -0.803779 v -0.268263 h 0.803779 z m -1.607549,0 h -0.803778 v -0.268263 h 0.803778 z m -1.607548,0 h -0.803778 v -0.268263 h 0.803778 z m -1.607548,0 h -0.803779 v -0.268263 h 0.803779 z m -1.607548,0 H 47.96765 v -0.268263 h 0.803779 z m -1.607559,0 h -0.803768 v -0.268263 h 0.803768 z m -1.607538,0 h -0.803778 v -0.268263 h 0.803778 z m -1.607558,0 h -0.803769 v -0.268263 h 0.803769 z m -1.607548,0 h -0.803769 v -0.268263 h 0.803769 z m -1.607548,0 h -0.803769 v -0.268263 h 0.803769 z m -1.607548,0 h -0.803779 v -0.268263 h 0.803779 z m -1.607548,0 v -0.268263 z m 57.87176,0 h -0.803774 v -0.268263 h 0.803774 z"
       id="path6856"
       style="stroke-width:0.100472" />
    <line
       fill="none"
       stroke-width="0.803775"
       stroke-linejoin="round"
       stroke="#5e5e5e"
       stroke-opacity="1"
       x1="75.855255"
       y1="42.327286"
       x2="75.855255"
       y2="100.19933"
       id="line6858" />
    <line
       fill="none"
       stroke-width="0.803775"
       stroke-linejoin="round"
       stroke="#5e5e5e"
       stroke-opacity="1"
       x1="59.779762"
       y1="42.327286"
       x2="59.779762"
       y2="100.19933"
       id="line6864" />
    <line
       fill="none"
       stroke-width="0.803775"
       stroke-linejoin="round"
       stroke="#5e5e5e"
       stroke-opacity="1"
       x1="46.919369"
       y1="42.327286"
       x2="46.919369"
       y2="100.19933"
       id="line6866" />
    <path
       fill="#000000"
       fill-opacity="1"
       stroke-linejoin="round"
       d="M 93.173431,71.705763 H 92.369656 V 71.4375 h 0.803775 z m -1.607549,0 H 90.762107 V 71.4375 h 0.803775 z m -1.607549,0 H 89.154558 V 71.4375 h 0.803775 z m -1.607549,0 H 87.547009 V 71.4375 h 0.803775 z m -1.607549,0 H 85.93946 V 71.4375 h 0.803775 z m -1.607549,0 H 84.331911 V 71.4375 h 0.803775 z m -1.607549,0 H 82.724362 V 71.4375 h 0.803775 z m -1.607548,0 H 81.116814 V 71.4375 h 0.803775 z m -1.60755,0 H 79.509265 V 71.4375 h 0.803774 z m -1.607549,0 H 77.901716 V 71.4375 h 0.803774 z m -1.607548,0 H 76.294167 V 71.4375 h 0.803775 z m -1.607549,0 H 74.686618 V 71.4375 h 0.803775 z m -1.60755,0 H 73.07907 V 71.4375 h 0.803773 z m -1.607549,0 H 71.471521 V 71.4375 h 0.803773 z m -1.607548,0 H 69.863971 V 71.4375 h 0.803775 z m -1.607549,0 H 68.256422 V 71.4375 h 0.803775 z m -1.607549,0 H 66.648874 V 71.4375 h 0.803774 z m -1.607548,0 H 65.041325 V 71.4375 H 65.8451 Z m -1.607549,0 H 63.433775 V 71.4375 h 0.803776 z m -1.607549,0 H 61.826227 V 71.4375 h 0.803775 z m -1.607549,0 H 60.218682 V 71.4375 h 0.803771 z m -1.60755,0 H 58.611134 V 71.4375 h 0.803769 z m -1.607548,0 h -0.80378 V 71.4375 h 0.80378 z m -1.607548,0 h -0.80378 V 71.4375 h 0.80378 z m -1.607548,0 H 53.78848 V 71.4375 h 0.803779 z m -1.607549,0 H 52.180932 V 71.4375 h 0.803778 z m -1.607548,0 H 50.573384 V 71.4375 h 0.803778 z m -1.607548,0 H 48.965835 V 71.4375 h 0.803779 z m -1.607548,0 H 47.358287 V 71.4375 h 0.803779 z m -1.607559,0 H 45.750739 V 71.4375 h 0.803768 z m -1.607538,0 H 44.143191 V 71.4375 h 0.803778 z m -1.607558,0 H 42.535642 V 71.4375 h 0.803769 z m -1.607548,0 H 40.928094 V 71.4375 h 0.803769 z m -1.607548,0 H 39.320546 V 71.4375 h 0.803769 z m -1.607548,0 H 37.712988 V 71.4375 h 0.803779 z m -1.607548,0 V 71.4375 Z m 57.87176,0 H 93.977205 V 71.4375 h 0.803774 z"
       id="path6870"
       style="stroke-width:0.100472" />
    <path
       fill="#ffffff"
       fill-opacity="1"
       stroke-width="0.0200944"
       stroke-linejoin="round"
       d="m 85.500486,68.048191 c -1.768305,0 -3.215099,1.438763 -3.215099,3.215113 0,1.775345 1.446794,3.215113 3.215099,3.215113 1.778351,0 3.215097,-1.439768 3.215097,-3.215113 0,-1.77635 -1.436746,-3.215113 -3.215097,-3.215113 z"
       id="path6872" />
    <path
       fill="#000000"
       fill-opacity="1"
       stroke-linejoin="round"
       stroke="#000000"
       stroke-opacity="1"
       d="m 85.500486,69.435713 2.09986,3.655182 h -4.189674 z"
       id="path6874"
       style="stroke-width:0.100472" />
    <path
       fill="#ffffff"
       fill-opacity="1"
       stroke-width="0.0200944"
       stroke-linejoin="round"
       d="m 59.779703,55.187738 c -1.768303,0 -3.215097,1.438763 -3.215097,3.215113 0,1.775345 1.446794,3.215114 3.215097,3.215114 1.778351,0 3.215099,-1.439769 3.215099,-3.215114 0,-1.77635 -1.436748,-3.215113 -3.215099,-3.215113 z"
       id="path6878" />
    <text
       transform="scale(-0.99999761,1.0000024)"
       xml:space="preserve"
       id="text6882"
       x="-63.473923"
       y="60.10973"
       style="font-size:1.20566px;stroke-width:0.100472">			 <tspan
   style="font-size:4.82266px;font-family:'メイリオ'"
   letter-spacing="0em"
   fill="#000000"
   fill-opacity="1"
   stroke-width="0.0200944"
   stroke-linejoin="round"
   id="tspan6880">X</tspan>		</text>
    <path
       fill="#ffffff"
       fill-opacity="1"
       stroke-width="0.0200944"
       stroke-linejoin="round"
       d="m 75.855192,55.187738 c -1.768303,0 -3.215098,1.438763 -3.215098,3.215113 0,1.775345 1.446795,3.215114 3.215098,3.215114 1.77835,0 3.215098,-1.439769 3.215098,-3.215114 0,-1.77635 -1.436748,-3.215113 -3.215098,-3.215113 z"
       id="path6886" />
    <text
       transform="scale(-0.99999761,1.0000024)"
       xml:space="preserve"
       id="text6890"
       x="-79.549446"
       y="60.10973"
       style="font-size:1.20566px;stroke-width:0.100472">			 <tspan
   style="font-size:4.82266px;font-family:'メイリオ'"
   letter-spacing="0em"
   fill="#000000"
   fill-opacity="1"
   stroke-width="0.0200944"
   stroke-linejoin="round"
   id="tspan6888">X</tspan>		</text>
    <path
       fill="#ffffff"
       fill-opacity="1"
       stroke-width="0.0200944"
       stroke-linejoin="round"
       d="m 46.919312,55.187738 c -1.768303,0 -3.215098,1.438763 -3.215098,3.215113 0,1.775345 1.446795,3.215114 3.215098,3.215114 1.778351,0 3.215098,-1.439769 3.215098,-3.215114 0,-1.77635 -1.436747,-3.215113 -3.215098,-3.215113 z"
       id="path6894" />
    <text
       transform="scale(-0.99999761,1.0000024)"
       xml:space="preserve"
       id="text6898"
       x="-50.613503"
       y="60.10973"
       style="font-size:1.20566px;stroke-width:0.100472">			 <tspan
   style="font-size:4.82266px;font-family:'メイリオ'"
   letter-spacing="0em"
   fill="#000000"
   fill-opacity="1"
   stroke-width="0.0200944"
   stroke-linejoin="round"
   id="tspan6896">X</tspan>		</text>
    <path
       fill="#ffffff"
       fill-opacity="1"
       stroke-width="0.0200944"
       stroke-linejoin="round"
       d="m 59.779703,68.048191 c -1.768303,0 -3.215097,1.438763 -3.215097,3.215113 0,1.775345 1.446794,3.215113 3.215097,3.215113 1.778351,0 3.215099,-1.439768 3.215099,-3.215113 0,-1.77635 -1.436748,-3.215113 -3.215099,-3.215113 z"
       id="path6902" />
    <text
       transform="scale(-0.99999761,1.0000024)"
       xml:space="preserve"
       id="text6906"
       x="-63.473923"
       y="72.970146"
       style="font-size:1.20566px;stroke-width:0.100472">			 <tspan
   style="font-size:4.82266px;font-family:'メイリオ'"
   letter-spacing="0em"
   fill="#000000"
   fill-opacity="1"
   stroke-width="0.0200944"
   stroke-linejoin="round"
   id="tspan6904">X</tspan>		</text>
    <path
       fill="#ffffff"
       fill-opacity="1"
       stroke-width="0.0200944"
       stroke-linejoin="round"
       d="m 75.855192,68.048191 c -1.768303,0 -3.215098,1.438763 -3.215098,3.215113 0,1.775345 1.446795,3.215113 3.215098,3.215113 1.77835,0 3.215098,-1.439768 3.215098,-3.215113 0,-1.77635 -1.436748,-3.215113 -3.215098,-3.215113 z"
       id="path6910" />
    <text
       transform="scale(-0.99999761,1.0000024)"
       xml:space="preserve"
       id="text6914"
       x="-79.549446"
       y="72.970146"
       style="font-size:1.20566px;stroke-width:0.100472">			 <tspan
   style="font-size:4.82266px;font-family:'メイリオ'"
   letter-spacing="0em"
   fill="#000000"
   fill-opacity="1"
   stroke-width="0.0200944"
   stroke-linejoin="round"
   id="tspan6912">X</tspan>		</text>
    <path
       fill="#ffffff"
       fill-opacity="1"
       stroke-width="0.0200944"
       stroke-linejoin="round"
       d="m 46.919312,68.048191 c -1.768303,0 -3.215098,1.438763 -3.215098,3.215113 0,1.775345 1.446795,3.215113 3.215098,3.215113 1.778351,0 3.215098,-1.439768 3.215098,-3.215113 0,-1.77635 -1.436747,-3.215113 -3.215098,-3.215113 z"
       id="path6918" />
    <text
       transform="scale(-0.99999761,1.0000024)"
       xml:space="preserve"
       id="text6922"
       x="-50.613503"
       y="72.970146"
       style="font-size:1.20566px;stroke-width:0.100472">			 <tspan
   style="font-size:4.82266px;font-family:'メイリオ'"
   letter-spacing="0em"
   fill="#000000"
   fill-opacity="1"
   stroke-width="0.0200944"
   stroke-linejoin="round"
   id="tspan6920">X</tspan>		</text>
    <path
       fill="#ffffff"
       fill-opacity="1"
       stroke-width="0.0200944"
       stroke-linejoin="round"
       d="m 59.779703,84.123757 c -1.768303,0 -3.215097,1.438763 -3.215097,3.215113 0,1.775345 1.446794,3.215113 3.215097,3.215113 1.778351,0 3.215099,-1.439768 3.215099,-3.215113 0,-1.77635 -1.436748,-3.215113 -3.215099,-3.215113 z"
       id="path6926" />
    <text
       transform="scale(-0.99999761,1.0000024)"
       xml:space="preserve"
       id="text6930"
       x="-63.473923"
       y="89.045677"
       style="font-size:1.20566px;stroke-width:0.100472">			 <tspan
   style="font-size:4.82266px;font-family:'メイリオ'"
   letter-spacing="0em"
   fill="#000000"
   fill-opacity="1"
   stroke-width="0.0200944"
   stroke-linejoin="round"
   id="tspan6928">X</tspan>		</text>
    <path
       fill="#ffffff"
       fill-opacity="1"
       stroke-width="0.0200944"
       stroke-linejoin="round"
       d="m 75.855192,84.123757 c -1.768303,0 -3.215098,1.438763 -3.215098,3.215113 0,1.775345 1.446795,3.215113 3.215098,3.215113 1.77835,0 3.215098,-1.439768 3.215098,-3.215113 0,-1.77635 -1.436748,-3.215113 -3.215098,-3.215113 z"
       id="path6934" />
    <text
       transform="scale(-0.99999761,1.0000024)"
       xml:space="preserve"
       id="text6938"
       x="-79.549446"
       y="89.045677"
       style="font-size:1.20566px;stroke-width:0.100472">			 <tspan
   style="font-size:4.82266px;font-family:'メイリオ'"
   letter-spacing="0em"
   fill="#000000"
   fill-opacity="1"
   stroke-width="0.0200944"
   stroke-linejoin="round"
   id="tspan6936">X</tspan>		</text>
    <path
       fill="#ffffff"
       fill-opacity="1"
       stroke-width="0.0200944"
       stroke-linejoin="round"
       d="m 46.919312,84.123757 c -1.768303,0 -3.215098,1.438763 -3.215098,3.215113 0,1.775345 1.446795,3.215113 3.215098,3.215113 1.778351,0 3.215098,-1.439768 3.215098,-3.215113 0,-1.77635 -1.436747,-3.215113 -3.215098,-3.215113 z"
       id="path6942" />
    <text
       transform="scale(-0.99999761,1.0000024)"
       xml:space="preserve"
       id="text6946"
       x="-50.613503"
       y="89.045677"
       style="font-size:1.20566px;stroke-width:0.100472">			 <tspan
   style="font-size:4.82266px;font-family:'メイリオ'"
   letter-spacing="0em"
   fill="#000000"
   fill-opacity="1"
   stroke-width="0.0200944"
   stroke-linejoin="round"
   id="tspan6944">X</tspan>		</text>
    <text
       xml:space="preserve"
       id="text6952"
       x="59.632698"
       y="104.19573"
       style="font-size:1.22147px;stroke-width:0.101789">		 <tspan
   style="font-size:3.80014px;font-family:'メイリオ'"
   letter-spacing="0em"
   fill="#000000"
   fill-opacity="1"
   stroke-width="0.0203579"
   stroke-linejoin="round"
   id="tspan6950">Fish</tspan>	</text>
    <text
       xml:space="preserve"
       id="text7304"
       x="114.63556"
       y="104.31776"
       style="font-size:1.22147px;stroke-width:0.101789">		 <tspan
   style="font-size:3.80014px;font-family:'メイリオ'"
   letter-spacing="0em"
   fill="#000000"
   fill-opacity="1"
   stroke-width="0.0203579"
   stroke-linejoin="round"
   id="tspan7302">Finned Fish</tspan>	</text>
    <line
       fill="none"
       stroke-width="0.814314"
       stroke-linejoin="round"
       stroke="#5e5e5e"
       stroke-opacity="1"
       x1="173.90834"
       y1="58.105701"
       x2="164.13657"
       y2="58.105701"
       id="line7036" />
    <path
       fill="#000000"
       fill-opacity="1"
       stroke-linejoin="round"
       d="m 172.38631,68.53428 h -0.81432 V 68.2625 h 0.81432 z m -1.62863,0 h -0.81431 V 68.2625 h 0.81431 z m -1.62863,0 h -0.81432 V 68.2625 h 0.81432 z m -1.62863,0 h -0.81431 V 68.2625 h 0.81431 z m -1.62863,0 h -0.81432 V 68.2625 h 0.81432 z m -1.62863,0 V 68.2625 Z m 9.77178,0 h -0.81431 V 68.2625 h 0.81431 z"
       id="path7040"
       style="stroke-width:0.101789" />
    <text
       xml:space="preserve"
       id="text7044"
       x="177.13499"
       y="59.631519"
       style="font-size:1.22147px;stroke-width:0.101789">		 <tspan
   style="font-size:4.8859px;font-family:'メイリオ'"
   letter-spacing="0em"
   fill="#000000"
   fill-opacity="1"
   stroke-width="0.0203579"
   stroke-linejoin="round"
   id="tspan7042">BaseSet</tspan>	</text>
    <text
       xml:space="preserve"
       id="text7048"
       x="177.13499"
       y="69.912254"
       style="font-size:1.22147px;stroke-width:0.101789">		 <tspan
   style="font-size:4.8859px;font-family:'メイリオ'"
   letter-spacing="0em"
   fill="#000000"
   fill-opacity="1"
   stroke-width="0.0203579"
   stroke-linejoin="round"
   id="tspan7046">CoverSet</tspan>	</text>
    <text
       xml:space="preserve"
       id="text7210"
       x="177.13499"
       y="79.37867"
       style="font-size:1.22147px;stroke-width:0.101789">		 <tspan
   style="font-size:4.8859px;font-family:'メイリオ'"
   letter-spacing="0em"
   fill="#000000"
   fill-opacity="1"
   stroke-width="0.0203579"
   stroke-linejoin="round"
   id="tspan7208">Fin</tspan>	</text>
    <path
       fill="#ffffff"
       fill-opacity="1"
       stroke-width="0.0203579"
       stroke-linejoin="round"
       d="m 170.65097,74.392001 c 1.80167,0 3.25726,1.457625 3.25726,3.257262 0,1.798619 -1.45559,3.257261 -3.25726,3.257261 -1.79149,0 -3.25726,-1.458642 -3.25726,-3.257261 0,-1.799637 1.46577,-3.257262 3.25726,-3.257262 z"
       id="path7308" />
    <text
       transform="scale(-0.99470033,1.0053279)"
       xml:space="preserve"
       id="text7312"
       x="-174.04305"
       y="78.568146"
       style="font-size:1.215px;stroke-width:0.1;stroke-dasharray:none">			 <tspan
   style="font-size:4.86px;font-family:'メイリオ';stroke-width:0.1;stroke-dasharray:none"
   letter-spacing="0em"
   fill="#ff0000"
   fill-opacity="1"
   stroke-width="0.809999"
   stroke-linejoin="round"
   stroke="#ff0000"
   stroke-opacity="1"
   id="tspan7310">X</tspan>		</text>
    <rect
       x="100.77826"
       y="42.333382"
       fill="#ffffff"
       fill-opacity="1"
       stroke-width="0.267282"
       stroke-linejoin="round"
       stroke="#5e5e5e"
       stroke-opacity="1"
       width="57.733929"
       height="57.731846"
       id="rect7212" />
    <path
       fill="#000000"
       fill-opacity="1"
       stroke-linejoin="round"
       d="m 102.52551,58.208333 h 0.80187 v 0.267613 h -0.80187 z m 1.60373,0 h 0.80186 v 0.267613 h -0.80186 z m 1.60372,0 h 0.80186 v 0.267613 h -0.80186 z m 1.60371,0 h 0.80187 v 0.267613 h -0.80187 z m 1.60373,0 h 0.80186 v 0.267613 h -0.80186 z m 1.60372,0 h 0.80186 v 0.267613 h -0.80186 z m 1.60371,0 h 0.80187 v 0.267613 h -0.80187 z m 1.60374,0 h 0.80185 v 0.267613 h -0.80185 z m 1.60372,0 h 0.80185 v 0.267613 h -0.80185 z m 1.60371,0 h 0.80186 v 0.267613 H 116.959 Z m 1.60372,0 h 0.80186 v 0.267613 h -0.80186 z m 1.60372,0 h 0.80186 v 0.267613 h -0.80186 z m 1.60372,0 h 0.80186 v 0.267613 h -0.80186 z m 1.60372,0 h 0.80186 v 0.267613 h -0.80186 z m 1.60372,0 h 0.80187 v 0.267613 h -0.80187 z m 1.60372,0 h 0.80186 v 0.267613 h -0.80186 z m 1.60372,0 h 0.80187 v 0.267613 h -0.80187 z m 1.60372,0 h 0.80187 v 0.267613 h -0.80187 z m 1.60372,0 h 0.80186 v 0.267613 h -0.80186 z m 1.60372,0 h 0.80187 v 0.267613 h -0.80187 z m 1.60372,0 h 0.80186 v 0.267613 h -0.80186 z m 1.60373,0 h 0.80185 v 0.267613 h -0.80185 z m 1.6037,0 h 0.80188 v 0.267613 h -0.80188 z m 1.60374,0 h 0.80185 v 0.267613 h -0.80185 z m 1.60372,0 h 0.80185 v 0.267613 h -0.80185 z m 1.60371,0 h 0.80187 v 0.267613 h -0.80187 z m 1.60373,0 h 0.80186 v 0.267613 h -0.80186 z m 1.60372,0 h 0.80185 v 0.267613 h -0.80185 z m 1.60371,0 h 0.80187 v 0.267613 h -0.80187 z m 1.60373,0 h 0.80186 v 0.267613 h -0.80186 z m 1.60372,0 h 0.80186 v 0.267613 h -0.80186 z m 1.60371,0 h 0.80186 v 0.267613 h -0.80186 z m 1.60374,0 h 0.80185 v 0.267613 h -0.80185 z m 1.6037,0 h 0.80187 v 0.267613 h -0.80187 z m 1.60373,0 h 0.80185 v 0.267613 h -0.80185 z m 1.60373,0 v 0.267613 z m -57.73394,0 h 0.80186 v 0.267613 h -0.80186 z"
       id="path7216"
       style="stroke-width:0.100231" />
    <line
       fill="none"
       stroke-width="0.801844"
       stroke-linejoin="round"
       stroke="#5e5e5e"
       stroke-opacity="1"
       x1="139.26756"
       y1="100.06522"
       x2="139.26756"
       y2="42.333382"
       id="line7218" />
    <path
       fill="#000000"
       fill-opacity="1"
       stroke-linejoin="round"
       d="m 102.61977,87.3125 h 0.80187 v 0.267613 h -0.80187 z m 1.60373,0 h 0.80186 v 0.267613 h -0.80186 z m 1.60372,0 h 0.80186 v 0.267613 h -0.80186 z m 1.60371,0 h 0.80187 v 0.267613 h -0.80187 z m 1.60373,0 h 0.80186 v 0.267613 h -0.80186 z m 1.60372,0 h 0.80186 v 0.267613 h -0.80186 z m 1.60371,0 h 0.80187 v 0.267613 h -0.80187 z m 1.60374,0 h 0.80185 v 0.267613 h -0.80185 z m 1.60372,0 h 0.80185 v 0.267613 h -0.80185 z m 1.60371,0 h 0.80186 v 0.267613 h -0.80186 z m 1.60372,0 h 0.80186 v 0.267613 h -0.80186 z m 1.60372,0 h 0.80186 v 0.267613 h -0.80186 z m 1.60372,0 h 0.80186 v 0.267613 h -0.80186 z m 1.60372,0 H 124.27 v 0.267613 h -0.80186 z m 1.60372,0 h 0.80187 v 0.267613 h -0.80187 z m 1.60372,0 h 0.80186 v 0.267613 h -0.80186 z m 1.60372,0 h 0.80187 v 0.267613 h -0.80187 z m 1.60372,0 h 0.80187 v 0.267613 h -0.80187 z m 1.60372,0 h 0.80186 v 0.267613 h -0.80186 z m 1.60372,0 h 0.80187 v 0.267613 h -0.80187 z m 1.60372,0 h 0.80186 v 0.267613 h -0.80186 z m 1.60373,0 h 0.80185 v 0.267613 h -0.80185 z m 1.6037,0 h 0.80188 v 0.267613 h -0.80188 z m 1.60374,0 h 0.80185 v 0.267613 h -0.80185 z m 1.60372,0 h 0.80185 v 0.267613 h -0.80185 z m 1.60371,0 h 0.80187 v 0.267613 h -0.80187 z m 1.60373,0 h 0.80186 v 0.267613 h -0.80186 z m 1.60372,0 h 0.80185 v 0.267613 h -0.80185 z m 1.60371,0 h 0.80187 v 0.267613 h -0.80187 z m 1.60373,0 h 0.80186 v 0.267613 h -0.80186 z m 1.60372,0 h 0.80186 v 0.267613 h -0.80186 z m 1.60371,0 h 0.80186 v 0.267613 h -0.80186 z m 1.60374,0 h 0.80185 v 0.267613 h -0.80185 z m 1.6037,0 h 0.80187 v 0.267613 h -0.80187 z m 1.60373,0 h 0.80185 v 0.267613 h -0.80185 z m 1.60373,0 v 0.267613 z m -57.73394,0 h 0.80186 v 0.267613 h -0.80186 z"
       id="path7222"
       style="stroke-width:0.100231" />
    <line
       fill="none"
       stroke-width="0.801844"
       stroke-linejoin="round"
       stroke="#5e5e5e"
       stroke-opacity="1"
       x1="123.23037"
       y1="100.06522"
       x2="123.23037"
       y2="42.333382"
       id="line7224" />
    <line
       fill="none"
       stroke-width="0.801844"
       stroke-linejoin="round"
       stroke="#5e5e5e"
       stroke-opacity="1"
       x1="110.40059"
       y1="100.06522"
       x2="110.40059"
       y2="42.333382"
       id="line7226" />
    <path
       fill="#000000"
       fill-opacity="1"
       stroke-linejoin="round"
       d="m 102.61977,71.169885 h 0.80187 v 0.267613 h -0.80187 z m 1.60373,0 h 0.80186 v 0.267613 h -0.80186 z m 1.60372,0 h 0.80186 v 0.267613 h -0.80186 z m 1.60371,0 h 0.80187 v 0.267613 h -0.80187 z m 1.60373,0 h 0.80186 v 0.267613 h -0.80186 z m 1.60372,0 h 0.80186 v 0.267613 h -0.80186 z m 1.60371,0 h 0.80187 v 0.267613 h -0.80187 z m 1.60374,0 h 0.80185 v 0.267613 h -0.80185 z m 1.60372,0 h 0.80185 v 0.267613 h -0.80185 z m 1.60371,0 h 0.80186 v 0.267613 h -0.80186 z m 1.60372,0 h 0.80186 v 0.267613 h -0.80186 z m 1.60372,0 h 0.80186 v 0.267613 h -0.80186 z m 1.60372,0 h 0.80186 v 0.267613 h -0.80186 z m 1.60372,0 H 124.27 v 0.267613 h -0.80186 z m 1.60372,0 h 0.80187 v 0.267613 h -0.80187 z m 1.60372,0 h 0.80186 v 0.267613 h -0.80186 z m 1.60372,0 h 0.80187 v 0.267613 h -0.80187 z m 1.60372,0 h 0.80187 v 0.267613 h -0.80187 z m 1.60372,0 h 0.80186 v 0.267613 h -0.80186 z m 1.60372,0 h 0.80187 v 0.267613 h -0.80187 z m 1.60372,0 h 0.80186 v 0.267613 h -0.80186 z m 1.60373,0 h 0.80185 v 0.267613 h -0.80185 z m 1.6037,0 h 0.80188 v 0.267613 h -0.80188 z m 1.60374,0 h 0.80185 v 0.267613 h -0.80185 z m 1.60372,0 h 0.80185 v 0.267613 h -0.80185 z m 1.60371,0 h 0.80187 v 0.267613 h -0.80187 z m 1.60373,0 h 0.80186 v 0.267613 h -0.80186 z m 1.60372,0 h 0.80185 v 0.267613 h -0.80185 z m 1.60371,0 h 0.80187 v 0.267613 h -0.80187 z m 1.60373,0 h 0.80186 v 0.267613 h -0.80186 z m 1.60372,0 h 0.80186 v 0.267613 h -0.80186 z m 1.60371,0 h 0.80186 v 0.267613 h -0.80186 z m 1.60374,0 h 0.80185 v 0.267613 h -0.80185 z m 1.6037,0 h 0.80187 v 0.267613 h -0.80187 z m 1.60373,0 h 0.80185 v 0.267613 h -0.80185 z m 1.60373,0 v 0.267613 z m -57.73394,0 h 0.80186 v 0.267613 h -0.80186 z"
       id="path7230"
       style="stroke-width:0.100231" />
    <path
       fill="#ffffff"
       fill-opacity="1"
       stroke-width="0.0200461"
       stroke-linejoin="round"
       d="m 145.78261,67.991978 c 1.77411,0 3.20744,1.435277 3.20744,3.207324 0,1.771044 -1.43333,3.207324 -3.20744,3.207324 -1.7641,0 -3.20744,-1.43628 -3.20744,-3.207324 0,-1.772047 1.44334,-3.207324 3.20744,-3.207324 z"
       id="path7232" />
    <path
       fill="#000000"
       fill-opacity="1"
       stroke-linejoin="round"
       stroke="#000000"
       stroke-opacity="1"
       d="m 145.78261,69.376138 -2.08483,3.646328 h 4.17969 z"
       id="path7234"
       style="stroke-width:0.100231" />
    <path
       fill="#ffffff"
       fill-opacity="1"
       stroke-width="0.0200461"
       stroke-linejoin="round"
       d="m 123.23029,55.162679 c 1.77412,0 3.20744,1.435277 3.20744,3.207324 0,1.771044 -1.43332,3.207325 -3.20744,3.207325 -1.7641,0 -3.20744,-1.436281 -3.20744,-3.207325 0,-1.772047 1.44334,-3.207324 3.20744,-3.207324 z"
       id="path7238" />
    <text
       transform="scale(-1.0000181,0.99998191)"
       xml:space="preserve"
       id="text7242"
       x="-126.91831"
       y="60.073978"
       style="font-size:1.20277px;stroke-width:0.100231">			 <tspan
   style="font-size:4.81108px;font-family:'メイリオ'"
   letter-spacing="0em"
   fill="#000000"
   fill-opacity="1"
   stroke-width="0.0200461"
   stroke-linejoin="round"
   id="tspan7240">X</tspan>		</text>
    <path
       fill="#ffffff"
       fill-opacity="1"
       stroke-width="0.0200461"
       stroke-linejoin="round"
       d="m 139.2675,55.162679 c 1.77411,0 3.20743,1.435277 3.20743,3.207324 0,1.771044 -1.43332,3.207325 -3.20743,3.207325 -1.7641,0 -3.20745,-1.436281 -3.20745,-3.207325 0,-1.772047 1.44335,-3.207324 3.20745,-3.207324 z"
       id="path7246" />
    <text
       transform="scale(-1.0000181,0.99998191)"
       xml:space="preserve"
       id="text7250"
       x="-142.95523"
       y="60.073978"
       style="font-size:1.20277px;stroke-width:0.100231">			 <tspan
   style="font-size:4.81108px;font-family:'メイリオ'"
   letter-spacing="0em"
   fill="#000000"
   fill-opacity="1"
   stroke-width="0.0200461"
   stroke-linejoin="round"
   id="tspan7248">X</tspan>		</text>
    <path
       fill="#ffffff"
       fill-opacity="1"
       stroke-width="0.0200461"
       stroke-linejoin="round"
       d="m 110.40053,55.162679 c 1.77412,0 3.20744,1.435277 3.20744,3.207324 0,1.771044 -1.43332,3.207325 -3.20744,3.207325 -1.76409,0 -3.20745,-1.436281 -3.20745,-3.207325 0,-1.772047 1.44336,-3.207324 3.20745,-3.207324 z"
       id="path7254" />
    <text
       transform="scale(-1.0000181,0.99998191)"
       xml:space="preserve"
       id="text7258"
       x="-114.08879"
       y="60.073978"
       style="font-size:1.20277px;stroke-width:0.100231">			 <tspan
   style="font-size:4.81108px;font-family:'メイリオ'"
   letter-spacing="0em"
   fill="#000000"
   fill-opacity="1"
   stroke-width="0.0200461"
   stroke-linejoin="round"
   id="tspan7256">X</tspan>		</text>
    <path
       fill="#ffffff"
       fill-opacity="1"
       stroke-width="0.0200461"
       stroke-linejoin="round"
       d="m 123.23029,67.991978 c 1.77412,0 3.20744,1.435277 3.20744,3.207324 0,1.771044 -1.43332,3.207324 -3.20744,3.207324 -1.7641,0 -3.20744,-1.43628 -3.20744,-3.207324 0,-1.772047 1.44334,-3.207324 3.20744,-3.207324 z"
       id="path7262" />
    <text
       transform="scale(-1.0000181,0.99998191)"
       xml:space="preserve"
       id="text7266"
       x="-126.91831"
       y="72.903503"
       style="font-size:1.20277px;stroke-width:0.100231">			 <tspan
   style="font-size:4.81108px;font-family:'メイリオ'"
   letter-spacing="0em"
   fill="#000000"
   fill-opacity="1"
   stroke-width="0.0200461"
   stroke-linejoin="round"
   id="tspan7264">X</tspan>		</text>
    <path
       fill="#ffffff"
       fill-opacity="1"
       stroke-width="0.0200461"
       stroke-linejoin="round"
       d="m 110.40053,67.991978 c 1.77412,0 3.20744,1.435277 3.20744,3.207324 0,1.771044 -1.43332,3.207324 -3.20744,3.207324 -1.76409,0 -3.20745,-1.43628 -3.20745,-3.207324 0,-1.772047 1.44336,-3.207324 3.20745,-3.207324 z"
       id="path7270" />
    <text
       transform="scale(-1.0000181,0.99998191)"
       xml:space="preserve"
       id="text7274"
       x="-114.08879"
       y="72.903503"
       style="font-size:1.20277px;stroke-width:0.100231">			 <tspan
   style="font-size:4.81108px;font-family:'メイリオ'"
   letter-spacing="0em"
   fill="#000000"
   fill-opacity="1"
   stroke-width="0.0200461"
   stroke-linejoin="round"
   id="tspan7272">X</tspan>		</text>
    <path
       fill="#ffffff"
       fill-opacity="1"
       stroke-width="0.0200461"
       stroke-linejoin="round"
       d="m 123.23029,84.028601 c 1.77412,0 3.20744,1.435277 3.20744,3.207324 0,1.771044 -1.43332,3.207325 -3.20744,3.207325 -1.7641,0 -3.20744,-1.436281 -3.20744,-3.207325 0,-1.772047 1.44334,-3.207324 3.20744,-3.207324 z"
       id="path7278" />
    <text
       transform="scale(-1.0000181,0.99998191)"
       xml:space="preserve"
       id="text7282"
       x="-126.91831"
       y="88.940422"
       style="font-size:1.20277px;stroke-width:0.100231">			 <tspan
   style="font-size:4.81108px;font-family:'メイリオ'"
   letter-spacing="0em"
   fill="#000000"
   fill-opacity="1"
   stroke-width="0.0200461"
   stroke-linejoin="round"
   id="tspan7280">X</tspan>		</text>
    <path
       fill="#ffffff"
       fill-opacity="1"
       stroke-width="0.0200461"
       stroke-linejoin="round"
       d="m 139.2675,84.028601 c 1.77411,0 3.20743,1.435277 3.20743,3.207324 0,1.771044 -1.43332,3.207325 -3.20743,3.207325 -1.7641,0 -3.20745,-1.436281 -3.20745,-3.207325 0,-1.772047 1.44335,-3.207324 3.20745,-3.207324 z"
       id="path7286" />
    <text
       transform="scale(-1.0000181,0.99998191)"
       xml:space="preserve"
       id="text7290"
       x="-142.95523"
       y="88.940422"
       style="font-size:1.20277px;stroke-width:0.100231">			 <tspan
   style="font-size:4.81108px;font-family:'メイリオ'"
   letter-spacing="0em"
   fill="#000000"
   fill-opacity="1"
   stroke-width="0.0200461"
   stroke-linejoin="round"
   id="tspan7288">X</tspan>		</text>
    <path
       fill="#ffffff"
       fill-opacity="1"
       stroke-width="0.0200461"
       stroke-linejoin="round"
       d="m 110.40053,84.028601 c 1.77412,0 3.20744,1.435277 3.20744,3.207324 0,1.771044 -1.43332,3.207325 -3.20744,3.207325 -1.76409,0 -3.20745,-1.436281 -3.20745,-3.207325 0,-1.772047 1.44336,-3.207324 3.20745,-3.207324 z"
       id="path7294" />
    <text
       transform="scale(-1.0000181,0.99998191)"
       xml:space="preserve"
       id="text7298"
       x="-114.08879"
       y="88.940422"
       style="font-size:1.20277px;stroke-width:0.100231">			 <tspan
   style="font-size:4.81108px;font-family:'メイリオ'"
   letter-spacing="0em"
   fill="#000000"
   fill-opacity="1"
   stroke-width="0.0200461"
   stroke-linejoin="round"
   id="tspan7296">X</tspan>		</text>
    <path
       fill="#ff0000"
       fill-opacity="1"
       stroke-linejoin="round"
       d="m 142.70556,65.36651 0.28085,0.04379 0.37171,0.09511 -0.0413,0.216676 -0.37171,-0.09594 -0.26434,-0.03973 z m 1.29687,0.331632 0.48736,0.178635 0.14042,0.06614 -0.0909,0.20344 -0.13217,-0.06614 -0.47083,-0.171194 z m 1.23077,0.540857 0.5617,0.34321 -0.10739,0.194341 -0.56169,-0.34403 z m 1.10689,0.741001 0.12389,0.09676 0.37998,0.343211 -0.14043,0.170356 -0.37997,-0.344029 -0.10737,-0.08353 z m 0.9747,0.920448 0.23955,0.261338 0.18998,0.255544 -0.17347,0.139761 -0.18998,-0.254717 -0.22302,-0.246444 z m 0.80952,1.066839 0.2891,0.471392 0.0497,0.108334 -0.18999,0.105856 -0.0577,-0.109162 -0.27258,-0.453201 z m 0.62778,1.185922 0.23129,0.621901 -0.20652,0.08601 -0.22302,-0.62191 z m 0.40474,1.269444 0.0578,0.219162 0.066,0.441615 -0.21477,0.04379 -0.066,-0.440795 -0.0497,-0.197648 z m 0.19826,1.328997 0.0247,0.504475 -0.008,0.167051 h -0.22302 l 0.008,-0.167051 -0.0247,-0.482148 z m -0.0248,1.343881 -0.0992,0.653335 -0.21477,-0.02234 0.0992,-0.653335 z m -0.25607,1.307491 -0.058,0.234047 -0.14869,0.404404 -0.20649,-0.06533 0.14868,-0.404404 0.0497,-0.212541 z m -0.46258,1.257875 -0.19823,0.411845 -0.11566,0.184421 -0.18998,-0.105855 0.10738,-0.183602 0.18999,-0.392826 z m -0.66907,1.164415 -0.38823,0.524325 -0.0165,0.01324 -0.16521,-0.140596 0.008,-0.01244 0.37998,-0.507783 z m -0.85081,1.027142 -0.0579,0.06614 -0.42954,0.391998 -0.15695,-0.156303 0.42954,-0.391997 0.0497,-0.05046 z m -1.016,0.874139 -0.22304,0.169537 -0.33041,0.201783 -0.12391,-0.182764 0.33041,-0.201791 0.20651,-0.157122 z m -1.13994,0.696339 -0.44604,0.211712 -0.17348,0.06288 -0.0826,-0.202622 0.17348,-0.0637 0.42127,-0.202619 z m -1.2473,0.499503 -0.6443,0.164573 -0.066,-0.210883 0.6443,-0.164574 z m -1.30513,0.271258 -0.18998,0.02892 -0.47909,0.02397 -0.0248,-0.219154 0.48734,-0.02397 0.16522,-0.02559 z m -1.33816,0.05378 -0.48735,-0.02478 -0.18171,-0.02812 0.0166,-0.219983 0.18997,0.02893 0.46258,0.02315 z m -1.32992,-0.160446 -0.64429,-0.164572 0.0413,-0.215848 0.6443,0.164573 z m -1.28032,-0.38869 -0.17347,-0.0637 -0.43779,-0.211712 0.0909,-0.202621 0.43779,0.210892 0.14867,0.05622 z m -1.19774,-0.599576 -0.33042,-0.202611 -0.22302,-0.168709 0.11564,-0.182772 0.23129,0.168708 0.31389,0.191043 z m -1.0821,-0.788131 -0.42953,-0.391997 -0.066,-0.06614 0.15695,-0.15548 0.066,0.06533 0.413,0.378762 z m -0.93341,-0.947747 -0.0166,-0.01325 -0.38824,-0.523495 0.16521,-0.140589 0.39648,0.524324 -0.008,-0.0025 z m -0.76821,-1.104872 -0.10738,-0.185249 -0.19825,-0.411018 0.18999,-0.105035 0.19823,0.411017 0.10739,0.16623 z m -0.56169,-1.21487 -0.1487,-0.406052 -0.066,-0.23239 0.21477,-0.06614 0.0579,0.233218 0.14042,0.385385 z m -0.36346,-1.292606 -0.10738,-0.654156 0.22303,-0.04379 0.0992,0.654156 z m -0.14043,-1.32569 -0.008,-0.1687 0.0247,-0.502819 h 0.22303 l -0.0247,0.502819 0.008,0.146373 z m 0.0909,-1.339738 0.066,-0.443272 0.0497,-0.217506 0.22302,0.04379 -0.0579,0.218325 -0.066,0.420117 z m 0.29737,-1.309149 0.22302,-0.62108 0.21478,0.06533 -0.23131,0.621081 z m 0.5204,-1.228097 0.0497,-0.109162 0.28083,-0.470564 0.19825,0.105027 -0.2891,0.470563 -0.0413,0.09015 z m 0.71863,-1.130512 0.19,-0.255544 0.23954,-0.261337 0.16521,0.140589 -0.23129,0.261338 -0.18172,0.239001 z m 0.90038,-0.996544 0.37171,-0.34403 0.13217,-0.09676 0.14042,0.170358 -0.13217,0.09594 -0.36344,0.329975 z m 1.0408,-0.837749 0.56995,-0.344037 0.1239,0.182771 -0.56996,0.34403 z m 1.17295,-0.639279 0.13217,-0.06695 0.48736,-0.177809 0.0909,0.202613 -0.48734,0.178636 -0.12392,0.05703 z m 1.26383,-0.43748 0.3717,-0.09594 0.28912,-0.04379 0.0413,0.216676 -0.28085,0.04298 -0.35519,0.09015 z m 1.32163,-0.224947 0.66084,-0.03388 0.66081,0.03388 v 0.219983 l -0.66085,-0.03307 -0.63605,0.03225 z"
       id="path7306"
       style="stroke-width:0.0826517" />
    <path
       fill="#ffffff"
       fill-opacity="1"
       stroke-width="0.0200461"
       stroke-linejoin="round"
       d="m 139.2675,73.103651 c 1.77411,0 3.20743,1.435277 3.20743,3.207324 0,1.771045 -1.43332,3.207325 -3.20743,3.207325 -1.7641,0 -3.20745,-1.43628 -3.20745,-3.207325 0,-1.772047 1.44335,-3.207324 3.20745,-3.207324 z"
       id="path7404" />
    <text
       transform="scale(-1.0000181,0.99998191)"
       xml:space="preserve"
       id="text7408"
       x="-142.95523"
       y="77.915039"
       style="font-size:1.20277px;stroke-width:0.1;stroke-dasharray:none">			 <tspan
   style="font-size:4.81108px;font-family:'メイリオ';stroke-width:0.1;stroke-dasharray:none"
   letter-spacing="0em"
   fill="#ff0000"
   fill-opacity="1"
   stroke-width="0.801845"
   stroke-linejoin="round"
   stroke="#ff0000"
   stroke-opacity="1"
   id="tspan7406">X</tspan>		</text>
    <path
       fill="#000000"
       fill-opacity="1"
       stroke-linejoin="round"
       d="M 92.537034,87.580763 H 91.733259 V 87.3125 h 0.803775 z m -1.607549,0 H 90.12571 V 87.3125 h 0.803775 z m -1.607549,0 H 88.518161 V 87.3125 h 0.803775 z m -1.607549,0 H 86.910612 V 87.3125 h 0.803775 z m -1.607549,0 H 85.303063 V 87.3125 h 0.803775 z m -1.607549,0 H 83.695514 V 87.3125 h 0.803775 z m -1.607549,0 H 82.087965 V 87.3125 h 0.803775 z m -1.607548,0 H 80.480417 V 87.3125 h 0.803775 z m -1.60755,0 H 78.872868 V 87.3125 h 0.803774 z m -1.607549,0 H 77.265319 V 87.3125 h 0.803774 z m -1.607548,0 H 75.65777 V 87.3125 h 0.803775 z m -1.607549,0 H 74.050221 V 87.3125 h 0.803775 z m -1.60755,0 H 72.442673 V 87.3125 h 0.803773 z m -1.607549,0 H 70.835124 V 87.3125 h 0.803773 z m -1.607548,0 H 69.227574 V 87.3125 h 0.803775 z m -1.607549,0 H 67.620025 V 87.3125 H 68.4238 Z m -1.607549,0 H 66.012477 V 87.3125 h 0.803774 z m -1.607548,0 H 64.404928 V 87.3125 h 0.803775 z m -1.607549,0 H 62.797378 V 87.3125 h 0.803776 z m -1.607549,0 H 61.18983 V 87.3125 h 0.803775 z m -1.607549,0 H 59.582285 V 87.3125 h 0.803771 z m -1.60755,0 H 57.974737 V 87.3125 h 0.803769 z m -1.607548,0 h -0.80378 V 87.3125 h 0.80378 z m -1.607548,0 H 54.75963 V 87.3125 h 0.80378 z m -1.607548,0 H 53.152083 V 87.3125 h 0.803779 z m -1.607549,0 H 51.544535 V 87.3125 h 0.803778 z m -1.607548,0 H 49.936987 V 87.3125 h 0.803778 z m -1.607548,0 H 48.329438 V 87.3125 h 0.803779 z m -1.607548,0 H 46.72189 V 87.3125 h 0.803779 z m -1.607559,0 H 45.114342 V 87.3125 h 0.803768 z m -1.607538,0 H 43.506794 V 87.3125 h 0.803778 z m -1.607558,0 H 41.899245 V 87.3125 h 0.803769 z m -1.607548,0 H 40.291697 V 87.3125 h 0.803769 z m -1.607548,0 H 38.684149 V 87.3125 h 0.803769 z m -1.607548,0 H 37.076591 V 87.3125 h 0.803779 z m -1.607548,0 V 87.3125 Z m 57.87176,0 H 93.340808 V 87.3125 h 0.803774 z"
       id="path6862"
       style="stroke-width:0.100472" />
  </g>
</svg>
