<?xml version="1.0" encoding="UTF-8" standalone="no"?>
<!-- Created with Inkscape (http://www.inkscape.org/) -->

<svg
   width="71.630379mm"
   height="42.421997mm"
   viewBox="0 0 71.630379 42.421997"
   version="1.1"
   id="svg25398"
   inkscape:version="1.2.2 (732a01da63, 2022-12-09)"
   sodipodi:docname="image28.svg"
   xmlns:inkscape="http://www.inkscape.org/namespaces/inkscape"
   xmlns:sodipodi="http://sodipodi.sourceforge.net/DTD/sodipodi-0.dtd"
   xmlns="http://www.w3.org/2000/svg"
   xmlns:svg="http://www.w3.org/2000/svg">
  <sodipodi:namedview
     id="namedview25400"
     pagecolor="#ffffff"
     bordercolor="#000000"
     borderopacity="0.25"
     inkscape:showpageshadow="2"
     inkscape:pageopacity="0.0"
     inkscape:pagecheckerboard="0"
     inkscape:deskcolor="#d1d1d1"
     inkscape:document-units="mm"
     showgrid="false"
     inkscape:zoom="0.914906"
     inkscape:cx="596.23611"
     inkscape:cy="427.91281"
     inkscape:window-width="1786"
     inkscape:window-height="1230"
     inkscape:window-x="1836"
     inkscape:window-y="661"
     inkscape:window-maximized="0"
     inkscape:current-layer="layer1" />
  <defs
     id="defs25395" />
  <g
     inkscape:label="Layer 1"
     inkscape:groupmode="layer"
     id="layer1"
     transform="translate(-23.902921,-129.16875)">
    <g
       id="g30993"
       inkscape:export-filename="img28g1.png"
       inkscape:export-xdpi="96"
       inkscape:export-ydpi="96">
      <g
         id="g30276"
         transform="translate(1.7387864,7.6113427)">
        <text
           xml:space="preserve"
           id="text6734"
           x="32.048073"
           y="146.18935"
           style="font-size:1.01216px;stroke-width:0.0843467">				 <tspan
   style="font-size:4.04864px;font-family:'メイリオ'"
   letter-spacing="0em"
   fill="#000000"
   fill-opacity="1"
   stroke-width="0.0168693"
   stroke-linejoin="round"
   id="tspan6732">-n</tspan>			</text>
        <text
           xml:space="preserve"
           id="text6738"
           x="31.176926"
           y="129.97224"
           style="font-size:1.01216px;stroke-width:0.0843467">				 <tspan
   style="font-size:4.04864px;font-family:'メイリオ'"
   letter-spacing="0em"
   fill="#000000"
   fill-opacity="1"
   stroke-width="0.0168693"
   stroke-linejoin="round"
   id="tspan6736">n</tspan>			</text>
        <path
           fill="#ffffff"
           fill-opacity="1"
           stroke-width="0.224925"
           stroke-linejoin="round"
           stroke="#000000"
           stroke-opacity="1"
           d="m 51.369099,150.5191 h 13.49548 c 0.75069,0 1.34955,0.6073 1.34955,1.34955 v 2.25206 c 0,0.74225 -0.59886,1.34955 -1.34955,1.34955 h -13.49548 c -0.74225,0 -1.34954,-0.6073 -1.34954,-1.34955 v -2.25206 c 0,-0.74225 0.60729,-1.34955 1.34954,-1.34955 z"
           id="path6740" />
        <text
           xml:space="preserve"
           id="text6744"
           x="49.710136"
           y="154.09541"
           style="font-size:1.01216px;stroke-width:0.0843467">					 <tspan
   style="font-size:4.04864px;font-family:'メイリオ'"
   letter-spacing="0em"
   fill="#000000"
   fill-opacity="1"
   stroke-width="0.0168693"
   stroke-linejoin="round"
   id="tspan6742">m</tspan>				</text>
        <text
           xml:space="preserve"
           id="text6748"
           x="57.63871"
           y="154.2641"
           style="font-size:1.01216px;stroke-width:0.0843467">					 <tspan
   style="font-size:4.04864px;font-family:'メイリオ'"
   letter-spacing="0em"
   fill="#000000"
   fill-opacity="1"
   stroke-width="0.0168693"
   stroke-linejoin="round"
   id="tspan6746">m</tspan>				</text>
        <line
           fill="none"
           stroke-width="0.0168693"
           stroke-linejoin="round"
           x1="33.33577"
           y1="132.67134"
           x2="33.33577"
           y2="140.76862"
           id="line6752" />
        <line
           fill="none"
           stroke-width="0.224925"
           stroke-linejoin="round"
           stroke="#000000"
           stroke-opacity="1"
           x1="34.592567"
           y1="131.02657"
           x2="34.592567"
           y2="142.12657"
           id="line6754" />
        <line
           fill="none"
           stroke-width="0.674774"
           stroke-linejoin="round"
           stroke="#000000"
           stroke-opacity="1"
           x1="38.706467"
           y1="146.09714"
           x2="50.101677"
           y2="151.50374"
           id="line6756" />
        <text
           xml:space="preserve"
           id="text6762"
           x="78.334755"
           y="154.68584"
           style="font-size:1.01216px;stroke-width:0.0843467">				 <tspan
   style="font-size:4.04864px;font-family:'メイリオ'"
   letter-spacing="0em"
   fill="#000000"
   fill-opacity="1"
   stroke-width="0.0168693"
   stroke-linejoin="round"
   id="tspan6760">-m</tspan>			</text>
        <rect
           x="30.012703"
           y="140.4395"
           fill="none"
           stroke-width="0.224925"
           stroke-linejoin="round"
           stroke="#000000"
           stroke-opacity="1"
           width="37.637371"
           height="17.309721"
           id="rect6764" />
        <path
           fill="#000000"
           fill-opacity="1"
           stroke-width="0.0168693"
           stroke-linejoin="round"
           d="m 56.893819,138.37942 -0.53139,-1.36641 -0.53138,1.36641 z m 0.42173,1.09651 -0.30365,-0.79286 h -1.29894 l -0.30365,0.79286 h -0.37112 l 1.0965,-2.79188 h 0.47235 l 1.0965,2.79188 z"
           id="path6766" />
        <path
           fill="#000000"
           fill-opacity="1"
           stroke-width="0.0168693"
           stroke-linejoin="round"
           d="m 59.972469,139.47593 h -1.86406 v -2.79188 h 0.37112 v 2.48823 h 1.49294 z"
           id="path6768" />
        <path
           fill="#000000"
           fill-opacity="1"
           stroke-width="0.0168693"
           stroke-linejoin="round"
           d="m 61.288279,139.55184 c -0.32895,0 -0.67477,-0.0759 -1.02903,-0.22773 v -0.4133 h 0.0253 c 0.29522,0.22774 0.63261,0.33739 1.01217,0.33739 0.22773,0 0.41329,-0.0422 0.54825,-0.13496 0.12652,-0.0928 0.194,-0.21087 0.194,-0.36269 0,-0.11809 -0.0253,-0.21087 -0.0844,-0.27834 -0.059,-0.0675 -0.15182,-0.12652 -0.29521,-0.16026 l -0.65791,-0.12652 c -0.2446,-0.0506 -0.43017,-0.14339 -0.55669,-0.26991 -0.12652,-0.12652 -0.18556,-0.29522 -0.18556,-0.49765 0,-0.23617 0.0928,-0.43017 0.28678,-0.58199 0.194,-0.15183 0.44704,-0.22774 0.75912,-0.22774 0.32895,0 0.64947,0.0675 0.97842,0.20244 v 0.40486 h -0.0253 c -0.26991,-0.20243 -0.59043,-0.30365 -0.96155,-0.30365 -0.20244,0 -0.3627,0.0422 -0.48922,0.12652 -0.12652,0.0844 -0.18556,0.20243 -0.18556,0.33739 0,0.23617 0.14339,0.38799 0.43017,0.45547 0.16026,0.0253 0.34582,0.0675 0.54825,0.10965 0.20244,0.0422 0.34583,0.0844 0.43017,0.13496 0.0844,0.0422 0.16026,0.10121 0.21087,0.16025 0.059,0.0591 0.0928,0.12653 0.11808,0.20244 0.0337,0.0759 0.0422,0.16026 0.0422,0.25304 0,0.2446 -0.10122,0.45547 -0.30365,0.61573 -0.20243,0.16026 -0.47234,0.2446 -0.80973,0.2446 z"
           id="path6770" />
        <text
           xml:space="preserve"
           id="text6776"
           x="32.863861"
           y="136.38258"
           style="font-size:1.01216px;stroke-width:0.0843467">				 <tspan
   style="font-size:2.6991px;font-family:'メイリオ'"
   letter-spacing="0em"
   fill="#000000"
   fill-opacity="1"
   stroke-width="0.0168693"
   stroke-linejoin="round"
   id="tspan6774">W</tspan>			</text>
        <text
           xml:space="preserve"
           id="text6780"
           x="71.08094"
           y="152.15543"
           style="font-size:1.01216px;stroke-width:0.0843467">				 <tspan
   style="font-size:2.6991px;font-family:'メイリオ'"
   letter-spacing="0em"
   fill="#000000"
   fill-opacity="1"
   stroke-width="0.0168693"
   stroke-linejoin="round"
   id="tspan6778">W</tspan>			</text>
        <text
           xml:space="preserve"
           id="text6784"
           x="42.295624"
           y="147.96117"
           style="font-size:1.01216px;stroke-width:0.0843467">				 <tspan
   style="font-size:2.6991px;font-family:'メイリオ'"
   letter-spacing="0em"
   fill="#000000"
   fill-opacity="1"
   stroke-width="0.0168693"
   stroke-linejoin="round"
   id="tspan6782">S</tspan>			</text>
        <path
           fill="none"
           stroke-width="0.244446"
           stroke-linejoin="round"
           stroke="#000000"
           stroke-opacity="1"
           d="m 35.142088,142.57497 h 3.200551 c 0.88017,0 1.60029,0.6049 1.60029,1.34423 v 2.24317 c 0,0.73932 -0.72012,1.34423 -1.60029,1.34423 h -3.200551 c -0.890155,0 -1.600279,-0.60491 -1.600279,-1.34423 v -2.24317 c 0,-0.73933 0.710124,-1.34423 1.600279,-1.34423 z"
           id="path6786" />
        <line
           fill="none"
           stroke-width="0.237158"
           stroke-linejoin="round"
           stroke="#000000"
           stroke-opacity="1"
           x1="65.320076"
           y1="153.06636"
           x2="79.320076"
           y2="153.06636"
           id="line6758" />
      </g>
      <rect
         style="fill:none;stroke:#000000;stroke-width:0.2;stroke-opacity:1"
         id="rect30388"
         width="71.430374"
         height="42.222008"
         x="24.002922"
         y="129.26874" />
    </g>
  </g>
</svg>
