<?xml version="1.0" encoding="UTF-8" standalone="no"?>
<!-- Created with Inkscape (http://www.inkscape.org/) -->

<svg
   width="71.630379mm"
   height="42.421997mm"
   viewBox="0 0 71.630379 42.421997"
   version="1.1"
   id="svg25398"
   inkscape:version="1.2.2 (732a01da63, 2022-12-09)"
   sodipodi:docname="image28.svg"
   xmlns:inkscape="http://www.inkscape.org/namespaces/inkscape"
   xmlns:sodipodi="http://sodipodi.sourceforge.net/DTD/sodipodi-0.dtd"
   xmlns="http://www.w3.org/2000/svg"
   xmlns:svg="http://www.w3.org/2000/svg">
  <sodipodi:namedview
     id="namedview25400"
     pagecolor="#ffffff"
     bordercolor="#000000"
     borderopacity="0.25"
     inkscape:showpageshadow="2"
     inkscape:pageopacity="0.0"
     inkscape:pagecheckerboard="0"
     inkscape:deskcolor="#d1d1d1"
     inkscape:document-units="mm"
     showgrid="false"
     inkscape:zoom="0.914906"
     inkscape:cx="596.23611"
     inkscape:cy="427.91281"
     inkscape:window-width="1786"
     inkscape:window-height="1230"
     inkscape:window-x="1836"
     inkscape:window-y="661"
     inkscape:window-maximized="0"
     inkscape:current-layer="layer1" />
  <defs
     id="defs25395" />
  <g
     inkscape:label="Layer 1"
     inkscape:groupmode="layer"
     id="layer1"
     transform="translate(-108.92531,-129.16875)">
    <g
       id="g31023"
       inkscape:export-filename="img28g2.png"
       inkscape:export-xdpi="96"
       inkscape:export-ydpi="96">
      <g
         id="g30304"
         transform="translate(6.8250291,5.239151)">
        <text
           xml:space="preserve"
           id="text6616"
           x="111.59633"
           y="149.9263"
           style="font-size:1.01216px;stroke-width:0.0843467">				 <tspan
   style="font-size:4.04864px;font-family:'メイリオ'"
   letter-spacing="0em"
   fill="#000000"
   fill-opacity="1"
   stroke-width="0.0168693"
   stroke-linejoin="round"
   id="tspan6614">-n</tspan>			</text>
        <text
           xml:space="preserve"
           id="text6620"
           x="111.76245"
           y="133.73174"
           style="font-size:1.01216px;stroke-width:0.0843467">				 <tspan
   style="font-size:4.04864px;font-family:'メイリオ'"
   letter-spacing="0em"
   fill="#000000"
   fill-opacity="1"
   stroke-width="0.0168693"
   stroke-linejoin="round"
   id="tspan6618">n</tspan>			</text>
        <line
           fill="none"
           stroke-width="0.0168693"
           stroke-linejoin="round"
           x1="112.86293"
           y1="136.43083"
           x2="112.86293"
           y2="144.52811"
           id="line6622" />
        <line
           fill="none"
           stroke-width="0.224925"
           stroke-linejoin="round"
           stroke="#000000"
           stroke-opacity="1"
           x1="115.70721"
           y1="134.78606"
           x2="115.70721"
           y2="145.88606"
           id="line6624" />
        <line
           fill="none"
           stroke-width="0.51031"
           stroke-linejoin="round"
           stroke="#000000"
           stroke-opacity="1"
           x1="118.36176"
           y1="153.57141"
           x2="129.18239"
           y2="155.72758"
           id="line6626" />
        <line
           fill="none"
           stroke-width="0.235001"
           stroke-linejoin="round"
           stroke="#000000"
           stroke-opacity="1"
           x1="137.87793"
           y1="156.82585"
           x2="159.80975"
           y2="156.82585"
           id="line6628" />
        <text
           xml:space="preserve"
           id="text6632"
           x="157.86192"
           y="157.91617"
           style="font-size:1.01216px;stroke-width:0.0843467">				 <tspan
   style="font-size:4.04864px;font-family:'メイリオ'"
   letter-spacing="0em"
   fill="#000000"
   fill-opacity="1"
   stroke-width="0.0168693"
   stroke-linejoin="round"
   id="tspan6630">-m</tspan>			</text>
        <rect
           x="110.35782"
           y="143.38103"
           fill="none"
           stroke-width="0.224925"
           stroke-linejoin="round"
           stroke="#000000"
           stroke-opacity="1"
           width="37.637371"
           height="17.309721"
           id="rect6634" />
        <path
           fill="#000000"
           fill-opacity="1"
           stroke-width="0.0168693"
           stroke-linejoin="round"
           d="m 136.42097,141.60972 -0.53138,-1.36641 -0.53138,1.36641 z m 0.42174,1.09651 -0.30365,-0.79286 h -1.29894 l -0.30365,0.79286 h -0.37112 l 1.0965,-2.79188 h 0.47235 l 1.0965,2.79188 z"
           id="path6636" />
        <path
           fill="#000000"
           fill-opacity="1"
           stroke-width="0.0168693"
           stroke-linejoin="round"
           d="m 139.49963,142.70623 h -1.86406 v -2.79188 h 0.37112 v 2.48823 h 1.49294 z"
           id="path6638" />
        <path
           fill="#000000"
           fill-opacity="1"
           stroke-width="0.0168693"
           stroke-linejoin="round"
           d="m 140.81544,142.78214 c -0.32895,0 -0.67477,-0.0759 -1.02903,-0.22773 v -0.4133 h 0.0253 c 0.29522,0.22774 0.6326,0.33739 1.01216,0.33739 0.22774,0 0.4133,-0.0422 0.54826,-0.13496 0.12652,-0.0928 0.194,-0.21087 0.194,-0.36269 0,-0.11809 -0.0253,-0.21087 -0.0844,-0.27834 -0.059,-0.0675 -0.15182,-0.12652 -0.29521,-0.16026 l -0.65791,-0.12652 c -0.2446,-0.0506 -0.43017,-0.14339 -0.55669,-0.26991 -0.12652,-0.12652 -0.18556,-0.29522 -0.18556,-0.49765 0,-0.23617 0.0928,-0.43017 0.28678,-0.58199 0.194,-0.15183 0.44704,-0.22774 0.75912,-0.22774 0.32895,0 0.64947,0.0675 0.97842,0.20244 v 0.40486 h -0.0253 c -0.26991,-0.20243 -0.59043,-0.30365 -0.96156,-0.30365 -0.20243,0 -0.36269,0.0422 -0.48921,0.12652 -0.12652,0.0844 -0.18556,0.20243 -0.18556,0.33739 0,0.23617 0.14339,0.38799 0.43017,0.45547 0.16026,0.0253 0.34582,0.0675 0.54825,0.10965 0.20244,0.0422 0.34582,0.0844 0.43017,0.13496 0.0844,0.0422 0.16026,0.10121 0.21087,0.16025 0.059,0.059 0.0928,0.12653 0.11808,0.20244 0.0337,0.0759 0.0422,0.16026 0.0422,0.25304 0,0.2446 -0.10122,0.45547 -0.30365,0.61573 -0.20243,0.16026 -0.47234,0.2446 -0.80973,0.2446 z"
           id="path6640" />
        <text
           xml:space="preserve"
           id="text6646"
           x="113.97853"
           y="140.14207"
           style="font-size:1.01216px;stroke-width:0.0843467">				 <tspan
   style="font-size:2.6991px;font-family:'メイリオ'"
   letter-spacing="0em"
   fill="#000000"
   fill-opacity="1"
   stroke-width="0.0168693"
   stroke-linejoin="round"
   id="tspan6644">W</tspan>			</text>
        <text
           xml:space="preserve"
           id="text6650"
           x="150.60811"
           y="155.91492"
           style="font-size:1.01216px;stroke-width:0.0843467">				 <tspan
   style="font-size:2.6991px;font-family:'メイリオ'"
   letter-spacing="0em"
   fill="#000000"
   fill-opacity="1"
   stroke-width="0.0168693"
   stroke-linejoin="round"
   id="tspan6648">W</tspan>			</text>
        <text
           xml:space="preserve"
           id="text6654"
           x="120.84882"
           y="153.59937"
           style="font-size:1.01216px;stroke-width:0.0843467">				 <tspan
   style="font-size:2.6991px;font-family:'メイリオ'"
   letter-spacing="0em"
   fill="#000000"
   fill-opacity="1"
   stroke-width="0.0168693"
   stroke-linejoin="round"
   id="tspan6652">S</tspan>			</text>
        <path
           fill="none"
           stroke-width="0.242235"
           stroke-linejoin="round"
           stroke="#000000"
           stroke-opacity="1"
           d="m 118.77549,147.28431 v 8.04215 c 0,0.74105 -0.70551,1.34738 -1.56779,1.34738 h -2.61623 c -0.87208,0 -1.56778,-0.60633 -1.56778,-1.34738 v -8.04215 c 0,-0.74106 0.6957,-1.34738 1.56778,-1.34738 h 2.61623 c 0.86228,0 1.56779,0.60632 1.56779,1.34738 z"
           id="path6656" />
        <text
           xml:space="preserve"
           id="text6660"
           x="111.59633"
           y="154.39668"
           style="font-size:1.01216px;stroke-width:0.0843467">				 <tspan
   style="font-size:4.04864px;font-family:'メイリオ'"
   letter-spacing="0em"
   fill="#000000"
   fill-opacity="1"
   stroke-width="0.0168693"
   stroke-linejoin="round"
   id="tspan6658">-n</tspan>			</text>
        <path
           fill="#ffffff"
           fill-opacity="1"
           stroke-width="0.224925"
           stroke-linejoin="round"
           stroke="#000000"
           stroke-opacity="1"
           d="m 130.79505,153.52792 h 5.20419 c 0.74225,0 1.34955,0.6073 1.34955,1.34955 v 2.25205 c 0,0.74226 -0.6073,1.34955 -1.34955,1.34955 h -5.20419 c -0.75069,0 -1.34955,-0.60729 -1.34955,-1.34955 v -2.25205 c 0,-0.74225 0.59886,-1.34955 1.34955,-1.34955 z"
           id="path6662" />
        <text
           xml:space="preserve"
           id="text6666"
           x="129.15297"
           y="157.09578"
           style="font-size:1.01216px;stroke-width:0.0843467">				 <tspan
   style="font-size:4.04864px;font-family:'メイリオ'"
   letter-spacing="0em"
   fill="#000000"
   fill-opacity="1"
   stroke-width="0.0168693"
   stroke-linejoin="round"
   id="tspan6664">m</tspan>			</text>
      </g>
      <rect
         style="fill:none;stroke:#000000;stroke-width:0.2;stroke-opacity:1"
         id="rect30961"
         width="71.430374"
         height="42.222008"
         x="109.02531"
         y="129.26874" />
    </g>
  </g>
</svg>
