<?xml version="1.0" encoding="UTF-8" standalone="no"?>
<!-- Created with Inkscape (http://www.inkscape.org/) -->

<svg
   width="61.478561mm"
   height="47.260956mm"
   viewBox="0 0 61.478561 47.260956"
   version="1.1"
   id="svg17372"
   inkscape:version="1.2.2 (732a01da63, 2022-12-09)"
   sodipodi:docname="image26.svg"
   xmlns:inkscape="http://www.inkscape.org/namespaces/inkscape"
   xmlns:sodipodi="http://sodipodi.sourceforge.net/DTD/sodipodi-0.dtd"
   xmlns="http://www.w3.org/2000/svg"
   xmlns:svg="http://www.w3.org/2000/svg">
  <sodipodi:namedview
     id="namedview17374"
     pagecolor="#ffffff"
     bordercolor="#000000"
     borderopacity="0.25"
     inkscape:showpageshadow="2"
     inkscape:pageopacity="0.0"
     inkscape:pagecheckerboard="0"
     inkscape:deskcolor="#d1d1d1"
     inkscape:document-units="mm"
     showgrid="false"
     inkscape:zoom="1.829812"
     inkscape:cx="132.80053"
     inkscape:cy="315.33294"
     inkscape:window-width="2105"
     inkscape:window-height="1229"
     inkscape:window-x="550"
     inkscape:window-y="535"
     inkscape:window-maximized="0"
     inkscape:current-layer="layer1" />
  <defs
     id="defs17369" />
  <g
     inkscape:label="Layer 1"
     inkscape:groupmode="layer"
     id="layer1"
     transform="translate(-20.880964,-155.97788)">
    <path
       fill="#000000"
       fill-opacity="1"
       stroke-linejoin="round"
       d="m 51.631894,161.3783 h 1.55319 v 0.30833 h -1.55319 z m 3.09479,0 h 1.54159 v 0.30833 h -1.54159 z m 3.09478,0 h 1.5416 v 0.30833 h -1.5416 z m 3.0832,0 h 1.55318 v 0.30833 h -1.55318 z m 2.63114,0.77196 v 1.54623 h -0.31295 v -1.54623 z m 0,3.09131 v 1.54508 h -0.31295 v -1.54508 z m 0,3.0913 v 1.54509 h -0.31295 v -1.54509 z m 0,3.09016 v 1.54623 h -0.31295 v -1.54623 z m 0,3.09131 v 1.54507 h -0.31295 v -1.54507 z m -1.39091,2.00871 h -1.5416 v -0.30831 h 1.5416 z m -3.09479,0 h -1.5416 v -0.30831 h 1.5416 z m -3.08319,0 h -1.55319 v -0.30831 h 1.55319 z m -3.09479,0 h -1.5416 v -0.30831 h 1.5416 z m -3.09478,0 h -1.22865 -0.0232 l -0.0116,-0.002 -0.0116,-0.005 -0.0116,-0.005 -0.0232,-0.007 -0.0116,-0.007 -0.0116,-0.009 -0.0116,-0.0107 -0.0116,-0.0119 v -0.0119 l -0.0116,-0.0128 -0.0116,-0.0139 v -0.0139 -0.0151 l -0.0116,-0.0151 v -0.0151 -0.30948 h 0.31296 v 0.30948 l -0.15068,-0.15416 h 1.22867 z m -1.39092,-2.00871 v -1.54508 h 0.31296 v 1.54508 z m 0,-3.09131 v -1.54507 h 0.31296 v 1.54507 z m 0,-3.09016 v -1.54622 h 0.31296 v 1.54622 z m 0,-3.0913 v -1.54508 h 0.31296 v 1.54508 z m 0,-3.09131 v -0.6178 -0.0151 l 0.0116,-0.0151 v -0.015 -0.0139 l 0.0116,-0.014 0.0116,-0.0128 v -0.0127 l 0.0116,-0.0107 0.0116,-0.0107 0.0116,-0.009 0.0116,-0.008 0.0232,-0.006 0.0116,-0.006 0.0116,-0.004 0.0116,-0.002 h 0.0232 1.5416 v 0.30832 h -1.5416 l 0.15068,-0.15415 v 0.6178 z"
       id="path3734"
       style="stroke-width:0.11591"
       inkscape:export-filename="..\img26\img26d.png"
       inkscape:export-xdpi="96"
       inkscape:export-ydpi="96" />
    <path
       fill="#000000"
       fill-opacity="1"
       stroke-linejoin="round"
       d="m 24.126544,161.64837 h 1.5416 v 0.30948 h -1.5416 z m 3.09479,0 h 1.5416 v 0.30948 h -1.5416 z m 3.08319,0 h 1.55319 v 0.30948 h -1.55319 z m 3.09479,0 h 1.5416 v 0.30948 h -1.5416 z m 2.63115,0.77312 v 1.54508 h -0.31296 v -1.54508 z m 0,3.09015 v 1.54624 h -0.31296 v -1.54624 z m 0,3.09131 v 1.54507 h -0.31296 v -1.54507 z m 0,3.09131 v 1.54507 h -0.31296 v -1.54507 z m 0,3.09014 v 1.54625 h -0.31296 v -1.54625 z m -1.39092,2.00988 h -1.55318 v -0.30948 h 1.55318 z m -3.09478,0 h -1.5416 v -0.30948 h 1.5416 z m -3.09479,0 h -1.5416 v -0.30948 h 1.5416 z m -3.08319,0 h -1.55319 v -0.30948 h 1.55319 z m -3.09479,0 h -1.24023 l -0.0116,-10e-4 -0.0116,-0.002 -0.0232,-0.004 -0.0116,-0.006 -0.0116,-0.006 -0.0116,-0.008 -0.0116,-0.009 -0.0116,-0.0107 -0.0116,-0.0107 -0.0116,-0.0128 v -0.0128 l -0.0116,-0.0139 v -0.014 l -0.0116,-0.0151 v -0.0151 -0.0151 -0.30832 h 0.31295 v 0.30832 l -0.16227,-0.15417 h 1.24023 z m -1.39092,-2.00988 v -1.54507 h 0.31296 v 1.54507 z m 0,-3.09014 v -1.54624 h 0.31296 v 1.54624 z m 0,-3.09131 v -1.54507 h 0.31296 v 1.54507 z m 0,-3.09131 v -1.54507 h 0.31296 v 1.54507 z m 0,-3.09015 v -0.61895 -0.0151 -0.0151 l 0.0116,-0.0139 v -0.0151 l 0.0116,-0.014 v -0.0128 l 0.0116,-0.0118 0.0116,-0.0119 0.0116,-0.0107 0.0116,-0.009 0.0116,-0.007 0.0116,-0.007 0.0116,-0.005 0.0232,-0.005 0.0116,-0.002 h 0.0116 1.55319 v 0.30948 h -1.55319 l 0.16228,-0.15532 v 0.61896 z"
       id="path3736"
       style="stroke-width:0.11591" />
    <path
       fill="#000000"
       fill-opacity="1"
       stroke-width="0.309093"
       stroke-linejoin="round"
       stroke="#000000"
       stroke-opacity="1"
       d="m 30.304524,163.69649 c 1.0316,0 1.85456,0.82992 1.85456,1.85456 0,1.02348 -0.82296,1.85455 -1.85456,1.85455 -1.02,0 -1.85455,-0.83107 -1.85455,-1.85455 0,-1.02464 0.83455,-1.85456 1.85455,-1.85456 z"
       id="path3738" />
    <path
       fill="#000000"
       fill-opacity="1"
       stroke-width="0.309093"
       stroke-linejoin="round"
       stroke="#000000"
       stroke-opacity="1"
       d="m 52.559174,163.69649 c 1.03159,0 1.85455,0.82992 1.85455,1.85456 0,1.02348 -0.82296,1.85455 -1.85455,1.85455 -1.02001,0 -1.85456,-0.83107 -1.85456,-1.85455 0,-1.02464 0.83455,-1.85456 1.85456,-1.85456 z"
       id="path3740" />
    <path
       fill="#000000"
       fill-opacity="1"
       stroke-width="0.309093"
       stroke-linejoin="round"
       stroke="#000000"
       stroke-opacity="1"
       d="m 26.595424,171.11471 c 1.03159,0 1.85455,0.82991 1.85455,1.85455 0,1.02349 -0.82296,1.85456 -1.85455,1.85456 -1.02001,0 -1.85456,-0.83107 -1.85456,-1.85456 0,-1.02464 0.83455,-1.85455 1.85456,-1.85455 z"
       id="path3742" />
    <path
       fill="#000000"
       fill-opacity="1"
       stroke-width="0.309093"
       stroke-linejoin="round"
       stroke="#000000"
       stroke-opacity="1"
       d="m 59.977384,171.11471 c 1.03159,0 1.85455,0.82991 1.85455,1.85455 0,1.02349 -0.82296,1.85456 -1.85455,1.85456 -1.02,0 -1.85455,-0.83107 -1.85455,-1.85456 0,-1.02464 0.83455,-1.85455 1.85455,-1.85455 z"
       id="path3744" />
    <path
       fill="#000000"
       fill-opacity="1"
       stroke-width="0.309093"
       stroke-linejoin="round"
       stroke="#000000"
       stroke-opacity="1"
       d="m 74.813814,189.66024 c 1.03159,0 1.85455,0.82992 1.85455,1.85456 0,1.02348 -0.82296,1.85456 -1.85455,1.85456 -1.02001,0 -1.85456,-0.83108 -1.85456,-1.85456 0,-1.02464 0.83455,-1.85456 1.85456,-1.85456 z"
       id="path3746" />
    <path
       fill="#000000"
       fill-opacity="1"
       stroke-width="0.309093"
       stroke-linejoin="round"
       stroke="#000000"
       stroke-opacity="1"
       d="m 78.522914,197.07846 c 1.0316,0 1.85456,0.82992 1.85456,1.85455 0,1.02349 -0.82296,1.85455 -1.85456,1.85455 -1.02,0 -1.85455,-0.83106 -1.85455,-1.85455 0,-1.02463 0.83455,-1.85455 1.85455,-1.85455 z"
       id="path3748" />
    <path
       fill="#000000"
       fill-opacity="1"
       stroke-width="0.309093"
       stroke-linejoin="round"
       stroke="#000000"
       stroke-opacity="1"
       d="m 71.104704,197.07846 c 1.03159,0 1.85455,0.82992 1.85455,1.85455 0,1.02349 -0.82296,1.85455 -1.85455,1.85455 -1.02,0 -1.85455,-0.83106 -1.85455,-1.85455 0,-1.02463 0.83455,-1.85455 1.85455,-1.85455 z"
       id="path3750" />
    <path
       fill="#000000"
       fill-opacity="1"
       stroke-width="0.309093"
       stroke-linejoin="round"
       stroke="#000000"
       stroke-opacity="1"
       d="m 34.013634,197.07846 c 1.0316,0 1.85456,0.82992 1.85456,1.85455 0,1.02349 -0.82296,1.85455 -1.85456,1.85455 -1.02,0 -1.85455,-0.83106 -1.85455,-1.85455 0,-1.02463 0.83455,-1.85455 1.85455,-1.85455 z"
       id="path3752" />
    <path
       fill="#000000"
       fill-opacity="1"
       stroke-linejoin="round"
       d="m 70.455614,187.62951 h 1.54159 v 0.30832 h -1.54159 z m 3.09478,0 h 1.5416 v 0.30832 h -1.5416 z m 3.0832,0 h 1.55319 v 0.30832 h -1.55319 z m 3.09478,0 h 1.5416 v 0.30832 h -1.5416 z m 2.63115,0.77195 v 1.54625 h -0.31296 v -1.54625 z m 0,3.09132 v 1.54507 h -0.31296 v -1.54507 z m 0,3.09131 v 1.54507 h -0.31296 v -1.54507 z m 0,3.09014 v 1.54623 h -0.31296 v -1.54623 z m 0,3.09131 v 1.54508 h -0.31296 v -1.54508 z m -1.39091,2.00871 h -1.55319 v -0.30831 h 1.55319 z m -3.09479,0 h -1.5416 v -0.30831 h 1.5416 z m -3.09479,0 h -1.54159 v -0.30831 h 1.54159 z m -3.08319,0 h -1.55319 v -0.30831 h 1.55319 z m -3.09479,0 h -1.24023 -0.0116 l -0.0116,-0.002 -0.0232,-0.004 -0.0116,-0.006 -0.0116,-0.006 -0.0116,-0.008 -0.0116,-0.009 -0.0116,-0.0107 -0.0116,-0.0107 -0.0116,-0.0128 v -0.0128 l -0.0116,-0.0139 v -0.0139 l -0.0116,-0.0151 v -0.0151 -0.0151 -0.30947 h 0.31296 v 0.30947 l -0.16199,-0.15416 h 1.24023 z m -1.39091,-2.00871 v -1.54508 h 0.31295 v 1.54508 z m 0,-3.09131 v -1.54507 h 0.31295 v 1.54507 z m 0,-3.09014 v -1.54624 h 0.31295 v 1.54624 z m 0,-3.09131 v -1.54507 h 0.31295 v 1.54507 z m 0,-3.09132 v -0.6178 -0.0151 -0.0151 l 0.0116,-0.0151 v -0.0139 l 0.0116,-0.0139 v -0.0128 l 0.0116,-0.0128 0.0116,-0.0107 0.0116,-0.0107 0.0116,-0.009 0.0116,-0.008 0.0116,-0.006 0.0116,-0.006 0.0232,-0.004 0.0116,-0.002 h 0.0116 1.55319 v 0.30832 h -1.55323 l 0.16228,-0.15415 v 0.6178 z"
       id="path3754"
       style="stroke-width:0.11591" />
    <path
       fill="#000000"
       fill-opacity="1"
       stroke-linejoin="round"
       d="m 24.242454,194.27461 h 1.55319 v 0.30948 h -1.55319 z m 3.09479,0 h 1.5416 v 0.30948 h -1.5416 z m 3.09479,0 h 1.54159 v 0.30948 h -1.54159 z m 3.08319,0 h 1.55319 v 0.30948 h -1.55319 z m 3.09479,0 h 1.54159 v 0.30948 h -1.54159 z m 3.09478,0 h 1.5416 v 0.30948 h -1.5416 z m 3.0832,0 h 1.55319 v 0.30948 h -1.55319 z m 3.09478,0 h 1.5416 v 0.30948 h -1.5416 z m 1.70387,1.70038 v 1.54509 h -0.31295 v -1.54509 z m 0,3.09016 v 1.54623 h -0.31295 v -1.54623 z m 0,3.09131 v 0.92727 0.0151 l -0.0116,0.0151 v 0.0151 0.0139 l -0.0116,0.0139 -0.0116,0.0128 v 0.0128 l -0.0116,0.0107 -0.0116,0.0107 -0.0116,0.009 -0.0116,0.008 -0.0232,0.006 -0.0116,0.005 -0.0116,0.005 -0.0116,0.002 h -0.0232 -0.61432 v -0.30834 h 0.61432 l -0.15068,0.15417 v -0.92728 z m -2.31819,1.08144 h -1.55319 v -0.30833 h 1.55319 z m -3.09478,0 h -1.5416 v -0.30833 h 1.5416 z m -3.09479,0 h -1.5416 v -0.30833 h 1.5416 z m -3.0832,0 h -1.55318 v -0.30833 h 1.55318 z m -3.09478,0 h -1.5416 v -0.30833 h 1.5416 z m -3.09479,0 h -1.54159 v -0.30833 h 1.54159 z m -3.08319,0 h -1.55319 v -0.30833 h 1.55319 z m -3.09479,0 h -1.5416 v -0.30833 h 1.5416 z m -2.63115,-0.77196 v -1.54624 h 0.31296 v 1.54624 z m 0,-3.09131 v -1.54507 h 0.31296 v 1.54507 z m 0,-3.09132 v -1.54506 h 0.31296 v 1.54506 z m 0.16228,-2.0087 h 1.5416 v 0.30948 h -1.5416 z"
       id="path3756"
       style="stroke-width:0.11591" />
    <line
       fill="none"
       stroke-width="0.309093"
       stroke-linejoin="round"
       stroke="#000000"
       stroke-opacity="1"
       x1="30.432005"
       y1="165.4908"
       x2="52.686661"
       y2="165.4908"
       id="line3758" />
    <path
       fill="none"
       stroke-width="0.309093"
       stroke-linejoin="round"
       stroke="#000000"
       stroke-opacity="1"
       d="m 26.409964,173.1014 h 33.38196 l 15.45075,18.23721"
       id="path3760" />
    <line
       fill="none"
       stroke-width="0.309093"
       stroke-linejoin="round"
       stroke="#000000"
       stroke-opacity="1"
       x1="33.82814"
       y1="198.60143"
       x2="78.337418"
       y2="198.60143"
       id="line3762" />
    <text
       transform="scale(1.0371714,0.96416079)"
       xml:space="preserve"
       id="text3766"
       x="25.273382"
       y="166.30939"
       style="font-size:1.44262px;stroke-width:0.120218">		 <tspan
   style="font-size:5.89885px;font-family:'メイリオ'"
   letter-spacing="0em"
   fill="#000000"
   fill-opacity="1"
   stroke-width="0.0240436"
   stroke-linejoin="round"
   id="tspan3764">doubly linked</tspan>	</text>
  </g>
</svg>
