<?xml version="1.0" encoding="UTF-8" standalone="no"?>
<!-- Created with Inkscape (http://www.inkscape.org/) -->

<svg
   width="93.489609mm"
   height="57.468609mm"
   viewBox="0 0 93.489609 57.468609"
   version="1.1"
   id="svg17372"
   inkscape:version="1.2.2 (732a01da63, 2022-12-09)"
   sodipodi:docname="image26.svg"
   xmlns:inkscape="http://www.inkscape.org/namespaces/inkscape"
   xmlns:sodipodi="http://sodipodi.sourceforge.net/DTD/sodipodi-0.dtd"
   xmlns="http://www.w3.org/2000/svg"
   xmlns:svg="http://www.w3.org/2000/svg">
  <sodipodi:namedview
     id="namedview17374"
     pagecolor="#ffffff"
     bordercolor="#000000"
     borderopacity="0.25"
     inkscape:showpageshadow="2"
     inkscape:pageopacity="0.0"
     inkscape:pagecheckerboard="0"
     inkscape:deskcolor="#d1d1d1"
     inkscape:document-units="mm"
     showgrid="false"
     inkscape:zoom="1.829812"
     inkscape:cx="132.80053"
     inkscape:cy="315.33294"
     inkscape:window-width="2105"
     inkscape:window-height="1229"
     inkscape:window-x="550"
     inkscape:window-y="535"
     inkscape:window-maximized="0"
     inkscape:current-layer="layer1" />
  <defs
     id="defs17369" />
  <g
     inkscape:label="Layer 1"
     inkscape:groupmode="layer"
     id="layer1"
     transform="translate(-121.64877,-82.84337)">
    <g
       id="g24898"
       inkscape:export-filename="img26c.png"
       inkscape:export-xdpi="96"
       inkscape:export-ydpi="96"
       transform="translate(0.48818204,-19.28319)">
      <path
         fill="#ff5000"
         fill-opacity="1"
         stroke-linejoin="round"
         d="m 133.47019,105.36814 h 1.5416 v 0.30948 h -1.5416 z m 3.0832,0 h 1.55319 v 0.30948 h -1.55319 z m 3.09479,0 h 1.5416 v 0.30948 h -1.5416 z m 3.09478,0 h 1.5416 v 0.30948 h -1.5416 z m 3.0832,0 h 1.55319 v 0.30948 h -1.55319 z m 2.41092,0.98871 v 1.54508 h -0.30137 v -1.54508 z m 0,3.09015 v 1.54624 h -0.30137 V 109.447 Z m 0,3.09131 v 1.54508 h -0.30137 v -1.54508 z m 0,3.09131 v 1.54508 h -0.30137 v -1.54508 z m 0,3.09015 v 1.54623 h -0.30137 v -1.54623 z m 0,3.09131 v 1.54507 h -0.30137 v -1.54507 z m 0,3.0913 v 1.54508 h -0.30137 v -1.54508 z m 0,3.09015 v 1.54624 h -0.30137 v -1.54624 z m 0,3.09131 v 1.54508 h -0.30137 v -1.54508 z m 0,3.09131 v 1.54508 h -0.30137 v -1.54508 z m 0,3.09015 v 1.54623 h -0.30137 v -1.54623 z m 0,3.09131 v 1.54507 h -0.30137 v -1.54507 z m 0,3.09131 v 1.54507 h -0.30137 v -1.54507 z m 0,3.09014 v 1.54624 h -0.30137 v -1.54624 z m 0,3.09131 v 1.54508 h -0.30137 v -1.54508 z m 0,3.09132 v 1.54507 h -0.30137 v -1.54507 z m 0,3.09014 v 1.54624 h -0.30137 v -1.54624 z m 0,3.09131 v 0.53783 0.0151 0.0151 0.0151 l -0.0119,0.014 v 0.0139 l -0.0119,0.0128 -0.0118,0.0128 -0.0119,0.0107 -0.0119,0.0107 -0.0119,0.009 -0.0119,0.008 -0.0118,0.006 -0.0119,0.006 -0.0119,0.004 -0.0232,0.002 h -0.0119 -1.00842 v -0.30831 h 1.00842 l -0.15069,0.15415 v -0.53782 z m -2.7007,0.69198 h -1.55319 v -0.30832 h 1.55319 z m -3.09478,0 H 140.9 v -0.30832 h 1.5416 z m -3.09479,0 h -1.5416 v -0.30832 h 1.5416 z m -3.08319,0 h -1.55319 v -0.30832 h 1.55319 z m -3.09479,0 h -1.5416 v -0.30832 h 1.5416 z m -2.9441,-0.44973 v -1.54507 h 0.30136 v 1.54507 z m 0,-3.09014 v -1.54624 h 0.30136 v 1.54624 z m 0,-3.09132 v -1.54507 h 0.30136 v 1.54507 z m 0,-3.09131 v -1.54507 h 0.30136 v 1.54507 z m 0,-3.09014 v -1.54624 h 0.30136 v 1.54624 z m 0,-3.09131 v -1.54507 h 0.30136 v 1.54507 z m 0,-3.09131 v -1.54508 h 0.30136 v 1.54508 z m 0,-3.09015 v -1.54623 h 0.30136 v 1.54623 z m 0,-3.09131 v -1.54507 h 0.30136 v 1.54507 z m 0,-3.09131 v -1.54507 h 0.30136 v 1.54507 z m 0,-3.09015 v -1.54623 h 0.30136 v 1.54623 z m 0,-3.09131 v -1.54507 h 0.30136 v 1.54507 z m 0,-3.0913 v -1.54508 h 0.30136 v 1.54508 z m 0,-3.09015 v -1.54623 h 0.30136 v 1.54623 z m 0,-3.09131 v -1.54507 h 0.30136 v 1.54507 z m 0,-3.09131 v -1.54507 h 0.30136 v 1.54507 z m 0,-3.09015 v -1.54623 h 0.30136 v 1.54623 z m 0,-3.09131 v -1.07564 -0.0151 -0.0151 -0.0151 l 0.0119,-0.0139 v -0.0139 l 0.0119,-0.0127 0.0118,-0.0127 v -0.0116 l 0.0119,-0.009 0.0118,-0.009 0.0232,-0.008 0.0119,-0.006 0.0119,-0.006 0.0119,-0.003 0.0232,-0.002 0.0119,-0.001 h 1.5416 v 0.30948 h -1.54159 l 0.15068,-0.15416 v 1.07564 z"
         id="path3676"
         style="stroke-width:0.11591"
         inkscape:export-filename="..\img26\img26c.png"
         inkscape:export-xdpi="96"
         inkscape:export-ydpi="96" />
      <path
         fill="#230fd2"
         fill-opacity="1"
         stroke-linejoin="round"
         d="m 129.90019,139.33544 h 1.54158 v 0.30948 h -1.54158 z m 3.08318,0 h 1.5532 v 0.30948 h -1.5532 z m 3.09479,0 h 1.5416 v 0.30948 h -1.5416 z m 3.0948,0 h 1.54158 v 0.30948 h -1.54158 z m 3.08318,0 h 1.5532 v 0.30948 h -1.5532 z m 3.09479,0 h 1.54159 v 0.30948 h -1.54159 z m 3.09478,0 h 1.5416 v 0.30948 h -1.5416 z m 3.0832,0 h 1.5532 v 0.30948 h -1.5532 z m 3.09478,0 h 1.5416 v 0.30948 h -1.5416 z m 3.09479,0 h 1.5416 v 0.30948 h -1.5416 z m 3.0832,0 h 1.55318 v 0.30948 h -1.55318 z m 3.09478,0 h 1.5416 v 0.30948 h -1.5416 z m 3.09478,0 h 1.5416 v 0.30948 h -1.5416 z m 3.0832,0 h 1.55319 v 0.30948 h -1.55319 z m 3.09479,0 h 1.5416 v 0.30948 h -1.5416 z m 3.09478,0 h 1.5416 v 0.30948 h -1.5416 z m 3.0832,0 h 1.55319 v 0.30948 h -1.55319 z m 3.09478,0 h 1.5416 v 0.30948 h -1.5416 z m 3.09479,0 h 1.5416 v 0.30948 h -1.5416 z m 3.0832,0 h 1.55319 v 0.30948 h -1.55319 z m 3.09478,0 h 1.5416 v 0.30948 h -1.5416 z m 3.09479,0 h 1.5416 v 0.30948 h -1.5416 z m 3.08319,0 h 1.55319 v 0.30948 h -1.55319 z m 2.48047,0.91917 v 1.54507 h -0.30136 v -1.54507 z m 0,3.09131 v 1.54508 h -0.30136 v -1.54508 z m 0,3.09015 v 1.54623 h -0.30136 v -1.54623 z m 0,3.09131 v 1.54507 h -0.30136 v -1.54507 z m 0,3.0913 v 1.54507 h -0.30136 v -1.54507 z m 0,3.09016 v 0.21095 0.0162 0.0151 0.0139 l -0.0119,0.0151 v 0.0128 l -0.0119,0.0139 -0.0119,0.0119 -0.0118,0.0119 -0.0119,0.0107 -0.0119,0.008 -0.0119,0.008 -0.0119,0.007 -0.0118,0.005 -0.0119,0.004 -0.0232,0.002 -0.0119,0.001 h -1.33296 v -0.30948 h 1.33296 l -0.15068,0.15416 v -0.21096 z m -3.02525,0.36627 h -1.55318 v -0.30948 h 1.55318 z m -3.09478,0 h -1.5416 v -0.30948 h 1.5416 z m -3.09479,0 h -1.54158 v -0.30948 h 1.54158 z m -3.08318,0 h -1.5532 v -0.30948 h 1.5532 z m -3.0948,0 h -1.54158 v -0.30948 h 1.54158 z m -3.09478,0 h -1.54159 v -0.30948 h 1.54159 z m -3.08319,0 h -1.5532 v -0.30948 h 1.5532 z m -3.0948,0 h -1.54158 v -0.30948 h 1.54158 z m -3.09478,0 h -1.54159 v -0.30948 h 1.54159 z m -3.08319,0 h -1.55318 v -0.30948 h 1.55318 z m -3.09478,0 h -1.5416 v -0.30948 h 1.5416 z m -3.0948,0 h -1.54159 v -0.30948 h 1.54159 z m -3.08319,0 h -1.55318 v -0.30948 h 1.55318 z m -3.09478,0 h -1.5416 v -0.30948 h 1.5416 z m -3.09478,0 h -1.5416 v -0.30948 h 1.5416 z m -3.0832,0 h -1.55319 v -0.30948 h 1.55319 z m -3.09479,0 h -1.5416 v -0.30948 h 1.5416 z m -3.09478,0 h -1.5416 v -0.30948 h 1.5416 z m -3.0832,0 h -1.55319 v -0.30948 h 1.55319 z m -3.09478,0 h -1.5416 v -0.30948 h 1.5416 z m -3.09479,0 h -1.5416 v -0.30948 h 1.5416 z m -3.0832,0 h -1.55318 v -0.30948 h 1.55318 z m -3.09478,0 h -1.5416 v -0.30948 h 1.5416 z m -2.68911,-0.70821 v -1.54507 h 0.30136 v 1.54507 z m 0,-3.0913 v -1.54509 h 0.30136 v 1.54509 z m 0,-3.09016 v -1.54624 h 0.30136 v 1.54624 z m 0,-3.09131 v -1.54507 h 0.30136 v 1.54507 z m 0,-3.0913 v -1.54508 h 0.30136 v 1.54508 z m 0,-3.09016 v -0.42307 -0.0151 -0.0151 -0.0139 l 0.0119,-0.0151 v -0.0139 l 0.0119,-0.0127 0.0119,-0.0116 0.0119,-0.0116 0.0119,-0.0104 0.0119,-0.009 0.0119,-0.007 0.0119,-0.007 0.0119,-0.005 0.0119,-0.005 0.0231,-0.001 0.0119,-0.001 h 1.5416 v 0.30947 h -1.5416 l 0.15068,-0.15531 v 0.42306 z"
         id="path3678"
         style="stroke-width:0.11591" />
      <path
         fill="#006432"
         fill-opacity="1"
         stroke-linejoin="round"
         d="m 129.90019,108.33079 h 1.54158 v 0.30948 h -1.54158 z m 3.08318,0 h 1.5532 v 0.30948 h -1.5532 z m 3.09479,0 h 1.5416 v 0.30948 h -1.5416 z m 3.0948,0 h 1.54158 v 0.30948 h -1.54158 z m 3.08318,0 h 1.5532 v 0.30948 h -1.5532 z m 3.09479,0 h 1.54159 v 0.30948 h -1.54159 z m 3.09478,0 h 1.5416 v 0.30948 h -1.5416 z m 3.0832,0 h 1.5532 v 0.30948 h -1.5532 z m 3.09478,0 h 1.5416 v 0.30948 h -1.5416 z m 3.09479,0 h 1.5416 v 0.30948 h -1.5416 z m 3.0832,0 h 1.55318 v 0.30948 h -1.55318 z m 3.09478,0 h 1.5416 v 0.30948 h -1.5416 z m 3.09478,0 h 1.5416 v 0.30948 h -1.5416 z m 3.0832,0 h 1.55319 v 0.30948 h -1.55319 z m 3.09479,0 h 1.5416 v 0.30948 h -1.5416 z m 3.09478,0 h 1.5416 v 0.30948 h -1.5416 z m 3.0832,0 h 1.55319 v 0.30948 h -1.55319 z m 3.09478,0 h 1.5416 v 0.30948 h -1.5416 z m 3.09479,0 h 1.5416 v 0.30948 h -1.5416 z m 3.0832,0 h 1.55319 v 0.30948 h -1.55319 z m 3.09478,0 h 1.5416 v 0.30948 h -1.5416 z m 3.09479,0 h 1.5416 v 0.30948 h -1.5416 z m 3.08319,0 h 1.55319 v 0.30948 h -1.55319 z m 2.48047,0.91917 v 1.54507 h -0.30136 v -1.54507 z m 0,3.09131 v 1.54507 h -0.30136 v -1.54507 z m 0,3.09015 v 1.54623 h -0.30136 v -1.54623 z m 0,3.0913 v 1.54508 h -0.30136 v -1.54508 z m 0,3.09131 v 1.54508 h -0.30136 v -1.54508 z m 0,3.09015 v 0.21211 0.0151 0.0151 0.0139 l -0.0119,0.0151 v 0.0128 l -0.0119,0.0139 -0.0119,0.0116 -0.0118,0.0116 -0.0119,0.0104 -0.0119,0.008 -0.0119,0.008 -0.0119,0.007 -0.0118,0.005 -0.0119,0.003 -0.0232,0.002 -0.0119,10e-4 h -1.33296 v -0.30948 h 1.33296 l -0.15068,0.15532 v -0.21211 z m -3.02525,0.36627 h -1.55318 v -0.30948 h 1.55318 z m -3.09478,0 h -1.5416 v -0.30948 h 1.5416 z m -3.09479,0 h -1.54158 v -0.30948 h 1.54158 z m -3.08318,0 h -1.5532 v -0.30948 h 1.5532 z m -3.0948,0 h -1.54158 v -0.30948 h 1.54158 z m -3.09478,0 h -1.54159 v -0.30948 h 1.54159 z m -3.08319,0 h -1.5532 v -0.30948 h 1.5532 z m -3.0948,0 h -1.54158 v -0.30948 h 1.54158 z m -3.09478,0 h -1.54159 v -0.30948 h 1.54159 z m -3.08319,0 h -1.55318 v -0.30948 h 1.55318 z m -3.09478,0 h -1.5416 v -0.30948 h 1.5416 z m -3.0948,0 h -1.54159 v -0.30948 h 1.54159 z m -3.08319,0 h -1.55318 v -0.30948 h 1.55318 z m -3.09478,0 h -1.5416 v -0.30948 h 1.5416 z m -3.09478,0 h -1.5416 v -0.30948 h 1.5416 z m -3.0832,0 h -1.55319 v -0.30948 h 1.55319 z m -3.09479,0 h -1.5416 v -0.30948 h 1.5416 z m -3.09478,0 h -1.5416 v -0.30948 h 1.5416 z m -3.0832,0 h -1.55319 v -0.30948 h 1.55319 z m -3.09478,0 h -1.5416 v -0.30948 h 1.5416 z m -3.09479,0 h -1.5416 v -0.30948 h 1.5416 z m -3.0832,0 h -1.55318 v -0.30948 h 1.55318 z m -3.09478,0 h -1.5416 v -0.30948 h 1.5416 z m -2.68911,-0.7082 v -1.54508 h 0.30136 v 1.54508 z m 0,-3.09015 v -1.54623 h 0.30136 v 1.54623 z m 0,-3.09131 v -1.54507 h 0.30136 v 1.54507 z m 0,-3.09131 v -1.54507 h 0.30136 v 1.54507 z m 0,-3.09015 v -1.54623 h 0.30136 v 1.54623 z m 0,-3.09131 v -0.42307 -0.0151 -0.0151 -0.0139 l 0.0119,-0.0151 v -0.0127 l 0.0119,-0.0139 0.0119,-0.0116 0.0119,-0.0116 0.0119,-0.0104 0.0119,-0.008 0.0119,-0.008 0.0119,-0.007 0.0119,-0.005 0.0119,-0.003 0.0231,-0.002 0.0119,-0.001 h 1.5416 v 0.30948 h -1.5416 l 0.15068,-0.15532 v 0.42307 z"
         id="path3680"
         style="stroke-width:0.11591" />
      <rect
         x="132.9254"
         y="112.47456"
         fill="#ffffff"
         fill-opacity="1"
         stroke-width="0.309093"
         stroke-linejoin="round"
         stroke="#000000"
         stroke-opacity="1"
         width="12.236112"
         height="8.531188"
         id="rect3682" />
      <text
         transform="scale(1.0371714,0.96416079)"
         xml:space="preserve"
         id="text3686"
         x="126.47819"
         y="122.7889"
         style="font-size:1.44262px;stroke-width:0.120218">		 <tspan
   style="font-size:5.89885px;font-family:'メイリオ'"
   letter-spacing="0em"
   fill="#000000"
   fill-opacity="1"
   stroke-width="0.0240436"
   stroke-linejoin="round"
   id="tspan3684">xzw</tspan>	</text>
      <rect
         x="157.18526"
         y="112.47456"
         fill="#ffffff"
         fill-opacity="1"
         stroke-width="0.309093"
         stroke-linejoin="round"
         stroke="#000000"
         stroke-opacity="1"
         width="12.236112"
         height="8.531188"
         id="rect3688" />
      <text
         transform="scale(1.0371714,0.96416079)"
         xml:space="preserve"
         id="text3692"
         x="150.05862"
         y="122.7889"
         style="font-size:1.44262px;stroke-width:0.120218">		 <tspan
   style="font-size:5.89885px;font-family:'メイリオ'"
   letter-spacing="0em"
   fill="#000000"
   fill-opacity="1"
   stroke-width="0.0240436"
   stroke-linejoin="round"
   id="tspan3690">yzw</tspan>	</text>
      <rect
         x="181.86244"
         y="112.47456"
         fill="#ffffff"
         fill-opacity="1"
         stroke-width="0.309093"
         stroke-linejoin="round"
         stroke="#000000"
         stroke-opacity="1"
         width="12.236228"
         height="8.5312357"
         id="rect3694" />
      <text
         transform="scale(1.0371714,0.96416079)"
         xml:space="preserve"
         id="text3698"
         x="174.9801"
         y="122.7889"
         style="font-size:1.44262px;stroke-width:0.120218">		 <tspan
   style="font-size:5.89885px;font-family:'メイリオ'"
   letter-spacing="0em"
   fill="#000000"
   fill-opacity="1"
   stroke-width="0.0240436"
   stroke-linejoin="round"
   id="tspan3696">zw</tspan>	</text>
      <rect
         x="132.9254"
         y="143.75508"
         fill="#ffffff"
         fill-opacity="1"
         stroke-width="0.309093"
         stroke-linejoin="round"
         stroke="#000000"
         stroke-opacity="1"
         width="12.236112"
         height="8.531188"
         id="rect3700" />
      <text
         transform="scale(1.0371714,0.96416079)"
         xml:space="preserve"
         id="text3704"
         x="128.71326"
         y="155.24783"
         style="font-size:1.44262px;stroke-width:0.120218">		 <tspan
   style="font-size:5.89885px;font-family:'メイリオ'"
   letter-spacing="0em"
   fill="#000000"
   fill-opacity="1"
   stroke-width="0.0240436"
   stroke-linejoin="round"
   id="tspan3702">xu</tspan>	</text>
      <rect
         x="157.18526"
         y="143.75508"
         fill="#ffffff"
         fill-opacity="1"
         stroke-width="0.309093"
         stroke-linejoin="round"
         stroke="#000000"
         stroke-opacity="1"
         width="12.236228"
         height="8.531188"
         id="rect3706" />
      <text
         transform="scale(1.0371714,0.96416079)"
         xml:space="preserve"
         id="text3710"
         x="152.29375"
         y="155.24783"
         style="font-size:1.44262px;stroke-width:0.120218">		 <tspan
   style="font-size:5.89885px;font-family:'メイリオ'"
   letter-spacing="0em"
   fill="#000000"
   fill-opacity="1"
   stroke-width="0.0240436"
   stroke-linejoin="round"
   id="tspan3708">yu</tspan>	</text>
      <text
         transform="scale(1.0371714,0.96416079)"
         xml:space="preserve"
         id="text3714"
         x="166.35966"
         y="110.45634"
         style="font-size:1.44262px;stroke-width:0.120218">		 <tspan
   style="font-size:5.89885px;font-family:'メイリオ'"
   letter-spacing="0em"
   fill="#006432"
   fill-opacity="1"
   stroke-width="0.0240436"
   stroke-linejoin="round"
   id="tspan3712">ALS1(#xyzw)</tspan>	</text>
      <text
         transform="scale(1.0371714,0.96416079)"
         xml:space="preserve"
         id="text3718"
         x="169.90857"
         y="143.61502"
         style="font-size:1.44262px;stroke-width:0.120218">		 <tspan
   style="font-size:5.89885px;font-family:'メイリオ'"
   letter-spacing="0em"
   fill="#230fd2"
   fill-opacity="1"
   stroke-width="0.0240436"
   stroke-linejoin="round"
   id="tspan3716">ALS2(#xyu)</tspan>	</text>
      <path
         fill="#ff0000"
         fill-opacity="1"
         stroke-linejoin="round"
         d="m 157.09257,105.36814 h 1.5416 v 0.30948 h -1.5416 z m 3.0832,0 h 1.55319 v 0.30948 h -1.55319 z m 3.09478,0 h 1.54161 v 0.30948 h -1.54161 z m 3.09479,0 h 1.5416 v 0.30948 h -1.5416 z m 3.0832,0 h 1.55318 v 0.30948 h -1.55318 z m 2.41091,0.98871 v 1.54508 h -0.30137 v -1.54508 z m 0,3.09015 v 1.54624 h -0.30137 V 109.447 Z m 0,3.09131 v 1.54508 h -0.30137 v -1.54508 z m 0,3.09131 v 1.54508 h -0.30137 v -1.54508 z m 0,3.09015 v 1.54623 h -0.30137 v -1.54623 z m 0,3.09131 v 1.54507 h -0.30137 v -1.54507 z m 0,3.0913 v 1.54508 h -0.30137 v -1.54508 z m 0,3.09015 v 1.54624 h -0.30137 v -1.54624 z m 0,3.09131 v 1.54508 h -0.30137 v -1.54508 z m 0,3.09131 v 1.54508 h -0.30137 v -1.54508 z m 0,3.09015 v 1.54623 h -0.30137 v -1.54623 z m 0,3.09131 v 1.54507 h -0.30137 v -1.54507 z m 0,3.09131 v 1.54507 h -0.30137 v -1.54507 z m 0,3.09014 v 1.54624 h -0.30137 v -1.54624 z m 0,3.09131 v 1.54508 h -0.30137 v -1.54508 z m 0,3.09132 v 1.54507 h -0.30137 v -1.54507 z m 0,3.09014 v 1.54624 h -0.30137 v -1.54624 z m 0,3.09131 v 0.53783 0.0151 0.0151 0.0151 l -0.0119,0.014 v 0.0139 l -0.0118,0.0128 -0.0119,0.0128 -0.0119,0.0107 -0.0119,0.0107 -0.0119,0.009 -0.0119,0.008 -0.0119,0.006 -0.0119,0.006 -0.0119,0.004 -0.0232,0.002 h -0.0119 -1.00841 v -0.30831 h 1.00841 l -0.15068,0.15415 v -0.53782 z m -2.70069,0.69198 h -1.55319 v -0.30832 h 1.55319 z m -3.09478,0 h -1.5416 v -0.30832 h 1.5416 z m -3.09479,0 h -1.5416 v -0.30832 h 1.5416 z m -3.0832,0 h -1.55318 v -0.30832 h 1.55318 z m -3.09478,0 h -1.5416 v -0.30832 h 1.5416 z m -2.94411,-0.44973 v -1.54507 h 0.30137 v 1.54507 z m 0,-3.09014 v -1.54624 h 0.30137 v 1.54624 z m 0,-3.09132 v -1.54507 h 0.30137 v 1.54507 z m 0,-3.09131 v -1.54507 h 0.30137 v 1.54507 z m 0,-3.09014 v -1.54624 h 0.30137 v 1.54624 z m 0,-3.09131 v -1.54507 h 0.30137 v 1.54507 z m 0,-3.09131 v -1.54508 h 0.30137 v 1.54508 z m 0,-3.09015 v -1.54623 h 0.30137 v 1.54623 z m 0,-3.09131 v -1.54507 h 0.30137 v 1.54507 z m 0,-3.09131 v -1.54507 h 0.30137 v 1.54507 z m 0,-3.09015 v -1.54623 h 0.30137 v 1.54623 z m 0,-3.09131 v -1.54507 h 0.30137 v 1.54507 z m 0,-3.0913 v -1.54508 h 0.30137 v 1.54508 z m 0,-3.09015 v -1.54623 h 0.30137 v 1.54623 z m 0,-3.09131 v -1.54507 h 0.30137 v 1.54507 z m 0,-3.09131 v -1.54507 h 0.30137 v 1.54507 z m 0,-3.09015 v -1.54623 h 0.30137 v 1.54623 z m 0,-3.09131 v -1.07564 -0.0151 -0.0151 -0.0151 l 0.0118,-0.0139 v -0.0139 l 0.0119,-0.0127 0.0119,-0.0127 v -0.0116 l 0.0118,-0.009 0.0119,-0.009 0.0232,-0.008 0.0119,-0.006 0.0119,-0.006 0.0118,-0.003 0.0231,-0.002 0.0119,-0.001 h 1.5416 v 0.30948 h -1.5416 l 0.1507,-0.15416 v 1.07564 z"
         id="path3720"
         style="stroke-width:0.11591" />
      <rect
         x="121.16058"
         y="126.72912"
         fill="#ffffff"
         fill-opacity="1"
         stroke-width="0.0231819"
         stroke-linejoin="round"
         width="56.679901"
         height="7.2673221"
         id="rect3722" />
      <text
         transform="scale(1.0371715,0.96416074)"
         xml:space="preserve"
         id="text3726"
         x="117.79057"
         y="137.29324"
         style="font-size:1.44262px;stroke-width:0.120218">			 <tspan
   style="font-size:5.89887px;font-family:'メイリオ'"
   letter-spacing="0em"
   fill="#ff5000"
   fill-opacity="1"
   stroke-width="0.0240436"
   stroke-linejoin="round"
   id="tspan3724">RCC(#x)</tspan>		</text>
      <text
         transform="scale(1.0371715,0.96416074)"
         xml:space="preserve"
         id="text3730"
         x="145.95294"
         y="137.29324"
         style="font-size:1.44262px;stroke-width:0.120218">			 <tspan
   style="font-size:5.89887px;font-family:'メイリオ'"
   letter-spacing="0em"
   fill="#ff0000"
   fill-opacity="1"
   stroke-width="0.0240436"
   stroke-linejoin="round"
   id="tspan3728">RCC(#y)</tspan>		</text>
    </g>
  </g>
</svg>
