<?xml version="1.0" encoding="UTF-8" standalone="no"?>
<!-- Created with Inkscape (http://www.inkscape.org/) -->

<svg
   width="79.152901mm"
   height="57.488018mm"
   viewBox="0 0 79.152901 57.488018"
   version="1.1"
   id="svg17372"
   inkscape:version="1.2.2 (732a01da63, 2022-12-09)"
   sodipodi:docname="image26.svg"
   xmlns:inkscape="http://www.inkscape.org/namespaces/inkscape"
   xmlns:sodipodi="http://sodipodi.sourceforge.net/DTD/sodipodi-0.dtd"
   xmlns="http://www.w3.org/2000/svg"
   xmlns:svg="http://www.w3.org/2000/svg">
  <sodipodi:namedview
     id="namedview17374"
     pagecolor="#ffffff"
     bordercolor="#000000"
     borderopacity="0.25"
     inkscape:showpageshadow="2"
     inkscape:pageopacity="0.0"
     inkscape:pagecheckerboard="0"
     inkscape:deskcolor="#d1d1d1"
     inkscape:document-units="mm"
     showgrid="false"
     inkscape:zoom="1.829812"
     inkscape:cx="132.80053"
     inkscape:cy="315.33294"
     inkscape:window-width="2105"
     inkscape:window-height="1229"
     inkscape:window-x="550"
     inkscape:window-y="535"
     inkscape:window-maximized="0"
     inkscape:current-layer="layer1" />
  <defs
     id="defs17369" />
  <g
     inkscape:label="Layer 1"
     inkscape:groupmode="layer"
     id="layer1"
     transform="translate(-18.376819,-82.823961)">
    <g
       id="g24863"
       inkscape:export-filename="img26b.png"
       inkscape:export-xdpi="96"
       inkscape:export-ydpi="96"
       transform="translate(0.48818204,-19.28319)">
      <path
         fill="#ff5000"
         fill-opacity="1"
         stroke-linejoin="round"
         d="m 29.615203,105.36814 h 1.541598 v 0.30948 h -1.541598 z m 3.083195,0 h 1.553189 v 0.30948 h -1.553189 z m 3.094787,0 h 1.541597 v 0.30948 h -1.541597 z m 3.094786,0 h 1.541596 v 0.30948 h -1.541596 z m 3.083194,0 h 1.553189 v 0.30948 h -1.553189 z m 2.41092,0.98871 v 1.54508 H 44.08072 v -1.54508 z m 0,3.09015 v 1.54624 H 44.08072 V 109.447 Z m 0,3.09131 v 1.54508 H 44.08072 v -1.54508 z m 0,3.09131 v 1.54508 H 44.08072 v -1.54508 z m 0,3.09015 V 120.266 H 44.08072 v -1.54623 z m 0,3.09131 v 1.54507 H 44.08072 v -1.54507 z m 0,3.0913 v 1.54508 H 44.08072 v -1.54508 z m 0,3.09015 v 1.54624 H 44.08072 v -1.54624 z m 0,3.09131 v 1.54508 H 44.08072 v -1.54508 z m 0,3.09131 v 1.54508 H 44.08072 v -1.54508 z m 0,3.09015 v 1.54623 H 44.08072 v -1.54623 z m 0,3.09131 v 1.54507 H 44.08072 v -1.54507 z m 0,3.09131 v 1.54507 H 44.08072 v -1.54507 z m 0,3.09014 v 1.54624 H 44.08072 v -1.54624 z m 0,3.09131 v 1.54508 H 44.08072 v -1.54508 z m 0,3.09132 v 1.54507 H 44.08072 v -1.54507 z m 0,3.09014 v 1.54624 H 44.08072 v -1.54624 z m 0,3.09131 v 0.53783 0.0151 0.0151 0.0151 l -0.01162,0.014 v 0.0139 l -0.01162,0.0128 -0.01162,0.0128 -0.01162,0.0107 -0.01162,0.0107 -0.01162,0.009 -0.01162,0.008 -0.01162,0.006 -0.01162,0.006 -0.01162,0.004 -0.02319,0.002 h -0.01162 -1.008413 v -0.30831 h 1.008413 l -0.150683,0.15415 v -0.53782 z m -2.700693,0.69198 h -1.55319 v -0.30832 h 1.55319 z m -3.094786,0 h -1.541598 v -0.30832 h 1.541598 z m -3.094786,0 h -1.541598 v -0.30832 h 1.541598 z m -3.083196,0 h -1.553188 v -0.30832 h 1.553188 z m -3.094786,0 H 27.77224 v -0.30832 h 1.541598 z m -2.944104,-0.44973 v -1.54507 H 26.6711 v 1.54507 z m 0,-3.09014 v -1.54624 H 26.6711 v 1.54624 z m 0,-3.09132 v -1.54507 H 26.6711 v 1.54507 z m 0,-3.09131 v -1.54507 H 26.6711 v 1.54507 z m 0,-3.09014 v -1.54624 H 26.6711 v 1.54624 z m 0,-3.09131 V 142.1451 H 26.6711 v 1.54507 z m 0,-3.09131 v -1.54508 H 26.6711 v 1.54508 z m 0,-3.09015 v -1.54623 H 26.6711 v 1.54623 z m 0,-3.09131 v -1.54507 H 26.6711 v 1.54507 z m 0,-3.09131 v -1.54507 H 26.6711 v 1.54507 z m 0,-3.09015 v -1.54623 H 26.6711 v 1.54623 z m 0,-3.09131 v -1.54507 H 26.6711 v 1.54507 z m 0,-3.0913 v -1.54508 H 26.6711 v 1.54508 z m 0,-3.09015 v -1.54623 H 26.6711 v 1.54623 z m 0,-3.09131 V 114.3268 H 26.6711 v 1.54507 z m 0,-3.09131 v -1.54507 H 26.6711 v 1.54507 z m 0,-3.09015 v -1.54623 H 26.6711 v 1.54623 z m 0,-3.09131 v -1.07564 -0.0151 -0.0151 -0.0151 l 0.01162,-0.0139 v -0.0139 l 0.01162,-0.0127 0.01162,-0.0127 v -0.0116 l 0.01162,-0.009 0.01162,-0.009 0.02319,-0.008 0.01162,-0.006 0.01162,-0.006 0.01162,-0.003 0.02319,-0.002 0.01162,-0.001 h 1.541598 v 0.30948 h -1.541598 l 0.150683,-0.15416 v 1.07564 z"
         id="path10"
         style="stroke-width:0.11591"
         inkscape:export-filename="..\img26\img26b.png"
         inkscape:export-xdpi="96"
         inkscape:export-ydpi="96" />
      <path
         fill="#230fd2"
         fill-opacity="1"
         stroke-linejoin="round"
         d="m 26.045188,139.33544 h 1.541597 v 0.30948 h -1.541597 z m 3.083195,0 h 1.553188 v 0.30948 h -1.553188 z m 3.094786,0 h 1.541598 v 0.30948 h -1.541598 z m 3.094786,0 h 1.541598 v 0.30948 h -1.541598 z m 3.083196,0 h 1.553187 v 0.30948 h -1.553187 z m 3.094785,0 h 1.541597 v 0.30948 h -1.541597 z m 3.094786,0 h 1.541597 v 0.30948 h -1.541597 z m 3.083195,0 h 1.553189 v 0.30948 h -1.553189 z m 3.094786,0 h 1.541598 v 0.30948 h -1.541598 z m 3.094786,0 h 1.541598 v 0.30948 h -1.541598 z m 3.083196,0 h 1.553187 v 0.30948 h -1.553187 z m 3.094785,0 h 1.541597 v 0.30948 H 60.04147 Z m 3.094786,0 h 1.541598 v 0.30948 h -1.541598 z m 3.083195,0 h 1.553189 v 0.30948 h -1.553189 z m 3.094786,0 h 1.541598 v 0.30948 h -1.541598 z m 3.094786,0 h 1.541597 v 0.30948 h -1.541597 z m 3.083195,0 h 1.553188 v 0.30948 h -1.553188 z m 3.094786,0 h 1.541598 v 0.30948 h -1.541598 z m 3.094786,0 h 1.541598 v 0.30948 H 81.68179 Z m 3.083195,0 h 1.553189 v 0.30948 h -1.553189 z m 3.094786,0 h 1.541598 v 0.30948 h -1.541598 z m 3.094787,0 h 1.541596 v 0.30948 h -1.541596 z m 3.083194,0 h 1.553188 v 0.30948 h -1.553188 z m 2.480465,0.91917 v 1.54507 h -0.301365 v -1.54507 z m 0,3.09131 v 1.54508 h -0.301365 v -1.54508 z m 0,3.09015 v 1.54623 h -0.301365 v -1.54623 z m 0,3.09131 v 1.54507 h -0.301365 v -1.54507 z m 0,3.0913 v 1.54507 h -0.301365 v -1.54507 z m 0,3.09016 v 0.21095 0.0162 0.0139 0.0151 l -0.01162,0.014 v 0.0139 l -0.01162,0.014 -0.01162,0.0119 -0.01162,0.0118 -0.01162,0.0107 -0.01162,0.008 -0.01162,0.008 -0.01162,0.007 -0.01162,0.005 -0.01162,0.004 -0.02319,0.002 -0.01162,0.001 h -1.332959 v -0.30948 h 1.332959 l -0.150681,0.15416 v -0.21096 z m -3.02524,0.36627 h -1.553188 v -0.30948 h 1.553188 z m -3.094786,0 h -1.541597 v -0.30948 h 1.541597 z m -3.094786,0 h -1.541598 v -0.30948 h 1.541598 z m -3.083195,0 h -1.553189 v -0.30948 h 1.553189 z m -3.094787,0 h -1.541596 v -0.30948 h 1.541596 z m -3.094785,0 h -1.541597 v -0.30948 h 1.541597 z m -3.083195,0 h -1.553188 v -0.30948 h 1.553188 z m -3.094786,0 h -1.541598 v -0.30948 h 1.541598 z m -3.094786,0 h -1.541598 v -0.30948 h 1.541598 z m -3.083195,0 h -1.553189 v -0.30948 h 1.553189 z m -3.094785,0 h -1.541598 v -0.30948 h 1.541598 z m -3.094787,0 h -1.541597 v -0.30948 h 1.541597 z m -3.083195,0 h -1.553188 v -0.30948 h 1.553188 z m -3.094786,0 h -1.541598 v -0.30948 h 1.541598 z m -3.094786,0 h -1.541598 v -0.30948 h 1.541598 z m -3.083196,0 h -1.553188 v -0.30948 h 1.553188 z m -3.094785,0 h -1.541597 v -0.30948 h 1.541597 z m -3.094786,0 h -1.541597 v -0.30948 h 1.541597 z m -3.083195,0 h -1.553188 v -0.30948 h 1.553188 z m -3.094786,0 h -1.541598 v -0.30948 h 1.541598 z m -3.094786,0 h -1.541598 v -0.30948 h 1.541598 z m -3.083196,0 H 27.03042 v -0.30948 h 1.553187 z m -3.094785,0 h -1.541597 v -0.30948 h 1.541597 z m -2.689103,-0.70821 v -1.54507 h 0.301365 v 1.54507 z m 0,-3.0913 v -1.54509 h 0.301365 v 1.54509 z m 0,-3.09016 v -1.54624 h 0.301365 v 1.54624 z m 0,-3.09131 v -1.54507 h 0.301365 v 1.54507 z m 0,-3.0913 v -1.54508 h 0.301365 v 1.54508 z m 0,-3.09016 v -0.42307 -0.0151 -0.0151 -0.0139 l 0.01162,-0.0151 v -0.0139 l 0.01162,-0.0127 0.01162,-0.0116 0.01162,-0.0116 0.01162,-0.0104 0.01162,-0.009 0.01162,-0.007 0.01162,-0.007 0.01162,-0.005 0.01162,-0.005 0.02319,-0.001 0.01162,-0.001 h 1.541598 v 0.30947 h -1.541598 l 0.150682,-0.15531 v 0.42306 z"
         id="path12"
         style="stroke-width:0.11591" />
      <path
         fill="#006432"
         fill-opacity="1"
         stroke-linejoin="round"
         d="m 26.045188,108.33079 h 1.541597 v 0.30948 h -1.541597 z m 3.083195,0 h 1.553188 v 0.30948 h -1.553188 z m 3.094786,0 h 1.541598 v 0.30948 h -1.541598 z m 3.094786,0 h 1.541598 v 0.30948 h -1.541598 z m 3.083196,0 h 1.553187 v 0.30948 h -1.553187 z m 3.094785,0 h 1.541597 v 0.30948 h -1.541597 z m 3.094786,0 h 1.541597 v 0.30948 h -1.541597 z m 3.083195,0 h 1.553189 v 0.30948 h -1.553189 z m 3.094786,0 h 1.541598 v 0.30948 h -1.541598 z m 3.094786,0 h 1.541598 v 0.30948 h -1.541598 z m 3.083196,0 h 1.553187 v 0.30948 h -1.553187 z m 3.094785,0 h 1.541597 v 0.30948 H 60.04147 Z m 3.094786,0 h 1.541598 v 0.30948 h -1.541598 z m 3.083195,0 h 1.553189 v 0.30948 h -1.553189 z m 3.094786,0 h 1.541598 v 0.30948 h -1.541598 z m 3.094786,0 h 1.541597 v 0.30948 h -1.541597 z m 3.083195,0 h 1.553188 v 0.30948 h -1.553188 z m 3.094786,0 h 1.541598 v 0.30948 h -1.541598 z m 3.094786,0 h 1.541598 v 0.30948 H 81.68179 Z m 3.083195,0 h 1.553189 v 0.30948 h -1.553189 z m 3.094786,0 h 1.541598 v 0.30948 h -1.541598 z m 3.094787,0 h 1.541596 v 0.30948 h -1.541596 z m 3.083194,0 h 1.553188 v 0.30948 h -1.553188 z m 2.480465,0.91917 v 1.54507 h -0.301365 v -1.54507 z m 0,3.09131 v 1.54507 h -0.301365 v -1.54507 z m 0,3.09015 v 1.54623 h -0.301365 v -1.54623 z m 0,3.0913 v 1.54508 h -0.301365 v -1.54508 z m 0,3.09131 v 1.54508 h -0.301365 v -1.54508 z m 0,3.09015 v 0.21211 0.0151 0.0151 0.0139 l -0.01162,0.0151 v 0.0128 l -0.01162,0.0139 -0.01162,0.0116 -0.01162,0.0116 -0.01162,0.0104 -0.01162,0.008 -0.01162,0.008 -0.01162,0.007 -0.01162,0.005 -0.01162,0.003 -0.02319,0.002 -0.01162,10e-4 h -1.332959 v -0.30948 h 1.332959 l -0.150681,0.15532 v -0.21211 z m -3.02524,0.36627 h -1.553188 v -0.30948 h 1.553188 z m -3.094786,0 h -1.541597 v -0.30948 h 1.541597 z m -3.094786,0 h -1.541598 v -0.30948 h 1.541598 z m -3.083195,0 h -1.553189 v -0.30948 h 1.553189 z m -3.094787,0 h -1.541596 v -0.30948 h 1.541596 z m -3.094785,0 h -1.541597 v -0.30948 h 1.541597 z m -3.083195,0 h -1.553188 v -0.30948 h 1.553188 z m -3.094786,0 h -1.541598 v -0.30948 h 1.541598 z m -3.094786,0 h -1.541598 v -0.30948 h 1.541598 z m -3.083195,0 h -1.553189 v -0.30948 h 1.553189 z m -3.094785,0 h -1.541598 v -0.30948 h 1.541598 z m -3.094787,0 h -1.541597 v -0.30948 h 1.541597 z m -3.083195,0 h -1.553188 v -0.30948 h 1.553188 z m -3.094786,0 h -1.541598 v -0.30948 h 1.541598 z m -3.094786,0 h -1.541598 v -0.30948 h 1.541598 z m -3.083196,0 h -1.553188 v -0.30948 h 1.553188 z m -3.094785,0 h -1.541597 v -0.30948 h 1.541597 z m -3.094786,0 h -1.541597 v -0.30948 h 1.541597 z m -3.083195,0 h -1.553188 v -0.30948 h 1.553188 z m -3.094786,0 h -1.541598 v -0.30948 h 1.541598 z m -3.094786,0 h -1.541598 v -0.30948 h 1.541598 z m -3.083196,0 H 27.03042 v -0.30948 h 1.553187 z m -3.094785,0 h -1.541597 v -0.30948 h 1.541597 z m -2.689103,-0.7082 v -1.54508 h 0.301365 v 1.54508 z m 0,-3.09015 v -1.54623 h 0.301365 v 1.54623 z m 0,-3.09131 v -1.54507 h 0.301365 v 1.54507 z m 0,-3.09131 v -1.54507 h 0.301365 v 1.54507 z m 0,-3.09015 v -1.54623 h 0.301365 v 1.54623 z m 0,-3.09131 v -0.42307 -0.0151 -0.0151 -0.0139 l 0.01162,-0.0151 v -0.0139 l 0.01162,-0.0127 0.01162,-0.0116 0.01162,-0.0116 0.01162,-0.0104 0.01162,-0.009 0.01162,-0.007 0.01162,-0.007 0.01162,-0.005 0.01162,-0.003 0.02319,-0.002 0.01162,-0.001 h 1.541598 v 0.30948 h -1.541598 l 0.150682,-0.15532 v 0.42307 z"
         id="path3630"
         style="stroke-width:0.11591" />
      <rect
         x="29.070408"
         y="112.47456"
         fill="#ffffff"
         fill-opacity="1"
         stroke-width="0.309093"
         stroke-linejoin="round"
         stroke="#000000"
         stroke-opacity="1"
         width="12.236228"
         height="8.5311308"
         id="rect3632" />
      <text
         transform="scale(1.0371714,0.96416079)"
         xml:space="preserve"
         id="text3636"
         x="28.580439"
         y="122.7889"
         style="font-size:1.44262px;stroke-width:0.120218">		 <tspan
   style="font-size:5.89885px;font-family:'メイリオ'"
   letter-spacing="0em"
   fill="#000000"
   fill-opacity="1"
   stroke-width="0.0240436"
   stroke-linejoin="round"
   id="tspan3634">xy</tspan>	</text>
      <rect
         x="53.330257"
         y="112.47456"
         fill="#ffffff"
         fill-opacity="1"
         stroke-width="0.309093"
         stroke-linejoin="round"
         stroke="#000000"
         stroke-opacity="1"
         width="12.236112"
         height="8.5311308"
         id="rect3638" />
      <text
         transform="scale(1.0371714,0.96416079)"
         xml:space="preserve"
         id="text3642"
         x="52.160801"
         y="122.7889"
         style="font-size:1.44262px;stroke-width:0.120218">		 <tspan
   style="font-size:5.89885px;font-family:'メイリオ'"
   letter-spacing="0em"
   fill="#000000"
   fill-opacity="1"
   stroke-width="0.0240436"
   stroke-linejoin="round"
   id="tspan3640">yz</tspan>	</text>
      <rect
         x="78.007454"
         y="112.47456"
         fill="#ffffff"
         fill-opacity="1"
         stroke-width="0.309093"
         stroke-linejoin="round"
         stroke="#000000"
         stroke-opacity="1"
         width="12.236228"
         height="8.531188"
         id="rect3644" />
      <text
         transform="scale(1.0371714,0.96416079)"
         xml:space="preserve"
         id="text3648"
         x="73.282608"
         y="122.7889"
         style="font-size:1.44262px;stroke-width:0.120218">		 <tspan
   style="font-size:5.89885px;font-family:'メイリオ'"
   letter-spacing="0em"
   fill="#000000"
   fill-opacity="1"
   stroke-width="0.0240436"
   stroke-linejoin="round"
   id="tspan3646">yzw</tspan>	</text>
      <rect
         x="29.070408"
         y="143.75508"
         fill="#ffffff"
         fill-opacity="1"
         stroke-width="0.309093"
         stroke-linejoin="round"
         stroke="#000000"
         stroke-opacity="1"
         width="12.236112"
         height="8.5312357"
         id="rect3650" />
      <text
         transform="scale(1.0371714,0.96416079)"
         xml:space="preserve"
         id="text3654"
         x="28.580439"
         y="155.24783"
         style="font-size:1.44262px;stroke-width:0.120218">		 <tspan
   style="font-size:5.89885px;font-family:'メイリオ'"
   letter-spacing="0em"
   fill="#000000"
   fill-opacity="1"
   stroke-width="0.0240436"
   stroke-linejoin="round"
   id="tspan3652">xu</tspan>	</text>
      <rect
         x="53.330257"
         y="143.75508"
         fill="#ffffff"
         fill-opacity="1"
         stroke-width="0.309093"
         stroke-linejoin="round"
         stroke="#000000"
         stroke-opacity="1"
         width="12.236112"
         height="8.5312357"
         id="rect3656" />
      <text
         transform="scale(1.0371714,0.96416079)"
         xml:space="preserve"
         id="text3660"
         x="52.160801"
         y="155.24783"
         style="font-size:1.44262px;stroke-width:0.120218">		 <tspan
   style="font-size:5.89885px;font-family:'メイリオ'"
   letter-spacing="0em"
   fill="#000000"
   fill-opacity="1"
   stroke-width="0.0240436"
   stroke-linejoin="round"
   id="tspan3658">uv</tspan>	</text>
      <text
         transform="scale(1.0371714,0.96416079)"
         xml:space="preserve"
         id="text3664"
         x="52.966015"
         y="110.4362"
         style="font-size:1.44262px;stroke-width:0.120218">		 <tspan
   style="font-size:5.89885px;font-family:'メイリオ'"
   letter-spacing="0em"
   fill="#006432"
   fill-opacity="1"
   stroke-width="0.0240436"
   stroke-linejoin="round"
   id="tspan3662">ALS1(#xyzw)</tspan>	</text>
      <text
         transform="scale(1.0371714,0.96416079)"
         xml:space="preserve"
         id="text3668"
         x="52.826603"
         y="143.64616"
         style="font-size:1.44262px;stroke-width:0.120218">		 <tspan
   style="font-size:5.89885px;font-family:'メイリオ'"
   letter-spacing="0em"
   fill="#230fd2"
   fill-opacity="1"
   stroke-width="0.0240436"
   stroke-linejoin="round"
   id="tspan3666">ALS2(#xuv)</tspan>	</text>
      <rect
         x="17.888638"
         y="128.79115"
         fill="#ffffff"
         fill-opacity="1"
         stroke-width="0.023182"
         stroke-linejoin="round"
         width="29.910931"
         height="7.2673225"
         id="rect3670" />
      <text
         transform="scale(1.0371714,0.96416079)"
         xml:space="preserve"
         id="text3674"
         x="19.445709"
         y="139.49925"
         style="font-size:1.44262px;stroke-width:0.120218">		 <tspan
   style="font-size:5.89885px;font-family:'メイリオ'"
   letter-spacing="0em"
   fill="#ff5000"
   fill-opacity="1"
   stroke-width="0.0240436"
   stroke-linejoin="round"
   id="tspan3672">RCC(#x)</tspan>	</text>
    </g>
  </g>
</svg>
