<?xml version="1.0" encoding="UTF-8" standalone="no"?>
<!-- Created with Inkscape (http://www.inkscape.org/) -->

<svg
   width="128.27563mm"
   height="60.870823mm"
   viewBox="0 0 128.27563 60.870823"
   version="1.1"
   id="svg12839"
   inkscape:version="1.2.2 (732a01da63, 2022-12-09)"
   sodipodi:docname="image25.svg"
   xmlns:inkscape="http://www.inkscape.org/namespaces/inkscape"
   xmlns:sodipodi="http://sodipodi.sourceforge.net/DTD/sodipodi-0.dtd"
   xmlns="http://www.w3.org/2000/svg"
   xmlns:svg="http://www.w3.org/2000/svg">
  <sodipodi:namedview
     id="namedview12841"
     pagecolor="#ffffff"
     bordercolor="#000000"
     borderopacity="0.25"
     inkscape:showpageshadow="2"
     inkscape:pageopacity="0.0"
     inkscape:pagecheckerboard="0"
     inkscape:deskcolor="#d1d1d1"
     inkscape:document-units="mm"
     showgrid="true"
     inkscape:zoom="1.829812"
     inkscape:cx="231.17129"
     inkscape:cy="615.36376"
     inkscape:window-width="2445"
     inkscape:window-height="1729"
     inkscape:window-x="895"
     inkscape:window-y="428"
     inkscape:window-maximized="0"
     inkscape:current-layer="layer1">
    <inkscape:grid
       type="xygrid"
       id="grid15288"
       originx="-32.696429"
       originy="-123.93932"
       spacingy="1"
       spacingx="1"
       units="mm"
       visible="true" />
  </sodipodi:namedview>
  <defs
     id="defs12836" />
  <g
     inkscape:label="Layer 1"
     inkscape:groupmode="layer"
     id="layer1"
     transform="translate(-32.696429,-123.93933)">
    <g
       id="g17163"
       inkscape:export-filename="img25ConnectedCells.png"
       inkscape:export-xdpi="96"
       inkscape:export-ydpi="96">
      <g
         id="g17076"
         transform="translate(-65.501947,-10.700097)">
        <g
           id="g17019"
           style="stroke-width:0.8;stroke-dasharray:none"
           transform="translate(133.31743,11.133885)">
          <rect
             x="32.372841"
             y="124.60365"
             fill="#ffffff"
             fill-opacity="1"
             stroke-width="0.275927"
             stroke-linejoin="round"
             stroke="#000000"
             stroke-opacity="1"
             width="59.708115"
             height="59.492012"
             id="rect17017"
             transform="matrix(0.99999335,-0.00364665,0.0036732,0.99999325,0,0)"
             style="stroke:#00008f;stroke-width:0.8;stroke-dasharray:none;stroke-opacity:1" />
        </g>
        <g
           id="g17025"
           transform="rotate(90,123.93031,226.34563)"
           style="stroke-width:0.6;stroke-dasharray:none">
          <path
             style="fill:none;stroke:#0000ee;stroke-width:0.6;stroke-dasharray:none;stroke-opacity:0.315789"
             d="m 33.072917,144.19822 c 59.396166,-0.0865 59.53125,0 59.53125,0"
             id="path17021" />
          <path
             style="fill:none;stroke:#0000ee;stroke-width:0.6;stroke-dasharray:none;stroke-opacity:0.315789"
             d="m 33.072917,164.08016 c 59.396166,-0.0865 59.53125,0 59.53125,0"
             id="path17023" />
        </g>
        <g
           id="g17031"
           style="stroke-width:0.6;stroke-dasharray:none"
           transform="translate(133.31743,11.133885)">
          <path
             style="fill:none;stroke:#0000ee;stroke-width:0.6;stroke-dasharray:none;stroke-opacity:0.315789"
             d="m 33.072917,144.19822 c 59.396166,-0.0865 59.53125,0 59.53125,0"
             id="path17027" />
          <path
             style="fill:none;stroke:#0000ee;stroke-width:0.6;stroke-dasharray:none;stroke-opacity:0.315789"
             d="m 33.072917,164.08016 c 59.396166,-0.0865 59.53125,0 59.53125,0"
             id="path17029" />
        </g>
      </g>
      <g
         id="g17058"
         transform="translate(-0.52916667)">
        <path
           fill="#000000"
           fill-opacity="1"
           stroke-width="0.550856"
           stroke-linejoin="round"
           stroke="#000000"
           stroke-opacity="1"
           d="m 104.59215,125.52506 c 1.39435,0 2.50984,1.12478 2.50984,2.5119 0,1.38713 -1.11549,2.51088 -2.50984,2.51088 -1.38403,0 -2.50984,-1.12375 -2.50984,-2.51088 0,-1.38712 1.12581,-2.5119 2.50984,-2.5119 z"
           id="path2522" />
        <path
           fill="#ffffff"
           fill-opacity="1"
           stroke-width="0.550856"
           stroke-linejoin="round"
           stroke="#000000"
           stroke-opacity="1"
           d="m 141.77496,128.1072 c 0,-1.3861 1.12581,-2.51088 2.50984,-2.51088 1.39436,0 2.52017,1.12478 2.52017,2.51088 0,1.38712 -1.12581,2.5119 -2.52017,2.5119 -1.38403,0 -2.50984,-1.12478 -2.50984,-2.5119 z"
           id="path2524" />
        <line
           fill="none"
           stroke-width="0.275429"
           stroke-linejoin="round"
           stroke="#000000"
           stroke-opacity="1"
           x1="101.28699"
           y1="128.03694"
           x2="160.7795"
           y2="128.03694"
           id="line2526" />
        <path
           fill="#ffffff"
           fill-opacity="1"
           stroke-width="0.550856"
           stroke-linejoin="round"
           stroke="#000000"
           stroke-opacity="1"
           d="m 154.75796,128.1072 c 0,-1.3861 1.12581,-2.51088 2.50984,-2.51088 1.38403,0 2.50984,1.12478 2.50984,2.51088 0,1.38712 -1.12581,2.5119 -2.50984,2.5119 -1.38403,0 -2.50984,-1.12478 -2.50984,-2.5119 z"
           id="path2528" />
        <path
           fill="#ffffff"
           fill-opacity="1"
           stroke-width="0.550856"
           stroke-linejoin="round"
           stroke="#000000"
           stroke-opacity="1"
           d="m 148.14768,128.1072 c 0,-1.3861 1.12582,-2.51088 2.50984,-2.51088 1.38403,0 2.50984,1.12478 2.50984,2.51088 0,1.38712 -1.12581,2.5119 -2.50984,2.5119 -1.38402,0 -2.50984,-1.12478 -2.50984,-2.5119 z"
           id="path2530" />
        <path
           fill="#ffffff"
           fill-opacity="1"
           stroke-width="0.550856"
           stroke-linejoin="round"
           stroke="#000000"
           stroke-opacity="1"
           d="m 108.6616,128.06898 c 0,-1.38712 1.12581,-2.51087 2.50984,-2.51087 1.38403,0 2.50984,1.12375 2.50984,2.51087 0,1.38713 -1.12581,2.51087 -2.50984,2.51087 -1.38403,0 -2.50984,-1.12374 -2.50984,-2.51087 z"
           id="path2532" />
        <path
           fill="#ffffff"
           fill-opacity="1"
           stroke-width="0.550856"
           stroke-linejoin="round"
           stroke="#000000"
           stroke-opacity="1"
           d="m 121.88216,128.06898 c 0,-1.38712 1.12581,-2.51087 2.50984,-2.51087 1.38402,0 2.50984,1.12375 2.50984,2.51087 0,1.38713 -1.12582,2.51087 -2.50984,2.51087 -1.38403,0 -2.50984,-1.12374 -2.50984,-2.51087 z"
           id="path2534" />
        <path
           fill="#ffffff"
           fill-opacity="1"
           stroke-width="0.550856"
           stroke-linejoin="round"
           stroke="#000000"
           stroke-opacity="1"
           d="m 115.27188,128.06898 c 0,-1.38712 1.12581,-2.51087 2.50984,-2.51087 1.38402,0 2.50984,1.12375 2.50984,2.51087 0,1.38713 -1.12582,2.51087 -2.50984,2.51087 -1.38403,0 -2.50984,-1.12374 -2.50984,-2.51087 z"
           id="path2536" />
        <path
           fill="#ffffff"
           fill-opacity="1"
           stroke-width="0.550856"
           stroke-linejoin="round"
           stroke="#000000"
           stroke-opacity="1"
           d="m 135.10271,128.06898 c 0,-1.38712 1.12581,-2.51087 2.50984,-2.51087 1.38403,0 2.50984,1.12375 2.50984,2.51087 0,1.38713 -1.12581,2.51087 -2.50984,2.51087 -1.38403,0 -2.50984,-1.12374 -2.50984,-2.51087 z"
           id="path2538" />
        <path
           fill="#ffffff"
           fill-opacity="1"
           stroke-width="0.550856"
           stroke-linejoin="round"
           stroke="#000000"
           stroke-opacity="1"
           d="m 128.49243,128.06898 c 0,-1.38712 1.12582,-2.51087 2.50984,-2.51087 1.38403,0 2.50984,1.12375 2.50984,2.51087 0,1.38713 -1.12581,2.51087 -2.50984,2.51087 -1.38402,0 -2.50984,-1.12374 -2.50984,-2.51087 z"
           id="path2540" />
        <path
           fill="#ffffff"
           fill-opacity="1"
           stroke-width="0.550856"
           stroke-linejoin="round"
           stroke="#000000"
           stroke-opacity="1"
           d="m 108.82686,134.82076 c 0,-1.38609 1.12581,-2.51087 2.50984,-2.51087 1.39435,0 2.52016,1.12478 2.52016,2.51087 0,1.38713 -1.12581,2.51191 -2.52016,2.51191 -1.38403,0 -2.50984,-1.12478 -2.50984,-2.51191 z"
           id="path2542" />
        <path
           fill="#ffffff"
           fill-opacity="1"
           stroke-width="0.550856"
           stroke-linejoin="round"
           stroke="#000000"
           stroke-opacity="1"
           d="m 115.43713,134.82076 c 0,-1.38609 1.12582,-2.51087 2.50984,-2.51087 1.39436,0 2.52017,1.12478 2.52017,2.51087 0,1.38713 -1.12581,2.51191 -2.52017,2.51191 -1.38402,0 -2.50984,-1.12478 -2.50984,-2.51191 z"
           id="path2544" />
        <path
           fill="#ffffff"
           fill-opacity="1"
           stroke-width="0.550856"
           stroke-linejoin="round"
           stroke="#000000"
           stroke-opacity="1"
           d="m 108.97146,141.49611 c 0,-1.38713 1.12581,-2.51087 2.50984,-2.51087 1.38402,0 2.50984,1.12374 2.50984,2.51087 0,1.38713 -1.12582,2.51087 -2.50984,2.51087 -1.38403,0 -2.50984,-1.12374 -2.50984,-2.51087 z"
           id="path2546" />
        <path
           fill="#ffffff"
           fill-opacity="1"
           stroke-width="0.550856"
           stroke-linejoin="round"
           stroke="#000000"
           stroke-opacity="1"
           d="m 115.58173,141.49611 c 0,-1.38713 1.12582,-2.51087 2.50984,-2.51087 1.38403,0 2.50984,1.12374 2.50984,2.51087 0,1.38713 -1.12581,2.51087 -2.50984,2.51087 -1.38402,0 -2.50984,-1.12374 -2.50984,-2.51087 z"
           id="path2548" />
        <line
           fill="none"
           stroke-width="0.275429"
           stroke-linejoin="round"
           stroke="#000000"
           stroke-opacity="1"
           x1="104.59212"
           y1="124.7318"
           x2="104.59212"
           y2="184.2243"
           id="line2550" />
        <path
           fill="#ffffff"
           fill-opacity="1"
           stroke-width="0.550856"
           stroke-linejoin="round"
           stroke="#000000"
           stroke-opacity="1"
           d="m 104.59215,132.13534 c 1.39435,0 2.50984,1.12478 2.50984,2.5119 0,1.38713 -1.11549,2.51087 -2.50984,2.51087 -1.38403,0 -2.50984,-1.12374 -2.50984,-2.51087 0,-1.38712 1.12581,-2.5119 2.50984,-2.5119 z"
           id="path2552" />
        <path
           fill="#ffffff"
           fill-opacity="1"
           stroke-width="0.550856"
           stroke-linejoin="round"
           stroke="#000000"
           stroke-opacity="1"
           d="m 104.59215,138.74561 c 1.39435,0 2.50984,1.12478 2.50984,2.51191 0,1.38713 -1.11549,2.51087 -2.50984,2.51087 -1.38403,0 -2.50984,-1.12374 -2.50984,-2.51087 0,-1.38713 1.12581,-2.51191 2.50984,-2.51191 z"
           id="path2554" />
        <path
           fill="#ffffff"
           fill-opacity="1"
           stroke-width="0.550856"
           stroke-linejoin="round"
           stroke="#000000"
           stroke-opacity="1"
           d="m 104.59215,158.57645 c 1.39435,0 2.50984,1.12478 2.50984,2.51191 0,1.38712 -1.11549,2.51087 -2.50984,2.51087 -1.38403,0 -2.50984,-1.12375 -2.50984,-2.51087 0,-1.38713 1.12581,-2.51191 2.50984,-2.51191 z"
           id="path2556" />
        <path
           fill="#ffffff"
           fill-opacity="1"
           stroke-width="0.550856"
           stroke-linejoin="round"
           stroke="#000000"
           stroke-opacity="1"
           d="m 104.66445,165.29001 c 1.38402,0 2.50984,1.12478 2.50984,2.51191 0,1.38712 -1.12582,2.51087 -2.50984,2.51087 -1.38403,0 -2.50984,-1.12375 -2.50984,-2.51087 0,-1.38713 1.12581,-2.51191 2.50984,-2.51191 z"
           id="path2558" />
        <path
           fill="#ffffff"
           fill-opacity="1"
           stroke-width="0.550856"
           stroke-linejoin="round"
           stroke="#000000"
           stroke-opacity="1"
           d="m 104.59215,145.35589 c 1.39435,0 2.50984,1.12478 2.50984,2.51191 0,1.38712 -1.11549,2.51087 -2.50984,2.51087 -1.38403,0 -2.50984,-1.12375 -2.50984,-2.51087 0,-1.38713 1.12581,-2.51191 2.50984,-2.51191 z"
           id="path2560" />
        <path
           fill="#ffffff"
           fill-opacity="1"
           stroke-width="0.550856"
           stroke-linejoin="round"
           stroke="#000000"
           stroke-opacity="1"
           d="m 104.59215,151.96617 c 1.39435,0 2.50984,1.12478 2.50984,2.51191 0,1.38712 -1.11549,2.51087 -2.50984,2.51087 -1.38403,0 -2.50984,-1.12375 -2.50984,-2.51087 0,-1.38713 1.12581,-2.51191 2.50984,-2.51191 z"
           id="path2562" />
        <path
           fill="#ffffff"
           fill-opacity="1"
           stroke-width="0.550856"
           stroke-linejoin="round"
           stroke="#000000"
           stroke-opacity="1"
           d="m 104.59215,172.00564 c 1.39435,0 2.50984,1.12478 2.50984,2.51191 0,1.38712 -1.11549,2.51087 -2.50984,2.51087 -1.38403,0 -2.50984,-1.12375 -2.50984,-2.51087 0,-1.38713 1.12581,-2.51191 2.50984,-2.51191 z"
           id="path2564" />
        <path
           fill="#ffffff"
           fill-opacity="1"
           stroke-width="0.550856"
           stroke-linejoin="round"
           stroke="#000000"
           stroke-opacity="1"
           d="m 104.59215,178.37527 c 1.39435,0 2.50984,1.12478 2.50984,2.51087 0,1.38712 -1.11549,2.5119 -2.50984,2.5119 -1.38403,0 -2.50984,-1.12478 -2.50984,-2.5119 0,-1.38609 1.12581,-2.51087 2.50984,-2.51087 z"
           id="path2566" />
      </g>
    </g>
    <g
       id="g17128">
      <g
         id="g17094"
         transform="translate(-133.05132,-11.061587)">
        <g
           id="g17080"
           style="stroke-width:0.8;stroke-dasharray:none"
           transform="translate(133.31743,11.133885)">
          <rect
             x="32.372841"
             y="124.60365"
             fill="#ffffff"
             fill-opacity="1"
             stroke-width="0.275927"
             stroke-linejoin="round"
             stroke="#000000"
             stroke-opacity="1"
             width="59.708115"
             height="59.492012"
             id="rect17078"
             transform="matrix(0.99999335,-0.00364665,0.0036732,0.99999325,0,0)"
             style="stroke:#00008f;stroke-width:0.8;stroke-dasharray:none;stroke-opacity:1" />
        </g>
        <g
           id="g17086"
           transform="rotate(90,123.93031,226.34563)"
           style="stroke-width:0.6;stroke-dasharray:none">
          <path
             style="fill:none;stroke:#0000ee;stroke-width:0.6;stroke-dasharray:none;stroke-opacity:0.315789"
             d="m 33.072917,144.19822 c 59.396166,-0.0865 59.53125,0 59.53125,0"
             id="path17082" />
          <path
             style="fill:none;stroke:#0000ee;stroke-width:0.6;stroke-dasharray:none;stroke-opacity:0.315789"
             d="m 33.072917,164.08016 c 59.396166,-0.0865 59.53125,0 59.53125,0"
             id="path17084" />
        </g>
        <g
           id="g17092"
           style="stroke-width:0.6;stroke-dasharray:none"
           transform="translate(133.31743,11.133885)">
          <path
             style="fill:none;stroke:#0000ee;stroke-width:0.6;stroke-dasharray:none;stroke-opacity:0.315789"
             d="m 33.072917,144.19822 c 59.396166,-0.0865 59.53125,0 59.53125,0"
             id="path17088" />
          <path
             style="fill:none;stroke:#0000ee;stroke-width:0.6;stroke-dasharray:none;stroke-opacity:0.315789"
             d="m 33.072917,164.08016 c 59.396166,-0.0865 59.53125,0 59.53125,0"
             id="path17090" />
        </g>
      </g>
      <line
         fill="none"
         stroke-width="0.275927"
         stroke-linejoin="round"
         stroke="#000000"
         stroke-opacity="1"
         x1="56.049988"
         y1="124.40009"
         x2="56.268513"
         y2="183.89169"
         id="line2468" />
      <path
         fill="#ffffff"
         fill-opacity="1"
         stroke-width="0.551851"
         stroke-linejoin="round"
         stroke="#000000"
         stroke-opacity="1"
         d="m 56.078091,132.04519 c 1.399399,-0.005 2.523047,1.11455 2.528142,2.50166 0.0051,1.3871 -1.110297,2.51491 -2.509696,2.52002 -1.389034,0.005 -2.523047,-1.11455 -2.528143,-2.50165 -0.0051,-1.38711 1.120663,-2.51496 2.509697,-2.52003 z"
         id="path2470" />
      <path
         fill="#000000"
         fill-opacity="1"
         stroke-width="0.551851"
         stroke-linejoin="round"
         stroke="#000000"
         stroke-opacity="1"
         d="m 56.125764,145.02387 c 1.3994,-0.005 2.523051,1.11557 2.528146,2.50268 0.0051,1.3871 -1.110297,2.51492 -2.509696,2.52002 -1.389034,0.005 -2.523047,-1.11455 -2.528142,-2.50164 -0.0051,-1.38711 1.120659,-2.516 2.509692,-2.52106 z"
         id="path2474" />
      <path
         fill="#ffffff"
         fill-opacity="1"
         stroke-width="0.551851"
         stroke-linejoin="round"
         stroke="#000000"
         stroke-opacity="1"
         d="m 56.101484,138.41369 c 1.399399,-0.005 2.523051,1.11557 2.528146,2.50268 0.0051,1.38711 -1.110298,2.51492 -2.509697,2.52002 -1.389033,0.005 -2.523047,-1.11454 -2.528142,-2.50165 -0.0051,-1.3871 1.120659,-2.51599 2.509693,-2.52105 z"
         id="path2476" />
      <path
         fill="#ffffff"
         fill-opacity="1"
         stroke-width="0.551851"
         stroke-linejoin="round"
         stroke="#000000"
         stroke-opacity="1"
         d="m 56.174326,158.24423 c 1.399399,-0.005 2.523051,1.11558 2.528146,2.50269 0.0051,1.38709 -1.110298,2.51491 -2.509697,2.52001 -1.389033,0.005 -2.523047,-1.11454 -2.528142,-2.50164 -0.0051,-1.38711 1.120659,-2.516 2.509693,-2.52106 z"
         id="path2478" />
      <path
         fill="#ffffff"
         fill-opacity="1"
         stroke-width="0.551851"
         stroke-linejoin="round"
         stroke="#000000"
         stroke-opacity="1"
         d="m 56.150045,151.63405 c 1.399399,-0.005 2.523051,1.11558 2.528146,2.50268 0.0051,1.3871 -1.110297,2.51492 -2.509696,2.52002 -1.389034,0.005 -2.523047,-1.11455 -2.528143,-2.50164 -0.0051,-1.38711 1.120659,-2.516 2.509693,-2.52106 z"
         id="path2480" />
      <path
         fill="#ffffff"
         fill-opacity="1"
         stroke-width="0.551851"
         stroke-linejoin="round"
         stroke="#000000"
         stroke-opacity="1"
         d="m 56.222887,171.46459 c 1.399399,-0.005 2.523051,1.11558 2.528146,2.50268 0.0051,1.38711 -1.110297,2.51491 -2.509696,2.52001 -1.389034,0.005 -2.523047,-1.11453 -2.528143,-2.50164 -0.0051,-1.3871 1.120659,-2.51598 2.509693,-2.52105 z"
         id="path2482" />
      <path
         fill="#ffffff"
         fill-opacity="1"
         stroke-width="0.551851"
         stroke-linejoin="round"
         stroke="#000000"
         stroke-opacity="1"
         d="m 56.198607,164.85441 c 1.399399,-0.005 2.52305,1.11558 2.528145,2.50268 0.0051,1.3871 -1.110297,2.51492 -2.509696,2.52002 -1.389034,0.005 -2.523047,-1.11454 -2.528142,-2.50165 -0.0051,-1.3871 1.120659,-2.51599 2.509693,-2.52105 z"
         id="path2484" />
      <path
         fill="#ffffff"
         fill-opacity="1"
         stroke-width="0.551851"
         stroke-linejoin="round"
         stroke="#000000"
         stroke-opacity="1"
         d="m 56.125985,125.3294 c 1.389033,-0.005 2.523047,1.11455 2.528142,2.50166 0.0051,1.38709 -1.120663,2.51495 -2.509696,2.52001 -1.389034,0.005 -2.523048,-1.11454 -2.528143,-2.50164 -0.0051,-1.38711 1.120663,-2.51497 2.509697,-2.52003 z"
         id="path2486" />
      <path
         fill="#ffffff"
         fill-opacity="1"
         stroke-width="0.551851"
         stroke-linejoin="round"
         stroke="#000000"
         stroke-opacity="1"
         d="m 56.247168,178.07476 c 1.399399,-0.005 2.523051,1.11558 2.528146,2.50269 0.0051,1.38711 -1.110298,2.51491 -2.509697,2.52002 -1.389033,0.005 -2.523047,-1.11454 -2.528142,-2.50165 -0.0051,-1.38711 1.120659,-2.51599 2.509693,-2.52106 z"
         id="path2488" />
      <line
         fill="none"
         stroke-width="0.275927"
         stroke-linejoin="round"
         stroke="#000000"
         stroke-opacity="1"
         x1="32.915302"
         y1="147.62039"
         x2="92.623024"
         y2="147.40266"
         id="line2490" />
      <path
         fill="#ffffff"
         fill-opacity="1"
         stroke-width="0.551851"
         stroke-linejoin="round"
         stroke="#000000"
         stroke-opacity="1"
         d="m 33.920935,147.64877 c -0.0051,-1.38711 1.120662,-2.51497 2.520061,-2.52007 1.389034,-0.005 2.523048,1.11455 2.528143,2.50166 0.0051,1.3871 -1.120663,2.51495 -2.509697,2.52002 -1.399399,0.005 -2.533412,-1.11451 -2.538507,-2.50161 z"
         id="path2492" />
      <path
         fill="#ffffff"
         fill-opacity="1"
         stroke-width="0.551851"
         stroke-linejoin="round"
         stroke="#000000"
         stroke-opacity="1"
         d="m 46.950901,147.60125 c -0.0051,-1.38711 1.120662,-2.51496 2.509696,-2.52003 1.389034,-0.005 2.523047,1.11455 2.528142,2.50166 0.0051,1.3871 -1.120662,2.51495 -2.509696,2.52002 -1.389034,0.005 -2.523047,-1.11455 -2.528142,-2.50165 z"
         id="path2494" />
      <path
         fill="#ffffff"
         fill-opacity="1"
         stroke-width="0.551851"
         stroke-linejoin="round"
         stroke="#000000"
         stroke-opacity="1"
         d="m 40.316709,147.62544 c -0.0051,-1.38711 1.120663,-2.51496 2.509696,-2.52002 1.389034,-0.005 2.523047,1.11454 2.528143,2.50165 0.0051,1.3871 -1.120663,2.51495 -2.509697,2.52002 -1.389034,0.005 -2.523047,-1.11455 -2.528142,-2.50165 z"
         id="path2496" />
      <path
         fill="#ffffff"
         fill-opacity="1"
         stroke-width="0.551851"
         stroke-linejoin="round"
         stroke="#000000"
         stroke-opacity="1"
         d="m 60.219282,147.55287 c -0.0051,-1.38711 1.120663,-2.51497 2.509696,-2.52003 1.389034,-0.005 2.523048,1.11454 2.528143,2.50165 0.0051,1.3871 -1.120663,2.51496 -2.509697,2.52002 -1.389034,0.005 -2.523047,-1.11455 -2.528142,-2.50164 z"
         id="path2498" />
      <path
         fill="#ffffff"
         fill-opacity="1"
         stroke-width="0.551851"
         stroke-linejoin="round"
         stroke="#000000"
         stroke-opacity="1"
         d="m 73.487664,147.50448 c -0.0051,-1.38711 1.120663,-2.51496 2.509697,-2.52003 1.389034,-0.005 2.523047,1.11455 2.528142,2.50166 0.0051,1.3871 -1.120663,2.51495 -2.509696,2.52002 -1.389034,0.005 -2.523048,-1.11455 -2.528143,-2.50165 z"
         id="path2500" />
      <path
         fill="#ffffff"
         fill-opacity="1"
         stroke-width="0.551851"
         stroke-linejoin="round"
         stroke="#000000"
         stroke-opacity="1"
         d="m 66.853474,147.52867 c -0.0051,-1.38711 1.120662,-2.51496 2.509696,-2.52003 1.389034,-0.005 2.523047,1.11455 2.528142,2.50166 0.0051,1.3871 -1.120662,2.51495 -2.509696,2.52002 -1.389034,0.005 -2.523047,-1.11455 -2.528142,-2.50165 z"
         id="path2502" />
      <path
         fill="#ffffff"
         fill-opacity="1"
         stroke-width="0.551851"
         stroke-linejoin="round"
         stroke="#000000"
         stroke-opacity="1"
         d="m 86.756047,147.45609 c -0.0051,-1.3871 1.120662,-2.51496 2.509696,-2.52002 1.389034,-0.005 2.523047,1.11454 2.528142,2.50165 0.0051,1.3871 -1.120662,2.51496 -2.509696,2.52002 -1.389034,0.005 -2.523047,-1.11455 -2.528142,-2.50165 z"
         id="path2504" />
      <path
         fill="#ffffff"
         fill-opacity="1"
         stroke-width="0.551851"
         stroke-linejoin="round"
         stroke="#000000"
         stroke-opacity="1"
         d="m 80.121856,147.48029 c -0.0051,-1.38711 1.120663,-2.51497 2.509696,-2.52003 1.389034,-0.005 2.523048,1.11455 2.528143,2.50166 0.0051,1.38709 -1.120663,2.51495 -2.509697,2.52001 -1.389033,0.005 -2.523047,-1.11454 -2.528142,-2.50164 z"
         id="path2506" />
      <path
         fill="#ffffff"
         fill-opacity="1"
         stroke-width="0.551851"
         stroke-linejoin="round"
         stroke="#000000"
         stroke-opacity="1"
         d="m 60.409937,154.30394 c -0.0051,-1.38608 1.120663,-2.51496 2.509697,-2.52003 1.3994,-0.005 2.533417,1.11554 2.538508,2.50162 0.0051,1.3871 -1.120659,2.51598 -2.520059,2.52109 -1.389033,0.005 -2.523051,-1.11558 -2.528146,-2.50268 z"
         id="path2508" />
      <path
         fill="#ffffff"
         fill-opacity="1"
         stroke-width="0.551851"
         stroke-linejoin="round"
         stroke="#000000"
         stroke-opacity="1"
         d="m 67.044129,154.27975 c -0.0051,-1.38608 1.120663,-2.51497 2.509696,-2.52003 1.399399,-0.005 2.533417,1.11554 2.538508,2.50162 0.0051,1.3871 -1.120659,2.51598 -2.520058,2.52108 -1.389034,0.005 -2.523051,-1.11557 -2.528146,-2.50267 z"
         id="path2510" />
      <path
         fill="#ffffff"
         fill-opacity="1"
         stroke-width="0.551851"
         stroke-linejoin="round"
         stroke="#000000"
         stroke-opacity="1"
         d="m 60.57958,160.97865 c -0.0051,-1.3871 1.120663,-2.51495 2.509696,-2.52002 1.389034,-0.005 2.523048,1.11455 2.528143,2.50165 0.0051,1.38711 -1.120663,2.51496 -2.509697,2.52003 -1.389033,0.005 -2.523047,-1.11455 -2.528142,-2.50166 z"
         id="path2512" />
      <path
         fill="#ffffff"
         fill-opacity="1"
         stroke-width="0.551851"
         stroke-linejoin="round"
         stroke="#000000"
         stroke-opacity="1"
         d="m 67.213772,160.95446 c -0.0051,-1.3871 1.120662,-2.51496 2.509696,-2.52002 1.389034,-0.005 2.523047,1.11455 2.528142,2.50165 0.0051,1.3871 -1.120662,2.51496 -2.509696,2.52002 -1.389034,0.005 -2.523047,-1.11454 -2.528142,-2.50165 z"
         id="path2514" />
    </g>
  </g>
</svg>
