<?xml version="1.0" encoding="UTF-8" standalone="no"?>
<!-- Created with Inkscape (http://www.inkscape.org/) -->

<svg
   width="142.83409mm"
   height="95.300385mm"
   viewBox="0 0 142.83409 95.300385"
   version="1.1"
   id="svg8179"
   inkscape:version="1.3.2 (091e20e, 2023-11-25, custom)"
   sodipodi:docname="image44.svg"
   xmlns:inkscape="http://www.inkscape.org/namespaces/inkscape"
   xmlns:sodipodi="http://sodipodi.sourceforge.net/DTD/sodipodi-0.dtd"
   xmlns="http://www.w3.org/2000/svg"
   xmlns:svg="http://www.w3.org/2000/svg">
  <sodipodi:namedview
     id="namedview8181"
     pagecolor="#ffffff"
     bordercolor="#000000"
     borderopacity="0.25"
     inkscape:showpageshadow="2"
     inkscape:pageopacity="0.0"
     inkscape:pagecheckerboard="0"
     inkscape:deskcolor="#d1d1d1"
     inkscape:document-units="mm"
     showgrid="false"
     inkscape:zoom="0.45745301"
     inkscape:cx="402.22711"
     inkscape:cy="569.4574"
     inkscape:window-width="2105"
     inkscape:window-height="1230"
     inkscape:window-x="1423"
     inkscape:window-y="321"
     inkscape:window-maximized="0"
     inkscape:current-layer="layer1" />
  <defs
     id="defs8176" />
  <g
     inkscape:label="Layer 1"
     inkscape:groupmode="layer"
     id="layer1"
     transform="translate(-256.32477,-19.124988)">
    <path
       fill="#000000"
       fill-opacity="1"
       stroke-linejoin="round"
       d="m 346.37962,36.833321 h 1.16213 v 0.233299 h -1.16213 z m 2.33299,0 h 1.16213 v 0.233299 h -1.16213 z m 2.32426,0 h 1.17087 v 0.233299 h -1.17087 z m 2.333,0 h 1.16212 v 0.233299 h -1.16212 z m 2.33299,0 h 1.16213 v 0.233299 h -1.16213 z m 2.32426,0 h 1.17086 v 0.233299 h -1.17086 z m 2.333,0 h 1.16212 v 0.233299 h -1.16212 z m 2.33299,0 h 1.16213 v 0.233299 h -1.16213 z m 2.32426,0 h 1.17086 v 0.233299 h -1.17086 z m 2.333,0 h 1.16212 v 0.233299 h -1.16212 z m 2.33299,0 h 1.16213 v 0.233299 h -1.16213 z m 2.32425,0 h 1.17087 v 0.233299 h -1.17087 z m 2.333,0 h 1.16213 v 0.233299 h -1.16213 z m 2.333,0 h 1.16212 v 0.233299 h -1.16212 z m 2.32425,0 h 1.17087 v 0.233299 h -1.17087 z m 2.333,0 h 1.16213 v 0.233299 h -1.16213 z m 2.333,0 h 1.16213 v 0.233299 h -1.16213 z m 2.32425,0 h 1.17087 v 0.233299 h -1.17087 z m 2.333,0 h 1.16213 v 0.233299 h -1.16213 z m 2.333,0 h 1.16212 v 0.233299 h -1.16212 z m 2.32425,0 h 1.17087 v 0.233299 h -1.17087 z m 2.33299,0 h 0.93495 v 0.233299 h -0.93495 z m -51.26473,0 h 1.17087 v 0.233299 h -1.17087 z"
       id="path4132"
       style="stroke-width:0.0873781"
       inkscape:export-filename="img44c.png"
       inkscape:export-xdpi="96"
       inkscape:export-ydpi="96" />
    <path
       fill="#000000"
       fill-opacity="1"
       stroke-linejoin="round"
       d="m 262.49663,36.833321 h 1.16213 v 0.233299 h -1.16213 z m 2.33299,0 h 1.16214 v 0.233299 h -1.16214 z m 2.32426,0 h 1.17087 v 0.233299 h -1.17087 z m 2.333,0 h 1.16213 v 0.233299 h -1.16213 z m 2.33299,0 h 1.16214 v 0.233299 h -1.16214 z m 2.32426,0 h 1.17087 v 0.233299 h -1.17087 z m 2.333,0 h 1.16213 v 0.233299 h -1.16213 z m 2.33299,0 h 1.16213 v 0.233299 h -1.16213 z m 2.32426,0 h 1.17087 v 0.233299 h -1.17087 z m 2.333,0 h 1.16213 v 0.233299 h -1.16213 z m 2.33299,0 h 1.16213 v 0.233299 h -1.16213 z m 2.32426,0 h 1.17087 v 0.233299 h -1.17087 z m 2.333,0 h 1.16212 v 0.233299 h -1.16212 z m 2.33299,0 h 1.16213 v 0.233299 h -1.16213 z m 2.32426,0 h 1.17087 v 0.233299 h -1.17087 z m 2.33299,0 H 298.61 v 0.233299 h -1.16213 z m 2.333,0 h 1.16212 v 0.233299 h -1.16212 z m 2.32426,0 h 1.17086 v 0.233299 h -1.17086 z m 2.33299,0 h 1.16213 v 0.233299 h -1.16213 z m 2.333,0 h 1.16212 v 0.233299 h -1.16212 z m 2.32426,0 h 1.17086 v 0.233299 h -1.17086 z m 2.33299,0 h 0.93495 v 0.233299 h -0.93495 z m -51.26473,0 h 1.17087 v 0.233299 h -1.17087 z"
       id="path4134"
       style="stroke-width:0.0873781" />
    <rect
       x="262.03351"
       y="34.154305"
       fill="#ffffff"
       fill-opacity="1"
       stroke-width="0.233009"
       stroke-linejoin="round"
       stroke="#000000"
       stroke-opacity="1"
       width="7.3122807"
       height="5.5921988"
       id="rect4136" />
    <path
       fill="#ffffff"
       fill-opacity="1"
       stroke-width="0.233009"
       stroke-linejoin="round"
       stroke="#000000"
       stroke-opacity="1"
       d="m 293.72557,33.221983 h 14.91544 c 0.51553,0 0.92621,0.416794 0.92621,0.932325 v 6.523649 c 0,0.514657 -0.41068,0.932325 -0.92621,0.932325 h -14.91544 c -0.51553,0 -0.93495,-0.417668 -0.93495,-0.932325 v -6.523649 c 0,-0.515531 0.41942,-0.932325 0.93495,-0.932325 z"
       id="path4138" />
    <rect
       x="256.44128"
       y="19.241491"
       fill="none"
       stroke-width="0.233009"
       stroke-linejoin="round"
       stroke="#000000"
       stroke-opacity="1"
       width="58.718082"
       height="44.737591"
       id="rect4140" />
    <path
       fill="#000000"
       fill-opacity="1"
       stroke-linejoin="round"
       d="m 262.50537,27.513572 h 1.16213 v 0.232425 h -1.16213 z m 2.32425,0 h 1.17087 v 0.232425 h -1.17087 z m 2.333,0 h 1.16213 v 0.232425 h -1.16213 z m 2.333,0 h 1.16213 v 0.232425 h -1.16213 z m 2.32425,0 h 1.17087 v 0.232425 h -1.17087 z m 2.333,0 h 1.16213 v 0.232425 h -1.16213 z m 2.333,0 h 1.16213 v 0.232425 h -1.16213 z m 2.32425,0 h 1.17087 v 0.232425 h -1.17087 z m 2.333,0 h 1.16213 v 0.232425 h -1.16213 z m 2.333,0 h 1.16212 v 0.232425 h -1.16212 z m 2.32425,0 h 0.47184 l 0.40194,0.08214 0.27961,0.183494 -0.0961,0.21495 -0.27087,-0.183493 -0.31456,-0.06466 h -0.47184 z m 1.52038,1.457467 v 1.16475 h -0.23592 v -1.16475 z m 0,2.3295 v 1.165624 h -0.23592 v -1.165624 z m 0,2.330374 v 1.16475 h -0.23592 v -1.16475 z m 0,2.330374 v 1.16475 h -0.23592 v -1.16475 z m 0,2.329501 v 1.165624 h -0.23592 v -1.165624 z m 0,2.330374 v 1.16475 h -0.23592 v -1.16475 z m 0,2.330374 v 1.16475 h -0.23592 v -1.16475 z m 0,2.3295 v 1.165623 h -0.23592 v -1.165623 z m 0,2.330374 v 1.16475 h -0.23592 v -1.16475 z m 0,2.330374 v 1.16475 h -0.23592 v -1.16475 z m 0,2.3295 v 1.165624 h -0.23592 v -1.165624 z m 0,2.330374 v 1.164751 h -0.23592 v -1.164751 z m 0,2.330373 v 0.522523 l -0.0874,0.408055 -0.14854,0.225434 -0.21845,-0.09 0.15728,-0.226309 0.0612,-0.317181 V 56.93203 Z m -1.40679,1.571059 h -1.16212 v -0.232426 h 1.16212 z m -2.32425,0 h -1.17087 v -0.232426 h 1.17087 z m -2.333,0 h -1.16213 v -0.232426 h 1.16213 z m -2.33299,0 h -1.16213 v -0.232426 h 1.16213 z m -2.32426,0 h -1.17087 v -0.232426 h 1.17087 z m -2.333,0 h -1.16212 v -0.232426 h 1.16212 z m -2.33299,0 h -1.16213 v -0.232426 h 1.16213 z m -2.32426,0 h -1.17086 v -0.232426 h 1.17086 z m -2.333,0 h -1.16212 v -0.232426 h 1.16212 z m -2.33299,0 h -1.16213 v -0.232426 h 1.16213 z m -2.32426,0 h -1.17086 v -0.232426 h 1.17086 z m -2.333,0 h -0.11358 l -0.41068,-0.08213 -0.33204,-0.224562 -0.1835,-0.269127 0.16602,-0.164269 0.1835,0.268251 0.26214,0.174754 0.31456,0.06466 h 0.11358 z m -1.16212,-1.809601 v -1.165622 h 0.23592 v 1.165622 z m 0,-2.330373 v -1.16475 h 0.23592 v 1.16475 z m 0,-2.330374 v -1.16475 h 0.23592 v 1.16475 z m 0,-2.3295 v -1.165625 h 0.23592 v 1.165625 z m 0,-2.330374 v -1.164751 h 0.23592 v 1.164751 z m 0,-2.330374 v -1.16475 h 0.23592 v 1.16475 z m 0,-2.329501 V 41.54737 h 0.23592 v 1.165623 z m 0,-2.330374 v -1.16475 h 0.23592 v 1.16475 z m 0,-2.330374 v -1.16475 h 0.23592 v 1.16475 z m 0,-2.3295 v -1.165624 h 0.23592 v 1.165624 z m 0,-2.330374 V 32.22762 h 0.23592 v 1.164751 z m 0,-2.330374 v -1.164751 h 0.23592 v 1.164751 z m 0,-2.3295 v -0.170388 l 0.0786,-0.40893 0.22718,-0.33291 0.22719,-0.149417 0.15727,0.165145 -0.21844,0.149416 -0.17476,0.258639 -0.0611,0.318057 v 0.170388 z m 1.04854,-1.218925 h 1.16213 v 0.232425 h -1.16213 z"
       id="path4142"
       style="stroke-width:0.0873781" />
    <text
       xml:space="preserve"
       id="text4146"
       x="295.56049"
       y="38.795834"
       style="font-size:1.04854px;stroke-width:0.0873781"><tspan
   style="font-size:4.19416px;font-family:'メイリオ'"
   letter-spacing="0em"
   fill="#000000"
   fill-opacity="1"
   stroke-width="0.0174756"
   stroke-linejoin="round"
   id="tspan4144">ALS 2</tspan>	</text>
    <path
       fill="#ffffff"
       fill-opacity="1"
       stroke-width="0.233009"
       stroke-linejoin="round"
       stroke="#000000"
       stroke-opacity="1"
       d="m 265.76457,44.406381 h 14.91545 c 0.51553,0 0.9262,0.416794 0.9262,0.932324 v 6.52365 c 0,0.514656 -0.41067,0.932324 -0.9262,0.932324 h -14.91545 c -0.51553,0 -0.93495,-0.417668 -0.93495,-0.932324 v -6.52365 c 0,-0.51553 0.41942,-0.932324 0.93495,-0.932324 z"
       id="path4148" />
    <text
       xml:space="preserve"
       id="text4152"
       x="267.59949"
       y="49.980236"
       style="font-size:1.04854px;stroke-width:0.0873781"><tspan
   style="font-size:4.19416px;font-family:'メイリオ'"
   letter-spacing="0em"
   fill="#000000"
   fill-opacity="1"
   stroke-width="0.0174756"
   stroke-linejoin="round"
   id="tspan4150">ALS 1</tspan>	</text>
    <text
       xml:space="preserve"
       id="text4156"
       x="264.36649"
       y="38.358944"
       style="font-size:1.04854px;stroke-width:0.0873781"><tspan
   style="font-size:4.19416px;font-family:'メイリオ'"
   letter-spacing="0em"
   fill="#000000"
   fill-opacity="1"
   stroke-width="0.0174756"
   stroke-linejoin="round"
   id="tspan4154">P</tspan>	</text>
    <path
       fill="none"
       stroke-width="0.466017"
       stroke-linejoin="round"
       stroke="#000000"
       stroke-opacity="1"
       d="m 320.75162,44.766379 v -1.984357 -1.983483 h 8.3883 v -1.984357 l 5.59219,3.96784 -5.59219,3.968714 v -1.984357 h -8.3883"
       id="path4158" />
    <rect
       x="340.32428"
       y="19.241491"
       fill="none"
       stroke-width="0.233009"
       stroke-linejoin="round"
       stroke="#000000"
       stroke-opacity="1"
       width="58.718082"
       height="44.737591"
       id="rect4164" />
    <path
       fill="#000000"
       fill-opacity="1"
       stroke-linejoin="round"
       d="m 346.38835,27.513572 h 1.16214 v 0.232425 h -1.16214 z m 2.32426,0 h 1.17087 v 0.232425 h -1.17087 z m 2.333,0 h 1.16213 v 0.232425 h -1.16213 z m 2.33299,0 h 1.16213 v 0.232425 h -1.16213 z m 2.32426,0 h 1.17087 v 0.232425 h -1.17087 z m 2.33299,0 h 1.16213 v 0.232425 h -1.16213 z m 2.333,0 h 1.16213 v 0.232425 h -1.16213 z m 2.32426,0 h 1.17087 v 0.232425 h -1.17087 z m 2.333,0 h 1.16212 v 0.232425 h -1.16212 z m 2.33299,0 h 1.16213 v 0.232425 h -1.16213 z m 2.32426,0 h 0.47184 l 0.40194,0.08214 0.27961,0.183494 -0.0961,0.21495 -0.27088,-0.183493 -0.31456,-0.06466 h -0.47184 z m 1.52038,1.457467 v 1.16475 h -0.23593 v -1.16475 z m 0,2.330374 v 1.16475 h -0.23593 v -1.16475 z m 0,2.3295 v 1.165624 h -0.23593 v -1.165624 z m 0,2.330374 v 1.16475 h -0.23593 v -1.16475 z m 0,2.330374 v 1.164751 h -0.23593 v -1.164751 z m 0,2.329501 v 1.165624 h -0.23593 v -1.165624 z m 0,2.330374 v 1.16475 h -0.23593 v -1.16475 z m 0,2.330374 v 1.164749 h -0.23593 V 45.28191 Z m 0,2.3295 v 1.165624 h -0.23593 V 47.61141 Z m 0,2.330374 v 1.16475 h -0.23593 v -1.16475 z m 0,2.330374 v 1.16475 h -0.23593 v -1.16475 z m 0,2.3295 v 1.165622 h -0.23593 v -1.165622 z m 0,2.330373 v 0.522523 l -0.0874,0.408055 -0.14855,0.226309 -0.21844,-0.09087 0.15728,-0.225434 0.0611,-0.318056 v -0.522523 z m -1.40679,1.571059 h -1.16213 v -0.232426 h 1.16213 z m -2.32426,0 h -1.17086 v -0.232426 h 1.17086 z m -2.33299,0 h -1.16213 v -0.232426 h 1.16213 z m -2.333,0 h -1.16213 v -0.232426 h 1.16213 z m -2.32426,0 h -1.17087 v -0.232426 h 1.17087 z m -2.33299,0 h -1.16213 v -0.232426 h 1.16213 z m -2.33299,0 h -1.16214 v -0.232426 h 1.16214 z m -2.32426,0 h -1.17087 v -0.232426 h 1.17087 z m -2.333,0 h -1.16213 v -0.232426 h 1.16213 z m -2.333,0 h -1.16213 v -0.232426 h 1.16213 z m -2.32426,0 h -1.17086 v -0.232426 h 1.17086 z m -2.33299,0 h -0.11359 l -0.41068,-0.08213 -0.33203,-0.224562 -0.1835,-0.269127 0.16602,-0.164269 0.1835,0.268251 0.26213,0.174754 0.31456,0.06466 h 0.11359 z m -1.16212,-1.809601 v -1.165622 h 0.23591 v 1.165622 z m 0,-2.330373 v -1.16475 h 0.23591 v 1.16475 z m 0,-2.330374 v -1.16475 h 0.23591 v 1.16475 z m 0,-2.3295 v -1.165625 h 0.23591 v 1.165625 z m 0,-2.330374 v -1.164751 h 0.23591 v 1.164751 z m 0,-2.330374 v -1.16475 h 0.23591 v 1.16475 z m 0,-2.329501 V 41.54737 h 0.23591 v 1.165623 z m 0,-2.330374 v -1.16475 h 0.23591 v 1.16475 z m 0,-2.330374 v -1.16475 h 0.23591 v 1.16475 z m 0,-2.3295 v -1.165624 h 0.23591 v 1.165624 z m 0,-2.330374 V 32.22762 h 0.23591 v 1.164751 z m 0,-2.330374 v -1.164751 h 0.23591 v 1.164751 z m 0,-2.3295 v -0.170388 l 0.0786,-0.408055 0.22719,-0.333785 0.22718,-0.149417 0.15728,0.165145 -0.21844,0.149416 -0.17476,0.258639 -0.0611,0.318057 v 0.170388 z m 1.04853,-1.218925 h 1.16213 v 0.232425 h -1.16213 z"
       id="path4166"
       style="stroke-width:0.0873781" />
    <g
       id="g8639"
       transform="matrix(0.67931921,0,0,0.67931921,231.66951,-8.4444058)">
      <g
         id="g8633">
        <path
           fill="#ffffff"
           fill-opacity="1"
           stroke-width="0.343003"
           stroke-linejoin="round"
           stroke="#000000"
           stroke-opacity="1"
           d="m 214.83132,58.689675 h 21.95645 c 0.7589,0 1.36344,0.613546 1.36344,1.372439 v 9.603217 c 0,0.757607 -0.60454,1.372439 -1.36344,1.372439 h -21.95645 c -0.75889,0 -1.3763,-0.614832 -1.3763,-1.372439 v -9.603217 c 0,-0.758893 0.61741,-1.372439 1.3763,-1.372439 z"
           id="path4162" />
      </g>
      <text
         xml:space="preserve"
         id="text4170"
         x="217.53239"
         y="66.89473"
         style="font-size:1.54351px;stroke-width:0.128626"><tspan
   style="font-size:6.17406px;font-family:'メイリオ'"
   letter-spacing="0em"
   fill="#000000"
   fill-opacity="1"
   stroke-width="0.0257252"
   stroke-linejoin="round"
   id="tspan4168">ALS 2</tspan>	</text>
    </g>
    <path
       fill="#ffffff"
       fill-opacity="1"
       stroke-width="0.233009"
       stroke-linejoin="round"
       stroke="#000000"
       stroke-opacity="1"
       d="M 349.64756,44.406381 H 364.563 c 0.51553,0 0.92621,0.417667 0.92621,0.932324 v 6.52365 c 0,0.514656 -0.41068,0.932324 -0.92621,0.932324 h -14.91544 c -0.51553,0 -0.93495,-0.417668 -0.93495,-0.932324 v -6.52365 c 0,-0.514657 0.41942,-0.932324 0.93495,-0.932324 z"
       id="path4172" />
    <text
       xml:space="preserve"
       id="text4176"
       x="351.48245"
       y="49.980236"
       style="font-size:1.04854px;stroke-width:0.0873781"><tspan
   style="font-size:4.19416px;font-family:'メイリオ'"
   letter-spacing="0em"
   fill="#000000"
   fill-opacity="1"
   stroke-width="0.0174756"
   stroke-linejoin="round"
   id="tspan4174">ALS 1</tspan>	</text>
    <g
       id="g8630"
       transform="matrix(0.67931921,0,0,0.67931921,231.66951,-6.6470398)">
      <rect
         x="168.17859"
         y="58.474606"
         fill="#ffffff"
         fill-opacity="1"
         stroke-width="0.343003"
         stroke-linejoin="round"
         stroke="#000000"
         stroke-opacity="1"
         width="10.764131"
         height="8.2320633"
         id="rect4160" />
      <text
         xml:space="preserve"
         id="text4180"
         x="171.35567"
         y="64.921356"
         style="font-size:1.54351px;stroke-width:0.128626"><tspan
   style="font-size:6.17406px;font-family:'メイリオ'"
   letter-spacing="0em"
   fill="#000000"
   fill-opacity="1"
   stroke-width="0.0257252"
   stroke-linejoin="round"
   id="tspan4178">P</tspan>	</text>
    </g>
    <g
       id="g4188"
       transform="matrix(0.08737811,0,0,0.08737811,-784.1708,-719.20928)">
      <rect
         x="13091.7"
         y="8634.3203"
         fill="#ffffff"
         fill-opacity="1"
         stroke-width="0.2"
         stroke-linejoin="round"
         width="51.555698"
         height="40.888699"
         id="rect4182" />
      <text
         transform="translate(13095,8670)"
         xml:space="preserve"
         id="text4186">	<tspan
   style="font-size:48px;font-family:'メイリオ'"
   letter-spacing="0em"
   fill="#ff0000"
   fill-opacity="1"
   stroke-width="0.2"
   stroke-linejoin="round"
   id="tspan4184">＊</tspan>		</text>
    </g>
    <path
       fill="#000000"
       fill-opacity="1"
       stroke-linejoin="round"
       d="m 346.37962,87.163118 h 1.16213 v 0.23329 h -1.16213 z m 2.33299,0 h 1.16213 v 0.23329 h -1.16213 z m 2.32426,0 h 1.17087 v 0.23329 h -1.17087 z m 2.333,0 h 1.16212 v 0.23329 h -1.16212 z m 2.33299,0 h 1.16213 v 0.23329 h -1.16213 z m 2.32426,0 h 1.17086 v 0.23329 h -1.17086 z m 2.333,0 h 1.16212 v 0.23329 h -1.16212 z m 2.33299,0 h 1.16213 v 0.23329 h -1.16213 z m 2.32426,0 h 1.17086 v 0.23329 h -1.17086 z m 2.333,0 h 1.16212 v 0.23329 h -1.16212 z m 2.33299,0 h 1.16213 v 0.23329 h -1.16213 z m 2.32425,0 h 1.17087 v 0.23329 h -1.17087 z m 2.333,0 h 1.16213 v 0.23329 h -1.16213 z m 2.333,0 h 1.16212 v 0.23329 h -1.16212 z m 2.32425,0 h 1.17087 v 0.23329 h -1.17087 z m 2.333,0 h 1.16213 v 0.23329 h -1.16213 z m 2.333,0 h 1.16213 v 0.23329 h -1.16213 z m 2.32425,0 h 1.17087 v 0.23329 h -1.17087 z m 2.333,0 h 1.16213 v 0.23329 h -1.16213 z m 2.333,0 h 1.16212 v 0.23329 h -1.16212 z m 2.32425,0 h 1.17087 v 0.23329 h -1.17087 z m 2.33299,0 h 0.93495 v 0.23329 h -0.93495 z m -51.26473,0 h 1.17087 v 0.23329 h -1.17087 z"
       id="path4190"
       style="stroke-width:0.0873781" />
    <rect
       x="345.91647"
       y="84.484077"
       fill="#ffffff"
       fill-opacity="1"
       stroke-width="0.233009"
       stroke-linejoin="round"
       stroke="#000000"
       stroke-opacity="1"
       width="7.3122807"
       height="5.5921988"
       id="rect4192" />
    <rect
       x="340.32428"
       y="69.571274"
       fill="none"
       stroke-width="0.233009"
       stroke-linejoin="round"
       stroke="#000000"
       stroke-opacity="1"
       width="58.718082"
       height="44.737591"
       id="rect4196" />
    <path
       fill="#000000"
       fill-opacity="1"
       stroke-linejoin="round"
       d="m 346.38835,77.843361 h 1.16214 v 0.232423 h -1.16214 z m 2.32426,0 h 1.17087 v 0.232423 h -1.17087 z m 2.333,0 h 1.16213 v 0.232423 h -1.16213 z m 2.33299,0 h 1.16213 v 0.232423 h -1.16213 z m 2.32426,0 h 1.17087 v 0.232423 h -1.17087 z m 2.33299,0 h 1.16213 v 0.232423 h -1.16213 z m 2.333,0 h 1.16213 v 0.232423 h -1.16213 z m 2.32426,0 h 1.17087 v 0.232423 h -1.17087 z m 2.333,0 h 1.16212 v 0.232423 h -1.16212 z m 2.33299,0 h 1.16213 v 0.232423 h -1.16213 z m 2.32426,0 h 0.47184 l 0.40194,0.08214 0.27961,0.183491 -0.0961,0.21495 -0.27088,-0.183491 -0.31456,-0.06467 h -0.47184 z m 1.52038,1.457466 v 1.164751 h -0.23593 v -1.164751 z m 0,2.330381 v 1.16475 h -0.23593 v -1.16475 z m 0,2.3295 v 1.16562 h -0.23593 v -1.16562 z m 0,2.33037 v 1.16475 h -0.23593 v -1.16475 z m 0,2.33038 v 1.16474 h -0.23593 v -1.16474 z m 0,2.32949 v 1.16563 h -0.23593 v -1.16563 z m 0,2.33038 v 1.16475 h -0.23593 v -1.16475 z m 0,2.33037 v 1.16475 h -0.23593 v -1.16475 z m 0,2.3295 v 1.16562 h -0.23593 v -1.16562 z m 0,2.330382 v 1.16475 h -0.23593 v -1.16475 z m 0,2.33038 v 1.16474 h -0.23593 v -1.16474 z m 0,2.32949 v 1.16562 h -0.23593 v -1.16562 z m 0,2.33037 v 0.52253 l -0.0874,0.40805 -0.14855,0.22631 -0.21844,-0.0909 0.15728,-0.22544 0.0611,-0.31805 v -0.52253 z m -1.40679,1.57106 h -1.16213 v -0.23242 h 1.16213 z m -2.32426,0 h -1.17086 v -0.23242 h 1.17086 z m -2.33299,0 h -1.16213 v -0.23242 h 1.16213 z m -2.333,0 h -1.16213 v -0.23242 h 1.16213 z m -2.32426,0 h -1.17087 v -0.23242 h 1.17087 z m -2.33299,0 h -1.16213 v -0.23242 h 1.16213 z m -2.33299,0 h -1.16214 v -0.23242 h 1.16214 z m -2.32426,0 h -1.17087 v -0.23242 h 1.17087 z m -2.333,0 h -1.16213 v -0.23242 h 1.16213 z m -2.333,0 h -1.16213 v -0.23242 h 1.16213 z m -2.32426,0 h -1.17086 v -0.23242 h 1.17086 z m -2.33299,0 h -0.11359 l -0.41068,-0.0821 -0.33203,-0.22457 -0.1835,-0.26912 0.16602,-0.16427 0.1835,0.26825 0.26213,0.17476 0.31456,0.0647 h 0.11359 z m -1.16212,-1.8096 v -1.16563 h 0.23591 v 1.16563 z m 0,-2.33037 v -1.16475 h 0.23591 v 1.16475 z m 0,-2.33037 v -1.16476 h 0.23591 v 1.16476 z m 0,-2.3295 v -1.165632 h 0.23591 v 1.165632 z m 0,-2.330382 v -1.16475 h 0.23591 v 1.16475 z m 0,-2.33037 v -1.16476 h 0.23591 v 1.16476 z m 0,-2.3295 v -1.16563 h 0.23591 v 1.16563 z m 0,-2.33038 v -1.16475 h 0.23591 v 1.16475 z m 0,-2.33037 v -1.16475 h 0.23591 v 1.16475 z m 0,-2.3295 v -1.16563 h 0.23591 v 1.16563 z m 0,-2.33037 v -1.16476 h 0.23591 v 1.16476 z m 0,-2.33038 v -1.164757 h 0.23591 v 1.164757 z m 0,-2.329504 v -0.170387 l 0.0786,-0.408053 0.22719,-0.333784 0.22718,-0.149423 0.15728,0.16515 -0.21844,0.149416 -0.17476,0.258637 -0.0611,0.318057 v 0.170387 z m 1.04853,-1.218923 h 1.16213 v 0.232423 h -1.16213 z"
       id="path4198"
       style="stroke-width:0.0873781" />
    <g
       id="g8648"
       transform="matrix(0.67931921,0,0,0.67931921,231.66951,-6.6470398)">
      <g
         id="g8642"
         transform="translate(0,-1.5875)">
        <path
           fill="#ffffff"
           fill-opacity="1"
           stroke-width="0.343003"
           stroke-linejoin="round"
           stroke="#000000"
           stroke-opacity="1"
           d="m 214.83132,132.77825 h 21.95645 c 0.7589,0 1.36344,0.61354 1.36344,1.37244 v 9.60321 c 0,0.75761 -0.60454,1.37244 -1.36344,1.37244 h -21.95645 c -0.75889,0 -1.3763,-0.61483 -1.3763,-1.37244 v -9.60321 c 0,-0.7589 0.61741,-1.37244 1.3763,-1.37244 z"
           id="path4194" />
      </g>
      <text
         xml:space="preserve"
         id="text4202"
         x="217.53239"
         y="139.92499"
         style="font-size:1.54351px;stroke-width:0.128626"> <tspan
   style="font-size:6.17406px;font-family:'メイリオ'"
   letter-spacing="0em"
   fill="#000000"
   fill-opacity="1"
   stroke-width="0.0257252"
   stroke-linejoin="round"
   id="tspan4200">ALS 2</tspan>	</text>
    </g>
    <path
       fill="#ffffff"
       fill-opacity="1"
       stroke-width="0.233009"
       stroke-linejoin="round"
       stroke="#000000"
       stroke-opacity="1"
       d="M 349.64756,94.736168 H 364.563 c 0.51553,0 0.92621,0.41768 0.92621,0.93233 v 6.523652 c 0,0.51466 -0.41068,0.93232 -0.92621,0.93232 h -14.91544 c -0.51553,0 -0.93495,-0.41766 -0.93495,-0.93232 v -6.523652 c 0,-0.51465 0.41942,-0.93233 0.93495,-0.93233 z"
       id="path4204" />
    <text
       xml:space="preserve"
       id="text4208"
       x="351.48245"
       y="100.31003"
       style="font-size:1.04854px;stroke-width:0.0873781"> <tspan
   style="font-size:4.19416px;font-family:'メイリオ'"
   letter-spacing="0em"
   fill="#000000"
   fill-opacity="1"
   stroke-width="0.0174756"
   stroke-linejoin="round"
   id="tspan4206">ALS 1</tspan>	</text>
    <text
       xml:space="preserve"
       id="text4212"
       x="348.07471"
       y="88.863487"
       style="font-size:1.04854px;stroke-width:0.0873781"><tspan
   style="font-size:4.19416px;font-family:'メイリオ'"
   letter-spacing="0em"
   fill="#000000"
   fill-opacity="1"
   stroke-width="0.0174756"
   stroke-linejoin="round"
   id="tspan4210">P</tspan>	</text>
    <g
       id="g4220"
       transform="matrix(0.08737811,0,0,0.08737811,-784.1708,-719.20928)">
      <rect
         x="13349.3"
         y="9347.21"
         fill="#ffffff"
         fill-opacity="1"
         stroke-width="0.2"
         stroke-linejoin="round"
         width="51.555698"
         height="40.888699"
         id="rect4214" />
      <text
         transform="translate(13353,9383)"
         xml:space="preserve"
         id="text4218"><tspan
   style="font-size:48px;font-family:'メイリオ'"
   letter-spacing="0em"
   fill="#ff0000"
   fill-opacity="1"
   stroke-width="0.2"
   stroke-linejoin="round"
   id="tspan4216">＊</tspan>		</text>
    </g>
    <path
       fill="#766adc"
       fill-opacity="1"
       stroke-width="0.466017"
       stroke-linejoin="round"
       stroke="#685dc4"
       stroke-opacity="1"
       d="m 364.45815,37.55419 v -0.652714 -0.651841 h 7.0252 v -0.651841 l 4.6922,1.303682 -4.6922,1.304555 V 37.55419 h -7.0252"
       id="path4222" />
    <path
       fill="#766adc"
       fill-opacity="1"
       stroke-width="0.466017"
       stroke-linejoin="round"
       stroke="#685dc4"
       stroke-opacity="1"
       d="m 361.52224,38.673504 h 0.65534 0.6466 v 4.013276 h 0.65533 l -1.30193,2.675517 -1.31067,-2.675517 h 0.65533 v -4.013276"
       id="path4224" />
    <path
       fill="#00c800"
       fill-opacity="1"
       stroke-width="0.466017"
       stroke-linejoin="round"
       stroke="#00c800"
       stroke-opacity="1"
       d="m 377.46874,33.291886 v 0.651841 0.652714 H 363.4533 v 0.651841 l -9.34072,-1.304555 9.34072,-1.303682 v 0.651841 h 14.01544"
       id="path4226" />
    <path
       fill="#00c800"
       fill-opacity="1"
       stroke-width="0.466017"
       stroke-linejoin="round"
       stroke="#00c800"
       stroke-opacity="1"
       d="m 352.25143,45.196279 h -0.6466 -0.65534 v -2.905322 h -0.65533 l 1.31067,-1.936299 1.30193,1.936299 h -0.65533 v 2.905322"
       id="path4228" />
    <path
       fill="#766adc"
       fill-opacity="1"
       stroke-width="0.466017"
       stroke-linejoin="round"
       stroke="#685dc4"
       stroke-opacity="1"
       d="m 382.28328,98.371978 v 0.65271 0.65184 h -9.41936 v 0.652722 l -6.28248,-1.304562 6.28248,-1.30455 v 0.65184 h 9.41936"
       id="path4230" />
    <path
       fill="#766adc"
       fill-opacity="1"
       stroke-width="0.466017"
       stroke-linejoin="round"
       stroke="#685dc4"
       stroke-opacity="1"
       d="m 383.87356,97.041208 h 0.65533 0.65534 v -3.72842 h 0.6466 l -1.30194,-2.48504 -1.30192,2.48504 h 0.64659 v 3.72842"
       id="path4232" />
    <path
       fill="#00c800"
       fill-opacity="1"
       stroke-width="0.466017"
       stroke-linejoin="round"
       stroke="#00c800"
       stroke-opacity="1"
       d="m 377.46001,84.851958 v 0.65184 0.65184 h -14.01545 v 0.65272 l -9.34072,-1.30456 9.34072,-1.30455 v 0.65271 h 14.01545"
       id="path4234" />
    <path
       fill="#00c800"
       fill-opacity="1"
       stroke-width="0.466017"
       stroke-linejoin="round"
       stroke="#00c800"
       stroke-opacity="1"
       d="m 351.46502,95.824028 h -0.64659 -0.65534 v -2.90532 h -0.65534 l 1.31068,-1.93718 1.30193,1.93718 h -0.65534 v 2.90532"
       id="path4236" />
    <path
       fill="#00c800"
       fill-opacity="1"
       stroke-width="0.466017"
       stroke-linejoin="round"
       stroke="#00c800"
       stroke-opacity="1"
       d="m 360.08924,36.039928 v 0.65184 0.652714 h -3.69609 v 0.651841 l -2.46407,-1.304555 2.46407,-1.304555 v 0.652715 h 3.69609"
       id="path4238" />
    <text
       xml:space="preserve"
       id="text4242"
       x="347.60797"
       y="26.253237"
       style="font-size:1.04854px;stroke-width:0.0873781">		 <tspan
   style="font-size:2.7961px;font-family:'メイリオ'"
   letter-spacing="0em"
   fill="#000000"
   fill-opacity="1"
   stroke-width="0.0174756"
   stroke-linejoin="round"
   id="tspan4240">P contains the focused digit</tspan>	</text>
    <text
       xml:space="preserve"
       id="text9190"
       x="343.09418"
       y="76.485672"
       style="font-size:1.04854px;stroke-width:0.0873781">		 <tspan
   style="font-size:2.7961px;font-family:'メイリオ'"
   letter-spacing="0em"
   fill="#000000"
   fill-opacity="1"
   stroke-width="0.0174756"
   stroke-linejoin="round"
   id="tspan9188">P not contain the focused digit</tspan>	</text>
  </g>
</svg>
