<?xml version="1.0" encoding="UTF-8" standalone="no"?>
<!-- Created with Inkscape (http://www.inkscape.org/) -->

<svg
   width="327.20618mm"
   height="156.22435mm"
   viewBox="0 0 327.20618 156.22435"
   version="1.1"
   id="svg8179"
   inkscape:version="1.2.2 (732a01da63, 2022-12-09)"
   sodipodi:docname="image44.svg"
   xmlns:inkscape="http://www.inkscape.org/namespaces/inkscape"
   xmlns:sodipodi="http://sodipodi.sourceforge.net/DTD/sodipodi-0.dtd"
   xmlns="http://www.w3.org/2000/svg"
   xmlns:svg="http://www.w3.org/2000/svg">
  <sodipodi:namedview
     id="namedview8181"
     pagecolor="#ffffff"
     bordercolor="#000000"
     borderopacity="0.25"
     inkscape:showpageshadow="2"
     inkscape:pageopacity="0.0"
     inkscape:pagecheckerboard="0"
     inkscape:deskcolor="#d1d1d1"
     inkscape:document-units="mm"
     showgrid="false"
     inkscape:zoom="0.64693625"
     inkscape:cx="508.55088"
     inkscape:cy="493.86628"
     inkscape:window-width="2105"
     inkscape:window-height="1230"
     inkscape:window-x="1208"
     inkscape:window-y="361"
     inkscape:window-maximized="0"
     inkscape:current-layer="layer1" />
  <defs
     id="defs8176" />
  <g
     inkscape:label="Layer 1"
     inkscape:groupmode="layer"
     id="layer1"
     transform="translate(-9.9918482,-126.78629)">
    <rect
       x="10.222601"
       y="127.71444"
       fill="#ffffff"
       fill-opacity="1"
       stroke-width="0.461505"
       stroke-linejoin="round"
       stroke="#000000"
       stroke-opacity="1"
       width="99.68486"
       height="71.994621"
       id="rect2"
       inkscape:export-filename="img44b.png"
       inkscape:export-xdpi="96"
       inkscape:export-ydpi="96" />
    <line
       fill="none"
       stroke-width="0.461505"
       stroke-linejoin="round"
       stroke="#000000"
       stroke-opacity="1"
       x1="17.33563"
       y1="158.35548"
       x2="105.32127"
       y2="158.35548"
       id="line4" />
    <path
       fill="#000000"
       fill-opacity="1"
       stroke-linejoin="round"
       d="m 21.956341,158.12357 h 2.301752 v 0.46208 h -2.301752 z m 4.603502,0 h 2.319058 v 0.46208 h -2.319058 z m 4.620809,0 h 2.301751 v 0.46208 h -2.301751 z m 4.620809,0 h 2.301751 v 0.46208 h -2.301751 z m 4.603503,0 h 2.319057 v 0.46208 h -2.319057 z m 4.620808,0 h 2.301751 v 0.46208 h -2.301751 z m 4.620809,0 h 2.301751 v 0.46208 h -2.301751 z m 4.603502,0 h 2.319058 v 0.46208 h -2.319058 z m 4.620809,0 h 2.301751 v 0.46208 h -2.301751 z m 4.620809,0 h 2.301751 v 0.46208 h -2.301751 z m 4.603502,0 h 2.319058 v 0.46208 h -2.319058 z m 4.620809,0 h 2.301751 v 0.46208 h -2.301751 z m 4.620809,0 h 2.301751 v 0.46208 h -2.301751 z m 4.603502,0 h 2.319057 v 0.46208 h -2.319057 z m 4.620809,0 h 2.301751 v 0.46208 h -2.301751 z m 4.620808,0 h 2.301752 v 0.46208 H 91.18194 Z m 4.603503,0 h 2.319058 v 0.46208 h -2.319058 z m 4.620807,0 h 2.30175 v 0.46208 h -2.30175 z m 4.62081,0 h 0.29421 v 0.46208 h -0.29421 z m -87.691528,0 h 2.301751 v 0.46208 h -2.301751 z"
       id="path6"
       style="stroke-width:0.173064" />
    <rect
       x="20.104658"
       y="153.73988"
       fill="#ffffff"
       fill-opacity="1"
       stroke-width="0.461505"
       stroke-linejoin="round"
       stroke="#000000"
       stroke-opacity="1"
       width="23.07514"
       height="9.2300224"
       id="rect3832" />
    <rect
       x="36.718803"
       y="170.96837"
       fill="#ffffff"
       fill-opacity="1"
       stroke-width="0.461505"
       stroke-linejoin="round"
       stroke="#000000"
       stroke-opacity="1"
       width="14.152879"
       height="7.6917081"
       id="rect3834" />
    <rect
       x="71.746849"
       y="154.35422"
       fill="#ffffff"
       fill-opacity="1"
       stroke-width="0.461505"
       stroke-linejoin="round"
       stroke="#000000"
       stroke-opacity="1"
       width="10.460732"
       height="8.6146584"
       id="rect3836" />
    <rect
       x="88.360992"
       y="154.66232"
       fill="#ffffff"
       fill-opacity="1"
       stroke-width="0.461505"
       stroke-linejoin="round"
       stroke="#000000"
       stroke-opacity="1"
       width="11.076096"
       height="8.3070717"
       id="rect3838" />
    <text
       xml:space="preserve"
       id="text3842"
       x="21.246809"
       y="160.94113"
       style="font-size:2.07677px;stroke-width:0.173064"><tspan
   style="font-size:8.30709px;font-family:'メイリオ'"
   letter-spacing="0em"
   fill="#000000"
   fill-opacity="1"
   stroke-width="0.0346128"
   stroke-linejoin="round"
   id="tspan3840">wxyz</tspan>	</text>
    <text
       xml:space="preserve"
       id="text3846"
       x="37.860954"
       y="177.55528"
       style="font-size:2.07677px;stroke-width:0.173064"><tspan
   style="font-size:8.30709px;font-family:'メイリオ'"
   letter-spacing="0em"
   fill="#000000"
   fill-opacity="1"
   stroke-width="0.0346128"
   stroke-linejoin="round"
   id="tspan3844">wz</tspan>	</text>
    <text
       xml:space="preserve"
       id="text3850"
       x="72.473755"
       y="160.94113"
       style="font-size:2.07677px;stroke-width:0.173064"><tspan
   style="font-size:8.30709px;font-family:'メイリオ'"
   letter-spacing="0em"
   fill="#000000"
   fill-opacity="1"
   stroke-width="0.0346128"
   stroke-linejoin="round"
   id="tspan3848">xz</tspan>	</text>
    <text
       xml:space="preserve"
       id="text3854"
       x="89.087898"
       y="160.94113"
       style="font-size:2.07677px;stroke-width:0.173064">	<tspan
   style="font-size:8.30709px;font-family:'メイリオ'"
   letter-spacing="0em"
   fill="#000000"
   fill-opacity="1"
   stroke-width="0.0346128"
   stroke-linejoin="round"
   id="tspan3852">yz</tspan>	</text>
    <text
       xml:space="preserve"
       id="text3858"
       x="40.753166"
       y="138.78894"
       style="font-size:2.07677px;stroke-width:0.173064">		 <tspan
   style="font-size:8.30709px;font-family:'メイリオ'"
   letter-spacing="0em"
   fill="#000000"
   fill-opacity="1"
   stroke-width="0.0346128"
   stroke-linejoin="round"
   id="tspan3856">wxyz-wing</tspan>	</text>
    <path
       fill="#000000"
       fill-opacity="1"
       stroke-linejoin="round"
       d="m 25.019574,147.35553 h 2.319058 v 0.46208 h -2.319058 z m 4.620808,0 h 2.301752 v 0.46208 h -2.301752 z m 4.62081,0 h 2.301751 v 0.46208 h -2.301751 z m 4.603502,0 h 2.319057 v 0.46208 h -2.319057 z m 4.620809,0 h 2.30175 v 0.46208 h -2.30175 z m 4.620808,0 h 2.301752 v 0.46208 h -2.301752 z m 4.603503,0 h 2.319057 v 0.46208 h -2.319057 z m 4.620808,0 h 2.301752 v 0.46208 h -2.301752 z m 4.603502,0.44131 0.24229,0.16614 0.449967,0.6611 0.173064,0.80822 v 0.65591 h -0.467273 v -0.65591 l -0.121145,-0.62823 -0.346128,-0.514 -0.103838,-0.0675 z m 0.865321,4.60004 v 2.30695 h -0.467273 v -2.30695 z m 0,4.61389 v 2.30867 h -0.467273 v -2.30867 z m 0,4.61561 v 2.30695 h -0.467273 v -2.30695 z m 0,4.61563 v 2.30693 h -0.467273 v -2.30693 z m 0,4.61388 v 2.30867 h -0.467273 v -2.30867 z m 0,4.61562 v 2.30694 h -0.467273 v -2.30694 z m 0,4.61561 v 2.30695 h -0.467273 v -2.30695 z m 0,4.61389 v 2.30867 h -0.467273 v -2.30867 z m 0,4.61561 v 2.30695 h -0.467273 v -2.30695 z m -0.761482,4.5689 -0.519192,0.35305 -0.796094,0.16268 h -1.038384 v -0.46209 h 1.038384 l 0.62303,-0.12633 0.380741,-0.25268 z m -4.672728,0.51573 h -2.301751 v -0.46209 h 2.301751 z m -4.603502,0 h -2.319058 v -0.46209 h 2.319058 z m -4.620809,0 h -2.301751 v -0.46209 h 2.301751 z m -4.620809,0 h -2.301751 v -0.46209 h 2.301751 z m -4.603502,0 h -2.319057 v -0.46209 h 2.319057 z m -4.620809,0 h -2.301751 v -0.46209 h 2.301751 z m -4.620808,0 h -2.301752 v -0.46209 h 2.301752 z m -4.603503,0 h -2.319058 v -0.46209 h 2.319058 z m -4.620808,0 h -0.03461 l -0.813401,-0.16268 -0.657643,-0.44478 -0.449967,-0.66111 -0.01731,-0.11248 0.415354,-0.17999 0.03462,0.11249 0.346127,0.514 0.501886,0.34613 0.640337,0.12633 h 0.03462 z m -2.111382,-3.76588 v -2.30867 h 0.449967 v 2.30867 z m 0,-4.61561 v -2.30695 h 0.449967 v 2.30695 z m 0,-4.61562 v -2.30694 h 0.449967 v 2.30694 z m 0,-4.61389 v -2.30867 h 0.449967 v 2.30867 z m 0,-4.61561 v -2.30694 h 0.449967 v 2.30694 z m 0,-4.61562 v -2.30695 h 0.449967 v 2.30695 z m 0,-4.61389 v -2.30867 h 0.449967 v 2.30867 z m 0,-4.61561 v -2.30695 h 0.449967 v 2.30695 z m 0,-4.61562 v -2.30694 h 0.449967 v 2.30694 z m 0.05192,-4.60869 0.103839,-0.48113 0.449966,-0.6611 0.657644,-0.44477 0.484579,-0.0969 0.173063,0.42574 -0.484578,0.0969 -0.501886,0.34613 -0.346128,0.514 -0.06923,0.30114 z m 2.024849,-1.74968 h 2.301751 v 0.46208 h -2.301751 z"
       id="path3860"
       style="stroke-width:0.173064" />
    <rect
       x="115.44551"
       y="127.71444"
       fill="#ffffff"
       fill-opacity="1"
       stroke-width="0.461505"
       stroke-linejoin="round"
       stroke="#000000"
       stroke-opacity="1"
       width="99.68486"
       height="71.994621"
       id="rect3862" />
    <line
       fill="none"
       stroke-width="0.461505"
       stroke-linejoin="round"
       stroke="#000000"
       stroke-opacity="1"
       x1="122.55854"
       y1="158.35548"
       x2="210.54417"
       y2="158.35548"
       id="line3864" />
    <path
       fill="#000000"
       fill-opacity="1"
       stroke-linejoin="round"
       d="m 127.17925,158.12357 h 2.30175 v 0.46208 h -2.30175 z m 4.6035,0 h 2.31906 v 0.46208 h -2.31906 z m 4.62081,0 h 2.30175 v 0.46208 h -2.30175 z m 4.62081,0 h 2.30175 v 0.46208 h -2.30175 z m 4.6035,0 h 2.31906 v 0.46208 h -2.31906 z m 4.62081,0 h 2.30176 v 0.46208 h -2.30176 z m 4.62081,0 h 2.30175 v 0.46208 h -2.30175 z m 4.6035,0 h 2.31906 v 0.46208 h -2.31906 z m 4.62081,0 h 2.30175 v 0.46208 h -2.30175 z m 4.62081,0 h 2.30175 v 0.46208 h -2.30175 z m 4.6035,0 h 2.31906 v 0.46208 h -2.31906 z m 4.62082,0 h 2.30175 v 0.46208 h -2.30175 z m 4.6208,0 h 2.30175 v 0.46208 h -2.30175 z m 4.6035,0 h 2.31906 v 0.46208 h -2.31906 z m 4.62081,0 h 2.30175 v 0.46208 h -2.30175 z m 4.62081,0 h 2.30175 v 0.46208 h -2.30175 z m 4.60351,0 h 2.31905 v 0.46208 h -2.31905 z m 4.6208,0 h 2.30175 v 0.46208 h -2.30175 z m 4.62081,0 h 0.29421 v 0.46208 h -0.29421 z m -87.69153,0 h 2.30175 v 0.46208 h -2.30175 z"
       id="path3866"
       style="stroke-width:0.173064" />
    <rect
       x="125.32757"
       y="153.73988"
       fill="#ffffff"
       fill-opacity="1"
       stroke-width="0.461505"
       stroke-linejoin="round"
       stroke="#000000"
       stroke-opacity="1"
       width="23.07514"
       height="9.2300224"
       id="rect3868" />
    <rect
       x="132.05966"
       y="172.01892"
       fill="#ffffff"
       fill-opacity="1"
       stroke-width="0.461505"
       stroke-linejoin="round"
       stroke="#000000"
       stroke-opacity="1"
       width="14.152879"
       height="8.1807356"
       id="rect3870" />
    <rect
       x="176.39868"
       y="154.04799"
       fill="#ffffff"
       fill-opacity="1"
       stroke-width="0.461505"
       stroke-linejoin="round"
       stroke="#000000"
       stroke-opacity="1"
       width="10.460906"
       height="8.9224348"
       id="rect3872" />
    <rect
       x="154.21185"
       y="172.01892"
       fill="#ffffff"
       fill-opacity="1"
       stroke-width="0.461505"
       stroke-linejoin="round"
       stroke="#000000"
       stroke-opacity="1"
       width="11.076096"
       height="8.3070717"
       id="rect3874" />
    <text
       xml:space="preserve"
       id="text3878"
       x="126.46972"
       y="160.94113"
       style="font-size:2.07677px;stroke-width:0.173064"><tspan
   style="font-size:8.30709px;font-family:'メイリオ'"
   letter-spacing="0em"
   fill="#000000"
   fill-opacity="1"
   stroke-width="0.0346128"
   stroke-linejoin="round"
   id="tspan3876">wxyz</tspan>	</text>
    <text
       xml:space="preserve"
       id="text3882"
       x="131.10258"
       y="178.42059"
       style="font-size:2.07677px;stroke-width:0.173064">		 <tspan
   style="font-size:8.30709px;font-family:'メイリオ'"
   letter-spacing="0em"
   fill="#000000"
   fill-opacity="1"
   stroke-width="0.0346128"
   stroke-linejoin="round"
   id="tspan3880">wz</tspan>	</text>
    <text
       xml:space="preserve"
       id="text3886"
       x="176.83134"
       y="160.595"
       style="font-size:2.07677px;stroke-width:0.173064"> <tspan
   style="font-size:8.30709px;font-family:'メイリオ'"
   letter-spacing="0em"
   fill="#000000"
   fill-opacity="1"
   stroke-width="0.0346128"
   stroke-linejoin="round"
   id="tspan3884">xz</tspan>	</text>
    <text
       xml:space="preserve"
       id="text3890"
       x="155.02528"
       y="178.24754"
       style="font-size:2.07677px;stroke-width:0.173064"><tspan
   style="font-size:8.30709px;font-family:'メイリオ'"
   letter-spacing="0em"
   fill="#000000"
   fill-opacity="1"
   stroke-width="0.0346128"
   stroke-linejoin="round"
   id="tspan3888">yz</tspan>	</text>
    <text
       xml:space="preserve"
       id="text3894"
       x="145.44696"
       y="138.78894"
       style="font-size:2.07677px;stroke-width:0.173064">		 <tspan
   style="font-size:8.30709px;font-family:'メイリオ'"
   letter-spacing="0em"
   fill="#000000"
   fill-opacity="1"
   stroke-width="0.0346128"
   stroke-linejoin="round"
   id="tspan3892">wxyz-wing</tspan>	</text>
    <path
       fill="#000000"
       fill-opacity="1"
       stroke-linejoin="round"
       d="m 130.24248,147.35553 h 2.31906 v 0.46208 h -2.31906 z m 4.62081,0 h 2.30175 v 0.46208 h -2.30175 z m 4.62081,0 h 2.30175 v 0.46208 h -2.30175 z m 4.60351,0 h 2.31905 v 0.46208 h -2.31905 z m 4.6208,0 h 2.30175 v 0.46208 h -2.30175 z m 4.62081,0 h 2.30175 v 0.46208 h -2.30175 z m 4.6035,0 h 2.31906 v 0.46208 h -2.31906 z m 4.62081,0 h 2.30175 v 0.46208 h -2.30175 z m 4.60351,0.44131 0.24228,0.16614 0.44997,0.6611 0.17307,0.80822 v 0.65591 h -0.46728 v -0.65591 l -0.12114,-0.62823 -0.34613,-0.514 -0.10384,-0.0675 z m 0.86532,4.60004 v 2.30695 h -0.46728 v -2.30695 z m 0,4.61389 v 2.30867 h -0.46728 v -2.30867 z m 0,4.61561 v 2.30695 h -0.46728 v -2.30695 z m 0,4.61563 v 2.30693 h -0.46728 v -2.30693 z m 0,4.61388 v 2.30867 h -0.46728 v -2.30867 z m 0,4.61562 v 2.30694 h -0.46728 v -2.30694 z m 0,4.61561 v 2.30695 h -0.46728 v -2.30695 z m 0,4.61389 v 2.30867 h -0.46728 v -2.30867 z m 0,4.61561 v 2.30695 h -0.46728 v -2.30695 z m -0.76148,4.5689 -0.5192,0.35305 -0.79609,0.16268 h -1.03839 v -0.46209 h 1.03839 l 0.62302,-0.12633 0.38075,-0.25268 z m -4.67273,0.51573 h -2.30175 v -0.46209 h 2.30175 z m -4.6035,0 h -2.31906 v -0.46209 h 2.31906 z m -4.62081,0 h -2.30176 v -0.46209 h 2.30176 z m -4.62082,0 h -2.30175 v -0.46209 h 2.30175 z m -4.6035,0 h -2.31905 v -0.46209 h 2.31905 z m -4.62081,0 h -2.30175 v -0.46209 h 2.30175 z m -4.6208,0 h -2.30176 v -0.46209 h 2.30176 z m -4.60351,0 h -2.31905 v -0.46209 h 2.31905 z m -4.62081,0 h -0.0346 l -0.8134,-0.16268 -0.65764,-0.44478 -0.44997,-0.66111 -0.0173,-0.11248 0.41536,-0.17999 0.0346,0.11249 0.34613,0.514 0.50188,0.34613 0.64034,0.12633 h 0.0346 z m -2.11138,-3.76588 v -2.30867 h 0.44997 v 2.30867 z m 0,-4.61561 v -2.30695 h 0.44997 v 2.30695 z m 0,-4.61562 v -2.30694 h 0.44997 v 2.30694 z m 0,-4.61389 v -2.30867 h 0.44997 v 2.30867 z m 0,-4.61561 v -2.30694 h 0.44997 v 2.30694 z m 0,-4.61562 v -2.30695 h 0.44997 v 2.30695 z m 0,-4.61389 v -2.30867 h 0.44997 v 2.30867 z m 0,-4.61561 v -2.30695 h 0.44997 v 2.30695 z m 0,-4.61562 v -2.30694 h 0.44997 v 2.30694 z m 0.0519,-4.60869 0.10384,-0.48113 0.44997,-0.6611 0.65764,-0.44477 0.48458,-0.0969 0.17307,0.42574 -0.48458,0.0969 -0.50189,0.34613 -0.34613,0.514 -0.0692,0.30114 z m 2.02485,-1.74968 h 2.30175 v 0.46208 h -2.30175 z"
       id="path3896"
       style="stroke-width:0.173064" />
    <rect
       x="226.20647"
       y="127.01704"
       fill="#ffffff"
       fill-opacity="1"
       stroke-width="0.461505"
       stroke-linejoin="round"
       stroke="#000000"
       stroke-opacity="1"
       width="99.68486"
       height="71.994621"
       id="rect3898" />
    <line
       fill="none"
       stroke-width="0.461505"
       stroke-linejoin="round"
       stroke="#000000"
       stroke-opacity="1"
       x1="233.31949"
       y1="158.35548"
       x2="321.30515"
       y2="158.35548"
       id="line3900" />
    <path
       fill="#000000"
       fill-opacity="1"
       stroke-linejoin="round"
       d="m 237.94021,158.12357 h 2.30175 v 0.46208 h -2.30175 z m 4.6035,0 h 2.31906 v 0.46208 h -2.31906 z m 4.62081,0 h 2.30175 v 0.46208 h -2.30175 z m 4.62081,0 h 2.30175 v 0.46208 h -2.30175 z m 4.6035,0 h 2.31906 v 0.46208 h -2.31906 z m 4.62081,0 h 2.30175 v 0.46208 h -2.30175 z m 4.62081,0 h 2.30175 v 0.46208 h -2.30175 z m 4.6035,0 h 2.31906 v 0.46208 h -2.31906 z m 4.62081,0 h 2.30175 v 0.46208 h -2.30175 z m 4.62081,0 h 2.30175 v 0.46208 h -2.30175 z m 4.6035,0 h 2.31906 v 0.46208 h -2.31906 z m 4.62081,0 h 2.30175 v 0.46208 h -2.30175 z m 4.62081,0 h 2.30175 v 0.46208 h -2.30175 z m 4.6035,0 h 2.31905 v 0.46208 h -2.31905 z m 4.62081,0 h 2.30175 v 0.46208 H 302.545 Z m 4.62081,0 h 2.30175 v 0.46208 h -2.30175 z m 4.6035,0 h 2.31906 v 0.46208 h -2.31906 z m 4.62081,0 h 2.30175 v 0.46208 h -2.30175 z m 4.62081,0 h 0.2942 v 0.46208 h -0.2942 z m -87.69153,0 h 2.30175 v 0.46208 h -2.30175 z"
       id="path3902"
       style="stroke-width:0.173064" />
    <rect
       x="236.08853"
       y="153.73988"
       fill="#ffffff"
       fill-opacity="1"
       stroke-width="0.461505"
       stroke-linejoin="round"
       stroke="#000000"
       stroke-opacity="1"
       width="27.382532"
       height="9.2300224"
       id="rect3904" />
    <rect
       x="242.82062"
       y="172.01892"
       fill="#ffffff"
       fill-opacity="1"
       stroke-width="0.461505"
       stroke-linejoin="round"
       stroke="#000000"
       stroke-opacity="1"
       width="14.152879"
       height="8.1807356"
       id="rect3906" />
    <rect
       x="287.15964"
       y="154.04799"
       fill="#ffffff"
       fill-opacity="1"
       stroke-width="0.461505"
       stroke-linejoin="round"
       stroke="#000000"
       stroke-opacity="1"
       width="10.460732"
       height="8.9224348"
       id="rect3908" />
    <rect
       x="264.97281"
       y="172.01892"
       fill="#ffffff"
       fill-opacity="1"
       stroke-width="0.461505"
       stroke-linejoin="round"
       stroke="#000000"
       stroke-opacity="1"
       width="11.076096"
       height="8.3070717"
       id="rect3910" />
    <text
       xml:space="preserve"
       id="text3914"
       x="237.23068"
       y="160.94113"
       style="font-size:2.07677px;stroke-width:0.173064"><tspan
   style="font-size:8.30709px;font-family:'メイリオ'"
   letter-spacing="0em"
   fill="#000000"
   fill-opacity="1"
   stroke-width="0.0346128"
   stroke-linejoin="round"
   id="tspan3912">vwxyz</tspan>	</text>
    <text
       xml:space="preserve"
       id="text3918"
       x="241.86354"
       y="178.42059"
       style="font-size:2.07677px;stroke-width:0.173064">		 <tspan
   style="font-size:8.30709px;font-family:'メイリオ'"
   letter-spacing="0em"
   fill="#000000"
   fill-opacity="1"
   stroke-width="0.0346128"
   stroke-linejoin="round"
   id="tspan3916">wz</tspan>	</text>
    <text
       xml:space="preserve"
       id="text3922"
       x="287.59232"
       y="160.595"
       style="font-size:2.07677px;stroke-width:0.173064"><tspan
   style="font-size:8.30709px;font-family:'メイリオ'"
   letter-spacing="0em"
   fill="#000000"
   fill-opacity="1"
   stroke-width="0.0346128"
   stroke-linejoin="round"
   id="tspan3920">xz</tspan>	</text>
    <text
       xml:space="preserve"
       id="text3926"
       x="263.66956"
       y="178.24754"
       style="font-size:2.07677px;stroke-width:0.173064">		 <tspan
   style="font-size:8.30709px;font-family:'メイリオ'"
   letter-spacing="0em"
   fill="#000000"
   fill-opacity="1"
   stroke-width="0.0346128"
   stroke-linejoin="round"
   id="tspan3924">vz</tspan>	</text>
    <text
       xml:space="preserve"
       id="text3930"
       x="247.16194"
       y="139.6069"
       style="font-size:2.07677px;stroke-width:0.173064">		 <tspan
   style="font-size:8.30709px;font-family:'メイリオ'"
   letter-spacing="0em"
   fill="#000000"
   fill-opacity="1"
   stroke-width="0.0346128"
   stroke-linejoin="round"
   id="tspan3928">vwxyz-wing</tspan>	</text>
    <path
       fill="#000000"
       fill-opacity="1"
       stroke-linejoin="round"
       d="m 241.00344,147.35553 h 2.31906 v 0.46208 h -2.31906 z m 4.62081,0 h 2.30175 v 0.46208 h -2.30175 z m 4.62081,0 h 2.30175 v 0.46208 h -2.30175 z m 4.6035,0 h 2.31906 v 0.46208 h -2.31906 z m 4.62081,0 h 2.30175 v 0.46208 h -2.30175 z m 4.62081,0 h 2.30175 v 0.46208 h -2.30175 z m 4.6035,0 h 2.31906 v 0.46208 h -2.31906 z m 4.62081,0 h 2.30175 v 0.46208 h -2.30175 z m 4.6035,0.44131 0.24229,0.16614 0.44997,0.6611 0.17306,0.80822 v 0.65591 h -0.46727 v -0.65591 l -0.12115,-0.62823 -0.34612,-0.514 -0.10384,-0.0675 z m 0.86532,4.60004 v 2.30695 h -0.46727 v -2.30695 z m 0,4.61389 v 2.30867 h -0.46727 v -2.30867 z m 0,4.61561 v 2.30695 h -0.46727 v -2.30695 z m 0,4.61563 v 2.30693 h -0.46727 v -2.30693 z m 0,4.61388 v 2.30867 h -0.46727 v -2.30867 z m 0,4.61562 v 2.30694 h -0.46727 v -2.30694 z m 0,4.61561 v 2.30695 h -0.46727 v -2.30695 z m 0,4.61389 v 2.30867 h -0.46727 v -2.30867 z m 0,4.61561 v 2.30695 h -0.46727 v -2.30695 z m -0.76148,4.5689 -0.51919,0.35305 -0.7961,0.16268 h -1.03838 v -0.46209 h 1.03838 l 0.62303,-0.12633 0.38074,-0.25268 z m -4.67273,0.51573 h -2.30175 v -0.46209 h 2.30175 z m -4.6035,0 h -2.31906 v -0.46209 h 2.31906 z m -4.62081,0 h -2.30175 v -0.46209 h 2.30175 z m -4.62081,0 h -2.30175 v -0.46209 h 2.30175 z m -4.6035,0 h -2.31905 v -0.46209 h 2.31905 z m -4.62081,0 h -2.30175 v -0.46209 h 2.30175 z m -4.62081,0 h -2.30175 v -0.46209 h 2.30175 z m -4.6035,0 h -2.31906 v -0.46209 h 2.31906 z m -4.62081,0 h -0.0346 l -0.8134,-0.16268 -0.65764,-0.44478 -0.44997,-0.66111 -0.0173,-0.11248 0.41535,-0.17999 0.0346,0.11249 0.34613,0.514 0.50189,0.34613 0.64033,0.12633 h 0.0346 z m -2.11138,-3.76761 v -2.30694 h 0.44996 v 2.30694 z m 0,-4.61388 v -2.30867 h 0.44996 v 2.30867 z m 0,-4.61562 v -2.30694 h 0.44996 v 2.30694 z m 0,-4.61562 v -2.30694 h 0.44996 v 2.30694 z m 0,-4.61388 v -2.30868 h 0.44996 v 2.30868 z m 0,-4.61562 v -2.30695 h 0.44996 v 2.30695 z m 0,-4.61562 v -2.30694 h 0.44996 v 2.30694 z m 0,-4.61388 v -2.30868 h 0.44996 v 2.30868 z m 0,-4.61562 v -2.30694 h 0.44996 v 2.30694 z m 0.0519,-4.60869 0.10384,-0.48113 0.44997,-0.6611 0.65764,-0.44477 0.48457,-0.0969 0.17307,0.42574 -0.48458,0.0969 -0.50188,0.34613 -0.34613,0.514 -0.0692,0.30114 z m 2.02485,-1.74968 h 2.30175 v 0.46208 h -2.30175 z"
       id="path3932"
       style="stroke-width:0.173064" />
    <rect
       x="303.73914"
       y="154.19333"
       fill="#ffffff"
       fill-opacity="1"
       stroke-width="0.461505"
       stroke-linejoin="round"
       stroke="#000000"
       stroke-opacity="1"
       width="11.076096"
       height="8.3070717"
       id="rect3934" />
    <text
       xml:space="preserve"
       id="text3938"
       x="304.55258"
       y="160.76807"
       style="font-size:2.07677px;stroke-width:0.173064"><tspan
   style="font-size:8.30709px;font-family:'メイリオ'"
   letter-spacing="0em"
   fill="#000000"
   fill-opacity="1"
   stroke-width="0.0346128"
   stroke-linejoin="round"
   id="tspan3936">yz</tspan>	</text>
    <rect
       x="10.222601"
       y="210.78525"
       fill="#ffffff"
       fill-opacity="1"
       stroke-width="0.461505"
       stroke-linejoin="round"
       stroke="#000000"
       stroke-opacity="1"
       width="105.22291"
       height="71.994621"
       id="rect3940" />
    <line
       fill="none"
       stroke-width="0.461505"
       stroke-linejoin="round"
       stroke="#000000"
       stroke-opacity="1"
       x1="17.33563"
       y1="241.42451"
       x2="105.32127"
       y2="241.42451"
       id="line3942" />
    <path
       fill="#000000"
       fill-opacity="1"
       stroke-linejoin="round"
       d="m 21.956341,241.19429 h 2.301752 v 0.46208 h -2.301752 z m 4.603502,0 h 2.319058 v 0.46208 h -2.319058 z m 4.620809,0 h 2.301751 v 0.46208 h -2.301751 z m 4.620809,0 h 2.301751 v 0.46208 h -2.301751 z m 4.603503,0 h 2.319057 v 0.46208 h -2.319057 z m 4.620808,0 h 2.301751 v 0.46208 h -2.301751 z m 4.620809,0 h 2.301751 v 0.46208 h -2.301751 z m 4.603502,0 h 2.319058 v 0.46208 h -2.319058 z m 4.620809,0 h 2.301751 v 0.46208 h -2.301751 z m 4.620809,0 h 2.301751 v 0.46208 h -2.301751 z m 4.603502,0 h 2.319058 v 0.46208 h -2.319058 z m 4.620809,0 h 2.301751 v 0.46208 h -2.301751 z m 4.620809,0 h 2.301751 v 0.46208 h -2.301751 z m 4.603502,0 h 2.319057 v 0.46208 h -2.319057 z m 4.620809,0 h 2.301751 v 0.46208 h -2.301751 z m 4.620808,0 h 2.301752 v 0.46208 H 91.18194 Z m 4.603503,0 h 2.319058 v 0.46208 h -2.319058 z m 4.620807,0 h 2.30175 v 0.46208 h -2.30175 z m 4.62081,0 h 0.29421 v 0.46208 h -0.29421 z m -87.691528,0 h 2.301751 v 0.46208 h -2.301751 z"
       id="path3944"
       style="stroke-width:0.173064" />
    <g
       id="g3952"
       transform="matrix(0.173064,0,0,0.173064,-2061.9245,-1080.62)">
      <rect
         x="12232.2"
         y="7618.1499"
         fill="#ffffff"
         fill-opacity="1"
         stroke-width="0.2"
         stroke-linejoin="round"
         width="51.555698"
         height="40.888699"
         id="rect3946" />
      <text
         transform="translate(12236,7654)"
         xml:space="preserve"
         id="text3950"><tspan
   style="font-size:48px;font-family:'メイリオ'"
   letter-spacing="0em"
   fill="#ff0000"
   fill-opacity="1"
   stroke-width="0.2"
   stroke-linejoin="round"
   id="tspan3948">＊</tspan>		</text>
    </g>
    <rect
       x="20.104658"
       y="236.81059"
       fill="#ffffff"
       fill-opacity="1"
       stroke-width="0.461505"
       stroke-linejoin="round"
       stroke="#000000"
       stroke-opacity="1"
       width="32.689888"
       height="9.2301092"
       id="rect3954" />
    <rect
       x="28.567381"
       y="255.08965"
       fill="#ffffff"
       fill-opacity="1"
       stroke-width="0.461505"
       stroke-linejoin="round"
       stroke="#000000"
       stroke-opacity="1"
       width="14.152706"
       height="7.6917949"
       id="rect3956" />
    <rect
       x="71.746849"
       y="237.42496"
       fill="#ffffff"
       fill-opacity="1"
       stroke-width="0.461505"
       stroke-linejoin="round"
       stroke="#000000"
       stroke-opacity="1"
       width="10.460732"
       height="8.6148319"
       id="rect3958" />
    <text
       xml:space="preserve"
       id="text3962"
       x="20.554556"
       y="244.01186"
       style="font-size:2.07677px;stroke-width:0.173064"><tspan
   style="font-size:8.30709px;font-family:'メイリオ'"
   letter-spacing="0em"
   fill="#000000"
   fill-opacity="1"
   stroke-width="0.0346128"
   stroke-linejoin="round"
   id="tspan3960">uvwxyz</tspan>	</text>
    <text
       xml:space="preserve"
       id="text3966"
       x="29.72695"
       y="261.66437"
       style="font-size:2.07677px;stroke-width:0.173064">		 <tspan
   style="font-size:8.30709px;font-family:'メイリオ'"
   letter-spacing="0em"
   fill="#000000"
   fill-opacity="1"
   stroke-width="0.0346128"
   stroke-linejoin="round"
   id="tspan3964">yz</tspan>	</text>
    <text
       xml:space="preserve"
       id="text3970"
       x="72.473755"
       y="244.01186"
       style="font-size:2.07677px;stroke-width:0.173064"><tspan
   style="font-size:8.30709px;font-family:'メイリオ'"
   letter-spacing="0em"
   fill="#000000"
   fill-opacity="1"
   stroke-width="0.0346128"
   stroke-linejoin="round"
   id="tspan3968">xz</tspan>	</text>
    <text
       xml:space="preserve"
       id="text3974"
       x="33.627617"
       y="221.85966"
       style="font-size:2.07677px;stroke-width:0.173064">		 <tspan
   style="font-size:8.30709px;font-family:'メイリオ'"
   letter-spacing="0em"
   fill="#000000"
   fill-opacity="1"
   stroke-width="0.0346128"
   stroke-linejoin="round"
   id="tspan3972">uvwxyz-wing</tspan>	</text>
    <path
       fill="#000000"
       fill-opacity="1"
       stroke-linejoin="round"
       d="m 25.019574,230.42625 h 2.319058 v 0.46208 h -2.319058 z m 4.620808,0 h 2.301752 v 0.46208 h -2.301752 z m 4.62081,0 h 2.301751 v 0.46208 h -2.301751 z m 4.603502,0 h 2.319057 v 0.46208 h -2.319057 z m 4.620809,0 h 2.30175 v 0.46208 h -2.30175 z m 4.620808,0 h 2.301752 v 0.46208 h -2.301752 z m 4.603503,0 h 2.319057 v 0.46208 h -2.319057 z m 4.620808,0 h 2.301752 v 0.46208 h -2.301752 z m 4.620809,0 h 2.232526 l 0.06923,0.0156 v 0.46035 l -0.06923,-0.0139 h -2.232526 z m 4.188149,1.50046 0.121145,0.57631 v 1.81025 h -0.467273 v -1.81025 l -0.08653,-0.39805 z m 0.121145,4.6935 v 2.30867 h -0.467273 v -2.30867 z m 0,4.61562 v 2.30694 h -0.467273 v -2.30694 z m 0,4.61561 v 2.30694 h -0.467273 v -2.30694 z m 0,4.61389 v 2.30867 h -0.467273 v -2.30867 z m 0,4.61561 v 2.30695 h -0.467273 v -2.30695 z m 0,4.61562 v 2.30695 h -0.467273 v -2.30695 z m 0,4.61389 v 2.30867 h -0.467273 v -2.30867 z m 0,4.61561 v 2.30695 h -0.467273 v -2.30695 z m 0,4.61562 v 1.85352 l -0.103839,0.44477 H 65.70692 l 0.08653,-0.44477 v -1.85352 z m -1.869091,3.88875 -0.207677,0.0415 h -2.197913 v -0.46208 h 2.197913 l 0.01731,-0.005 z m -4.707341,0.0415 h -2.319058 v -0.46208 h 2.319058 z m -4.620809,0 h -2.301751 v -0.46208 h 2.301751 z m -4.620809,0 h -2.301751 v -0.46208 h 2.301751 z m -4.603502,0 h -2.319058 v -0.46208 h 2.319058 z m -4.620809,0 h -2.301751 v -0.46208 h 2.301751 z m -4.620808,0 h -2.301752 v -0.46208 h 2.301752 z m -4.603503,0 h -2.319057 v -0.46208 h 2.319057 z m -4.620809,0 h -2.301751 v -0.46208 h 2.301751 z m -4.620809,0 h -2.30175 v -0.46208 h 2.30175 z m -4.274681,-1.38105 -0.138451,-0.69571 v -1.69084 h 0.449967 v 1.69084 l 0.103838,0.51573 z m -0.138451,-4.69349 v -2.30695 h 0.449967 v 2.30695 z m 0,-4.61562 v -2.30694 h 0.449967 v 2.30694 z m 0,-4.61389 v -2.30867 h 0.449967 v 2.30867 z m 0,-4.61561 v -2.30694 h 0.449967 v 2.30694 z m 0,-4.61562 v -2.30694 h 0.449967 v 2.30694 z m 0,-4.61388 v -2.30868 h 0.449967 v 2.30868 z m 0,-4.61562 v -2.30695 h 0.449967 v 2.30695 z m 0,-4.61562 v -2.30694 h 0.449967 v 2.30694 z m 0,-4.61388 v -1.97466 l 0.05192,-0.32709 h 0.467274 l -0.06923,0.32709 v 1.97466 z m 1.747947,-3.98567 0.328822,-0.0658 h 2.30175 v 0.46208 h -2.30175 l -0.155758,0.0294 z"
       id="path3976"
       style="stroke-width:0.173064" />
    <rect
       x="28.567381"
       y="264.01105"
       fill="#ffffff"
       fill-opacity="1"
       stroke-width="0.461505"
       stroke-linejoin="round"
       stroke="#000000"
       stroke-opacity="1"
       width="14.152706"
       height="7.6917949"
       id="rect3978" />
    <text
       xml:space="preserve"
       id="text3982"
       x="29.553877"
       y="270.1445"
       style="font-size:2.07677px;stroke-width:0.173064">		 <tspan
   style="font-size:8.30709px;font-family:'メイリオ'"
   letter-spacing="0em"
   fill="#000000"
   fill-opacity="1"
   stroke-width="0.0346128"
   stroke-linejoin="round"
   id="tspan3980">uz</tspan>	</text>
    <rect
       x="45.562302"
       y="255.19002"
       fill="#ffffff"
       fill-opacity="1"
       stroke-width="0.461505"
       stroke-linejoin="round"
       stroke="#000000"
       stroke-opacity="1"
       width="14.152879"
       height="7.6917081"
       id="rect3984" />
    <text
       xml:space="preserve"
       id="text3988"
       x="45.099716"
       y="261.66437"
       style="font-size:2.07677px;stroke-width:0.173064">		 <tspan
   style="font-size:8.30709px;font-family:'メイリオ'"
   letter-spacing="0em"
   fill="#000000"
   fill-opacity="1"
   stroke-width="0.0346128"
   stroke-linejoin="round"
   id="tspan3986">wz</tspan>	</text>
    <rect
       x="45.562302"
       y="264.11313"
       fill="#ffffff"
       fill-opacity="1"
       stroke-width="0.461505"
       stroke-linejoin="round"
       stroke="#000000"
       stroke-opacity="1"
       width="14.152879"
       height="7.6918817"
       id="rect3990" />
    <text
       xml:space="preserve"
       id="text3994"
       x="45.455818"
       y="270.1445"
       style="font-size:2.07677px;stroke-width:0.173064">		 <tspan
   style="font-size:8.30709px;font-family:'メイリオ'"
   letter-spacing="0em"
   fill="#000000"
   fill-opacity="1"
   stroke-width="0.0346128"
   stroke-linejoin="round"
   id="tspan3992">vz</tspan>	</text>
    <g
       id="g4002"
       transform="matrix(0.173064,0,0,0.173064,-2061.9245,-1080.62)">
      <rect
         x="12206.8"
         y="7138.1499"
         fill="#ffffff"
         fill-opacity="1"
         stroke-width="0.2"
         stroke-linejoin="round"
         width="51.556599"
         height="40.888699"
         id="rect3996" />
      <text
         transform="translate(12210,7174)"
         xml:space="preserve"
         id="text4000"><tspan
   style="font-size:48px;font-family:'メイリオ'"
   letter-spacing="0em"
   fill="#ff0000"
   fill-opacity="1"
   stroke-width="0.2"
   stroke-linejoin="round"
   id="tspan3998">＊</tspan>		</text>
    </g>
    <g
       id="g4010"
       transform="matrix(0.173064,0,0,0.173064,-2061.9245,-1080.62)">
      <rect
         x="12809.5"
         y="7136.3701"
         fill="#ffffff"
         fill-opacity="1"
         stroke-width="0.2"
         stroke-linejoin="round"
         width="51.555698"
         height="40.889599"
         id="rect4004" />
      <text
         transform="translate(12813,7172)"
         xml:space="preserve"
         id="text4008"><tspan
   style="font-size:48px;font-family:'メイリオ'"
   letter-spacing="0em"
   fill="#ff0000"
   fill-opacity="1"
   stroke-width="0.2"
   stroke-linejoin="round"
   id="tspan4006">＊</tspan>		</text>
    </g>
    <g
       id="g4018"
       transform="matrix(0.173064,0,0,0.173064,-2061.9245,-1080.62)">
      <rect
         x="13456.6"
         y="7138.1499"
         fill="#ffffff"
         fill-opacity="1"
         stroke-width="0.2"
         stroke-linejoin="round"
         width="51.555698"
         height="40.888699"
         id="rect4012" />
      <text
         transform="translate(13460,7174)"
         xml:space="preserve"
         id="text4016"><tspan
   style="font-size:48px;font-family:'メイリオ'"
   letter-spacing="0em"
   fill="#ff0000"
   fill-opacity="1"
   stroke-width="0.2"
   stroke-linejoin="round"
   id="tspan4014">＊</tspan>		</text>
    </g>
    <rect
       x="120.98356"
       y="210.78525"
       fill="#ffffff"
       fill-opacity="1"
       stroke-width="0.461505"
       stroke-linejoin="round"
       stroke="#000000"
       stroke-opacity="1"
       width="105.22291"
       height="71.994621"
       id="rect4020" />
    <line
       fill="none"
       stroke-width="0.461505"
       stroke-linejoin="round"
       stroke="#000000"
       stroke-opacity="1"
       x1="126.01982"
       y1="241.42451"
       x2="214.00546"
       y2="241.42451"
       id="line4022" />
    <path
       fill="#000000"
       fill-opacity="1"
       stroke-linejoin="round"
       d="m 130.64053,241.19429 h 2.30175 v 0.46208 h -2.30175 z m 4.6035,0 h 2.31906 v 0.46208 h -2.31906 z m 4.62081,0 h 2.30175 v 0.46208 h -2.30175 z m 4.62081,0 h 2.30175 v 0.46208 h -2.30175 z m 4.6035,0 h 2.31906 v 0.46208 h -2.31906 z m 4.62081,0 h 2.30175 v 0.46208 h -2.30175 z m 4.62081,0 h 2.30175 v 0.46208 h -2.30175 z m 4.60351,0 h 2.31905 v 0.46208 h -2.31905 z m 4.6208,0 h 2.30176 v 0.46208 h -2.30176 z m 4.62081,0 h 2.30175 v 0.46208 h -2.30175 z m 4.6035,0 h 2.31906 v 0.46208 h -2.31906 z m 4.62081,0 h 2.30175 v 0.46208 h -2.30175 z m 4.62081,0 h 2.30175 v 0.46208 h -2.30175 z m 4.60351,0 h 2.31905 v 0.46208 h -2.31905 z m 4.6208,0 h 2.30175 v 0.46208 h -2.30175 z m 4.62081,0 h 2.30175 v 0.46208 h -2.30175 z m 4.6035,0 h 2.31906 v 0.46208 h -2.31906 z m 4.62081,0 h 2.30175 v 0.46208 h -2.30175 z m 4.62081,0 h 0.29421 v 0.46208 h -0.29421 z m -87.69153,0 h 2.30175 v 0.46208 h -2.30175 z"
       id="path4024"
       style="stroke-width:0.173064" />
    <g
       id="g4032"
       transform="matrix(0.173064,0,0,0.173064,-2061.9245,-1080.62)">
      <rect
         x="12872.2"
         y="7618.1499"
         fill="#ffffff"
         fill-opacity="1"
         stroke-width="0.2"
         stroke-linejoin="round"
         width="51.555698"
         height="40.889198"
         id="rect4026" />
      <text
         transform="translate(12876,7654)"
         xml:space="preserve"
         id="text4030">			 <tspan
   style="font-size:48px;font-family:'メイリオ'"
   letter-spacing="0em"
   fill="#ff0000"
   fill-opacity="1"
   stroke-width="0.2"
   stroke-linejoin="round"
   id="tspan4028">＊</tspan>		</text>
    </g>
    <rect
       x="130.86562"
       y="236.81059"
       fill="#ffffff"
       fill-opacity="1"
       stroke-width="0.461505"
       stroke-linejoin="round"
       stroke="#000000"
       stroke-opacity="1"
       width="32.689888"
       height="9.2301092"
       id="rect4034" />
    <rect
       x="195.14148"
       y="237.41801"
       fill="#ffffff"
       fill-opacity="1"
       stroke-width="0.461505"
       stroke-linejoin="round"
       stroke="#000000"
       stroke-opacity="1"
       width="11.488472"
       height="7.6917949"
       id="rect4036" />
    <rect
       x="182.68088"
       y="237.77107"
       fill="#ffffff"
       fill-opacity="1"
       stroke-width="0.461505"
       stroke-linejoin="round"
       stroke="#000000"
       stroke-opacity="1"
       width="10.460732"
       height="7.4581409"
       id="rect4038" />
    <text
       xml:space="preserve"
       id="text4042"
       x="131.31551"
       y="244.01186"
       style="font-size:2.07677px;stroke-width:0.173064">	<tspan
   style="font-size:8.30709px;font-family:'メイリオ'"
   letter-spacing="0em"
   fill="#000000"
   fill-opacity="1"
   stroke-width="0.0346128"
   stroke-linejoin="round"
   id="tspan4040">uvwxyz</tspan>	</text>
    <text
       xml:space="preserve"
       id="text4046"
       x="196.21451"
       y="243.83879"
       style="font-size:2.07677px;stroke-width:0.173064"><tspan
   style="font-size:8.30709px;font-family:'メイリオ'"
   letter-spacing="0em"
   fill="#000000"
   fill-opacity="1"
   stroke-width="0.0346128"
   stroke-linejoin="round"
   id="tspan4044">yz</tspan>	</text>
    <text
       xml:space="preserve"
       id="text4050"
       x="183.23471"
       y="244.01186"
       style="font-size:2.07677px;stroke-width:0.173064"><tspan
   style="font-size:8.30709px;font-family:'メイリオ'"
   letter-spacing="0em"
   fill="#000000"
   fill-opacity="1"
   stroke-width="0.0346128"
   stroke-linejoin="round"
   id="tspan4048">xz</tspan>	</text>
    <text
       xml:space="preserve"
       id="text4054"
       x="144.38864"
       y="221.85966"
       style="font-size:2.07677px;stroke-width:0.173064">		 <tspan
   style="font-size:8.30709px;font-family:'メイリオ'"
   letter-spacing="0em"
   fill="#000000"
   fill-opacity="1"
   stroke-width="0.0346128"
   stroke-linejoin="round"
   id="tspan4052">uvwxyz-wing</tspan>	</text>
    <path
       fill="#000000"
       fill-opacity="1"
       stroke-linejoin="round"
       d="m 135.78053,230.42625 h 2.31906 v 0.46208 h -2.31906 z m 4.62081,0 h 2.30175 v 0.46208 h -2.30175 z m 4.62081,0 h 2.30175 v 0.46208 h -2.30175 z m 4.6035,0 h 2.31906 v 0.46208 h -2.31906 z m 4.62081,0 h 2.30175 v 0.46208 h -2.30175 z m 4.62081,0 h 2.30175 v 0.46208 h -2.30175 z m 4.6035,0 h 2.31906 v 0.46208 h -2.31906 z m 4.62081,0 h 2.30175 v 0.46208 h -2.30175 z m 4.62081,0 h 2.23252 l 0.0692,0.0156 v 0.46035 l -0.0692,-0.0139 h -2.23252 z m 4.18815,1.50046 0.12115,0.57631 v 1.81025 h -0.46728 v -1.81025 l -0.0865,-0.39805 z m 0.12115,4.6935 v 2.30867 h -0.46728 v -2.30867 z m 0,4.61562 v 2.30694 h -0.46728 v -2.30694 z m 0,4.61561 v 2.30694 h -0.46728 v -2.30694 z m 0,4.61389 v 2.30867 h -0.46728 v -2.30867 z m 0,4.61561 v 2.30695 h -0.46728 v -2.30695 z m 0,4.61562 v 2.30695 h -0.46728 v -2.30695 z m 0,4.61389 v 2.30867 h -0.46728 v -2.30867 z m 0,4.61561 v 2.30695 h -0.46728 v -2.30695 z m 0,4.61562 v 1.85352 l -0.10384,0.44477 h -0.44997 l 0.0865,-0.44477 v -1.85352 z m -1.8691,3.88875 -0.20768,0.0415 H 172.747 v -0.46208 h 2.19791 l 0.0173,-0.005 z m -4.70734,0.0415 h -2.31906 v -0.46208 h 2.31906 z m -4.62081,0 h -2.30175 v -0.46208 h 2.30175 z m -4.6208,0 h -2.30175 v -0.46208 h 2.30175 z m -4.60351,0 h -2.31906 v -0.46208 h 2.31906 z m -4.62081,0 h -2.30175 v -0.46208 h 2.30175 z m -4.62081,0 h -2.30175 v -0.46208 h 2.30175 z m -4.6035,0 h -2.31906 v -0.46208 h 2.31906 z m -4.62081,0 h -2.30175 v -0.46205 h 2.30175 z m -4.62081,0 h -2.30175 v -0.46208 h 2.30175 z m -4.27468,-1.38105 -0.13845,-0.69571 v -1.69084 h 0.44997 v 1.69084 l 0.10384,0.51573 z m -0.13845,-4.69349 v -2.30695 h 0.44997 v 2.30695 z m 0,-4.61562 v -2.30694 h 0.44997 v 2.30694 z m 0,-4.61389 v -2.30867 h 0.44997 v 2.30867 z m 0,-4.61561 v -2.30694 h 0.44997 v 2.30694 z m 0,-4.61562 v -2.30694 h 0.44997 v 2.30694 z m 0,-4.61388 v -2.30868 h 0.44997 v 2.30868 z m 0,-4.61562 v -2.30695 h 0.44997 v 2.30695 z m 0,-4.61562 v -2.30694 h 0.44997 v 2.30694 z m 0,-4.61388 v -1.97466 l 0.0519,-0.32709 h 0.46727 l -0.0692,0.32709 v 1.97466 z m 1.74795,-3.98567 0.32882,-0.0658 h 2.30175 v 0.46208 h -2.30175 l -0.15576,0.0294 z"
       id="path4056"
       style="stroke-width:0.173064" />
    <rect
       x="139.32834"
       y="264.01105"
       fill="#ffffff"
       fill-opacity="1"
       stroke-width="0.461505"
       stroke-linejoin="round"
       stroke="#000000"
       stroke-opacity="1"
       width="14.152879"
       height="7.6917949"
       id="rect4058" />
    <text
       xml:space="preserve"
       id="text4062"
       x="140.31483"
       y="270.1445"
       style="font-size:2.07677px;stroke-width:0.173064"><tspan
   style="font-size:8.30709px;font-family:'メイリオ'"
   letter-spacing="0em"
   fill="#000000"
   fill-opacity="1"
   stroke-width="0.0346128"
   stroke-linejoin="round"
   id="tspan4060">uz</tspan>	</text>
    <rect
       x="156.32326"
       y="255.19002"
       fill="#ffffff"
       fill-opacity="1"
       stroke-width="0.461505"
       stroke-linejoin="round"
       stroke="#000000"
       stroke-opacity="1"
       width="14.152706"
       height="7.6917081"
       id="rect4064" />
    <text
       xml:space="preserve"
       id="text4068"
       x="157.44818"
       y="261.66437"
       style="font-size:2.07677px;stroke-width:0.173064"><tspan
   style="font-size:8.30709px;font-family:'メイリオ'"
   letter-spacing="0em"
   fill="#000000"
   fill-opacity="1"
   stroke-width="0.0346128"
   stroke-linejoin="round"
   id="tspan4066">wz</tspan>	</text>
    <rect
       x="156.32326"
       y="264.11313"
       fill="#ffffff"
       fill-opacity="1"
       stroke-width="0.461505"
       stroke-linejoin="round"
       stroke="#000000"
       stroke-opacity="1"
       width="14.152706"
       height="7.6917949"
       id="rect4070" />
    <text
       xml:space="preserve"
       id="text4074"
       x="158.86259"
       y="270.1445"
       style="font-size:2.07677px;stroke-width:0.173064"><tspan
   style="font-size:8.30709px;font-family:'メイリオ'"
   letter-spacing="0em"
   fill="#000000"
   fill-opacity="1"
   stroke-width="0.0346128"
   stroke-linejoin="round"
   id="tspan4072">vz</tspan>	</text>
    <rect
       x="231.74452"
       y="210.78525"
       fill="#ffffff"
       fill-opacity="1"
       stroke-width="0.461505"
       stroke-linejoin="round"
       stroke="#000000"
       stroke-opacity="1"
       width="105.22274"
       height="71.994621"
       id="rect4076" />
    <line
       fill="none"
       stroke-width="0.461505"
       stroke-linejoin="round"
       stroke="#000000"
       stroke-opacity="1"
       x1="236.60773"
       y1="241.42451"
       x2="332.36398"
       y2="241.42451"
       id="line4078" />
    <path
       fill="#000000"
       fill-opacity="1"
       stroke-linejoin="round"
       d="m 241.22842,241.19429 h 2.30175 v 0.46208 h -2.30175 z m 4.60351,0 h 2.31906 v 0.46208 h -2.31906 z m 4.62081,0 h 2.30175 v 0.46208 h -2.30175 z m 4.6208,0 h 2.30176 v 0.46208 h -2.30176 z m 4.60351,0 h 2.31905 v 0.46208 h -2.31905 z m 4.6208,0 h 2.30175 v 0.46208 h -2.30175 z m 4.62081,0 h 2.30176 v 0.46208 h -2.30176 z m 4.60351,0 h 2.31906 v 0.46208 h -2.31906 z m 4.62081,0 h 2.30175 v 0.46208 h -2.30175 z m 4.6208,0 h 2.30175 v 0.46208 h -2.30175 z m 4.6035,0 h 2.31906 v 0.46208 h -2.31906 z m 4.62081,0 h 2.30176 v 0.46208 h -2.30176 z m 4.62082,0 h 2.30175 v 0.46208 h -2.30175 z m 4.6035,0 h 2.31905 v 0.46208 h -2.31905 z m 4.62081,0 h 2.30175 v 0.46208 h -2.30175 z m 4.6208,0 h 2.30175 v 0.46208 h -2.30175 z m 4.6035,0 h 2.31906 v 0.46208 h -2.31906 z m 4.62082,0 h 2.30175 v 0.46208 h -2.30175 z m 4.62081,0 h 2.30175 v 0.46208 h -2.30175 z m 4.6035,0 h 2.31905 v 0.46208 h -2.31905 z m -92.29504,0 h 2.30175 v 0.46208 h -2.30175 z"
       id="path4080"
       style="stroke-width:0.173064" />
    <g
       id="g4088"
       transform="matrix(0.173064,0,0,0.173064,-2061.9245,-1080.62)">
      <rect
         x="13512.2"
         y="7618.1499"
         fill="#ffffff"
         fill-opacity="1"
         stroke-width="0.2"
         stroke-linejoin="round"
         width="51.555698"
         height="40.889198"
         id="rect4082" />
      <text
         transform="translate(13516,7654)"
         xml:space="preserve"
         id="text4086">			 <tspan
   style="font-size:48px;font-family:'メイリオ'"
   letter-spacing="0em"
   fill="#ff0000"
   fill-opacity="1"
   stroke-width="0.2"
   stroke-linejoin="round"
   id="tspan4084">＊</tspan>		</text>
    </g>
    <rect
       x="241.62657"
       y="236.81059"
       fill="#ffffff"
       fill-opacity="1"
       stroke-width="0.461505"
       stroke-linejoin="round"
       stroke="#000000"
       stroke-opacity="1"
       width="32.690056"
       height="9.2301092"
       id="rect4090" />
    <text
       xml:space="preserve"
       id="text4094"
       x="242.07646"
       y="244.01186"
       style="font-size:2.07677px;stroke-width:0.173064"><tspan
   style="font-size:8.30709px;font-family:'メイリオ'"
   letter-spacing="0em"
   fill="#000000"
   fill-opacity="1"
   stroke-width="0.0346128"
   stroke-linejoin="round"
   id="tspan4092">uvwxyz</tspan>	</text>
    <text
       xml:space="preserve"
       id="text4098"
       x="257.26617"
       y="221.85966"
       style="font-size:2.07677px;stroke-width:0.173064">		 <tspan
   style="font-size:8.30709px;font-family:'メイリオ'"
   letter-spacing="0em"
   fill="#000000"
   fill-opacity="1"
   stroke-width="0.0346128"
   stroke-linejoin="round"
   id="tspan4096">uvwxyz-wing</tspan>	</text>
    <path
       fill="#000000"
       fill-opacity="1"
       stroke-linejoin="round"
       d="m 246.54149,230.42625 h 2.31906 v 0.46208 h -2.31906 z m 4.62081,0 h 2.30175 v 0.46208 h -2.30175 z m 4.62081,0 h 2.30175 v 0.46208 h -2.30175 z m 4.6035,0 h 2.31906 v 0.46208 h -2.31906 z m 4.62081,0 h 2.30175 v 0.46208 h -2.30175 z m 4.6208,0 h 2.30176 v 0.46208 h -2.30176 z m 4.60351,0 h 2.31906 v 0.46208 h -2.31906 z m 4.62081,0 h 2.30175 v 0.46208 h -2.30175 z m 4.62081,0 h 2.23252 l 0.0692,0.0156 v 0.46035 l -0.0692,-0.0139 h -2.23252 z m 4.18814,1.50046 0.12115,0.57631 v 1.81025 h -0.46727 v -1.81025 l -0.0865,-0.39805 z m 0.12115,4.6935 v 2.30867 h -0.46727 v -2.30867 z m 0,4.61562 v 2.30694 h -0.46727 v -2.30694 z m 0,4.61561 v 2.30694 h -0.46727 v -2.30694 z m 0,4.61389 v 2.30867 h -0.46727 v -2.30867 z m 0,4.61561 v 2.30695 h -0.46727 v -2.30695 z m 0,4.61562 v 2.30695 h -0.46727 v -2.30695 z m 0,4.61389 v 2.30867 h -0.46727 v -2.30867 z m 0,4.61561 v 2.30695 h -0.46727 v -2.30695 z m 0,4.61562 v 1.85352 l -0.10384,0.44477 h -0.44996 l 0.0865,-0.44477 v -1.85352 z m -1.86909,3.88875 -0.20768,0.0415 h -2.19791 v -0.46208 h 2.19791 l 0.0173,-0.005 z m -4.70735,0.0415 h -2.31905 v -0.46208 h 2.31905 z m -4.6208,0 h -2.30175 v -0.46208 h 2.30175 z m -4.62081,0 h -2.30175 v -0.46208 h 2.30175 z m -4.6035,0 h -2.31906 v -0.46208 h 2.31906 z m -4.62081,0 h -2.30175 v -0.46208 h 2.30175 z m -4.62081,0 h -2.30175 v -0.46208 h 2.30175 z m -4.6035,0 h -2.31906 v -0.46208 h 2.31906 z m -4.62081,0 h -2.30175 v -0.46208 h 2.30175 z m -4.62081,0 h -2.30175 v -0.46208 h 2.30175 z m -4.27468,-1.38105 -0.13845,-0.69571 v -1.69084 h 0.44996 v 1.69084 l 0.10384,0.51573 z m -0.13845,-4.69349 v -2.30695 h 0.44996 v 2.30695 z m 0,-4.61562 v -2.30694 h 0.44996 v 2.30694 z m 0,-4.61389 v -2.30867 h 0.44996 v 2.30867 z m 0,-4.61561 v -2.30694 h 0.44996 v 2.30694 z m 0,-4.61562 v -2.30694 h 0.44996 v 2.30694 z m 0,-4.61388 v -2.30868 h 0.44996 v 2.30868 z m 0,-4.61562 v -2.30695 h 0.44996 v 2.30695 z m 0,-4.61562 v -2.30694 h 0.44996 v 2.30694 z m 0,-4.61388 v -1.97466 l 0.0519,-0.32709 h 0.46727 l -0.0692,0.32709 v 1.97466 z m 1.74795,-3.98567 0.32881,-0.0658 h 2.30176 v 0.46208 h -2.30176 l -0.15575,0.0294 z"
       id="path4100"
       style="stroke-width:0.173064" />
    <rect
       x="254.08717"
       y="255.70399"
       fill="#ffffff"
       fill-opacity="1"
       stroke-width="0.461505"
       stroke-linejoin="round"
       stroke="#000000"
       stroke-opacity="1"
       width="12.964259"
       height="7.6917949"
       id="rect4102" />
    <text
       xml:space="preserve"
       id="text4106"
       x="255.05627"
       y="261.83743"
       style="font-size:2.07677px;stroke-width:0.173064">	<tspan
   style="font-size:8.30709px;font-family:'メイリオ'"
   letter-spacing="0em"
   fill="#000000"
   fill-opacity="1"
   stroke-width="0.0346128"
   stroke-linejoin="round"
   id="tspan4104">uz</tspan>	</text>
    <rect
       x="269.66293"
       y="255.80608"
       fill="#ffffff"
       fill-opacity="1"
       stroke-width="0.461505"
       stroke-linejoin="round"
       stroke="#000000"
       stroke-opacity="1"
       width="12.964259"
       height="7.6917949"
       id="rect4108" />
    <text
       xml:space="preserve"
       id="text4112"
       x="270.42902"
       y="261.83743"
       style="font-size:2.07677px;stroke-width:0.173064">	 <tspan
   style="font-size:8.30709px;font-family:'メイリオ'"
   letter-spacing="0em"
   fill="#000000"
   fill-opacity="1"
   stroke-width="0.0346128"
   stroke-linejoin="round"
   id="tspan4110">vz</tspan>	</text>
    <rect
       x="302.64886"
       y="236.89375"
       fill="#ffffff"
       fill-opacity="1"
       stroke-width="0.461505"
       stroke-linejoin="round"
       stroke="#000000"
       stroke-opacity="1"
       width="11.488472"
       height="7.6918817"
       id="rect4114" />
    <rect
       x="290.18826"
       y="237.24849"
       fill="#ffffff"
       fill-opacity="1"
       stroke-width="0.461505"
       stroke-linejoin="round"
       stroke="#000000"
       stroke-opacity="1"
       width="10.460732"
       height="7.4580545"
       id="rect4116" />
    <text
       xml:space="preserve"
       id="text4120"
       x="303.15808"
       y="243.3196"
       style="font-size:2.07677px;stroke-width:0.173064">	<tspan
   style="font-size:8.30709px;font-family:'メイリオ'"
   letter-spacing="0em"
   fill="#000000"
   fill-opacity="1"
   stroke-width="0.0346128"
   stroke-linejoin="round"
   id="tspan4118">yz</tspan>	</text>
    <text
       xml:space="preserve"
       id="text4124"
       x="290.35135"
       y="243.3196"
       style="font-size:2.07677px;stroke-width:0.173064">	<tspan
   style="font-size:8.30709px;font-family:'メイリオ'"
   letter-spacing="0em"
   fill="#000000"
   fill-opacity="1"
   stroke-width="0.0346128"
   stroke-linejoin="round"
   id="tspan4122">xz</tspan>	</text>
    <rect
       x="315.49023"
       y="236.9404"
       fill="#ffffff"
       fill-opacity="1"
       stroke-width="0.461505"
       stroke-linejoin="round"
       stroke="#000000"
       stroke-opacity="1"
       width="12.742512"
       height="7.8081627"
       id="rect4126" />
    <text
       xml:space="preserve"
       id="text4130"
       x="316.14786"
       y="243.14655"
       style="font-size:2.07677px;stroke-width:0.173064"><tspan
   style="font-size:8.30709px;font-family:'メイリオ'"
   letter-spacing="0em"
   fill="#000000"
   fill-opacity="1"
   stroke-width="0.0346128"
   stroke-linejoin="round"
   id="tspan4128">wz</tspan>	</text>
  </g>
</svg>
