<?xml version="1.0" encoding="UTF-8" standalone="no"?>
<!-- Created with Inkscape (http://www.inkscape.org/) -->

<svg
   width="204.94482mm"
   height="63.04628mm"
   viewBox="0 0 204.94482 63.04628"
   version="1.1"
   id="svg3843"
   inkscape:version="1.2.2 (732a01da63, 2022-12-09)"
   sodipodi:docname="image37.svg"
   xmlns:inkscape="http://www.inkscape.org/namespaces/inkscape"
   xmlns:sodipodi="http://sodipodi.sourceforge.net/DTD/sodipodi-0.dtd"
   xmlns="http://www.w3.org/2000/svg"
   xmlns:svg="http://www.w3.org/2000/svg">
  <sodipodi:namedview
     id="namedview3845"
     pagecolor="#ffffff"
     bordercolor="#000000"
     borderopacity="0.25"
     inkscape:showpageshadow="2"
     inkscape:pageopacity="0.0"
     inkscape:pagecheckerboard="0"
     inkscape:deskcolor="#d1d1d1"
     inkscape:document-units="mm"
     showgrid="true"
     inkscape:zoom="1.2938725"
     inkscape:cx="518.98468"
     inkscape:cy="597.81779"
     inkscape:window-width="1912"
     inkscape:window-height="1466"
     inkscape:window-x="1404"
     inkscape:window-y="197"
     inkscape:window-maximized="0"
     inkscape:current-layer="layer1">
    <inkscape:grid
       type="xygrid"
       id="grid6155"
       originx="-36.494002"
       originy="-216.82262"
       spacingy="1"
       spacingx="1"
       units="mm"
       visible="true" />
  </sodipodi:namedview>
  <defs
     id="defs3840" />
  <g
     inkscape:label="Layer 1"
     inkscape:groupmode="layer"
     id="layer1"
     transform="translate(-36.494002,-216.82262)">
    <rect
       x="36.924721"
       y="217.29759"
       fill="#ffffff"
       fill-opacity="1"
       stroke-width="0.266595"
       stroke-linejoin="round"
       stroke="#000000"
       stroke-opacity="1"
       width="57.435978"
       height="57.733406"
       id="rect7134"
       inkscape:export-filename="img37c.png"
       inkscape:export-xdpi="96"
       inkscape:export-ydpi="96" />
    <line
       fill="none"
       stroke-width="0.799783"
       stroke-linejoin="round"
       stroke="#5e5e5e"
       stroke-opacity="1"
       x1="94.360703"
       y1="233.33466"
       x2="36.924721"
       y2="233.33466"
       id="line7136" />
    <line
       fill="none"
       stroke-width="0.799783"
       stroke-linejoin="round"
       stroke="#5e5e5e"
       stroke-opacity="1"
       x1="78.406265"
       y1="217.29759"
       x2="78.406265"
       y2="275.03094"
       id="line7138" />
    <path
       fill="#000000"
       fill-opacity="1"
       stroke-linejoin="round"
       d="m 92.334539,262.42911 h -0.797727 v -0.26761 h 0.797727 z m -1.595444,0 h -0.797726 v -0.26761 h 0.797726 z m -1.595452,0 h -0.797717 v -0.26761 h 0.797717 z m -1.595444,0 h -0.797717 v -0.26761 h 0.797717 z m -1.595442,0 H 85.15504 v -0.26761 h 0.797717 z m -1.595443,0 h -0.797718 v -0.26761 h 0.797718 z m -1.595444,0 h -0.797716 v -0.26761 h 0.797716 z m -1.595443,0 h -0.797718 v -0.26761 h 0.797718 z m -1.595443,0 h -0.797727 v -0.26761 h 0.797727 z m -1.595443,0 h -0.797727 v -0.26761 h 0.797727 z m -1.595443,0 h -0.797727 v -0.26761 h 0.797727 z m -1.595444,0 h -0.797726 v -0.26761 h 0.797726 z m -1.595442,0 h -0.797727 v -0.26761 h 0.797727 z m -1.595444,0 h -0.797727 v -0.26761 h 0.797727 z m -1.595442,0 h -0.797727 v -0.26761 h 0.797727 z m -1.595444,0 h -0.797726 v -0.26761 h 0.797726 z m -1.595453,0 h -0.797716 v -0.26761 h 0.797716 z m -1.595443,0 h -0.797717 v -0.26761 h 0.797717 z m -1.595442,0 h -0.797718 v -0.26761 h 0.797718 z m -1.595444,0 H 61.223383 V 262.1615 H 62.0211 Z m -1.595443,0 h -0.797716 v -0.26761 h 0.797716 z m -1.595444,0 h -0.797717 v -0.26761 h 0.797717 z m -1.595442,0 h -0.797727 v -0.26761 h 0.797727 z m -1.595443,0 h -0.797727 v -0.26761 h 0.797727 z m -1.595444,0 h -0.797726 v -0.26761 h 0.797726 z m -1.595443,0 h -0.797726 v -0.26761 h 0.797726 z m -1.595442,0 h -0.797728 v -0.26761 h 0.797728 z m -1.595444,0 h -0.797727 v -0.26761 h 0.797727 z m -1.595443,0 h -0.797726 v -0.26761 h 0.797726 z m -1.595453,0 h -0.797717 v -0.26761 h 0.797717 z m -1.595433,0 h -0.797727 v -0.26761 h 0.797727 z m -1.595453,0 h -0.797718 v -0.26761 h 0.797718 z m -1.595443,0 h -0.797717 v -0.26761 h 0.797717 z m -1.595444,0 H 38.88717 v -0.26761 h 0.797716 z m -1.595442,0 h -0.797727 v -0.26761 h 0.797727 z m -1.595444,0 v -0.26761 z m 57.435982,0 h -0.797727 v -0.26761 h 0.797727 z"
       id="path7142"
       style="stroke-width:0.0999727" />
    <line
       fill="none"
       stroke-width="0.799783"
       stroke-linejoin="round"
       stroke="#5e5e5e"
       stroke-opacity="1"
       x1="49.887711"
       y1="217.29759"
       x2="49.887711"
       y2="275.03094"
       id="line7144" />
    <g
       id="g7150"
       transform="matrix(0.09971524,0,0,0.1002316,-2655.128,-61.820429)">
      <path
         fill="#ffffff"
         fill-opacity="1"
         stroke-width="0.2"
         stroke-linejoin="round"
         d="m 27465.3,2982.01 c -17.6,0 -32,14.32 -32,32 0,17.67 14.4,32 32,32 17.7,0 32,-14.33 32,-32 0,-17.68 -14.3,-32 -32,-32 z"
         id="path7146" />
      <path
         fill="#000000"
         fill-opacity="1"
         stroke-linejoin="round"
         stroke="#000000"
         stroke-opacity="1"
         d="m 27465.3,2995.82 20.9,36.38 h -41.7 z"
         id="path7148" />
    </g>
    <text
       xml:space="preserve"
       id="text7194"
       x="39.329006"
       y="279.30481"
       style="font-size:1.22147px;stroke-width:0.101789">		 <tspan
   style="font-size:3.80014px;font-family:'メイリオ'"
   letter-spacing="0em"
   fill="#000000"
   fill-opacity="1"
   stroke-width="0.0203579"
   stroke-linejoin="round"
   id="tspan7192">F/M Fish with EndoFin</tspan>	</text>
    <path
       fill="#000000"
       fill-opacity="1"
       stroke-linejoin="round"
       d="m 41.71098,223.57808 h 0.797725 v 0.26762 H 41.71098 Z m 1.595443,0 h 0.797727 v 0.26762 h -0.797727 z m 1.595453,0 h 0.797716 v 0.26762 h -0.797716 z m 1.595433,0 h 0.797727 v 0.26762 h -0.797727 z m 1.595454,0 h 0.797715 v 0.26762 h -0.797715 z m 1.595442,0 h 0.797716 v 0.26762 h -0.797716 z m 1.595444,0 h 0.797716 v 0.26762 h -0.797716 z m 1.595442,0 h 0.797717 v 0.26762 h -0.797717 z m 1.595443,0 h 0.797717 v 0.26762 h -0.797717 z m 1.595444,0 h 0.797716 v 0.26762 h -0.797716 z m 1.595443,0 h 0.797725 v 0.26762 h -0.797725 z m 1.595442,0 h 0.797728 v 0.26762 h -0.797728 z m 1.595444,0 h 0.797726 v 0.26762 h -0.797726 z m 1.735049,0.13432 v 0.80186 h -0.269229 v -0.80186 z m 0,1.6037 v 0.80185 h -0.269229 v -0.80185 z m 0,1.6037 v 0.80186 h -0.269229 v -0.80186 z m 0,1.60371 v 0.80186 h -0.269229 v -0.80186 z m 0,1.60371 v 0.80186 h -0.269229 v -0.80186 z m 0,1.60371 v 0.80185 h -0.269229 v -0.80185 z m 0,1.6037 v 0.80186 h -0.269229 v -0.80186 z m 0,1.6037 v 0.80186 h -0.269229 v -0.80186 z m 0,1.60372 v 0.80185 h -0.269229 v -0.80185 z m 0,1.60369 v 0.80186 h -0.269229 v -0.80186 z m 0,1.60372 v 0.80184 h -0.269229 v -0.80184 z m 0,1.60369 v 0.80186 h -0.269229 v -0.80186 z m 0,1.60371 v 0.80185 h -0.269229 v -0.80185 z m 0,1.6037 v 0.80186 h -0.269229 v -0.80186 z m -0.139606,1.73701 h -0.797717 v -0.2676 h 0.797717 z m -1.595443,0 h -0.797716 v -0.2676 h 0.797716 z m -1.595444,0 h -0.797717 v -0.2676 h 0.797717 z m -1.595442,0 h -0.797727 v -0.2676 h 0.797727 z m -1.595443,0 h -0.797727 v -0.2676 h 0.797727 z m -1.595444,0 h -0.797726 v -0.2676 h 0.797726 z m -1.595443,0 h -0.797726 v -0.2676 h 0.797726 z m -1.595442,0 h -0.797728 v -0.2676 h 0.797728 z m -1.595444,0 h -0.797727 v -0.2676 h 0.797727 z m -1.595442,0 h -0.797727 v -0.2676 h 0.797727 z m -1.595454,0 h -0.797717 v -0.2676 h 0.797717 z m -1.595433,0 H 44.10415 v -0.2676 h 0.797726 z m -1.595453,0 h -0.797718 v -0.2676 h 0.797718 z m -1.595443,0 h -0.797717 v -0.2676 h 0.797717 z m -1.725077,-0.1343 v -0.80186 h 0.269239 v 0.80186 z m 0,-1.60371 v -0.80185 h 0.269239 v 0.80185 z m 0,-1.6037 v -0.80185 h 0.269239 v 0.80185 z m 0,-1.60371 v -0.80185 h 0.269239 v 0.80185 z m 0,-1.6037 v -0.80186 h 0.269239 v 0.80186 z m 0,-1.60371 v -0.80185 h 0.269239 v 0.80185 z m 0,-1.60369 v -0.80186 h 0.269239 v 0.80186 z m 0,-1.60372 v -0.80184 h 0.269239 v 0.80184 z m 0,-1.60369 v -0.80186 h 0.269239 v 0.80186 z m 0,-1.60372 v -0.80185 h 0.269239 v 0.80185 z m 0,-1.60371 v -0.80185 h 0.269239 v 0.80185 z m 0,-1.6037 v -0.80185 h 0.269239 v 0.80185 z m 0,-1.60371 v -0.80184 h 0.269239 v 0.80184 z m 0,-1.6037 v -0.80185 h 0.269239 v 0.80185 z m 0.129634,-1.73702 h 0.797726 v 0.26762 h -0.797726 z"
       id="path7196"
       style="stroke-width:0.0999727" />
    <path
       fill="#000000"
       fill-opacity="1"
       stroke-linejoin="round"
       d="m 67.238079,223.57908 h 0.797727 v 0.26662 h -0.797727 z m 1.595453,0 h 0.797717 v 0.26662 h -0.797717 z m 1.595444,0 h 0.797715 v 0.26662 h -0.797715 z m 1.595442,0 h 0.797717 v 0.26662 h -0.797717 z m 1.595444,0 h 0.797716 v 0.26662 h -0.797716 z m 1.595442,0 h 0.797717 v 0.26662 h -0.797717 z m 1.595445,0 h 0.797715 v 0.26662 h -0.797715 z m 1.595442,0 h 0.797716 v 0.26662 h -0.797716 z m 1.595443,0 h 0.797726 v 0.26662 h -0.797726 z m 1.595443,0 h 0.797727 v 0.26662 h -0.797727 z m 1.595443,0 h 0.797726 v 0.26662 H 83.19252 Z m 1.595444,0 h 0.797726 v 0.26662 h -0.797726 z m 1.595443,0 h 0.797725 v 0.26662 h -0.797725 z m 1.735049,0.13332 v 0.80186 h -0.269229 v -0.80186 z m 0,1.6037 v 0.80185 h -0.269229 v -0.80185 z m 0,1.6037 v 0.80186 h -0.269229 v -0.80186 z m 0,1.60371 v 0.80186 h -0.269229 v -0.80186 z m 0,1.60371 v 0.80186 h -0.269229 v -0.80186 z m 0,1.60371 v 0.80185 h -0.269229 v -0.80185 z m 0,1.6037 v 0.80186 h -0.269229 v -0.80186 z m 0,1.6037 v 0.80186 h -0.269229 v -0.80186 z m 0,1.60372 v 0.80185 h -0.269229 v -0.80185 z m 0,1.60369 v 0.80186 h -0.269229 v -0.80186 z m 0,1.60372 v 0.80184 h -0.269229 v -0.80184 z m 0,1.60369 v 0.80186 h -0.269229 v -0.80186 z m 0,1.60371 v 0.80185 h -0.269229 v -0.80185 z m 0,1.6037 v 0.80186 h -0.269229 v -0.80186 z m -0.139607,1.73701 h -0.797717 v -0.2666 h 0.797717 z m -1.595442,0 H 85.58569 v -0.2666 h 0.797717 z m -1.595443,0 h -0.797718 v -0.2666 h 0.797718 z m -1.595444,0 h -0.797716 v -0.2666 h 0.797716 z m -1.595443,0 H 80.79936 v -0.2666 h 0.797717 z m -1.595443,0 h -0.797727 v -0.2666 h 0.797727 z m -1.595443,0 h -0.797727 v -0.2666 h 0.797727 z m -1.595442,0 h -0.797728 v -0.2666 h 0.797728 z m -1.595445,0 h -0.797726 v -0.2666 h 0.797726 z m -1.595442,0 h -0.797727 v -0.2666 h 0.797727 z m -1.595444,0 h -0.797727 v -0.2666 h 0.797727 z m -1.595442,0 h -0.797727 v -0.2666 h 0.797727 z m -1.595444,0 h -0.797726 v -0.2666 h 0.797726 z m -1.595453,0 h -0.797716 v -0.2666 h 0.797716 z m -1.725066,-0.13329 v -0.80186 h 0.269229 v 0.80186 z m 0,-1.60372 v -0.80185 h 0.269229 v 0.80185 z m 0,-1.6037 v -0.80185 h 0.269229 v 0.80185 z m 0,-1.60371 v -0.80185 h 0.269229 v 0.80185 z m 0,-1.60369 v -0.80186 h 0.269229 v 0.80186 z m 0,-1.60372 v -0.80184 h 0.269229 v 0.80184 z m 0,-1.60369 v -0.80186 h 0.269229 v 0.80186 z m 0,-1.60372 v -0.80184 h 0.269229 v 0.80184 z m 0,-1.6037 v -0.80185 h 0.269229 v 0.80185 z m 0,-1.6037 v -0.80185 h 0.269229 v 0.80185 z m 0,-1.60371 v -0.80185 h 0.269229 v 0.80185 z m 0,-1.60371 v -0.80185 h 0.269229 v 0.80185 z m 0,-1.60371 v -0.80185 h 0.269229 v 0.80185 z m 0,-1.6037 v -0.80184 h 0.269229 v 0.80184 z m 0.129623,-1.73702 h 0.797727 v 0.26662 h -0.797727 z"
       id="path7198"
       style="stroke-width:0.0999727" />
    <text
       xml:space="preserve"
       id="text7318"
       x="100.30012"
       y="278.92749"
       style="font-size:1.22147px;stroke-width:0.101789">		 <tspan
   style="font-size:3.80014px;font-family:'メイリオ'"
   letter-spacing="0em"
   fill="#000000"
   fill-opacity="1"
   stroke-width="0.0203579"
   stroke-linejoin="round"
   id="tspan7316">Finned F/M Fish with EndoFin</tspan>	</text>
    <rect
       x="100.32864"
       y="216.95625"
       fill="#ffffff"
       fill-opacity="1"
       stroke-width="0.267281"
       stroke-linejoin="round"
       stroke="#000000"
       stroke-opacity="1"
       width="57.732719"
       height="57.732719"
       id="rect7320" />
    <line
       fill="none"
       stroke-width="0.814314"
       stroke-linejoin="round"
       stroke="#5e5e5e"
       stroke-opacity="1"
       x1="158.96143"
       y1="233.24464"
       x2="100.33073"
       y2="233.24464"
       id="line7322" />
    <path
       fill="#5e5e5e"
       fill-opacity="1"
       stroke-linejoin="round"
       d="m 142.81751,218.78434 v 0.81431 h -0.27484 v -0.81431 z m 0,1.62863 v 0.81431 h -0.27484 v -0.81431 z m 0,1.62863 v 0.81431 h -0.27484 v -0.81431 z m 0,1.62863 v 0.81432 h -0.27484 v -0.81432 z m 0,1.62863 v 0.81431 h -0.27484 v -0.81431 z m 0,1.62863 v 0.81432 h -0.27484 v -0.81432 z m 0,1.62863 v 0.81432 h -0.27484 v -0.81432 z m 0,1.62863 v 0.81432 h -0.27484 v -0.81432 z m 0,1.62863 v 0.81432 h -0.27484 v -0.81432 z m 0,1.62863 v 0.81432 h -0.27484 v -0.81432 z m 0,1.62863 v 0.81432 h -0.27484 v -0.81432 z m 0,1.62864 v 0.81431 h -0.27484 v -0.81431 z m 0,1.62862 v 0.81432 h -0.27484 v -0.81432 z m 0,1.62864 v 0.81431 h -0.27484 v -0.81431 z m 0,1.62862 v 0.81432 h -0.27484 v -0.81432 z m 0,1.62864 v 0.81431 h -0.27484 v -0.81431 z m 0,1.62862 v 0.81432 h -0.27484 v -0.81432 z m 0,1.62864 v 0.81431 h -0.27484 v -0.81431 z m 0,1.62863 v 0.81431 h -0.27484 v -0.81431 z m 0,1.62863 v 0.81431 h -0.27484 v -0.81431 z m 0,1.62863 v 0.81431 h -0.27484 v -0.81431 z m 0,1.62863 v 0.81431 h -0.27484 v -0.81431 z m 0,1.62863 v 0.81431 h -0.27484 v -0.81431 z m 0,1.62863 v 0.81431 h -0.27484 v -0.81431 z m 0,1.62863 v 0.81431 h -0.27484 v -0.81431 z m 0,1.62863 v 0.81432 h -0.27484 v -0.81432 z m 0,1.62863 v 0.81432 h -0.27484 v -0.81432 z m 0,1.62863 v 0.81432 h -0.27484 v -0.81432 z m 0,1.62863 v 0.81432 h -0.27484 v -0.81432 z m 0,1.62863 v 0.81432 h -0.27484 v -0.81432 z m 0,1.62863 v 0.81432 h -0.27484 v -0.81432 z m 0,1.62864 v 0.81431 h -0.27484 v -0.81431 z m 0,1.62862 v 0.81432 h -0.27484 v -0.81432 z m 0,1.62864 v 0.81431 h -0.27484 v -0.81431 z m 0,1.62863 v 0.81431 h -0.27484 v -0.81431 z m 0,1.62863 h -0.27484 z m 0,-58.63071 v 0.81432 h -0.27484 v -0.81432 z"
       id="path7326"
       style="stroke-width:0.101789" />
    <path
       fill="#ff0000"
       fill-opacity="1"
       stroke-linejoin="round"
       d="m 137.56834,262.62059 h -0.81431 v -0.27177 h 0.81431 z m -1.62862,0 h -0.81432 v -0.27177 h 0.81432 z m -1.62864,0 h -0.81431 v -0.27177 h 0.81431 z m -1.62863,0 h -0.81431 v -0.27177 h 0.81431 z m -1.62863,0 h -0.81431 v -0.27177 h 0.81431 z m -1.62863,0 h -0.81431 v -0.27177 h 0.81431 z m -1.62863,0 h -0.81431 v -0.27177 h 0.81431 z m -1.62863,0 h -0.81431 v -0.27177 h 0.81431 z m -1.62863,0 h -0.81432 v -0.27177 h 0.81432 z m -1.62863,0 h -0.81431 v -0.27177 h 0.81431 z m -1.62863,0 h -0.81432 v -0.27177 h 0.81432 z m -1.62863,0 h -0.81432 v -0.27177 h 0.81432 z m -1.62863,0 h -0.81432 v -0.27177 h 0.81432 z m -1.62863,0 v -0.27177 z m 22.80083,0 h -0.81432 v -0.27177 h 0.81432 z"
       id="path7330"
       style="stroke-width:0.101789" />
    <line
       fill="none"
       stroke-width="0.814314"
       stroke-linejoin="round"
       stroke="#5e5e5e"
       stroke-opacity="1"
       x1="113.56335"
       y1="216.95833"
       x2="113.56335"
       y2="275.58905"
       id="line7332" />
    <g
       id="g7338"
       transform="matrix(0.10178942,0,0,0.10178942,-2714.4827,-67.564326)">
      <path
         fill="#ffffff"
         fill-opacity="1"
         stroke-width="0.2"
         stroke-linejoin="round"
         d="m 28069.3,3206.01 c -17.6,0 -32,14.32 -32,32 0,17.67 14.4,32 32,32 17.7,0 32,-14.33 32,-32 0,-17.68 -14.3,-32 -32,-32 z"
         id="path7334" />
      <path
         fill="#000000"
         fill-opacity="1"
         stroke-linejoin="round"
         stroke="#000000"
         stroke-opacity="1"
         d="m 28069.3,3219.82 20.9,36.38 h -41.7 z"
         id="path7336" />
    </g>
    <path
       fill="#000000"
       fill-opacity="1"
       stroke-linejoin="round"
       d="m 105.21652,223.33646 h 0.81432 v 0.27178 h -0.81432 z m 1.62863,0 h 0.81432 v 0.27178 h -0.81432 z m 1.62863,0 h 0.81432 v 0.27178 h -0.81432 z m 1.62863,0 h 0.81432 v 0.27178 h -0.81432 z m 1.62863,0 h 0.81432 v 0.27178 h -0.81432 z m 1.62864,0 h 0.81431 v 0.27178 h -0.81431 z m 1.62863,0 h 0.81431 v 0.27178 h -0.81431 z m 1.62863,0 h 0.81431 v 0.27178 h -0.81431 z m 1.62863,0 h 0.81431 v 0.27178 h -0.81431 z m 1.62863,0 h 0.81431 v 0.27178 h -0.81431 z m 1.62863,0 h 0.81432 v 0.27178 h -0.81432 z m 1.62863,0 h 0.81431 v 0.27178 h -0.81431 z m 1.62863,0 h 0.81432 v 0.27178 h -0.81432 z m 1.77113,0.1364 v 0.81432 h -0.27483 v -0.81432 z m 0,1.62863 v 0.81431 h -0.27483 v -0.81431 z m 0,1.62863 v 0.81432 h -0.27483 v -0.81432 z m 0,1.62863 v 0.81432 h -0.27483 v -0.81432 z m 0,1.62863 v 0.81432 h -0.27483 v -0.81432 z m 0,1.62863 v 0.81432 h -0.27483 v -0.81432 z m 0,1.62863 v 0.81432 h -0.27483 v -0.81432 z m 0,1.62863 v 0.81432 h -0.27483 v -0.81432 z m 0,1.62864 v 0.81431 h -0.27483 v -0.81431 z m 0,1.62862 v 0.81432 h -0.27483 v -0.81432 z m 0,1.62864 v 0.81431 h -0.27483 v -0.81431 z m 0,1.62862 v 0.81432 h -0.27483 v -0.81432 z m 0,1.62864 v 0.81431 h -0.27483 v -0.81431 z m 0,1.62862 v 0.81432 h -0.27483 v -0.81432 z m -0.1425,1.76401 h -0.81431 v -0.27177 h 0.81431 z m -1.62863,0 h -0.81432 v -0.27177 h 0.81432 z m -1.62863,0 h -0.81431 v -0.27177 h 0.81431 z m -1.62863,0 h -0.81432 v -0.27177 h 0.81432 z m -1.62863,0 h -0.81432 v -0.27177 h 0.81432 z m -1.62863,0 h -0.81432 v -0.27177 h 0.81432 z m -1.62863,0 h -0.81432 v -0.27177 h 0.81432 z m -1.62863,0 h -0.81432 v -0.27177 h 0.81432 z m -1.62863,0 h -0.81432 v -0.27177 h 0.81432 z m -1.62864,0 h -0.81431 v -0.27177 h 0.81431 z m -1.62863,0 h -0.81431 v -0.27177 h 0.81431 z m -1.62863,0 h -0.81431 v -0.27177 h 0.81431 z m -1.62863,0 h -0.81431 v -0.27177 h 0.81431 z m -1.62863,0 h -0.81431 v -0.27177 h 0.81431 z m -1.76096,-0.13639 v -0.81432 h 0.27484 v 0.81432 z m 0,-1.62864 v -0.81431 h 0.27484 v 0.81431 z m 0,-1.62862 v -0.81432 h 0.27484 v 0.81432 z m 0,-1.62864 v -0.81431 h 0.27484 v 0.81431 z m 0,-1.62862 v -0.81432 h 0.27484 v 0.81432 z m 0,-1.62863 v -0.81432 h 0.27484 v 0.81432 z m 0,-1.62863 v -0.81432 h 0.27484 v 0.81432 z m 0,-1.62864 v -0.81431 h 0.27484 v 0.81431 z m 0,-1.62862 v -0.81432 h 0.27484 v 0.81432 z m 0,-1.62864 v -0.81431 h 0.27484 v 0.81431 z m 0,-1.62863 v -0.81431 h 0.27484 v 0.81431 z m 0,-1.62863 v -0.81431 h 0.27484 v 0.81431 z m 0,-1.62863 v -0.81431 h 0.27484 v 0.81431 z m 0,-1.62863 v -0.81431 h 0.27484 v 0.81431 z m 0.13233,-1.76401 h 0.81432 v 0.27178 h -0.81432 z"
       id="path7356"
       style="stroke-width:0.101789" />
    <rect
       x="133.31049"
       y="223.47284"
       fill="none"
       stroke-width="0.814314"
       stroke-linejoin="round"
       stroke="#000000"
       stroke-opacity="1"
       width="22.800627"
       height="22.800831"
       id="rect7358" />
    <path
       fill="#5e5e5e"
       fill-opacity="1"
       stroke-linejoin="round"
       d="m 149.44234,219.40406 v 0.81431 h -0.27484 v -0.81431 z m 0,1.62863 v 0.81431 h -0.27484 v -0.81431 z m 0,1.62863 v 0.81431 h -0.27484 v -0.81431 z m 0,1.62863 v 0.81432 h -0.27484 v -0.81432 z m 0,1.62863 v 0.81431 h -0.27484 v -0.81431 z m 0,1.62863 v 0.81432 h -0.27484 v -0.81432 z m 0,1.62863 v 0.81432 h -0.27484 v -0.81432 z m 0,1.62863 v 0.81432 h -0.27484 v -0.81432 z m 0,1.62863 v 0.81432 h -0.27484 v -0.81432 z m 0,1.62863 v 0.81432 h -0.27484 v -0.81432 z m 0,1.62863 v 0.81432 h -0.27484 v -0.81432 z m 0,1.62864 v 0.81431 H 149.1675 V 237.319 Z m 0,1.62862 v 0.81432 h -0.27484 v -0.81432 z m 0,1.62864 v 0.81431 h -0.27484 v -0.81431 z m 0,1.62862 v 0.81432 h -0.27484 v -0.81432 z m 0,1.62864 v 0.81431 h -0.27484 v -0.81431 z m 0,1.62862 v 0.81432 h -0.27484 v -0.81432 z m 0,1.62864 v 0.81431 h -0.27484 v -0.81431 z m 0,1.62863 v 0.81431 h -0.27484 v -0.81431 z m 0,1.62863 v 0.81431 h -0.27484 v -0.81431 z m 0,1.62863 v 0.81431 h -0.27484 v -0.81431 z m 0,1.62863 v 0.81431 h -0.27484 v -0.81431 z m 0,1.62863 v 0.81431 h -0.27484 v -0.81431 z m 0,1.62863 v 0.81431 h -0.27484 v -0.81431 z m 0,1.62863 v 0.81431 h -0.27484 v -0.81431 z m 0,1.62863 v 0.81432 h -0.27484 v -0.81432 z m 0,1.62863 v 0.81432 h -0.27484 v -0.81432 z m 0,1.62863 v 0.81432 h -0.27484 v -0.81432 z m 0,1.62863 v 0.81432 h -0.27484 v -0.81432 z m 0,1.62863 v 0.81432 h -0.27484 v -0.81432 z m 0,1.62863 v 0.81432 h -0.27484 v -0.81432 z m 0,1.62864 v 0.81431 h -0.27484 v -0.81431 z m 0,1.62862 v 0.81432 h -0.27484 v -0.81432 z m 0,1.62864 v 0.81431 h -0.27484 v -0.81431 z m 0,1.62863 v 0.81431 h -0.27484 v -0.81431 z m 0,1.62863 h -0.27484 z m 0,-58.63071 v 0.81432 h -0.27484 v -0.81432 z"
       id="path7370"
       style="stroke-width:0.101789" />
    <g
       id="g7394"
       transform="matrix(-0.11296283,0,0,0.10178942,3313.3405,-66.852831)"
       style="stroke-width:0.932569;stroke-dasharray:none">
      <path
         fill="#ffffff"
         fill-opacity="1"
         stroke-width="0.2"
         stroke-linejoin="round"
         d="m 28069.3,2918.01 c 17.7,0 32,14.32 32,32 0,17.67 -14.3,32 -32,32 -17.6,0 -32,-14.33 -32,-32 0,-17.68 14.4,-32 32,-32 z"
         id="path7388"
         style="stroke-width:0.932569;stroke-dasharray:none" />
      <text
         transform="matrix(-1,0,0,1,28085,2966)"
         xml:space="preserve"
         id="text7392"
         style="stroke-width:0.932569;stroke-dasharray:none"><tspan
   style="font-size:48px;font-family:'メイリオ';stroke-width:0.932569;stroke-dasharray:none"
   letter-spacing="0em"
   fill="#00c800"
   fill-opacity="1"
   stroke-width="8"
   stroke-linejoin="round"
   stroke="#00c800"
   stroke-opacity="1"
   id="tspan7390">X</tspan>		</text>
    </g>
    <g
       id="g7402"
       transform="matrix(-0.0771526,0,0,0.10178942,2256.496,-66.981756)"
       style="stroke-width:1.12843;stroke-dasharray:none">
      <path
         fill="#ffffff"
         fill-opacity="1"
         stroke-width="0.2"
         stroke-linejoin="round"
         d="m 27781.3,3206.01 c 17.7,0 32,14.32 32,32 0,17.67 -14.3,32 -32,32 -17.6,0 -32,-14.33 -32,-32 0,-17.68 14.4,-32 32,-32 z"
         id="path7396"
         style="stroke-width:1.12843;stroke-dasharray:none" />
      <text
         transform="scale(-1.2521979,0.79859579)"
         xml:space="preserve"
         id="text7400"
         x="-22198.525"
         y="4070.3987"
         style="font-size:13.4075px;stroke-width:1.12843;stroke-dasharray:none"><tspan
   style="font-size:53.6299px;font-family:'メイリオ';stroke-width:1.12843;stroke-dasharray:none"
   letter-spacing="0em"
   fill="#ff0000"
   fill-opacity="1"
   stroke-width="8.93832"
   stroke-linejoin="round"
   stroke="#ff0000"
   stroke-opacity="1"
   id="tspan7398">X</tspan>		</text>
    </g>
    <line
       fill="none"
       stroke-width="0.814314"
       stroke-linejoin="round"
       stroke="#5e5e5e"
       stroke-opacity="1"
       x1="177.40135"
       y1="232.83333"
       x2="167.62956"
       y2="232.83333"
       id="line7446" />
    <path
       fill="#000000"
       fill-opacity="1"
       stroke-linejoin="round"
       d="m 175.77272,240.09463 h -0.81432 v -0.27178 h 0.81432 z m -1.62863,0 h -0.81431 v -0.27178 h 0.81431 z m -1.62863,0 h -0.81432 v -0.27178 h 0.81432 z m -1.62863,0 h -0.81432 v -0.27178 h 0.81432 z m -1.62863,0 h -0.81432 v -0.27178 h 0.81432 z m -1.62863,0 v -0.27178 z m 9.77178,0 h -0.81431 v -0.27178 h 0.81431 z"
       id="path7450"
       style="stroke-width:0.101789" />
    <text
       xml:space="preserve"
       id="text7454"
       x="180.11935"
       y="234.35913"
       style="font-size:1.22147px;stroke-width:0.101789">		 <tspan
   style="font-size:4.8859px;font-family:'メイリオ'"
   letter-spacing="0em"
   fill="#000000"
   fill-opacity="1"
   stroke-width="0.0203579"
   stroke-linejoin="round"
   id="tspan7452">BaseSet</tspan>	</text>
    <text
       xml:space="preserve"
       id="text7458"
       x="180.11935"
       y="241.99408"
       style="font-size:1.22147px;stroke-width:0.101789">		 <tspan
   style="font-size:4.8859px;font-family:'メイリオ'"
   letter-spacing="0em"
   fill="#000000"
   fill-opacity="1"
   stroke-width="0.0203579"
   stroke-linejoin="round"
   id="tspan7456">CoverSet</tspan>	</text>
    <text
       xml:space="preserve"
       id="text7466"
       x="180.11935"
       y="259.11551"
       style="font-size:1.22147px;stroke-width:0.101789">		 <tspan
   style="font-size:4.8859px;font-family:'メイリオ'"
   letter-spacing="0em"
   fill="#000000"
   fill-opacity="1"
   stroke-width="0.0203579"
   stroke-linejoin="round"
   id="tspan7464">EndoFin</tspan>	</text>
    <g
       id="g14273"
       transform="translate(0,-3.7041668)">
      <text
         xml:space="preserve"
         id="text7462"
         x="180.11935"
         y="254.10628"
         style="font-size:1.22147px;stroke-width:0.101789">		 <tspan
   style="font-size:4.8859px;font-family:'メイリオ'"
   letter-spacing="0em"
   fill="#000000"
   fill-opacity="1"
   stroke-width="0.0203579"
   stroke-linejoin="round"
   id="tspan7460">Fin</tspan>	</text>
      <g
         id="g7474"
         transform="matrix(0.10178942,0,0,0.10178942,-2712.0263,-67.44648)"
         style="stroke-width:0.98242;stroke-dasharray:none">
        <path
           fill="#ffffff"
           fill-opacity="1"
           stroke-width="0.2"
           stroke-linejoin="round"
           d="m 28341.3,3110.01 c 17.7,0 32,14.32 32,32 0,17.67 -14.3,32 -32,32 -17.6,0 -32,-14.33 -32,-32 0,-17.68 14.4,-32 32,-32 z"
           id="path7468"
           style="stroke-width:0.98242;stroke-dasharray:none" />
        <text
           transform="matrix(-1,0,0,1,28357,3158)"
           xml:space="preserve"
           id="text7472"
           style="stroke-width:0.98242;stroke-dasharray:none">			 <tspan
   style="font-size:48px;font-family:'メイリオ';stroke-width:0.98242;stroke-dasharray:none"
   letter-spacing="0em"
   fill="#ff0000"
   fill-opacity="1"
   stroke-width="8"
   stroke-linejoin="round"
   stroke="#ff0000"
   stroke-opacity="1"
   id="tspan7470">X</tspan>		</text>
      </g>
    </g>
    <g
       id="g7482"
       transform="matrix(0.10178942,0,0,0.10178942,-2712.0263,-71.679816)"
       style="stroke-width:0.98242;stroke-dasharray:none">
      <path
         fill="#ffffff"
         fill-opacity="1"
         stroke-width="0.2"
         stroke-linejoin="round"
         d="m 28341.3,3206.01 c 17.7,0 32,14.32 32,32 0,17.67 -14.3,32 -32,32 -17.6,0 -32,-14.33 -32,-32 0,-17.68 14.4,-32 32,-32 z"
         id="path7476"
         style="stroke-width:0.98242;stroke-dasharray:none" />
      <text
         transform="matrix(-1,0,0,1,28357,3254)"
         xml:space="preserve"
         id="text7480"
         style="stroke-width:0.98242;stroke-dasharray:none">			 <tspan
   style="font-size:48px;font-family:'メイリオ';stroke-width:0.98242;stroke-dasharray:none"
   letter-spacing="0em"
   fill="#00c800"
   fill-opacity="1"
   stroke-width="8"
   stroke-linejoin="round"
   stroke="#00c800"
   stroke-opacity="1"
   id="tspan7478">X</tspan>		</text>
    </g>
    <line
       fill="none"
       stroke-width="0.271439"
       stroke-linejoin="round"
       stroke="#ff0000"
       stroke-opacity="1"
       x1="177.40135"
       y1="266.40427"
       x2="167.62956"
       y2="266.40427"
       id="line7490" />
    <path
       fill="#ff0000"
       fill-opacity="1"
       stroke-linejoin="round"
       d="m 175.77272,266.53966 h -0.81432 v -0.27178 h 0.81432 z m -1.62863,0 h -0.81431 v -0.27178 h 0.81431 z m -1.62863,0 h -0.81432 v -0.27178 h 0.81432 z m -1.62863,0 h -0.81432 v -0.27178 h 0.81432 z m -1.62863,0 h -0.81432 v -0.27178 h 0.81432 z m -1.62863,0 v -0.27178 z m 9.77178,0 h -0.81431 v -0.27178 h 0.81431 z"
       id="path7492"
       style="stroke-width:0.101789" />
    <text
       xml:space="preserve"
       id="text8980"
       x="180.11935"
       y="267.52292"
       style="font-size:1.22147px;stroke-width:0.101789">		 <tspan
   style="font-size:4.8859px;font-family:'メイリオ'"
   letter-spacing="0em"
   fill="#000000"
   fill-opacity="1"
   stroke-width="0.0203579"
   stroke-linejoin="round"
   id="tspan8978">House different from B/C</tspan>	</text>
    <g
       id="g7775"
       transform="matrix(-0.08536467,0,0,0.1002316,2366.8504,-63.641375)">
      <path
         fill="#ffffff"
         fill-opacity="1"
         stroke-width="0.2"
         stroke-linejoin="round"
         d="m 27143.3,2875.01 c -17.6,0 -32,14.32 -32,32 0,17.67 14.4,32 32,32 17.7,0 32,-14.33 32,-32 0,-17.68 -14.3,-32 -32,-32 z"
         id="path7769" />
      <text
         transform="scale(-1,1)"
         xml:space="preserve"
         id="text7773"
         x="-27178.615"
         y="2926.1221">			<tspan
   style="font-size:48px;font-family:'メイリオ'"
   letter-spacing="0em"
   fill="#000000"
   fill-opacity="1"
   stroke-width="0.2"
   stroke-linejoin="round"
   id="tspan7771">X</tspan>		</text>
    </g>
    <g
       id="g7783"
       transform="matrix(-0.08536467,0,0,0.1002316,2387.2826,-58.017062)"
       inkscape:transform-center-x="6.9169378"
       inkscape:transform-center-y="-6.748237">
      <path
         fill="#ffffff"
         fill-opacity="1"
         stroke-width="0.2"
         stroke-linejoin="round"
         d="m 27143.3,2875.01 c -17.6,0 -32,14.32 -32,32 0,17.67 14.4,32 32,32 17.7,0 32,-14.33 32,-32 0,-17.68 -14.3,-32 -32,-32 z"
         id="path7777" />
      <text
         transform="scale(-1,1)"
         xml:space="preserve"
         id="text7781"
         x="-27178.615"
         y="2926.1221">			<tspan
   style="font-size:48px;font-family:'メイリオ'"
   letter-spacing="0em"
   fill="#000000"
   fill-opacity="1"
   stroke-width="0.2"
   stroke-linejoin="round"
   id="tspan7779">X</tspan>		</text>
    </g>
    <g
       id="g7791"
       transform="matrix(-0.08536467,0,0,0.1002316,2362.1124,-57.820473)">
      <path
         fill="#ffffff"
         fill-opacity="1"
         stroke-width="0.2"
         stroke-linejoin="round"
         d="m 27143.3,2875.01 c -17.6,0 -32,14.32 -32,32 0,17.67 14.4,32 32,32 17.7,0 32,-14.33 32,-32 0,-17.68 -14.3,-32 -32,-32 z"
         id="path7785" />
      <text
         transform="scale(-1,1)"
         xml:space="preserve"
         id="text7789"
         x="-27178.615"
         y="2926.1221">			<tspan
   style="font-size:48px;font-family:'メイリオ'"
   letter-spacing="0em"
   fill="#000000"
   fill-opacity="1"
   stroke-width="0.2"
   stroke-linejoin="round"
   id="tspan7787">X</tspan>		</text>
    </g>
    <g
       id="g7799"
       transform="matrix(-0.08536467,0,0,0.1002316,2366.8504,-50.676637)">
      <path
         fill="#ffffff"
         fill-opacity="1"
         stroke-width="0.2"
         stroke-linejoin="round"
         d="m 27143.3,2875.01 c -17.6,0 -32,14.32 -32,32 0,17.67 14.4,32 32,32 17.7,0 32,-14.33 32,-32 0,-17.68 -14.3,-32 -32,-32 z"
         id="path7793" />
      <text
         transform="scale(-1,1)"
         xml:space="preserve"
         id="text7797"
         x="-27178.615"
         y="2926.1221">			<tspan
   style="font-size:48px;font-family:'メイリオ'"
   letter-spacing="0em"
   fill="#000000"
   fill-opacity="1"
   stroke-width="0.2"
   stroke-linejoin="round"
   id="tspan7795">X</tspan>		</text>
    </g>
    <g
       id="g7807"
       transform="matrix(-0.08536467,0,0,0.1002316,2367.0495,-29.245133)">
      <path
         fill="#ffffff"
         fill-opacity="1"
         stroke-width="0.2"
         stroke-linejoin="round"
         d="m 27143.3,2875.01 c -17.6,0 -32,14.32 -32,32 0,17.67 14.4,32 32,32 17.7,0 32,-14.33 32,-32 0,-17.68 -14.3,-32 -32,-32 z"
         id="path7801" />
      <text
         transform="scale(-1,1)"
         xml:space="preserve"
         id="text7805"
         x="-27178.615"
         y="2926.1221">			<tspan
   style="font-size:48px;font-family:'メイリオ'"
   letter-spacing="0em"
   fill="#000000"
   fill-opacity="1"
   stroke-width="0.2"
   stroke-linejoin="round"
   id="tspan7803">X</tspan>		</text>
    </g>
    <g
       id="g7815"
       transform="matrix(-0.08536467,0,0,0.1002316,2395.5418,-29.044718)"
       inkscape:transform-center-x="16.071697"
       inkscape:transform-center-y="0.3067341">
      <path
         fill="#ffffff"
         fill-opacity="1"
         stroke-width="0.2"
         stroke-linejoin="round"
         d="m 27143.3,2875.01 c -17.6,0 -32,14.32 -32,32 0,17.67 14.4,32 32,32 17.7,0 32,-14.33 32,-32 0,-17.68 -14.3,-32 -32,-32 z"
         id="path7809" />
      <text
         transform="scale(-1,1)"
         xml:space="preserve"
         id="text7813"
         x="-27178.615"
         y="2926.1221">			<tspan
   style="font-size:48px;font-family:'メイリオ'"
   letter-spacing="0em"
   fill="#000000"
   fill-opacity="1"
   stroke-width="0.2"
   stroke-linejoin="round"
   id="tspan7811">X</tspan>		</text>
    </g>
    <g
       id="g7823"
       transform="matrix(-0.0858057,0,0,0.10023041,2435.884,-58.158523)">
      <path
         fill="#ffffff"
         fill-opacity="1"
         stroke-width="0.2"
         stroke-linejoin="round"
         d="m 27143.3,2875.01 c -17.6,0 -32,14.32 -32,32 0,17.67 14.4,32 32,32 17.7,0 32,-14.33 32,-32 0,-17.68 -14.3,-32 -32,-32 z"
         id="path7817" />
      <text
         transform="scale(-1,1)"
         xml:space="preserve"
         id="text7821"
         x="-27178.615"
         y="2926.1221">			<tspan
   style="font-size:48px;font-family:'メイリオ'"
   letter-spacing="0em"
   fill="#000000"
   fill-opacity="1"
   stroke-width="0.2"
   stroke-linejoin="round"
   id="tspan7819">X</tspan>		</text>
    </g>
    <g
       id="g7831"
       transform="matrix(-0.0858057,0,0,0.10023041,2447.7903,-58.158523)">
      <path
         fill="#ffffff"
         fill-opacity="1"
         stroke-width="0.2"
         stroke-linejoin="round"
         d="m 27143.3,2875.01 c -17.6,0 -32,14.32 -32,32 0,17.67 14.4,32 32,32 17.7,0 32,-14.33 32,-32 0,-17.68 -14.3,-32 -32,-32 z"
         id="path7825" />
      <text
         transform="scale(-1,1)"
         xml:space="preserve"
         id="text7829"
         x="-27178.615"
         y="2926.1221">			<tspan
   style="font-size:48px;font-family:'メイリオ'"
   letter-spacing="0em"
   fill="#000000"
   fill-opacity="1"
   stroke-width="0.2"
   stroke-linejoin="round"
   id="tspan7827">X</tspan>		</text>
    </g>
    <g
       id="g7839"
       transform="matrix(-0.0858057,0,0,0.10023041,2442.5986,-51.511567)">
      <path
         fill="#ffffff"
         fill-opacity="1"
         stroke-width="0.2"
         stroke-linejoin="round"
         d="m 27143.3,2875.01 c -17.6,0 -32,14.32 -32,32 0,17.67 14.4,32 32,32 17.7,0 32,-14.33 32,-32 0,-17.68 -14.3,-32 -32,-32 z"
         id="path7833" />
      <text
         transform="scale(-1,1)"
         xml:space="preserve"
         id="text7837"
         x="-27178.615"
         y="2926.1221">			<tspan
   style="font-size:48px;font-family:'メイリオ'"
   letter-spacing="0em"
   fill="#000000"
   fill-opacity="1"
   stroke-width="0.2"
   stroke-linejoin="round"
   id="tspan7835">X</tspan>		</text>
    </g>
    <g
       id="g7847"
       transform="matrix(-0.0858057,0,0,0.10023041,2478.3173,-50.9824)">
      <path
         fill="#ffffff"
         fill-opacity="1"
         stroke-width="0.2"
         stroke-linejoin="round"
         d="m 27143.3,2875.01 c -17.6,0 -32,14.32 -32,32 0,17.67 14.4,32 32,32 17.7,0 32,-14.33 32,-32 0,-17.68 -14.3,-32 -32,-32 z"
         id="path7841" />
      <text
         transform="scale(-1,1)"
         xml:space="preserve"
         id="text7845"
         x="-27178.615"
         y="2926.1221">			<tspan
   style="font-size:48px;font-family:'メイリオ'"
   letter-spacing="0em"
   fill="#000000"
   fill-opacity="1"
   stroke-width="0.2"
   stroke-linejoin="round"
   id="tspan7843">X</tspan>		</text>
    </g>
    <g
       id="g7855"
       transform="matrix(-0.11238221,0,0,0.10179063,3232.8749,-66.73732)"
       style="stroke-width:0.932569;stroke-dasharray:none">
      <path
         fill="#ffffff"
         fill-opacity="1"
         stroke-width="0.2"
         stroke-linejoin="round"
         d="m 28069.3,2918.01 c 17.7,0 32,14.32 32,32 0,17.67 -14.3,32 -32,32 -17.6,0 -32,-14.33 -32,-32 0,-17.68 14.4,-32 32,-32 z"
         id="path7849"
         style="stroke-width:0.932569;stroke-dasharray:none" />
      <text
         transform="matrix(-1,0,0,1,28085,2966)"
         xml:space="preserve"
         id="text7853"
         style="stroke-width:0.932569;stroke-dasharray:none"><tspan
   style="font-size:48px;font-family:'メイリオ';stroke-width:0.932569;stroke-dasharray:none"
   letter-spacing="0em"
   fill="#00c800"
   fill-opacity="1"
   stroke-width="8"
   stroke-linejoin="round"
   stroke="#00c800"
   stroke-opacity="1"
   id="tspan7851">X</tspan>		</text>
    </g>
  </g>
</svg>
