<?xml version="1.0" encoding="UTF-8" standalone="no"?>
<!-- Created with Inkscape (http://www.inkscape.org/) -->

<svg
   width="75.256554mm"
   height="75.256554mm"
   viewBox="0 0 75.256554 75.256554"
   version="1.1"
   id="svg12839"
   inkscape:version="1.2.2 (732a01da63, 2022-12-09)"
   sodipodi:docname="image25.svg"
   xmlns:inkscape="http://www.inkscape.org/namespaces/inkscape"
   xmlns:sodipodi="http://sodipodi.sourceforge.net/DTD/sodipodi-0.dtd"
   xmlns="http://www.w3.org/2000/svg"
   xmlns:svg="http://www.w3.org/2000/svg">
  <sodipodi:namedview
     id="namedview12841"
     pagecolor="#ffffff"
     bordercolor="#000000"
     borderopacity="0.25"
     inkscape:showpageshadow="2"
     inkscape:pageopacity="0.0"
     inkscape:pagecheckerboard="0"
     inkscape:deskcolor="#d1d1d1"
     inkscape:document-units="mm"
     showgrid="true"
     inkscape:zoom="1.829812"
     inkscape:cx="231.17129"
     inkscape:cy="615.36376"
     inkscape:window-width="2445"
     inkscape:window-height="1729"
     inkscape:window-x="895"
     inkscape:window-y="428"
     inkscape:window-maximized="0"
     inkscape:current-layer="layer1">
    <inkscape:grid
       type="xygrid"
       id="grid15288"
       originx="-119.17106"
       originy="-31.315917"
       spacingy="1"
       spacingx="1"
       units="mm"
       visible="true" />
  </sodipodi:namedview>
  <defs
     id="defs12836" />
  <g
     inkscape:label="Layer 1"
     inkscape:groupmode="layer"
     id="layer1"
     transform="translate(-119.17106,-31.315915)">
    <g
       id="g13141"
       inkscape:export-filename="img25aStrongLink.png"
       inkscape:export-xdpi="96"
       inkscape:export-ydpi="96">
      <rect
         x="119.34445"
         y="31.489319"
         fill="#ffffff"
         fill-opacity="1"
         stroke-width="0.346804"
         stroke-linejoin="round"
         stroke="#000000"
         stroke-opacity="1"
         width="74.909744"
         height="74.909744"
         id="rect2432" />
      <line
         fill="none"
         stroke-width="0.346804"
         stroke-linejoin="round"
         stroke="#000000"
         stroke-opacity="1"
         x1="131.82941"
         y1="44.104328"
         x2="160.96097"
         y2="44.104328"
         id="line2434" />
      <line
         fill="none"
         stroke-width="0.346804"
         stroke-linejoin="round"
         stroke="#000000"
         stroke-opacity="1"
         x1="177.89372"
         y1="49.176342"
         x2="177.89372"
         y2="93.914108"
         id="line2436" />
      <rect
         x="127.66776"
         y="68.944191"
         fill="#ffffff"
         fill-opacity="1"
         stroke-width="0.346804"
         stroke-linejoin="round"
         stroke="#000000"
         stroke-opacity="1"
         width="20.808132"
         height="20.808262"
         id="rect2438" />
      <path
         fill="#000000"
         fill-opacity="1"
         stroke-width="0.346804"
         stroke-linejoin="round"
         stroke="#000000"
         stroke-opacity="1"
         d="m 129.74861,42.413687 c 1.15746,0 2.08082,0.93117 2.08082,2.080826 0,1.148357 -0.92336,2.080827 -2.08082,2.080827 -1.14446,0 -2.08083,-0.93247 -2.08083,-2.080827 0,-1.149656 0.93637,-2.080826 2.08083,-2.080826 z"
         id="path2440" />
      <path
         fill="#000000"
         fill-opacity="1"
         stroke-width="0.346804"
         stroke-linejoin="round"
         stroke="#000000"
         stroke-opacity="1"
         d="m 151.93541,41.723113 c 1.15747,0 2.08083,0.93247 2.08083,2.080826 0,1.149657 -0.92336,2.080826 -2.08083,2.080826 -1.14445,0 -2.08082,-0.931169 -2.08082,-2.080826 0,-1.148356 0.93637,-2.080826 2.08082,-2.080826 z"
         id="path2442" />
      <path
         fill="#000000"
         fill-opacity="1"
         stroke-width="0.346804"
         stroke-linejoin="round"
         stroke="#000000"
         stroke-opacity="1"
         d="m 177.29549,46.749609 c 1.14445,0 2.08082,0.93117 2.08082,2.080826 0,1.148356 -0.93637,2.080826 -2.08082,2.080826 -1.14446,0 -2.08083,-0.93247 -2.08083,-2.080826 0,-1.149656 0.93637,-2.080826 2.08083,-2.080826 z"
         id="path2444" />
      <path
         fill="#000000"
         fill-opacity="1"
         stroke-width="0.346804"
         stroke-linejoin="round"
         stroke="#000000"
         stroke-opacity="1"
         d="m 177.47756,67.903808 c 1.15746,0 2.08082,0.93117 2.08082,2.080826 0,1.148355 -0.92336,2.080827 -2.08082,2.080827 -1.14446,0 -2.08083,-0.932472 -2.08083,-2.080827 0,-1.149656 0.93637,-2.080826 2.08083,-2.080826 z"
         id="path2446" />
      <path
         fill="#000000"
         fill-opacity="1"
         stroke-width="0.346804"
         stroke-linejoin="round"
         stroke="#000000"
         stroke-opacity="1"
         d="m 133.91026,73.105874 c 1.15746,0 2.08082,0.931169 2.08082,2.080826 0,1.148356 -0.92336,2.080826 -2.08082,2.080826 -1.14446,0 -2.08083,-0.93247 -2.08083,-2.080826 0,-1.149657 0.93637,-2.080826 2.08083,-2.080826 z"
         id="path2448" />
      <path
         fill="#000000"
         fill-opacity="1"
         stroke-width="0.346804"
         stroke-linejoin="round"
         stroke="#000000"
         stroke-opacity="1"
         d="m 142.23356,78.177887 c 1.15746,0 2.08083,0.93117 2.08083,2.080825 0,1.148358 -0.92337,2.080829 -2.08083,2.080829 -1.14444,0 -2.08082,-0.932471 -2.08082,-2.080829 0,-1.149655 0.93638,-2.080825 2.08082,-2.080825 z"
         id="path2450" />
      <path
         fill="#000000"
         fill-opacity="1"
         stroke-width="0.346804"
         stroke-linejoin="round"
         stroke="#000000"
         stroke-opacity="1"
         d="m 142.36361,83.510003 c 1.15747,0 2.08083,0.931173 2.08083,2.080829 0,1.148352 -0.92336,2.080823 -2.08083,2.080823 -1.14444,0 -2.08082,-0.932471 -2.08082,-2.080823 0,-1.149656 0.93638,-2.080829 2.08082,-2.080829 z"
         id="path2452" />
      <path
         fill="#000000"
         fill-opacity="1"
         stroke-width="0.346804"
         stroke-linejoin="round"
         stroke="#000000"
         stroke-opacity="1"
         d="m 162.26152,41.633377 c 1.15746,0 2.08082,0.93117 2.08082,2.080827 0,1.148356 -0.92336,2.080826 -2.08082,2.080826 -1.14446,0 -2.08083,-0.93247 -2.08083,-2.080826 0,-1.149657 0.93637,-2.080827 2.08083,-2.080827 z"
         id="path2454" />
      <path
         fill="#000000"
         fill-opacity="1"
         stroke-width="0.346804"
         stroke-linejoin="round"
         stroke="#000000"
         stroke-opacity="1"
         d="m 177.86772,90.27269 c 1.15746,0 2.08082,0.931168 2.08082,2.080828 0,1.148357 -0.92336,2.080821 -2.08082,2.080821 -1.14446,0 -2.08083,-0.932464 -2.08083,-2.080821 0,-1.14966 0.93637,-2.080828 2.08083,-2.080828 z"
         id="path2456" />
      <text
         xml:space="preserve"
         id="text2464"
         x="127.62877"
         y="102.23614"
         style="font-size:1.56062px;stroke-width:0.130052"><tspan
   style="font-size:6.24249px;font-family:'メイリオ'"
   letter-spacing="0em"
   fill="#000000"
   fill-opacity="1"
   stroke-width="0.0260104"
   stroke-linejoin="round"
   id="tspan2462">Weak Link</tspan>	</text>
    </g>
  </g>
</svg>
