<?xml version="1.0" encoding="UTF-8" standalone="no"?>
<!-- Created with Inkscape (http://www.inkscape.org/) -->

<svg
   width="75.256546mm"
   height="75.256554mm"
   viewBox="0 0 75.256546 75.256554"
   version="1.1"
   id="svg12839"
   inkscape:version="1.2.2 (732a01da63, 2022-12-09)"
   sodipodi:docname="image25.svg"
   xmlns:inkscape="http://www.inkscape.org/namespaces/inkscape"
   xmlns:sodipodi="http://sodipodi.sourceforge.net/DTD/sodipodi-0.dtd"
   xmlns="http://www.w3.org/2000/svg"
   xmlns:svg="http://www.w3.org/2000/svg">
  <sodipodi:namedview
     id="namedview12841"
     pagecolor="#ffffff"
     bordercolor="#000000"
     borderopacity="0.25"
     inkscape:showpageshadow="2"
     inkscape:pageopacity="0.0"
     inkscape:pagecheckerboard="0"
     inkscape:deskcolor="#d1d1d1"
     inkscape:document-units="mm"
     showgrid="true"
     inkscape:zoom="1.829812"
     inkscape:cx="231.17129"
     inkscape:cy="615.36376"
     inkscape:window-width="2445"
     inkscape:window-height="1729"
     inkscape:window-x="895"
     inkscape:window-y="428"
     inkscape:window-maximized="0"
     inkscape:current-layer="layer1">
    <inkscape:grid
       type="xygrid"
       id="grid15288"
       originx="-31.776349"
       originy="-31.315917"
       spacingy="1"
       spacingx="1"
       units="mm"
       visible="true" />
  </sodipodi:namedview>
  <defs
     id="defs12836" />
  <g
     inkscape:label="Layer 1"
     inkscape:groupmode="layer"
     id="layer1"
     transform="translate(-31.776351,-31.315915)">
    <g
       id="g13156"
       inkscape:export-filename="img25aStrongLink.png"
       inkscape:export-xdpi="96"
       inkscape:export-ydpi="96">
      <g
         id="g13124">
        <rect
           x="31.949753"
           y="31.489319"
           fill="#ffffff"
           fill-opacity="1"
           stroke-width="0.346804"
           stroke-linejoin="round"
           stroke="#000000"
           stroke-opacity="1"
           width="74.909744"
           height="74.909744"
           id="rect2412" />
        <line
           fill="none"
           stroke-width="0.346804"
           stroke-linejoin="round"
           stroke="#000000"
           stroke-opacity="1"
           x1="44.434708"
           y1="44.104328"
           x2="65.242973"
           y2="44.104328"
           id="line2414" />
        <line
           fill="none"
           stroke-width="0.346804"
           stroke-linejoin="round"
           stroke="#000000"
           stroke-opacity="1"
           x1="89.822731"
           y1="48.656136"
           x2="89.822731"
           y2="69.464394"
           id="line2416" />
        <rect
           x="40.273056"
           y="68.944191"
           fill="#ffffff"
           fill-opacity="1"
           stroke-width="0.346804"
           stroke-linejoin="round"
           stroke="#000000"
           stroke-opacity="1"
           width="20.808132"
           height="20.808262"
           id="rect2418" />
        <path
           fill="#000000"
           fill-opacity="1"
           stroke-width="0.346804"
           stroke-linejoin="round"
           stroke="#000000"
           stroke-opacity="1"
           d="m 42.35391,42.413687 c 1.157459,0 2.080825,0.93117 2.080825,2.080826 0,1.148357 -0.923366,2.080827 -2.080825,2.080827 -1.144455,0 -2.080826,-0.93247 -2.080826,-2.080827 0,-1.149656 0.936371,-2.080826 2.080826,-2.080826 z"
           id="path2420" />
        <path
           fill="#000000"
           fill-opacity="1"
           stroke-width="0.346804"
           stroke-linejoin="round"
           stroke="#000000"
           stroke-opacity="1"
           d="m 64.540719,41.723113 c 1.157459,0 2.080826,0.93247 2.080826,2.080826 0,1.149657 -0.923367,2.080826 -2.080826,2.080826 -1.144455,0 -2.080826,-0.931169 -2.080826,-2.080826 0,-1.148356 0.936371,-2.080826 2.080826,-2.080826 z"
           id="path2422" />
        <path
           fill="#000000"
           fill-opacity="1"
           stroke-width="0.346804"
           stroke-linejoin="round"
           stroke="#000000"
           stroke-opacity="1"
           d="m 89.640684,46.229402 c 1.144454,0 2.080822,0.93117 2.080822,2.080826 0,1.148357 -0.936368,2.080826 -2.080822,2.080826 -1.144454,0 -2.080826,-0.932469 -2.080826,-2.080826 0,-1.149656 0.936372,-2.080826 2.080826,-2.080826 z"
           id="path2424" />
        <path
           fill="#000000"
           fill-opacity="1"
           stroke-width="0.346804"
           stroke-linejoin="round"
           stroke="#000000"
           stroke-opacity="1"
           d="m 89.822756,67.383602 c 1.15746,0 2.080822,0.93117 2.080822,2.080825 0,1.148356 -0.923362,2.080826 -2.080822,2.080826 -1.144454,0 -2.080826,-0.93247 -2.080826,-2.080826 0,-1.149655 0.936372,-2.080825 2.080826,-2.080825 z"
           id="path2426" />
        <path
           fill="#000000"
           fill-opacity="1"
           stroke-width="0.346804"
           stroke-linejoin="round"
           stroke="#000000"
           stroke-opacity="1"
           d="m 46.515561,73.105874 c 1.15746,0 2.080827,0.931169 2.080827,2.080826 0,1.148356 -0.923367,2.080826 -2.080827,2.080826 -1.144454,0 -2.080826,-0.93247 -2.080826,-2.080826 0,-1.149657 0.936372,-2.080826 2.080826,-2.080826 z"
           id="path2428" />
        <path
           fill="#000000"
           fill-opacity="1"
           stroke-width="0.346804"
           stroke-linejoin="round"
           stroke="#000000"
           stroke-opacity="1"
           d="m 54.838866,78.047836 c 1.157459,0 2.080827,0.93117 2.080827,2.080826 0,1.148358 -0.923368,2.080824 -2.080827,2.080824 -1.144454,0 -2.080826,-0.932466 -2.080826,-2.080824 0,-1.149656 0.936372,-2.080826 2.080826,-2.080826 z"
           id="path2430" />
        <text
           xml:space="preserve"
           id="text2460"
           x="40.234066"
           y="102.23614"
           style="font-size:1.56062px;stroke-width:0.130052"><tspan
             style="font-size:6.24249px;font-family:'メイリオ'"
             letter-spacing="0em"
             fill="#000000"
             fill-opacity="1"
             stroke-width="0.0260104"
             stroke-linejoin="round"
             id="tspan2458">Strong Link</tspan></text>
      </g>
    </g>
  </g>
</svg>
