<?xml version="1.0" encoding="UTF-8" standalone="no"?>
<!-- Created with Inkscape (http://www.inkscape.org/) -->

<svg
   width="159.67989mm"
   height="79.732895mm"
   viewBox="0 0 159.67989 79.732895"
   version="1.1"
   id="svg3415"
   inkscape:version="1.4 (86a8ad7, 2024-10-11)"
   sodipodi:docname="img38c.svg"
   inkscape:export-filename="img38c.png"
   inkscape:export-xdpi="96"
   inkscape:export-ydpi="96"
   xmlns:inkscape="http://www.inkscape.org/namespaces/inkscape"
   xmlns:sodipodi="http://sodipodi.sourceforge.net/DTD/sodipodi-0.dtd"
   xmlns="http://www.w3.org/2000/svg"
   xmlns:svg="http://www.w3.org/2000/svg">
  <sodipodi:namedview
     id="namedview3417"
     pagecolor="#ffffff"
     bordercolor="#000000"
     borderopacity="0.25"
     inkscape:showpageshadow="2"
     inkscape:pageopacity="0.0"
     inkscape:pagecheckerboard="0"
     inkscape:deskcolor="#d1d1d1"
     inkscape:document-units="mm"
     showgrid="false"
     inkscape:zoom="1.1067624"
     inkscape:cx="578.715"
     inkscape:cy="443.63632"
     inkscape:window-width="2443"
     inkscape:window-height="1230"
     inkscape:window-x="1070"
     inkscape:window-y="505"
     inkscape:window-maximized="0"
     inkscape:current-layer="layer1" />
  <defs
     id="defs3412" />
  <g
     inkscape:label="Layer 1"
     inkscape:groupmode="layer"
     id="layer1"
     transform="translate(-22.784808,-209.06938)">
    <rect
       x="27.433495"
       y="212.49057"
       fill="#ffffff"
       fill-opacity="1"
       stroke-width="0.322646"
       stroke-linejoin="round"
       stroke="#000000"
       stroke-opacity="1"
       width="69.691444"
       height="69.691444"
       id="rect8776"
       inkscape:export-filename="img38c.png"
       inkscape:export-xdpi="96"
       inkscape:export-ydpi="96" />
    <path
       fill="#000000"
       fill-opacity="1"
       stroke-linejoin="round"
       d="m 29.414472,235.72104 h 0.967937 v 0.32305 h -0.967937 z m 1.935874,0 h 0.967936 v 0.32305 h -0.967936 z m 1.935873,0 h 0.967937 v 0.32305 h -0.967937 z m 1.935873,0 h 0.967937 v 0.32305 h -0.967937 z m 1.935874,0 h 0.967937 v 0.32305 h -0.967937 z m 1.935873,0 h 0.967937 v 0.32305 h -0.967937 z m 1.935874,0 h 0.967936 v 0.32305 h -0.967936 z m 1.935873,0 h 0.967937 v 0.32305 h -0.967937 z m 1.935874,0 h 0.967936 v 0.32305 H 44.90146 Z m 1.935873,0 h 0.967937 v 0.32305 h -0.967937 z m 1.935874,0 h 0.967936 v 0.32305 h -0.967936 z m 1.935873,0 h 0.967937 v 0.32305 H 50.70908 Z m 1.935873,0 h 0.967937 v 0.32305 h -0.967937 z m 1.935874,0 h 0.967937 v 0.32305 h -0.967937 z m 1.935873,0 h 0.967937 v 0.32305 H 56.5167 Z m 1.935874,0 h 0.967936 v 0.32305 h -0.967936 z m 1.935873,0 h 0.967937 v 0.32305 h -0.967937 z m 1.935874,0 h 0.967936 v 0.32305 h -0.967936 z m 1.935873,0 h 0.967938 v 0.32305 h -0.967938 z m 1.935873,0 h 0.967938 v 0.32305 h -0.967938 z m 1.935874,0 h 0.967938 v 0.32305 h -0.967938 z m 1.935873,0 h 0.967938 v 0.32305 h -0.967938 z m 1.935874,0 h 0.967937 v 0.32305 h -0.967937 z m 1.935873,0 h 0.967938 v 0.32305 h -0.967938 z m 1.935874,0 h 0.967936 v 0.32305 h -0.967936 z m 1.935873,0 h 0.967937 v 0.32305 h -0.967937 z m 1.935874,0 h 0.967936 v 0.32305 h -0.967936 z m 1.935873,0 h 0.967937 v 0.32305 h -0.967937 z m 1.935873,0 h 0.967937 v 0.32305 h -0.967937 z m 1.935874,0 h 0.967937 v 0.32305 h -0.967937 z m 1.935873,0 h 0.967937 v 0.32305 h -0.967937 z m 1.935874,0 h 0.967936 v 0.32305 h -0.967936 z m 1.935873,0 h 0.967937 v 0.32305 h -0.967937 z m 1.935874,0 h 0.967936 v 0.32305 h -0.967936 z m 1.935873,0 h 0.967937 v 0.32305 h -0.967937 z m 1.935879,0 v 0.32305 z m -69.691449,0 h 0.967936 v 0.32305 h -0.967936 z"
       id="path8780"
       style="stroke-width:0.120992" />
    <line
       fill="none"
       stroke-width="0.322646"
       stroke-linejoin="round"
       stroke="#000000"
       stroke-opacity="1"
       x1="46.792233"
       y1="212.49057"
       x2="46.792233"
       y2="282.18198"
       id="line8782" />
    <path
       fill="#000000"
       fill-opacity="1"
       stroke-linejoin="round"
       d="m 29.369371,258.79853 h 0.967937 v 0.32305 h -0.967937 z m 1.935874,0 h 0.967936 v 0.32305 h -0.967936 z m 1.935873,0 h 0.967937 v 0.32305 h -0.967937 z m 1.935873,0 h 0.967937 v 0.32305 h -0.967937 z m 1.935874,0 h 0.967937 v 0.32305 h -0.967937 z m 1.935873,0 h 0.967937 v 0.32305 h -0.967937 z m 1.935874,0 h 0.967936 v 0.32305 h -0.967936 z m 1.935873,0 h 0.967937 v 0.32305 h -0.967937 z m 1.935874,0 h 0.967936 v 0.32305 h -0.967936 z m 1.935873,0 h 0.967937 v 0.32305 h -0.967937 z m 1.935874,0 h 0.967936 v 0.32305 h -0.967936 z m 1.935873,0 h 0.967937 v 0.32305 h -0.967937 z m 1.935873,0 h 0.967937 v 0.32305 h -0.967937 z m 1.935874,0 h 0.967937 v 0.32305 h -0.967937 z m 1.935873,0 h 0.967937 v 0.32305 h -0.967937 z m 1.935874,0 h 0.967936 v 0.32305 h -0.967936 z m 1.935873,0 h 0.967937 v 0.32305 h -0.967937 z m 1.935874,0 h 0.967936 v 0.32305 H 62.27922 Z m 1.935873,0 h 0.967937 v 0.32305 h -0.967937 z m 1.935873,0 h 0.967937 v 0.32305 h -0.967937 z m 1.935874,0 h 0.967937 v 0.32305 H 68.08684 Z m 1.935873,0 h 0.967937 v 0.32305 h -0.967937 z m 1.935874,0 h 0.967937 v 0.32305 h -0.967937 z m 1.935873,0 h 0.967937 v 0.32305 H 73.89446 Z m 1.935874,0 h 0.967936 v 0.32305 h -0.967936 z m 1.935873,0 h 0.967937 v 0.32305 h -0.967937 z m 1.935874,0 h 0.967936 v 0.32305 h -0.967936 z m 1.935873,0 h 0.967937 v 0.32305 h -0.967937 z m 1.935873,0 h 0.967937 v 0.32305 h -0.967937 z m 1.935874,0 h 0.967937 v 0.32305 h -0.967937 z m 1.935873,0 h 0.967937 v 0.32305 h -0.967937 z m 1.935874,0 h 0.967936 v 0.32305 h -0.967936 z m 1.935873,0 h 0.967937 v 0.32305 h -0.967937 z m 1.935874,0 h 0.967936 v 0.32305 h -0.967936 z m 1.935873,0 h 0.967937 v 0.32305 h -0.967937 z m 1.935879,0 v 0.32305 z m -69.691449,0 h 0.967936 v 0.32305 h -0.967936 z"
       id="path8786"
       style="stroke-width:0.120992" />
    <text
       xml:space="preserve"
       id="text8790"
       x="20.606941"
       y="236.97495"
       style="font-size:1.45191px;stroke-width:0.120992">			 <tspan
   style="font-size:3.22646px;font-family:'メイリオ'"
   letter-spacing="0em"
   fill="#000000"
   fill-opacity="1"
   stroke-width="0.0241984"
   stroke-linejoin="round"
   id="tspan8788">r0</tspan>		</text>
    <text
       xml:space="preserve"
       id="text8794"
       x="20.606941"
       y="260.20544"
       style="font-size:1.45191px;stroke-width:0.120992">			 <tspan
   style="font-size:3.22646px;font-family:'メイリオ'"
   letter-spacing="0em"
   fill="#000000"
   fill-opacity="1"
   stroke-width="0.0241984"
   stroke-linejoin="round"
   id="tspan8792">r1</tspan>		</text>
    <text
       xml:space="preserve"
       id="text8798"
       x="42.416115"
       y="211.4908"
       style="font-size:1.45191px;stroke-width:0.120992">			 <tspan
   style="font-size:3.22646px;font-family:'メイリオ'"
   letter-spacing="0em"
   fill="#000000"
   fill-opacity="1"
   stroke-width="0.0241984"
   stroke-linejoin="round"
   id="tspan8796">c0</tspan>		</text>
    <text
       xml:space="preserve"
       id="text8802"
       x="61.774849"
       y="211.4908"
       style="font-size:1.45191px;stroke-width:0.120992">			 <tspan
   style="font-size:3.22646px;font-family:'メイリオ'"
   letter-spacing="0em"
   fill="#000000"
   fill-opacity="1"
   stroke-width="0.0241984"
   stroke-linejoin="round"
   id="tspan8800">c1</tspan>		</text>
    <line
       fill="none"
       stroke-width="0.322646"
       stroke-linejoin="round"
       stroke="#000000"
       stroke-opacity="1"
       x1="66.15097"
       y1="212.48131"
       x2="66.15097"
       y2="282.17276"
       id="line8808" />
    <path
       fill="#ffffff"
       fill-opacity="1"
       stroke-width="0.0241984"
       stroke-linejoin="round"
       d="m 46.792135,231.84929 c 2.14156,0 3.871747,1.73261 3.871747,3.87175 0,2.13793 -1.730187,3.87174 -3.871747,3.87174 -2.129461,0 -3.871747,-1.73381 -3.871747,-3.87174 0,-2.13914 1.742286,-3.87175 3.871747,-3.87175 z"
       id="path8810" />
    <path
       fill="#ffffff"
       fill-opacity="1"
       stroke-width="0.0241984"
       stroke-linejoin="round"
       d="m 46.792135,255.07977 c 2.14156,0 3.871747,1.73261 3.871747,3.87175 0,2.13793 -1.730187,3.87174 -3.871747,3.87174 -2.129461,0 -3.871747,-1.73381 -3.871747,-3.87174 0,-2.13914 1.742286,-3.87175 3.871747,-3.87175 z"
       id="path8812" />
    <path
       fill="#ffffff"
       fill-opacity="1"
       stroke-width="0.0241984"
       stroke-linejoin="round"
       d="m 66.150869,231.84929 c 2.14156,0 3.871747,1.73261 3.871747,3.87175 0,2.13793 -1.730187,3.87174 -3.871747,3.87174 -2.12946,0 -3.871746,-1.73381 -3.871746,-3.87174 0,-2.13914 1.742286,-3.87175 3.871746,-3.87175 z"
       id="path8814" />
    <path
       fill="#ffffff"
       fill-opacity="1"
       stroke-width="0.0241984"
       stroke-linejoin="round"
       d="m 66.150869,255.07977 c 2.14156,0 3.871747,1.73261 3.871747,3.87175 0,2.13793 -1.730187,3.87174 -3.871747,3.87174 -2.12946,0 -3.871746,-1.73381 -3.871746,-3.87174 0,-2.13914 1.742286,-3.87175 3.871746,-3.87175 z"
       id="path8816" />
    <text
       xml:space="preserve"
       id="text8820"
       x="42.658096"
       y="237.6557"
       style="font-size:1.45191px;stroke-width:0.120992">			 <tspan
   style="font-size:4.83968px;font-family:'メイリオ'"
   letter-spacing="0em"
   fill="#000000"
   fill-opacity="1"
   stroke-width="0.0241984"
   stroke-linejoin="round"
   id="tspan8818">X</tspan>		</text>
    <text
       xml:space="preserve"
       id="text8824"
       x="62.016838"
       y="237.6557"
       style="font-size:1.45191px;stroke-width:0.120992">			 <tspan
   style="font-size:4.83968px;font-family:'メイリオ'"
   letter-spacing="0em"
   fill="#000000"
   fill-opacity="1"
   stroke-width="0.0241984"
   stroke-linejoin="round"
   id="tspan8822">X</tspan>		</text>
    <path
       fill="#ffffff"
       fill-opacity="1"
       stroke-width="0.322646"
       stroke-linejoin="round"
       stroke="#000000"
       stroke-opacity="1"
       d="m 83.743119,220.96 c 2.129461,0 3.871747,1.73261 3.871747,3.87175 0,2.13793 -1.742286,3.87174 -3.871747,3.87174 -2.14156,0 -3.871747,-1.73381 -3.871747,-3.87174 0,-2.13914 1.730187,-3.87175 3.871747,-3.87175 z"
       id="path8826" />
    <text
       xml:space="preserve"
       id="text8830"
       x="79.439697"
       y="226.64542"
       style="font-size:1.45191px;stroke-width:0.120992">			 <tspan
   style="font-size:4.83968px;font-family:'メイリオ'"
   letter-spacing="0em"
   fill="#000000"
   fill-opacity="1"
   stroke-width="0.0241984"
   stroke-linejoin="round"
   id="tspan8828">X</tspan>		</text>
    <text
       xml:space="preserve"
       id="text8834"
       x="42.658096"
       y="260.88617"
       style="font-size:1.45191px;stroke-width:0.120992">			 <tspan
   style="font-size:4.83968px;font-family:'メイリオ'"
   letter-spacing="0em"
   fill="#000000"
   fill-opacity="1"
   stroke-width="0.0241984"
   stroke-linejoin="round"
   id="tspan8832">X</tspan>		</text>
    <text
       xml:space="preserve"
       id="text8838"
       x="62.016838"
       y="260.88617"
       style="font-size:1.45191px;stroke-width:0.120992">			 <tspan
   style="font-size:4.83968px;font-family:'メイリオ'"
   letter-spacing="0em"
   fill="#000000"
   fill-opacity="1"
   stroke-width="0.0241984"
   stroke-linejoin="round"
   id="tspan8836">X</tspan>		</text>
    <rect
       x="112.61193"
       y="212.49057"
       fill="none"
       stroke-width="0.322646"
       stroke-linejoin="round"
       stroke="#000000"
       stroke-opacity="1"
       width="69.691444"
       height="69.691444"
       id="rect8840" />
    <path
       fill="#000000"
       fill-opacity="1"
       stroke-linejoin="round"
       d="m 114.54771,235.72103 h 0.96794 v 0.32305 h -0.96794 z m 1.93587,0 h 0.96794 v 0.32305 h -0.96794 z m 1.93588,0 h 0.96793 v 0.32305 h -0.96793 z m 1.93587,0 h 0.96794 v 0.32305 h -0.96794 z m 1.93587,0 h 0.96794 v 0.32305 h -0.96794 z m 1.93588,0 h 0.96793 v 0.32305 h -0.96793 z m 1.93587,0 h 0.96794 v 0.32305 h -0.96794 z m 1.93587,0 h 0.96794 v 0.32305 h -0.96794 z m 1.93588,0 h 0.96793 v 0.32305 h -0.96793 z m 1.93587,0 h 0.96794 v 0.32305 h -0.96794 z m 1.93587,0 h 0.96794 v 0.32305 h -0.96794 z m 1.93588,0 h 0.96794 v 0.32305 h -0.96794 z m 1.93587,0 h 0.96794 v 0.32305 h -0.96794 z m 1.93588,0 h 0.96793 v 0.32305 h -0.96793 z m 1.93587,0 h 0.96794 v 0.32305 h -0.96794 z m 1.93587,0 h 0.96794 v 0.32305 h -0.96794 z m 1.93588,0 h 0.96793 v 0.32305 h -0.96793 z m 1.93587,0 h 0.96794 v 0.32305 h -0.96794 z m 1.93587,0 h 0.96794 v 0.32305 h -0.96794 z m 1.93588,0 h 0.96793 v 0.32305 h -0.96793 z m 1.93587,0 h 0.96794 v 0.32305 h -0.96794 z m 1.93587,0 h 0.96794 v 0.32305 h -0.96794 z m 1.93588,0 h 0.96793 v 0.32305 h -0.96793 z m 1.93587,0 h 0.96794 v 0.32305 h -0.96794 z m 1.93587,0 h 0.96794 v 0.32305 h -0.96794 z m 1.93588,0 h 0.96793 v 0.32305 h -0.96793 z m 1.93587,0 h 0.96794 v 0.32305 h -0.96794 z m 1.93587,0 h 0.96794 v 0.32305 h -0.96794 z m 1.93588,0 h 0.96793 v 0.32305 h -0.96793 z m 1.93587,0 h 0.96794 v 0.32305 h -0.96794 z m 1.93587,0 h 0.96794 v 0.32305 h -0.96794 z m 1.93588,0 h 0.96793 v 0.32305 h -0.96793 z m 1.93587,0 h 0.96794 v 0.32305 h -0.96794 z m 1.93587,0 h 0.96794 v 0.32305 h -0.96794 z m 1.93588,0 h 0.96793 v 0.32305 h -0.96793 z m 1.93587,0 v 0.32305 z m -69.69144,0 h 0.96793 v 0.32305 h -0.96793 z"
       id="path8844"
       style="stroke-width:0.120992" />
    <line
       fill="none"
       stroke-width="0.322646"
       stroke-linejoin="round"
       stroke="#000000"
       stroke-opacity="1"
       x1="131.97066"
       y1="212.49057"
       x2="131.97066"
       y2="282.18198"
       id="line8846" />
    <path
       fill="#000000"
       fill-opacity="1"
       stroke-linejoin="round"
       d="m 114.54771,258.95152 h 0.96794 v 0.32305 h -0.96794 z m 1.93587,0 h 0.96794 v 0.32305 h -0.96794 z m 1.93588,0 h 0.96793 v 0.32305 h -0.96793 z m 1.93587,0 h 0.96794 v 0.32305 h -0.96794 z m 1.93587,0 h 0.96794 v 0.32305 h -0.96794 z m 1.93588,0 h 0.96793 v 0.32305 h -0.96793 z m 1.93587,0 h 0.96794 v 0.32305 h -0.96794 z m 1.93587,0 h 0.96794 v 0.32305 h -0.96794 z m 1.93588,0 h 0.96793 v 0.32305 h -0.96793 z m 1.93587,0 h 0.96794 v 0.32305 h -0.96794 z m 1.93587,0 h 0.96794 v 0.32305 h -0.96794 z m 1.93588,0 h 0.96794 v 0.32305 h -0.96794 z m 1.93587,0 h 0.96794 v 0.32305 h -0.96794 z m 1.93588,0 h 0.96793 v 0.32305 h -0.96793 z m 1.93587,0 h 0.96794 v 0.32305 h -0.96794 z m 1.93587,0 h 0.96794 v 0.32305 h -0.96794 z m 1.93588,0 h 0.96793 v 0.32305 h -0.96793 z m 1.93587,0 h 0.96794 v 0.32305 h -0.96794 z m 1.93587,0 h 0.96794 v 0.32305 h -0.96794 z m 1.93588,0 h 0.96793 v 0.32305 h -0.96793 z m 1.93587,0 h 0.96794 v 0.32305 h -0.96794 z m 1.93587,0 h 0.96794 v 0.32305 h -0.96794 z m 1.93588,0 h 0.96793 v 0.32305 h -0.96793 z m 1.93587,0 h 0.96794 v 0.32305 h -0.96794 z m 1.93587,0 h 0.96794 v 0.32305 h -0.96794 z m 1.93588,0 h 0.96793 v 0.32305 h -0.96793 z m 1.93587,0 h 0.96794 v 0.32305 h -0.96794 z m 1.93587,0 h 0.96794 v 0.32305 h -0.96794 z m 1.93588,0 h 0.96793 v 0.32305 h -0.96793 z m 1.93587,0 h 0.96794 v 0.32305 h -0.96794 z m 1.93587,0 h 0.96794 v 0.32305 h -0.96794 z m 1.93588,0 h 0.96793 v 0.32305 h -0.96793 z m 1.93587,0 h 0.96794 v 0.32305 h -0.96794 z m 1.93587,0 h 0.96794 v 0.32305 h -0.96794 z m 1.93588,0 h 0.96793 v 0.32305 h -0.96793 z m 1.93587,0 v 0.32305 z m -69.69144,0 h 0.96793 v 0.32305 h -0.96793 z"
       id="path8850"
       style="stroke-width:0.120992" />
    <text
       xml:space="preserve"
       id="text8854"
       x="105.78539"
       y="236.97495"
       style="font-size:1.45191px;stroke-width:0.120992">			 <tspan
   style="font-size:3.22646px;font-family:'メイリオ'"
   letter-spacing="0em"
   fill="#000000"
   fill-opacity="1"
   stroke-width="0.0241984"
   stroke-linejoin="round"
   id="tspan8852">r0</tspan>		</text>
    <text
       xml:space="preserve"
       id="text8858"
       x="105.78539"
       y="260.20544"
       style="font-size:1.45191px;stroke-width:0.120992">			 <tspan
   style="font-size:3.22646px;font-family:'メイリオ'"
   letter-spacing="0em"
   fill="#000000"
   fill-opacity="1"
   stroke-width="0.0241984"
   stroke-linejoin="round"
   id="tspan8856">r1</tspan>		</text>
    <text
       xml:space="preserve"
       id="text8862"
       x="127.0654"
       y="211.4908"
       style="font-size:1.45191px;stroke-width:0.120992">			 <tspan
   style="font-size:3.22646px;font-family:'メイリオ'"
   letter-spacing="0em"
   fill="#000000"
   fill-opacity="1"
   stroke-width="0.0241984"
   stroke-linejoin="round"
   id="tspan8860">c0</tspan>		</text>
    <text
       xml:space="preserve"
       id="text8866"
       x="146.42415"
       y="211.4908"
       style="font-size:1.45191px;stroke-width:0.120992">			 <tspan
   style="font-size:3.22646px;font-family:'メイリオ'"
   letter-spacing="0em"
   fill="#000000"
   fill-opacity="1"
   stroke-width="0.0241984"
   stroke-linejoin="round"
   id="tspan8864">c1</tspan>		</text>
    <line
       fill="none"
       stroke-width="0.322646"
       stroke-linejoin="round"
       stroke="#000000"
       stroke-opacity="1"
       x1="151.32939"
       y1="212.48131"
       x2="151.32939"
       y2="282.17276"
       id="line8872" />
    <path
       fill="#ffffff"
       fill-opacity="1"
       stroke-width="0.0241984"
       stroke-linejoin="round"
       d="m 131.97057,231.84929 c 2.14156,0 3.87175,1.73261 3.87175,3.87175 0,2.13793 -1.73019,3.87174 -3.87175,3.87174 -2.12946,0 -3.87175,-1.73381 -3.87175,-3.87174 0,-2.13914 1.74229,-3.87175 3.87175,-3.87175 z"
       id="path8874" />
    <path
       fill="#ffffff"
       fill-opacity="1"
       stroke-width="0.0241984"
       stroke-linejoin="round"
       d="m 131.97057,255.07977 c 2.14156,0 3.87175,1.73261 3.87175,3.87175 0,2.13793 -1.73019,3.87174 -3.87175,3.87174 -2.12946,0 -3.87175,-1.73381 -3.87175,-3.87174 0,-2.13914 1.74229,-3.87175 3.87175,-3.87175 z"
       id="path8876" />
    <path
       fill="#ffffff"
       fill-opacity="1"
       stroke-width="0.0241984"
       stroke-linejoin="round"
       d="m 151.32931,231.84929 c 2.14156,0 3.87174,1.73261 3.87174,3.87175 0,2.13793 -1.73018,3.87174 -3.87174,3.87174 -2.12946,0 -3.87175,-1.73381 -3.87175,-3.87174 0,-2.13914 1.74229,-3.87175 3.87175,-3.87175 z"
       id="path8878" />
    <path
       fill="#ffffff"
       fill-opacity="1"
       stroke-width="0.0241984"
       stroke-linejoin="round"
       d="m 151.32931,255.07977 c 2.14156,0 3.87174,1.73261 3.87174,3.87175 0,2.13793 -1.73018,3.87174 -3.87174,3.87174 -2.12946,0 -3.87175,-1.73381 -3.87175,-3.87174 0,-2.13914 1.74229,-3.87175 3.87175,-3.87175 z"
       id="path8880" />
    <text
       xml:space="preserve"
       id="text8884"
       x="127.83656"
       y="237.6557"
       style="font-size:1.45191px;stroke-width:0.120992">			 <tspan
   style="font-size:4.83968px;font-family:'メイリオ'"
   letter-spacing="0em"
   fill="#000000"
   fill-opacity="1"
   stroke-width="0.0241984"
   stroke-linejoin="round"
   id="tspan8882">X</tspan>		</text>
    <text
       xml:space="preserve"
       id="text8888"
       x="146.99513"
       y="237.6557"
       style="font-size:1.45191px;stroke-width:0.120992">			 <tspan
   style="font-size:4.83968px;font-family:'メイリオ'"
   letter-spacing="0em"
   fill="#000000"
   fill-opacity="1"
   stroke-width="0.0241984"
   stroke-linejoin="round"
   id="tspan8886">X</tspan>		</text>
    <path
       fill="#ffffff"
       fill-opacity="1"
       stroke-width="0.322646"
       stroke-linejoin="round"
       stroke="#000000"
       stroke-opacity="1"
       d="m 166.659,243.46453 c 2.14156,0 4.47671,1.73382 4.47671,3.87175 0,2.13793 -2.33515,3.87174 -4.47671,3.87174 -2.14156,0 -3.87174,-1.73381 -3.87174,-3.87174 0,-2.13914 1.73018,-3.87175 3.87174,-3.87175 z"
       id="path8890" />
    <text
       xml:space="preserve"
       id="text8894"
       x="162.56129"
       y="249.27095"
       style="font-size:1.45191px;stroke-width:0.120992">			 <tspan
   style="font-size:4.83968px;font-family:'メイリオ'"
   letter-spacing="0em"
   fill="#000000"
   fill-opacity="1"
   stroke-width="0.0241984"
   stroke-linejoin="round"
   id="tspan8892">X</tspan>		</text>
    <text
       xml:space="preserve"
       id="text8898"
       x="127.3074"
       y="260.88617"
       style="font-size:1.45191px;stroke-width:0.120992">			 <tspan
   style="font-size:4.83968px;font-family:'メイリオ'"
   letter-spacing="0em"
   fill="#000000"
   fill-opacity="1"
   stroke-width="0.0241984"
   stroke-linejoin="round"
   id="tspan8896">X</tspan>		</text>
    <text
       xml:space="preserve"
       id="text8902"
       x="146.96614"
       y="260.98624"
       style="font-size:1.45191px;stroke-width:0.120992">			 <tspan
   style="font-size:4.83968px;font-family:'メイリオ'"
   letter-spacing="0em"
   fill="#000000"
   fill-opacity="1"
   stroke-width="0.0241984"
   stroke-linejoin="round"
   id="tspan8900">X</tspan>		</text>
    <rect
       x="147.45764"
       y="218.29817"
       fill="#ffffff"
       fill-opacity="1"
       stroke-width="0.322646"
       stroke-linejoin="round"
       stroke="#000000"
       stroke-opacity="1"
       width="7.7434936"
       height="7.7434936"
       id="rect8904" />
    <text
       xml:space="preserve"
       id="text8908"
       x="147.25313"
       y="223.86261"
       style="font-size:1.45191px;stroke-width:0.120992">			 <tspan
   style="font-size:4.83968px;font-family:'メイリオ'"
   letter-spacing="0em"
   fill="#000000"
   fill-opacity="1"
   stroke-width="0.0241984"
   stroke-linejoin="round"
   id="tspan8906">X</tspan>		</text>
    <text
       xml:space="preserve"
       id="text8912"
       x="54.499332"
       y="288.71436"
       style="font-size:1.45191px;stroke-width:0.120992">			 <tspan
   style="font-size:5.80762px;font-family:'メイリオ'"
   letter-spacing="0em"
   fill="#000000"
   fill-opacity="1"
   stroke-width="0.0241984"
   stroke-linejoin="round"
   id="tspan8910">Fish</tspan>		</text>
    <text
       xml:space="preserve"
       id="text8916"
       x="128.06252"
       y="288.71436"
       style="font-size:1.45191px;stroke-width:0.120992">			 <tspan
   style="font-size:5.80762px;font-family:'メイリオ'"
   letter-spacing="0em"
   fill="#000000"
   fill-opacity="1"
   stroke-width="0.0241984"
   stroke-linejoin="round"
   id="tspan8914">Finned Fish</tspan>		</text>
    <path
       fill="#ff0000"
       fill-opacity="1"
       stroke-width="0.0241984"
       stroke-linejoin="round"
       d="m 162.94455,233.66417 -7.7435,-7.74349 7.7435,7.74349"
       id="path8918" />
    <path
       fill="none"
       stroke-width="0.322646"
       stroke-linejoin="round"
       stroke="#ff0000"
       stroke-opacity="1"
       d="m 163.54951,249.76459 c 0,0 -3.38778,0.16213 -6.1222,2.42105 -2.74652,2.25771 -4.52511,4.19359 -4.52511,4.19359"
       id="path8920" />
    <path
       fill="none"
       stroke-width="0.322646"
       stroke-linejoin="round"
       stroke="#ff0000"
       stroke-opacity="1"
       d="m 81.758849,227.17899 c 0,0 -4.355715,-0.64609 -7.416815,1.45191 -3.0611,2.09679 -6.291589,5.96854 -6.291589,5.96854"
       id="path8922" />
    <path
       fill="none"
       stroke-width="0.322646"
       stroke-linejoin="round"
       stroke="#ff0000"
       stroke-opacity="1"
       d="m 79.822976,224.27518 -40.810632,-0.16213 v 17.59709 l 6.448878,-5.17483"
       id="path8924" />
    <path
       fill="none"
       stroke-width="0.315622"
       stroke-linejoin="round"
       stroke="#ff0000"
       stroke-opacity="1"
       d="m 166.93902,243.30147 v -21.4659 h -13.07066"
       id="path8926" />
    <path
       fill="none"
       stroke-width="0.335583"
       stroke-linejoin="round"
       stroke="#ff0000"
       stroke-opacity="1"
       d="m 163.01574,247.67503 h -44.52806 l -0.14516,23.21541 11.77012,-9.42598"
       id="path8928" />
    <g
       id="g7365"
       transform="translate(2.3428144,192.2494)">
      <line
         fill="none"
         stroke-width="0.172843"
         stroke-linejoin="round"
         stroke="#000000"
         stroke-opacity="1"
         x1="89.439705"
         y1="78.914467"
         x2="69.439705"
         y2="78.914467"
         id="line7355" />
      <line
         fill="none"
         stroke-width="0.172843"
         stroke-linejoin="round"
         stroke="#000000"
         stroke-opacity="1"
         x1="89.439705"
         y1="86.156197"
         x2="69.439705"
         y2="86.156197"
         id="line7357"
         style="stroke-dasharray:0.518529, 0.518529;stroke-dashoffset:0" />
      <text
         xml:space="preserve"
         id="text7361"
         x="66.622833"
         y="77.82328"
         style="font-style:normal;font-variant:normal;font-weight:normal;font-stretch:normal;font-size:3.175px;font-family:sans-serif;-inkscape-font-specification:'sans-serif, Normal';font-variant-ligatures:normal;font-variant-caps:normal;font-variant-numeric:normal;font-variant-east-asian:normal;stroke-width:0.120124"
         transform="scale(0.99283007,1.0072217)">			 <tspan
   style="font-style:normal;font-variant:normal;font-weight:normal;font-stretch:normal;font-size:3.175px;font-family:sans-serif;-inkscape-font-specification:'sans-serif, Normal';font-variant-ligatures:normal;font-variant-caps:normal;font-variant-numeric:normal;font-variant-east-asian:normal"
   letter-spacing="0em"
   fill="#000000"
   fill-opacity="1"
   stroke-width="0.0240249"
   stroke-linejoin="round"
   id="tspan7359">BaseSet</tspan>		</text>
      <text
         xml:space="preserve"
         id="text7363"
         x="67.510529"
         y="84.846817"
         style="font-style:normal;font-variant:normal;font-weight:normal;font-stretch:normal;font-size:3.175px;font-family:sans-serif;-inkscape-font-specification:'sans-serif, Normal';font-variant-ligatures:normal;font-variant-caps:normal;font-variant-numeric:normal;font-variant-east-asian:normal;stroke-width:0.120124"
         transform="scale(0.99283007,1.0072217)">			CoverSet		</text>
    </g>
  </g>
</svg>
