<?xml version="1.0" encoding="UTF-8" standalone="no"?>
<!-- Created with Inkscape (http://www.inkscape.org/) -->

<svg
   width="160.20906mm"
   height="79.203705mm"
   viewBox="0 0 160.20906 79.203705"
   version="1.1"
   id="svg3415"
   inkscape:version="1.2.2 (732a01da63, 2022-12-09)"
   sodipodi:docname="image38.svg"
   inkscape:export-filename="img38a.svg"
   inkscape:export-xdpi="96"
   inkscape:export-ydpi="96"
   xmlns:inkscape="http://www.inkscape.org/namespaces/inkscape"
   xmlns:sodipodi="http://sodipodi.sourceforge.net/DTD/sodipodi-0.dtd"
   xmlns="http://www.w3.org/2000/svg"
   xmlns:svg="http://www.w3.org/2000/svg">
  <sodipodi:namedview
     id="namedview3417"
     pagecolor="#ffffff"
     bordercolor="#000000"
     borderopacity="0.25"
     inkscape:showpageshadow="2"
     inkscape:pageopacity="0.0"
     inkscape:pagecheckerboard="0"
     inkscape:deskcolor="#d1d1d1"
     inkscape:document-units="mm"
     showgrid="false"
     inkscape:zoom="1.2938725"
     inkscape:cx="578.88239"
     inkscape:cy="443.24306"
     inkscape:window-width="2443"
     inkscape:window-height="1230"
     inkscape:window-x="1214"
     inkscape:window-y="439"
     inkscape:window-maximized="0"
     inkscape:current-layer="layer1" />
  <defs
     id="defs3412" />
  <g
     inkscape:label="Layer 1"
     inkscape:groupmode="layer"
     id="layer1"
     transform="translate(-22.784808,-17.400169)">
    <rect
       x="27.433495"
       y="20.821339"
       fill="#ffffff"
       fill-opacity="1"
       stroke-width="0.322646"
       stroke-linejoin="round"
       stroke="#000000"
       stroke-opacity="1"
       width="69.691444"
       height="69.691444"
       id="rect5916"
       inkscape:export-filename="img38a.png"
       inkscape:export-xdpi="96"
       inkscape:export-ydpi="96" />
    <path
       fill="#000000"
       fill-opacity="1"
       stroke-linejoin="round"
       d="m 29.530692,43.796387 h 0.967937 v 0.32305 h -0.967937 z m 1.935874,0 h 0.967936 v 0.32305 h -0.967936 z m 1.935873,0 h 0.967937 v 0.32305 h -0.967937 z m 1.935873,0 h 0.967937 v 0.32305 h -0.967937 z m 1.935874,0 h 0.967937 v 0.32305 h -0.967937 z m 1.935873,0 h 0.967937 v 0.32305 h -0.967937 z m 1.935874,0 h 0.967936 v 0.32305 h -0.967936 z m 1.935873,0 h 0.967937 v 0.32305 h -0.967937 z m 1.935874,0 h 0.967936 v 0.32305 H 45.01768 Z m 1.935873,0 h 0.967937 v 0.32305 h -0.967937 z m 1.935874,0 h 0.967936 v 0.32305 h -0.967936 z m 1.935873,0 h 0.967937 v 0.32305 H 50.8253 Z m 1.935873,0 h 0.967937 v 0.32305 h -0.967937 z m 1.935874,0 h 0.967937 v 0.32305 h -0.967937 z m 1.935873,0 h 0.967937 v 0.32305 H 56.63292 Z m 1.935874,0 h 0.967936 v 0.32305 h -0.967936 z m 1.935873,0 h 0.967937 v 0.32305 h -0.967937 z m 1.935874,0 h 0.967936 v 0.32305 h -0.967936 z m 1.935873,0 h 0.967937 v 0.32305 h -0.967937 z m 1.935873,0 h 0.967937 v 0.32305 h -0.967937 z m 1.935874,0 h 0.967937 v 0.32305 h -0.967937 z m 1.935873,0 h 0.967937 v 0.32305 h -0.967937 z m 1.935874,0 h 0.967937 v 0.32305 h -0.967937 z m 1.935873,0 h 0.967937 v 0.32305 h -0.967937 z m 1.935874,0 h 0.967936 v 0.32305 h -0.967936 z m 1.935873,0 h 0.967937 v 0.32305 h -0.967937 z m 1.935874,0 h 0.967936 v 0.32305 h -0.967936 z m 1.935873,0 h 0.967937 v 0.32305 h -0.967937 z m 1.935873,0 h 0.967937 v 0.32305 h -0.967937 z m 1.935874,0 h 0.967937 v 0.32305 h -0.967937 z m 1.935873,0 h 0.967937 v 0.32305 h -0.967937 z m 1.935874,0 h 0.967936 v 0.32305 h -0.967936 z m 1.935873,0 h 0.967937 v 0.32305 h -0.967937 z m 1.935874,0 h 0.967936 v 0.32305 h -0.967936 z m 1.935873,0 h 0.967937 v 0.32305 h -0.967937 z m 1.935871,0 v 0.32305 z m -69.691441,0 h 0.967936 v 0.32305 h -0.967936 z"
       id="path5918"
       style="stroke-width:0.120992" />
    <line
       fill="none"
       stroke-width="0.322646"
       stroke-linejoin="round"
       stroke="#000000"
       stroke-opacity="1"
       x1="46.792233"
       y1="20.821339"
       x2="46.792233"
       y2="90.512779"
       id="line5920" />
    <path
       fill="#000000"
       fill-opacity="1"
       stroke-linejoin="round"
       d="m 29.550068,67.282297 h 0.967937 v 0.32305 h -0.967937 z m 1.935874,0 h 0.967936 v 0.32305 h -0.967936 z m 1.935873,0 h 0.967937 v 0.32305 h -0.967937 z m 1.935873,0 h 0.967937 v 0.32305 h -0.967937 z m 1.935874,0 h 0.967937 v 0.32305 h -0.967937 z m 1.935873,0 h 0.967937 v 0.32305 h -0.967937 z m 1.935874,0 h 0.967936 v 0.32305 h -0.967936 z m 1.935873,0 h 0.967937 v 0.32305 h -0.967937 z m 1.935874,0 h 0.967936 v 0.32305 h -0.967936 z m 1.935873,0 h 0.967937 v 0.32305 h -0.967937 z m 1.935874,0 h 0.967936 v 0.32305 h -0.967936 z m 1.935873,0 h 0.967937 v 0.32305 h -0.967937 z m 1.935873,0 h 0.967937 v 0.32305 h -0.967937 z m 1.935874,0 h 0.967937 v 0.32305 h -0.967937 z m 1.935873,0 h 0.967937 v 0.32305 h -0.967937 z m 1.935874,0 h 0.967936 v 0.32305 H 58.58817 Z m 1.935873,0 h 0.967937 v 0.32305 h -0.967937 z m 1.935874,0 h 0.967936 v 0.32305 h -0.967936 z m 1.935873,0 h 0.967937 v 0.32305 H 64.39579 Z m 1.935873,0 H 67.2996 v 0.32305 h -0.967937 z m 1.935874,0 h 0.967937 v 0.32305 h -0.967937 z m 1.935873,0 h 0.967937 v 0.32305 H 70.20341 Z m 1.935874,0 h 0.967937 v 0.32305 h -0.967937 z m 1.935873,0 h 0.967937 v 0.32305 h -0.967937 z m 1.935874,0 h 0.967936 v 0.32305 h -0.967936 z m 1.935873,0 h 0.967937 v 0.32305 h -0.967937 z m 1.935874,0 h 0.967936 v 0.32305 h -0.967936 z m 1.935873,0 h 0.967937 v 0.32305 h -0.967937 z m 1.935873,0 h 0.967937 v 0.32305 h -0.967937 z m 1.935874,0 h 0.967937 v 0.32305 h -0.967937 z m 1.935873,0 h 0.967937 v 0.32305 h -0.967937 z m 1.935874,0 h 0.967936 v 0.32305 h -0.967936 z m 1.935873,0 h 0.967937 v 0.32305 h -0.967937 z m 1.935874,0 h 0.967936 v 0.32305 h -0.967936 z m 1.935873,0 h 0.967937 v 0.32305 h -0.967937 z m 1.935875,0 v 0.32305 z m -69.691445,0 h 0.967936 v 0.32305 h -0.967936 z"
       id="path5922"
       style="stroke-width:0.120992" />
    <text
       xml:space="preserve"
       id="text5926"
       x="20.606941"
       y="45.305737"
       style="font-size:1.45191px;stroke-width:0.120992">			 <tspan
   style="font-size:3.22646px;font-family:'メイリオ'"
   letter-spacing="0em"
   fill="#000000"
   fill-opacity="1"
   stroke-width="0.0241984"
   stroke-linejoin="round"
   id="tspan5924">r0</tspan>		</text>
    <text
       xml:space="preserve"
       id="text5930"
       x="20.606941"
       y="68.536201"
       style="font-size:1.45191px;stroke-width:0.120992">			 <tspan
   style="font-size:3.22646px;font-family:'メイリオ'"
   letter-spacing="0em"
   fill="#000000"
   fill-opacity="1"
   stroke-width="0.0241984"
   stroke-linejoin="round"
   id="tspan5928">r1</tspan>		</text>
    <text
       xml:space="preserve"
       id="text5934"
       x="42.416115"
       y="19.821598"
       style="font-size:1.45191px;stroke-width:0.120992">			 <tspan
   style="font-size:3.22646px;font-family:'メイリオ'"
   letter-spacing="0em"
   fill="#000000"
   fill-opacity="1"
   stroke-width="0.0241984"
   stroke-linejoin="round"
   id="tspan5932">c0</tspan>		</text>
    <text
       xml:space="preserve"
       id="text5938"
       x="61.774845"
       y="19.821598"
       style="font-size:1.45191px;stroke-width:0.120992">			 <tspan
   style="font-size:3.22646px;font-family:'メイリオ'"
   letter-spacing="0em"
   fill="#000000"
   fill-opacity="1"
   stroke-width="0.0241984"
   stroke-linejoin="round"
   id="tspan5936">c1</tspan>		</text>
    <text
       xml:space="preserve"
       id="text5942"
       x="77.261841"
       y="19.821598"
       style="font-size:1.45191px;stroke-width:0.120992">			 <tspan
   style="font-size:3.22646px;font-family:'メイリオ'"
   letter-spacing="0em"
   fill="#000000"
   fill-opacity="1"
   stroke-width="0.0241984"
   stroke-linejoin="round"
   id="tspan5940">cx</tspan>		</text>
    <line
       fill="none"
       stroke-width="0.322646"
       stroke-linejoin="round"
       stroke="#000000"
       stroke-opacity="1"
       x1="66.15097"
       y1="20.812092"
       x2="66.15097"
       y2="90.50354"
       id="line5944" />
    <path
       fill="#ffffff"
       fill-opacity="1"
       stroke-width="0.0217647"
       stroke-linejoin="round"
       d="m 47.002581,40.180067 c 1.732461,0 3.132134,1.73261 3.132134,3.87175 0,2.13793 -1.399673,3.87175 -3.132134,3.87175 -1.722674,0 -3.132134,-1.73382 -3.132134,-3.87175 0,-2.13914 1.40946,-3.87175 3.132134,-3.87175 z"
       id="path5946" />
    <path
       fill="#ffffff"
       fill-opacity="1"
       stroke-width="0.0195465"
       stroke-linejoin="round"
       d="m 46.878221,63.590137 c 1.397322,0 2.526231,1.73261 2.526231,3.87175 0,2.13793 -1.128909,3.87174 -2.526231,3.87174 -1.389427,0 -2.52623,-1.73381 -2.52623,-3.87174 0,-2.13914 1.136803,-3.87175 2.52623,-3.87175 z"
       id="path5948" />
    <path
       fill="#ffffff"
       fill-opacity="1"
       stroke-width="0.0221676"
       stroke-linejoin="round"
       d="m 66.244295,40.180067 c 1.797188,0 3.249154,1.73261 3.249154,3.87175 0,2.13793 -1.451966,3.87175 -3.249154,3.87175 -1.787034,0 -3.249153,-1.73382 -3.249153,-3.87175 0,-2.13914 1.462119,-3.87175 3.249153,-3.87175 z"
       id="path5950" />
    <path
       fill="#ffffff"
       fill-opacity="1"
       stroke-width="0.0204613"
       stroke-linejoin="round"
       d="m 66.196067,63.410557 c 1.531169,0 2.768215,1.7326 2.768215,3.87174 0,2.13793 -1.237046,3.87175 -2.768215,3.87175 -1.522517,0 -2.768214,-1.73382 -2.768214,-3.87175 0,-2.13914 1.245697,-3.87174 2.768214,-3.87174 z"
       id="path5952" />
    <path
       fill="#ffffff"
       fill-opacity="1"
       stroke-width="0.0241984"
       stroke-linejoin="round"
       d="m 81.637857,40.180067 c 2.14156,0 3.871747,1.73261 3.871747,3.87175 0,2.13793 -1.730187,3.87175 -3.871747,3.87175 -2.129461,0 -3.871747,-1.73382 -3.871747,-3.87175 0,-2.13914 1.742286,-3.87175 3.871747,-3.87175 z"
       id="path5954" />
    <path
       fill="#000000"
       fill-opacity="1"
       stroke-linejoin="round"
       d="m 81.681959,22.757207 v 0.96794 h -0.32668 v -0.96794 z m 0,1.93588 v 0.96793 h -0.32668 v -0.96793 z m 0,1.93587 v 0.96794 h -0.32668 v -0.96794 z m 0,1.93587 v 0.96794 h -0.32668 v -0.96794 z m 0,1.93588 v 0.96793 h -0.32668 v -0.96793 z m 0,1.93587 v 0.96794 h -0.32668 v -0.96794 z m 0,1.93587 v 0.96794 h -0.32668 v -0.96794 z m 0,1.93588 v 0.96793 h -0.32668 v -0.96793 z m 0,1.93587 v 0.96794 h -0.32668 v -0.96794 z m 0,1.93587 v 0.96794 h -0.32668 v -0.96794 z m 0,1.93588 v 0.96793 h -0.32668 v -0.96793 z m 0,1.93587 v 0.96794 h -0.32668 v -0.96794 z m 0,1.93587 v 0.96794 h -0.32668 v -0.96794 z m 0,1.93588 v 0.96793 h -0.32668 v -0.96793 z m 0,1.93587 v 0.96794 h -0.32668 v -0.96794 z m 0,1.93587 h -0.32668 z m 0,-30.97397 v 0.96794 h -0.32668 v -0.96794 z"
       id="path6090"
       style="stroke-width:0.120992" />
    <text
       xml:space="preserve"
       id="text5958"
       x="42.658096"
       y="45.986492"
       style="font-size:1.45191px;stroke-width:0.120992">			 <tspan
   style="font-size:4.83968px;font-family:'メイリオ'"
   letter-spacing="0em"
   fill="#000000"
   fill-opacity="1"
   stroke-width="0.0241984"
   stroke-linejoin="round"
   id="tspan5956">X</tspan>		</text>
    <text
       xml:space="preserve"
       id="text5962"
       x="62.016834"
       y="45.986492"
       style="font-size:1.45191px;stroke-width:0.120992">			 <tspan
   style="font-size:4.83968px;font-family:'メイリオ'"
   letter-spacing="0em"
   fill="#000000"
   fill-opacity="1"
   stroke-width="0.0241984"
   stroke-linejoin="round"
   id="tspan5960">X</tspan>		</text>
    <path
       fill="#ffffff"
       fill-opacity="1"
       stroke-width="0.322646"
       stroke-linejoin="round"
       stroke="#000000"
       stroke-opacity="1"
       d="m 81.637857,40.180067 c 2.14156,0 3.871747,1.73261 3.871747,3.87175 0,2.13793 -1.730187,3.87175 -3.871747,3.87175 -2.129461,0 -3.871747,-1.73382 -3.871747,-3.87175 0,-2.13914 1.742286,-3.87175 3.871747,-3.87175 z"
       id="path5964" />
    <text
       xml:space="preserve"
       id="text5968"
       x="77.503822"
       y="45.986492"
       style="font-size:1.45191px;stroke-width:0.120992">			 <tspan
   style="font-size:4.83968px;font-family:'メイリオ'"
   letter-spacing="0em"
   fill="#000000"
   fill-opacity="1"
   stroke-width="0.0241984"
   stroke-linejoin="round"
   id="tspan5966">X</tspan>		</text>
    <text
       xml:space="preserve"
       id="text5972"
       x="42.658096"
       y="69.216957"
       style="font-size:1.45191px;stroke-width:0.120992">			 <tspan
   style="font-size:4.83968px;font-family:'メイリオ'"
   letter-spacing="0em"
   fill="#000000"
   fill-opacity="1"
   stroke-width="0.0241984"
   stroke-linejoin="round"
   id="tspan5970">X</tspan>		</text>
    <text
       xml:space="preserve"
       id="text5976"
       x="62.548283"
       y="68.72068"
       style="font-size:1.4415px;stroke-width:0.120124"
       transform="scale(0.99283007,1.0072217)">			 <tspan
   style="font-size:4.80498px;font-family:'メイリオ'"
   letter-spacing="0em"
   fill="#000000"
   fill-opacity="1"
   stroke-width="0.0240249"
   stroke-linejoin="round"
   id="tspan5974">X</tspan>		</text>
    <rect
       x="112.61193"
       y="20.821339"
       fill="#ffffff"
       fill-opacity="1"
       stroke-width="0.322646"
       stroke-linejoin="round"
       stroke="#000000"
       stroke-opacity="1"
       width="69.691444"
       height="69.691444"
       id="rect5978" />
    <path
       fill="#000000"
       fill-opacity="1"
       stroke-linejoin="round"
       d="m 114.89607,43.890297 h 0.96794 v 0.32305 h -0.96794 z m 1.93587,0 h 0.96794 v 0.32305 h -0.96794 z m 1.93588,0 h 0.96793 v 0.32305 h -0.96793 z m 1.93587,0 h 0.96794 v 0.32305 h -0.96794 z m 1.93587,0 h 0.96794 v 0.32305 h -0.96794 z m 1.93588,0 h 0.96793 v 0.32305 h -0.96793 z m 1.93587,0 h 0.96794 v 0.32305 h -0.96794 z m 1.93587,0 h 0.96794 v 0.32305 h -0.96794 z m 1.93588,0 h 0.96793 v 0.32305 h -0.96793 z m 1.93587,0 h 0.96794 v 0.32305 h -0.96794 z m 1.93587,0 h 0.96794 v 0.32305 h -0.96794 z m 1.93588,0 h 0.96794 v 0.32305 h -0.96794 z m 1.93587,0 h 0.96794 v 0.32305 h -0.96794 z m 1.93588,0 h 0.96793 v 0.32305 h -0.96793 z m 1.93587,0 h 0.96794 v 0.32305 h -0.96794 z m 1.93587,0 h 0.96794 v 0.32305 h -0.96794 z m 1.93588,0 h 0.96793 v 0.32305 h -0.96793 z m 1.93587,0 h 0.96794 v 0.32305 h -0.96794 z m 1.93587,0 h 0.96794 v 0.32305 h -0.96794 z m 1.93588,0 h 0.96793 v 0.32305 h -0.96793 z m 1.93587,0 h 0.96794 v 0.32305 h -0.96794 z m 1.93587,0 h 0.96794 v 0.32305 h -0.96794 z m 1.93588,0 h 0.96793 v 0.32305 h -0.96793 z m 1.93587,0 h 0.96794 v 0.32305 h -0.96794 z m 1.93587,0 h 0.96794 v 0.32305 h -0.96794 z m 1.93588,0 h 0.96793 v 0.32305 h -0.96793 z m 1.93587,0 h 0.96794 v 0.32305 h -0.96794 z m 1.93587,0 h 0.96794 v 0.32305 h -0.96794 z m 1.93588,0 h 0.96793 v 0.32305 h -0.96793 z m 1.93587,0 h 0.96794 v 0.32305 h -0.96794 z m 1.93587,0 h 0.96794 v 0.32305 h -0.96794 z m 1.93588,0 h 0.96793 v 0.32305 h -0.96793 z m 1.93587,0 h 0.96794 v 0.32305 h -0.96794 z m 1.93587,0 h 0.96794 v 0.32305 h -0.96794 z m 1.93588,0 h 0.96793 v 0.32305 h -0.96793 z m 1.93587,0 v 0.32305 z m -69.69144,0 h 0.96793 v 0.32305 h -0.96793 z"
       id="path5980"
       style="stroke-width:0.120992" />
    <line
       fill="none"
       stroke-width="0.322646"
       stroke-linejoin="round"
       stroke="#000000"
       stroke-opacity="1"
       x1="131.97066"
       y1="20.821339"
       x2="131.97066"
       y2="90.512779"
       id="line5982" />
    <path
       fill="#000000"
       fill-opacity="1"
       stroke-linejoin="round"
       d="m 115.2383,67.282297 h 0.96794 v 0.32305 h -0.96794 z m 1.93587,0 h 0.96794 v 0.32305 h -0.96794 z m 1.93588,0 h 0.96793 v 0.32305 h -0.96793 z m 1.93587,0 h 0.96794 v 0.32305 h -0.96794 z m 1.93587,0 h 0.96794 v 0.32305 h -0.96794 z m 1.93588,0 h 0.96793 v 0.32305 h -0.96793 z m 1.93587,0 h 0.96794 v 0.32305 h -0.96794 z m 1.93587,0 h 0.96794 v 0.32305 h -0.96794 z m 1.93588,0 h 0.96793 v 0.32305 h -0.96793 z m 1.93587,0 h 0.96794 v 0.32305 h -0.96794 z m 1.93587,0 h 0.96794 v 0.32305 h -0.96794 z m 1.93588,0 h 0.96794 v 0.32305 h -0.96794 z m 1.93587,0 h 0.96794 v 0.32305 h -0.96794 z m 1.93588,0 h 0.96793 v 0.32305 h -0.96793 z m 1.93587,0 h 0.96794 v 0.32305 h -0.96794 z m 1.93587,0 h 0.96794 v 0.32305 h -0.96794 z m 1.93588,0 h 0.96793 v 0.32305 h -0.96793 z m 1.93587,0 h 0.96794 v 0.32305 h -0.96794 z m 1.93587,0 h 0.96794 v 0.32305 h -0.96794 z m 1.93588,0 h 0.96793 v 0.32305 h -0.96793 z m 1.93587,0 h 0.96794 v 0.32305 h -0.96794 z m 1.93587,0 h 0.96794 v 0.32305 h -0.96794 z m 1.93588,0 h 0.96793 v 0.32305 h -0.96793 z m 1.93587,0 h 0.96794 v 0.32305 h -0.96794 z m 1.93587,0 h 0.96794 v 0.32305 h -0.96794 z m 1.93588,0 h 0.96793 v 0.32305 h -0.96793 z m 1.93587,0 h 0.96794 v 0.32305 h -0.96794 z m 1.93587,0 h 0.96794 v 0.32305 h -0.96794 z m 1.93588,0 h 0.96793 v 0.32305 h -0.96793 z m 1.93587,0 h 0.96794 v 0.32305 h -0.96794 z m 1.93587,0 h 0.96794 v 0.32305 h -0.96794 z m 1.93588,0 h 0.96793 v 0.32305 h -0.96793 z m 1.93587,0 h 0.96794 v 0.32305 h -0.96794 z m 1.93587,0 h 0.96794 v 0.32305 h -0.96794 z m 1.93588,0 h 0.96793 v 0.32305 H 181.058 Z m 1.93587,0 v 0.32305 z m -69.69144,0 h 0.96793 v 0.32305 h -0.96793 z"
       id="path5984"
       style="stroke-width:0.120992" />
    <text
       xml:space="preserve"
       id="text5988"
       x="105.78537"
       y="45.305737"
       style="font-size:1.45191px;stroke-width:0.120992">			 <tspan
   style="font-size:3.22646px;font-family:'メイリオ'"
   letter-spacing="0em"
   fill="#000000"
   fill-opacity="1"
   stroke-width="0.0241984"
   stroke-linejoin="round"
   id="tspan5986">r0</tspan>		</text>
    <text
       xml:space="preserve"
       id="text5992"
       x="105.78537"
       y="68.536201"
       style="font-size:1.45191px;stroke-width:0.120992">			 <tspan
   style="font-size:3.22646px;font-family:'メイリオ'"
   letter-spacing="0em"
   fill="#000000"
   fill-opacity="1"
   stroke-width="0.0241984"
   stroke-linejoin="round"
   id="tspan5990">r1</tspan>		</text>
    <text
       xml:space="preserve"
       id="text5996"
       x="127.59457"
       y="19.82159"
       style="font-size:1.45191px;stroke-width:0.120992">			 <tspan
   style="font-size:3.22646px;font-family:'メイリオ'"
   letter-spacing="0em"
   fill="#000000"
   fill-opacity="1"
   stroke-width="0.0241984"
   stroke-linejoin="round"
   id="tspan5994">c0</tspan>		</text>
    <text
       xml:space="preserve"
       id="text6000"
       x="146.95331"
       y="19.82159"
       style="font-size:1.45191px;stroke-width:0.120992">			 <tspan
   style="font-size:3.22646px;font-family:'メイリオ'"
   letter-spacing="0em"
   fill="#000000"
   fill-opacity="1"
   stroke-width="0.0241984"
   stroke-linejoin="round"
   id="tspan5998">c1</tspan>		</text>
    <text
       xml:space="preserve"
       id="text6004"
       x="166.73451"
       y="27.35932"
       style="font-size:1.45191px;stroke-width:0.120992">			 <tspan
   style="font-size:3.22646px;font-family:'メイリオ'"
   letter-spacing="0em"
   fill="#000000"
   fill-opacity="1"
   stroke-width="0.0241984"
   stroke-linejoin="round"
   id="tspan6002">bx</tspan>		</text>
    <line
       fill="none"
       stroke-width="0.322646"
       stroke-linejoin="round"
       stroke="#000000"
       stroke-opacity="1"
       x1="151.32939"
       y1="20.812092"
       x2="151.32939"
       y2="90.50354"
       id="line6006" />
    <path
       fill="#ffffff"
       fill-opacity="1"
       stroke-width="0.0214886"
       stroke-linejoin="round"
       d="m 131.73082,40.180067 c 1.68878,0 3.05316,1.73261 3.05316,3.87175 0,2.13793 -1.36438,3.87175 -3.05316,3.87175 -1.67923,0 -3.05315,-1.73382 -3.05315,-3.87175 0,-2.13914 1.37392,-3.87175 3.05315,-3.87175 z"
       id="path6010" />
    <path
       fill="#ffffff"
       fill-opacity="1"
       stroke-width="0.018233"
       stroke-linejoin="round"
       d="m 132.05669,63.410557 c 1.21583,0 2.19812,1.7326 2.19812,3.87174 0,2.13793 -0.98229,3.87175 -2.19812,3.87175 -1.20897,0 -2.19812,-1.73382 -2.19812,-3.87175 0,-2.13914 0.98915,-3.87174 2.19812,-3.87174 z"
       id="path6012" />
    <path
       fill="#ffffff"
       fill-opacity="1"
       stroke-width="0.0215114"
       stroke-linejoin="round"
       d="m 151.61224,40.180067 c 1.69237,0 3.05964,1.73261 3.05964,3.87175 0,2.13793 -1.36727,3.87175 -3.05964,3.87175 -1.6828,0 -3.05964,-1.73382 -3.05964,-3.87175 0,-2.13914 1.37684,-3.87175 3.05964,-3.87175 z"
       id="path6014" />
    <path
       fill="#ffffff"
       fill-opacity="1"
       stroke-width="0.0224837"
       stroke-linejoin="round"
       d="m 151.3294,63.410557 c 1.84881,0 3.34248,1.7326 3.34248,3.87174 0,2.13793 -1.49367,3.87175 -3.34248,3.87175 -1.83836,0 -3.34248,-1.73382 -3.34248,-3.87175 0,-2.13914 1.50412,-3.87174 3.34248,-3.87174 z"
       id="path6016" />
    <path
       fill="#ffffff"
       fill-opacity="1"
       stroke-width="0.0241984"
       stroke-linejoin="round"
       d="m 166.81629,40.180067 c 2.14156,0 3.87175,1.73261 3.87175,3.87175 0,2.13793 -1.73019,3.87175 -3.87175,3.87175 -2.12946,0 -3.87174,-1.73382 -3.87174,-3.87175 0,-2.13914 1.74228,-3.87175 3.87174,-3.87175 z"
       id="path6018" />
    <text
       xml:space="preserve"
       id="text6022"
       x="127.83656"
       y="45.986492"
       style="font-size:1.45191px;stroke-width:0.120992">			 <tspan
   style="font-size:4.83968px;font-family:'メイリオ'"
   letter-spacing="0em"
   fill="#000000"
   fill-opacity="1"
   stroke-width="0.0241984"
   stroke-linejoin="round"
   id="tspan6020">X</tspan>		</text>
    <text
       xml:space="preserve"
       id="text6026"
       x="147.1953"
       y="45.986492"
       style="font-size:1.45191px;stroke-width:0.120992">			 <tspan
   style="font-size:4.83968px;font-family:'メイリオ'"
   letter-spacing="0em"
   fill="#000000"
   fill-opacity="1"
   stroke-width="0.0241984"
   stroke-linejoin="round"
   id="tspan6024">X</tspan>		</text>
    <path
       fill="#ffffff"
       fill-opacity="1"
       stroke-width="0.322646"
       stroke-linejoin="round"
       stroke="#000000"
       stroke-opacity="1"
       d="m 166.81629,40.180067 c 2.14156,0 3.87175,1.73261 3.87175,3.87175 0,2.13793 -1.73019,3.87175 -3.87175,3.87175 -2.12946,0 -3.87174,-1.73382 -3.87174,-3.87175 0,-2.13914 1.74228,-3.87175 3.87174,-3.87175 z"
       id="path6028" />
    <text
       xml:space="preserve"
       id="text6032"
       x="162.68228"
       y="45.986492"
       style="font-size:1.45191px;stroke-width:0.120992">			 <tspan
   style="font-size:4.83968px;font-family:'メイリオ'"
   letter-spacing="0em"
   fill="#000000"
   fill-opacity="1"
   stroke-width="0.0241984"
   stroke-linejoin="round"
   id="tspan6030">X</tspan>		</text>
    <text
       xml:space="preserve"
       id="text6036"
       x="127.83656"
       y="69.216957"
       style="font-size:1.45191px;stroke-width:0.120992">			 <tspan
   style="font-size:4.83968px;font-family:'メイリオ'"
   letter-spacing="0em"
   fill="#000000"
   fill-opacity="1"
   stroke-width="0.0241984"
   stroke-linejoin="round"
   id="tspan6034">X</tspan>		</text>
    <text
       xml:space="preserve"
       id="text6040"
       x="147.1953"
       y="69.216957"
       style="font-size:1.45191px;stroke-width:0.120992">			 <tspan
   style="font-size:4.83968px;font-family:'メイリオ'"
   letter-spacing="0em"
   fill="#000000"
   fill-opacity="1"
   stroke-width="0.0241984"
   stroke-linejoin="round"
   id="tspan6038">X</tspan>		</text>
    <rect
       x="147.45764"
       y="26.628956"
       fill="#ffffff"
       fill-opacity="1"
       stroke-width="0.322646"
       stroke-linejoin="round"
       stroke="#000000"
       stroke-opacity="1"
       width="7.7434936"
       height="7.7434936"
       id="rect6042" />
    <text
       xml:space="preserve"
       id="text6046"
       x="146.42415"
       y="32.193386"
       style="font-size:1.45191px;stroke-width:0.120992">				 <tspan
   style="font-size:4.83968px;font-family:'メイリオ'"
   letter-spacing="0em"
   fill="#000000"
   fill-opacity="1"
   stroke-width="0.0241984"
   stroke-linejoin="round"
   id="tspan6044">X</tspan>			</text>
    <text
       xml:space="preserve"
       id="text6050"
       x="51.853497"
       y="96.515968"
       style="font-size:1.45191px;stroke-width:0.120992">			 <tspan
   style="font-size:5.80762px;font-family:'メイリオ'"
   letter-spacing="0em"
   fill="#000000"
   fill-opacity="1"
   stroke-width="0.0241984"
   stroke-linejoin="round"
   id="tspan6048">Fish</tspan>		</text>
    <text
       xml:space="preserve"
       id="text6054"
       x="128.06252"
       y="96.515968"
       style="font-size:1.45191px;stroke-width:0.120992">			 <tspan
   style="font-size:5.80762px;font-family:'メイリオ'"
   letter-spacing="0em"
   fill="#000000"
   fill-opacity="1"
   stroke-width="0.0241984"
   stroke-linejoin="round"
   id="tspan6052">Finned Fish</tspan>		</text>
    <path
       fill="#ff0000"
       fill-opacity="1"
       stroke-width="0.0241984"
       stroke-linejoin="round"
       d="m 162.94455,41.994957 -7.7435,-7.7435 7.7435,7.7435"
       id="path6076" />
    <line
       fill="none"
       stroke-width="0.0241984"
       stroke-linejoin="round"
       x1="155.20114"
       y1="34.251461"
       x2="166.81638"
       y2="41.994946"
       id="line6078" />
    <circle
       style="fill:none;stroke:#0d0200;stroke-width:0.306831;stroke-dasharray:0.920494, 0.920494;stroke-dashoffset:0;stroke-opacity:1;paint-order:fill markers stroke"
       id="path6144"
       cx="157.48534"
       cy="38.372726"
       r="15.824066" />
    <g
       id="g7341">
      <line
         fill="none"
         stroke-width="0.172843"
         stroke-linejoin="round"
         stroke="#000000"
         stroke-opacity="1"
         x1="89.439705"
         y1="78.914467"
         x2="69.439705"
         y2="78.914467"
         id="line7322" />
      <line
         fill="none"
         stroke-width="0.172843"
         stroke-linejoin="round"
         stroke="#000000"
         stroke-opacity="1"
         x1="89.439705"
         y1="86.156197"
         x2="69.439705"
         y2="86.156197"
         id="line7326"
         style="stroke-dasharray:0.518529, 0.518529;stroke-dashoffset:0" />
      <text
         xml:space="preserve"
         id="text7330"
         x="66.622833"
         y="77.82328"
         style="font-style:normal;font-variant:normal;font-weight:normal;font-stretch:normal;font-size:3.175px;font-family:sans-serif;-inkscape-font-specification:'sans-serif, Normal';font-variant-ligatures:normal;font-variant-caps:normal;font-variant-numeric:normal;font-variant-east-asian:normal;stroke-width:0.120124"
         transform="scale(0.99283007,1.0072217)">			 <tspan
   style="font-style:normal;font-variant:normal;font-weight:normal;font-stretch:normal;font-size:3.175px;font-family:sans-serif;-inkscape-font-specification:'sans-serif, Normal';font-variant-ligatures:normal;font-variant-caps:normal;font-variant-numeric:normal;font-variant-east-asian:normal"
   letter-spacing="0em"
   fill="#000000"
   fill-opacity="1"
   stroke-width="0.0240249"
   stroke-linejoin="round"
   id="tspan7328">BaseSet</tspan>		</text>
      <text
         xml:space="preserve"
         id="text7334"
         x="67.510529"
         y="84.846817"
         style="font-style:normal;font-variant:normal;font-weight:normal;font-stretch:normal;font-size:3.175px;font-family:sans-serif;-inkscape-font-specification:'sans-serif, Normal';font-variant-ligatures:normal;font-variant-caps:normal;font-variant-numeric:normal;font-variant-east-asian:normal;stroke-width:0.120124"
         transform="scale(0.99283007,1.0072217)">			CoverSet		</text>
    </g>
  </g>
</svg>
