<?xml version="1.0" encoding="UTF-8" standalone="no"?>
<svg
   version="1.1"
   width="162.80493mm"
   height="151.3423mm"
   viewBox="0 0 615.32573 572.00238"
   enable-background="new 0 0 3735.12 3236.04"
   xml:space="preserve"
   id="svg2268"
   sodipodi:docname="Image60.svg"
   inkscape:version="1.2.2 (732a01da63, 2022-12-09)"
   xmlns:inkscape="http://www.inkscape.org/namespaces/inkscape"
   xmlns:sodipodi="http://sodipodi.sourceforge.net/DTD/sodipodi-0.dtd"
   xmlns="http://www.w3.org/2000/svg"
   xmlns:svg="http://www.w3.org/2000/svg"><defs
   id="defs2272" /><sodipodi:namedview
   id="namedview2270"
   pagecolor="#ffffff"
   bordercolor="#000000"
   borderopacity="0.25"
   inkscape:showpageshadow="2"
   inkscape:pageopacity="0.0"
   inkscape:pagecheckerboard="0"
   inkscape:deskcolor="#d1d1d1"
   showgrid="false"
   inkscape:zoom="0.8553524"
   inkscape:cx="2952.5842"
   inkscape:cy="890.86089"
   inkscape:window-width="1966"
   inkscape:window-height="1513"
   inkscape:window-x="1831"
   inkscape:window-y="270"
   inkscape:window-maximized="0"
   inkscape:current-layer="svg2268"
   inkscape:document-units="mm" />
	
	
	
	
	
	
	
	
	
	
	
	
	
	
	
	
	
	
	
	
	
	
	
	
	
	
	
	
	
	
	
	
	
	
	
	
	
	
	
	
	
	
	
	
	
	
	
	
	
	
	
	
	
	
	
	
	
	
	
	
	
	
	
	
	
	
	
	
	
	
	
	
	
	
	
	
	
	
	
	
	
	
	
	
	
	
	
	
	
	
	
	
	
	
	
	
	
	
	
	
	
	
	
	
	
	
	
	
	
	
	
	
	
	
	
	
	
	
	
	
	
	
	
	
	
	
	
	
	
	
	
	
	
	
	
	
	
	
	
	
	
	
	
	
	
	
	
	
	
	
	
	
	
	
	
	
	
	
	
	
	
	
	
	
	
	
	
	
	
	
	
	
	
	
	
	
	
	
	
	
	
	
	
	
	
	
	
	
	
	
	
	
	
	
	
	
	
	
	
	
	
	
	
	
	
	
	
	
	
	
	
	
	
	
	
	
	
	
	
	
	
	
	
	
	
	
	
	
	
	
	
	
	
	
	
	
	
	
	
	
	
	
	
	
	
	
	
	
	
	
	
	
	
	
	
	
	
	
	
	
	
	
	
	
	
	
	
	
	
	
	
	
	
	
	
	
	
	
	
	
	
	
	
	
	
	
	
	
	
	
	
	
	
	
	
	
	
	
	
	
	
	
	
	
	
	
	
	
	
	
	
	
	
	
	
	
	
	
	
	
	
	
	
	
	
	
	
	
	
	
	
	
	
	
	
	
	
	
	<rect
   x="2.0061486"
   y="103.45226"
   fill="#ffffff"
   fill-opacity="1"
   stroke-width="4.01222"
   stroke-linejoin="round"
   stroke="#000000"
   stroke-opacity="1"
   width="465.58496"
   height="466.54413"
   id="rect2000"
   inkscape:export-filename="BCSet4.png"
   inkscape:export-xdpi="96"
   inkscape:export-ydpi="96" /><path
   fill="#ff0000"
   fill-opacity="1"
   stroke-linejoin="round"
   d="m 40.417143,272.76591 h 16.7176 v 4.0122 h -16.7176 z m 33.4352,0 h 16.7176 v 4.0122 h -16.7176 z m 33.435197,0 h 16.7176 v 4.0122 h -16.7176 z m 33.4352,0 h 16.7176 v 4.0122 h -16.7176 z m 33.4352,0 h 16.7175 v 4.0122 h -16.7175 z m 33.4351,0 h 16.7176 v 4.0122 h -16.7176 z m 33.4352,0 h 16.7176 v 4.0122 h -16.7176 z m 33.4352,0 h 16.7176 v 4.0122 h -16.7176 z m 33.4352,0 h 16.7176 v 4.0122 h -16.7176 z m 33.4352,0 h 16.7176 v 4.0122 h -16.7176 z m 33.4352,0 h 16.7176 v 4.0122 h -16.7176 z m 33.4352,0 h 16.7175 v 4.0122 h -16.7175 z m 33.4351,0 h 16.7176 v 4.0122 h -16.7176 z m -434.657397,0 h 16.7176 v 4.0122 h -16.7176 z"
   id="path2004"
   style="stroke-width:2.0897" /><line
   fill="none"
   stroke-width="4.01222"
   stroke-linejoin="round"
   stroke="#230fd2"
   stroke-opacity="1"
   x1="132.67509"
   y1="104.78972"
   x2="132.67509"
   y2="569.99847"
   id="line2006" /><path
   fill="#ff0000"
   fill-opacity="1"
   stroke-linejoin="round"
   d="m 38.927243,389.05761 h 16.7176 v 4.0123 h -16.7176 z m 33.4352,0 h 16.7176 v 4.0123 h -16.7176 z m 33.435197,0 h 16.7176 v 4.0123 h -16.7176 z m 33.4352,0 h 16.7176 v 4.0123 h -16.7176 z m 33.4352,0 h 16.7176 v 4.0123 h -16.7176 z m 33.4352,0 h 16.7176 v 4.0123 h -16.7176 z m 33.4352,0 h 16.7175 v 4.0123 h -16.7175 z m 33.4351,0 h 16.7176 v 4.0123 h -16.7176 z m 33.4352,0 h 16.7176 v 4.0123 h -16.7176 z m 33.4352,0 h 16.7176 v 4.0123 h -16.7176 z m 33.4352,0 h 16.7176 v 4.0123 h -16.7176 z m 33.4352,0 h 16.7176 v 4.0123 h -16.7176 z m 33.4352,0 h 16.7176 v 4.0123 h -16.7176 z m -434.657397,0 h 16.7175 v 4.0123 h -16.7175 z"
   id="path2010"
   style="stroke-width:2.0897" /><text
   transform="scale(0.96654368,1.0346144)"
   xml:space="preserve"
   id="text2022"
   x="57.320385"
   y="92.742737"
   style="font-style:normal;font-variant:normal;font-weight:normal;font-stretch:normal;font-size:32px;font-family:sans-serif;-inkscape-font-specification:'sans-serif, Normal';font-variant-ligatures:normal;font-variant-caps:normal;font-variant-numeric:normal;font-variant-east-asian:normal;stroke-width:2.01979">			 <tspan
   style="font-style:normal;font-variant:normal;font-weight:normal;font-stretch:normal;font-size:32px;font-family:sans-serif;-inkscape-font-specification:'sans-serif, Normal';font-variant-ligatures:normal;font-variant-caps:normal;font-variant-numeric:normal;font-variant-east-asian:normal"
   letter-spacing="0em"
   fill="#230fd2"
   fill-opacity="1"
   stroke-width="0.403957"
   stroke-linejoin="round"
   stroke="#230fd2"
   stroke-opacity="1"
   id="tspan2020">c0</tspan>		</text><text
   transform="scale(0.96654368,1.0346144)"
   xml:space="preserve"
   id="text2026"
   x="191.36653"
   y="92.742737"
   style="font-style:normal;font-variant:normal;font-weight:normal;font-stretch:normal;font-size:32px;font-family:sans-serif;-inkscape-font-specification:'sans-serif, Normal';font-variant-ligatures:normal;font-variant-caps:normal;font-variant-numeric:normal;font-variant-east-asian:normal;stroke-width:2.01979">			 <tspan
   style="font-style:normal;font-variant:normal;font-weight:normal;font-stretch:normal;font-size:32px;font-family:sans-serif;-inkscape-font-specification:'sans-serif, Normal';font-variant-ligatures:normal;font-variant-caps:normal;font-variant-numeric:normal;font-variant-east-asian:normal"
   letter-spacing="0em"
   fill="#230fd2"
   fill-opacity="1"
   stroke-width="0.403957"
   stroke-linejoin="round"
   stroke="#230fd2"
   stroke-opacity="1"
   id="tspan2024">c1</tspan>		</text><line
   fill="none"
   stroke-width="4.01222"
   stroke-linejoin="round"
   stroke="#230fd2"
   stroke-opacity="1"
   x1="261.98538"
   y1="100.94475"
   x2="261.98538"
   y2="571.00153"
   id="line2028" /><path
   fill="#ffffff"
   fill-opacity="1"
   stroke-width="0.41794"
   stroke-linejoin="round"
   d="m 132.57034,250.46271 c 10.4903,0 18.9954,9.5917 18.9954,21.3985 0,11.8277 -8.5051,21.3985 -18.9954,21.3985 -10.4903,0 -18.9953,-9.5708 -18.9953,-21.3985 0,-11.8068 8.505,-21.3985 18.9953,-21.3985 z"
   id="path2030" /><text
   transform="scale(0.96654368,1.0346144)"
   xml:space="preserve"
   id="text2042"
   x="80.175613"
   y="276.71655"
   style="font-size:24.2374px;stroke-width:2.01979">			 <tspan
   style="font-size:33.4515px;font-family:'メイリオ'"
   letter-spacing="0em"
   fill="#230fd2"
   fill-opacity="1"
   stroke-width="0.403957"
   stroke-linejoin="round"
   stroke="#680e0e"
   stroke-opacity="1"
   id="tspan2040">X</tspan>		</text><g
   id="g9164"
   transform="translate(-3041.552,-803.39399)"><path
     fill="#ffffff"
     fill-opacity="1"
     stroke-width="0.370043"
     stroke-linejoin="round"
     d="m 3173.6642,1170.9425 c 11.0416,0 20,8.9652 20,20.009 0,11.0439 -8.9584,19.991 -20,19.991 -11.0417,0 -20,-8.9471 -20,-19.991 0,-11.0438 8.9583,-20.009 20,-20.009 z"
     id="path2032" /><text
     transform="scale(0.96654368,1.0346144)"
     xml:space="preserve"
     id="text2056"
     x="3237.3557"
     y="1166.4266"
     style="font-size:24.2374px;stroke-width:2.01979">			<tspan
   style="font-size:33.4515px;font-family:'メイリオ'"
   letter-spacing="0em"
   fill="#230fd2"
   fill-opacity="1"
   stroke-width="0.403957"
   stroke-linejoin="round"
   stroke="#680e0e"
   stroke-opacity="1"
   id="tspan2054">X</tspan>		</text></g><text
   transform="scale(0.96654368,1.0346144)"
   xml:space="preserve"
   id="text2064"
   x="-11.065112"
   y="24.581362"
   style="font-size:24.2374px;stroke-width:2.01979">			 <tspan
   style="font-size:32.3166px;font-family:'メイリオ'"
   letter-spacing="0em"
   fill="#230fd2"
   fill-opacity="1"
   stroke-width="0.646325"
   stroke-linejoin="round"
   stroke="#230fd2"
   stroke-opacity="1"
   id="tspan2062">3-BaseSet:C0,c1,r2</tspan>		</text><text
   transform="scale(0.96654368,1.0346144)"
   xml:space="preserve"
   id="text2068"
   x="-8.9030027"
   y="60.131287"
   style="font-size:24.2374px;stroke-width:2.01979">			 <tspan
   style="font-size:32.3166px;font-family:'メイリオ'"
   letter-spacing="0em"
   fill="#ff0000"
   fill-opacity="1"
   stroke-width="0.646325"
   stroke-linejoin="round"
   stroke="#ff0000"
   stroke-opacity="1"
   id="tspan2066">5-CoverSet:r0,r1,c2,b0,b1</tspan>		</text><text
   transform="scale(0.96654367,1.0346144)"
   xml:space="preserve"
   id="text2072"
   x="445.50906"
   y="193.86426"
   style="font-style:normal;font-variant:normal;font-weight:normal;font-stretch:normal;font-size:32px;font-family:sans-serif;-inkscape-font-specification:'sans-serif, Normal';font-variant-ligatures:normal;font-variant-caps:normal;font-variant-numeric:normal;font-variant-east-asian:normal;fill:#002b00;fill-opacity:1;stroke:#006000;stroke-width:2.01979;stroke-opacity:1">			 <tspan
   style="font-style:normal;font-variant:normal;font-weight:normal;font-stretch:normal;font-size:32px;font-family:sans-serif;-inkscape-font-specification:'sans-serif, Normal';font-variant-ligatures:normal;font-variant-caps:normal;font-variant-numeric:normal;font-variant-east-asian:normal;fill:#002b00;fill-opacity:1;stroke:#006000;stroke-opacity:1"
   letter-spacing="0em"
   fill="#000000"
   fill-opacity="1"
   stroke-width="0.646325"
   stroke-linejoin="round"
   stroke="#000000"
   stroke-opacity="1"
   id="tspan2070">not True</tspan>		</text><line
   fill="none"
   stroke-width="4.01222"
   stroke-linejoin="round"
   stroke="#230fd2"
   stroke-opacity="1"
   x1="1.4626914"
   y1="492.74237"
   x2="468.74002"
   y2="492.74237"
   id="line2074" /><path
   fill="#ff0000"
   fill-opacity="1"
   stroke-linejoin="round"
   d="m 368.48874,531.98081 v -16.7176 h 4.0122 v 16.7176 z m 0,-33.4352 v -16.7176 h 4.0122 v 16.7176 z m 0,-33.4352 v -16.7176 h 4.0122 v 16.7176 z m 0,-33.4352 v -16.7176 h 4.0122 v 16.7176 z m 0,-33.4352 v -16.7176 h 4.0122 v 16.7176 z m 0,-33.4352 v -16.7175 h 4.0122 v 16.7175 z m 0,-33.4351 v -16.7176 h 4.0122 v 16.7176 z m 0,-33.4352 v -16.7176 h 4.0122 v 16.7176 z m 0,-33.4352 v -16.7176 h 4.0122 v 16.7176 z m 0,-33.4352 v -16.7176 h 4.0122 v 16.7176 z m 0,-33.4352 v -16.71757 h 4.0122 v 16.71757 z m 0,-33.43513 v -16.7176 h 4.0122 v 16.7176 z m 0,-33.43519 V 114.041 h 4.0122 v 16.71759 z m 0,-33.435194 v -0.89857 h 4.0122 v 0.89857 z m 0,468.092614 v -16.7176 h 4.0122 v 16.7176 z"
   id="path2086"
   style="stroke-width:2.0897" /><text
   transform="scale(0.92735852,1.0783316)"
   xml:space="preserve"
   id="text2092"
   x="329.56949"
   y="265.24844"
   style="font-style:normal;font-variant:normal;font-weight:normal;font-stretch:normal;font-size:32px;font-family:sans-serif;-inkscape-font-specification:'sans-serif, Normal';font-variant-ligatures:normal;font-variant-caps:normal;font-variant-numeric:normal;font-variant-east-asian:normal;stroke-width:1.9379">			 <tspan
   style="font-style:normal;font-variant:normal;font-weight:normal;font-stretch:normal;font-size:32px;font-family:sans-serif;-inkscape-font-specification:'sans-serif, Normal';font-variant-ligatures:normal;font-variant-caps:normal;font-variant-numeric:normal;font-variant-east-asian:normal"
   letter-spacing="0em"
   fill="#ff0000"
   fill-opacity="1"
   stroke-width="1.24026"
   stroke-linejoin="round"
   stroke="#ff0000"
   stroke-opacity="1"
   id="tspan2090">X</tspan>		</text><text
   transform="scale(0.96654368,1.0346144)"
   xml:space="preserve"
   id="text2124"
   x="303.79205"
   y="92.742737"
   style="font-style:normal;font-variant:normal;font-weight:normal;font-stretch:normal;font-size:32px;font-family:sans-serif;-inkscape-font-specification:'sans-serif, Normal';font-variant-ligatures:normal;font-variant-caps:normal;font-variant-numeric:normal;font-variant-east-asian:normal;stroke-width:2.01979">			 <tspan
   style="font-style:normal;font-variant:normal;font-weight:normal;font-stretch:normal;font-size:32px;font-family:sans-serif;-inkscape-font-specification:'sans-serif, Normal';font-variant-ligatures:normal;font-variant-caps:normal;font-variant-numeric:normal;font-variant-east-asian:normal"
   letter-spacing="0em"
   fill="#ff0000"
   fill-opacity="1"
   stroke-width="0.403957"
   stroke-linejoin="round"
   stroke="#ff0000"
   stroke-opacity="1"
   id="tspan2122">c2</tspan>		</text><text
   xml:space="preserve"
   id="text2132"
   x="249.50053"
   y="167.47252"
   style="font-style:normal;font-variant:normal;font-weight:normal;font-stretch:normal;font-size:32px;font-family:sans-serif;-inkscape-font-specification:'sans-serif, Normal';font-variant-ligatures:normal;font-variant-caps:normal;font-variant-numeric:normal;font-variant-east-asian:normal;stroke-width:2.0897">			 <tspan
   style="font-style:normal;font-variant:normal;font-weight:normal;font-stretch:normal;font-size:32px;font-family:sans-serif;-inkscape-font-specification:'sans-serif, Normal';font-variant-ligatures:normal;font-variant-caps:normal;font-variant-numeric:normal;font-variant-east-asian:normal"
   letter-spacing="0em"
   fill="#ff0000"
   fill-opacity="1"
   stroke-width="0.668697"
   stroke-linejoin="round"
   stroke="#ff0000"
   stroke-opacity="1"
   id="tspan2130">b1</tspan>		</text><text
   xml:space="preserve"
   id="text2162"
   x="108.66093"
   y="457.91937"
   style="font-style:normal;font-variant:normal;font-weight:normal;font-stretch:normal;font-size:32px;font-family:sans-serif;-inkscape-font-specification:'sans-serif, Normal';font-variant-ligatures:normal;font-variant-caps:normal;font-variant-numeric:normal;font-variant-east-asian:normal;stroke-width:2.0897">			 <tspan
   style="font-style:normal;font-variant:normal;font-weight:normal;font-stretch:normal;font-size:32px;font-family:sans-serif;-inkscape-font-specification:'sans-serif, Normal';font-variant-ligatures:normal;font-variant-caps:normal;font-variant-numeric:normal;font-variant-east-asian:normal"
   letter-spacing="0em"
   fill="#ff0000"
   fill-opacity="1"
   stroke-width="0.668697"
   stroke-linejoin="round"
   stroke="#ff0000"
   stroke-opacity="1"
   id="tspan2160">b0</tspan>		</text>
	
<g
   id="g7687"
   transform="translate(-3207.687,-805.71139)"><path
     fill="#ffffff"
     fill-opacity="1"
     stroke-linejoin="round"
     stroke="#0096ff"
     stroke-opacity="1"
     d="m 3578.1879,1276.8218 c 12.0158,0 21.7329,9.8843 21.7329,22.0672 0,12.2039 -9.7171,22.0673 -21.7329,22.0673 -11.9948,0 -21.7328,-9.8634 -21.7328,-22.0673 0,-12.1829 9.738,-22.0672 21.7328,-22.0672 z"
     id="path2112"
     style="stroke:none;stroke-width:2.0897" /><text
     transform="scale(0.96654368,1.0346144)"
     xml:space="preserve"
     id="text6920"
     x="3650.5435"
     y="1267.7405"
     style="font-size:24.2374px;stroke-width:2.01979">			 <tspan
   style="font-size:33.4515px;font-family:'メイリオ'"
   letter-spacing="0em"
   fill="#230fd2"
   fill-opacity="1"
   stroke-width="0.403957"
   stroke-linejoin="round"
   stroke="#680e0e"
   stroke-opacity="1"
   id="tspan6918">X</tspan>		</text></g><g
   id="g6948"
   transform="translate(-3458.6246,-806.5224)"><path
     fill="#ffffff"
     fill-opacity="1"
     stroke-width="0.399359"
     stroke-linejoin="round"
     stroke="#680e0e"
     stroke-opacity="1"
     d="m 3643.5686,1275.4392 c 10.8527,0 19.6645,11.0168 19.6645,24.584 0,13.5881 -8.8118,24.584 -19.6645,24.584 -10.8716,0 -19.6834,-10.9959 -19.6834,-24.584 0,-13.5672 8.8118,-24.584 19.6834,-24.584 z"
     id="path2076"
     style="stroke:none" /><text
     transform="scale(0.96654368,1.0346144)"
     xml:space="preserve"
     id="text6924"
     x="3722.1179"
     y="1268.8367"
     style="font-size:24.2374px;stroke-width:2.01979">			<tspan
   style="font-size:33.4515px;font-family:'メイリオ'"
   letter-spacing="0em"
   fill="#230fd2"
   fill-opacity="1"
   stroke-width="0.403957"
   stroke-linejoin="round"
   stroke="#680e0e"
   stroke-opacity="1"
   id="tspan6922">X</tspan>		</text></g><g
   id="g6956"
   transform="translate(-3511.6686,-768.73765)"><path
     fill="#ffffff"
     fill-opacity="1"
     stroke-width="0.399359"
     stroke-linejoin="round"
     stroke="#680e0e"
     stroke-opacity="1"
     d="m 3643.5686,1275.4392 c 10.8527,0 19.6645,11.0168 19.6645,24.584 0,13.5881 -8.8118,24.584 -19.6645,24.584 -10.8716,0 -19.6834,-10.9959 -19.6834,-24.584 0,-13.5672 8.8118,-24.584 19.6834,-24.584 z"
     id="path6950"
     style="stroke:none" /><text
     transform="scale(0.96654368,1.0346144)"
     xml:space="preserve"
     id="text6954"
     x="3722.1179"
     y="1268.8367"
     style="font-size:24.2374px;stroke-width:2.01979">			<tspan
   style="font-size:33.4515px;font-family:'メイリオ'"
   letter-spacing="0em"
   fill="#230fd2"
   fill-opacity="1"
   stroke-width="0.403957"
   stroke-linejoin="round"
   stroke="#680e0e"
   stroke-opacity="1"
   id="tspan6952">X</tspan>		</text></g><g
   id="g7695"
   transform="translate(-3207.687,-805.71139)"><path
     fill="#ffffff"
     fill-opacity="1"
     stroke-linejoin="round"
     stroke="#0096ff"
     stroke-opacity="1"
     d="m 3578.1879,1276.8218 c 12.0158,0 21.7329,9.8843 21.7329,22.0672 0,12.2039 -9.7171,22.0673 -21.7329,22.0673 -11.9948,0 -21.7328,-9.8634 -21.7328,-22.0673 0,-12.1829 9.738,-22.0672 21.7328,-22.0672 z"
     id="path7689"
     style="stroke:none;stroke-width:2.0897" /><text
     transform="scale(0.96654368,1.0346144)"
     xml:space="preserve"
     id="text7693"
     x="3650.5435"
     y="1267.7405"
     style="font-size:24.2374px;stroke-width:2.01979">			 <tspan
   style="font-size:33.4515px;font-family:'メイリオ'"
   letter-spacing="0em"
   fill="#230fd2"
   fill-opacity="1"
   stroke-width="0.403957"
   stroke-linejoin="round"
   stroke="#680e0e"
   stroke-opacity="1"
   id="tspan7691">X</tspan>		</text></g><g
   id="g7703"
   transform="translate(-3320.2087,-1134.5046)"><path
     fill="#ffffff"
     fill-opacity="1"
     stroke-linejoin="round"
     stroke="#0096ff"
     stroke-opacity="1"
     d="m 3578.1879,1276.8218 c 12.0158,0 21.7329,9.8843 21.7329,22.0672 0,12.2039 -9.7171,22.0673 -21.7329,22.0673 -11.9948,0 -21.7328,-9.8634 -21.7328,-22.0673 0,-12.1829 9.738,-22.0672 21.7328,-22.0672 z"
     id="path7697"
     style="stroke:none;stroke-width:2.0897" /><text
     transform="scale(0.96654368,1.0346144)"
     xml:space="preserve"
     id="text7701"
     x="3650.5435"
     y="1267.7405"
     style="font-size:24.2374px;stroke-width:2.01979">			 <tspan
   style="font-size:33.4515px;font-family:'メイリオ'"
   letter-spacing="0em"
   fill="#230fd2"
   fill-opacity="1"
   stroke-width="0.403957"
   stroke-linejoin="round"
   stroke="#680e0e"
   stroke-opacity="1"
   id="tspan7699">X</tspan>		</text></g><rect
   style="fill:none;fill-opacity:1;stroke:#ff0000;stroke-width:3.15269;stroke-linecap:square;stroke-dasharray:12.6108, 12.6108;stroke-dashoffset:0;stroke-opacity:1;paint-order:fill markers stroke"
   id="rect7757"
   width="172.40442"
   height="165.45596"
   x="231.35185"
   y="134.84068" /><rect
   style="fill:none;fill-opacity:1;stroke:#ff0000;stroke-width:2.3822;stroke-linecap:square;stroke-dasharray:9.52877, 9.52877;stroke-dashoffset:0;stroke-opacity:1;paint-order:fill markers stroke"
   id="rect9057"
   width="127.6178"
   height="127.6178"
   x="88.370407"
   y="425.79364" /><g
   id="g9172"
   transform="translate(-2912.3319,-799.88159)"><path
     fill="#ffffff"
     fill-opacity="1"
     stroke-width="0.370043"
     stroke-linejoin="round"
     d="m 3173.6642,1170.9425 c 11.0416,0 20,8.9652 20,20.009 0,11.0439 -8.9584,19.991 -20,19.991 -11.0417,0 -20,-8.9471 -20,-19.991 0,-11.0438 8.9583,-20.009 20,-20.009 z"
     id="path9166" /><text
     transform="scale(0.96654368,1.0346144)"
     xml:space="preserve"
     id="text9170"
     x="3237.3557"
     y="1166.4266"
     style="font-size:24.2374px;stroke-width:2.01979">			<tspan
   style="font-size:33.4515px;font-family:'メイリオ'"
   letter-spacing="0em"
   fill="#230fd2"
   fill-opacity="1"
   stroke-width="0.403957"
   stroke-linejoin="round"
   stroke="#680e0e"
   stroke-opacity="1"
   id="tspan9168">X</tspan>		</text></g><g
   id="g9180"
   transform="translate(-2913.6788,-917.55693)"><path
     fill="#ffffff"
     fill-opacity="1"
     stroke-width="0.370043"
     stroke-linejoin="round"
     d="m 3173.6642,1170.9425 c 11.0416,0 20,8.9652 20,20.009 0,11.0439 -8.9584,19.991 -20,19.991 -11.0417,0 -20,-8.9471 -20,-19.991 0,-11.0438 8.9583,-20.009 20,-20.009 z"
     id="path9174" /><text
     transform="scale(0.96654368,1.0346144)"
     xml:space="preserve"
     id="text9178"
     x="3237.3557"
     y="1166.4266"
     style="font-size:24.2374px;stroke-width:2.01979">			<tspan
   style="font-size:33.4515px;font-family:'メイリオ'"
   letter-spacing="0em"
   fill="#230fd2"
   fill-opacity="1"
   stroke-width="0.403957"
   stroke-linejoin="round"
   stroke="#680e0e"
   stroke-opacity="1"
   id="tspan9176">X</tspan>		</text></g><path
   fill="none"
   stroke-linejoin="round"
   stroke="#ff0000"
   stroke-opacity="1"
   d="m 370.59724,249.11521 c 12.8313,0 23.2239,10.3977 23.2239,23.2231 0,12.827 -10.3926,23.2248 -23.2239,23.2248 -12.8124,0 -23.2238,-10.3978 -23.2238,-23.2248 0,-12.8254 10.4114,-23.2231 23.2238,-23.2231 z"
   id="path1618"
   style="stroke:#006000;stroke-width:2.68614;stroke-dasharray:5.37228, 2.68614;stroke-dashoffset:0;stroke-opacity:1" /><line
   fill="none"
   stroke-width="6.00563"
   stroke-linejoin="round"
   stroke="#000000"
   stroke-opacity="1"
   x1="489.52811"
   y1="207.51079"
   x2="385.6785"
   y2="254.13286"
   id="line1625"
   style="stroke-width:2.24559;stroke-dasharray:none" /></svg>
