<?xml version="1.0" encoding="UTF-8" standalone="no"?>
<svg
   version="1.1"
   width="197.603mm"
   height="141.29202mm"
   viewBox="0 0 746.84598 534.01708"
   enable-background="new 0 0 3735.12 3236.04"
   xml:space="preserve"
   id="svg2268"
   sodipodi:docname="Image60.svg"
   inkscape:version="1.2.2 (732a01da63, 2022-12-09)"
   xmlns:inkscape="http://www.inkscape.org/namespaces/inkscape"
   xmlns:sodipodi="http://sodipodi.sourceforge.net/DTD/sodipodi-0.dtd"
   xmlns="http://www.w3.org/2000/svg"
   xmlns:svg="http://www.w3.org/2000/svg"><defs
   id="defs2272" /><sodipodi:namedview
   id="namedview2270"
   pagecolor="#ffffff"
   bordercolor="#000000"
   borderopacity="0.25"
   inkscape:showpageshadow="2"
   inkscape:pageopacity="0.0"
   inkscape:pagecheckerboard="0"
   inkscape:deskcolor="#d1d1d1"
   showgrid="false"
   inkscape:zoom="0.8553524"
   inkscape:cx="2952.5842"
   inkscape:cy="890.86089"
   inkscape:window-width="1966"
   inkscape:window-height="1513"
   inkscape:window-x="1831"
   inkscape:window-y="270"
   inkscape:window-maximized="0"
   inkscape:current-layer="svg2268"
   inkscape:document-units="mm" />
	
	
	
	
	
	
	
	
	
	
	
	
	
	
	
	
	
	
	
	
	
	
	
	
	
	
	
	
	
	
	
	
	
	
	
	
	
	
	
	
	
	
	
	
	
	
	
	
	
	
	
	
	
	
	
	
	
	
	
	
	
	
	
	
	
	
	
	
	
	
	
	
	
	
	
	
	
	
	
	
	
	
	
	
	
	
	
	
	
	
	
	
	
	
	
	
	
	
	
	
	
	
	
	
	
	
	
	
	
	
	
	
	
	
	
	
	
	
	
	
	
	
	
	
	
	
	
	
	
	
	
	
	
	
	
	
	
	
	
	
	
	
	
	
	
	
	
	
	
	
	
	
	
	
	
	
	
	
	
	
	
	
	
	
	
	
	
	
	
	
	
	
	
	
	
	
	
	
	
	
	
	
	
	
	
	
	
	
	
	
	
	
	
	
	
	
	
	
	
	
	
	
	
	
	
	
	
	
	
	
	
	
	
	
	
	
	
	
	
	
	
	
	
	
	
	
	
	
	
	
	
	
	
	
	
	
	
	
	
	
	
	
	
	
	
	
	
	
	
	
	
	
	
	
	
	
	
	
	
	
	
	
	
	
	
	
	
	
	
	
	
	
	
	
	
	
	
	
	
	
	
	
	
	
	
	
	
	
	
	
	
	
	
	
	
	
	
	
	
	
	
	
	
	
	
	
	
	
	
	
	
	
	
	
	
	
	
	
	
	
	
	
	
	
	
	
	
	
	
	
	
	
	
	
	
	
	
	
	
	
<rect
   x="49.54493"
   y="63.510975"
   fill="#ffffff"
   fill-opacity="1"
   stroke-width="3.77268"
   stroke-linejoin="round"
   stroke="#000000"
   stroke-opacity="1"
   width="437.78793"
   height="468.61975"
   id="rect1792"
   inkscape:export-filename="BCSet2a.png"
   inkscape:export-xdpi="96"
   inkscape:export-ydpi="96" /><path
   fill="#ff0000"
   fill-opacity="1"
   stroke-linejoin="round"
   d="m 87.903289,220.53136 h 15.719491 v 3.7727 H 87.903289 Z m 31.438991,0 h 15.71949 v 3.7727 h -15.71949 z m 31.43899,0 h 15.71949 v 3.7727 h -15.71949 z m 31.43899,0 h 15.71949 v 3.7727 h -15.71949 z m 31.43899,0 h 15.7195 v 3.7727 h -15.7195 z m 31.43899,0 h 15.7195 v 3.7727 h -15.7195 z m 31.43899,0 h 15.7195 v 3.7727 h -15.7195 z m 31.43899,0 h 15.7195 v 3.7727 h -15.7195 z m 31.43899,0 h 15.7195 v 3.7727 h -15.7195 z m 31.43899,0 h 15.71958 v 3.7727 H 370.8542 Z m 31.43908,0 h 15.7195 v 3.7727 h -15.7195 z m 31.439,0 h 15.7194 v 3.7727 h -15.7194 z m 31.4389,0 h 15.7195 v 3.7727 h -15.7195 z m -408.706881,0 h 15.71949 v 3.7727 h -15.71949 z"
   id="path1796"
   style="stroke-width:1.96494" /><line
   fill="none"
   stroke-width="3.77268"
   stroke-linejoin="round"
   stroke="#230fd2"
   stroke-opacity="1"
   x1="172.41249"
   y1="64.770554"
   x2="172.41249"
   y2="533.39032"
   id="line1798" /><path
   fill="#ff0000"
   fill-opacity="1"
   stroke-linejoin="round"
   d="m 88.556039,329.95316 h 15.719491 v 3.7727 H 88.556039 Z m 31.438991,0 h 15.71949 v 3.7727 h -15.71949 z m 31.43899,0 h 15.71949 v 3.7727 h -15.71949 z m 31.43899,0 h 15.71949 v 3.7727 h -15.71949 z m 31.43899,0 h 15.71949 v 3.7727 H 214.312 Z m 31.43899,0 h 15.71949 v 3.7727 h -15.71949 z m 31.43899,0 h 15.71949 v 3.7727 h -15.71949 z m 31.43899,0 h 15.71949 v 3.7727 h -15.71949 z m 31.43899,0 h 15.7195 v 3.7727 h -15.7195 z m 31.43899,0 h 15.71953 v 3.7727 h -15.71953 z m 31.43903,0 h 15.7195 v 3.7727 h -15.7195 z m 31.439,0 h 15.7195 v 3.7727 h -15.7195 z m 31.439,0 h 15.7195 v 3.7727 h -15.7195 z m -408.706931,0 h 15.71949 v 3.7727 h -15.71949 z"
   id="path1802"
   style="stroke-width:1.96494" /><path
   fill="#ffffff"
   fill-opacity="1"
   stroke-width="0.312319"
   stroke-linejoin="round"
   d="m 170.73275,313.72666 c 11.05008,0 20,8.9542 20,19.9992 0,11.0465 -8.94992,20.0008 -20,20.0008 -11.05008,0 -20,-8.9543 -20,-20.0008 0,-11.045 8.94992,-19.9992 20,-19.9992 z"
   id="path4760" /><text
   transform="scale(0.96654368,1.0346144)"
   xml:space="preserve"
   id="text1806"
   x="-47.999992"
   y="226.30652"
   style="font-style:normal;font-variant:normal;font-weight:normal;font-stretch:normal;font-size:32px;font-family:sans-serif;-inkscape-font-specification:'sans-serif, Normal';font-variant-ligatures:normal;font-variant-caps:normal;font-variant-numeric:normal;font-variant-east-asian:normal;stroke-width:1.8992">			 <tspan
   style="font-style:normal;font-variant:normal;font-weight:normal;font-stretch:normal;font-size:32px;font-family:sans-serif;-inkscape-font-specification:'sans-serif, Normal';font-variant-ligatures:normal;font-variant-caps:normal;font-variant-numeric:normal;font-variant-east-asian:normal"
   letter-spacing="0em"
   fill="#ff0000"
   fill-opacity="1"
   stroke-width="0.379839"
   stroke-linejoin="round"
   id="tspan1804">r0</tspan>		</text><text
   transform="scale(0.96654368,1.0346144)"
   xml:space="preserve"
   id="text1810"
   x="-47.999992"
   y="330.76233"
   style="font-style:normal;font-variant:normal;font-weight:normal;font-stretch:normal;font-size:32px;font-family:sans-serif;-inkscape-font-specification:'sans-serif, Normal';font-variant-ligatures:normal;font-variant-caps:normal;font-variant-numeric:normal;font-variant-east-asian:normal;stroke-width:1.8992">			 <tspan
   style="font-style:normal;font-variant:normal;font-weight:normal;font-stretch:normal;font-size:32px;font-family:sans-serif;-inkscape-font-specification:'sans-serif, Normal';font-variant-ligatures:normal;font-variant-caps:normal;font-variant-numeric:normal;font-variant-east-asian:normal"
   letter-spacing="0em"
   fill="#ff0000"
   fill-opacity="1"
   stroke-width="0.379839"
   stroke-linejoin="round"
   id="tspan1808">r1</tspan>		</text><text
   transform="scale(0.96654368,1.0346144)"
   xml:space="preserve"
   id="text1814"
   x="100.33222"
   y="55.577515"
   style="font-style:normal;font-variant:normal;font-weight:normal;font-stretch:normal;font-size:32px;font-family:sans-serif;-inkscape-font-specification:'sans-serif, Normal';font-variant-ligatures:normal;font-variant-caps:normal;font-variant-numeric:normal;font-variant-east-asian:normal;stroke-width:1.8992">			 <tspan
   style="font-style:normal;font-variant:normal;font-weight:normal;font-stretch:normal;font-size:32px;font-family:sans-serif;-inkscape-font-specification:'sans-serif, Normal';font-variant-ligatures:normal;font-variant-caps:normal;font-variant-numeric:normal;font-variant-east-asian:normal"
   letter-spacing="0em"
   fill="#230fd2"
   fill-opacity="1"
   stroke-width="0.379839"
   stroke-linejoin="round"
   id="tspan1812">c0</tspan>		</text><text
   transform="scale(0.96654368,1.0346144)"
   xml:space="preserve"
   id="text1818"
   x="226.37526"
   y="55.577515"
   style="font-style:normal;font-variant:normal;font-weight:normal;font-stretch:normal;font-size:32px;font-family:sans-serif;-inkscape-font-specification:'sans-serif, Normal';font-variant-ligatures:normal;font-variant-caps:normal;font-variant-numeric:normal;font-variant-east-asian:normal;stroke-width:1.8992">			 <tspan
   style="font-style:normal;font-variant:normal;font-weight:normal;font-stretch:normal;font-size:32px;font-family:sans-serif;-inkscape-font-specification:'sans-serif, Normal';font-variant-ligatures:normal;font-variant-caps:normal;font-variant-numeric:normal;font-variant-east-asian:normal"
   letter-spacing="0em"
   fill="#230fd2"
   fill-opacity="1"
   stroke-width="0.379839"
   stroke-linejoin="round"
   id="tspan1816">c1</tspan>		</text><line
   fill="none"
   stroke-width="3.77268"
   stroke-linejoin="round"
   stroke="#230fd2"
   stroke-opacity="1"
   x1="292.55994"
   y1="63.151112"
   x2="292.55994"
   y2="531.77094"
   id="line1820" /><path
   fill="#ffffff"
   fill-opacity="1"
   stroke-width="0.312319"
   stroke-linejoin="round"
   d="m 295.62942,312.50256 c 11.05008,0 20,8.9542 20,19.9992 0,11.0465 -8.94992,20.0008 -20,20.0008 -11.05008,0 -20,-8.9543 -20,-20.0008 0,-11.045 8.94992,-19.9992 20,-19.9992 z"
   id="path4762" /><path
   fill="#ffffff"
   fill-opacity="1"
   stroke-width="0.312319"
   stroke-linejoin="round"
   d="m 170.73851,202.97616 c 11.05008,0 20,8.9542 20,19.9992 0,11.0465 -8.94992,20.0008 -20,20.0008 -11.05008,0 -20,-8.9543 -20,-20.0008 0,-11.045 8.94992,-19.9992 20,-19.9992 z"
   id="path1822" /><path
   fill="#ffffff"
   fill-opacity="1"
   stroke-width="0.312319"
   stroke-linejoin="round"
   d="m 293.83597,202.53206 c 11.0501,0 20,8.9543 20,19.9993 0,11.0464 -8.9499,20.0007 -20,20.0007 -11.0501,0 -20,-8.9543 -20,-20.0007 0,-11.045 8.9499,-19.9993 20,-19.9993 z"
   id="path1826" /><path
   fill="#ffffff"
   fill-opacity="1"
   stroke-width="0.392987"
   stroke-linejoin="round"
   d="m 291.95935,91.819838 c 13.44017,0 24.32592,11.657972 24.32592,26.035422 0,14.3794 -10.88575,26.03344 -24.32592,26.03344 -13.44016,0 -24.32591,-11.65404 -24.32591,-26.03344 0,-14.37745 10.88575,-26.035422 24.32591,-26.035422 z"
   id="path1830" /><text
   transform="scale(0.96654368,1.0346144)"
   xml:space="preserve"
   id="text1834"
   x="125.39246"
   y="226.50598"
   style="font-size:22.7904px;stroke-width:1.8992">			 <tspan
   style="font-size:31.4543px;font-family:'メイリオ'"
   letter-spacing="0em"
   fill="#230fd2"
   fill-opacity="1"
   stroke-width="0.379839"
   stroke-linejoin="round"
   stroke="#230fd2"
   stroke-opacity="1"
   id="tspan1832">X</tspan>		</text><text
   transform="scale(0.96654368,1.0346144)"
   xml:space="preserve"
   id="text1838"
   x="249.40254"
   y="226.50598"
   style="font-size:22.7904px;stroke-width:1.8992">			 <tspan
   style="font-size:31.4543px;font-family:'メイリオ'"
   letter-spacing="0em"
   fill="#230fd2"
   fill-opacity="1"
   stroke-width="0.379839"
   stroke-linejoin="round"
   stroke="#230fd2"
   stroke-opacity="1"
   id="tspan1836">X</tspan>		</text><path
   fill="#ffffff"
   fill-opacity="1"
   stroke-linejoin="round"
   stroke="#0096ff"
   stroke-opacity="1"
   d="m 291.70391,92.440758 c 13.42052,0 24.32592,11.656012 24.32592,26.035422 0,14.37744 -10.9054,26.03344 -24.32592,26.03344 -13.44017,0 -24.32592,-11.656 -24.32592,-26.03344 0,-14.37941 10.88575,-26.035422 24.32592,-26.035422 z"
   id="path1840"
   style="stroke-width:1.96494" /><text
   transform="scale(0.96654368,1.0346144)"
   xml:space="preserve"
   id="text1844"
   x="249.40254"
   y="127.74768"
   style="font-size:22.7904px;stroke-width:1.8992">			 <tspan
   style="font-size:31.4543px;font-family:'メイリオ'"
   letter-spacing="0em"
   fill="#230fd2"
   fill-opacity="1"
   stroke-width="0.379839"
   stroke-linejoin="round"
   stroke="#230fd2"
   stroke-opacity="1"
   id="tspan1842">X</tspan>		</text><text
   transform="scale(0.96654368,1.0346144)"
   xml:space="preserve"
   id="text1848"
   x="125.39246"
   y="332.79321"
   style="font-size:22.7904px;stroke-width:1.8992">			 <tspan
   style="font-size:31.4543px;font-family:'メイリオ'"
   letter-spacing="0em"
   fill="#230fd2"
   fill-opacity="1"
   stroke-width="0.379839"
   stroke-linejoin="round"
   stroke="#230fd2"
   stroke-opacity="1"
   id="tspan1846">X</tspan>		</text><text
   transform="scale(0.96654368,1.0346144)"
   xml:space="preserve"
   id="text1852"
   x="251.47176"
   y="332.79321"
   style="font-size:22.7904px;stroke-width:1.8992">			 <tspan
   style="font-size:31.4543px;font-family:'メイリオ'"
   letter-spacing="0em"
   fill="#230fd2"
   fill-opacity="1"
   stroke-width="0.379839"
   stroke-linejoin="round"
   stroke="#230fd2"
   stroke-opacity="1"
   id="tspan1850">X</tspan>		</text><path
   fill="#ffffff"
   fill-opacity="1"
   stroke-width="1.15537"
   stroke-linejoin="round"
   d="m 533.64328,120.12614 c 117.6234,0 213.2026,11.49511 213.2026,25.67602 0,14.17898 -95.5792,25.6741 -213.2026,25.6741 -117.7955,0 -213.20294,-11.49512 -213.20294,-25.6741 0,-14.18091 95.40744,-25.67602 213.20294,-25.67602 z"
   id="path1063" /><text
   transform="scale(0.96654368,1.0346144)"
   xml:space="preserve"
   id="text1856"
   x="292.78625"
   y="149.20795"
   style="font-size:22.7904px;stroke-width:1.8992">			 <tspan
   style="font-size:30.3872px;font-family:'メイリオ'"
   letter-spacing="0em"
   fill="#000000"
   fill-opacity="1"
   stroke-width="0.607737"
   stroke-linejoin="round"
   stroke="#000000"
   stroke-opacity="1"
   id="tspan1854">(1)Not covered by CoverSet.</tspan>		</text><text
   transform="scale(0.96654368,1.0346144)"
   xml:space="preserve"
   id="text1862"
   x="11.895212"
   y="23.113768"
   style="font-size:22.7904px;stroke-width:1.8992">			 <tspan
   style="font-size:30.3872px;font-family:'メイリオ'"
   letter-spacing="0em"
   fill="#230fd2"
   fill-opacity="1"
   stroke-width="0.607737"
   stroke-linejoin="round"
   stroke="#230fd2"
   stroke-opacity="1"
   id="tspan1860">2-BaseSet:C0,c1</tspan>		</text><text
   transform="scale(0.96654368,1.0346144)"
   xml:space="preserve"
   id="text1866"
   x="290.27399"
   y="25.046873"
   style="font-size:22.7904px;stroke-width:1.8992">			 <tspan
   style="font-size:30.3872px;font-family:'メイリオ'"
   letter-spacing="0em"
   fill="#ff0000"
   fill-opacity="1"
   stroke-width="0.607737"
   stroke-linejoin="round"
   stroke="#ff0000"
   stroke-opacity="1"
   id="tspan1864">2-CoverSet:r0,r1</tspan>		</text><path
   fill="#ffffff"
   fill-opacity="1"
   stroke-width="0.312383"
   stroke-linejoin="round"
   d="m 395.09198,202.56486 c 11.0545,0 20.0081,8.9543 20.0081,20.0007 0,11.045 -8.9536,19.9993 -20.0081,19.9993 -11.0384,0 -19.99191,-8.9543 -19.99191,-19.9993 0,-11.0464 8.95351,-20.0007 19.99191,-20.0007 z"
   id="path1868" /><text
   transform="scale(0.96654368,1.0346144)"
   xml:space="preserve"
   id="text1872"
   x="357.14917"
   y="228.40515"
   style="font-size:22.7904px;stroke-width:1.8992">			 <tspan
   style="font-size:31.4543px;font-family:'メイリオ'"
   letter-spacing="0em"
   fill="#ff0000"
   fill-opacity="1"
   stroke-width="0.379839"
   stroke-linejoin="round"
   id="tspan1870">X</tspan>		</text></svg>
