<?xml version="1.0" encoding="UTF-8" standalone="no"?>
<svg
   version="1.1"
   width="295.75049mm"
   height="139.31078mm"
   viewBox="0 0 1117.7971 526.5289"
   enable-background="new 0 0 3735.12 3236.04"
   xml:space="preserve"
   id="svg2268"
   sodipodi:docname="Image60.svg"
   inkscape:version="1.2.2 (732a01da63, 2022-12-09)"
   xmlns:inkscape="http://www.inkscape.org/namespaces/inkscape"
   xmlns:sodipodi="http://sodipodi.sourceforge.net/DTD/sodipodi-0.dtd"
   xmlns="http://www.w3.org/2000/svg"
   xmlns:svg="http://www.w3.org/2000/svg"><defs
   id="defs2272" /><sodipodi:namedview
   id="namedview2270"
   pagecolor="#ffffff"
   bordercolor="#000000"
   borderopacity="0.25"
   inkscape:showpageshadow="2"
   inkscape:pageopacity="0.0"
   inkscape:pagecheckerboard="0"
   inkscape:deskcolor="#d1d1d1"
   showgrid="false"
   inkscape:zoom="0.8553524"
   inkscape:cx="2952.5842"
   inkscape:cy="890.86089"
   inkscape:window-width="1966"
   inkscape:window-height="1513"
   inkscape:window-x="1831"
   inkscape:window-y="270"
   inkscape:window-maximized="0"
   inkscape:current-layer="svg2268"
   inkscape:document-units="mm" />
	
	
	
	
	
	
	
	
	
	
	
	
	
	
	
	
	
	
	
	
	
	
	
	
	
	
	
	
	
	
	
	
	
	
	
	
	
	
	
	
	
	
	
	
	
	
	
	
	
	
	
	
	
	
	
	
	
	
	
	
	
	
	
	
	
	
	
	
	
	
	
	
	
	
	
	
	
	
	
	
	
	
	
	
	
	
	
	
	
	
	
	
	
	
	
	
	
	
	
	
	
	
	
	
	
	
	
	
	
	
	
	
	
	
	
	
	
	
	
	
	
	
	
	
	
	
	
	
	
	
	
	
	
	
	
	
	
	
	
	
	
	
	
	
	
	
	
	
	
	
	
	
	
	
	
	
	
	
	
	
	
	
	
	
	
	
	
	
	
	
	
	
	
	
	
	
	
	
	
	
	
	
	
	
	
	
	
	
	
	
	
	
	
	
	
	
	
	
	
	
	
	
	
	
	
	
	
	
	
	
	
	
	
	
	
	
	
	
	
	
	
	
	
	
	
	
	
	
	
	
	
	
	
	
	
	
	
	
	
	
	
	
	
	
	
	
	
	
	
	
	
	
	
	
	
	
	
	
	
	
	
	
	
	
	
	
	
	
	
	
	
	
	
	
	
	
	
	
	
	
	
	
	
	
	
	
	
	
	
	
	
	
	
	
	
	
	
	
	
	
	
	
	
	
	
	
	
	
	
	
	
	
	
	
	
	
	
	
	
	
	
	
	
	
	
	
	
	
	
	
	
	
	
	
	
	
	<rect
   x="8.9856138"
   y="62.517727"
   fill="#ffffff"
   fill-opacity="1"
   stroke-width="3.7206"
   stroke-linejoin="round"
   stroke="#000000"
   stroke-opacity="1"
   width="431.74466"
   height="462.15085"
   id="rect1692"
   inkscape:export-filename="BCSet1.png"
   inkscape:export-xdpi="96"
   inkscape:export-ydpi="96" /><path
   fill="#ff0000"
   fill-opacity="1"
   stroke-linejoin="round"
   d="m 43.990601,216.31262 h 15.5025 v 3.7206 h -15.5025 z m 31.005,0 h 15.5025 v 3.7206 h -15.5025 z m 31.004999,0 h 15.5025 v 3.7206 h -15.5025 z m 31.005,0 h 15.5025 v 3.7206 h -15.5025 z m 31.005,0 h 15.5025 v 3.7206 h -15.5025 z m 31.005,0 h 15.5025 v 3.7206 h -15.5025 z m 31.005,0 h 15.5025 v 3.7206 h -15.5025 z m 31.005,0 h 15.5025 v 3.7206 h -15.5025 z m 31.005,0 h 15.5025 v 3.7206 h -15.5025 z m 31.005,0 h 15.5025 v 3.7206 h -15.5025 z m 31.005,0 h 15.5025 v 3.7206 h -15.5025 z m 31.005,0 h 15.5025 v 3.7206 h -15.5025 z m 31.005,0 h 15.5025 v 3.7206 h -15.5025 z m -403.064999,0 h 15.5025 v 3.7206 h -15.5025 z"
   id="path1696"
   style="stroke-width:1.93781" /><line
   fill="none"
   stroke-width="3.7206"
   stroke-linejoin="round"
   stroke="#230fd2"
   stroke-opacity="1"
   x1="128.91664"
   y1="62.517727"
   x2="128.91664"
   y2="524.66895"
   id="line1698" /><path
   fill="#ff0000"
   fill-opacity="1"
   stroke-linejoin="round"
   d="m 44.094701,323.99977 h 15.5025 v 3.7206 h -15.5025 z m 31.005,0 h 15.5025 v 3.7206 h -15.5025 z m 31.004999,0 h 15.5025 v 3.7206 h -15.5025 z m 31.005,0 h 15.5025 v 3.7206 h -15.5025 z m 31.005,0 h 15.5025 v 3.7206 h -15.5025 z m 31.005,0 h 15.5025 v 3.7206 h -15.5025 z m 31.005,0 h 15.5025 v 3.7206 h -15.5025 z m 31.005,0 h 15.5025 v 3.7206 h -15.5025 z m 31.005,0 h 15.5025 v 3.7206 h -15.5025 z m 31.005,0 h 15.5025 v 3.7206 h -15.5025 z m 31.005,0 h 15.5025 v 3.7206 h -15.5025 z m 31.005,0 h 15.5025 v 3.7206 h -15.5025 z m 31.005,0 h 15.5025 v 3.7206 h -15.5025 z m -403.064999,0 h 15.5025 v 3.7206 h -15.5025 z"
   id="path1702"
   style="stroke-width:1.93781" /><text
   transform="scale(0.96654368,1.0346144)"
   xml:space="preserve"
   id="text1706"
   x="-89.335274"
   y="219.88481"
   style="font-style:normal;font-variant:normal;font-weight:normal;font-stretch:normal;font-size:32px;font-family:sans-serif;-inkscape-font-specification:'sans-serif, Normal';font-variant-ligatures:normal;font-variant-caps:normal;font-variant-numeric:normal;font-variant-east-asian:normal;stroke-width:1.87298">			 <tspan
   style="font-style:normal;font-variant:normal;font-weight:normal;font-stretch:normal;font-size:32px;font-family:sans-serif;-inkscape-font-specification:'sans-serif, Normal';font-variant-ligatures:normal;font-variant-caps:normal;font-variant-numeric:normal;font-variant-east-asian:normal"
   letter-spacing="0em"
   fill="#ff0000"
   fill-opacity="1"
   stroke-width="0.374596"
   stroke-linejoin="round"
   id="tspan1704">r0</tspan>		</text><text
   transform="scale(0.96654368,1.0346144)"
   xml:space="preserve"
   id="text1710"
   x="-85.261177"
   y="324.83182"
   style="font-style:normal;font-variant:normal;font-weight:normal;font-stretch:normal;font-size:32px;font-family:sans-serif;-inkscape-font-specification:'sans-serif, Normal';font-variant-ligatures:normal;font-variant-caps:normal;font-variant-numeric:normal;font-variant-east-asian:normal;stroke-width:1.87298">			 <tspan
   style="font-style:normal;font-variant:normal;font-weight:normal;font-stretch:normal;font-size:32px;font-family:sans-serif;-inkscape-font-specification:'sans-serif, Normal';font-variant-ligatures:normal;font-variant-caps:normal;font-variant-numeric:normal;font-variant-east-asian:normal"
   letter-spacing="0em"
   fill="#ff0000"
   fill-opacity="1"
   stroke-width="0.374596"
   stroke-linejoin="round"
   id="tspan1708">r1</tspan>		</text><text
   transform="scale(0.96654368,1.0346144)"
   xml:space="preserve"
   id="text1714"
   x="51.947929"
   y="53.696419"
   style="font-style:normal;font-variant:normal;font-weight:normal;font-stretch:normal;font-size:32px;font-family:sans-serif;-inkscape-font-specification:'sans-serif, Normal';font-variant-ligatures:normal;font-variant-caps:normal;font-variant-numeric:normal;font-variant-east-asian:normal;stroke-width:1.87298">			 <tspan
   style="font-style:normal;font-variant:normal;font-weight:normal;font-stretch:normal;font-size:32px;font-family:sans-serif;-inkscape-font-specification:'sans-serif, Normal';font-variant-ligatures:normal;font-variant-caps:normal;font-variant-numeric:normal;font-variant-east-asian:normal"
   letter-spacing="0em"
   fill="#230fd2"
   fill-opacity="1"
   stroke-width="0.374596"
   stroke-linejoin="round"
   id="tspan1712">c0</tspan>		</text><text
   transform="scale(0.96654368,1.0346144)"
   xml:space="preserve"
   id="text1718"
   x="174.38567"
   y="53.595436"
   style="font-style:normal;font-variant:normal;font-weight:normal;font-stretch:normal;font-size:32px;font-family:sans-serif;-inkscape-font-specification:'sans-serif, Normal';font-variant-ligatures:normal;font-variant-caps:normal;font-variant-numeric:normal;font-variant-east-asian:normal;stroke-width:1.87298">			 <tspan
   style="font-style:normal;font-variant:normal;font-weight:normal;font-stretch:normal;font-size:32px;font-family:sans-serif;-inkscape-font-specification:'sans-serif, Normal';font-variant-ligatures:normal;font-variant-caps:normal;font-variant-numeric:normal;font-variant-east-asian:normal"
   letter-spacing="0em"
   fill="#230fd2"
   fill-opacity="1"
   stroke-width="0.374596"
   stroke-linejoin="round"
   id="tspan1716">c1</tspan>		</text><text
   transform="scale(0.96654368,1.0346144)"
   xml:space="preserve"
   id="text1722"
   x="276.21771"
   y="53.741234"
   style="font-style:normal;font-variant:normal;font-weight:normal;font-stretch:normal;font-size:32px;font-family:sans-serif;-inkscape-font-specification:'sans-serif, Normal';font-variant-ligatures:normal;font-variant-caps:normal;font-variant-numeric:normal;font-variant-east-asian:normal;stroke-width:1.87298">			 <tspan
   style="font-style:normal;font-variant:normal;font-weight:normal;font-stretch:normal;font-size:32px;font-family:sans-serif;-inkscape-font-specification:'sans-serif, Normal';font-variant-ligatures:normal;font-variant-caps:normal;font-variant-numeric:normal;font-variant-east-asian:normal"
   letter-spacing="0em"
   fill="#000000"
   fill-opacity="1"
   stroke-width="0.374596"
   stroke-linejoin="round"
   id="tspan1720">cx</tspan>		</text><line
   fill="none"
   stroke-width="3.7206"
   stroke-linejoin="round"
   stroke="#230fd2"
   stroke-opacity="1"
   x1="248.84816"
   y1="60.950024"
   x2="248.84816"
   y2="523.09955"
   id="line1724" /><line
   fill="none"
   stroke-width="3.7206"
   stroke-linejoin="round"
   stroke="#000000"
   stroke-opacity="1"
   x1="344.78922"
   y1="62.517727"
   x2="344.78922"
   y2="267.91849"
   id="line1726" /><path
   fill="#000000"
   fill-opacity="1"
   stroke-linejoin="round"
   d="m 346.6494,93.522743 v 15.502497 h -3.7206 V 93.522743 Z m 0,31.004997 v 15.5025 h -3.7206 v -15.5025 z m 0,31.005 v 15.5025 h -3.7206 v -15.5025 z m 0,31.00539 v 15.5025 h -3.7206 v -15.5025 z m 0,31.005 v 15.5025 h -3.7206 v -15.5025 z m 0,31.005 v 15.5025 h -3.7206 v -15.5025 z m 0,-186.030397 v 15.50251 h -3.7206 v -15.50251 z"
   id="path1728"
   style="stroke-width:1.93781" /><path
   fill="#ffffff"
   fill-opacity="1"
   stroke-width="0.387563"
   stroke-linejoin="round"
   d="m 128.9168,190.89239 c 13.2353,0 23.9901,11.49511 23.9901,25.67602 0,14.17898 -10.7548,25.67408 -23.9901,25.67408 -13.2546,0 -23.9901,-11.4951 -23.9901,-25.67408 0,-14.18091 10.7355,-25.67602 23.9901,-25.67602 z"
   id="path1730" /><path
   fill="#ffffff"
   fill-opacity="1"
   stroke-width="0.387563"
   stroke-linejoin="round"
   d="m 128.9168,302.3108 c 13.2353,0 23.9901,11.49511 23.9901,25.67602 0,14.17898 -10.7548,25.67408 -23.9901,25.67408 -13.2546,0 -23.9901,-11.4951 -23.9901,-25.67408 0,-14.18091 10.7355,-25.67602 23.9901,-25.67602 z"
   id="path1732" /><path
   fill="#ffffff"
   fill-opacity="1"
   stroke-width="0.387563"
   stroke-linejoin="round"
   d="m 248.848,190.89239 c 13.2353,0 23.9901,11.49511 23.9901,25.67602 0,14.17898 -10.7548,25.67408 -23.9901,25.67408 -13.2546,0 -23.9901,-11.4951 -23.9901,-25.67408 0,-14.18091 10.7355,-25.67602 23.9901,-25.67602 z"
   id="path1734" /><path
   fill="#ffffff"
   fill-opacity="1"
   stroke-width="0.387563"
   stroke-linejoin="round"
   d="m 248.848,302.3108 c 13.2353,0 23.9901,11.49511 23.9901,25.67602 0,14.17898 -10.7548,25.67408 -23.9901,25.67408 -13.2546,0 -23.9901,-11.4951 -23.9901,-25.67408 0,-14.18091 10.7355,-25.67602 23.9901,-25.67602 z"
   id="path1736" /><path
   fill="#ffffff"
   fill-opacity="1"
   stroke-width="0.387563"
   stroke-linejoin="round"
   d="m 344.7891,190.89239 c 13.2353,0 23.9901,11.49511 23.9901,25.67602 0,14.17898 -10.7548,25.67408 -23.9901,25.67408 -13.2546,0 -23.9901,-11.4951 -23.9901,-25.67408 0,-14.18091 10.7355,-25.67602 23.9901,-25.67602 z"
   id="path1738" /><text
   transform="scale(0.96654368,1.0346144)"
   xml:space="preserve"
   id="text1742"
   x="79.15728"
   y="219.42537"
   style="font-size:22.4758px;stroke-width:1.87298">			 <tspan
   style="font-size:31.0201px;font-family:'メイリオ'"
   letter-spacing="0em"
   fill="#000000"
   fill-opacity="1"
   stroke-width="0.374596"
   stroke-linejoin="round"
   id="tspan1740">X</tspan>		</text><text
   transform="scale(0.96654368,1.0346144)"
   xml:space="preserve"
   id="text1746"
   x="205.4716"
   y="221.27058"
   style="font-size:22.4758px;stroke-width:1.87298">			 <tspan
   style="font-size:31.0201px;font-family:'メイリオ'"
   letter-spacing="0em"
   fill="#000000"
   fill-opacity="1"
   stroke-width="0.374596"
   stroke-linejoin="round"
   id="tspan1744">X</tspan>		</text><path
   fill="#ffffff"
   fill-opacity="1"
   stroke-linejoin="round"
   stroke="#0096ff"
   stroke-opacity="1"
   d="m 344.7891,190.89239 c 13.2547,0 23.9901,11.49511 23.9901,25.67602 0,14.17898 -10.7354,25.67408 -23.9901,25.67408 -13.2546,0 -23.9901,-11.4951 -23.9901,-25.67408 0,-14.18091 10.7355,-25.67602 23.9901,-25.67602 z"
   id="path1748"
   style="stroke-width:1.93781" /><text
   transform="scale(0.96654368,1.0346144)"
   xml:space="preserve"
   id="text1752"
   x="303.64679"
   y="221.27058"
   style="font-size:22.4758px;stroke-width:1.87298">			 <tspan
   style="font-size:31.0201px;font-family:'メイリオ'"
   letter-spacing="0em"
   fill="#000000"
   fill-opacity="1"
   stroke-width="0.374596"
   stroke-linejoin="round"
   id="tspan1750">X</tspan>		</text><text
   transform="scale(0.96654368,1.0346144)"
   xml:space="preserve"
   id="text1756"
   x="81.168388"
   y="328.03049"
   style="font-size:22.4758px;stroke-width:1.87298">			 <tspan
   style="font-size:31.0201px;font-family:'メイリオ'"
   letter-spacing="0em"
   fill="#000000"
   fill-opacity="1"
   stroke-width="0.374596"
   stroke-linejoin="round"
   id="tspan1754">X</tspan>		</text><text
   transform="scale(0.96654368,1.0346144)"
   xml:space="preserve"
   id="text1760"
   x="203.40239"
   y="328.03049"
   style="font-size:22.4758px;stroke-width:1.87298">			 <tspan
   style="font-size:31.0201px;font-family:'メイリオ'"
   letter-spacing="0em"
   fill="#000000"
   fill-opacity="1"
   stroke-width="0.374596"
   stroke-linejoin="round"
   id="tspan1758">X</tspan>		</text><line
   fill="none"
   stroke-width="3.1005"
   stroke-linejoin="round"
   stroke="#000000"
   stroke-opacity="1"
   x1="347.57962"
   y1="193.43481"
   x2="405.28763"
   y2="131.66724"
   id="line1762" /><path
   fill="#ffffff"
   fill-opacity="1"
   stroke-width="0.719086"
   stroke-linejoin="round"
   d="m 470.0935,85.895913 c 45.5628,0 82.5865,11.49511 82.5865,25.676017 0,14.17898 -37.0237,25.67408 -82.5865,25.67408 -45.6294,0 -82.5866,-11.4951 -82.5866,-25.67408 0,-14.180907 36.9572,-25.676017 82.5866,-25.676017 z"
   id="path4553" /><text
   transform="scale(0.96654369,1.0346144)"
   xml:space="preserve"
   id="text1766"
   x="367.14926"
   y="116.38369"
   style="font-size:22.4758px;stroke-width:1.87298">			 <tspan
   style="font-size:29.9677px;font-family:'メイリオ'"
   letter-spacing="0em"
   fill="#000000"
   fill-opacity="1"
   stroke-width="0.599348"
   stroke-linejoin="round"
   stroke="#000000"
   stroke-opacity="1"
   id="tspan1764">(1)If true,</tspan>		</text><path
   fill="none"
   stroke-width="3.1005"
   stroke-linejoin="round"
   stroke="#0096ff"
   stroke-opacity="1"
   d="m 188.6983,182.85398 c 58.2894,0 105.5333,14.53572 105.5333,32.4663 0,17.92864 -47.2439,32.46418 -105.5333,32.46418 -58.2894,0 -105.552599,-14.53554 -105.552599,-32.46418 0,-17.93058 47.263199,-32.4663 105.552599,-32.4663 z"
   id="path1768" /><text
   transform="scale(0.96654367,1.0346144)"
   xml:space="preserve"
   id="text1778"
   x="323.04166"
   y="309.48093"
   style="font-size:22.4758px;stroke-width:1.87298"><tspan
   style="font-size:29.9677px;font-family:'メイリオ'"
   letter-spacing="0em"
   fill="#000000"
   fill-opacity="1"
   stroke-width="0.599348"
   stroke-linejoin="round"
   stroke="#000000"
   stroke-opacity="1"
   id="tspan1770">(2)Neither is true.</tspan>			 <tspan
   x="323.04166"
   dy="30.342285"
   style="font-size:29.9677px;font-family:'メイリオ'"
   letter-spacing="0em"
   fill="#000000"
   fill-opacity="1"
   stroke-width="0.599348"
   stroke-linejoin="round"
   stroke="#000000"
   stroke-opacity="1"
   id="tspan1772">(3)This CoverSet does not include the true of BaseSet.</tspan>			 <tspan
   x="323.04166"
   dy="30.342285"
   style="font-size:29.9677px;font-family:'メイリオ'"
   letter-spacing="0em"
   fill="#000000"
   fill-opacity="1"
   stroke-width="0.599348"
   stroke-linejoin="round"
   stroke="#000000"
   stroke-opacity="1"
   id="tspan1774">(4)The actual number of BaseSet is insufficient.</tspan>			 <tspan
   x="323.04166"
   dy="30.342285"
   style="font-size:29.9677px;font-family:'メイリオ'"
   letter-spacing="0em"
   fill="#000000"
   fill-opacity="1"
   stroke-width="0.599348"
   stroke-linejoin="round"
   stroke="#000000"
   stroke-opacity="1"
   id="tspan1776">(5)The assumption(1) is wrong.</tspan>		</text><line
   fill="none"
   stroke-width="3.1005"
   stroke-linejoin="round"
   stroke="#000000"
   stroke-opacity="1"
   x1="219.25771"
   y1="229.64478"
   x2="308.55228"
   y2="291.65479"
   id="line1780" /><text
   transform="scale(0.96654368,1.0346144)"
   xml:space="preserve"
   id="text1784"
   x="-33.713696"
   y="22.780066"
   style="font-size:22.4758px;stroke-width:1.87298">			 <tspan
   style="font-size:29.9677px;font-family:'メイリオ'"
   letter-spacing="0em"
   fill="#230fd2"
   fill-opacity="1"
   stroke-width="0.599348"
   stroke-linejoin="round"
   stroke="#230fd2"
   stroke-opacity="1"
   id="tspan1782">BaseSet:C0,c1</tspan>		</text><text
   transform="scale(0.96654368,1.0346144)"
   xml:space="preserve"
   id="text1788"
   x="210.28447"
   y="22.883505"
   style="font-size:22.4758px;stroke-width:1.87298">			 <tspan
   style="font-size:29.9677px;font-family:'メイリオ'"
   letter-spacing="0em"
   fill="#ff0000"
   fill-opacity="1"
   stroke-width="0.599348"
   stroke-linejoin="round"
   stroke="#ff0000"
   stroke-opacity="1"
   id="tspan1786">CoverSet:r0,r1</tspan>		</text>
	
	
	
</svg>
