<?xml version="1.0" encoding="UTF-8" standalone="no"?>
<svg
   version="1.1"
   width="259.24295mm"
   height="137.67725mm"
   viewBox="0 0 979.81588 520.35493"
   enable-background="new 0 0 3735.12 3236.04"
   xml:space="preserve"
   id="svg2268"
   sodipodi:docname="Image60.svg"
   inkscape:version="1.2.2 (732a01da63, 2022-12-09)"
   xmlns:inkscape="http://www.inkscape.org/namespaces/inkscape"
   xmlns:sodipodi="http://sodipodi.sourceforge.net/DTD/sodipodi-0.dtd"
   xmlns="http://www.w3.org/2000/svg"
   xmlns:svg="http://www.w3.org/2000/svg"><defs
   id="defs2272" /><sodipodi:namedview
   id="namedview2270"
   pagecolor="#ffffff"
   bordercolor="#000000"
   borderopacity="0.25"
   inkscape:showpageshadow="2"
   inkscape:pageopacity="0.0"
   inkscape:pagecheckerboard="0"
   inkscape:deskcolor="#d1d1d1"
   showgrid="false"
   inkscape:zoom="0.8553524"
   inkscape:cx="2952.5842"
   inkscape:cy="890.86089"
   inkscape:window-width="1966"
   inkscape:window-height="1513"
   inkscape:window-x="1831"
   inkscape:window-y="270"
   inkscape:window-maximized="0"
   inkscape:current-layer="svg2268"
   inkscape:document-units="mm" />
	
	
	
	
	
	
	
	
	
	
	
	
	
	
	
	
	
	
	
	
	
	
	
	
	
	
	
	
	
	
	
	
	
	
	
	
	
	
	
	
	
	
	
	
	
	
	
	
	
	
	
	
	
	
	
	
	
	
	
	
	
	
	
	
	
	
	
	
	
	
	
	
	
	
	
	
	
	
	
	
	
	
	
	
	
	
	
	
	
	
	
	
	
	
	
	
	
	
	
	
	
	
	
	
	
	
	
	
	
	
	
	
	
	
	
	
	
	
	
	
	
	
	
	
	
	
	
	
	
	
	
	
	
	
	
	
	
	
	
	
	
	
	
	
	
	
	
	
	
	
	
	
	
	
	
	
	
	
	
	
	
	
	
	
	
	
	
	
	
	
	
	
	
	
	
	
	
	
	
	
	
	
	
	
	
	
	
	
	
	
	
	
	
	
	
	
	
	
	
	
	
	
	
	
	
	
	
	
	
	
	
	
	
	
	
	
	
	
	
	
	
	
	
	
	
	
	
	
	
	
	
	
	
	
	
	
	
	
	
	
	
	
	
	
	
	
	
	
	
	
	
	
	
	
	
	
	
	
	
	
	
	
	
	
	
	
	
	
	
	
	
	
	
	
	
	
	
	
	
	
	
	
	
	
	
	
	
	
	
	
	
	
	
	
	
	
	
	
	
	
	
	
	
	
	
	
	
	
	
	
	
	
	
	
	
	
	
	
	
	
	
	
	
	
	
	
	
	
	
	
	
	
	
	
	
	<g
   id="g9994"
   inkscape:export-filename="weakLink.png"
   inkscape:export-xdpi="96"
   inkscape:export-ydpi="96"
   transform="translate(-115.37287,-178.04903)"><g
     id="g1690"
     transform="matrix(0.80400578,0,0,0.80400578,113.48534,-540.82009)">
		<rect
   x="3.68099"
   y="963.979"
   fill="#ffffff"
   fill-opacity="1"
   stroke-width="2.66667"
   stroke-linejoin="round"
   stroke="#000000"
   stroke-opacity="1"
   width="576"
   height="576"
   id="rect1626" />
		<line
   fill="none"
   stroke-width="2.66667"
   stroke-linejoin="round"
   stroke="#000000"
   stroke-opacity="1"
   x1="136.79401"
   y1="1127.54"
   x2="360.79501"
   y2="1127.54"
   id="line1628" />
		<line
   fill="none"
   stroke-width="2.66667"
   stroke-linejoin="round"
   stroke="#000000"
   stroke-opacity="1"
   x1="485.85101"
   y1="1099.98"
   x2="485.85101"
   y2="1443.98"
   id="line1630" />
		<rect
   x="99.683601"
   y="1251.98"
   fill="#ffffff"
   fill-opacity="1"
   stroke-width="2.66667"
   stroke-linejoin="round"
   stroke="#000000"
   stroke-opacity="1"
   width="159.99899"
   height="160"
   id="rect1632" />
		<path
   fill="#000000"
   fill-opacity="1"
   stroke-width="2.66667"
   stroke-linejoin="round"
   stroke="#000000"
   stroke-opacity="1"
   d="m 120.802,1114.54 c 8.837,0 16,7.16 16,16 0,8.84 -7.163,16 -16,16 -8.836,0 -16,-7.16 -16,-16 0,-8.84 7.164,-16 16,-16 z"
   id="path1634" />
		<path
   fill="#000000"
   fill-opacity="1"
   stroke-width="2.66667"
   stroke-linejoin="round"
   stroke="#000000"
   stroke-opacity="1"
   d="m 291.415,1109.24 c 8.837,0 16,7.16 16,16 0,8.83 -7.163,16 -16,16 -8.837,0 -16,-7.17 -16,-16 0,-8.84 7.163,-16 16,-16 z"
   id="path1636" />
		<path
   fill="#000000"
   fill-opacity="1"
   stroke-width="2.66667"
   stroke-linejoin="round"
   stroke="#000000"
   stroke-opacity="1"
   d="m 481.24,1081.32 c 8.837,0 16,7.16 16,16 0,8.84 -7.163,16 -16,16 -8.836,0 -16,-7.16 -16,-16 0,-8.84 7.164,-16 16,-16 z"
   id="path1638" />
		<path
   fill="#000000"
   fill-opacity="1"
   stroke-width="2.66667"
   stroke-linejoin="round"
   stroke="#000000"
   stroke-opacity="1"
   d="m 482.682,1243.98 c 8.837,0 16,7.16 16,16 0,8.84 -7.163,16 -16,16 -8.836,0 -16,-7.16 -16,-16 0,-8.84 7.164,-16 16,-16 z"
   id="path1640" />
		<path
   fill="#000000"
   fill-opacity="1"
   stroke-width="2.66667"
   stroke-linejoin="round"
   stroke="#000000"
   stroke-opacity="1"
   d="m 147.682,1283.98 c 8.837,0 16,7.16 16,16 0,8.84 -7.163,16 -16,16 -8.836,0 -16,-7.16 -16,-16 0,-8.84 7.164,-16 16,-16 z"
   id="path1642" />
		<path
   fill="#000000"
   fill-opacity="1"
   stroke-width="2.66667"
   stroke-linejoin="round"
   stroke="#000000"
   stroke-opacity="1"
   d="m 211.682,1322.98 c 8.836,0 16,7.16 16,16 0,8.84 -7.164,16 -16,16 -8.837,0 -16,-7.16 -16,-16 0,-8.84 7.163,-16 16,-16 z"
   id="path1644" />
		<path
   fill="#000000"
   fill-opacity="1"
   stroke-width="2.66667"
   stroke-linejoin="round"
   stroke="#000000"
   stroke-opacity="1"
   d="m 212.682,1363.98 c 8.836,0 16,7.16 16,16 0,8.84 -7.164,16 -16,16 -8.837,0 -16,-7.16 -16,-16 0,-8.84 7.163,-16 16,-16 z"
   id="path1646" />
		<path
   fill="#000000"
   fill-opacity="1"
   stroke-width="2.66667"
   stroke-linejoin="round"
   stroke="#000000"
   stroke-opacity="1"
   d="m 370.802,1108.54 c 8.837,0 16,7.16 16,16 0,8.84 -7.163,16 -16,16 -8.836,0 -16,-7.16 -16,-16 0,-8.84 7.164,-16 16,-16 z"
   id="path1648" />
		<path
   fill="#000000"
   fill-opacity="1"
   stroke-width="2.66667"
   stroke-linejoin="round"
   stroke="#000000"
   stroke-opacity="1"
   d="m 485.682,1415.98 c 8.837,0 16,7.16 16,16 0,8.84 -7.163,16 -16,16 -8.836,0 -16,-7.16 -16,-16 0,-8.84 7.164,-16 16,-16 z"
   id="path1650" />
		<text
   transform="translate(451,931)"
   xml:space="preserve"
   id="text1654">			 <tspan
   style="font-size:48px;font-family:'メイリオ'"
   letter-spacing="0em"
   fill="#000000"
   fill-opacity="1"
   stroke-width="0.2"
   stroke-linejoin="round"
   id="tspan1652">Weak Link</tspan>		</text>
		<text
   transform="translate(227,1100)"
   xml:space="preserve"
   id="text1658">			 <tspan
   style="font-size:32px;font-family:'メイリオ'"
   letter-spacing="0em"
   fill="#000000"
   fill-opacity="1"
   stroke-width="0.2"
   stroke-linejoin="round"
   id="tspan1656">row</tspan>		</text>
		<text
   transform="translate(136,1241)"
   xml:space="preserve"
   id="text1662">			 <tspan
   style="font-size:32px;font-family:'メイリオ'"
   letter-spacing="0em"
   fill="#000000"
   fill-opacity="1"
   stroke-width="0.2"
   stroke-linejoin="round"
   id="tspan1660">block</tspan>		</text>
		<text
   transform="rotate(-90,885,429)"
   xml:space="preserve"
   id="text1666">			 <tspan
   style="font-size:32px;font-family:'メイリオ'"
   letter-spacing="0em"
   fill="#000000"
   fill-opacity="1"
   stroke-width="0.2"
   stroke-linejoin="round"
   id="tspan1664">column</tspan>		</text>
		<text
   transform="translate(54,1031)"
   xml:space="preserve"
   id="text1670">			 <tspan
   style="font-size:48px;font-family:'メイリオ'"
   letter-spacing="0em"
   fill="#000000"
   fill-opacity="1"
   stroke-width="0.2"
   stroke-linejoin="round"
   id="tspan1668">Weak link of digit</tspan>		</text>
		<rect
   x="643.68201"
   y="963.979"
   fill="#ffffff"
   fill-opacity="1"
   stroke-width="2.66667"
   stroke-linejoin="round"
   stroke="#000000"
   stroke-opacity="1"
   width="576"
   height="576"
   id="rect1672" />
		<text
   transform="translate(667,1027)"
   xml:space="preserve"
   id="text1676">			 <tspan
   style="font-size:48px;font-family:'メイリオ'"
   letter-spacing="0em"
   fill="#000000"
   fill-opacity="1"
   stroke-width="0.2"
   stroke-linejoin="round"
   id="tspan1674">Weak link in cell digits</tspan>		</text>
		<rect
   x="804.95001"
   y="1156.63"
   fill="#ffffff"
   fill-opacity="1"
   stroke-width="2.66667"
   stroke-linejoin="round"
   stroke="#000000"
   stroke-opacity="1"
   width="95.999001"
   height="95.999496"
   id="rect1678" />
		<path
   fill="#000000"
   fill-opacity="1"
   stroke-width="2.66667"
   stroke-linejoin="round"
   stroke="#000000"
   stroke-opacity="1"
   d="m 837.59,1173.28 c 8.837,0 16,7.16 16,16 0,8.83 -7.163,16 -16,16 -8.836,0 -16,-7.17 -16,-16 0,-8.84 7.164,-16 16,-16 z"
   id="path1680" />
		<text
   transform="translate(803,1149)"
   xml:space="preserve"
   id="text1684">			 <tspan
   style="font-size:32px;font-family:'メイリオ'"
   letter-spacing="0em"
   fill="#000000"
   fill-opacity="1"
   stroke-width="0.2"
   stroke-linejoin="round"
   id="tspan1682">cell</tspan>		</text>
		<rect
   x="824.034"
   y="1217.38"
   fill="#000000"
   fill-opacity="1"
   stroke-width="2.66667"
   stroke-linejoin="round"
   stroke="#000000"
   stroke-opacity="1"
   width="24.955"
   height="23.0354"
   id="rect1686" />
		<path
   fill="#000000"
   fill-opacity="1"
   stroke-width="2.66667"
   stroke-linejoin="round"
   stroke="#000000"
   stroke-opacity="1"
   d="m 878.421,1201.38 -10.739,18.6 h 21.478 z"
   id="path1688" />
	</g></g>
	
	
	
	
</svg>
