<?xml version="1.0" encoding="UTF-8" standalone="no"?>
<!-- Created with Inkscape (http://www.inkscape.org/) -->

<svg
   width="140.41602mm"
   height="81.625748mm"
   viewBox="0 0 140.41602 81.625748"
   version="1.1"
   id="svg2646"
   inkscape:version="1.2.2 (732a01da63, 2022-12-09)"
   sodipodi:docname="image46.svg"
   xmlns:inkscape="http://www.inkscape.org/namespaces/inkscape"
   xmlns:sodipodi="http://sodipodi.sourceforge.net/DTD/sodipodi-0.dtd"
   xmlns="http://www.w3.org/2000/svg"
   xmlns:svg="http://www.w3.org/2000/svg">
  <sodipodi:namedview
     id="namedview2648"
     pagecolor="#ffffff"
     bordercolor="#000000"
     borderopacity="0.25"
     inkscape:showpageshadow="2"
     inkscape:pageopacity="0.0"
     inkscape:pagecheckerboard="0"
     inkscape:deskcolor="#d1d1d1"
     inkscape:document-units="mm"
     showgrid="false"
     inkscape:zoom="0.46903409"
     inkscape:cx="373.10721"
     inkscape:cy="730.22411"
     inkscape:window-width="2145"
     inkscape:window-height="1560"
     inkscape:window-x="751"
     inkscape:window-y="174"
     inkscape:window-maximized="0"
     inkscape:current-layer="layer1" />
  <defs
     id="defs2643" />
  <g
     inkscape:label="Layer 1"
     inkscape:groupmode="layer"
     id="layer1"
     transform="translate(-247.07619,-64.447569)">
    <g
       id="g6971"
       inkscape:export-filename="img46b.png"
       inkscape:export-xdpi="96"
       inkscape:export-ydpi="96"
       transform="matrix(0.81723483,0,0,0.81723483,217.96777,-80.801596)">
      <line
         fill="none"
         stroke-width="0.95732"
         stroke-linejoin="round"
         stroke="#000000"
         stroke-opacity="1"
         x1="58.753422"
         y1="197.03844"
         x2="104.7048"
         y2="197.03844"
         id="line9498" />
      <line
         fill="none"
         stroke-width="0.95732"
         stroke-linejoin="round"
         stroke="#000000"
         stroke-opacity="1"
         x1="54.924141"
         y1="197.03844"
         x2="70.241264"
         y2="215.98138"
         id="line9500" />
      <line
         fill="none"
         stroke-width="0.95732"
         stroke-linejoin="round"
         stroke="#000000"
         stroke-opacity="1"
         x1="70.241264"
         y1="216.18484"
         x2="70.241264"
         y2="250.44492"
         id="line9502" />
      <path
         fill="#ffffff"
         fill-opacity="1"
         stroke-width="0.319107"
         stroke-linejoin="round"
         stroke="#000000"
         stroke-opacity="1"
         d="m 55.127525,193.20915 c 2.010372,0 3.62585,1.57958 3.62585,3.53012 0,1.95054 -1.615478,3.53012 -3.62585,3.53012 -1.998406,0 -3.625851,-1.57958 -3.625851,-3.53012 0,-1.95054 1.627445,-3.53012 3.625851,-3.53012 z"
         id="path9504" />
      <rect
         x="66.411987"
         y="212.35556"
         fill="#ffffff"
         fill-opacity="1"
         stroke-width="0.319107"
         stroke-linejoin="round"
         stroke="#000000"
         stroke-opacity="1"
         width="7.6585617"
         height="7.6585617"
         id="rect9506" />
      <rect
         x="35.777737"
         y="177.89203"
         fill="none"
         stroke-width="0.319107"
         stroke-linejoin="round"
         stroke="#000000"
         stroke-opacity="1"
         width="107.21986"
         height="99.561302"
         id="rect9508" />
      <path
         fill="#000000"
         fill-opacity="1"
         stroke-linejoin="round"
         d="m 104.86436,192.15138 v 1.59154 h -0.3231 v -1.59154 z m 0,3.18309 v 1.60351 h -0.3231 v -1.60351 z m 0,3.19506 v 1.59154 h -0.3231 v -1.59154 z m 0,3.19505 v 1.59155 h -0.3231 v -1.59155 z m 0,3.18309 v 1.60351 h -0.3231 v -1.60351 z m 0,3.19506 v 1.59154 h -0.3231 v -1.59154 z m 0,3.19505 v 1.59155 h -0.3231 v -1.59155 z m 0,3.18309 v 1.60352 h -0.3231 v -1.60352 z m 0,3.19506 v 1.59155 h -0.3231 v -1.59155 z m 0,3.19506 v 1.59154 h -0.3231 v -1.59154 z m 0,3.18309 v 1.60351 h -0.3231 v -1.60351 z m 0,3.19505 v 1.59155 h -0.3231 v -1.59155 z m 0,3.19506 v 1.59154 h -0.3231 v -1.59154 z m 0,3.18309 v 1.60351 h -0.3231 v -1.60351 z m 0,3.19506 v 1.59154 h -0.3231 v -1.59154 z m 0,3.19505 v 1.59155 h -0.3231 v -1.59155 z m 0,3.18309 v 1.60351 h -0.3231 v -1.60351 z m 0,3.19506 v 1.59154 h -0.3231 v -1.59154 z m 0,3.19505 v 1.59155 h -0.3231 v -1.59155 z m 0,3.18309 v 1.60352 h -0.3231 v -1.60352 z m 0,3.19506 v 1.59155 h -0.3231 v -1.59155 z m 0,-67.01242 v 1.59155 h -0.3231 v -1.59155 z"
         id="path9512"
         style="stroke-width:0.119665" />
      <rect
         x="100.87551"
         y="193.20915"
         fill="#ffffff"
         fill-opacity="1"
         stroke-width="0.319107"
         stroke-linejoin="round"
         stroke="#000000"
         stroke-opacity="1"
         width="7.6585617"
         height="7.6585617"
         id="rect9514" />
      <line
         fill="none"
         stroke-width="0.95732"
         stroke-linejoin="round"
         stroke="#000000"
         stroke-opacity="1"
         x1="70.241264"
         y1="250.64838"
         x2="104.7048"
         y2="250.64838"
         id="line9516" />
      <path
         fill="#ffffff"
         fill-opacity="1"
         stroke-width="0.319107"
         stroke-linejoin="round"
         stroke="#000000"
         stroke-opacity="1"
         d="m 70.241218,246.81909 c 2.118071,0 3.829281,1.62744 3.829281,3.62585 0,2.01037 -1.71121,3.62585 -3.829281,3.62585 -2.106104,0 -3.829281,-1.61548 -3.829281,-3.62585 0,-1.99841 1.723177,-3.62585 3.829281,-3.62585 z"
         id="path9518" />
      <rect
         x="100.87551"
         y="246.81909"
         fill="#ffffff"
         fill-opacity="1"
         stroke-width="0.319107"
         stroke-linejoin="round"
         stroke="#000000"
         stroke-opacity="1"
         width="7.6585617"
         height="7.6585617"
         id="rect9520" />
      <rect
         x="116.18468"
         y="205.52669"
         fill="#ffffff"
         fill-opacity="1"
         stroke-width="0.303187"
         stroke-linejoin="round"
         stroke="#000000"
         stroke-opacity="1"
         width="91.100349"
         height="20.035007"
         id="rect9522" />
      <text
         xml:space="preserve"
         id="text9530"
         x="116.08489"
         y="212.35556"
         style="font-size:1.43598px;stroke-width:0.119665"
         dy="0 0 0 0 0 0 0 0 0 0 0 0 0 0 0 0 0 0 0 0 0 0 0 0 0 0 0 0 0 0 0 0 0 0 0 0 0 0 0 0 0 2.5 0 0 0 0 0 0 0 0 0 0 0 0 0 0 0 0 0 0 0 0 0 0 0 0 0 0 0 0 2.5">		 <tspan
   style="font-size:4.46749px;font-family:'メイリオ'"
   letter-spacing="0em"
   fill="#000000"
   fill-opacity="1"
   stroke-width="0.023933"
   stroke-linejoin="round"
   id="tspan9524">There is more than one □ in one house</tspan>		 <tspan
   x="116.08489"
   dy="1.9385736"
   style="font-size:4.46749px;font-family:'メイリオ'"
   letter-spacing="0em"
   fill="#000000"
   fill-opacity="1"
   stroke-width="0.023933"
   stroke-linejoin="round"
   id="tspan9526"> ⇒□is not a focused digit</tspan>		 <tspan
   x="116.08489"
   dy="1.9385736"
   style="font-size:4.46749px;font-family:'メイリオ'"
   letter-spacing="0em"
   fill="#000000"
   fill-opacity="1"
   stroke-width="0.023933"
   stroke-linejoin="round"
   id="tspan9528"> ⇒All  are fixed to focused digit</tspan>	</text>
      <line
         fill="none"
         stroke-width="0.319107"
         stroke-linejoin="round"
         stroke="#000000"
         stroke-opacity="1"
         x1="104.7048"
         y1="220.01411"
         x2="116.19263"
         y2="220.01411"
         id="line9532" />
      <line
         fill="none"
         stroke-width="0.95732"
         stroke-linejoin="round"
         stroke="#000000"
         stroke-opacity="1"
         x1="51.022991"
         y1="268.92123"
         x2="62.510952"
         y2="268.92123"
         id="line9596" />
      <line
         fill="none"
         stroke-width="0.319107"
         stroke-linejoin="round"
         stroke="#000000"
         stroke-opacity="1"
         x1="93.145195"
         y1="268.92123"
         x2="103.3644"
         y2="268.92123"
         id="line9598" />
      <path
         fill="#000000"
         fill-opacity="1"
         stroke-linejoin="round"
         d="m 96.340161,268.76565 h 1.591545 v 0.3231 h -1.591545 z m 3.195056,0 h 1.591543 v 0.3231 h -1.591543 z m 3.183093,0 h 0.64619 v 0.3231 h -0.64619 z m -9.573205,0 h 1.603511 v 0.3231 h -1.603511 z"
         id="path9600"
         style="stroke-width:0.119665" />
      <text
         xml:space="preserve"
         id="text9604"
         x="63.073284"
         y="270.3931"
         style="font-size:1.43598px;stroke-width:0.119665">		 <tspan
   style="font-size:4.46749px;font-family:'メイリオ'"
   letter-spacing="0em"
   fill="#000000"
   fill-opacity="1"
   stroke-width="0.023933"
   stroke-linejoin="round"
   id="tspan9602">Strong Link</tspan>	</text>
      <text
         xml:space="preserve"
         id="text9608"
         x="104.59705"
         y="270.27344"
         style="font-size:1.43598px;stroke-width:0.119665">		 <tspan
   style="font-size:4.46749px;font-family:'メイリオ'"
   letter-spacing="0em"
   fill="#000000"
   fill-opacity="1"
   stroke-width="0.023933"
   stroke-linejoin="round"
   id="tspan9606">Weak Link</tspan>	</text>
    </g>
  </g>
</svg>
