<?xml version="1.0" encoding="UTF-8" standalone="no"?>
<!-- Created with Inkscape (http://www.inkscape.org/) -->

<svg
   width="140.10783mm"
   height="81.425316mm"
   viewBox="0 0 140.10783 81.425316"
   version="1.1"
   id="svg2646"
   inkscape:version="1.2.2 (732a01da63, 2022-12-09)"
   sodipodi:docname="image46.svg"
   xmlns:inkscape="http://www.inkscape.org/namespaces/inkscape"
   xmlns:sodipodi="http://sodipodi.sourceforge.net/DTD/sodipodi-0.dtd"
   xmlns="http://www.w3.org/2000/svg"
   xmlns:svg="http://www.w3.org/2000/svg">
  <sodipodi:namedview
     id="namedview2648"
     pagecolor="#ffffff"
     bordercolor="#000000"
     borderopacity="0.25"
     inkscape:showpageshadow="2"
     inkscape:pageopacity="0.0"
     inkscape:pagecheckerboard="0"
     inkscape:deskcolor="#d1d1d1"
     inkscape:document-units="mm"
     showgrid="false"
     inkscape:zoom="0.46903409"
     inkscape:cx="373.10721"
     inkscape:cy="730.22411"
     inkscape:window-width="2145"
     inkscape:window-height="1560"
     inkscape:window-x="751"
     inkscape:window-y="174"
     inkscape:window-maximized="0"
     inkscape:current-layer="layer1" />
  <defs
     id="defs2643" />
  <g
     inkscape:label="Layer 1"
     inkscape:groupmode="layer"
     id="layer1"
     transform="translate(-42.770494,-173.51)">
    <g
       id="g1"
       transform="translate(0,-1.6272644)">
      <rect
         x="42.900562"
         y="175.26733"
         fill="none"
         stroke-width="0.260145"
         stroke-linejoin="round"
         stroke="#000000"
         stroke-opacity="1"
         width="87.408745"
         height="81.165176"
         id="rect4496"
         inkscape:export-filename="img46c.png"
         inkscape:export-xdpi="96"
         inkscape:export-ydpi="96" />
      <line
         fill="none"
         stroke-width="0.812616"
         stroke-linejoin="round"
         stroke="#000000"
         stroke-opacity="1"
         x1="55.699741"
         y1="188.73886"
         x2="94.705605"
         y2="188.73886"
         id="line9534" />
      <line
         fill="none"
         stroke-width="0.812616"
         stroke-linejoin="round"
         stroke="#000000"
         stroke-opacity="1"
         x1="52.784534"
         y1="188.73886"
         x2="65.786568"
         y2="204.81856"
         id="line9536" />
      <line
         fill="none"
         stroke-width="0.812616"
         stroke-linejoin="round"
         stroke="#000000"
         stroke-opacity="1"
         x1="65.451271"
         y1="204.99126"
         x2="65.451271"
         y2="234.24557"
         id="line9538" />
      <path
         fill="#ffffff"
         fill-opacity="1"
         stroke-width="0.270873"
         stroke-linejoin="round"
         stroke="#000000"
         stroke-opacity="1"
         d="m 52.62204,185.48838 c 1.69634,0 3.0778,1.34082 3.0778,2.99653 0,1.65572 -1.38146,2.99654 -3.0778,2.99654 -1.7065,0 -3.08795,-1.34082 -3.08795,-2.99654 0,-1.65571 1.38145,-2.99653 3.08795,-2.99653 z"
         id="path9540" />
      <path
         fill="#000000"
         fill-opacity="1"
         stroke-linejoin="round"
         d="M 58.54603,234.27172 H 59.897 v 0.2641 h -1.35097 z m 2.71211,0 h 1.35098 v 0.2641 h -1.35098 z m 2.70196,0 h 1.36114 v 0.2641 H 63.9601 Z m 2.71213,0 h 1.35097 v 0.2641 h -1.35097 z m 2.71211,0 h 1.35098 v 0.2641 h -1.35098 z m 2.70195,0 h 1.36115 v 0.2641 h -1.36115 z m 2.71213,0 h 1.35098 v 0.2641 h -1.35098 z m 2.71211,0 h 1.35099 v 0.2641 h -1.35099 z m 2.70196,0 h 1.36115 v 0.2641 h -1.36115 z m 2.71213,0 h 1.35098 v 0.2641 h -1.35098 z m 2.71211,0 h 1.35098 v 0.2641 h -1.35098 z m 2.70196,0 h 1.36114 v 0.2641 h -1.36114 z m 2.71213,0 h 1.35098 v 0.2641 h -1.35098 z m 2.71211,0 h 1.35098 v 0.2641 h -1.35098 z m 2.70196,0 h 1.36114 v 0.2641 h -1.36114 z m 2.71213,0 h 1.35097 v 0.2641 h -1.35097 z m 2.7121,0 h 1.35099 v 0.2641 h -1.35099 z m -46.05522,0 h 1.36114 v 0.2641 H 55.8339 Z"
         id="path9546"
         style="stroke-width:0.101577" />
      <path
         fill="#ffffff"
         fill-opacity="1"
         stroke-width="0.270873"
         stroke-linejoin="round"
         stroke="#000000"
         stroke-opacity="1"
         d="m 65.45128,230.99509 c 1.78776,0 3.25048,1.38145 3.25048,3.0778 0,1.7065 -1.46272,3.0778 -3.25048,3.0778 -1.79793,0 -3.25048,-1.3713 -3.25048,-3.0778 0,-1.69635 1.45255,-3.0778 3.25048,-3.0778 z"
         id="path9548" />
      <rect
         x="124.2952"
         y="226.72884"
         fill="#ffffff"
         fill-opacity="1"
         stroke-width="0.270873"
         stroke-linejoin="round"
         stroke="#000000"
         stroke-opacity="1"
         width="58.447685"
         height="11.071944"
         id="rect9550" />
      <text
         xml:space="preserve"
         id="text9556"
         x="126.77161"
         y="229.63167"
         style="font-size:1.21893px;stroke-width:0.101577"
         dy="0 0 0 0 0 0 0 0 0 0 0 0 0 0 0 0 0.76119012 1.5223802"><tspan
   style="font-size:3.79222px;font-family:'メイリオ'"
   letter-spacing="0em"
   fill="#000000"
   fill-opacity="1"
   stroke-width="0.0203155"
   stroke-linejoin="round"
   id="tspan9552"
   dx="0 0 0 0 0.0076119006"
   dy="1.9029752">This is Locked,</tspan>		 <tspan
   x="126.77161"
   dy="1.6455553"
   style="font-size:3.79222px;font-family:'メイリオ'"
   letter-spacing="0em"
   fill="#000000"
   fill-opacity="1"
   stroke-width="0.0203155"
   stroke-linejoin="round"
   id="tspan9554">It does not focused number</tspan>	</text>
      <line
         fill="none"
         stroke-width="0.812616"
         stroke-linejoin="round"
         stroke="#000000"
         stroke-opacity="1"
         x1="65.786568"
         y1="204.99126"
         x2="78.78849"
         y2="204.99126"
         id="line9558" />
      <rect
         x="62.200794"
         y="201.74077"
         fill="#ffffff"
         fill-opacity="1"
         stroke-width="0.270873"
         stroke-linejoin="round"
         stroke="#000000"
         stroke-opacity="1"
         width="6.5009584"
         height="6.5009584"
         id="rect9560" />
      <path
         fill="#ffffff"
         fill-opacity="1"
         stroke-width="0.270873"
         stroke-linejoin="round"
         stroke="#000000"
         stroke-opacity="1"
         d="m 78.96108,202.25882 c 1.7065,0 3.07779,1.34082 3.07779,2.98638 0,1.65571 -1.37129,2.99653 -3.07779,2.99653 -1.69634,0 -3.0778,-1.34082 -3.0778,-2.99653 0,-1.64556 1.38146,-2.98638 3.0778,-2.98638 z"
         id="path9562" />
      <line
         fill="none"
         stroke-width="0.812616"
         stroke-linejoin="round"
         stroke="#000000"
         stroke-opacity="1"
         x1="114.54374"
         y1="224.49413"
         x2="114.54374"
         y2="195.23982"
         id="line9564" />
      <path
         fill="#000000"
         fill-opacity="1"
         stroke-linejoin="round"
         d="m 108.13574,192.66408 -1.27988,-0.42663 0.0812,-0.25394 1.29003,0.42662 z m -2.56991,-0.85325 -1.27987,-0.42663 0.0812,-0.25394 1.29004,0.42662 z m -2.56991,-0.85325 -1.27988,-0.42663 0.0812,-0.2641 1.29003,0.42662 z m -2.56992,-0.86341 -1.27987,-0.42663 0.0812,-0.25394 1.29004,0.42662 z m -2.5699,-0.85325 -1.27989,-0.42663 0.0812,-0.25394 1.29004,0.42662 z m -2.56991,-0.85326 -1.27988,-0.42662 0.0812,-0.2641 1.29002,0.42662 z m -2.56991,-0.8634 -1.27988,-0.42663 0.0812,-0.25394 1.29004,0.42662 z m 17.98937,6.00323 -1.27988,-0.42663 0.0812,-0.2641 1.29003,0.42662 z"
         id="path9568"
         style="stroke-width:0.101577" />
      <line
         fill="none"
         stroke-width="0.812616"
         stroke-linejoin="round"
         stroke="#000000"
         stroke-opacity="1"
         x1="95.040871"
         y1="188.73886"
         x2="95.040871"
         y2="208.24173"
         id="line9570" />
      <rect
         x="91.455116"
         y="185.48839"
         fill="#ffffff"
         fill-opacity="1"
         stroke-width="0.270873"
         stroke-linejoin="round"
         stroke="#000000"
         stroke-opacity="1"
         width="6.5009584"
         height="6.5009584"
         id="rect9572" />
      <path
         fill="#ffffff"
         fill-opacity="1"
         stroke-width="0.270873"
         stroke-linejoin="round"
         stroke="#000000"
         stroke-opacity="1"
         d="m 95.21348,205.5093 c 1.7065,0 3.07779,1.34082 3.07779,2.98638 0,1.65571 -1.37129,2.99653 -3.07779,2.99653 -1.69635,0 -3.0778,-1.34082 -3.0778,-2.99653 0,-1.64556 1.38145,-2.98638 3.0778,-2.98638 z"
         id="path9574" />
      <path
         fill="#000000"
         fill-opacity="1"
         stroke-width="0.270873"
         stroke-linejoin="round"
         stroke="#000000"
         stroke-opacity="1"
         d="m 114.71635,191.98934 c 1.7065,0 3.0778,1.34082 3.0778,2.99653 0,1.65571 -1.3713,2.99654 -3.0778,2.99654 -1.69635,0 -3.0778,-1.34083 -3.0778,-2.99654 0,-1.65571 1.38145,-2.99653 3.0778,-2.99653 z"
         id="path9576" />
      <rect
         x="111.29328"
         y="221.24365"
         fill="#000000"
         fill-opacity="1"
         stroke-width="0.270873"
         stroke-linejoin="round"
         stroke="#000000"
         stroke-opacity="1"
         width="6.5009584"
         height="6.5009584"
         id="rect9578" />
      <path
         fill="#000000"
         fill-opacity="1"
         stroke-width="0.270873"
         stroke-linejoin="round"
         stroke="#000000"
         stroke-opacity="1"
         d="m 104.79223,230.99509 -3.25048,5.18045 h 6.50096 z"
         id="path9580" />
      <path
         fill="#000000"
         fill-opacity="1"
         stroke-linejoin="round"
         d="m 101.0034,217.86112 h 1.35098 v 0.2641 h -1.35098 z m 2.71211,0 h 1.35098 v 0.2641 h -1.35098 z m 2.70196,0 h 1.36114 v 0.2641 h -1.36114 z m 2.71213,0 h 1.35097 v 0.2641 h -1.35097 z m 2.7121,0 h 1.35099 v 0.2641 h -1.35099 z m 2.70197,0 h 1.36114 v 0.2641 h -1.36114 z m 2.71212,0 h 1.35098 v 0.2641 h -1.35098 z m 2.71211,0 h 1.07673 0.0204 0.0102 0.0102 l 0.0102,0.0102 h 0.0204 l 0.0102,0.0102 0.0102,0.0102 0.0102,0.0102 0.0102,0.0102 v 0.0102 l 0.0102,0.0102 0.0102,0.0102 v 0.0102 0.0102 l 0.0102,0.0203 v 0.0102 0.27427 h -0.27426 v -0.27427 l 0.13205,0.13205 h -1.07671 z m 1.21893,1.75729 v 1.35098 h -0.27425 v -1.35098 z m 0,2.71212 v 1.35098 h -0.27425 v -1.35098 z m 0,2.70196 v 1.36113 h -0.27425 v -1.36113 z m 0,2.71212 v 1.35097 h -0.27425 v -1.35097 z m 0,2.71211 v 1.35099 h -0.27425 v -1.35099 z m 0,2.70197 v 1.36113 h -0.27425 v -1.36113 z m 0,2.71212 v 1.35098 h -0.27425 v -1.35098 z m 0,2.71212 v 1.35098 h -0.27425 v -1.35098 z m -0.68057,2.29565 h -1.35097 v -0.2641 h 1.35097 z m -2.71211,0 h -1.35098 v -0.2641 h 1.35098 z m -2.70197,0 h -1.36114 v -0.2641 h 1.36114 z m -2.71211,0 h -1.35098 v -0.2641 h 1.35098 z m -2.71212,0 h -1.35098 v -0.2641 h 1.35098 z m -2.70196,0 h -1.36114 v -0.2641 h 1.36114 z m -2.71212,0 h -1.35098 v -0.2641 h 1.35098 z m -2.71212,0 h -1.35098 v -0.2641 h 1.35098 z m -2.70196,0 h -0.54852 -0.0102 -0.0102 -0.0204 l -0.0102,-0.0102 h -0.0102 l -0.0102,-0.0102 -0.0102,-0.0102 h -0.0102 l -0.0102,-0.0102 -0.0102,-0.0204 v -0.0102 l -0.0102,-0.0101 v -0.0102 l -0.0102,-0.0102 v -0.0204 -0.0102 -0.81261 h 0.27426 v 0.81261 l -0.14222,-0.13204 h 0.54853 z m -0.68057,-2.29565 v -1.36114 h 0.27426 v 1.36114 z m 0,-2.71212 v -1.35099 h 0.27426 v 1.35099 z m 0,-2.71212 v -1.35098 h 0.27426 v 1.35098 z m 0,-2.70197 v -1.36114 h 0.27426 v 1.36114 z m 0,-2.71211 v -1.35099 h 0.27426 v 1.35099 z m 0,-2.71212 v -1.35098 h 0.27426 v 1.35098 z m 0,-2.70196 v -1.36114 h 0.27426 v 1.36114 z m 0,-2.71212 v -1.35098 h 0.27426 v 1.35098 z m 0.13205,-1.75729 h 1.36114 v 0.2641 h -1.36114 z"
         id="path9582"
         style="stroke-width:0.101577" />
      <rect
         x="114.54374"
         y="178.98744"
         fill="#ffffff"
         fill-opacity="1"
         stroke-width="0.270873"
         stroke-linejoin="round"
         stroke="#000000"
         stroke-opacity="1"
         width="68.19912"
         height="9.7514372"
         id="rect9584" />
      <text
         xml:space="preserve"
         id="text9588"
         x="114.48032"
         y="185.0856"
         style="font-size:1.21893px;stroke-width:0.101577">			 <tspan
   style="font-size:3.79221px;font-family:'メイリオ'"
   letter-spacing="0em"
   fill="#000000"
   fill-opacity="1"
   stroke-width="0.0203155"
   stroke-linejoin="round"
   id="tspan9586">Two series are linked by weak link</tspan>		</text>
      <line
         fill="none"
         stroke-width="0.270873"
         stroke-linejoin="round"
         stroke="#000000"
         stroke-opacity="1"
         x1="104.79234"
         y1="191.98933"
         x2="114.54374"
         y2="185.48839"
         id="line9592" />
      <line
         fill="none"
         stroke-width="0.270873"
         stroke-linejoin="round"
         stroke="#000000"
         stroke-opacity="1"
         x1="107.31132"
         y1="234.37758"
         x2="124.2952"
         y2="230.99509"
         id="line9594" />
      <g
         id="g4430"
         transform="matrix(0.7611901,0,0,0.7611901,-124.09441,47.658138)">
        <line
           fill="none"
           stroke-width="1.17205"
           stroke-linejoin="round"
           stroke="#000000"
           stroke-opacity="1"
           x1="230.02574"
           y1="265.2381"
           x2="244.09048"
           y2="265.2381"
           id="line4418" />
        <path
           fill="#000000"
           fill-opacity="1"
           stroke-linejoin="round"
           d="m 286.19588,265.04032 h 2.18034 v 0.39557 h -2.18034 z m 4.37706,0 h 2.18032 v 0.39557 h -2.18032 z m 4.36065,0 h 0.88525 v 0.39557 h -0.88525 z m -13.11475,0 h 2.19672 v 0.39557 h -2.19672 z"
           id="path4420"
           style="stroke-width:0.154975" />
        <text
           xml:space="preserve"
           id="text4424"
           x="242.13315"
           y="266.7684"
           style="font-size:1.75807px;stroke-width:0.146506">			 <tspan
   style="font-size:5.46956px;font-family:'メイリオ'"
   letter-spacing="0em"
   fill="#000000"
   fill-opacity="1"
   stroke-width="0.0293012"
   stroke-linejoin="round"
   id="tspan4422">Strong Link</tspan>		</text>
        <text
           xml:space="preserve"
           id="text4428"
           x="295.61658"
           y="267.29852"
           style="font-size:1.75807px;stroke-width:0.146506">			 <tspan
   style="font-size:5.46956px;font-family:'メイリオ'"
   letter-spacing="0em"
   fill="#000000"
   fill-opacity="1"
   stroke-width="0.0293012"
   stroke-linejoin="round"
   id="tspan4426">Weak Link</tspan>		</text>
      </g>
    </g>
  </g>
</svg>
