<?xml version="1.0" encoding="UTF-8" standalone="no"?>
<!-- Created with Inkscape (http://www.inkscape.org/) -->

<svg
   width="132.129mm"
   height="81.425316mm"
   viewBox="0 0 132.129 81.425316"
   version="1.1"
   id="svg2646"
   inkscape:version="1.2.2 (732a01da63, 2022-12-09)"
   sodipodi:docname="image46.svg"
   xmlns:inkscape="http://www.inkscape.org/namespaces/inkscape"
   xmlns:sodipodi="http://sodipodi.sourceforge.net/DTD/sodipodi-0.dtd"
   xmlns="http://www.w3.org/2000/svg"
   xmlns:svg="http://www.w3.org/2000/svg">
  <sodipodi:namedview
     id="namedview2648"
     pagecolor="#ffffff"
     bordercolor="#000000"
     borderopacity="0.25"
     inkscape:showpageshadow="2"
     inkscape:pageopacity="0.0"
     inkscape:pagecheckerboard="0"
     inkscape:deskcolor="#d1d1d1"
     inkscape:document-units="mm"
     showgrid="false"
     inkscape:zoom="0.46903409"
     inkscape:cx="373.10721"
     inkscape:cy="730.22411"
     inkscape:window-width="2145"
     inkscape:window-height="1560"
     inkscape:window-x="751"
     inkscape:window-y="174"
     inkscape:window-maximized="0"
     inkscape:current-layer="layer1" />
  <defs
     id="defs2643" />
  <g
     inkscape:label="Layer 1"
     inkscape:groupmode="layer"
     id="layer1"
     transform="translate(-232.12357,-173.51)">
    <g
       id="g4529"
       transform="matrix(0.7611901,0,0,0.7611901,72.20941,56.856172)"
       inkscape:export-filename="img46d.png"
       inkscape:export-xdpi="96"
       inkscape:export-ydpi="96">
      <line
         fill="none"
         stroke-width="1.02528"
         stroke-linejoin="round"
         stroke="#000000"
         stroke-opacity="1"
         x1="227.2301"
         y1="170.74889"
         x2="276.44363"
         y2="170.74889"
         id="line9624" />
      <line
         fill="none"
         stroke-width="1.02528"
         stroke-linejoin="round"
         stroke="#000000"
         stroke-opacity="1"
         x1="223.62885"
         y1="170.06966"
         x2="240.03336"
         y2="191.03662"
         id="line9626" />
      <line
         fill="none"
         stroke-width="1.02528"
         stroke-linejoin="round"
         stroke="#000000"
         stroke-opacity="1"
         x1="239.53349"
         y1="190.5753"
         x2="239.53349"
         y2="215.18205"
         id="line9628" />
      <path
         fill="#ffffff"
         fill-opacity="1"
         stroke-width="0.341761"
         stroke-linejoin="round"
         stroke="#000000"
         stroke-opacity="1"
         d="m 223.34685,166.64778 c 2.14027,0 3.88326,1.69172 3.88326,3.78073 0,2.07619 -1.74299,3.76791 -3.88326,3.76791 -2.15309,0 -3.89607,-1.69172 -3.89607,-3.76791 0,-2.08901 1.74298,-3.78073 3.89607,-3.78073 z"
         id="path9630" />
      <rect
         x="210.25528"
         y="153.42278"
         fill="none"
         stroke-width="0.341761"
         stroke-linejoin="round"
         stroke="#000000"
         stroke-opacity="1"
         width="114.83168"
         height="106.62931"
         id="rect9632" />
      <path
         fill="#ffffff"
         fill-opacity="1"
         stroke-width="0.341761"
         stroke-linejoin="round"
         stroke="#000000"
         stroke-opacity="1"
         d="m 240.03331,211.51668 c 2.26843,0 4.10112,1.73016 4.10112,3.88325 0,2.14028 -1.83269,3.88325 -4.10112,3.88325 -2.25563,0 -4.10113,-1.74297 -4.10113,-3.88325 0,-2.15309 1.8455,-3.88325 4.10113,-3.88325 z"
         id="path9634" />
      <line
         fill="none"
         stroke-width="1.02528"
         stroke-linejoin="round"
         stroke="#000000"
         stroke-opacity="1"
         x1="239.95651"
         y1="191.25453"
         x2="256.36102"
         y2="191.25453"
         id="line9636" />
      <rect
         x="235.43236"
         y="187.1534"
         fill="#ffffff"
         fill-opacity="1"
         stroke-width="0.341761"
         stroke-linejoin="round"
         stroke="#000000"
         stroke-opacity="1"
         width="8.2022543"
         height="8.2022543"
         id="rect9638" />
      <line
         fill="none"
         stroke-width="1.02528"
         stroke-linejoin="round"
         stroke="#000000"
         stroke-opacity="1"
         x1="301.47342"
         y1="231.58656"
         x2="301.47342"
         y2="194.26628"
         id="line9640" />
      <path
         fill="#000000"
         fill-opacity="1"
         stroke-linejoin="round"
         d="m 298.83316,192.24931 -1.23034,-1.19189 0.23069,-0.2435 1.23034,1.19189 z m -2.46068,-2.38377 -1.23034,-1.17908 0.24352,-0.25632 1.23033,1.19188 z m -2.44785,-2.37097 -1.23034,-1.1919 0.2435,-0.2435 1.21753,1.19189 z m -2.46068,-2.38378 -1.21752,-1.19189 0.23069,-0.24351 1.23033,1.1919 z m -2.44786,-2.37097 -1.23034,-1.19188 0.2435,-0.24351 1.21753,1.17907 z m -2.46068,-2.38377 -1.21752,-1.1919 0.23069,-0.2435 1.23033,1.19189 z m -2.44786,-2.38379 -1.23034,-1.17907 0.2435,-0.25632 1.21753,1.19189 z m -2.46068,-2.37096 -1.21751,-1.19189 0.23069,-0.24351 1.23033,1.1919 z m -2.44785,-2.38378 -1.23034,-1.19189 0.2435,-0.2435 1.23034,1.19188 z m -2.46068,-2.38378 -0.14098,-0.14098 0.24351,-0.2435 0.14097,0.14098 z m 24.54268,23.79936 -1.23034,-1.1919 0.24351,-0.2435 1.23033,1.19188 z"
         id="path9644"
         style="stroke-width:0.12816" />
      <line
         fill="none"
         stroke-width="1.02528"
         stroke-linejoin="round"
         stroke="#000000"
         stroke-opacity="1"
         x1="276.86667"
         y1="170.06966"
         x2="276.86667"
         y2="206.97981"
         id="line9646" />
      <rect
         x="272.84238"
         y="165.96854"
         fill="#ffffff"
         fill-opacity="1"
         stroke-width="0.341761"
         stroke-linejoin="round"
         stroke="#000000"
         stroke-opacity="1"
         width="8.2022543"
         height="8.2022543"
         id="rect9648" />
      <path
         fill="#ffffff"
         fill-opacity="1"
         stroke-width="0.341761"
         stroke-linejoin="round"
         stroke="#000000"
         stroke-opacity="1"
         d="m 277.16132,203.5323 c 2.15309,0 3.88326,1.69171 3.88326,3.76791 0,2.08901 -1.73017,3.78072 -3.88326,3.78072 -2.14027,0 -3.88325,-1.69171 -3.88325,-3.78072 0,-2.0762 1.74298,-3.76791 3.88325,-3.76791 z"
         id="path9650" />
      <path
         fill="#000000"
         fill-opacity="1"
         stroke-width="0.341761"
         stroke-linejoin="round"
         stroke="#000000"
         stroke-opacity="1"
         d="m 301.34515,191.22891 c 2.14028,0 3.88326,1.69171 3.88326,3.76791 0,2.08902 -1.74298,3.78073 -3.88326,3.78073 -2.15309,0 -3.89606,-1.69171 -3.89606,-3.78073 0,-2.0762 1.74297,-3.76791 3.89606,-3.76791 z"
         id="path9652" />
      <rect
         x="297.44913"
         y="227.48543"
         fill="#000000"
         fill-opacity="1"
         stroke-width="0.341761"
         stroke-linejoin="round"
         stroke="#000000"
         stroke-opacity="1"
         width="8.2022543"
         height="8.2022543"
         id="rect9654" />
      <line
         fill="none"
         stroke-width="0.295564"
         stroke-linejoin="round"
         stroke="#000000"
         stroke-opacity="1"
         x1="256.43787"
         y1="211.08092"
         x2="293.34802"
         y2="175.84074"
         id="line9656" />
      <path
         fill="#000000"
         fill-opacity="1"
         stroke-linejoin="round"
         d="m 256.42501,224.88989 0.0129,-1.70453 h 0.33322 v 1.70453 z m 0.0129,-3.40906 v -1.71735 h 0.33322 v 1.71735 z m 0,-3.42188 v -1.70453 h 0.34603 l -0.0128,1.70453 z m 0,-3.42188 v -1.70452 h 0.34603 v 1.70452 z m 0,-3.40906 v -1.71735 h 0.34603 v 1.71735 z m 0,-3.42188 v -1.70453 h 0.34603 v 1.70453 z m 0,-3.42188 v -1.70453 h 0.34603 v 1.70453 z m 0,-3.40906 0.0128,-1.71734 h 0.33322 v 1.71734 z m 0.0128,-3.42187 v -1.70454 h 0.33322 v 1.70454 z m 0,-3.42188 v -1.70453 h 0.33322 v 1.70453 z m 0,-3.40906 v -1.71735 h 0.34603 v 1.71735 z m -0.0256,37.58939 v -1.70454 h 0.34603 v 1.70454 z"
         id="path9660"
         style="stroke-width:0.12816" />
      <path
         fill="#000000"
         fill-opacity="1"
         stroke-width="0.341761"
         stroke-linejoin="round"
         stroke="#000000"
         stroke-opacity="1"
         d="m 256.65569,228.13906 c 2.15309,0 3.88325,1.69171 3.88325,3.7679 0,2.08902 -1.73016,3.78073 -3.88325,3.78073 -2.14028,0 -3.88325,-1.69171 -3.88325,-3.78073 0,-2.07619 1.74297,-3.7679 3.88325,-3.7679 z"
         id="path9662" />
      <line
         fill="none"
         stroke-width="1.02528"
         stroke-linejoin="round"
         stroke="#000000"
         stroke-opacity="1"
         x1="256.43787"
         y1="231.58656"
         x2="301.55026"
         y2="231.58656"
         id="line9664" />
      <path
         fill="#ffffff"
         fill-opacity="1"
         stroke-width="0.341761"
         stroke-linejoin="round"
         stroke="#000000"
         stroke-opacity="1"
         d="m 256.57879,187.79422 c 2.15309,0 3.88326,1.69171 3.88326,3.78073 0,2.08901 -1.73017,3.78072 -3.88326,3.78072 -2.14027,0 -3.88325,-1.69171 -3.88325,-3.78072 0,-2.08902 1.74298,-3.78073 3.88325,-3.78073 z"
         id="path9666" />
      <line
         fill="none"
         stroke-width="0.341761"
         stroke-linejoin="round"
         stroke="#000000"
         stroke-opacity="1"
         x1="290.36176"
         y1="183.33424"
         x2="297.03888"
         y2="169.32635"
         id="line9668" />
      <g
         id="g4416"
         transform="matrix(0.87477693,0,0,0.87477693,26.431788,19.306078)">
        <line
           fill="none"
           stroke-width="1.17205"
           stroke-linejoin="round"
           stroke="#000000"
           stroke-opacity="1"
           x1="230.02574"
           y1="265.2381"
           x2="244.09048"
           y2="265.2381"
           id="line9670" />
        <path
           fill="#000000"
           fill-opacity="1"
           stroke-linejoin="round"
           d="m 286.19588,265.04032 h 2.18034 v 0.39557 h -2.18034 z m 4.37706,0 h 2.18032 v 0.39557 h -2.18032 z m 4.36065,0 h 0.88525 v 0.39557 h -0.88525 z m -13.11475,0 h 2.19672 v 0.39557 h -2.19672 z"
           id="path9674"
           style="stroke-width:0.154975" />
        <text
           xml:space="preserve"
           id="text9678"
           x="242.13315"
           y="266.7684"
           style="font-size:1.75807px;stroke-width:0.146506">			 <tspan
   style="font-size:5.46956px;font-family:'メイリオ'"
   letter-spacing="0em"
   fill="#000000"
   fill-opacity="1"
   stroke-width="0.0293012"
   stroke-linejoin="round"
   id="tspan9676">Strong Link</tspan>		</text>
        <text
           xml:space="preserve"
           id="text9682"
           x="295.61658"
           y="267.29852"
           style="font-size:1.75807px;stroke-width:0.146506">			 <tspan
   style="font-size:5.46956px;font-family:'メイリオ'"
   letter-spacing="0em"
   fill="#000000"
   fill-opacity="1"
   stroke-width="0.0293012"
   stroke-linejoin="round"
   id="tspan9680">Weak Link</tspan>		</text>
      </g>
      <rect
         x="293.34802"
         y="163.53737"
         fill="#ffffff"
         fill-opacity="1"
         stroke-width="0.341761"
         stroke-linejoin="round"
         stroke="#000000"
         stroke-opacity="1"
         width="90.147644"
         height="12.303381"
         id="rect9684" />
      <text
         xml:space="preserve"
         id="text9688"
         x="296.04068"
         y="171.50937"
         style="font-size:1.53792px;stroke-width:0.12816">			 <tspan
   style="font-size:4.78465px;font-family:'メイリオ'"
   letter-spacing="0em"
   fill="#000000"
   fill-opacity="1"
   stroke-width="0.025632"
   stroke-linejoin="round"
   id="tspan9686">Two series are linked by weak links</tspan>		</text>
    </g>
  </g>
</svg>
