<?xml version="1.0" encoding="UTF-8" standalone="no"?>
<!-- Created with Inkscape (http://www.inkscape.org/) -->

<svg
   width="184.21146mm"
   height="87.155006mm"
   viewBox="0 0 184.21146 87.155006"
   version="1.1"
   id="svg2646"
   inkscape:version="1.4 (86a8ad7, 2024-10-11)"
   sodipodi:docname="img46a.svg"
   inkscape:export-filename="img46a.png"
   inkscape:export-xdpi="96"
   inkscape:export-ydpi="96"
   xmlns:inkscape="http://www.inkscape.org/namespaces/inkscape"
   xmlns:sodipodi="http://sodipodi.sourceforge.net/DTD/sodipodi-0.dtd"
   xmlns="http://www.w3.org/2000/svg"
   xmlns:svg="http://www.w3.org/2000/svg">
  <sodipodi:namedview
     id="namedview2648"
     pagecolor="#ffffff"
     bordercolor="#000000"
     borderopacity="0.25"
     inkscape:showpageshadow="2"
     inkscape:pageopacity="0.0"
     inkscape:pagecheckerboard="0"
     inkscape:deskcolor="#d1d1d1"
     inkscape:document-units="mm"
     showgrid="false"
     inkscape:zoom="0.41260131"
     inkscape:cx="372.02984"
     inkscape:cy="729.51779"
     inkscape:window-width="2145"
     inkscape:window-height="1560"
     inkscape:window-x="751"
     inkscape:window-y="174"
     inkscape:window-maximized="0"
     inkscape:current-layer="layer1" />
  <defs
     id="defs2643" />
  <g
     inkscape:label="Layer 1"
     inkscape:groupmode="layer"
     id="layer1"
     transform="translate(-41.933564,-63.577379)">
    <g
       id="g6945"
       inkscape:export-filename="img46a.png"
       inkscape:export-xdpi="96"
       inkscape:export-ydpi="96"
       transform="matrix(0.81723483,0,0,0.81723483,38.019054,29.198406)">
      <line
         fill="none"
         stroke-width="1.02379"
         stroke-linejoin="round"
         stroke="#000000"
         stroke-opacity="1"
         x1="140.03465"
         y1="58.626942"
         x2="189.17693"
         y2="58.626942"
         id="line9406" />
      <line
         fill="none"
         stroke-width="1.02379"
         stroke-linejoin="round"
         stroke="#000000"
         stroke-opacity="1"
         x1="135.9395"
         y1="58.626942"
         x2="152.32021"
         y2="78.886612"
         id="line9408" />
      <line
         fill="none"
         stroke-width="1.02379"
         stroke-linejoin="round"
         stroke="#000000"
         stroke-opacity="1"
         x1="152.32021"
         y1="79.102821"
         x2="152.32021"
         y2="115.95942"
         id="line9410" />
      <path
         fill="#000000"
         fill-opacity="1"
         stroke-linejoin="round"
         d="m 146.523,115.88648 h 1.70204 v 0.34169 H 146.523 Z m 3.4169,0 h 1.70205 v 0.34169 h -1.70205 z m 3.40412,0 h 1.71484 v 0.34169 h -1.71484 z m 3.41691,0 h 1.70205 v 0.34169 h -1.70205 z m 3.4169,0 h 1.70206 v 0.34169 h -1.70206 z m 3.40411,0 h 1.71486 v 0.34169 h -1.71486 z m 3.41692,0 h 1.70205 v 0.34169 h -1.70205 z m 3.41692,0 h 1.70206 v 0.34169 h -1.70206 z m 3.4041,0 h 1.71487 v 0.34169 h -1.71487 z m 3.41693,0 h 1.70205 v 0.34169 h -1.70205 z m 3.4169,0 h 1.70205 v 0.34169 h -1.70205 z m 3.40411,0 h 1.71486 v 0.34169 h -1.71486 z m 3.41691,0 h 1.70207 v 0.34169 h -1.70207 z m 3.41692,0 h 1.70206 v 0.34169 h -1.70206 z m 3.40412,0 h 1.71486 v 0.34169 h -1.71486 z m 3.41691,0 h 1.70206 v 0.34169 h -1.70206 z m 3.41691,0 h 1.70206 v 0.34169 h -1.70206 z m 3.40412,0 h 1.71485 v 0.34169 h -1.71485 z m 3.41692,0 h 1.70205 v 0.34169 h -1.70205 z m 3.41689,0 h 1.35654 v 0.34169 h -1.35654 z m -68.26145,0 h 1.71485 v 0.34169 h -1.71485 z"
         id="path9414"
         style="stroke-width:0.127975" />
      <path
         fill="#ffffff"
         fill-opacity="1"
         stroke-width="0.341265"
         stroke-linejoin="round"
         stroke="#000000"
         stroke-opacity="1"
         d="m 136.15706,54.5318 c 2.14996,0 3.87762,1.68798 3.87762,3.771401 0,2.083421 -1.72766,3.77268 -3.87762,3.77268 -2.13717,0 -3.87761,-1.689259 -3.87761,-3.77268 0,-2.083421 1.74044,-3.771401 3.87761,-3.771401 z"
         id="path9416" />
      <rect
         x="148.22501"
         y="75.007652"
         fill="#ffffff"
         fill-opacity="1"
         stroke-width="0.341265"
         stroke-linejoin="round"
         stroke="#000000"
         stroke-opacity="1"
         width="8.1903515"
         height="8.1903515"
         id="rect9418" />
      <path
         fill="#ffffff"
         fill-opacity="1"
         stroke-width="0.341265"
         stroke-linejoin="round"
         stroke="#000000"
         stroke-opacity="1"
         d="m 152.32021,111.86426 c 2.26513,0 4.09518,1.73662 4.09518,3.87889 0,2.14358 -1.83005,3.88019 -4.09518,3.88019 -2.25235,0 -4.09517,-1.73661 -4.09517,-3.88019 0,-2.14227 1.84282,-3.87889 4.09517,-3.87889 z"
         id="path9420" />
      <path
         fill="#000000"
         fill-opacity="1"
         stroke-width="0.341265"
         stroke-linejoin="round"
         stroke="#000000"
         stroke-opacity="1"
         d="m 201.04001,111.86426 -3.67287,6.6265 h 7.34572 z"
         id="path9422" />
      <path
         fill="#000000"
         fill-opacity="1"
         stroke-linejoin="round"
         d="m 188.49852,91.216897 h 1.70208 v 0.341693 h -1.70208 z m 3.41692,0 h 1.70206 v 0.341693 h -1.70206 z m 3.40411,0 h 1.71487 v 0.341693 h -1.71487 z m 3.41693,0 h 1.70204 v 0.341693 h -1.70204 z m 3.4169,0 h 1.70205 v 0.341693 h -1.70205 z m 3.40411,0 h 1.71486 v 0.341693 h -1.71486 z m 3.41693,0 h 1.70205 v 0.341693 h -1.70205 z m 3.41689,0 h 1.70207 v 0.341693 h -1.70207 z m 3.40412,0 h 1.71486 v 0.341693 h -1.71486 z m 2.4443,1.320697 v 1.705892 h -0.34552 v -1.705892 z m 0,3.413071 v 1.705899 h -0.34552 v -1.705899 z m 0,3.411799 v 1.707166 h -0.34552 v -1.707166 z m 0,3.413056 v 1.70591 h -0.34552 v -1.70591 z m 0,3.41308 v 1.70589 h -0.34552 v -1.70589 z m 0,3.41179 v 1.70718 h -0.34552 v -1.70718 z m 0,3.41309 v 1.70588 h -0.34552 v -1.70588 z m 0,3.41306 v 1.7059 h -0.34552 v -1.7059 z m 0,3.41179 v 1.70717 h -0.34552 v -1.70717 z m 0,3.41308 v 0.4671 l -0.0129,0.0166 v 0.0167 0.0167 0.0154 l -0.0129,0.0153 -0.0129,0.014 v 0.014 l -0.0129,0.0117 -0.0129,0.0117 -0.0129,0.0107 -0.0256,0.01 -0.0129,0.006 -0.0129,0.006 -0.0129,0.003 -0.0129,0.002 h -0.0257 -1.24135 v -0.3404 h 1.24135 l -0.16636,0.17019 v -0.4671 z m -3.12256,0.63731 h -1.70206 v -0.34042 h 1.70206 z m -3.41691,0 h -1.70206 v -0.34042 h 1.70206 z m -3.40413,0 h -1.71484 v -0.34042 h 1.71484 z m -3.41689,0 h -1.70207 v -0.34042 h 1.70207 z m -3.41692,0 h -1.70206 v -0.34042 h 1.70206 z m -3.40412,0 h -1.71485 v -0.34042 h 1.71485 z m -3.41691,0 h -1.70205 v -0.34042 h 1.70205 z m -3.41691,0 h -1.70206 v -0.34042 h 1.70206 z m -3.40412,0 h -1.71485 v -0.34042 h 1.71485 z m -2.90501,-0.85231 v -1.70718 h 0.34552 v 1.70718 z m 0,-3.41307 v -1.7059 h 0.34552 v 1.7059 z m 0,-3.41308 v -1.70589 h 0.34552 v 1.70589 z m 0,-3.41179 v -1.70718 h 0.34552 v 1.70718 z m 0,-3.41308 v -1.70589 h 0.34552 v 1.70589 z m 0,-3.41306 v -1.7059 h 0.34552 v 1.7059 z m 0,-3.41181 v -1.70717 h 0.34552 v 1.70717 z m 0,-3.413056 v -1.7059 h 0.34552 v 1.7059 z m 0,-3.413077 v -1.705894 h 0.34552 v 1.705894 z m 0,-3.411791 v -0.934215 -0.01663 -0.01663 l 0.0129,-0.01664 v -0.01531 l 0.0129,-0.01539 v -0.01408 l 0.0129,-0.01408 0.0129,-0.01276 0.0129,-0.01029 0.0129,-0.01029 0.0129,-0.0089 0.0129,-0.0063 0.0129,-0.0063 0.0256,-0.0039 0.0129,-0.0025 0.0129,-0.0014 h 1.71485 v 0.341694 h -1.71485 l 0.17916,-0.170209 v 0.934216 z"
         id="path9424"
         style="stroke-width:0.127975" />
      <line
         fill="none"
         stroke-width="1.02379"
         stroke-linejoin="round"
         stroke="#000000"
         stroke-opacity="1"
         x1="189.17693"
         y1="58.626942"
         x2="205.55759"
         y2="66.817291"
         id="line9428" />
      <rect
         x="185.08173"
         y="54.531769"
         fill="#ffffff"
         fill-opacity="1"
         stroke-width="0.341265"
         stroke-linejoin="round"
         stroke="#000000"
         stroke-opacity="1"
         width="8.1903515"
         height="8.1903515"
         id="rect9430" />
      <line
         fill="none"
         stroke-width="1.02379"
         stroke-linejoin="round"
         stroke="#000000"
         stroke-opacity="1"
         x1="205.55759"
         y1="66.817291"
         x2="205.55759"
         y2="99.578705"
         id="line9432" />
      <path
         fill="#ffffff"
         fill-opacity="1"
         stroke-width="0.341265"
         stroke-linejoin="round"
         stroke="#000000"
         stroke-opacity="1"
         d="m 205.77505,63.368421 c 2.14998,0 3.87762,1.689262 3.87762,3.771401 0,2.083423 -1.72764,3.77268 -3.87762,3.77268 -2.13716,0 -3.87762,-1.689257 -3.87762,-3.77268 0,-2.082139 1.74046,-3.771401 3.87762,-3.771401 z"
         id="path9434" />
      <rect
         x="201.46242"
         y="95.483528"
         fill="#ffffff"
         fill-opacity="1"
         stroke-width="0.341265"
         stroke-linejoin="round"
         stroke="#000000"
         stroke-opacity="1"
         width="8.1903515"
         height="8.1903515"
         id="rect9436" />
      <line
         fill="none"
         stroke-width="1.04564"
         stroke-linejoin="round"
         stroke="#000000"
         stroke-opacity="1"
         x1="28.911856"
         y1="59.597694"
         x2="79.102814"
         y2="59.597694"
         id="line9438" />
      <line
         fill="none"
         stroke-width="1.04564"
         stroke-linejoin="round"
         stroke="#000000"
         stroke-opacity="1"
         x1="24.72928"
         y1="59.597694"
         x2="41.459599"
         y2="80.289764"
         id="line9440" />
      <line
         fill="none"
         stroke-width="1.04564"
         stroke-linejoin="round"
         stroke="#000000"
         stroke-opacity="1"
         x1="41.459599"
         y1="80.510582"
         x2="41.459599"
         y2="118.15381"
         id="line9442" />
      <path
         fill="#000000"
         fill-opacity="1"
         stroke-linejoin="round"
         d="m 36.055133,117.74565 h 1.738384 v 0.34899 h -1.738384 z m 3.489839,0 h 1.738385 v 0.34899 h -1.738385 z m 3.476769,0 h 1.751455 v 0.34899 h -1.751455 z m 3.489837,0 h 1.738385 v 0.34899 h -1.738385 z m 3.48984,0 h 1.738384 v 0.34899 h -1.738384 z m 3.476767,0 h 1.751456 v 0.34899 h -1.751456 z m 3.489842,0 h 1.738385 v 0.34899 h -1.738385 z m 3.489839,0 h 1.738385 v 0.34899 h -1.738385 z m 3.476767,0 h 1.751457 v 0.34899 h -1.751457 z m 3.48984,0 h 1.738383 v 0.34899 h -1.738383 z m 3.489837,0 h 1.738384 v 0.34899 H 70.91431 Z m 3.476773,0 h 1.751454 v 0.34899 h -1.751454 z m 3.489842,0 h 1.738378 v 0.34899 h -1.738378 z m 3.489834,0 h 1.738389 v 0.34899 h -1.738389 z m 3.476777,0 h 1.751447 v 0.34899 h -1.751447 z m 3.489835,0 h 1.738378 v 0.34899 h -1.738378 z m 3.489835,0 h 1.738387 v 0.34899 h -1.738387 z m -59.261913,0 h 1.751454 v 0.34899 h -1.751454 z"
         id="path9446"
         style="stroke-width:0.130706" />
      <path
         fill="#ffffff"
         fill-opacity="1"
         stroke-width="0.348548"
         stroke-linejoin="round"
         stroke="#000000"
         stroke-opacity="1"
         d="m 24.951503,55.415151 c 2.195854,0 3.960379,1.724006 3.960379,3.851894 0,2.127887 -1.764525,3.853199 -3.960379,3.853199 -2.182782,0 -3.960379,-1.725312 -3.960379,-3.853199 0,-2.127888 1.777597,-3.851894 3.960379,-3.851894 z"
         id="path9448" />
      <rect
         x="37.277016"
         y="76.328011"
         fill="#ffffff"
         fill-opacity="1"
         stroke-width="0.348548"
         stroke-linejoin="round"
         stroke="#000000"
         stroke-opacity="1"
         width="8.3651571"
         height="8.3651571"
         id="rect9450" />
      <path
         fill="#ffffff"
         fill-opacity="1"
         stroke-width="0.348548"
         stroke-linejoin="round"
         stroke="#000000"
         stroke-opacity="1"
         d="m 41.459615,113.97125 c 2.313492,0 4.18258,1.77368 4.18258,3.96168 0,2.18933 -1.869088,3.963 -4.18258,3.963 -2.300412,0 -4.182578,-1.77367 -4.182578,-3.963 0,-2.188 1.882166,-3.96168 4.182578,-3.96168 z"
         id="path9452" />
      <path
         fill="#000000"
         fill-opacity="1"
         stroke-linejoin="round"
         d="m 79.120739,53.229866 v 1.743612 h -0.352907 v -1.743612 z m 0,3.485916 v 1.742305 h -0.352907 v -1.742305 z m 0,3.485917 v 1.742306 h -0.352907 v -1.742306 z m 0,3.484612 v 1.743613 h -0.352907 v -1.743613 z m 0,3.485919 v 1.742306 H 78.767832 V 67.17223 Z m 0,3.485916 v 1.742308 h -0.352907 v -1.742308 z m 0,3.484613 v 1.743612 h -0.352907 v -1.743612 z m 0,3.485916 v 1.742306 h -0.352907 v -1.742306 z m 0,3.485921 v 1.742307 h -0.352907 v -1.742307 z m 0,3.484607 v 1.743615 h -0.352907 v -1.743615 z m 0,3.485921 v 1.742306 h -0.352907 v -1.742306 z m 0,3.485915 v 1.742307 h -0.352907 v -1.742307 z m 0,3.484613 v 1.743613 h -0.352907 v -1.743613 z m 0,3.48592 v 1.742298 h -0.352907 v -1.742298 z m 0,3.485928 v 1.7423 h -0.352907 v -1.7423 z m 0,3.48461 v 1.7436 h -0.352907 v -1.7436 z m 0,3.48592 v 1.7423 h -0.352907 v -1.7423 z m 0,3.48591 v 1.7423 h -0.352907 v -1.7423 z m 0,3.48461 v 1.74363 h -0.352907 v -1.74363 z m 0,3.48591 v 1.74231 h -0.352907 v -1.74231 z m 0,3.48593 v 1.7423 h -0.352907 v -1.7423 z m 0,-73.195136 v 1.742304 h -0.352907 v -1.742304 z"
         id="path9458"
         style="stroke-width:0.130706" />
      <path
         fill="#000000"
         fill-opacity="1"
         stroke-width="0.348548"
         stroke-linejoin="round"
         stroke="#000000"
         stroke-opacity="1"
         d="m 79.10283,114.07059 -4.18258,6.6699 h 8.36515 z"
         id="path9460" />
      <rect
         x="74.920235"
         y="55.415119"
         fill="#ffffff"
         fill-opacity="1"
         stroke-width="0.348548"
         stroke-linejoin="round"
         stroke="#000000"
         stroke-opacity="1"
         width="8.3651571"
         height="8.3651571"
         id="rect9462" />
      <text
         xml:space="preserve"
         id="text9480"
         x="48.64431"
         y="147.78197"
         style="font-size:1.433px;stroke-width:0.119417">		 <tspan
   style="font-size:4.45821px;font-family:'メイリオ'"
   letter-spacing="0em"
   fill="#000000"
   fill-opacity="1"
   stroke-width="0.0238833"
   stroke-linejoin="round"
   id="tspan9478">▲ is associated with two Cells ---&gt; ▲ is not a focused digit</tspan>	</text>
      <rect
         x="4.9494972"
         y="42.22699"
         fill="none"
         stroke-width="0.319107"
         stroke-linejoin="round"
         stroke="#000000"
         stroke-opacity="1"
         width="107.21986"
         height="99.561302"
         id="rect4556" />
      <rect
         x="122.81876"
         y="42.22699"
         fill="none"
         stroke-width="0.319107"
         stroke-linejoin="round"
         stroke="#000000"
         stroke-opacity="1"
         width="107.21986"
         height="99.561302"
         id="rect4558" />
      <g
         id="g4572"
         transform="matrix(0.93142151,0,0,0.93142151,-81.140171,-114.08297)">
        <line
           fill="none"
           stroke-width="1.17205"
           stroke-linejoin="round"
           stroke="#000000"
           stroke-opacity="1"
           x1="230.02574"
           y1="265.2381"
           x2="244.09048"
           y2="265.2381"
           id="line4560" />
        <path
           fill="#000000"
           fill-opacity="1"
           stroke-linejoin="round"
           d="m 286.19588,265.04032 h 2.18034 v 0.39557 h -2.18034 z m 4.37706,0 h 2.18032 v 0.39557 h -2.18032 z m 4.36065,0 h 0.88525 v 0.39557 h -0.88525 z m -13.11475,0 h 2.19672 v 0.39557 h -2.19672 z"
           id="path4562"
           style="stroke-width:0.154975" />
        <text
           xml:space="preserve"
           id="text4566"
           x="242.13315"
           y="266.7684"
           style="font-size:1.75807px;stroke-width:0.146506">			 <tspan
   style="font-size:5.46956px;font-family:'メイリオ'"
   letter-spacing="0em"
   fill="#000000"
   fill-opacity="1"
   stroke-width="0.0293012"
   stroke-linejoin="round"
   id="tspan4564">Strong Link</tspan>		</text>
        <text
           xml:space="preserve"
           id="text4570"
           x="295.61658"
           y="267.29852"
           style="font-size:1.75807px;stroke-width:0.146506">			 <tspan
   style="font-size:5.46956px;font-family:'メイリオ'"
   letter-spacing="0em"
   fill="#000000"
   fill-opacity="1"
   stroke-width="0.0293012"
   stroke-linejoin="round"
   id="tspan4568">Weak Link</tspan>		</text>
      </g>
      <g
         id="g4586"
         transform="matrix(0.93142151,0,0,0.93142151,-196.4294,-114.08297)">
        <line
           fill="none"
           stroke-width="1.17205"
           stroke-linejoin="round"
           stroke="#000000"
           stroke-opacity="1"
           x1="230.02574"
           y1="265.2381"
           x2="244.09048"
           y2="265.2381"
           id="line4574" />
        <path
           fill="#000000"
           fill-opacity="1"
           stroke-linejoin="round"
           d="m 286.19588,265.04032 h 2.18034 v 0.39557 h -2.18034 z m 4.37706,0 h 2.18032 v 0.39557 h -2.18032 z m 4.36065,0 h 0.88525 v 0.39557 h -0.88525 z m -13.11475,0 h 2.19672 v 0.39557 h -2.19672 z"
           id="path4576"
           style="stroke-width:0.154975" />
        <text
           xml:space="preserve"
           id="text4580"
           x="242.13315"
           y="266.7684"
           style="font-size:1.75807px;stroke-width:0.146506">			 <tspan
   style="font-size:5.46956px;font-family:'メイリオ'"
   letter-spacing="0em"
   fill="#000000"
   fill-opacity="1"
   stroke-width="0.0293012"
   stroke-linejoin="round"
   id="tspan4578">Strong Link</tspan>		</text>
        <text
           xml:space="preserve"
           id="text4584"
           x="295.61658"
           y="267.29852"
           style="font-size:1.75807px;stroke-width:0.146506">			 <tspan
   style="font-size:5.46956px;font-family:'メイリオ'"
   letter-spacing="0em"
   fill="#000000"
   fill-opacity="1"
   stroke-width="0.0293012"
   stroke-linejoin="round"
   id="tspan4582">Weak Link</tspan>		</text>
      </g>
    </g>
  </g>
</svg>
