<?xml version="1.0" encoding="UTF-8" standalone="no"?>
<!-- Created with Inkscape (http://www.inkscape.org/) -->

<svg
   width="59.641209mm"
   height="62.834843mm"
   viewBox="0 0 59.641209 62.834843"
   version="1.1"
   id="svg4359"
   inkscape:version="1.2.2 (732a01da63, 2022-12-09)"
   sodipodi:docname="image35.svg"
   xmlns:inkscape="http://www.inkscape.org/namespaces/inkscape"
   xmlns:sodipodi="http://sodipodi.sourceforge.net/DTD/sodipodi-0.dtd"
   xmlns="http://www.w3.org/2000/svg"
   xmlns:svg="http://www.w3.org/2000/svg">
  <sodipodi:namedview
     id="namedview4361"
     pagecolor="#ffffff"
     bordercolor="#000000"
     borderopacity="0.25"
     inkscape:showpageshadow="2"
     inkscape:pageopacity="0.0"
     inkscape:pagecheckerboard="0"
     inkscape:deskcolor="#d1d1d1"
     inkscape:document-units="mm"
     showgrid="true"
     inkscape:zoom="1.829812"
     inkscape:cx="633.94491"
     inkscape:cy="493.76657"
     inkscape:window-width="2331"
     inkscape:window-height="1610"
     inkscape:window-x="1192"
     inkscape:window-y="1141"
     inkscape:window-maximized="0"
     inkscape:current-layer="layer1">
    <inkscape:grid
       type="xygrid"
       id="grid5823"
       originx="-150.56357"
       originy="-90.015016"
       spacingy="1"
       spacingx="1"
       units="mm"
       visible="true" />
  </sodipodi:namedview>
  <defs
     id="defs4356" />
  <g
     inkscape:label="Layer 1"
     inkscape:groupmode="layer"
     id="layer1"
     transform="translate(-150.56356,-90.015017)">
    <rect
       x="154.15208"
       y="92.461754"
       fill="#ffffff"
       fill-opacity="1"
       stroke-width="0.255318"
       stroke-linejoin="round"
       stroke="#000000"
       stroke-opacity="1"
       width="55.148975"
       height="55.148975"
       id="rect2022"
       inkscape:export-filename="img35a2.png"
       inkscape:export-xdpi="96"
       inkscape:export-ydpi="96" />
    <path
       fill="#ffffff"
       fill-opacity="1"
       stroke-width="0.255318"
       stroke-linejoin="round"
       stroke="#000000"
       stroke-opacity="1"
       d="m 191.01375,94.472497 c 6.76916,0 12.25533,5.48684 12.25533,12.255313 0,6.7684 -5.48617,12.25534 -12.25533,12.25534 -6.76916,0 -12.25533,-5.48694 -12.25533,-12.25534 0,-6.768473 5.48617,-12.255313 12.25533,-12.255313 z"
       id="path2024" />
    <path
       fill="#000000"
       fill-opacity="1"
       stroke-linejoin="round"
       d="m 156.58772,110.90862 h 0.76596 v 0.25533 h -0.76596 z m 1.53194,0 h 0.76594 v 0.25533 h -0.76594 z m 1.53191,0 h 0.76594 v 0.25533 h -0.76594 z m 1.5319,0 h 0.76596 v 0.25533 h -0.76596 z m 1.53192,0 h 0.76595 v 0.25533 h -0.76595 z m 1.53191,0 h 0.76596 v 0.25533 h -0.76596 z m 1.53193,0 h 0.76595 v 0.25533 h -0.76595 z m 1.53192,0 h 0.76594 v 0.25533 h -0.76594 z m 1.5319,0 h 0.76596 v 0.25533 h -0.76596 z m 1.53192,0 h 0.76595 v 0.25533 h -0.76595 z m 1.53191,0 h 0.76596 v 0.25533 h -0.76596 z m 1.53192,0 h 0.76596 v 0.25533 h -0.76596 z m 1.53193,0 h 0.76594 v 0.25533 h -0.76594 z m 1.5319,0 h 0.76596 v 0.25533 h -0.76596 z m 1.53192,0 h 0.76597 v 0.25533 h -0.76597 z m 1.53191,0 h 0.76596 v 0.25533 h -0.76596 z m 1.53192,0 h 0.76596 v 0.25533 h -0.76596 z m 1.53191,0 h 0.76596 v 0.25533 h -0.76596 z m 1.53192,0 h 0.76597 v 0.25533 h -0.76597 z m 1.53192,0 h 0.76597 v 0.25533 h -0.76597 z m 1.53191,0 h 0.76596 v 0.25533 h -0.76596 z m 1.53192,0 h 0.76596 v 0.25533 h -0.76596 z m 1.53191,0 h 0.76596 v 0.25533 h -0.76596 z m 1.53191,0 h 0.76598 v 0.25533 h -0.76598 z m 1.53193,0 h 0.76597 v 0.25533 h -0.76597 z m 1.53191,0 h 0.76596 v 0.25533 h -0.76596 z m 1.53192,0 h 0.76596 v 0.25533 h -0.76596 z m 1.53191,0 h 0.76596 v 0.25533 h -0.76596 z m 1.53192,0 h 0.76596 v 0.25533 h -0.76596 z m 1.53192,0 h 0.76597 v 0.25533 h -0.76597 z m 1.53191,0 h 0.76596 v 0.25533 h -0.76596 z m 1.53192,0 h 0.76596 v 0.25533 h -0.76596 z m 1.53193,0 h 0.76594 v 0.25533 h -0.76594 z m 1.5319,0 h 0.76596 v 0.25533 h -0.76596 z m 1.53192,0 h 0.76595 v 0.25533 h -0.76595 z m 1.53191,0 v 0.25533 z m -55.14897,0 h 0.76595 v 0.25533 h -0.76595 z"
       id="path2028"
       style="stroke-width:0.0957443" />
    <line
       fill="none"
       stroke-width="0.255318"
       stroke-linejoin="round"
       stroke="#000000"
       stroke-opacity="1"
       x1="169.47125"
       y1="92.461838"
       x2="169.47125"
       y2="147.61084"
       id="line2030" />
    <path
       fill="#000000"
       fill-opacity="1"
       stroke-linejoin="round"
       d="m 155.2648,129.55711 h 0.76596 v 0.25534 h -0.76596 z m 1.53194,0 h 0.76594 v 0.25534 h -0.76594 z m 1.53191,0 h 0.76594 v 0.25534 h -0.76594 z m 1.5319,0 h 0.76596 v 0.25534 h -0.76596 z m 1.53192,0 h 0.76595 v 0.25534 h -0.76595 z m 1.53191,0 h 0.76596 v 0.25534 h -0.76596 z m 1.53193,0 h 0.76595 v 0.25534 h -0.76595 z m 1.53192,0 h 0.76594 v 0.25534 h -0.76594 z m 1.5319,0 h 0.76596 v 0.25534 h -0.76596 z m 1.53192,0 h 0.76595 v 0.25534 h -0.76595 z m 1.53191,0 h 0.76596 v 0.25534 h -0.76596 z m 1.53192,0 h 0.76596 v 0.25534 h -0.76596 z m 1.53193,0 h 0.76594 v 0.25534 h -0.76594 z m 1.5319,0 h 0.76596 v 0.25534 h -0.76596 z m 1.53192,0 h 0.76597 v 0.25534 h -0.76597 z m 1.53191,0 h 0.76596 v 0.25534 h -0.76596 z m 1.53192,0 h 0.76596 v 0.25534 h -0.76596 z m 1.53191,0 h 0.76596 v 0.25534 h -0.76596 z m 1.53192,0 h 0.76597 v 0.25534 h -0.76597 z m 1.53192,0 h 0.76597 v 0.25534 h -0.76597 z m 1.53191,0 h 0.76596 v 0.25534 h -0.76596 z m 1.53192,0 h 0.76596 v 0.25534 h -0.76596 z m 1.53191,0 h 0.76596 v 0.25534 h -0.76596 z m 1.53191,0 h 0.76598 v 0.25534 h -0.76598 z m 1.53193,0 h 0.76597 v 0.25534 h -0.76597 z m 1.53191,0 h 0.76596 v 0.25534 h -0.76596 z m 1.53192,0 h 0.76596 v 0.25534 h -0.76596 z m 1.53191,0 h 0.76596 v 0.25534 h -0.76596 z m 1.53192,0 h 0.76596 v 0.25534 h -0.76596 z m 1.53192,0 h 0.76597 v 0.25534 h -0.76597 z m 1.53191,0 h 0.76596 v 0.25534 h -0.76596 z m 1.53192,0 h 0.76596 v 0.25534 h -0.76596 z m 1.53193,0 h 0.76594 v 0.25534 h -0.76594 z m 1.5319,0 h 0.76596 v 0.25534 h -0.76596 z m 1.53192,0 h 0.76595 v 0.25534 h -0.76595 z m 1.53191,0 v 0.25534 z m -55.14897,0 h 0.76595 v 0.25534 h -0.76595 z"
       id="path2034"
       style="stroke-width:0.0957443" />
    <text
       xml:space="preserve"
       id="text2038"
       x="149.41464"
       y="112.14468"
       style="font-size:1.14893px;stroke-width:0.0957443">		 <tspan
   style="font-size:2.55318px;font-family:'メイリオ'"
   letter-spacing="0em"
   fill="#000000"
   fill-opacity="1"
   stroke-width="0.0191489"
   stroke-linejoin="round"
   id="tspan2036">r0</tspan>	</text>
    <text
       xml:space="preserve"
       id="text2042"
       x="149.41464"
       y="130.52769"
       style="font-size:1.14893px;stroke-width:0.0957443">		 <tspan
   style="font-size:2.55318px;font-family:'メイリオ'"
   letter-spacing="0em"
   fill="#000000"
   fill-opacity="1"
   stroke-width="0.0191489"
   stroke-linejoin="round"
   id="tspan2040">r1</tspan>	</text>
    <text
       xml:space="preserve"
       id="text2046"
       x="166.53906"
       y="91.931145"
       style="font-size:1.14893px;stroke-width:0.0957443">		 <tspan
   style="font-size:2.55318px;font-family:'メイリオ'"
   letter-spacing="0em"
   fill="#000000"
   fill-opacity="1"
   stroke-width="0.0191489"
   stroke-linejoin="round"
   id="tspan2044">c0</tspan>	</text>
    <text
       xml:space="preserve"
       id="text2050"
       x="181.85823"
       y="91.931145"
       style="font-size:1.14893px;stroke-width:0.0957443">		 <tspan
   style="font-size:2.55318px;font-family:'メイリオ'"
   letter-spacing="0em"
   fill="#000000"
   fill-opacity="1"
   stroke-width="0.0191489"
   stroke-linejoin="round"
   id="tspan2048">c1</tspan>	</text>
    <text
       xml:space="preserve"
       id="text2054"
       x="194.11357"
       y="91.931145"
       style="font-size:1.14893px;stroke-width:0.0957443">		 <tspan
   style="font-size:2.55318px;font-family:'メイリオ'"
   letter-spacing="0em"
   fill="#000000"
   fill-opacity="1"
   stroke-width="0.0191489"
   stroke-linejoin="round"
   id="tspan2052">cx</tspan>	</text>
    <line
       fill="none"
       stroke-width="0.255318"
       stroke-linejoin="round"
       stroke="#000000"
       stroke-opacity="1"
       x1="184.79041"
       y1="92.036064"
       x2="184.79041"
       y2="147.18504"
       id="line2056" />
    <path
       fill="#000000"
       fill-opacity="1"
       stroke-linejoin="round"
       d="m 197.2886,93.860985 v 0.76595 h -0.25851 v -0.76595 z m 0,1.531913 v 0.765964 h -0.25851 v -0.765964 z m 0,1.531914 v 0.765963 h -0.25851 v -0.765963 z m 0,1.531913 v 0.76596 h -0.25851 v -0.76596 z m 0,1.53192 v 0.765955 h -0.25851 v -0.765955 z m 0,1.531915 v 0.76595 h -0.25851 v -0.76595 z m 0,1.53192 v 0.76596 h -0.25851 v -0.76596 z m 0,1.53191 v 0.76596 h -0.25851 v -0.76596 z m 0,1.53191 v 0.76597 h -0.25851 v -0.76597 z m 0,1.53193 v 0.76595 h -0.25851 v -0.76595 z m 0,1.53191 v 0.76595 h -0.25851 v -0.76595 z m 0,1.53192 v 0.76596 h -0.25851 v -0.76596 z m 0,1.53191 v 0.76596 h -0.25851 v -0.76596 z m 0,1.53191 v 0.76597 h -0.25851 v -0.76597 z m 0,1.53193 v 0.76595 h -0.25851 v -0.76595 z m 0,1.53191 h -0.25851 z m 0,-24.510648 v 0.76595 h -0.25851 v -0.76595 z"
       id="path2060"
       style="stroke-width:0.0957443" />
    <path
       fill="#ffffff"
       fill-opacity="1"
       stroke-width="0.0191489"
       stroke-linejoin="round"
       d="m 169.47118,107.78092 c 1.69468,0 3.06383,1.37174 3.06383,3.06382 0,1.69211 -1.36915,3.06385 -3.06383,3.06385 -1.6851,0 -3.06382,-1.37174 -3.06382,-3.06385 0,-1.69208 1.37872,-3.06382 3.06382,-3.06382 z"
       id="path2062" />
    <path
       fill="#ffffff"
       fill-opacity="1"
       stroke-width="0.0191489"
       stroke-linejoin="round"
       d="m 169.47118,126.16401 c 1.69468,0 3.06383,1.37164 3.06383,3.06382 0,1.69211 -1.36915,3.06384 -3.06383,3.06384 -1.6851,0 -3.06382,-1.37173 -3.06382,-3.06384 0,-1.69218 1.37872,-3.06382 3.06382,-3.06382 z"
       id="path2064" />
    <path
       fill="#ffffff"
       fill-opacity="1"
       stroke-width="0.0191489"
       stroke-linejoin="round"
       d="m 184.79034,107.78102 c 1.69468,0 3.06383,1.37164 3.06383,3.06383 0,1.69208 -1.36915,3.06382 -3.06383,3.06382 -1.68512,0 -3.06384,-1.37174 -3.06384,-3.06382 0,-1.69219 1.37872,-3.06383 3.06384,-3.06383 z"
       id="path2066" />
    <path
       fill="#ffffff"
       fill-opacity="1"
       stroke-width="0.0191489"
       stroke-linejoin="round"
       d="m 184.79034,126.16401 c 1.69468,0 3.06383,1.37164 3.06383,3.06382 0,1.69211 -1.36915,3.06384 -3.06383,3.06384 -1.68512,0 -3.06384,-1.37173 -3.06384,-3.06384 0,-1.69218 1.37872,-3.06382 3.06384,-3.06382 z"
       id="path2068" />
    <path
       fill="#ffffff"
       fill-opacity="1"
       stroke-width="0.0191489"
       stroke-linejoin="round"
       d="m 197.04566,107.78102 c 1.69469,0 3.06384,1.37164 3.06384,3.06383 0,1.69208 -1.36915,3.06382 -3.06384,3.06382 -1.6851,0 -3.06383,-1.37174 -3.06383,-3.06382 0,-1.69219 1.37873,-3.06383 3.06383,-3.06383 z"
       id="path2070" />
    <text
       xml:space="preserve"
       id="text2074"
       x="168.2935"
       y="112.37599"
       style="font-size:1.14893px;stroke-width:0.0957443"><tspan
   style="font-size:3.82979px;font-family:'メイリオ'"
   letter-spacing="0em"
   fill="#000000"
   fill-opacity="1"
   stroke-width="0.0191489"
   stroke-linejoin="round"
   id="tspan2072">X</tspan>	</text>
    <text
       xml:space="preserve"
       id="text2078"
       x="183.61266"
       y="112.37599"
       style="font-size:1.14893px;stroke-width:0.0957443"><tspan
   style="font-size:3.82979px;font-family:'メイリオ'"
   letter-spacing="0em"
   fill="#000000"
   fill-opacity="1"
   stroke-width="0.0191489"
   stroke-linejoin="round"
   id="tspan2076">X</tspan>	</text>
    <path
       fill="#ffffff"
       fill-opacity="1"
       stroke-width="0.255318"
       stroke-linejoin="round"
       stroke="#000000"
       stroke-opacity="1"
       d="m 197.04566,107.78102 c 1.69469,0 3.06384,1.37164 3.06384,3.06383 0,1.69208 -1.36915,3.06382 -3.06384,3.06382 -1.6851,0 -3.06383,-1.37174 -3.06383,-3.06382 0,-1.69219 1.37873,-3.06383 3.06383,-3.06383 z"
       id="path2080" />
    <text
       xml:space="preserve"
       id="text2084"
       x="195.868"
       y="112.37599"
       style="font-size:1.14893px;stroke-width:0.0957443"><tspan
   style="font-size:3.82979px;font-family:'メイリオ'"
   letter-spacing="0em"
   fill="#000000"
   fill-opacity="1"
   stroke-width="0.0191489"
   stroke-linejoin="round"
   id="tspan2082">X</tspan>	</text>
    <text
       xml:space="preserve"
       id="text2088"
       x="168.2935"
       y="130.75897"
       style="font-size:1.14893px;stroke-width:0.0957443"><tspan
   style="font-size:3.82979px;font-family:'メイリオ'"
   letter-spacing="0em"
   fill="#000000"
   fill-opacity="1"
   stroke-width="0.0191489"
   stroke-linejoin="round"
   id="tspan2086">X</tspan>	</text>
    <text
       xml:space="preserve"
       id="text2092"
       x="183.61266"
       y="130.75897"
       style="font-size:1.14893px;stroke-width:0.0957443"><tspan
   style="font-size:3.82979px;font-family:'メイリオ'"
   letter-spacing="0em"
   fill="#000000"
   fill-opacity="1"
   stroke-width="0.0191489"
   stroke-linejoin="round"
   id="tspan2090">X</tspan>	</text>
    <rect
       x="181.7265"
       y="99.834198"
       fill="#ffffff"
       fill-opacity="1"
       stroke-width="0.25532"
       stroke-linejoin="round"
       stroke="#000000"
       stroke-opacity="1"
       width="6.1276641"
       height="6.1276641"
       id="rect2094" />
    <text
       xml:space="preserve"
       id="text2098"
       x="183.4211"
       y="104.2377"
       style="font-size:1.14894px;stroke-width:0.0957448">	<tspan
   style="font-size:3.82979px;font-family:'メイリオ'"
   letter-spacing="0em"
   fill="#000000"
   fill-opacity="1"
   stroke-width="0.0191489"
   stroke-linejoin="round"
   id="tspan2096">X</tspan>		</text>
    <text
       xml:space="preserve"
       id="text2108"
       x="166.37862"
       y="152.78029"
       style="font-size:1.14893px;stroke-width:0.0957443">		 <tspan
   style="font-size:4.59575px;font-family:'メイリオ'"
   letter-spacing="0em"
   fill="#000000"
   fill-opacity="1"
   stroke-width="0.0191489"
   stroke-linejoin="round"
   id="tspan2106">Finned Fish</tspan>	</text>
  </g>
</svg>
