<?xml version="1.0" encoding="UTF-8" standalone="no"?>
<!-- Created with Inkscape (http://www.inkscape.org/) -->

<svg
   width="73.026001mm"
   height="43.583736mm"
   viewBox="0 0 73.026001 43.583736"
   version="1.1"
   id="svg17372"
   inkscape:version="1.3.2 (091e20e, 2023-11-25, custom)"
   sodipodi:docname="image103.svg"
   xmlns:inkscape="http://www.inkscape.org/namespaces/inkscape"
   xmlns:sodipodi="http://sodipodi.sourceforge.net/DTD/sodipodi-0.dtd"
   xmlns="http://www.w3.org/2000/svg"
   xmlns:svg="http://www.w3.org/2000/svg">
  <sodipodi:namedview
     id="namedview17374"
     pagecolor="#ffffff"
     bordercolor="#000000"
     borderopacity="0.25"
     inkscape:showpageshadow="2"
     inkscape:pageopacity="0.0"
     inkscape:pagecheckerboard="0"
     inkscape:deskcolor="#d1d1d1"
     inkscape:document-units="mm"
     showgrid="true"
     inkscape:zoom="2.0888392"
     inkscape:cx="321.23105"
     inkscape:cy="154.1526"
     inkscape:window-width="2149"
     inkscape:window-height="1718"
     inkscape:window-x="1593"
     inkscape:window-y="82"
     inkscape:window-maximized="0"
     inkscape:current-layer="layer1"
     showguides="false">
    <inkscape:grid
       type="xygrid"
       id="grid580"
       originx="-199.04601"
       originy="-13.382151"
       spacingy="1"
       spacingx="1"
       units="mm"
       visible="true" />
    <inkscape:page
       x="0"
       y="0"
       width="73.026001"
       height="43.583736"
       id="page2"
       margin="0"
       bleed="0" />
  </sodipodi:namedview>
  <defs
     id="defs17369" />
  <g
     inkscape:label="Layer 1"
     inkscape:groupmode="layer"
     id="layer1"
     transform="translate(-199.04601,-13.382151)">
    <g
       id="g6924"
       inkscape:export-filename="image103_ALS_b2.png"
       inkscape:export-xdpi="96"
       inkscape:export-ydpi="96"
       transform="translate(22.441004,-62.514224)">
      <path
         fill="#ff5000"
         fill-opacity="1"
         stroke-linejoin="round"
         d="m 188.06756,80.531525 h 1.07699 v 0.216208 h -1.07699 z m 2.15398,0 h 1.08508 v 0.216208 h -1.08508 z m 2.16207,0 h 1.07699 v 0.216208 h -1.07699 z m 2.16207,0 h 1.07699 v 0.216208 h -1.07699 z m 2.15398,0 h 1.08509 v 0.216208 h -1.08509 z m 1.68432,0.690731 v 1.079421 h -0.21055 v -1.079421 z m 0,2.158836 v 1.080231 h -0.21055 v -1.080231 z m 0,2.159646 v 1.079421 h -0.21055 v -1.079421 z m 0,2.159646 v 1.079421 h -0.21055 v -1.079421 z m 0,2.158835 v 1.080225 h -0.21055 v -1.080225 z m 0,2.159646 v 1.079414 h -0.21055 v -1.079414 z m 0,2.159636 v 1.079422 h -0.21055 v -1.079422 z m 0,2.158836 v 1.080232 h -0.21055 v -1.080232 z m 0,2.159646 v 1.079421 h -0.21055 v -1.079421 z m 0,2.159647 v 1.07942 h -0.21055 v -1.07942 z m 0,2.15883 v 1.08023 h -0.21055 v -1.08023 z m 0,2.15965 v 1.07941 h -0.21055 v -1.07941 z m 0,2.15965 v 1.07941 h -0.21055 v -1.07941 z m 0,2.15883 v 1.08023 h -0.21055 v -1.08023 z m 0,2.15964 v 1.07942 h -0.21055 v -1.07942 z m 0,2.15965 v 1.07942 h -0.21055 v -1.07942 z m 0,2.15883 v 1.08023 h -0.21055 v -1.08023 z m 0,2.15965 v 0.37574 0.0105 0.0105 0.0105 l -0.008,0.01 v 0.01 l -0.008,0.009 -0.008,0.009 -0.008,0.007 -0.008,0.007 -0.008,0.006 -0.008,0.006 -0.008,0.004 -0.008,0.004 -0.008,0.003 -0.0162,10e-4 h -0.008 -0.7045 v -0.21539 h 0.7045 l -0.10528,0.10769 v -0.37573 z m -1.88676,0.48343 h -1.08509 v -0.2154 h 1.08509 z m -2.16207,0 h -1.07699 v -0.2154 h 1.07699 z m -2.16208,0 h -1.07699 v -0.2154 h 1.07699 z m -2.15397,0 h -1.08509 v -0.2154 h 1.08509 z m -2.16208,0 h -1.07699 v -0.2154 h 1.07699 z m -2.0568,-0.31419 v -1.07942 h 0.21053 v 1.07942 z m 0,-2.15883 v -1.08023 h 0.21053 v 1.08023 z m 0,-2.15965 v -1.07942 h 0.21053 v 1.07942 z m 0,-2.15965 v -1.07941 h 0.21053 v 1.07941 z m 0,-2.15883 v -1.08023 h 0.21053 v 1.08023 z m 0,-2.15964 v -1.07942 h 0.21053 v 1.07942 z m 0,-2.15965 v -1.07942 h 0.21053 v 1.07942 z m 0,-2.15883 v -1.08023 h 0.21053 v 1.08023 z m 0,-2.15965 v -1.079415 h 0.21053 v 1.079415 z m 0,-2.159647 v -1.079414 h 0.21053 v 1.079414 z m 0,-2.158835 v -1.080225 h 0.21053 v 1.080225 z m 0,-2.159646 V 93.26833 h 0.21053 v 1.079412 z m 0,-2.159637 v -1.079421 h 0.21053 v 1.079421 z m 0,-2.158835 v -1.080225 h 0.21053 v 1.080225 z m 0,-2.159646 V 86.79021 h 0.21053 v 1.079414 z m 0,-2.159646 v -1.079414 h 0.21053 v 1.079414 z m 0,-2.158836 v -1.080224 h 0.21053 v 1.080224 z m 0,-2.159646 v -0.751462 -0.01055 -0.01055 -0.01055 l 0.008,-0.0097 v -0.0097 l 0.008,-0.0089 0.008,-0.0089 v -0.0081 l 0.008,-0.0063 0.008,-0.0063 0.0162,-0.0056 0.008,-0.0042 0.008,-0.0042 0.008,-0.0021 0.0162,-0.0014 0.008,-6.99e-4 h 1.07699 v 0.216209 h -1.07699 l 0.10527,-0.107699 v 0.751462 z"
         id="path3676"
         style="stroke-width:0.0809769"
         inkscape:export-filename="..\img26\img26c.png"
         inkscape:export-xdpi="96"
         inkscape:export-ydpi="96" />
      <rect
         x="187.68695"
         y="85.496208"
         fill="#ffffff"
         fill-opacity="1"
         stroke-width="0.215938"
         stroke-linejoin="round"
         stroke="#000000"
         stroke-opacity="1"
         width="8.5483723"
         height="5.9600449"
         id="rect3682"
         style="stroke:#0000ff;stroke-opacity:1" />
      <text
         transform="scale(1.0371714,0.96416079)"
         xml:space="preserve"
         id="text3686"
         x="179.78444"
         y="92.959206"
         style="font-size:1.00784px;stroke-width:0.0839865">		 <tspan
   style="font-size:4.12105px;font-family:'メイリオ'"
   letter-spacing="0em"
   fill="#000000"
   fill-opacity="1"
   stroke-width="0.0167973"
   stroke-linejoin="round"
   id="tspan3684">xzw</tspan>	</text>
      <rect
         x="204.63533"
         y="85.496208"
         fill="#ffffff"
         fill-opacity="1"
         stroke-width="0.215938"
         stroke-linejoin="round"
         stroke="#000000"
         stroke-opacity="1"
         width="8.5483723"
         height="5.9600449"
         id="rect3688"
         style="stroke:#0000ff;stroke-opacity:1" />
      <text
         transform="scale(1.0371714,0.96416079)"
         xml:space="preserve"
         id="text3692"
         x="196.25816"
         y="92.959206"
         style="font-size:1.00784px;stroke-width:0.0839865">		 <tspan
   style="font-size:4.12105px;font-family:'メイリオ'"
   letter-spacing="0em"
   fill="#000000"
   fill-opacity="1"
   stroke-width="0.0167973"
   stroke-linejoin="round"
   id="tspan3690">yzw</tspan>	</text>
      <rect
         x="221.87526"
         y="85.496208"
         fill="#ffffff"
         fill-opacity="1"
         stroke-width="0.215938"
         stroke-linejoin="round"
         stroke="#000000"
         stroke-opacity="1"
         width="8.5484533"
         height="5.9600782"
         id="rect3694"
         style="stroke:#0000ff;stroke-opacity:1" />
      <text
         transform="scale(1.0371714,0.96416079)"
         xml:space="preserve"
         id="text3698"
         x="213.66876"
         y="92.959206"
         style="font-size:1.00784px;stroke-width:0.0839865">		 <tspan
   style="font-size:4.12105px;font-family:'メイリオ'"
   letter-spacing="0em"
   fill="#000000"
   fill-opacity="1"
   stroke-width="0.0167973"
   stroke-linejoin="round"
   id="tspan3696">zw</tspan>	</text>
      <rect
         x="187.68695"
         y="107.34935"
         fill="#ffffff"
         fill-opacity="1"
         stroke-width="0.215938"
         stroke-linejoin="round"
         stroke="#000000"
         stroke-opacity="1"
         width="8.5483723"
         height="5.9600449"
         id="rect3700"
         style="stroke:#0000ff;stroke-opacity:1" />
      <text
         transform="scale(1.0371714,0.96416079)"
         xml:space="preserve"
         id="text3704"
         x="181.34589"
         y="115.6356"
         style="font-size:1.00784px;stroke-width:0.0839865">		 <tspan
   style="font-size:4.12105px;font-family:'メイリオ'"
   letter-spacing="0em"
   fill="#000000"
   fill-opacity="1"
   stroke-width="0.0167973"
   stroke-linejoin="round"
   id="tspan3702">xu</tspan>	</text>
      <rect
         x="204.63533"
         y="107.34935"
         fill="#ffffff"
         fill-opacity="1"
         stroke-width="0.215938"
         stroke-linejoin="round"
         stroke="#000000"
         stroke-opacity="1"
         width="8.5484533"
         height="5.9600449"
         id="rect3706"
         style="stroke:#0000ff;stroke-opacity:1" />
      <text
         transform="scale(1.0371714,0.96416079)"
         xml:space="preserve"
         id="text3710"
         x="197.81966"
         y="115.6356"
         style="font-size:1.00784px;stroke-width:0.0839865">		 <tspan
   style="font-size:4.12105px;font-family:'メイリオ'"
   letter-spacing="0em"
   fill="#000000"
   fill-opacity="1"
   stroke-width="0.0167973"
   stroke-linejoin="round"
   id="tspan3708">yu</tspan>	</text>
      <text
         transform="scale(1.0371714,0.96416079)"
         xml:space="preserve"
         id="text3714"
         x="207.64636"
         y="84.343445"
         style="font-size:1.00784px;fill:#00aa00;fill-opacity:1;stroke-width:0.0839865">		 <tspan
   style="font-size:4.12105px;font-family:'メイリオ';fill:#00aa00;fill-opacity:1"
   letter-spacing="0em"
   fill="#006432"
   fill-opacity="1"
   stroke-width="0.0167973"
   stroke-linejoin="round"
   id="tspan3712">ALS1(#xyzw)</tspan>	</text>
      <text
         transform="scale(1.0371714,0.96416079)"
         xml:space="preserve"
         id="text3718"
         x="210.1257"
         y="107.50871"
         style="font-size:1.00784px;fill:#00aa00;fill-opacity:1;stroke:#00b000;stroke-width:0.0839865;stroke-opacity:1">		 <tspan
   style="font-size:4.12105px;font-family:'メイリオ';fill:#00aa00;fill-opacity:1;stroke:#00b000;stroke-opacity:1"
   letter-spacing="0em"
   fill="#230fd2"
   fill-opacity="1"
   stroke-width="0.0167973"
   stroke-linejoin="round"
   id="tspan3716">ALS2(#xyu)</tspan>	</text>
      <path
         fill="#ff0000"
         fill-opacity="1"
         stroke-linejoin="round"
         d="m 204.57058,80.531525 h 1.07699 v 0.216208 h -1.07699 z m 2.15398,0 h 1.08509 v 0.216208 h -1.08509 z m 2.16207,0 h 1.077 v 0.216208 h -1.077 z m 2.16208,0 h 1.07699 v 0.216208 h -1.07699 z m 2.15398,0 h 1.08508 v 0.216208 h -1.08508 z m 1.68431,0.690731 v 1.079421 h -0.21054 v -1.079421 z m 0,2.158836 v 1.080231 h -0.21054 v -1.080231 z m 0,2.159646 v 1.079421 h -0.21054 v -1.079421 z m 0,2.159646 v 1.079421 h -0.21054 v -1.079421 z m 0,2.158835 v 1.080225 h -0.21054 v -1.080225 z m 0,2.159646 v 1.079414 h -0.21054 v -1.079414 z m 0,2.159636 v 1.079422 h -0.21054 v -1.079422 z m 0,2.158836 v 1.080232 h -0.21054 v -1.080232 z m 0,2.159646 v 1.079421 h -0.21054 v -1.079421 z m 0,2.159647 v 1.07942 h -0.21054 v -1.07942 z m 0,2.15883 v 1.08023 h -0.21054 v -1.08023 z m 0,2.15965 v 1.07941 h -0.21054 v -1.07941 z m 0,2.15965 v 1.07941 h -0.21054 v -1.07941 z m 0,2.15883 v 1.08023 h -0.21054 v -1.08023 z m 0,2.15964 v 1.07942 h -0.21054 v -1.07942 z m 0,2.15965 v 1.07942 h -0.21054 v -1.07942 z m 0,2.15883 v 1.08023 h -0.21054 v -1.08023 z m 0,2.15965 v 0.37574 0.0105 0.0105 0.0105 l -0.008,0.01 v 0.01 l -0.008,0.009 -0.008,0.009 -0.008,0.007 -0.008,0.007 -0.008,0.006 -0.008,0.006 -0.008,0.004 -0.008,0.004 -0.008,0.003 -0.0162,10e-4 h -0.008 -0.70449 v -0.21539 h 0.70449 l -0.10527,0.10769 v -0.37573 z m -1.88675,0.48343 h -1.08509 v -0.2154 h 1.08509 z m -2.16207,0 h -1.07699 v -0.2154 h 1.07699 z m -2.16208,0 h -1.07699 v -0.2154 h 1.07699 z m -2.15398,0 h -1.08508 v -0.2154 h 1.08508 z m -2.16207,0 h -1.07699 v -0.2154 h 1.07699 z m -2.05681,-0.31419 v -1.07942 h 0.21054 v 1.07942 z m 0,-2.15883 v -1.08023 h 0.21054 v 1.08023 z m 0,-2.15965 v -1.07942 h 0.21054 v 1.07942 z m 0,-2.15965 v -1.07941 h 0.21054 v 1.07941 z m 0,-2.15883 v -1.08023 h 0.21054 v 1.08023 z m 0,-2.15964 v -1.07942 h 0.21054 v 1.07942 z m 0,-2.15965 v -1.07942 h 0.21054 v 1.07942 z m 0,-2.15883 v -1.08023 h 0.21054 v 1.08023 z m 0,-2.15965 v -1.079415 h 0.21054 v 1.079415 z m 0,-2.159647 v -1.079414 h 0.21054 v 1.079414 z m 0,-2.158835 v -1.080225 h 0.21054 v 1.080225 z m 0,-2.159646 V 93.26833 h 0.21054 v 1.079412 z m 0,-2.159637 v -1.079421 h 0.21054 v 1.079421 z m 0,-2.158835 v -1.080225 h 0.21054 v 1.080225 z m 0,-2.159646 V 86.79021 h 0.21054 v 1.079414 z m 0,-2.159646 v -1.079414 h 0.21054 v 1.079414 z m 0,-2.158836 v -1.080224 h 0.21054 v 1.080224 z m 0,-2.159646 v -0.751462 -0.01055 -0.01055 -0.01055 l 0.008,-0.0097 v -0.0097 l 0.008,-0.0089 0.008,-0.0089 v -0.0081 l 0.008,-0.0063 0.008,-0.0063 0.0162,-0.0056 0.008,-0.0042 0.008,-0.0042 0.008,-0.0021 0.0161,-0.0014 0.008,-6.99e-4 h 1.07699 v 0.216209 h -1.07699 l 0.10528,-0.107699 v 0.751462 z"
         id="path3720"
         style="stroke-width:0.0809769" />
      <rect
         x="176.60498"
         y="95.454697"
         fill="#ffffff"
         fill-opacity="1"
         stroke-width="0.0161953"
         stroke-linejoin="round"
         width="39.597622"
         height="5.0770845"
         id="rect3722" />
      <text
         transform="scale(1.0371715,0.96416071)"
         xml:space="preserve"
         id="text3726"
         x="171.05225"
         y="103.93038"
         style="font-size:1.00784px;stroke-width:0.0839865">			 <tspan
   style="font-size:4.12106px;font-family:'メイリオ'"
   letter-spacing="0em"
   fill="#ff5000"
   fill-opacity="1"
   stroke-width="0.0167973"
   stroke-linejoin="round"
   id="tspan3724">RCC(#x)</tspan>		</text>
      <text
         transform="scale(1.0371715,0.96416071)"
         xml:space="preserve"
         id="text3730"
         x="193.48726"
         y="103.93038"
         style="font-size:1.00784px;stroke-width:0.0839865">			 <tspan
   style="font-size:4.12106px;font-family:'メイリオ'"
   letter-spacing="0em"
   fill="#ff0000"
   fill-opacity="1"
   stroke-width="0.0167973"
   stroke-linejoin="round"
   id="tspan3728">RCC(#y)</tspan>		</text>
      <rect
         x="183.31474"
         y="82.944084"
         fill="#ffffff"
         fill-opacity="1"
         stroke-width="0.374818"
         stroke-linejoin="round"
         stroke="#000000"
         stroke-opacity="1"
         width="51.189095"
         height="11.670688"
         id="rect9618"
         style="fill:none;stroke:#00aa00;stroke-dasharray:none;stroke-dashoffset:0;stroke-opacity:1" />
      <rect
         x="183.71881"
         y="104.35976"
         fill="#ffffff"
         fill-opacity="1"
         stroke-width="0.374818"
         stroke-linejoin="round"
         stroke="#000000"
         stroke-opacity="1"
         width="51.189095"
         height="11.670688"
         id="rect9622"
         style="fill:none;stroke:#00aa00;stroke-dasharray:none;stroke-dashoffset:0;stroke-opacity:1" />
      <rect
         style="opacity:0.8;fill:none;fill-opacity:1;stroke:#000000;stroke-width:0.386326;stroke-linejoin:round;stroke-miterlimit:0.5;stroke-dasharray:none;stroke-opacity:1;paint-order:stroke fill markers"
         id="rect6864"
         width="70.576164"
         height="43.197414"
         x="178.86166"
         y="76.089539" />
    </g>
  </g>
</svg>
