<?xml version="1.0" encoding="UTF-8" standalone="no"?>
<!-- Created with Inkscape (http://www.inkscape.org/) -->

<svg
   width="59.306606mm"
   height="43.583736mm"
   viewBox="0 0 59.306606 43.583736"
   version="1.1"
   id="svg17372"
   inkscape:version="1.3.2 (091e20e, 2023-11-25, custom)"
   sodipodi:docname="image103.svg"
   xmlns:inkscape="http://www.inkscape.org/namespaces/inkscape"
   xmlns:sodipodi="http://sodipodi.sourceforge.net/DTD/sodipodi-0.dtd"
   xmlns="http://www.w3.org/2000/svg"
   xmlns:svg="http://www.w3.org/2000/svg">
  <sodipodi:namedview
     id="namedview17374"
     pagecolor="#ffffff"
     bordercolor="#000000"
     borderopacity="0.25"
     inkscape:showpageshadow="2"
     inkscape:pageopacity="0.0"
     inkscape:pagecheckerboard="0"
     inkscape:deskcolor="#d1d1d1"
     inkscape:document-units="mm"
     showgrid="true"
     inkscape:zoom="2.0888392"
     inkscape:cx="321.23105"
     inkscape:cy="154.1526"
     inkscape:window-width="2149"
     inkscape:window-height="1718"
     inkscape:window-x="1593"
     inkscape:window-y="82"
     inkscape:window-maximized="0"
     inkscape:current-layer="layer1"
     showguides="false">
    <inkscape:grid
       type="xygrid"
       id="grid580"
       originx="-135.87734"
       originy="-13.382149"
       spacingy="1"
       spacingx="1"
       units="mm"
       visible="true" />
    <inkscape:page
       x="0"
       y="0"
       width="59.306606"
       height="43.583736"
       id="page2"
       margin="0"
       bleed="0" />
  </sodipodi:namedview>
  <defs
     id="defs17369" />
  <g
     inkscape:label="Layer 1"
     inkscape:groupmode="layer"
     id="layer1"
     transform="translate(-135.87736,-13.382149)">
    <g
       id="g6893"
       inkscape:export-filename="image103_ALS_b1.png"
       inkscape:export-xdpi="96"
       inkscape:export-ydpi="96"
       transform="translate(22.441004,-62.514224)">
      <path
         fill="#ff5000"
         fill-opacity="1"
         stroke-linejoin="round"
         d="m 122.12879,80.674385 h 1.07699 v 0.216209 h -1.07699 z m 2.15398,0 h 1.08509 v 0.216209 h -1.08509 z m 2.16207,0 h 1.07699 v 0.216209 h -1.07699 z m 2.16208,0 h 1.07699 v 0.216209 h -1.07699 z m 2.15397,0 h 1.08509 v 0.216209 h -1.08509 z m 1.68431,0.690731 v 1.079422 h -0.21053 v -1.079422 z m 0,2.158836 v 1.080232 h -0.21053 v -1.080232 z m 0,2.159646 v 1.079421 h -0.21053 v -1.079421 z m 0,2.159646 v 1.079421 h -0.21053 v -1.079421 z m 0,2.158836 v 1.080224 h -0.21053 V 90.00208 Z m 0,2.159646 v 1.079414 h -0.21053 v -1.079414 z m 0,2.159636 v 1.079421 h -0.21053 v -1.079421 z m 0,2.158835 v 1.080232 h -0.21053 v -1.080232 z m 0,2.159646 v 1.079422 h -0.21053 v -1.079422 z m 0,2.159647 v 1.07942 h -0.21053 v -1.07942 z m 0,2.15883 v 1.08023 h -0.21053 v -1.08023 z m 0,2.15965 v 1.07942 h -0.21053 v -1.07942 z m 0,2.15965 v 1.07941 h -0.21053 v -1.07941 z m 0,2.15883 v 1.08023 h -0.21053 v -1.08023 z m 0,2.15964 v 1.07942 h -0.21053 v -1.07942 z m 0,2.15965 v 1.07942 h -0.21053 v -1.07942 z m 0,2.15883 v 1.08023 h -0.21053 v -1.08023 z m 0,2.15965 v 0.37574 0.0105 0.0105 0.0105 l -0.008,0.01 v 0.01 l -0.008,0.009 -0.008,0.009 -0.008,0.007 -0.008,0.007 -0.008,0.006 -0.008,0.006 -0.008,0.004 -0.008,0.004 -0.008,0.003 -0.0162,0.001 h -0.008 -0.70449 v -0.21539 h 0.70449 l -0.10527,0.10769 v -0.37573 z m -1.88675,0.48343 h -1.08509 v -0.2154 h 1.08509 z m -2.16208,0 h -1.07698 v -0.2154 h 1.07698 z m -2.16207,0 h -1.07699 v -0.2154 h 1.07699 z m -2.15398,0 h -1.08508 v -0.2154 h 1.08508 z m -2.16207,0 h -1.07699 v -0.2154 h 1.07699 z m -2.05681,-0.31419 v -1.07941 h 0.21055 v 1.07941 z m 0,-2.15883 v -1.08023 h 0.21055 v 1.08023 z m 0,-2.15965 v -1.07942 h 0.21055 v 1.07942 z m 0,-2.15965 v -1.07941 h 0.21055 v 1.07941 z m 0,-2.15883 v -1.08023 h 0.21055 v 1.08023 z m 0,-2.15964 v -1.07942 h 0.21055 v 1.07942 z m 0,-2.15965 v -1.07942 h 0.21055 v 1.07942 z m 0,-2.15883 v -1.08023 h 0.21055 v 1.08023 z m 0,-2.15965 v -1.079415 h 0.21055 v 1.079415 z m 0,-2.159646 v -1.079415 h 0.21055 v 1.079415 z m 0,-2.158836 v -1.080225 h 0.21055 v 1.080225 z m 0,-2.159646 v -1.079411 h 0.21055 v 1.079411 z m 0,-2.159636 v -1.079421 h 0.21055 v 1.079421 z m 0,-2.158836 v -1.080224 h 0.21055 v 1.080224 z m 0,-2.159646 V 86.93307 h 0.21055 v 1.079414 z m 0,-2.159646 v -1.079414 h 0.21055 v 1.079414 z m 0,-2.158835 v -1.080225 h 0.21055 v 1.080225 z m 0,-2.159646 v -0.751462 -0.01055 -0.01055 -0.01055 l 0.008,-0.0097 v -0.0097 l 0.008,-0.0089 0.008,-0.0089 v -0.0081 l 0.008,-0.0063 0.008,-0.0063 0.0162,-0.0056 0.008,-0.0042 0.008,-0.0042 0.008,-0.0021 0.0162,-0.0014 0.008,-6.98e-4 h 1.07699 v 0.216208 h -1.07699 l 0.10528,-0.107699 v 0.751462 z"
         id="path10"
         style="stroke-width:0.0809769"
         inkscape:export-filename="..\img26\img26b.png"
         inkscape:export-xdpi="96"
         inkscape:export-ydpi="96" />
      <rect
         x="121.74818"
         y="85.639069"
         fill="#ffffff"
         fill-opacity="1"
         stroke-width="0.215938"
         stroke-linejoin="round"
         stroke="#000000"
         stroke-opacity="1"
         width="8.5484533"
         height="5.9600048"
         id="rect3632"
         style="fill:none;fill-opacity:1;stroke:#0000ff;stroke-opacity:1" />
      <text
         transform="scale(1.0371714,0.96416079)"
         xml:space="preserve"
         id="text3636"
         x="117.77039"
         y="93.107368"
         style="font-size:1.00784px;stroke-width:0.0839865">		 <tspan
   style="font-size:4.12105px;font-family:'メイリオ'"
   letter-spacing="0em"
   fill="#000000"
   fill-opacity="1"
   stroke-width="0.0167973"
   stroke-linejoin="round"
   id="tspan3634">xy</tspan>	</text>
      <rect
         x="138.69656"
         y="85.639069"
         fill="#ffffff"
         fill-opacity="1"
         stroke-width="0.215938"
         stroke-linejoin="round"
         stroke="#000000"
         stroke-opacity="1"
         width="8.5483723"
         height="5.9600048"
         id="rect3638"
         style="stroke:#0000ff;stroke-opacity:1" />
      <text
         transform="scale(1.0371714,0.96416079)"
         xml:space="preserve"
         id="text3642"
         x="134.24406"
         y="93.107368"
         style="font-size:1.00784px;stroke-width:0.0839865">		 <tspan
   style="font-size:4.12105px;font-family:'メイリオ'"
   letter-spacing="0em"
   fill="#000000"
   fill-opacity="1"
   stroke-width="0.0167973"
   stroke-linejoin="round"
   id="tspan3640">yz</tspan>	</text>
      <rect
         x="155.93651"
         y="85.639069"
         fill="#ffffff"
         fill-opacity="1"
         stroke-width="0.215938"
         stroke-linejoin="round"
         stroke="#000000"
         stroke-opacity="1"
         width="8.5484533"
         height="5.9600449"
         id="rect3644"
         style="stroke:#0000ff;stroke-opacity:1" />
      <text
         transform="scale(1.0371714,0.96416079)"
         xml:space="preserve"
         id="text3648"
         x="149.00014"
         y="93.107368"
         style="font-size:1.00784px;stroke-width:0.0839865">		 <tspan
   style="font-size:4.12105px;font-family:'メイリオ'"
   letter-spacing="0em"
   fill="#000000"
   fill-opacity="1"
   stroke-width="0.0167973"
   stroke-linejoin="round"
   id="tspan3646">yzw</tspan>	</text>
      <rect
         x="121.74818"
         y="107.49221"
         fill="#ffffff"
         fill-opacity="1"
         stroke-width="0.215938"
         stroke-linejoin="round"
         stroke="#000000"
         stroke-opacity="1"
         width="8.5483723"
         height="5.9600782"
         id="rect3650"
         style="stroke:#0000ff;stroke-opacity:1" />
      <text
         transform="scale(1.0371714,0.96416079)"
         xml:space="preserve"
         id="text3654"
         x="117.77039"
         y="115.78378"
         style="font-size:1.00784px;stroke-width:0.0839865">		 <tspan
   style="font-size:4.12105px;font-family:'メイリオ'"
   letter-spacing="0em"
   fill="#000000"
   fill-opacity="1"
   stroke-width="0.0167973"
   stroke-linejoin="round"
   id="tspan3652">xu</tspan>	</text>
      <rect
         x="138.69656"
         y="107.49221"
         fill="#ffffff"
         fill-opacity="1"
         stroke-width="0.215938"
         stroke-linejoin="round"
         stroke="#000000"
         stroke-opacity="1"
         width="8.5483723"
         height="5.9600782"
         id="rect3656"
         style="stroke:#0000ff;stroke-opacity:1" />
      <text
         transform="scale(1.0371714,0.96416079)"
         xml:space="preserve"
         id="text3660"
         x="134.24406"
         y="115.78378"
         style="font-size:1.00784px;stroke-width:0.0839865">		 <tspan
   style="font-size:4.12105px;font-family:'メイリオ'"
   letter-spacing="0em"
   fill="#000000"
   fill-opacity="1"
   stroke-width="0.0167973"
   stroke-linejoin="round"
   id="tspan3658">uv</tspan>	</text>
      <text
         transform="scale(1.0371714,0.96416079)"
         xml:space="preserve"
         id="text3664"
         x="134.80659"
         y="84.477547"
         style="font-size:1.00784px;fill:#00aa00;fill-opacity:1;stroke-width:0.0839865">		 <tspan
   style="font-size:4.12105px;font-family:'メイリオ';fill:#00aa00;fill-opacity:1"
   letter-spacing="0em"
   fill="#006432"
   fill-opacity="1"
   stroke-width="0.0167973"
   stroke-linejoin="round"
   id="tspan3662">ALS1(#xyzw)</tspan>	</text>
      <text
         transform="scale(1.0371714,0.96416079)"
         xml:space="preserve"
         id="text3668"
         x="134.7092"
         y="107.67863"
         style="font-size:1.00784px;fill:#00aa00;fill-opacity:1;stroke-width:0.0839865">		 <tspan
   style="font-size:4.12105px;font-family:'メイリオ';fill:#00aa00;fill-opacity:1"
   letter-spacing="0em"
   fill="#230fd2"
   fill-opacity="1"
   stroke-width="0.0167973"
   stroke-linejoin="round"
   id="tspan3666">ALS2(#xuv)</tspan>	</text>
      <g
         id="g6808"
         transform="translate(-4.498769,-42.738305)">
        <rect
           x="118.52404"
           y="140.29645"
           fill="#ffffff"
           fill-opacity="1"
           stroke-width="0.0180534"
           stroke-linejoin="round"
           width="22.344822"
           height="5.8999648"
           id="rect3670" />
        <text
           transform="scale(1.032021,0.96897253)"
           xml:space="preserve"
           id="text3674"
           x="114.19509"
           y="149.1134"
           style="font-size:1.10828px;stroke-width:0.0923564">		 <tspan
   style="font-size:4.53175px;font-family:'メイリオ'"
   letter-spacing="0em"
   fill="#ff5000"
   fill-opacity="1"
   stroke-width="0.0184713"
   stroke-linejoin="round"
   id="tspan3672">RCC(#x)</tspan>	</text>
      </g>
      <rect
         x="117.90561"
         y="82.884911"
         fill="#ffffff"
         fill-opacity="1"
         stroke-width="0.374818"
         stroke-linejoin="round"
         stroke="#000000"
         stroke-opacity="1"
         width="51.189095"
         height="11.670688"
         id="rect9588"
         style="fill:none;stroke:#00aa00;stroke-dasharray:none;stroke-dashoffset:0;stroke-opacity:1" />
      <rect
         x="118.10764"
         y="105.00771"
         fill="#ffffff"
         fill-opacity="1"
         stroke-width="0.374818"
         stroke-linejoin="round"
         stroke="#000000"
         stroke-opacity="1"
         width="51.189095"
         height="11.670688"
         id="rect9620"
         style="fill:none;stroke:#00aa00;stroke-dasharray:none;stroke-dashoffset:0;stroke-opacity:1" />
      <rect
         style="opacity:0.8;fill:none;fill-opacity:1;stroke:#000000;stroke-width:0.35322;stroke-linejoin:round;stroke-miterlimit:0.5;stroke-dasharray:none;stroke-opacity:1;paint-order:stroke fill markers"
         id="rect6862"
         width="58.953369"
         height="43.230518"
         x="113.61296"
         y="76.072983" />
    </g>
  </g>
</svg>
