<?xml version="1.0" encoding="UTF-8" standalone="no"?>
<!-- Created with Inkscape (http://www.inkscape.org/) -->

<svg
   width="55.177391mm"
   height="61.942993mm"
   viewBox="0 0 55.177391 61.942993"
   version="1.1"
   id="svg5"
   inkscape:version="1.4 (86a8ad7, 2024-10-11)"
   sodipodi:docname="img50a.svg"
   inkscape:export-filename="img50a.png"
   inkscape:export-xdpi="96"
   inkscape:export-ydpi="96"
   xmlns:inkscape="http://www.inkscape.org/namespaces/inkscape"
   xmlns:sodipodi="http://sodipodi.sourceforge.net/DTD/sodipodi-0.dtd"
   xmlns="http://www.w3.org/2000/svg"
   xmlns:svg="http://www.w3.org/2000/svg">
  <sodipodi:namedview
     id="namedview7"
     pagecolor="#ffffff"
     bordercolor="#000000"
     borderopacity="0.25"
     inkscape:showpageshadow="2"
     inkscape:pageopacity="0.0"
     inkscape:pagecheckerboard="0"
     inkscape:deskcolor="#d1d1d1"
     inkscape:document-units="mm"
     showgrid="false"
     inkscape:zoom="1.5483171"
     inkscape:cx="198.92566"
     inkscape:cy="233.80224"
     inkscape:window-width="2132"
     inkscape:window-height="1398"
     inkscape:window-x="487"
     inkscape:window-y="148"
     inkscape:window-maximized="0"
     inkscape:current-layer="layer1" />
  <defs
     id="defs2" />
  <g
     inkscape:label="Layer 1"
     inkscape:groupmode="layer"
     id="layer1"
     transform="translate(-26.91586,-24.520877)">
    <rect
       x="33.145565"
       y="39.904442"
       fill="#ffffff"
       fill-opacity="1"
       stroke-width="0.254274"
       stroke-linejoin="round"
       stroke="#000000"
       stroke-opacity="1"
       width="42.717979"
       height="9.1538525"
       id="rect4804"
       inkscape:export-filename="..\img49\img50a.svg"
       inkscape:export-xdpi="96"
       inkscape:export-ydpi="96" />
    <rect
       x="33.145565"
       y="58.212147"
       fill="#ffffff"
       fill-opacity="1"
       stroke-width="0.254274"
       stroke-linejoin="round"
       stroke="#000000"
       stroke-opacity="1"
       width="33.564129"
       height="9.1538525"
       id="rect4802" />
    <text
       xml:space="preserve"
       id="text4808"
       x="36.358875"
       y="46.006241"
       style="font-size:1.14423px;stroke-width:0.0953526">		 <tspan
   style="font-size:4.57693px;font-family:'メイリオ'"
   letter-spacing="0em"
   fill="#000000"
   fill-opacity="1"
   stroke-width="0.0190705"
   stroke-linejoin="round"
   id="tspan4806">x</tspan>	</text>
    <text
       xml:space="preserve"
       id="text4812"
       x="51.805996"
       y="46.006241"
       style="font-size:1.14423px;stroke-width:0.0953526">		 <tspan
   style="font-size:4.57693px;font-family:'メイリオ'"
   letter-spacing="0em"
   fill="#000000"
   fill-opacity="1"
   stroke-width="0.0190705"
   stroke-linejoin="round"
   id="tspan4810">z</tspan>	</text>
    <text
       xml:space="preserve"
       id="text4816"
       x="36.263523"
       y="63.932537"
       style="font-size:1.14423px;stroke-width:0.0953526">		 <tspan
   style="font-size:4.57693px;font-family:'メイリオ'"
   letter-spacing="0em"
   fill="#000000"
   fill-opacity="1"
   stroke-width="0.0190705"
   stroke-linejoin="round"
   id="tspan4814">x</tspan>	</text>
    <text
       xml:space="preserve"
       id="text4820"
       x="51.710644"
       y="64.218597"
       style="font-size:1.14423px;stroke-width:0.0953526">		 <tspan
   style="font-size:4.57693px;font-family:'メイリオ'"
   letter-spacing="0em"
   fill="#000000"
   fill-opacity="1"
   stroke-width="0.0190705"
   stroke-linejoin="round"
   id="tspan4818">z</tspan>	</text>
    <rect
       x="52.236019"
       y="69.845169"
       fill="#ffffff"
       fill-opacity="1"
       stroke-width="0.254274"
       stroke-linejoin="round"
       stroke="#000000"
       stroke-opacity="1"
       width="4.8821692"
       height="5.3397288"
       id="rect4822" />
    <text
       xml:space="preserve"
       id="text4826"
       x="51.710644"
       y="73.84922"
       style="font-size:1.14423px;stroke-width:0.0953526">		 <tspan
   style="font-size:4.57693px;font-family:'メイリオ'"
   letter-spacing="0em"
   fill="#000000"
   fill-opacity="1"
   stroke-width="0.0190705"
   stroke-linejoin="round"
   id="tspan4824">z</tspan>	</text>
    <text
       xml:space="preserve"
       id="text4830"
       x="61.341259"
       y="39.045506"
       style="font-size:1.14423px;stroke-width:0.0953526">		 <tspan
   style="font-size:4.57693px;font-family:'メイリオ'"
   letter-spacing="0em"
   fill="#000000"
   fill-opacity="1"
   stroke-width="0.0190705"
   stroke-linejoin="round"
   id="tspan4828">ALS1</tspan>	</text>
    <text
       xml:space="preserve"
       id="text4834"
       x="60.864491"
       y="57.162506"
       style="font-size:1.14423px;stroke-width:0.0953526">		 <tspan
   style="font-size:4.57693px;font-family:'メイリオ'"
   letter-spacing="0em"
   fill="#000000"
   fill-opacity="1"
   stroke-width="0.0190705"
   stroke-linejoin="round"
   id="tspan4832">ALS2</tspan>	</text>
    <text
       xml:space="preserve"
       id="text4838"
       x="31.591238"
       y="34.277866"
       style="font-size:1.14423px;stroke-width:0.0953526">		 <tspan
   style="font-size:4.57693px;font-family:'メイリオ'"
   letter-spacing="0em"
   fill="#000000"
   fill-opacity="1"
   stroke-width="0.0190705"
   stroke-linejoin="round"
   id="tspan4836">RCC:x</tspan>	</text>
    <rect
       x="27.042997"
       y="24.648014"
       fill="none"
       stroke-width="0.254274"
       stroke-linejoin="round"
       stroke="#000000"
       stroke-opacity="1"
       width="54.923119"
       height="54.923119"
       id="rect4840" />
    <text
       xml:space="preserve"
       id="text4844"
       x="57.527149"
       y="64.31395"
       style="font-size:1.14423px;stroke-width:0.0953526">		 <tspan
   style="font-size:4.57693px;font-family:'メイリオ'"
   letter-spacing="0em"
   fill="#000000"
   fill-opacity="1"
   stroke-width="0.0190705"
   stroke-linejoin="round"
   id="tspan4842">z</tspan>	</text>
    <path
       fill="#000000"
       fill-opacity="1"
       stroke-linejoin="round"
       d="m 52.187413,59.770693 h 1.26819 v 0.259171 h -1.26819 z m 2.54591,0 h 1.26819 v 0.259171 h -1.26819 z m 2.53638,0 h 1.27772 v 0.259171 h -1.27772 z m 2.54591,0 h 1.2682 v 0.259171 h -1.2682 z m 2.54592,0 h 1.26819 v 0.259171 h -1.26819 z m 1.43029,1.392833 v 1.295751 h -0.25745 v -1.295751 z m 0,2.591405 v 1.295655 h -0.25745 v -1.295655 z m 0,2.591407 v 1.295655 h -0.25745 v -1.295655 z m 0,2.591308 v 1.295751 h -0.25745 v -1.295751 z m 0,2.591406 v 1.295656 h -0.25745 v -1.295656 z m 0,2.591406 v 1.295655 h -0.25745 v -1.295655 z m -0.32419,2.52659 h -1.2682 v -0.25917 h 1.2682 z m -2.53639,0 h -1.27772 v -0.25917 h 1.27772 z m -2.54592,0 h -1.26818 v -0.25917 h 1.26818 z m -2.54591,0 h -1.26819 v -0.25917 h 1.26819 z m -2.53638,0 h -1.27772 v -0.25917 h 1.27772 z m -2.54591,0 h -1.11563 l -0.009,-6.8e-4 -0.01,-0.0018 -0.0191,-0.0031 -0.009,-0.0044 -0.009,-0.0055 -0.01,-0.0066 -0.009,-0.0076 -0.009,-0.0085 -0.009,-0.0093 -0.01,-0.01022 v -0.01095 l -0.009,-0.01139 v -0.01198 l -0.009,-0.01241 v -0.01271 -0.0127 -0.161897 h 0.25745 v 0.161897 l -0.13349,-0.129551 h 1.11562 z m -1.23959,-1.587281 v -1.295654 h 0.25745 v 1.295654 z m 0,-2.591309 v -1.295752 h 0.25745 v 1.295752 z m 0,-2.591407 v -1.295654 h 0.25745 v 1.295654 z m 0,-2.591405 V 65.98999 h 0.25745 v 1.295656 z m 0,-2.591311 v -1.29575 h 0.25745 v 1.29575 z m 0,-2.591405 v -1.295654 h 0.25745 v 1.295654 z m 0.12396,-2.332237 h 1.27773 v 0.259171 h -1.27773 z"
       id="path4846"
       style="stroke-width:0.0962602" />
    <text
       xml:space="preserve"
       id="text4850"
       x="28.885996"
       y="85.507362"
       style="font-size:1.14423px;stroke-width:0.0953526">		 <tspan
   style="font-size:4.57693px;font-family:'メイリオ'"
   letter-spacing="0em"
   fill="#000000"
   fill-opacity="1"
   stroke-width="0.0190705"
   stroke-linejoin="round"
   id="tspan4848">ALS-XZ(Singly Linked)</tspan>	</text>
    <path
       fill="#000000"
       fill-opacity="1"
       stroke-linejoin="round"
       d="m 39.476076,38.601989 v 0.997446 H 39.22816 v -0.997446 z m 0,1.994968 v 0.997445 H 39.22816 v -0.997445 z m 0,1.994893 v 0.997521 H 39.22816 V 42.59185 Z m 0,1.994968 v 0.997448 H 39.22816 v -0.997448 z m 0,1.994968 v 0.997447 H 39.22816 v -0.997447 z m 0,1.994894 v 0.997522 H 39.22816 V 48.57668 Z m 0,1.994969 v 0.997446 H 39.22816 v -0.997446 z m 0,1.994967 v 0.997448 H 39.22816 v -0.997448 z m 0,1.994893 v 0.997523 H 39.22816 v -0.997523 z m 0,1.994969 v 0.997447 H 39.22816 v -0.997447 z m 0,1.994967 v 0.997448 H 39.22816 v -0.997448 z m 0,1.994895 v 0.997521 H 39.22816 V 60.54634 Z m 0,1.994969 v 0.997445 H 39.22816 v -0.997445 z m 0,1.994967 v 0.997447 H 39.22816 v -0.997447 z m 0,1.994894 v 0.997522 H 39.22816 V 66.53117 Z m 0,1.994893 v 0.209469 H 39.22816 v -0.209469 z m 0,-31.919042 v 0.997521 H 39.22816 v -0.997521 z"
       id="path4800"
       style="stroke-width:0.0844593" />
    <path
       fill="#000000"
       fill-opacity="1"
       stroke-linejoin="round"
       d="m 54.865993,39.415913 v 1.168283 h -0.25745 v -1.168283 z m 0,2.336565 v 1.168369 h -0.25745 v -1.168369 z m 0,2.336651 v 1.168283 h -0.25745 v -1.168283 z m 0,2.336652 v 1.168282 h -0.25745 v -1.168282 z m 0,2.336564 v 1.168369 h -0.25745 v -1.168369 z m 0,2.336653 v 1.16828 h -0.25745 v -1.16828 z m 0,2.336649 v 1.168282 h -0.25745 v -1.168282 z m 0,2.336565 v 1.16837 h -0.25745 v -1.16837 z m 0,2.336652 v 1.168281 h -0.25745 v -1.168281 z m 0,2.336651 v 1.168283 h -0.25745 v -1.168283 z m 0,2.336565 v 1.168369 h -0.25745 V 62.78208 Z m 0,2.336651 v 1.168283 h -0.25745 v -1.168283 z m 0,2.336653 v 1.168281 h -0.25745 v -1.168281 z m 0,2.336562 v 1.168369 h -0.25745 v -1.168369 z m 0,2.336652 v 1.168282 h -0.25745 v -1.168282 z m 0,2.336564 v 1.168369 h -0.25745 v -1.168369 z m 0,2.336652 v 1.168281 h -0.25745 v -1.168281 z m 0,-39.722552 v 1.168281 h -0.25745 v -1.168281 z"
       id="path4798"
       style="stroke-width:0.0914064" />
    <line
       fill="none"
       stroke-width="0.415172"
       stroke-linejoin="round"
       stroke="#ff0000"
       stroke-opacity="1"
       x1="58.159359"
       y1="68.816429"
       x2="50.945553"
       y2="76.558052"
       id="line7168" />
  </g>
</svg>
