<?xml version="1.0" encoding="UTF-8" standalone="no"?>
<!-- Created with Inkscape (http://www.inkscape.org/) -->

<svg
   width="60.33017mm"
   height="60.330166mm"
   viewBox="0 0 60.33017 60.330166"
   version="1.1"
   id="svg11757"
   inkscape:version="1.4 (86a8ad7, 2024-10-11)"
   sodipodi:docname="img47a1.svg"
   inkscape:export-filename="img47a1.png"
   inkscape:export-xdpi="96"
   inkscape:export-ydpi="96"
   xmlns:inkscape="http://www.inkscape.org/namespaces/inkscape"
   xmlns:sodipodi="http://sodipodi.sourceforge.net/DTD/sodipodi-0.dtd"
   xmlns="http://www.w3.org/2000/svg"
   xmlns:svg="http://www.w3.org/2000/svg">
  <sodipodi:namedview
     id="namedview11759"
     pagecolor="#ffffff"
     bordercolor="#000000"
     borderopacity="0.25"
     inkscape:showpageshadow="2"
     inkscape:pageopacity="0.0"
     inkscape:pagecheckerboard="0"
     inkscape:deskcolor="#d1d1d1"
     inkscape:document-units="mm"
     showgrid="false"
     inkscape:zoom="0.91130047"
     inkscape:cx="335.2352"
     inkscape:cy="317.67788"
     inkscape:window-width="2283"
     inkscape:window-height="1547"
     inkscape:window-x="1045"
     inkscape:window-y="190"
     inkscape:window-maximized="0"
     inkscape:current-layer="layer1" />
  <defs
     id="defs11754" />
  <g
     inkscape:label="Layer 1"
     inkscape:groupmode="layer"
     id="layer1"
     transform="translate(-15.714851,-32.086163)">
    <g
       id="g426"
       inkscape:export-filename="img47a1.png"
       inkscape:export-xdpi="96"
       inkscape:export-ydpi="96">
      <path
         fill="#000000"
         fill-opacity="1"
         stroke-linejoin="round"
         d="m 59.659051,37.207988 v 1.138874 h -0.230507 v -1.138874 z m 0,2.276895 v 1.13802 h -0.230507 v -1.13802 z m 0,2.276895 v 1.13802 h -0.230507 v -1.13802 z m 0,2.276041 v 1.138874 h -0.230507 v -1.138874 z m 0,2.276894 v 1.138021 h -0.230507 v -1.138021 z m 0,2.276895 v 1.13802 h -0.230507 v -1.13802 z m 0,2.276041 v 1.138874 h -0.230507 v -1.138874 z m 0,2.276895 v 1.13802 h -0.230507 v -1.13802 z m 0,2.276894 v 1.138021 h -0.230507 v -1.138021 z m 0,2.276041 v 1.138875 h -0.230507 v -1.138875 z m 0,2.276895 v 1.138021 h -0.230507 v -1.138021 z m 0,2.276895 v 1.13802 h -0.230507 v -1.13802 z m 0,2.276041 v 1.138874 H 59.428544 V 64.52731 Z m 0,2.276894 v 1.138021 h -0.230507 v -1.138021 z m 0,2.276895 v 1.138021 h -0.230507 v -1.138021 z m 0,2.276041 v 1.138874 H 59.428544 V 71.35714 Z m 0,2.276895 v 1.13802 h -0.230507 v -1.13802 z m 0,2.276895 v 1.13802 h -0.230507 v -1.13802 z m 0,2.276041 v 1.138874 h -0.230507 v -1.138874 z m 0,2.276894 v 0.910929 h -0.230507 v -0.910929 z m 0,-45.531918 v 1.138021 h -0.230507 v -1.138021 z"
         id="path9728"
         style="stroke-width:0.0853729" />
      <path
         fill="#000000"
         fill-opacity="1"
         stroke-linejoin="round"
         d="m 34.499663,78.528462 h 1.135459 v 0.227946 h -1.135459 z m 2.279456,0 h 1.135459 v 0.227946 h -1.135459 z m 2.270918,0 h 1.143997 v 0.227946 h -1.143997 z m 2.279456,0 h 1.13546 v 0.227946 h -1.13546 z m 2.279456,0 h 1.135459 v 0.227946 h -1.135459 z m 2.270919,0 h 1.143996 v 0.227946 h -1.143996 z m 2.279456,0 h 1.135459 v 0.227946 h -1.135459 z m 2.279456,0 h 1.135459 v 0.227946 H 50.43878 Z m 2.270918,0 h 1.143997 v 0.227946 h -1.143997 z m 2.279456,0 h 1.135459 v 0.227946 h -1.135459 z m 2.279456,0 h 1.135459 v 0.227946 H 57.26861 Z m 2.270919,0 h 1.143996 v 0.227946 h -1.143996 z m 2.279455,0 h 0.452477 v 0.227946 h -0.452477 z m -29.598777,0 h 1.143997 v 0.227946 h -1.143997 z"
         id="path9716"
         style="stroke-width:0.0853729" />
      <rect
         x="15.828681"
         y="32.199993"
         fill="none"
         stroke-width="0.227661"
         stroke-linejoin="round"
         stroke="#000000"
         stroke-opacity="1"
         width="60.102509"
         height="60.102509"
         id="rect9790" />
      <line
         fill="none"
         stroke-width="0.0170746"
         stroke-linejoin="round"
         x1="32.220272"
         y1="40.39579"
         x2="59.539597"
         y2="40.39579"
         id="line9692" />
      <line
         fill="none"
         stroke-width="0.682983"
         stroke-linejoin="round"
         stroke="#000000"
         stroke-opacity="1"
         x1="29.488342"
         y1="40.39579"
         x2="59.539597"
         y2="40.39579"
         id="line9694" />
      <path
         fill="none"
         stroke-width="0.682983"
         stroke-linejoin="round"
         stroke="#000000"
         stroke-opacity="1"
         d="M 29.488275,40.395811 40.416003,51.32354 v 27.319322"
         id="path9696" />
      <rect
         x="26.756409"
         y="37.66386"
         fill="#ffffff"
         fill-opacity="1"
         stroke-width="0.227661"
         stroke-linejoin="round"
         stroke="#000000"
         stroke-opacity="1"
         width="7.0574346"
         height="5.2360897"
         id="rect9698" />
      <text
         xml:space="preserve"
         id="text9702"
         x="26.338449"
         y="41.521736"
         style="font-size:1.02447px;stroke-width:0.0853729">			 <tspan
   style="font-size:4.0979px;font-family:'メイリオ'"
   letter-spacing="0em"
   fill="#000000"
   fill-opacity="1"
   stroke-width="0.0170746"
   stroke-linejoin="round"
   id="tspan9700">xy</tspan>		</text>
      <path
         fill="#ffffff"
         fill-opacity="1"
         stroke-width="0.227661"
         stroke-linejoin="round"
         stroke="#000000"
         stroke-opacity="1"
         d="m 40.416003,48.592462 c 2.5185,0 4.558912,1.375357 4.558912,3.073423 0,1.697213 -2.040412,3.073424 -4.558912,3.073424 -2.509962,0 -4.550374,-1.376211 -4.550374,-3.073424 0,-1.698066 2.040412,-3.073423 4.550374,-3.073423 z"
         id="path9706" />
      <text
         xml:space="preserve"
         id="text9710"
         x="36.497822"
         y="52.876328"
         style="font-size:1.02447px;stroke-width:0.0853729">			 <tspan
   style="font-size:4.0979px;font-family:'メイリオ'"
   letter-spacing="0em"
   fill="#000000"
   fill-opacity="1"
   stroke-width="0.0170746"
   stroke-linejoin="round"
   id="tspan9708">xy</tspan>		</text>
      <rect
         x="36.096069"
         y="76.138016"
         fill="#ffffff"
         fill-opacity="1"
         stroke-width="0.227661"
         stroke-linejoin="round"
         stroke="#000000"
         stroke-opacity="1"
         width="7.0576053"
         height="5.2362604"
         id="rect9718" />
      <text
         xml:space="preserve"
         id="text9722"
         x="35.644093"
         y="79.939529"
         style="font-size:1.02447px;stroke-width:0.0853729">			 <tspan
   style="font-size:4.0979px;font-family:'メイリオ'"
   letter-spacing="0em"
   fill="#000000"
   fill-opacity="1"
   stroke-width="0.0170746"
   stroke-linejoin="round"
   id="tspan9720">xy</tspan>		</text>
      <path
         fill="#ffffff"
         fill-opacity="1"
         stroke-width="0.227661"
         stroke-linejoin="round"
         stroke="#000000"
         stroke-opacity="1"
         d="m 59.317559,37.436787 c 2.509963,0 4.550375,1.376211 4.550375,3.073424 0,1.697213 -2.040412,3.073424 -4.550375,3.073424 -2.5185,0 -4.558912,-1.376211 -4.558912,-3.073424 0,-1.697213 2.040412,-3.073424 4.558912,-3.073424 z"
         id="path9730" />
      <text
         xml:space="preserve"
         id="text9734"
         x="55.365227"
         y="41.692482"
         style="font-size:1.02447px;stroke-width:0.0853729">			 <tspan
   style="font-size:4.0979px;font-family:'メイリオ'"
   letter-spacing="0em"
   fill="#000000"
   fill-opacity="1"
   stroke-width="0.0170746"
   stroke-linejoin="round"
   id="tspan9732">xy</tspan>		</text>
      <path
         fill="#000000"
         fill-opacity="1"
         stroke-width="0.227661"
         stroke-linejoin="round"
         stroke="#000000"
         stroke-opacity="1"
         d="m 59.334634,75.821288 2.364828,3.483214 h -4.729657 z"
         id="path9738" />
      <line
         fill="none"
         stroke-width="0.682983"
         stroke-linejoin="round"
         stroke="#000000"
         stroke-opacity="1"
         x1="18.560614"
         y1="86.022507"
         x2="26.756409"
         y2="86.022507"
         id="line10948" />
      <path
         fill="#000000"
         fill-opacity="1"
         stroke-linejoin="round"
         d="m 51.550288,85.628372 h 1.135459 v 0.227945 h -1.135459 z m 2.279456,0 h 1.135459 v 0.227945 h -1.135459 z m 2.270918,0 h 0.461014 v 0.227945 h -0.461014 z m -6.82983,0 h 1.143997 v 0.227945 h -1.143997 z"
         id="path10952"
         style="stroke-width:0.0853729" />
      <text
         xml:space="preserve"
         id="text10956"
         x="27.157595"
         y="86.837807"
         style="font-size:1.02447px;stroke-width:0.0853729">			 <tspan
   style="font-size:3.18725px;font-family:'メイリオ'"
   letter-spacing="0em"
   fill="#000000"
   fill-opacity="1"
   stroke-width="0.0170746"
   stroke-linejoin="round"
   id="tspan10954">Strong Link</tspan>		</text>
      <text
         xml:space="preserve"
         id="text10960"
         x="56.781986"
         y="86.752434"
         style="font-size:1.02447px;stroke-width:0.0853729">			 <tspan
   style="font-size:3.18725px;font-family:'メイリオ'"
   letter-spacing="0em"
   fill="#000000"
   fill-opacity="1"
   stroke-width="0.0170746"
   stroke-linejoin="round"
   id="tspan10958">Weak Link</tspan>		</text>
    </g>
  </g>
</svg>
