<?xml version="1.0" encoding="UTF-8" standalone="no"?>
<!-- Created with Inkscape (http://www.inkscape.org/) -->

<svg
   width="59.68993mm"
   height="63.484203mm"
   viewBox="0 0 59.68993 63.484203"
   version="1.1"
   id="svg4359"
   inkscape:version="1.2.2 (732a01da63, 2022-12-09)"
   sodipodi:docname="image35.svg"
   xmlns:inkscape="http://www.inkscape.org/namespaces/inkscape"
   xmlns:sodipodi="http://sodipodi.sourceforge.net/DTD/sodipodi-0.dtd"
   xmlns="http://www.w3.org/2000/svg"
   xmlns:svg="http://www.w3.org/2000/svg">
  <sodipodi:namedview
     id="namedview4361"
     pagecolor="#ffffff"
     bordercolor="#000000"
     borderopacity="0.25"
     inkscape:showpageshadow="2"
     inkscape:pageopacity="0.0"
     inkscape:pagecheckerboard="0"
     inkscape:deskcolor="#d1d1d1"
     inkscape:document-units="mm"
     showgrid="true"
     inkscape:zoom="1.829812"
     inkscape:cx="633.94491"
     inkscape:cy="493.76657"
     inkscape:window-width="2331"
     inkscape:window-height="1610"
     inkscape:window-x="1192"
     inkscape:window-y="1141"
     inkscape:window-maximized="0"
     inkscape:current-layer="layer1">
    <inkscape:grid
       type="xygrid"
       id="grid5823"
       originx="-88.686866"
       originy="-90.054935"
       spacingy="1"
       spacingx="1"
       units="mm"
       visible="true" />
  </sodipodi:namedview>
  <defs
     id="defs4356" />
  <g
     inkscape:label="Layer 1"
     inkscape:groupmode="layer"
     id="layer1"
     transform="translate(-88.686864,-90.054934)">
    <rect
       x="92.604164"
       y="92.604164"
       fill="#ffffff"
       fill-opacity="1"
       stroke-width="0.256922"
       stroke-linejoin="round"
       stroke="#000000"
       stroke-opacity="1"
       width="55.286903"
       height="55.704811"
       id="rect1950"
       inkscape:export-filename="img35a1.png"
       inkscape:export-xdpi="96"
       inkscape:export-ydpi="96" />
    <path
       fill="#ffffff"
       fill-opacity="1"
       stroke-width="0.255318"
       stroke-linejoin="round"
       stroke="#000000"
       stroke-opacity="1"
       d="m 129.60374,95.170747 c 6.76916,0 12.25533,5.486843 12.25533,12.255313 0,6.7684 -5.48617,12.25534 -12.25533,12.25534 -6.76915,0 -12.25533,-5.48694 -12.25533,-12.25534 0,-6.76847 5.48618,-12.255313 12.25533,-12.255313 z"
       id="path1952" />
    <path
       fill="#000000"
       fill-opacity="1"
       stroke-linejoin="round"
       d="m 94.586873,111.125 h 0.765943 v 0.25533 h -0.765943 z m 1.531905,0 h 0.765953 v 0.25533 h -0.765953 z m 1.531914,0 h 0.765962 v 0.25533 h -0.765962 z m 1.531924,0 h 0.765952 v 0.25533 h -0.765952 z m 1.531914,0 h 0.76598 v 0.25533 h -0.76598 z m 1.53192,0 h 0.76596 v 0.25533 h -0.76596 z m 1.53191,0 h 0.76596 v 0.25533 h -0.76596 z m 1.53192,0 h 0.76596 v 0.25533 h -0.76596 z m 1.53191,0 h 0.76596 v 0.25533 h -0.76596 z m 1.53192,0 h 0.76598 v 0.25533 h -0.76598 z m 1.53192,0 h 0.76596 v 0.25533 h -0.76596 z m 1.53191,0 h 0.76596 v 0.25533 h -0.76596 z m 1.53192,0 h 0.76596 v 0.25533 h -0.76596 z m 1.53191,0 h 0.76596 v 0.25533 h -0.76596 z m 1.53191,0 h 0.76598 v 0.25533 h -0.76598 z m 1.53193,0 h 0.76596 v 0.25533 h -0.76596 z m 1.53191,0 h 0.76596 v 0.25533 h -0.76596 z m 1.53192,0 h 0.76596 v 0.25533 h -0.76596 z m 1.53191,0 h 0.76596 v 0.25533 h -0.76596 z m 1.53192,0 h 0.76596 v 0.25533 h -0.76596 z m 1.53192,0 h 0.76596 v 0.25533 h -0.76596 z m 1.53191,0 h 0.76596 v 0.25533 h -0.76596 z m 1.53192,0 h 0.76596 v 0.25533 h -0.76596 z m 1.53192,0 h 0.76595 v 0.25533 h -0.76595 z m 1.53191,0 h 0.76596 v 0.25533 h -0.76596 z m 1.53192,0 h 0.76595 v 0.25533 h -0.76595 z m 1.53191,0 h 0.76596 v 0.25533 h -0.76596 z m 1.53193,0 h 0.76595 v 0.25533 h -0.76595 z m 1.53191,0 h 0.76595 v 0.25533 h -0.76595 z m 1.53191,0 h 0.76596 v 0.25533 h -0.76596 z m 1.53192,0 h 0.76595 v 0.25533 h -0.76595 z m 1.53191,0 h 0.76595 v 0.25533 h -0.76595 z m 1.53192,0 h 0.76596 v 0.25533 h -0.76596 z m 1.53192,0 h 0.76595 v 0.25533 h -0.76595 z m 1.53191,0 h 0.76596 v 0.25533 h -0.76596 z m 1.53192,0 v 0.25533 z m -55.148975,0 h 0.765947 v 0.25533 h -0.765947 z"
       id="path1956"
       style="stroke-width:0.0957443" />
    <line
       fill="none"
       stroke-width="0.255318"
       stroke-linejoin="round"
       stroke="#000000"
       stroke-opacity="1"
       x1="108.06125"
       y1="93.160088"
       x2="108.06125"
       y2="148.3091"
       id="line1958" />
    <path
       fill="#000000"
       fill-opacity="1"
       stroke-linejoin="round"
       d="m 94.759727,130.175 h 0.765943 v 0.25534 h -0.765943 z m 1.531905,0 h 0.765953 v 0.25534 h -0.765953 z m 1.531914,0 h 0.765962 v 0.25534 h -0.765962 z m 1.531924,0 h 0.76596 v 0.25534 h -0.76596 z m 1.53192,0 h 0.76598 v 0.25534 h -0.76598 z m 1.53192,0 h 0.76596 v 0.25534 h -0.76596 z m 1.53191,0 h 0.76596 v 0.25534 h -0.76596 z m 1.53192,0 h 0.76596 v 0.25534 h -0.76596 z m 1.53191,0 h 0.76596 v 0.25534 h -0.76596 z m 1.53192,0 h 0.76598 v 0.25534 h -0.76598 z m 1.53192,0 h 0.76596 v 0.25534 h -0.76596 z m 1.53191,0 h 0.76596 v 0.25534 h -0.76596 z m 1.53192,0 h 0.76596 v 0.25534 h -0.76596 z m 1.53191,0 h 0.76596 v 0.25534 h -0.76596 z m 1.53191,0 h 0.76598 v 0.25534 h -0.76598 z m 1.53193,0 h 0.76596 v 0.25534 h -0.76596 z m 1.53191,0 h 0.76596 v 0.25534 h -0.76596 z m 1.53192,0 h 0.76596 v 0.25534 h -0.76596 z m 1.53191,0 h 0.76596 v 0.25534 h -0.76596 z m 1.53192,0 h 0.76596 v 0.25534 h -0.76596 z m 1.53192,0 h 0.76596 v 0.25534 h -0.76596 z m 1.53191,0 h 0.76596 v 0.25534 h -0.76596 z m 1.53192,0 h 0.76596 v 0.25534 h -0.76596 z m 1.53192,0 h 0.76595 v 0.25534 h -0.76595 z m 1.53191,0 h 0.76596 v 0.25534 h -0.76596 z m 1.53192,0 h 0.76595 v 0.25534 h -0.76595 z m 1.53191,0 h 0.76596 v 0.25534 h -0.76596 z m 1.53193,0 h 0.76595 v 0.25534 h -0.76595 z m 1.53191,0 h 0.76595 v 0.25534 h -0.76595 z m 1.53191,0 h 0.76596 v 0.25534 h -0.76596 z m 1.53192,0 h 0.76595 v 0.25534 h -0.76595 z m 1.53191,0 h 0.76595 v 0.25534 h -0.76595 z m 1.53192,0 h 0.76596 v 0.25534 h -0.76596 z m 1.53192,0 h 0.76595 v 0.25534 h -0.76595 z m 1.53191,0 h 0.76596 v 0.25534 h -0.76596 z m 1.53192,0 v 0.25534 z m -55.148981,0 h 0.765947 v 0.25534 h -0.765947 z"
       id="path1962"
       style="stroke-width:0.0957443" />
    <text
       xml:space="preserve"
       id="text1966"
       x="87.537933"
       y="112.11678"
       style="font-size:1.14893px;stroke-width:0.0957443">		 <tspan
   style="font-size:2.55318px;font-family:'メイリオ'"
   letter-spacing="0em"
   fill="#000000"
   fill-opacity="1"
   stroke-width="0.0191489"
   stroke-linejoin="round"
   id="tspan1964">r0</tspan>	</text>
    <text
       xml:space="preserve"
       id="text1970"
       x="87.537933"
       y="130.49982"
       style="font-size:1.14893px;stroke-width:0.0957443">		 <tspan
   style="font-size:2.55318px;font-family:'メイリオ'"
   letter-spacing="0em"
   fill="#000000"
   fill-opacity="1"
   stroke-width="0.0191489"
   stroke-linejoin="round"
   id="tspan1968">r1</tspan>	</text>
    <text
       xml:space="preserve"
       id="text1974"
       x="104.70422"
       y="91.971069"
       style="font-size:1.14893px;stroke-width:0.0957443">		 <tspan
   style="font-size:2.55318px;font-family:'メイリオ'"
   letter-spacing="0em"
   fill="#000000"
   fill-opacity="1"
   stroke-width="0.0191489"
   stroke-linejoin="round"
   id="tspan1972">c0</tspan>	</text>
    <text
       xml:space="preserve"
       id="text1978"
       x="120.02338"
       y="91.971069"
       style="font-size:1.14893px;stroke-width:0.0957443">		 <tspan
   style="font-size:2.55318px;font-family:'メイリオ'"
   letter-spacing="0em"
   fill="#000000"
   fill-opacity="1"
   stroke-width="0.0191489"
   stroke-linejoin="round"
   id="tspan1976">c1</tspan>	</text>
    <text
       xml:space="preserve"
       id="text1982"
       x="133.20819"
       y="92.060844"
       style="font-size:1.14893px;stroke-width:0.0957443">		 <tspan
   style="font-size:2.55318px;font-family:'メイリオ'"
   letter-spacing="0em"
   fill="#000000"
   fill-opacity="1"
   stroke-width="0.0191489"
   stroke-linejoin="round"
   id="tspan1980">cx</tspan>	</text>
    <line
       fill="none"
       stroke-width="0.255318"
       stroke-linejoin="round"
       stroke="#000000"
       stroke-opacity="1"
       x1="123.38041"
       y1="92.734314"
       x2="123.38041"
       y2="147.8833"
       id="line1984" />
    <path
       fill="#000000"
       fill-opacity="1"
       stroke-linejoin="round"
       d="m 135.98976,94.413998 v 0.76595 h -0.25851 v -0.76595 z m 0,1.531913 v 0.765964 h -0.25851 v -0.765964 z m 0,1.531914 v 0.765962 h -0.25851 v -0.765962 z m 0,1.531914 v 0.765958 h -0.25851 v -0.765958 z m 0,1.531931 v 0.76595 h -0.25851 v -0.76595 z m 0,1.53191 v 0.76595 h -0.25851 v -0.76595 z m 0,1.53192 v 0.76596 h -0.25851 v -0.76596 z m 0,1.53191 v 0.76596 h -0.25851 v -0.76596 z m 0,1.53191 v 0.76597 h -0.25851 v -0.76597 z m 0,1.53193 v 0.76595 h -0.25851 v -0.76595 z m 0,1.53191 v 0.76595 h -0.25851 v -0.76595 z m 0,1.53192 v 0.76596 h -0.25851 v -0.76596 z m 0,1.53191 v 0.76596 h -0.25851 v -0.76596 z m 0,1.53191 v 0.76597 h -0.25851 v -0.76597 z m 0,1.53193 v 0.76595 h -0.25851 v -0.76595 z m 0,1.53191 h -0.25851 z m 0,-24.510655 v 0.76595 h -0.25851 v -0.76595 z"
       id="path1988"
       style="stroke-width:0.0957443" />
    <path
       fill="#ffffff"
       fill-opacity="1"
       stroke-width="0.0191489"
       stroke-linejoin="round"
       d="m 108.06117,108.47917 c 1.69469,0 3.06383,1.37174 3.06383,3.06382 0,1.69211 -1.36914,3.06385 -3.06383,3.06385 -1.68511,0 -3.06383,-1.37174 -3.06383,-3.06385 0,-1.69208 1.37872,-3.06382 3.06383,-3.06382 z"
       id="path1990" />
    <path
       fill="#ffffff"
       fill-opacity="1"
       stroke-width="0.0191489"
       stroke-linejoin="round"
       d="m 108.06117,126.86226 c 1.69469,0 3.06383,1.37164 3.06383,3.06382 0,1.69211 -1.36914,3.06384 -3.06383,3.06384 -1.68511,0 -3.06383,-1.37173 -3.06383,-3.06384 0,-1.69218 1.37872,-3.06382 3.06383,-3.06382 z"
       id="path1992" />
    <path
       fill="#ffffff"
       fill-opacity="1"
       stroke-width="0.0191489"
       stroke-linejoin="round"
       d="m 123.38033,108.47927 c 1.69469,0 3.06383,1.37164 3.06383,3.06383 0,1.69208 -1.36914,3.06382 -3.06383,3.06382 -1.68511,0 -3.06383,-1.37174 -3.06383,-3.06382 0,-1.69219 1.37872,-3.06383 3.06383,-3.06383 z"
       id="path1994" />
    <path
       fill="#ffffff"
       fill-opacity="1"
       stroke-width="0.0191489"
       stroke-linejoin="round"
       d="m 123.38033,126.86226 c 1.69469,0 3.06383,1.37164 3.06383,3.06382 0,1.69211 -1.36914,3.06384 -3.06383,3.06384 -1.68511,0 -3.06383,-1.37173 -3.06383,-3.06384 0,-1.69218 1.37872,-3.06382 3.06383,-3.06382 z"
       id="path1996" />
    <path
       fill="#ffffff"
       fill-opacity="1"
       stroke-width="0.0191489"
       stroke-linejoin="round"
       d="m 135.63567,108.47927 c 1.69468,0 3.06382,1.37164 3.06382,3.06383 0,1.69208 -1.36914,3.06382 -3.06382,3.06382 -1.68512,0 -3.06384,-1.37174 -3.06384,-3.06382 0,-1.69219 1.37872,-3.06383 3.06384,-3.06383 z"
       id="path1998" />
    <text
       xml:space="preserve"
       id="text2002"
       x="106.88352"
       y="113.07424"
       style="font-size:1.14893px;stroke-width:0.0957443"><tspan
   style="font-size:3.82979px;font-family:'メイリオ'"
   letter-spacing="0em"
   fill="#000000"
   fill-opacity="1"
   stroke-width="0.0191489"
   stroke-linejoin="round"
   id="tspan2000">X</tspan>	</text>
    <text
       xml:space="preserve"
       id="text2006"
       x="122.20267"
       y="113.07424"
       style="font-size:1.14893px;stroke-width:0.0957443"><tspan
   style="font-size:3.82979px;font-family:'メイリオ'"
   letter-spacing="0em"
   fill="#000000"
   fill-opacity="1"
   stroke-width="0.0191489"
   stroke-linejoin="round"
   id="tspan2004">X</tspan>	</text>
    <path
       fill="#ffffff"
       fill-opacity="1"
       stroke-width="0.255318"
       stroke-linejoin="round"
       stroke="#000000"
       stroke-opacity="1"
       d="m 135.63567,108.47927 c 1.69468,0 3.06382,1.37164 3.06382,3.06383 0,1.69208 -1.36914,3.06382 -3.06382,3.06382 -1.68512,0 -3.06384,-1.37174 -3.06384,-3.06382 0,-1.69219 1.37872,-3.06383 3.06384,-3.06383 z"
       id="path2008" />
    <text
       xml:space="preserve"
       id="text2012"
       x="134.45799"
       y="113.07424"
       style="font-size:1.14893px;stroke-width:0.0957443"><tspan
   style="font-size:3.82979px;font-family:'メイリオ'"
   letter-spacing="0em"
   fill="#000000"
   fill-opacity="1"
   stroke-width="0.0191489"
   stroke-linejoin="round"
   id="tspan2010">X</tspan>	</text>
    <text
       xml:space="preserve"
       id="text2016"
       x="106.88352"
       y="131.45723"
       style="font-size:1.14893px;stroke-width:0.0957443"><tspan
   style="font-size:3.82979px;font-family:'メイリオ'"
   letter-spacing="0em"
   fill="#000000"
   fill-opacity="1"
   stroke-width="0.0191489"
   stroke-linejoin="round"
   id="tspan2014">X</tspan>	</text>
    <text
       xml:space="preserve"
       id="text2020"
       x="122.20267"
       y="131.45723"
       style="font-size:1.14893px;stroke-width:0.0957443"><tspan
   style="font-size:3.82979px;font-family:'メイリオ'"
   letter-spacing="0em"
   fill="#000000"
   fill-opacity="1"
   stroke-width="0.0191489"
   stroke-linejoin="round"
   id="tspan2018">X</tspan>	</text>
    <text
       xml:space="preserve"
       id="text2104"
       x="114.16012"
       y="153.47855"
       style="font-size:1.14893px;stroke-width:0.0957443">		 <tspan
   style="font-size:4.59575px;font-family:'メイリオ'"
   letter-spacing="0em"
   fill="#000000"
   fill-opacity="1"
   stroke-width="0.0191489"
   stroke-linejoin="round"
   id="tspan2102">Fish</tspan>	</text>
  </g>
</svg>
