<?xml version="1.0" encoding="UTF-8" standalone="no"?>
<!-- Created with Inkscape (http://www.inkscape.org/) -->

<svg
   width="212.40656mm"
   height="62.345356mm"
   viewBox="0 0 212.40656 62.345356"
   version="1.1"
   id="svg4359"
   inkscape:version="1.3.2 (091e20e, 2023-11-25, custom)"
   sodipodi:docname="img102.svg"
   inkscape:export-filename="image102-e2.png"
   inkscape:export-xdpi="96"
   inkscape:export-ydpi="96"
   xmlns:inkscape="http://www.inkscape.org/namespaces/inkscape"
   xmlns:sodipodi="http://sodipodi.sourceforge.net/DTD/sodipodi-0.dtd"
   xmlns="http://www.w3.org/2000/svg"
   xmlns:svg="http://www.w3.org/2000/svg">
  <sodipodi:namedview
     id="namedview4361"
     pagecolor="#ffffff"
     bordercolor="#000000"
     borderopacity="0.25"
     inkscape:showpageshadow="2"
     inkscape:pageopacity="0.0"
     inkscape:pagecheckerboard="0"
     inkscape:deskcolor="#d1d1d1"
     inkscape:document-units="mm"
     showgrid="true"
     inkscape:zoom="2.1108198"
     inkscape:cx="1793.6159"
     inkscape:cy="1105.2578"
     inkscape:window-width="2008"
     inkscape:window-height="1572"
     inkscape:window-x="1252"
     inkscape:window-y="347"
     inkscape:window-maximized="0"
     inkscape:current-layer="layer1">
    <inkscape:grid
       type="xygrid"
       id="grid11329"
       originx="-263.97938"
       originy="-19.963256"
       spacingy="1"
       spacingx="1"
       units="mm"
       visible="true" />
    <inkscape:page
       x="0"
       y="0"
       width="212.40656"
       height="62.345356"
       id="page2"
       margin="0"
       bleed="0" />
  </sodipodi:namedview>
  <defs
     id="defs4356" />
  <g
     inkscape:label="Layer 1"
     inkscape:groupmode="layer"
     id="layer1"
     transform="translate(-263.97937,-19.963254)">
    <rect
       x="264.2963"
       y="26.918522"
       fill="#ffffff"
       fill-opacity="1"
       stroke-width="0.252214"
       stroke-linejoin="round"
       stroke="#000000"
       stroke-opacity="1"
       width="54.647003"
       height="54.618446"
       id="rect5067"
       inkscape:export-filename="image102-d1.png"
       inkscape:export-xdpi="96"
       inkscape:export-ydpi="96"
       style="stroke-width:0.352999;stroke-dasharray:none" />
    <path
       style="fill:#0000ff;fill-opacity:1;stroke:#0000ff;stroke-width:0.401134;stroke-dasharray:none;stroke-dashoffset:0;stroke-opacity:1"
       d="m 263.97936,63.310123 c 54.68801,0 54.68801,0 54.68801,0"
       id="path5069" />
    <path
       style="fill:#0000ff;fill-opacity:1;stroke:#0000ff;stroke-width:0.400405;stroke-dasharray:none;stroke-dashoffset:0;stroke-opacity:1"
       d="m 264.25757,45.485893 c 54.48915,0 54.48915,0 54.48915,0"
       id="path5071" />
    <path
       style="opacity:0.8;fill:#ff0000;fill-opacity:1;stroke:#ff0000;stroke-width:0.4;stroke-linecap:square;stroke-miterlimit:0;stroke-dasharray:none;stroke-opacity:1;paint-order:fill markers stroke"
       d="M 279.75768,81.123453 V 26.856643"
       id="path5073" />
    <path
       style="opacity:0.8;fill:#ff0000;fill-opacity:1;stroke:#ff0000;stroke-width:0.4;stroke-linecap:square;stroke-miterlimit:0;stroke-dasharray:none;stroke-opacity:1;paint-order:fill markers stroke"
       d="M 294.72422,82.108613 V 27.841806"
       id="path5075" />
    <path
       fill="#ffffff"
       fill-opacity="1"
       stroke-width="0.0189696"
       stroke-linejoin="round"
       d="m 279.47593,60.296553 c 1.67925,0 3.03593,1.35845 3.03593,3.03436 0,1.67582 -1.35668,3.03435 -3.03593,3.03435 -1.66979,0 -3.03596,-1.35853 -3.03596,-3.03435 0,-1.67591 1.36617,-3.03436 3.03596,-3.03436 z"
       id="path5077" />
    <path
       fill="#ffffff"
       fill-opacity="1"
       stroke-width="0.0189696"
       stroke-linejoin="round"
       d="m 294.65565,60.296553 c 1.67925,0 3.03593,1.35845 3.03593,3.03436 0,1.67582 -1.35668,3.03435 -3.03593,3.03435 -1.66979,0 -3.03597,-1.35853 -3.03597,-3.03435 0,-1.67591 1.36618,-3.03436 3.03597,-3.03436 z"
       id="path5079" />
    <g
       id="g5087"
       transform="translate(0,-65.547947)">
      <path
         fill="#ffffff"
         fill-opacity="1"
         stroke-width="0.0189696"
         stroke-linejoin="round"
         d="m 294.65565,107.63835 c 1.67925,0 3.03593,1.35844 3.03593,3.03436 0,1.67581 -1.35668,3.03436 -3.03593,3.03436 -1.66979,0 -3.03597,-1.35855 -3.03597,-3.03436 0,-1.67592 1.36618,-3.03436 3.03597,-3.03436 z"
         id="path5081" />
      <text
         xml:space="preserve"
         id="text5085"
         x="291.95209"
         y="112.21845"
         style="font-size:1.13818px;stroke-width:0.0948482"
         transform="scale(1.0002613,0.99973874)">		 <tspan
   style="font-size:3.79393px;font-family:'メイリオ'"
   letter-spacing="0em"
   fill="#000000"
   fill-opacity="1"
   stroke-width="0.0189696"
   stroke-linejoin="round"
   id="tspan5083">X</tspan>	</text>
    </g>
    <text
       xml:space="preserve"
       id="text5091"
       x="276.77628"
       y="64.864258"
       style="font-size:1.13818px;stroke-width:0.0948482"
       transform="scale(1.0002613,0.99973875)">		 <tspan
   style="font-size:3.79393px;font-family:'メイリオ'"
   letter-spacing="0em"
   fill="#000000"
   fill-opacity="1"
   stroke-width="0.0189696"
   stroke-linejoin="round"
   id="tspan5089">X</tspan>	</text>
    <text
       xml:space="preserve"
       id="text5095"
       x="291.95209"
       y="64.864258"
       style="font-size:1.13818px;stroke-width:0.0948482"
       transform="scale(1.0002613,0.99973875)">		 <tspan
   style="font-size:3.79393px;font-family:'メイリオ'"
   letter-spacing="0em"
   fill="#000000"
   fill-opacity="1"
   stroke-width="0.0189696"
   stroke-linejoin="round"
   id="tspan5093">X</tspan>	</text>
    <rect
       x="326.64087"
       y="27.168018"
       fill="#ffffff"
       fill-opacity="1"
       stroke-width="0.251914"
       stroke-linejoin="round"
       stroke="#000000"
       stroke-opacity="1"
       width="54.208"
       height="54.619385"
       id="rect5097" />
    <path
       style="opacity:0.8;fill:#ff0000;fill-opacity:1;stroke:#ff0000;stroke-width:0.4;stroke-linecap:square;stroke-miterlimit:0;stroke-dasharray:none;stroke-opacity:1;paint-order:fill markers stroke"
       d="M 344.62662,81.406753 V 27.139943"
       id="path5099" />
    <path
       fill="#ffffff"
       fill-opacity="1"
       stroke-width="0.0173426"
       stroke-linejoin="round"
       d="m 335.95083,39.248863 c 1.43532,0 2.59494,1.32781 2.59494,2.96716 0,1.63843 -1.15962,2.96715 -2.59494,2.96715 -1.43532,0 -2.59494,-1.32872 -2.59494,-2.96715 0,-1.63935 1.15962,-2.96716 2.59494,-2.96716 z"
       id="path5101" />
    <path
       style="opacity:0.8;fill:#ff0000;fill-opacity:1;stroke:#ff0000;stroke-width:0.49;stroke-linecap:square;stroke-miterlimit:0;stroke-dasharray:none;stroke-opacity:1;paint-order:fill markers stroke"
       d="M 371.66593,81.289983 V 27.650008"
       id="path5103" />
    <path
       style="fill:#0000ff;fill-opacity:1;stroke:#0000ff;stroke-width:0.400405;stroke-dasharray:none;stroke-dashoffset:0;stroke-opacity:1"
       d="m 326.33586,42.063243 c 54.48914,0 54.48914,0 54.48914,0"
       id="path5105" />
    <path
       fill="#ffffff"
       fill-opacity="1"
       stroke-width="0.0142049"
       stroke-linejoin="round"
       d="m 344.76733,39.638563 c 1.09161,0 1.97353,1.1713 1.97353,2.61743 0,1.44532 -0.88192,2.61744 -1.97353,2.61744 -1.08544,0 -1.97353,-1.17212 -1.97353,-2.61744 0,-1.44613 0.88809,-2.61743 1.97353,-2.61743 z"
       id="path5107" />
    <text
       transform="scale(0.86832796,1.1516386)"
       xml:space="preserve"
       id="text5111"
       x="395.88968"
       y="37.898773"
       style="font-size:0.852297px;stroke-width:0.0710247"><tspan
   style="font-size:3.40919px;font-family:'メイリオ'"
   letter-spacing="0em"
   fill="#000000"
   fill-opacity="1"
   stroke-width="0.0142049"
   stroke-linejoin="round"
   id="tspan5109">X</tspan>			</text>
    <path
       fill="#ffffff"
       fill-opacity="1"
       stroke-width="0.0136038"
       stroke-linejoin="round"
       d="m 371.87623,39.737493 c 1.00117,0 1.81003,1.1713 1.81003,2.61743 0,1.44531 -0.80886,2.61743 -1.81003,2.61743 -0.99551,0 -1.81003,-1.17212 -1.81003,-2.61743 0,-1.44613 0.81452,-2.61743 1.81003,-2.61743 z"
       id="path5113" />
    <text
       transform="scale(0.83158139,1.2025281)"
       xml:space="preserve"
       id="text5117"
       x="446.08292"
       y="36.377205"
       style="font-size:0.816228px;stroke-width:0.068019"><tspan
   style="font-size:3.26491px;font-family:'メイリオ'"
   letter-spacing="0em"
   fill="#000000"
   fill-opacity="1"
   stroke-width="0.0136038"
   stroke-linejoin="round"
   id="tspan5115">X</tspan>			</text>
    <path
       style="fill:#0000ff;fill-opacity:1;stroke:#0000ff;stroke-width:0.400405;stroke-dasharray:none;stroke-dashoffset:0;stroke-opacity:1"
       d="m 326.19731,69.925643 c 54.48914,0 54.48914,0 54.48914,0"
       id="path5119" />
    <path
       style="fill:#0000ff;fill-opacity:1;stroke:#0000ff;stroke-width:0.400405;stroke-dasharray:none;stroke-dashoffset:0;stroke-opacity:1"
       d="m 326.33586,54.216243 c 54.48914,0 54.48914,0 54.48914,0"
       id="path5121" />
    <path
       style="opacity:0.8;fill:#ff0000;fill-opacity:1;stroke:#ff0000;stroke-width:0.4;stroke-linecap:square;stroke-miterlimit:0;stroke-dasharray:none;stroke-opacity:1;paint-order:fill markers stroke"
       d="M 359.84227,81.603403 V 27.336598"
       id="path5123" />
    <path
       fill="#ffffff"
       fill-opacity="1"
       stroke-width="0.0132271"
       stroke-linejoin="round"
       d="m 359.69417,39.737423 c 0.96135,0 1.73804,1.15318 1.73804,2.57694 0,1.42296 -0.77669,2.57695 -1.73804,2.57695 -0.95593,0 -1.73805,-1.15399 -1.73805,-2.57695 0,-1.42376 0.78212,-2.57694 1.73805,-2.57694 z"
       id="path5125" />
    <text
       transform="scale(0.82125567,1.2176476)"
       xml:space="preserve"
       id="text5129"
       x="436.90274"
       y="35.874546"
       style="font-size:0.793624px;stroke-width:0.0661353"><tspan
   style="font-size:3.1745px;font-family:'メイリオ'"
   letter-spacing="0em"
   fill="#000000"
   fill-opacity="1"
   stroke-width="0.0132271"
   stroke-linejoin="round"
   id="tspan5127">X</tspan>			</text>
    <path
       fill="#ffffff"
       fill-opacity="1"
       stroke-width="0.0142049"
       stroke-linejoin="round"
       d="m 344.83847,51.694703 c 1.09161,0 1.97353,1.17131 1.97353,2.61744 0,1.44531 -0.88192,2.61743 -1.97353,2.61743 -1.08544,0 -1.97353,-1.17212 -1.97353,-2.61743 0,-1.44613 0.88809,-2.61744 1.97353,-2.61744 z"
       id="path5131" />
    <text
       transform="scale(0.86832796,1.1516386)"
       xml:space="preserve"
       id="text5135"
       x="395.97159"
       y="48.367455"
       style="font-size:0.852297px;stroke-width:0.0710247"><tspan
   style="font-size:3.40919px;font-family:'メイリオ'"
   letter-spacing="0em"
   fill="#000000"
   fill-opacity="1"
   stroke-width="0.0142049"
   stroke-linejoin="round"
   id="tspan5133">X</tspan>			</text>
    <path
       fill="#ffffff"
       fill-opacity="1"
       stroke-width="0.0136038"
       stroke-linejoin="round"
       d="m 371.94737,51.793633 c 1.00117,0 1.81003,1.1713 1.81003,2.61743 0,1.44532 -0.80886,2.61744 -1.81003,2.61744 -0.99551,0 -1.81003,-1.17212 -1.81003,-2.61744 0,-1.44613 0.81452,-2.61743 1.81003,-2.61743 z"
       id="path5137" />
    <text
       transform="scale(0.83158139,1.2025281)"
       xml:space="preserve"
       id="text5141"
       x="446.16846"
       y="46.40287"
       style="font-size:0.816228px;stroke-width:0.068019"><tspan
   style="font-size:3.26491px;font-family:'メイリオ'"
   letter-spacing="0em"
   fill="#000000"
   fill-opacity="1"
   stroke-width="0.0136038"
   stroke-linejoin="round"
   id="tspan5139">X</tspan>			</text>
    <path
       fill="#ffffff"
       fill-opacity="1"
       stroke-width="0.0132271"
       stroke-linejoin="round"
       d="m 359.76531,51.793563 c 0.96135,0 1.73804,1.15318 1.73804,2.57694 0,1.42296 -0.77669,2.57695 -1.73804,2.57695 -0.95593,0 -1.73805,-1.15399 -1.73805,-2.57695 0,-1.42376 0.78212,-2.57694 1.73805,-2.57694 z"
       id="path5143" />
    <text
       transform="scale(0.82125567,1.2176476)"
       xml:space="preserve"
       id="text5147"
       x="436.98935"
       y="45.775723"
       style="font-size:0.793624px;stroke-width:0.0661353"><tspan
   style="font-size:3.1745px;font-family:'メイリオ'"
   letter-spacing="0em"
   fill="#000000"
   fill-opacity="1"
   stroke-width="0.0132271"
   stroke-linejoin="round"
   id="tspan5145">X</tspan>			</text>
    <path
       fill="#ffffff"
       fill-opacity="1"
       stroke-width="0.0142049"
       stroke-linejoin="round"
       d="m 344.65913,67.436173 c 1.09161,0 1.97353,1.1713 1.97353,2.61744 0,1.44531 -0.88192,2.61743 -1.97353,2.61743 -1.08544,0 -1.97353,-1.17212 -1.97353,-2.61743 0,-1.44614 0.88809,-2.61744 1.97353,-2.61744 z"
       id="path5149" />
    <text
       transform="scale(0.86832796,1.1516386)"
       xml:space="preserve"
       id="text5153"
       x="395.76508"
       y="62.036217"
       style="font-size:0.852297px;stroke-width:0.0710247"><tspan
   style="font-size:3.40919px;font-family:'メイリオ'"
   letter-spacing="0em"
   fill="#000000"
   fill-opacity="1"
   stroke-width="0.0142049"
   stroke-linejoin="round"
   id="tspan5151">X</tspan>			</text>
    <path
       fill="#ffffff"
       fill-opacity="1"
       stroke-width="0.0136038"
       stroke-linejoin="round"
       d="m 371.76802,67.535103 c 1.00117,0 1.81003,1.1713 1.81003,2.61743 0,1.44532 -0.80886,2.61744 -1.81003,2.61744 -0.99551,0 -1.81003,-1.17212 -1.81003,-2.61744 0,-1.44613 0.81452,-2.61743 1.81003,-2.61743 z"
       id="path5155" />
    <text
       transform="scale(0.83158139,1.2025281)"
       xml:space="preserve"
       id="text5159"
       x="445.95279"
       y="59.493187"
       style="font-size:0.816228px;stroke-width:0.068019"><tspan
   style="font-size:3.26491px;font-family:'メイリオ'"
   letter-spacing="0em"
   fill="#000000"
   fill-opacity="1"
   stroke-width="0.0136038"
   stroke-linejoin="round"
   id="tspan5157">X</tspan>			</text>
    <path
       fill="#ffffff"
       fill-opacity="1"
       stroke-width="0.0132271"
       stroke-linejoin="round"
       d="m 359.58597,67.535033 c 0.96135,0 1.73804,1.15318 1.73804,2.57694 0,1.42296 -0.77669,2.57695 -1.73804,2.57695 -0.95593,0 -1.73805,-1.15399 -1.73805,-2.57695 0,-1.42376 0.78212,-2.57694 1.73805,-2.57694 z"
       id="path5161" />
    <text
       transform="scale(0.82125567,1.2176476)"
       xml:space="preserve"
       id="text5165"
       x="436.771"
       y="58.703495"
       style="font-size:0.793624px;stroke-width:0.0661353"><tspan
   style="font-size:3.1745px;font-family:'メイリオ'"
   letter-spacing="0em"
   fill="#000000"
   fill-opacity="1"
   stroke-width="0.0132271"
   stroke-linejoin="round"
   id="tspan5163">X</tspan>			</text>
    <text
       xml:space="preserve"
       style="font-size:5.0366px;line-height:0.9;font-family:'MS UI Gothic';-inkscape-font-specification:'MS UI Gothic, Normal';opacity:0.8;fill:#0000ff;fill-opacity:1;stroke:none;stroke-width:0.356925;stroke-linecap:square;stroke-miterlimit:0;stroke-dasharray:none;stroke-opacity:1;paint-order:fill markers stroke"
       x="293.79764"
       y="23.411318"
       id="text5169"
       transform="scale(0.95085389,1.0516863)"><tspan
         sodipodi:role="line"
         id="tspan5167"
         style="stroke:none;stroke-width:0.356925"
         x="293.79764"
         y="23.411318">Fish(2D)</tspan></text>
    <text
       xml:space="preserve"
       style="font-size:5.0366px;line-height:0.9;font-family:'MS UI Gothic';-inkscape-font-specification:'MS UI Gothic, Normal';opacity:0.8;fill:#0000ff;fill-opacity:1;stroke:none;stroke-width:0.356925;stroke-linecap:square;stroke-miterlimit:0;stroke-dasharray:none;stroke-opacity:1;paint-order:fill markers stroke"
       x="393.75101"
       y="22.877634"
       id="text5173"
       transform="scale(0.95085389,1.0516863)"><tspan
         sodipodi:role="line"
         id="tspan5171"
         style="stroke:none;stroke-width:0.356925"
         x="393.75101"
         y="22.877634">Fish(3D)</tspan></text>
    <g
       id="g5191"
       transform="translate(25.145881,-126.92094)">
      <path
         style="opacity:0.8;fill:#0000fa;fill-opacity:1;stroke:#0000ff;stroke-width:0.4;stroke-linecap:square;stroke-miterlimit:0;stroke-dasharray:none;stroke-opacity:1;paint-order:fill markers stroke"
         d="m 420.70359,167.22518 h 9.8025"
         id="path5179" />
      <path
         style="opacity:0.8;fill:#ff0000;fill-opacity:1;stroke:#ff0000;stroke-width:0.4;stroke-linecap:square;stroke-miterlimit:0;stroke-dasharray:none;stroke-opacity:1;paint-order:fill markers stroke"
         d="m 420.70359,176.49907 h 9.8025"
         id="path5181" />
      <text
         xml:space="preserve"
         style="font-size:5.0366px;line-height:0.9;font-family:'MS UI Gothic';-inkscape-font-specification:'MS UI Gothic, Normal';opacity:0.8;fill:#ff0000;fill-opacity:1;stroke:none;stroke-width:0.356925;stroke-linecap:square;stroke-miterlimit:0;stroke-dasharray:none;stroke-opacity:1;paint-order:fill markers stroke"
         x="454.73135"
         y="169.21799"
         id="text5185"
         transform="scale(0.95085389,1.0516863)"><tspan
           sodipodi:role="line"
           id="tspan5183"
           style="fill:#ff0000;fill-opacity:1;stroke:none;stroke-width:0.356925"
           x="454.73135"
           y="169.21799">CoverSet</tspan></text>
      <text
         xml:space="preserve"
         style="font-size:5.0366px;line-height:0.9;font-family:'MS UI Gothic';-inkscape-font-specification:'MS UI Gothic, Normal';opacity:0.8;fill:#0000ff;fill-opacity:1;stroke:none;stroke-width:0.356925;stroke-linecap:square;stroke-miterlimit:0;stroke-dasharray:none;stroke-opacity:1;paint-order:fill markers stroke"
         x="454.82974"
         y="160.50116"
         id="text5189"
         transform="scale(0.95085389,1.0516863)"><tspan
           sodipodi:role="line"
           id="tspan5187"
           style="fill:#0000ff;fill-opacity:1;stroke:none;stroke-width:0.356925"
           x="454.82974"
           y="160.50116">BaseSet</tspan></text>
    </g>
    <g
       id="g5199"
       inkscape:transform-center-x="-9.37643"
       inkscape:transform-center-y="-0.42620136"
       transform="translate(-15.130148,-65.118297)">
      <path
         fill="#ffffff"
         fill-opacity="1"
         stroke-width="0.0189696"
         stroke-linejoin="round"
         d="m 294.65565,107.63835 c 1.67925,0 3.03593,1.35844 3.03593,3.03436 0,1.67581 -1.35668,3.03436 -3.03593,3.03436 -1.66979,0 -3.03597,-1.35855 -3.03597,-3.03436 0,-1.67592 1.36618,-3.03436 3.03597,-3.03436 z"
         id="path5193" />
      <text
         xml:space="preserve"
         id="text5197"
         x="291.95209"
         y="112.21845"
         style="font-size:1.13818px;stroke-width:0.0948482"
         transform="scale(1.0002613,0.99973874)">		 <tspan
   style="font-size:3.79393px;font-family:'メイリオ'"
   letter-spacing="0em"
   fill="#000000"
   fill-opacity="1"
   stroke-width="0.0189696"
   stroke-linejoin="round"
   id="tspan5195">X</tspan>	</text>
    </g>
    <rect
       x="384.95593"
       y="27.318707"
       fill="#ffffff"
       fill-opacity="1"
       stroke-width="0.251914"
       stroke-linejoin="round"
       stroke="#000000"
       stroke-opacity="1"
       width="54.208"
       height="54.619385"
       id="rect5201" />
    <path
       style="opacity:0.8;fill:#ff0000;fill-opacity:1;stroke:#ff0000;stroke-width:0.4;stroke-linecap:square;stroke-miterlimit:0;stroke-dasharray:none;stroke-opacity:1;paint-order:fill markers stroke"
       d="M 402.94169,81.557433 V 27.290628"
       id="path5203" />
    <path
       fill="#ffffff"
       fill-opacity="1"
       stroke-width="0.0173426"
       stroke-linejoin="round"
       d="m 394.2659,39.399543 c 1.43532,0 2.59494,1.32781 2.59494,2.96716 0,1.63843 -1.15962,2.96715 -2.59494,2.96715 -1.43532,0 -2.59494,-1.32872 -2.59494,-2.96715 0,-1.63935 1.15962,-2.96716 2.59494,-2.96716 z"
       id="path5205" />
    <path
       style="opacity:0.8;fill:#ff0000;fill-opacity:1;stroke:#ff0000;stroke-width:0.49;stroke-linecap:square;stroke-miterlimit:0;stroke-dasharray:none;stroke-opacity:1;paint-order:fill markers stroke"
       d="M 429.981,81.440663 V 27.800693"
       id="path5207" />
    <path
       style="fill:#0000ff;fill-opacity:1;stroke:#0000ff;stroke-width:0.400405;stroke-dasharray:none;stroke-dashoffset:0;stroke-opacity:1"
       d="m 384.65093,42.213923 c 54.48914,0 54.48914,0 54.48914,0"
       id="path5209" />
    <path
       fill="#ffffff"
       fill-opacity="1"
       stroke-width="0.0142049"
       stroke-linejoin="round"
       d="m 403.0824,39.789243 c 1.09161,0 1.97353,1.1713 1.97353,2.61743 0,1.44532 -0.88192,2.61744 -1.97353,2.61744 -1.08544,0 -1.97353,-1.17212 -1.97353,-2.61744 0,-1.44613 0.88809,-2.61743 1.97353,-2.61743 z"
       id="path5211" />
    <text
       transform="scale(0.86832796,1.1516386)"
       xml:space="preserve"
       id="text5215"
       x="463.04758"
       y="38.029617"
       style="font-size:0.852297px;stroke-width:0.0710247"><tspan
   style="font-size:3.40919px;font-family:'メイリオ'"
   letter-spacing="0em"
   fill="#000000"
   fill-opacity="1"
   stroke-width="0.0142049"
   stroke-linejoin="round"
   id="tspan5213">X</tspan>			</text>
    <path
       fill="#ffffff"
       fill-opacity="1"
       stroke-width="0.0136038"
       stroke-linejoin="round"
       d="m 430.1913,39.888173 c 1.00117,0 1.81003,1.1713 1.81003,2.61743 0,1.44531 -0.80886,2.61743 -1.81003,2.61743 -0.99551,0 -1.81003,-1.17212 -1.81003,-2.61743 0,-1.44613 0.81452,-2.61743 1.81003,-2.61743 z"
       id="path5217" />
    <path
       style="fill:#0000ff;fill-opacity:1;stroke:#0000ff;stroke-width:0.400405;stroke-dasharray:none;stroke-dashoffset:0;stroke-opacity:1"
       d="m 384.51238,70.076323 c 54.48914,0 54.48914,0 54.48914,0"
       id="path5219" />
    <path
       style="fill:#0000ff;fill-opacity:1;stroke:#0000ff;stroke-width:0.400405;stroke-dasharray:none;stroke-dashoffset:0;stroke-opacity:1"
       d="m 384.65093,54.366923 c 54.48914,0 54.48914,0 54.48914,0"
       id="path5221" />
    <path
       style="opacity:0.8;fill:#ff0000;fill-opacity:1;stroke:#ff0000;stroke-width:0.4;stroke-linecap:square;stroke-miterlimit:0;stroke-dasharray:none;stroke-opacity:1;paint-order:fill markers stroke"
       d="m 418.15734,81.754083 v -54.2668"
       id="path5223" />
    <path
       fill="#ffffff"
       fill-opacity="1"
       stroke-width="0.0132271"
       stroke-linejoin="round"
       d="m 418.00924,39.888103 c 0.96135,0 1.73804,1.15318 1.73804,2.57694 0,1.42296 -0.77669,2.57695 -1.73804,2.57695 -0.95593,0 -1.73805,-1.15399 -1.73805,-2.57695 0,-1.42376 0.78212,-2.57694 1.73805,-2.57694 z"
       id="path5225" />
    <text
       transform="scale(0.82125567,1.2176476)"
       xml:space="preserve"
       id="text5229"
       x="507.90994"
       y="35.998295"
       style="font-size:0.793624px;stroke-width:0.0661353"><tspan
   style="font-size:3.1745px;font-family:'メイリオ'"
   letter-spacing="0em"
   fill="#000000"
   fill-opacity="1"
   stroke-width="0.0132271"
   stroke-linejoin="round"
   id="tspan5227">X</tspan>			</text>
    <path
       fill="#ffffff"
       fill-opacity="1"
       stroke-width="0.0142049"
       stroke-linejoin="round"
       d="m 403.15354,51.845383 c 1.09161,0 1.97353,1.17131 1.97353,2.61744 0,1.44531 -0.88192,2.61743 -1.97353,2.61743 -1.08544,0 -1.97353,-1.17212 -1.97353,-2.61743 0,-1.44613 0.88809,-2.61744 1.97353,-2.61744 z"
       id="path5231" />
    <path
       fill="#ffffff"
       fill-opacity="1"
       stroke-width="0.0136038"
       stroke-linejoin="round"
       d="m 430.26244,51.944313 c 1.00117,0 1.81003,1.1713 1.81003,2.61743 0,1.44532 -0.80886,2.61744 -1.81003,2.61744 -0.99551,0 -1.81003,-1.17212 -1.81003,-2.61744 0,-1.44613 0.81452,-2.61743 1.81003,-2.61743 z"
       id="path5233" />
    <text
       transform="scale(0.83158139,1.2025281)"
       xml:space="preserve"
       id="text5237"
       x="516.29395"
       y="46.528175"
       style="font-size:0.816228px;stroke-width:0.068019"><tspan
   style="font-size:3.26491px;font-family:'メイリオ'"
   letter-spacing="0em"
   fill="#000000"
   fill-opacity="1"
   stroke-width="0.0136038"
   stroke-linejoin="round"
   id="tspan5235">X</tspan>			</text>
    <path
       fill="#ffffff"
       fill-opacity="1"
       stroke-width="0.0132271"
       stroke-linejoin="round"
       d="m 418.08038,51.944243 c 0.96135,0 1.73804,1.15318 1.73804,2.57694 0,1.42296 -0.77669,2.57695 -1.73804,2.57695 -0.95593,0 -1.73805,-1.15399 -1.73805,-2.57695 0,-1.42376 0.78212,-2.57694 1.73805,-2.57694 z"
       id="path5239" />
    <text
       transform="scale(0.82125567,1.2176476)"
       xml:space="preserve"
       id="text5243"
       x="507.99655"
       y="45.899471"
       style="font-size:0.793624px;stroke-width:0.0661353"><tspan
   style="font-size:3.1745px;font-family:'メイリオ'"
   letter-spacing="0em"
   fill="#000000"
   fill-opacity="1"
   stroke-width="0.0132271"
   stroke-linejoin="round"
   id="tspan5241">X</tspan>			</text>
    <path
       fill="#ffffff"
       fill-opacity="1"
       stroke-width="0.0142049"
       stroke-linejoin="round"
       d="m 402.9742,67.586853 c 1.09161,0 1.97353,1.1713 1.97353,2.61744 0,1.44531 -0.88192,2.61743 -1.97353,2.61743 -1.08544,0 -1.97353,-1.17212 -1.97353,-2.61743 0,-1.44614 0.88809,-2.61744 1.97353,-2.61744 z"
       id="path5245" />
    <text
       transform="scale(0.86832796,1.1516386)"
       xml:space="preserve"
       id="text5249"
       x="462.92297"
       y="62.167068"
       style="font-size:0.852297px;stroke-width:0.0710247"><tspan
   style="font-size:3.40919px;font-family:'メイリオ'"
   letter-spacing="0em"
   fill="#000000"
   fill-opacity="1"
   stroke-width="0.0142049"
   stroke-linejoin="round"
   id="tspan5247">X</tspan>			</text>
    <path
       fill="#ffffff"
       fill-opacity="1"
       stroke-width="0.0136038"
       stroke-linejoin="round"
       d="m 430.08309,67.685783 c 1.00117,0 1.81003,1.1713 1.81003,2.61743 0,1.44532 -0.80886,2.61744 -1.81003,2.61744 -0.99551,0 -1.81003,-1.17212 -1.81003,-2.61744 0,-1.44613 0.81452,-2.61743 1.81003,-2.61743 z"
       id="path5251" />
    <text
       transform="scale(0.83158139,1.2025281)"
       xml:space="preserve"
       id="text5255"
       x="516.07831"
       y="59.6185"
       style="font-size:0.816228px;stroke-width:0.068019"><tspan
   style="font-size:3.26491px;font-family:'メイリオ'"
   letter-spacing="0em"
   fill="#000000"
   fill-opacity="1"
   stroke-width="0.0136038"
   stroke-linejoin="round"
   id="tspan5253">X</tspan>			</text>
    <path
       fill="#ffffff"
       fill-opacity="1"
       stroke-width="0.0132271"
       stroke-linejoin="round"
       d="m 417.90104,67.685713 c 0.96135,0 1.73804,1.15318 1.73804,2.57694 0,1.42296 -0.77669,2.57695 -1.73804,2.57695 -0.95593,0 -1.73805,-1.15399 -1.73805,-2.57695 0,-1.42376 0.78212,-2.57694 1.73805,-2.57694 z"
       id="path5257" />
  </g>
</svg>
