<?xml version="1.0" encoding="UTF-8" standalone="no"?>
<!-- Created with Inkscape (http://www.inkscape.org/) -->

<svg
   width="212.40656mm"
   height="62.345352mm"
   viewBox="0 0 212.40656 62.345352"
   version="1.1"
   id="svg4359"
   inkscape:version="1.3.2 (091e20e, 2023-11-25, custom)"
   sodipodi:docname="img102.svg"
   inkscape:export-filename="image102-e2.png"
   inkscape:export-xdpi="96"
   inkscape:export-ydpi="96"
   xmlns:inkscape="http://www.inkscape.org/namespaces/inkscape"
   xmlns:sodipodi="http://sodipodi.sourceforge.net/DTD/sodipodi-0.dtd"
   xmlns="http://www.w3.org/2000/svg"
   xmlns:svg="http://www.w3.org/2000/svg">
  <sodipodi:namedview
     id="namedview4361"
     pagecolor="#ffffff"
     bordercolor="#000000"
     borderopacity="0.25"
     inkscape:showpageshadow="2"
     inkscape:pageopacity="0.0"
     inkscape:pagecheckerboard="0"
     inkscape:deskcolor="#d1d1d1"
     inkscape:document-units="mm"
     showgrid="true"
     inkscape:zoom="2.1108198"
     inkscape:cx="1793.6159"
     inkscape:cy="1105.2578"
     inkscape:window-width="2008"
     inkscape:window-height="1572"
     inkscape:window-x="1252"
     inkscape:window-y="347"
     inkscape:window-maximized="0"
     inkscape:current-layer="layer1">
    <inkscape:grid
       type="xygrid"
       id="grid11329"
       originx="-263.97938"
       originy="-85.511204"
       spacingy="1"
       spacingx="1"
       units="mm"
       visible="true" />
    <inkscape:page
       x="0"
       y="0"
       width="212.40656"
       height="62.345352"
       id="page2"
       margin="0"
       bleed="0" />
  </sodipodi:namedview>
  <defs
     id="defs4356" />
  <g
     inkscape:label="Layer 1"
     inkscape:groupmode="layer"
     id="layer1"
     transform="translate(-263.97937,-85.511198)">
    <g
       id="g1">
      <rect
         x="264.2963"
         y="92.466469"
         fill="#ffffff"
         fill-opacity="1"
         stroke-width="0.252214"
         stroke-linejoin="round"
         stroke="#000000"
         stroke-opacity="1"
         width="54.647003"
         height="54.618446"
         id="rect664"
         inkscape:export-filename="image102-d2.png"
         inkscape:export-xdpi="96"
         inkscape:export-ydpi="96"
         style="stroke-width:0.352999;stroke-dasharray:none" />
      <path
         style="fill:#0000ff;fill-opacity:1;stroke:#0000ff;stroke-width:0.401134;stroke-dasharray:none;stroke-dashoffset:0;stroke-opacity:1"
         d="m 263.97936,128.85807 c 54.68801,0 54.68801,0 54.68801,0"
         id="path666"
         inkscape:export-filename="image102-d2.svg"
         inkscape:export-xdpi="96"
         inkscape:export-ydpi="96" />
      <path
         style="fill:#0000ff;fill-opacity:1;stroke:#0000ff;stroke-width:0.400405;stroke-dasharray:none;stroke-dashoffset:0;stroke-opacity:1"
         d="m 264.25757,111.03384 c 54.48915,0 54.48915,0 54.48915,0"
         id="path676" />
      <path
         style="opacity:0.8;fill:#ff0000;fill-opacity:1;stroke:#ff0000;stroke-width:0.4;stroke-linecap:square;stroke-miterlimit:0;stroke-dasharray:none;stroke-opacity:1;paint-order:fill markers stroke"
         d="M 279.75768,146.6714 V 92.40459"
         id="path668" />
      <path
         style="opacity:0.8;fill:#ff0000;fill-opacity:1;stroke:#ff0000;stroke-width:0.4;stroke-linecap:square;stroke-miterlimit:0;stroke-dasharray:none;stroke-opacity:1;paint-order:fill markers stroke"
         d="M 294.72422,147.65656 V 93.389753"
         id="path672" />
      <path
         fill="#ffffff"
         fill-opacity="1"
         stroke-width="0.0189696"
         stroke-linejoin="round"
         d="m 279.47593,125.8445 c 1.67925,0 3.03593,1.35845 3.03593,3.03436 0,1.67582 -1.35668,3.03435 -3.03593,3.03435 -1.66979,0 -3.03596,-1.35853 -3.03596,-3.03435 0,-1.67591 1.36617,-3.03436 3.03596,-3.03436 z"
         id="path674" />
      <path
         fill="#ffffff"
         fill-opacity="1"
         stroke-width="0.0189696"
         stroke-linejoin="round"
         d="m 294.65565,125.8445 c 1.67925,0 3.03593,1.35845 3.03593,3.03436 0,1.67582 -1.35668,3.03435 -3.03593,3.03435 -1.66979,0 -3.03597,-1.35853 -3.03597,-3.03435 0,-1.67591 1.36618,-3.03436 3.03597,-3.03436 z"
         id="path680" />
      <g
         id="g4905">
        <path
           fill="#ffffff"
           fill-opacity="1"
           stroke-width="0.0189696"
           stroke-linejoin="round"
           d="m 294.65565,107.63835 c 1.67925,0 3.03593,1.35844 3.03593,3.03436 0,1.67581 -1.35668,3.03436 -3.03593,3.03436 -1.66979,0 -3.03597,-1.35855 -3.03597,-3.03436 0,-1.67592 1.36618,-3.03436 3.03597,-3.03436 z"
           id="path678" />
        <text
           xml:space="preserve"
           id="text688"
           x="291.95209"
           y="112.21845"
           style="font-size:1.13818px;stroke-width:0.0948482"
           transform="scale(1.0002613,0.99973874)">		 <tspan
   style="font-size:3.79393px;font-family:'メイリオ'"
   letter-spacing="0em"
   fill="#000000"
   fill-opacity="1"
   stroke-width="0.0189696"
   stroke-linejoin="round"
   id="tspan686">X</tspan>	</text>
      </g>
      <text
         xml:space="preserve"
         id="text692"
         x="276.77628"
         y="130.42934"
         style="font-size:1.13818px;stroke-width:0.0948482"
         transform="scale(1.0002613,0.99973874)">		 <tspan
   style="font-size:3.79393px;font-family:'メイリオ'"
   letter-spacing="0em"
   fill="#000000"
   fill-opacity="1"
   stroke-width="0.0189696"
   stroke-linejoin="round"
   id="tspan690">X</tspan>	</text>
      <text
         xml:space="preserve"
         id="text696"
         x="291.95209"
         y="130.42934"
         style="font-size:1.13818px;stroke-width:0.0948482"
         transform="scale(1.0002613,0.99973874)">		 <tspan
   style="font-size:3.79393px;font-family:'メイリオ'"
   letter-spacing="0em"
   fill="#000000"
   fill-opacity="1"
   stroke-width="0.0189696"
   stroke-linejoin="round"
   id="tspan694">X</tspan>	</text>
      <rect
         x="326.64087"
         y="92.715965"
         fill="#ffffff"
         fill-opacity="1"
         stroke-width="0.251914"
         stroke-linejoin="round"
         stroke="#000000"
         stroke-opacity="1"
         width="54.208"
         height="54.619385"
         id="rect700" />
      <path
         style="opacity:0.8;fill:#ff0000;fill-opacity:1;stroke:#ff0000;stroke-width:0.4;stroke-linecap:square;stroke-miterlimit:0;stroke-dasharray:none;stroke-opacity:1;paint-order:fill markers stroke"
         d="M 344.62662,146.9547 V 92.68789"
         id="path706" />
      <path
         fill="#ffffff"
         fill-opacity="1"
         stroke-width="0.0173426"
         stroke-linejoin="round"
         d="m 335.95083,104.79681 c 1.43532,0 2.59494,1.32781 2.59494,2.96716 0,1.63843 -1.15962,2.96715 -2.59494,2.96715 -1.43532,0 -2.59494,-1.32872 -2.59494,-2.96715 0,-1.63935 1.15962,-2.96716 2.59494,-2.96716 z"
         id="path704" />
      <path
         style="opacity:0.8;fill:#ff0000;fill-opacity:1;stroke:#ff0000;stroke-width:0.49;stroke-linecap:square;stroke-miterlimit:0;stroke-dasharray:none;stroke-opacity:1;paint-order:fill markers stroke"
         d="M 371.66593,146.83793 V 93.197955"
         id="path750" />
      <path
         style="fill:#0000ff;fill-opacity:1;stroke:#0000ff;stroke-width:0.400405;stroke-dasharray:none;stroke-dashoffset:0;stroke-opacity:1"
         d="m 326.33586,107.61119 c 54.48914,0 54.48914,0 54.48914,0"
         id="path714" />
      <path
         fill="#ffffff"
         fill-opacity="1"
         stroke-width="0.0142049"
         stroke-linejoin="round"
         d="m 344.76733,105.18651 c 1.09161,0 1.97353,1.1713 1.97353,2.61743 0,1.44532 -0.88192,2.61744 -1.97353,2.61744 -1.08544,0 -1.97353,-1.17212 -1.97353,-2.61744 0,-1.44613 0.88809,-2.61743 1.97353,-2.61743 z"
         id="path708" />
      <text
         transform="scale(0.86832795,1.1516386)"
         xml:space="preserve"
         id="text712"
         x="395.88968"
         y="94.815887"
         style="font-size:0.852297px;stroke-width:0.0710247"><tspan
   style="font-size:3.40919px;font-family:'メイリオ'"
   letter-spacing="0em"
   fill="#000000"
   fill-opacity="1"
   stroke-width="0.0142049"
   stroke-linejoin="round"
   id="tspan710">X</tspan>			</text>
      <path
         fill="#ffffff"
         fill-opacity="1"
         stroke-width="0.0136038"
         stroke-linejoin="round"
         d="m 371.87623,105.28544 c 1.00117,0 1.81003,1.1713 1.81003,2.61743 0,1.44531 -0.80886,2.61743 -1.81003,2.61743 -0.99551,0 -1.81003,-1.17212 -1.81003,-2.61743 0,-1.44613 0.81452,-2.61743 1.81003,-2.61743 z"
         id="path716" />
      <text
         transform="scale(0.83158138,1.2025281)"
         xml:space="preserve"
         id="text720"
         x="446.08292"
         y="90.885658"
         style="font-size:0.816228px;stroke-width:0.068019"><tspan
   style="font-size:3.26491px;font-family:'メイリオ'"
   letter-spacing="0em"
   fill="#000000"
   fill-opacity="1"
   stroke-width="0.0136038"
   stroke-linejoin="round"
   id="tspan718">X</tspan>			</text>
      <path
         style="fill:#0000ff;fill-opacity:1;stroke:#0000ff;stroke-width:0.400405;stroke-dasharray:none;stroke-dashoffset:0;stroke-opacity:1"
         d="m 326.19731,135.47359 c 54.48914,0 54.48914,0 54.48914,0"
         id="path702" />
      <path
         style="fill:#0000ff;fill-opacity:1;stroke:#0000ff;stroke-width:0.400405;stroke-dasharray:none;stroke-dashoffset:0;stroke-opacity:1"
         d="m 326.33586,119.76419 c 54.48914,0 54.48914,0 54.48914,0"
         id="path724" />
      <path
         style="opacity:0.8;fill:#ff0000;fill-opacity:1;stroke:#ff0000;stroke-width:0.4;stroke-linecap:square;stroke-miterlimit:0;stroke-dasharray:none;stroke-opacity:1;paint-order:fill markers stroke"
         d="M 359.84227,147.15135 V 92.884545"
         id="path722" />
      <path
         fill="#ffffff"
         fill-opacity="1"
         stroke-width="0.0132271"
         stroke-linejoin="round"
         d="m 359.69417,105.28537 c 0.96135,0 1.73804,1.15318 1.73804,2.57694 0,1.42296 -0.77669,2.57695 -1.73804,2.57695 -0.95593,0 -1.73805,-1.15399 -1.73805,-2.57695 0,-1.42376 0.78212,-2.57694 1.73805,-2.57694 z"
         id="path726" />
      <text
         transform="scale(0.82125567,1.2176476)"
         xml:space="preserve"
         id="text730"
         x="436.90274"
         y="89.706169"
         style="font-size:0.793624px;stroke-width:0.0661353"><tspan
   style="font-size:3.1745px;font-family:'メイリオ'"
   letter-spacing="0em"
   fill="#000000"
   fill-opacity="1"
   stroke-width="0.0132271"
   stroke-linejoin="round"
   id="tspan728">X</tspan>			</text>
      <path
         fill="#ffffff"
         fill-opacity="1"
         stroke-width="0.0142049"
         stroke-linejoin="round"
         d="m 344.83847,117.24265 c 1.09161,0 1.97353,1.17131 1.97353,2.61744 0,1.44531 -0.88192,2.61743 -1.97353,2.61743 -1.08544,0 -1.97353,-1.17212 -1.97353,-2.61743 0,-1.44613 0.88809,-2.61744 1.97353,-2.61744 z"
         id="path732" />
      <text
         transform="scale(0.86832795,1.1516386)"
         xml:space="preserve"
         id="text736"
         x="395.97159"
         y="105.28457"
         style="font-size:0.852297px;stroke-width:0.0710247"><tspan
   style="font-size:3.40919px;font-family:'メイリオ'"
   letter-spacing="0em"
   fill="#000000"
   fill-opacity="1"
   stroke-width="0.0142049"
   stroke-linejoin="round"
   id="tspan734">X</tspan>			</text>
      <path
         fill="#ffffff"
         fill-opacity="1"
         stroke-width="0.0136038"
         stroke-linejoin="round"
         d="m 371.94737,117.34158 c 1.00117,0 1.81003,1.1713 1.81003,2.61743 0,1.44532 -0.80886,2.61744 -1.81003,2.61744 -0.99551,0 -1.81003,-1.17212 -1.81003,-2.61744 0,-1.44613 0.81452,-2.61743 1.81003,-2.61743 z"
         id="path738" />
      <text
         transform="scale(0.83158138,1.2025281)"
         xml:space="preserve"
         id="text742"
         x="446.16846"
         y="100.91132"
         style="font-size:0.816228px;stroke-width:0.068019"><tspan
   style="font-size:3.26491px;font-family:'メイリオ'"
   letter-spacing="0em"
   fill="#000000"
   fill-opacity="1"
   stroke-width="0.0136038"
   stroke-linejoin="round"
   id="tspan740">X</tspan>			</text>
      <path
         fill="#ffffff"
         fill-opacity="1"
         stroke-width="0.0132271"
         stroke-linejoin="round"
         d="m 359.76531,117.34151 c 0.96135,0 1.73804,1.15318 1.73804,2.57694 0,1.42296 -0.77669,2.57695 -1.73804,2.57695 -0.95593,0 -1.73805,-1.15399 -1.73805,-2.57695 0,-1.42376 0.78212,-2.57694 1.73805,-2.57694 z"
         id="path744" />
      <text
         transform="scale(0.82125567,1.2176476)"
         xml:space="preserve"
         id="text748"
         x="436.98935"
         y="99.607346"
         style="font-size:0.793624px;stroke-width:0.0661353"><tspan
   style="font-size:3.1745px;font-family:'メイリオ'"
   letter-spacing="0em"
   fill="#000000"
   fill-opacity="1"
   stroke-width="0.0132271"
   stroke-linejoin="round"
   id="tspan746">X</tspan>			</text>
      <path
         fill="#ffffff"
         fill-opacity="1"
         stroke-width="0.0142049"
         stroke-linejoin="round"
         d="m 344.65913,132.98412 c 1.09161,0 1.97353,1.1713 1.97353,2.61744 0,1.44531 -0.88192,2.61743 -1.97353,2.61743 -1.08544,0 -1.97353,-1.17212 -1.97353,-2.61743 0,-1.44614 0.88809,-2.61744 1.97353,-2.61744 z"
         id="path752" />
      <text
         transform="scale(0.86832795,1.1516386)"
         xml:space="preserve"
         id="text756"
         x="395.76508"
         y="118.95333"
         style="font-size:0.852297px;stroke-width:0.0710247"><tspan
   style="font-size:3.40919px;font-family:'メイリオ'"
   letter-spacing="0em"
   fill="#000000"
   fill-opacity="1"
   stroke-width="0.0142049"
   stroke-linejoin="round"
   id="tspan754">X</tspan>			</text>
      <path
         fill="#ffffff"
         fill-opacity="1"
         stroke-width="0.0136038"
         stroke-linejoin="round"
         d="m 371.76802,133.08305 c 1.00117,0 1.81003,1.1713 1.81003,2.61743 0,1.44532 -0.80886,2.61744 -1.81003,2.61744 -0.99551,0 -1.81003,-1.17212 -1.81003,-2.61744 0,-1.44613 0.81452,-2.61743 1.81003,-2.61743 z"
         id="path758" />
      <text
         transform="scale(0.83158138,1.2025281)"
         xml:space="preserve"
         id="text762"
         x="445.95279"
         y="114.00164"
         style="font-size:0.816228px;stroke-width:0.068019"><tspan
   style="font-size:3.26491px;font-family:'メイリオ'"
   letter-spacing="0em"
   fill="#000000"
   fill-opacity="1"
   stroke-width="0.0136038"
   stroke-linejoin="round"
   id="tspan760">X</tspan>			</text>
      <path
         fill="#ffffff"
         fill-opacity="1"
         stroke-width="0.0132271"
         stroke-linejoin="round"
         d="m 359.58597,133.08298 c 0.96135,0 1.73804,1.15318 1.73804,2.57694 0,1.42296 -0.77669,2.57695 -1.73804,2.57695 -0.95593,0 -1.73805,-1.15399 -1.73805,-2.57695 0,-1.42376 0.78212,-2.57694 1.73805,-2.57694 z"
         id="path764" />
      <text
         transform="scale(0.82125567,1.2176476)"
         xml:space="preserve"
         id="text768"
         x="436.771"
         y="112.53512"
         style="font-size:0.793624px;stroke-width:0.0661353"><tspan
   style="font-size:3.1745px;font-family:'メイリオ'"
   letter-spacing="0em"
   fill="#000000"
   fill-opacity="1"
   stroke-width="0.0132271"
   stroke-linejoin="round"
   id="tspan766">X</tspan>			</text>
      <text
         xml:space="preserve"
         style="font-size:5.0366px;line-height:0.9;font-family:'MS UI Gothic';-inkscape-font-specification:'MS UI Gothic, Normal';opacity:0.8;fill:#0000ff;fill-opacity:1;stroke:none;stroke-width:0.356925;stroke-linecap:square;stroke-miterlimit:0;stroke-dasharray:none;stroke-opacity:1;paint-order:fill markers stroke"
         x="293.79764"
         y="85.737839"
         id="text846"
         transform="scale(0.95085389,1.0516863)"><tspan
           sodipodi:role="line"
           id="tspan844"
           style="stroke:none;stroke-width:0.356925"
           x="293.79764"
           y="85.737839">Fish(2D)</tspan></text>
      <text
         xml:space="preserve"
         style="font-size:5.0366px;line-height:0.9;font-family:'MS UI Gothic';-inkscape-font-specification:'MS UI Gothic, Normal';opacity:0.8;fill:#0000ff;fill-opacity:1;stroke:none;stroke-width:0.356925;stroke-linecap:square;stroke-miterlimit:0;stroke-dasharray:none;stroke-opacity:1;paint-order:fill markers stroke"
         x="393.75101"
         y="85.204155"
         id="text850"
         transform="scale(0.95085389,1.0516863)"><tspan
           sodipodi:role="line"
           id="tspan848"
           style="stroke:none;stroke-width:0.356925"
           x="393.75101"
           y="85.204155">Fish(3D)</tspan></text>
      <path
         sodipodi:type="star"
         style="opacity:0.8;fill:#0000ff;fill-opacity:1;stroke-width:0.4;stroke-linecap:square;stroke-miterlimit:0;paint-order:fill markers stroke"
         id="path1076"
         inkscape:flatsided="false"
         sodipodi:sides="3"
         sodipodi:cx="329.66675"
         sodipodi:cy="199.67534"
         sodipodi:r1="8.1006298"
         sodipodi:r2="4.0503149"
         sodipodi:arg1="0.46364761"
         sodipodi:arg2="1.5108452"
         inkscape:rounded="0"
         inkscape:randomized="0"
         d="m 336.91217,203.29805 -7.00275,0.42033 -7.00274,0.42032 3.13736,-6.27472 3.13736,-6.27472 3.86538,5.8544 z"
         inkscape:transform-center-x="-0.0036170187"
         inkscape:transform-center-y="-0.48082041"
         transform="matrix(0.23859339,0.01342586,-0.01342586,0.23859339,218.96599,49.855362)" />
      <path
         sodipodi:type="star"
         style="opacity:0.8;fill:#0000ff;fill-opacity:1;stroke-width:0.4;stroke-linecap:square;stroke-miterlimit:0;paint-order:fill markers stroke"
         id="path1632"
         inkscape:flatsided="false"
         sodipodi:sides="3"
         sodipodi:cx="329.66675"
         sodipodi:cy="199.67534"
         sodipodi:r1="8.1006298"
         sodipodi:r2="4.0503149"
         sodipodi:arg1="0.46364761"
         sodipodi:arg2="1.5108452"
         inkscape:rounded="0"
         inkscape:randomized="0"
         d="m 336.91217,203.29805 -7.00275,0.42033 -7.00274,0.42032 3.13736,-6.27472 3.13736,-6.27472 3.86538,5.8544 z"
         inkscape:transform-center-x="-0.0036170187"
         inkscape:transform-center-y="-0.48082041"
         transform="matrix(0.23859339,0.01342586,-0.01342586,0.23859339,268.69202,48.649883)" />
      <g
         id="g4871"
         transform="translate(25.145881,-61.372996)">
        <path
           style="opacity:0.8;fill:#0000fa;fill-opacity:1;stroke:#0000ff;stroke-width:0.4;stroke-linecap:square;stroke-miterlimit:0;stroke-dasharray:none;stroke-opacity:1;paint-order:fill markers stroke"
           d="m 420.70359,167.22518 h 9.8025"
           id="path4859" />
        <path
           style="opacity:0.8;fill:#ff0000;fill-opacity:1;stroke:#ff0000;stroke-width:0.4;stroke-linecap:square;stroke-miterlimit:0;stroke-dasharray:none;stroke-opacity:1;paint-order:fill markers stroke"
           d="m 420.70359,176.49907 h 9.8025"
           id="path4861" />
        <text
           xml:space="preserve"
           style="font-size:5.0366px;line-height:0.9;font-family:'MS UI Gothic';-inkscape-font-specification:'MS UI Gothic, Normal';opacity:0.8;fill:#ff0000;fill-opacity:1;stroke:none;stroke-width:0.356925;stroke-linecap:square;stroke-miterlimit:0;stroke-dasharray:none;stroke-opacity:1;paint-order:fill markers stroke"
           x="454.73135"
           y="169.21799"
           id="text4865"
           transform="scale(0.95085389,1.0516863)"><tspan
             sodipodi:role="line"
             id="tspan4863"
             style="fill:#ff0000;fill-opacity:1;stroke:none;stroke-width:0.356925"
             x="454.73135"
             y="169.21799">CoverSet</tspan></text>
        <text
           xml:space="preserve"
           style="font-size:5.0366px;line-height:0.9;font-family:'MS UI Gothic';-inkscape-font-specification:'MS UI Gothic, Normal';opacity:0.8;fill:#0000ff;fill-opacity:1;stroke:none;stroke-width:0.356925;stroke-linecap:square;stroke-miterlimit:0;stroke-dasharray:none;stroke-opacity:1;paint-order:fill markers stroke"
           x="454.82974"
           y="160.50116"
           id="text4869"
           transform="scale(0.95085389,1.0516863)"><tspan
             sodipodi:role="line"
             id="tspan4867"
             style="fill:#0000ff;fill-opacity:1;stroke:none;stroke-width:0.356925"
             x="454.82974"
             y="160.50116">BaseSet</tspan></text>
      </g>
      <g
         id="g4913"
         inkscape:transform-center-x="-9.37643"
         inkscape:transform-center-y="-0.42620136"
         transform="translate(-15.130148,0.42965)">
        <path
           fill="#ffffff"
           fill-opacity="1"
           stroke-width="0.0189696"
           stroke-linejoin="round"
           d="m 294.65565,107.63835 c 1.67925,0 3.03593,1.35844 3.03593,3.03436 0,1.67581 -1.35668,3.03436 -3.03593,3.03436 -1.66979,0 -3.03597,-1.35855 -3.03597,-3.03436 0,-1.67592 1.36618,-3.03436 3.03597,-3.03436 z"
           id="path4907" />
        <text
           xml:space="preserve"
           id="text4911"
           x="291.95209"
           y="112.21845"
           style="font-size:1.13818px;stroke-width:0.0948482"
           transform="scale(1.0002613,0.99973874)">		 <tspan
   style="font-size:3.79393px;font-family:'メイリオ'"
   letter-spacing="0em"
   fill="#000000"
   fill-opacity="1"
   stroke-width="0.0189696"
   stroke-linejoin="round"
   id="tspan4909">X</tspan>	</text>
      </g>
      <rect
         x="384.95593"
         y="92.866653"
         fill="#ffffff"
         fill-opacity="1"
         stroke-width="0.251914"
         stroke-linejoin="round"
         stroke="#000000"
         stroke-opacity="1"
         width="54.208"
         height="54.619385"
         id="rect4995" />
      <path
         style="opacity:0.8;fill:#ff0000;fill-opacity:1;stroke:#ff0000;stroke-width:0.4;stroke-linecap:square;stroke-miterlimit:0;stroke-dasharray:none;stroke-opacity:1;paint-order:fill markers stroke"
         d="M 402.94169,147.10538 V 92.838575"
         id="path4997" />
      <path
         fill="#ffffff"
         fill-opacity="1"
         stroke-width="0.0173426"
         stroke-linejoin="round"
         d="m 394.2659,104.94749 c 1.43532,0 2.59494,1.32781 2.59494,2.96716 0,1.63843 -1.15962,2.96715 -2.59494,2.96715 -1.43532,0 -2.59494,-1.32872 -2.59494,-2.96715 0,-1.63935 1.15962,-2.96716 2.59494,-2.96716 z"
         id="path4999" />
      <path
         style="opacity:0.8;fill:#ff0000;fill-opacity:1;stroke:#ff0000;stroke-width:0.49;stroke-linecap:square;stroke-miterlimit:0;stroke-dasharray:none;stroke-opacity:1;paint-order:fill markers stroke"
         d="M 429.981,146.98861 V 93.34864"
         id="path5001" />
      <path
         style="fill:#0000ff;fill-opacity:1;stroke:#0000ff;stroke-width:0.400405;stroke-dasharray:none;stroke-dashoffset:0;stroke-opacity:1"
         d="m 384.65093,107.76187 c 54.48914,0 54.48914,0 54.48914,0"
         id="path5003" />
      <path
         fill="#ffffff"
         fill-opacity="1"
         stroke-width="0.0142049"
         stroke-linejoin="round"
         d="m 403.0824,105.33719 c 1.09161,0 1.97353,1.1713 1.97353,2.61743 0,1.44532 -0.88192,2.61744 -1.97353,2.61744 -1.08544,0 -1.97353,-1.17212 -1.97353,-2.61744 0,-1.44613 0.88809,-2.61743 1.97353,-2.61743 z"
         id="path5005" />
      <text
         transform="scale(0.86832796,1.1516386)"
         xml:space="preserve"
         id="text5009"
         x="463.04758"
         y="94.946732"
         style="font-size:0.852297px;stroke-width:0.0710247"><tspan
   style="font-size:3.40919px;font-family:'メイリオ'"
   letter-spacing="0em"
   fill="#000000"
   fill-opacity="1"
   stroke-width="0.0142049"
   stroke-linejoin="round"
   id="tspan5007">X</tspan>			</text>
      <path
         fill="#ffffff"
         fill-opacity="1"
         stroke-width="0.0136038"
         stroke-linejoin="round"
         d="m 430.1913,105.43612 c 1.00117,0 1.81003,1.1713 1.81003,2.61743 0,1.44531 -0.80886,2.61743 -1.81003,2.61743 -0.99551,0 -1.81003,-1.17212 -1.81003,-2.61743 0,-1.44613 0.81452,-2.61743 1.81003,-2.61743 z"
         id="path5011" />
      <path
         style="fill:#0000ff;fill-opacity:1;stroke:#0000ff;stroke-width:0.400405;stroke-dasharray:none;stroke-dashoffset:0;stroke-opacity:1"
         d="m 384.51238,135.62427 c 54.48914,0 54.48914,0 54.48914,0"
         id="path5017" />
      <path
         style="fill:#0000ff;fill-opacity:1;stroke:#0000ff;stroke-width:0.400405;stroke-dasharray:none;stroke-dashoffset:0;stroke-opacity:1"
         d="m 384.65093,119.91487 c 54.48914,0 54.48914,0 54.48914,0"
         id="path5019" />
      <path
         style="opacity:0.8;fill:#ff0000;fill-opacity:1;stroke:#ff0000;stroke-width:0.4;stroke-linecap:square;stroke-miterlimit:0;stroke-dasharray:none;stroke-opacity:1;paint-order:fill markers stroke"
         d="M 418.15734,147.30203 V 93.03523"
         id="path5021" />
      <path
         fill="#ffffff"
         fill-opacity="1"
         stroke-width="0.0132271"
         stroke-linejoin="round"
         d="m 418.00924,105.43605 c 0.96135,0 1.73804,1.15318 1.73804,2.57694 0,1.42296 -0.77669,2.57695 -1.73804,2.57695 -0.95593,0 -1.73805,-1.15399 -1.73805,-2.57695 0,-1.42376 0.78212,-2.57694 1.73805,-2.57694 z"
         id="path5023" />
      <text
         transform="scale(0.82125567,1.2176476)"
         xml:space="preserve"
         id="text5027"
         x="507.90994"
         y="89.829918"
         style="font-size:0.793624px;stroke-width:0.0661353"><tspan
   style="font-size:3.1745px;font-family:'メイリオ'"
   letter-spacing="0em"
   fill="#000000"
   fill-opacity="1"
   stroke-width="0.0132271"
   stroke-linejoin="round"
   id="tspan5025">X</tspan>			</text>
      <path
         fill="#ffffff"
         fill-opacity="1"
         stroke-width="0.0142049"
         stroke-linejoin="round"
         d="m 403.15354,117.39333 c 1.09161,0 1.97353,1.17131 1.97353,2.61744 0,1.44531 -0.88192,2.61743 -1.97353,2.61743 -1.08544,0 -1.97353,-1.17212 -1.97353,-2.61743 0,-1.44613 0.88809,-2.61744 1.97353,-2.61744 z"
         id="path5029" />
      <path
         fill="#ffffff"
         fill-opacity="1"
         stroke-width="0.0136038"
         stroke-linejoin="round"
         d="m 430.26244,117.49226 c 1.00117,0 1.81003,1.1713 1.81003,2.61743 0,1.44532 -0.80886,2.61744 -1.81003,2.61744 -0.99551,0 -1.81003,-1.17212 -1.81003,-2.61744 0,-1.44613 0.81452,-2.61743 1.81003,-2.61743 z"
         id="path5035" />
      <text
         transform="scale(0.83158139,1.2025281)"
         xml:space="preserve"
         id="text5039"
         x="516.29395"
         y="101.03663"
         style="font-size:0.816228px;stroke-width:0.068019"><tspan
   style="font-size:3.26491px;font-family:'メイリオ'"
   letter-spacing="0em"
   fill="#000000"
   fill-opacity="1"
   stroke-width="0.0136038"
   stroke-linejoin="round"
   id="tspan5037">X</tspan>			</text>
      <path
         fill="#ffffff"
         fill-opacity="1"
         stroke-width="0.0132271"
         stroke-linejoin="round"
         d="m 418.08038,117.49219 c 0.96135,0 1.73804,1.15318 1.73804,2.57694 0,1.42296 -0.77669,2.57695 -1.73804,2.57695 -0.95593,0 -1.73805,-1.15399 -1.73805,-2.57695 0,-1.42376 0.78212,-2.57694 1.73805,-2.57694 z"
         id="path5041" />
      <text
         transform="scale(0.82125567,1.2176476)"
         xml:space="preserve"
         id="text5045"
         x="507.99655"
         y="99.731094"
         style="font-size:0.793624px;stroke-width:0.0661353"><tspan
   style="font-size:3.1745px;font-family:'メイリオ'"
   letter-spacing="0em"
   fill="#000000"
   fill-opacity="1"
   stroke-width="0.0132271"
   stroke-linejoin="round"
   id="tspan5043">X</tspan>			</text>
      <path
         fill="#ffffff"
         fill-opacity="1"
         stroke-width="0.0142049"
         stroke-linejoin="round"
         d="m 402.9742,133.1348 c 1.09161,0 1.97353,1.1713 1.97353,2.61744 0,1.44531 -0.88192,2.61743 -1.97353,2.61743 -1.08544,0 -1.97353,-1.17212 -1.97353,-2.61743 0,-1.44614 0.88809,-2.61744 1.97353,-2.61744 z"
         id="path5047" />
      <text
         transform="scale(0.86832796,1.1516386)"
         xml:space="preserve"
         id="text5051"
         x="462.92297"
         y="119.08418"
         style="font-size:0.852297px;stroke-width:0.0710247"><tspan
   style="font-size:3.40919px;font-family:'メイリオ'"
   letter-spacing="0em"
   fill="#000000"
   fill-opacity="1"
   stroke-width="0.0142049"
   stroke-linejoin="round"
   id="tspan5049">X</tspan>			</text>
      <path
         fill="#ffffff"
         fill-opacity="1"
         stroke-width="0.0136038"
         stroke-linejoin="round"
         d="m 430.08309,133.23373 c 1.00117,0 1.81003,1.1713 1.81003,2.61743 0,1.44532 -0.80886,2.61744 -1.81003,2.61744 -0.99551,0 -1.81003,-1.17212 -1.81003,-2.61744 0,-1.44613 0.81452,-2.61743 1.81003,-2.61743 z"
         id="path5053" />
      <text
         transform="scale(0.83158139,1.2025281)"
         xml:space="preserve"
         id="text5057"
         x="516.07831"
         y="114.12695"
         style="font-size:0.816228px;stroke-width:0.068019"><tspan
   style="font-size:3.26491px;font-family:'メイリオ'"
   letter-spacing="0em"
   fill="#000000"
   fill-opacity="1"
   stroke-width="0.0136038"
   stroke-linejoin="round"
   id="tspan5055">X</tspan>			</text>
      <path
         fill="#ffffff"
         fill-opacity="1"
         stroke-width="0.0132271"
         stroke-linejoin="round"
         d="m 417.90104,133.23366 c 0.96135,0 1.73804,1.15318 1.73804,2.57694 0,1.42296 -0.77669,2.57695 -1.73804,2.57695 -0.95593,0 -1.73805,-1.15399 -1.73805,-2.57695 0,-1.42376 0.78212,-2.57694 1.73805,-2.57694 z"
         id="path5059" />
      <path
         sodipodi:type="star"
         style="opacity:0.8;fill:#0000ff;fill-opacity:1;stroke-width:0.4;stroke-linecap:square;stroke-miterlimit:0;paint-order:fill markers stroke"
         id="path5065"
         inkscape:flatsided="false"
         sodipodi:sides="3"
         sodipodi:cx="329.66675"
         sodipodi:cy="199.67534"
         sodipodi:r1="8.1006298"
         sodipodi:r2="4.0503149"
         sodipodi:arg1="0.46364761"
         sodipodi:arg2="1.5108452"
         inkscape:rounded="0"
         inkscape:randomized="0"
         d="m 336.91217,203.29805 -7.00275,0.42033 -7.00274,0.42032 3.13736,-6.27472 3.13736,-6.27472 3.86538,5.8544 z"
         inkscape:transform-center-x="-0.0036170187"
         inkscape:transform-center-y="-0.48082041"
         transform="matrix(0.23859339,0.01342586,-0.01342586,0.23859339,327.00709,48.800568)" />
    </g>
  </g>
</svg>
