<?xml version="1.0" encoding="UTF-8" standalone="no"?>
<svg
   version="1.1"
   width="194.56099mm"
   height="141.29201mm"
   viewBox="0 0 735.34863 534.01702"
   enable-background="new 0 0 3735.12 3236.04"
   xml:space="preserve"
   id="svg2268"
   sodipodi:docname="Image80.svg"
   inkscape:version="1.4.3 (0d15f75, 2025-12-25)"
   xmlns:inkscape="http://www.inkscape.org/namespaces/inkscape"
   xmlns:sodipodi="http://sodipodi.sourceforge.net/DTD/sodipodi-0.dtd"
   xmlns="http://www.w3.org/2000/svg"
   xmlns:svg="http://www.w3.org/2000/svg"><defs
   id="defs2272" /><sodipodi:namedview
   id="namedview2270"
   pagecolor="#ffffff"
   bordercolor="#000000"
   borderopacity="0.25"
   inkscape:showpageshadow="2"
   inkscape:pageopacity="0.0"
   inkscape:pagecheckerboard="0"
   inkscape:deskcolor="#d1d1d1"
   showgrid="false"
   inkscape:zoom="0.52193719"
   inkscape:cx="693.57004"
   inkscape:cy="993.41454"
   inkscape:window-width="2646"
   inkscape:window-height="1783"
   inkscape:window-x="1057"
   inkscape:window-y="402"
   inkscape:window-maximized="0"
   inkscape:current-layer="svg2268"
   inkscape:document-units="mm"><inkscape:page
     x="0"
     y="0"
     width="735.34863"
     height="534.01703"
     id="page2"
     margin="0"
     bleed="0" /></sodipodi:namedview>
	
	
	
	
	
	
	
	
	
	
	
	
	
	
	
	
	
	
	
	
	
	
	
	
	
	
	
	
	
	
	
	
	
	
	
	
	
	
	
	
	
	
	
	
	
	
	
	
	
	
	
	
	
	
	
	
	
	
	
	
	
	
	
	
	
	
	
	
	
	
	
	
	
	
	
	
	
	
	
	
	
	
	
	
	
	
	
	
	
	
	
	
	
	
	
	
	
	
	
	
	
	
	
	
	
	
	
	
	
	
	
	
	
	
	
	
	
	
	
	
	
	
	
	
	
	
	
	
	
	
	
	
	
	
	
	
	
	
	
	
	
	
	
	
	
	
	
	
	
	
	
	
	
	
	
	
	
	
	
	
	
	
	
	
	
	
	
	
	
	
	
	
	
	
	
	
	
	
	
	
	
	
	
	
	
	
	
	
	
	
	
	
	
	
	
	
	
	
	
	
	
	
	
	
	
	
	
	
	
	
	
	
	
	
	
	
	
	
	
	
	
	
	
	
	
	
	
	
	
	
	
	
	
	
	
	
	
	
	
	
	
	
	
	
	
	
	
	
	
	
	
	
	
	
	
	
	
	
	
	
	
	
	
	
	
	
	
	
	
	
	
	
	
	
	
	
	
	
	
	
	
	
	
	
	
	
	
	
	
	
	
	
	
	
	
	
	
	
	
	
	
	
	
	
	
	
	
	
	
	
	
	
	
	
	
	
	
	
	
	
	
	
	
	
	
	
	
	
	
	
	
	
	
	
	
	
	
	
	
	
<rect
   x="38.047691"
   y="63.511005"
   fill="#ffffff"
   fill-opacity="1"
   stroke-width="3.77268"
   stroke-linejoin="round"
   stroke="#000000"
   stroke-opacity="1"
   width="437.78793"
   height="468.61975"
   id="rect1792"
   inkscape:export-filename="BCSet2a.svg"
   inkscape:export-xdpi="96"
   inkscape:export-ydpi="96" /><path
   fill="#ff0000"
   fill-opacity="1"
   stroke-linejoin="round"
   d="m 76.406041,220.5314 h 15.71949 v 3.7727 h -15.71949 z m 31.438989,0 h 15.71949 v 3.7727 h -15.71949 z m 31.43899,0 h 15.71949 v 3.7727 h -15.71949 z m 31.43899,0 h 15.71949 v 3.7727 h -15.71949 z m 31.43899,0 h 15.7195 v 3.7727 H 202.162 Z m 31.43899,0 h 15.7195 v 3.7727 h -15.7195 z m 31.43899,0 h 15.7195 v 3.7727 h -15.7195 z m 31.43899,0 h 15.7195 v 3.7727 h -15.7195 z m 31.43899,0 h 15.7195 v 3.7727 h -15.7195 z m 31.43899,0 h 15.71958 v 3.7727 h -15.71958 z m 31.43908,0 h 15.7195 v 3.7727 h -15.7195 z m 31.439,0 h 15.7194 v 3.7727 h -15.7194 z m 31.4389,0 h 15.7195 v 3.7727 h -15.7195 z m -408.706879,0 h 15.71949 v 3.7727 h -15.71949 z"
   id="path1796"
   style="stroke-width:1.96494" /><line
   fill="none"
   stroke-width="3.77268"
   stroke-linejoin="round"
   stroke="#230fd2"
   stroke-opacity="1"
   x1="160.91524"
   y1="64.770584"
   x2="160.91524"
   y2="533.39026"
   id="line1798" /><path
   fill="#ff0000"
   fill-opacity="1"
   stroke-linejoin="round"
   d="m 77.058791,329.9532 h 15.71949 v 3.7727 h -15.71949 z m 31.438989,0 h 15.71949 v 3.7727 h -15.71949 z m 31.43899,0 h 15.71949 v 3.7727 h -15.71949 z m 31.43899,0 h 15.71949 v 3.7727 h -15.71949 z m 31.43899,0 h 15.71949 v 3.7727 h -15.71949 z m 31.43899,0 h 15.71949 v 3.7727 h -15.71949 z m 31.43899,0 h 15.71949 v 3.7727 h -15.71949 z m 31.43899,0 h 15.71949 v 3.7727 h -15.71949 z m 31.43899,0 h 15.7195 v 3.7727 h -15.7195 z m 31.43899,0 h 15.71953 v 3.7727 H 360.0097 Z m 31.43903,0 h 15.7195 v 3.7727 h -15.7195 z m 31.439,0 h 15.7195 v 3.7727 h -15.7195 z m 31.439,0 h 15.7195 v 3.7727 h -15.7195 z m -408.706929,0 h 15.71949 v 3.7727 h -15.71949 z"
   id="path1802"
   style="stroke-width:1.96494" /><path
   fill="#ffffff"
   fill-opacity="1"
   stroke-width="0.312319"
   stroke-linejoin="round"
   d="m 159.2355,313.7267 c 11.05008,0 20,8.9542 20,19.9992 0,11.0465 -8.94992,20.0008 -20,20.0008 -11.05008,0 -20,-8.9543 -20,-20.0008 0,-11.045 8.94992,-19.9992 20,-19.9992 z"
   id="path4760" /><text
   transform="scale(0.96654368,1.0346144)"
   xml:space="preserve"
   id="text1814"
   x="88.436996"
   y="55.577568"
   style="font-style:normal;font-variant:normal;font-weight:normal;font-stretch:normal;font-size:32px;font-family:sans-serif;-inkscape-font-specification:'sans-serif, Normal';font-variant-ligatures:normal;font-variant-caps:normal;font-variant-numeric:normal;font-variant-east-asian:normal;stroke-width:1.8992">			 <tspan
   style="font-style:normal;font-variant:normal;font-weight:normal;font-stretch:normal;font-size:32px;font-family:sans-serif;-inkscape-font-specification:'sans-serif, Normal';font-variant-ligatures:normal;font-variant-caps:normal;font-variant-numeric:normal;font-variant-east-asian:normal"
   letter-spacing="0em"
   fill="#230fd2"
   fill-opacity="1"
   stroke-width="0.379839"
   stroke-linejoin="round"
   id="tspan1812">c0</tspan>		</text><text
   transform="scale(0.96654368,1.0346144)"
   xml:space="preserve"
   id="text1818"
   x="214.48004"
   y="55.577568"
   style="font-style:normal;font-variant:normal;font-weight:normal;font-stretch:normal;font-size:32px;font-family:sans-serif;-inkscape-font-specification:'sans-serif, Normal';font-variant-ligatures:normal;font-variant-caps:normal;font-variant-numeric:normal;font-variant-east-asian:normal;stroke-width:1.8992">			 <tspan
   style="font-style:normal;font-variant:normal;font-weight:normal;font-stretch:normal;font-size:32px;font-family:sans-serif;-inkscape-font-specification:'sans-serif, Normal';font-variant-ligatures:normal;font-variant-caps:normal;font-variant-numeric:normal;font-variant-east-asian:normal"
   letter-spacing="0em"
   fill="#230fd2"
   fill-opacity="1"
   stroke-width="0.379839"
   stroke-linejoin="round"
   id="tspan1816">c1</tspan>		</text><line
   fill="none"
   stroke-width="3.77268"
   stroke-linejoin="round"
   stroke="#230fd2"
   stroke-opacity="1"
   x1="281.06271"
   y1="63.151142"
   x2="281.06271"
   y2="531.77087"
   id="line1820" /><path
   fill="#ffffff"
   fill-opacity="1"
   stroke-width="0.312319"
   stroke-linejoin="round"
   d="m 284.13217,312.5026 c 11.05008,0 20,8.9542 20,19.9992 0,11.0465 -8.94992,20.0008 -20,20.0008 -11.05008,0 -20,-8.9543 -20,-20.0008 0,-11.045 8.94992,-19.9992 20,-19.9992 z"
   id="path4762" /><path
   fill="#ffffff"
   fill-opacity="1"
   stroke-width="0.312319"
   stroke-linejoin="round"
   d="m 159.24126,202.9762 c 11.05008,0 20,8.9542 20,19.9992 0,11.0465 -8.94992,20.0008 -20,20.0008 -11.05008,0 -20,-8.9543 -20,-20.0008 0,-11.045 8.94992,-19.9992 20,-19.9992 z"
   id="path1822" /><path
   fill="#ffffff"
   fill-opacity="1"
   stroke-width="0.312319"
   stroke-linejoin="round"
   d="m 282.33872,202.5321 c 11.0501,0 20,8.9543 20,19.9993 0,11.0464 -8.9499,20.0007 -20,20.0007 -11.0501,0 -20,-8.9543 -20,-20.0007 0,-11.045 8.9499,-19.9993 20,-19.9993 z"
   id="path1826" /><path
   fill="#ffffff"
   fill-opacity="1"
   stroke-width="0.392987"
   stroke-linejoin="round"
   d="m 280.4621,91.819871 c 13.44017,0 24.32592,11.657969 24.32592,26.035419 0,14.3794 -10.88575,26.03341 -24.32592,26.03341 -13.44016,0 -24.32591,-11.65401 -24.32591,-26.03341 0,-14.37745 10.88575,-26.035419 24.32591,-26.035419 z"
   id="path1830" /><text
   transform="scale(0.96654368,1.0346144)"
   xml:space="preserve"
   id="text1834"
   x="155.12466"
   y="227.43187"
   style="font-size:22.7904px;stroke-width:1.8992"><tspan
   style="font-size:31.4543px;font-family:'メイリオ'"
   letter-spacing="0em"
   fill="#230fd2"
   fill-opacity="1"
   stroke-width="0.379839"
   stroke-linejoin="round"
   stroke="#230fd2"
   stroke-opacity="1"
   id="tspan1832">X</tspan>	</text><path
   fill="#ffffff"
   fill-opacity="1"
   stroke-linejoin="round"
   stroke="#0096ff"
   stroke-opacity="1"
   d="m 280.20666,92.440791 c 13.42052,0 24.32592,11.656009 24.32592,26.035419 0,14.37739 -10.9054,26.03339 -24.32592,26.03339 -13.44017,0 -24.32592,-11.656 -24.32592,-26.03339 0,-14.37941 10.88575,-26.035419 24.32592,-26.035419 z"
   id="path1840"
   style="stroke-width:1.96494" /><text
   transform="scale(0.96654368,1.0346144)"
   xml:space="preserve"
   id="text1844"
   x="280.25821"
   y="125.78356"
   style="font-size:22.7904px;stroke-width:1.8992"><tspan
   style="font-size:31.4543px;font-family:'メイリオ'"
   letter-spacing="0em"
   fill="#230fd2"
   fill-opacity="1"
   stroke-width="0.379839"
   stroke-linejoin="round"
   stroke="#230fd2"
   stroke-opacity="1"
   id="tspan1842">X</tspan>	</text><path
   fill="#ffffff"
   fill-opacity="1"
   stroke-width="1.15537"
   stroke-linejoin="round"
   d="m 522.14603,120.12617 c 117.6234,0 213.2026,11.49511 213.2026,25.67603 0,14.179 -95.5792,25.6741 -213.2026,25.6741 -117.7955,0 -213.20294,-11.4951 -213.20294,-25.6741 0,-14.18092 95.40744,-25.67603 213.20294,-25.67603 z"
   id="path1063" /><text
   transform="scale(0.96654368,1.0346144)"
   xml:space="preserve"
   id="text1856"
   x="280.89105"
   y="149.20799"
   style="font-size:22.7904px;stroke-width:1.8992">			 <tspan
   style="font-size:30.3872px;font-family:'メイリオ'"
   letter-spacing="0em"
   fill="#000000"
   fill-opacity="1"
   stroke-width="0.607737"
   stroke-linejoin="round"
   stroke="#000000"
   stroke-opacity="1"
   id="tspan1854">(1)Not covered by CoverSet.</tspan>		</text><text
   transform="scale(0.96654368,1.0346144)"
   xml:space="preserve"
   id="text1862"
   x="-3.4743066e-06"
   y="23.113819"
   style="font-size:22.7904px;stroke-width:1.8992">			 <tspan
   style="font-size:30.3872px;font-family:'メイリオ'"
   letter-spacing="0em"
   fill="#230fd2"
   fill-opacity="1"
   stroke-width="0.607737"
   stroke-linejoin="round"
   stroke="#230fd2"
   stroke-opacity="1"
   id="tspan1860">2-BaseSet:C0,c1</tspan>		</text><text
   transform="scale(0.96654368,1.0346144)"
   xml:space="preserve"
   id="text1866"
   x="278.37878"
   y="25.046925"
   style="font-size:22.7904px;stroke-width:1.8992">			 <tspan
   style="font-size:30.3872px;font-family:'メイリオ'"
   letter-spacing="0em"
   fill="#ff0000"
   fill-opacity="1"
   stroke-width="0.607737"
   stroke-linejoin="round"
   stroke="#ff0000"
   stroke-opacity="1"
   id="tspan1864">2-CoverSet:r0,r1</tspan>		</text><path
   fill="#ffffff"
   fill-opacity="1"
   stroke-width="0.312383"
   stroke-linejoin="round"
   d="m 383.59473,202.5649 c 11.0545,0 20.0081,8.9543 20.0081,20.0007 0,11.045 -8.9536,19.9993 -20.0081,19.9993 -11.0384,0 -19.99191,-8.9543 -19.99191,-19.9993 0,-11.0464 8.95351,-20.0007 19.99191,-20.0007 z"
   id="path1868" /><text
   transform="scale(0.96654368,1.0346144)"
   xml:space="preserve"
   id="text1872"
   x="388.00485"
   y="225.78624"
   style="font-size:22.7904px;stroke-width:1.8992"><tspan
   style="font-size:31.4543px;font-family:'メイリオ'"
   letter-spacing="0em"
   fill="#ff0000"
   fill-opacity="1"
   stroke-width="0.379839"
   stroke-linejoin="round"
   id="tspan1870">X</tspan>	</text><text
   transform="scale(0.96654368,1.0346144)"
   xml:space="preserve"
   id="text5"
   x="0.54326284"
   y="226.05467"
   style="font-style:normal;font-variant:normal;font-weight:normal;font-stretch:normal;font-size:32px;font-family:sans-serif;-inkscape-font-specification:'sans-serif, Normal';font-variant-ligatures:normal;font-variant-caps:normal;font-variant-numeric:normal;font-variant-east-asian:normal;fill:#ff0000;fill-opacity:1;stroke:none;stroke-width:1.87298;stroke-opacity:1">r0	</text><text
   transform="scale(0.96654368,1.0346144)"
   xml:space="preserve"
   id="text6"
   x="2.5149426"
   y="329.69226"
   style="font-style:normal;font-variant:normal;font-weight:normal;font-stretch:normal;font-size:32px;font-family:sans-serif;-inkscape-font-specification:'sans-serif, Normal';font-variant-ligatures:normal;font-variant-caps:normal;font-variant-numeric:normal;font-variant-east-asian:normal;fill:#ff0000;fill-opacity:1;stroke-width:1.87298">r1	</text><text
   transform="scale(0.96654368,1.0346144)"
   xml:space="preserve"
   id="text13"
   x="280.99808"
   y="227.43187"
   style="font-size:22.7904px;stroke-width:1.8992"><tspan
   style="font-size:31.4543px;font-family:'メイリオ'"
   letter-spacing="0em"
   fill="#230fd2"
   fill-opacity="1"
   stroke-width="0.379839"
   stroke-linejoin="round"
   stroke="#230fd2"
   stroke-opacity="1"
   id="tspan12">X</tspan>	</text><text
   transform="scale(0.96654368,1.0346144)"
   xml:space="preserve"
   id="text14"
   x="155.12466"
   y="227.43187"
   style="font-size:22.7904px;stroke-width:1.8992"><tspan
   style="font-size:31.4543px;font-family:'メイリオ'"
   letter-spacing="0em"
   fill="#230fd2"
   fill-opacity="1"
   stroke-width="0.379839"
   stroke-linejoin="round"
   stroke="#230fd2"
   stroke-opacity="1"
   id="tspan13">X</tspan>	</text><text
   transform="scale(0.96654368,1.0346144)"
   xml:space="preserve"
   id="text15"
   x="280.99808"
   y="227.43187"
   style="font-size:22.7904px;stroke-width:1.8992"><tspan
   style="font-size:31.4543px;font-family:'メイリオ'"
   letter-spacing="0em"
   fill="#230fd2"
   fill-opacity="1"
   stroke-width="0.379839"
   stroke-linejoin="round"
   stroke="#230fd2"
   stroke-opacity="1"
   id="tspan14">X</tspan>	</text><text
   transform="scale(0.96654368,1.0346144)"
   xml:space="preserve"
   id="text16"
   x="155.12466"
   y="334.8385"
   style="font-size:22.7904px;stroke-width:1.8992"><tspan
   style="font-size:31.4543px;font-family:'メイリオ'"
   letter-spacing="0em"
   fill="#230fd2"
   fill-opacity="1"
   stroke-width="0.379839"
   stroke-linejoin="round"
   stroke="#230fd2"
   stroke-opacity="1"
   id="tspan15">X</tspan>	</text><text
   transform="scale(0.96654368,1.0346144)"
   xml:space="preserve"
   id="text17"
   x="280.99808"
   y="334.8385"
   style="font-size:22.7904px;stroke-width:1.8992"><tspan
   style="font-size:31.4543px;font-family:'メイリオ'"
   letter-spacing="0em"
   fill="#230fd2"
   fill-opacity="1"
   stroke-width="0.379839"
   stroke-linejoin="round"
   stroke="#230fd2"
   stroke-opacity="1"
   id="tspan16">X</tspan>	</text></svg>
